<?xml version="1.0" encoding="UTF-8"?>
<svg width="14px" height="10px" viewBox="0 0 14 10" version="1.1" xmlns="http://www.w3.org/2000/svg" xmlns:xlink="http://www.w3.org/1999/xlink">
    <!-- Generator: Sketch 52.6 (67491) - http://www.bohemiancoding.com/sketch -->
    <title>眼睛</title>
    <desc>Created with Sketch.</desc>
    <g id="Page-1" stroke="none" stroke-width="1" fill="none" fill-rule="evenodd">
        <g id="画板" transform="translate(-435.000000, -173.000000)" fill="#000000">
            <g id="眼睛" transform="translate(434.000000, 170.000000)">
                <g id="分组">
                    <rect id="矩形" opacity="0" x="0" y="0" width="16" height="16"></rect>
                    <path d="M7.99165625,4.21201563 C10.6393438,4.21201563 12.9183438,5.76498438 13.9848594,8.00639062 L15.0241406,8.00639062 C13.8977344,5.22654688 11.1758125,3.26378125 7.99164062,3.26378125 C4.80798438,3.26378125 2.0860625,5.22654688 0.959671875,8.00639062 L1.99896875,8.006375 C3.06545312,5.76498438 5.34445312,4.212 7.99165625,4.212 L7.99165625,4.21201563 Z M7.99165625,11.80075 C5.34446875,11.80075 3.06545313,10.2477813 1.99896875,8.006375 L0.959671875,8.006375 C2.08604688,10.7867188 4.80796875,12.7494688 7.99165625,12.7494688 C11.1758125,12.7494688 13.89775,10.7867031 15.0241406,8.006375 L13.9848438,8.006375 C12.9183281,10.2477812 10.6393438,11.80075 7.99164063,11.80075 L7.99165625,11.80075 Z M5.46240625,8.006625 C5.46240625,9.4036875 6.5948125,10.5360937 7.99185938,10.5360937 C9.38895313,10.5360937 10.5213281,9.4036875 10.5213281,8.006625 C10.5213281,6.60953125 9.38895313,5.47715625 7.99185938,5.47715625 C6.59479688,5.47715625 5.46240625,6.60953125 5.46240625,8.006625 Z M9.57309375,8.006625 C9.57309375,8.87975 8.86496875,9.58782813 7.99185937,9.58782813 C7.11875,9.58782813 6.41114062,8.87973438 6.41114062,8.006625 C6.41114062,7.1335 7.11875,6.425375 7.99185937,6.425375 C8.86496875,6.425375 9.57309375,7.1335 9.57309375,8.006625 Z" id="形状" fill-rule="nonzero"></path>
                </g>
            </g>
        </g>
    </g>
</svg>