<?xml version="1.0" encoding="UTF-8"?>
<svg width="12px" height="13px" viewBox="0 0 12 13" version="1.1" xmlns="http://www.w3.org/2000/svg" xmlns:xlink="http://www.w3.org/1999/xlink">
    <!-- Generator: Sketch 52.6 (67491) - http://www.bohemiancoding.com/sketch -->
    <title>锁定</title>
    <desc>Created with Sketch.</desc>
    <g id="Page-1" stroke="none" stroke-width="1" fill="none" fill-rule="evenodd">
        <g id="画板" transform="translate(-459.000000, -172.000000)" fill="#000000">
            <g id="锁定" transform="translate(458.000000, 171.000000)">
                <g id="分组">
                    <rect id="矩形" opacity="0" x="0" y="0" width="14" height="14"></rect>
                    <path d="M7,7.9882501 C6.69875377,7.9882501 6.45454545,8.23249258 6.45454545,8.53378095 L6.45454545,9.90851867 C6.45454545,10.209807 6.69875377,10.4540495 7,10.4540495 C7.30124623,10.4540495 7.54545455,10.209807 7.54545455,9.90851867 L7.54545455,8.53378095 C7.54545455,8.23249258 7.30124623,7.9882501 7,7.9882501 Z M11.6363636,5.84431389 L11.2872727,5.84431389 L11.2872727,4.99874108 C11.2842681,2.79154329 9.49598,1.00300504 7.28909091,1 L6.71090909,1 C4.50402,1.00300504 2.71573189,2.79154329 2.71272727,4.99874108 L2.71272727,5.84431389 L2.36363636,5.84431389 C1.61176261,5.84730391 1.0029896,6.45616207 1,7.208141 L1,12.6361729 C1,13.3893938 1.61052079,14 2.36363636,14 L11.6363636,14 C12.3894792,14 13,13.3893938 13,12.6361729 L13,7.208141 C12.9970104,6.45616207 12.3882374,5.84730391 11.6363636,5.84431389 Z M3.80363637,4.99874108 C3.80363637,3.3928741 5.1052667,2.09106169 6.71090909,2.09106169 L7.28909091,2.09106169 C8.8947333,2.09106169 10.1963636,3.3928741 10.1963636,4.99874108 L10.1963636,5.84431389 L3.80363637,5.84431389 L3.80363637,4.99874108 Z M11.9090909,12.6361729 C11.9090909,12.7868171 11.7869868,12.9089383 11.6363636,12.9089383 L2.36363636,12.9089383 C2.29130459,12.9089383 2.22193534,12.8802006 2.17078906,12.8290472 C2.11964278,12.7778937 2.09090909,12.7085148 2.09090909,12.6361729 L2.09090909,7.208141 C2.09090909,7.05749682 2.21301325,6.93537558 2.36363636,6.93537558 L11.6363636,6.93537558 C11.7869868,6.93537558 11.9090909,7.05749682 11.9090909,7.208141 L11.9090909,12.6361729 Z" id="形状" fill-rule="nonzero"></path>
                </g>
            </g>
        </g>
    </g>
</svg>