<?xml version="1.0" encoding="UTF-8"?>
<svg width="16px" height="12px" viewBox="0 0 16 12" version="1.1" xmlns="http://www.w3.org/2000/svg" xmlns:xlink="http://www.w3.org/1999/xlink">
    <!-- Generator: Sketch 52.6 (67491) - http://www.bohemiancoding.com/sketch -->
    <title>视频</title>
    <desc>Created with Sketch.</desc>
    <g id="Page-1" stroke="none" stroke-width="1" fill="none" fill-rule="evenodd">
        <g id="画板" transform="translate(-410.000000, -172.000000)" fill="#000000">
            <g id="视频" transform="translate(410.000000, 170.000000)">
                <g id="分组">
                    <rect id="矩形" opacity="0" x="0" y="0" width="16" height="16"></rect>
                    <path d="M14.8,13.2 L1.2,13.2 C0.536,13.2 0,12.664 0,12 L0,4 C0,3.336 0.536,2.8 1.2,2.8 L14.8,2.8 C15.464,2.8 16,3.336 16,4 L16,12 C16,12.664 15.464,13.2 14.8,13.2 Z M1.2,3.6 C0.976,3.6 0.8,3.776 0.8,4 L0.8,12 C0.8,12.224 0.976,12.4 1.2,12.4 L14.8,12.4 C15.024,12.4 15.2,12.224 15.2,12 L15.2,4 C15.2,3.776 15.024,3.6 14.8,3.6 L1.2,3.6 Z" id="形状" fill-rule="nonzero"></path>
                    <path d="M2.8,6.8 L0.4,6.8 C0.176,6.8 0,6.624 0,6.4 L0,4 C0,3.336 0.536,2.8 1.2,2.8 L2.8,2.8 C3.024,2.8 3.2,2.976 3.2,3.2 L3.2,6.4 C3.2,6.624 3.024,6.8 2.8,6.8 Z M0.8,6 L2.4,6 L2.4,3.6 L1.2,3.6 C0.976,3.6 0.8,3.776 0.8,4 L0.8,6 Z" id="形状" fill-rule="nonzero"></path>
                    <path d="M2.8,10 L0.4,10 C0.176,10 0,9.824 0,9.6 L0,6.4 C0,6.176 0.176,6 0.4,6 L2.8,6 C3.024,6 3.2,6.176 3.2,6.4 L3.2,9.6 C3.2,9.824 3.024,10 2.8,10 Z M0.8,9.2 L2.4,9.2 L2.4,6.8 L0.8,6.8 L0.8,9.2 Z" id="形状" fill-rule="nonzero"></path>
                    <path d="M2.8,13.2 L1.2,13.2 C0.536,13.2 0,12.664 0,12 L0,9.6 C0,9.376 0.184,9.2 0.4,9.2 L2.8,9.2 C3.024,9.2 3.2,9.384 3.2,9.6 L3.2,12.8 C3.2,13.016 3.016,13.2 2.8,13.2 Z M0.8,10 L0.8,12 C0.8,12.224 0.976,12.4 1.2,12.4 L2.4,12.4 L2.4,10 L0.8,10 Z M14.8,13.2 L13.2,13.2 C12.976,13.2 12.8,13.024 12.8,12.8 L12.8,9.6 C12.8,9.376 12.976,9.2 13.2,9.2 L15.6,9.2 C15.824,9.2 16,9.376 16,9.6 L16,12 C16,12.664 15.464,13.2 14.8,13.2 Z M13.6,12.4 L14.8,12.4 C15.024,12.4 15.2,12.224 15.2,12 L15.2,10 L13.6,10 L13.6,12.4 Z" id="形状" fill-rule="nonzero"></path>
                    <path d="M15.6,10 L13.2,10 C12.976,10 12.8,9.824 12.8,9.6 L12.8,6.4 C12.8,6.176 12.976,6 13.2,6 L15.6,6 C15.824,6 16,6.176 16,6.4 L16,9.6 C16,9.824 15.824,10 15.6,10 Z M13.6,9.2 L15.2,9.2 L15.2,6.8 L13.6,6.8 L13.6,9.2 Z" id="形状" fill-rule="nonzero"></path>
                    <path d="M15.6,6.8 L13.2,6.8 C12.976,6.8 12.8,6.616 12.8,6.4 L12.8,3.2 C12.8,2.976 12.984,2.8 13.2,2.8 L14.8,2.8 C15.464,2.8 16,3.336 16,4 L16,6.4 C16,6.616 15.816,6.8 15.6,6.8 Z M13.6,6 L15.2,6 L15.2,4 C15.2,3.776 15.024,3.6 14.8,3.6 L13.6,3.6 L13.6,6 Z M6.592,10.496 C6.456,10.496 6.32,10.464 6.192,10.392 C5.944,10.248 5.792,9.984 5.792,9.696 L5.792,6.312 C5.792,6.024 5.952,5.76 6.2,5.616 C6.448,5.472 6.76,5.48 7.008,5.624 L9.84,7.328 C10.08,7.48 10.216,7.744 10.208,8.024 C10.2,8.296 10.056,8.544 9.824,8.68 L7.008,10.376 C6.872,10.456 6.728,10.496 6.592,10.496 Z M6.592,6.304 L6.592,9.688 L9.408,8 L6.592,6.304 Z" id="形状" fill-rule="nonzero"></path>
                </g>
            </g>
        </g>
    </g>
</svg>