<?xml version="1.0" encoding="UTF-8"?>
<svg width="16px" height="16px" viewBox="0 0 16 16" version="1.1" xmlns="http://www.w3.org/2000/svg" xmlns:xlink="http://www.w3.org/1999/xlink">
    <!-- Generator: Sketch 52.6 (67491) - http://www.bohemiancoding.com/sketch -->
    <title>设置</title>
    <desc>Created with Sketch.</desc>
    <g id="Page-1" stroke="none" stroke-width="1" fill="none" fill-rule="evenodd">
        <g id="画板" transform="translate(-573.000000, -169.000000)" fill="#FFFFFF">
            <g id="设置" transform="translate(573.000000, 169.000000)">
                <g id="分组">
                    <rect id="矩形" opacity="0" x="0" y="0" width="16" height="16"></rect>
                    <path d="M7.89097948,4.87998567 C6.09669753,4.87998567 4.63704658,6.33736814 4.63704658,8.12936587 C4.63704658,9.92060745 6.09669753,11.3787461 7.89097948,11.3787461 C9.68526144,11.3787461 11.1449124,9.92060745 11.1449124,8.12936587 C11.1449124,6.33736814 9.68526144,4.87998567 7.89097948,4.87998567 Z M7.89097948,10.3074921 C6.68798084,10.3074921 5.70982867,9.33009603 5.70982867,8.12936587 C5.70982867,6.92787955 6.68796509,5.95125544 7.89097948,5.95125544 C9.09396236,5.95125544 10.0721145,6.92787955 10.0721145,8.12936587 C10.0721145,9.3301118 9.09397811,10.3074921 7.89097948,10.3074921 Z M14.6342779,5.83088469 L13.9854637,5.83088469 C13.8953865,5.83088469 13.8136112,5.77713452 13.7795527,5.69309081 C13.7447222,5.61055942 13.7636418,5.51440145 13.827994,5.45082123 L14.2867765,4.99279484 C14.7039389,4.57563244 14.7039389,3.89427191 14.2867765,3.47786567 L12.5492851,1.74267423 C12.3403337,1.53444748 12.0655179,1.42998753 11.790702,1.42998753 C11.5158862,1.42998753 11.2410546,1.53444748 11.0321189,1.74267423 L10.5725645,2.20070063 C10.5301409,2.24310844 10.4733661,2.26582466 10.4158352,2.26582466 C10.3863135,2.26582466 10.3575323,2.2605158 10.3302949,2.24915769 C10.2470074,2.21509911 10.192501,2.13332388 10.192501,2.04324667 L10.192501,1.39515705 C10.192501,0.806157953 9.70948997,0.257266688 9.11971895,0.257266688 L6.66224,0.257266687 C6.07171284,0.257266687 5.58945791,0.806142203 5.58945791,1.39515705 L5.58945791,2.04323091 C5.58945791,2.13330811 5.5357235,2.21508336 5.45167978,2.24914192 C5.42442663,2.26050003 5.39566114,2.26580889 5.36689567,2.26580889 C5.30859281,2.26580889 5.25181802,2.24309267 5.20865405,2.20068486 L4.74985577,1.74267423 C4.54090436,1.53444748 4.26608853,1.42998753 3.99127269,1.42998753 C3.71645684,1.42998753 3.44164102,1.53444748 3.23267386,1.74267423 L1.4951667,3.47788142 C1.07726389,3.89427191 1.07726389,4.5756482 1.4951667,4.99281059 L1.953965,5.45083698 C2.01830136,5.51443294 2.03722105,5.61057517 2.00240631,5.69310656 C1.96834773,5.77715027 1.8865725,5.83090044 1.79647953,5.83090044 L1.14768102,5.83090044 C0.557153859,5.83090044 0.0302384062,6.31317111 0.0302384062,6.9021702 L0.0302384062,9.35585263 C0.0302384062,9.94562363 0.557169609,10.4278786 1.14768102,10.4278786 L1.79649528,10.4278786 C1.88658825,10.4278786 1.96834773,10.4816287 2.00242206,10.5649163 C2.0372368,10.6481723 2.01831711,10.7435899 1.95398075,10.8071701 L1.49518245,11.2659527 C1.0780358,11.6823431 1.0780358,12.3644756 1.49518245,12.7808818 L3.23267386,14.5161048 C3.44164102,14.7243 3.71645684,14.8287915 3.99127269,14.8287915 C4.26608853,14.8287915 4.54090436,14.7243 4.74985577,14.5161048 L5.20863831,14.0573065 C5.25180228,14.0148987 5.30859283,13.9921982 5.36613953,13.9921982 C5.39566116,13.9921982 5.42442664,13.9982632 5.4516798,14.0096055 C5.5357235,14.0436641 5.58945792,14.1246832 5.58945792,14.2147762 L5.58945792,14.8628343 C5.58945792,15.4526053 6.07172859,15.9787646 6.66224002,15.9787646 L9.11971898,15.9787646 C9.70948998,15.9787646 10.1925011,15.4526053 10.1925011,14.8628343 L10.1925011,14.2147762 C10.1925011,14.1246832 10.2470074,14.0436641 10.330295,14.0096055 C10.3575324,13.9982474 10.3863136,13.9921982 10.4150791,13.9921982 C10.4733662,13.9921982 10.530141,14.0148987 10.5725645,14.0573065 L11.032119,14.5161048 C11.2403142,14.7243 11.5158862,14.8287915 11.7907021,14.8287915 C12.0655179,14.8287915 12.3403337,14.7243 12.5492851,14.5161048 L14.2867765,12.7808818 C14.703939,12.3644913 14.703939,11.6823589 14.2867765,11.2659527 L13.827994,10.8071701 C13.7636418,10.7435742 13.7447222,10.6481723 13.7795526,10.5649163 C13.8136112,10.4816287 13.8953865,10.4278786 13.9854637,10.4278786 L14.6342779,10.4278786 C15.2248051,10.4278786 15.7517363,9.94560789 15.7517363,9.35585263 L15.7517363,6.90215445 C15.7517363,6.31315536 15.2248051,5.83088469 14.6342779,5.83088469 Z M14.6797104,9.35583687 L13.9854637,9.35583687 C13.4593201,9.35583687 12.9899199,9.67003589 12.78853,10.154575 C12.5871402,10.6398546 12.6969248,11.1932828 13.0693951,11.5650127 L13.5281934,12.0230391 L11.790702,13.7582621 L11.3311476,13.2994638 C11.0866095,13.0556976 10.7610682,12.9209284 10.415079,12.9209284 C10.2439828,12.9209284 10.0774392,12.9542466 9.9191818,13.0193548 C9.43314609,13.2207447 9.11970323,13.689373 9.11970323,14.2147919 L9.11970323,14.9075263 L6.66224,14.9075263 L6.66224,14.2147919 C6.66224,13.689373 6.34805673,13.2207447 5.86277719,13.0193549 C5.70453556,12.9542466 5.53797622,12.9209284 5.36613953,12.9209284 C5.02013466,12.9209284 4.6953652,13.0556977 4.45082716,13.2994638 L3.9912727,13.7582621 L2.2537813,12.0230392 L2.71256384,11.5650128 C3.08429381,11.1932828 3.19483452,10.6398546 2.99344469,10.1545751 C2.79205486,9.67003592 2.32267036,9.35583691 1.79649531,9.35583691 L1.10300473,9.35583687 L1.10300473,6.90215445 L1.79647953,6.90215445 C2.32263883,6.90215445 2.79203908,6.58872734 2.99342891,6.10343205 C3.19481873,5.61813675 3.08427803,5.06470853 2.71254806,4.69375048 L2.25376552,4.23496794 L3.99125692,2.499745 L4.45081138,2.95852755 C4.69534942,3.20306559 5.02013464,3.33706292 5.36612375,3.33706292 C5.53720428,3.33706292 5.7045198,3.30451666 5.86276141,3.23865223 C6.34804095,3.03801856 6.66222422,2.56861831 6.66222422,2.04321517 L6.66222425,1.32853647 L9.11970322,1.32853647 L9.11970322,2.04321517 C9.11970322,2.56861831 9.43313033,3.03801856 9.91918178,3.23865223 C10.0774234,3.30450091 10.2439828,3.33706292 10.415079,3.33706292 C10.7610682,3.33706292 11.0866095,3.20306559 11.3311476,2.95852755 L11.790702,2.499745 L13.5281934,4.23496794 L13.0693951,4.69375048 C12.696909,5.06470855 12.5871402,5.61813675 12.78853,6.10343205 C12.9899199,6.58872734 13.4593201,6.90215445 13.9854637,6.90215445 L14.6797104,6.90215445 L14.6797104,9.35583687 Z" id="形状" fill-rule="nonzero"></path>
                </g>
            </g>
        </g>
    </g>
</svg>