<?xml version="1.0" encoding="UTF-8"?>
<svg width="23px" height="23px" viewBox="0 0 23 23" version="1.1" xmlns="http://www.w3.org/2000/svg" xmlns:xlink="http://www.w3.org/1999/xlink">
    <!-- Generator: Sketch 52.6 (67491) - http://www.bohemiancoding.com/sketch -->
    <title>模板</title>
    <desc>Created with Sketch.</desc>
    <g id="Page-1" stroke="none" stroke-width="1" fill="none" fill-rule="evenodd">
        <g id="画板" transform="translate(-29.000000, -73.000000)">
            <g id="模板" transform="translate(28.000000, 72.000000)">
                <g id="分组">
                    <rect id="矩形" fill="#000000" opacity="0" x="0" y="0" width="25" height="25"></rect>
                    <path d="M1.5625,3.11796875 C1.5625,2.25859375 2.2671875,1.5625 3.13203125,1.5625 L9.36796875,1.5625 C10.2351563,1.5625 10.9375,2.265625 10.9375,3.11796875 L10.9375,21.8828125 C10.9375,22.7421875 10.2328125,23.4382812 9.36796875,23.4382812 L3.1328125,23.4382812 C2.26484375,23.4375 1.5625,22.734375 1.5625,21.8820313 L1.5625,3.1171875 L1.5625,3.11796875 Z M3.125,3.90703125 L3.125,21.0929688 C3.125,21.5257812 3.4734375,21.875 3.90390625,21.875 L8.59609375,21.875 C9.02109375,21.875 9.375,21.525 9.375,21.09375 L9.375,3.90625 C9.375,3.47421875 9.0265625,3.125 8.59609375,3.125 L3.90390625,3.125 C3.47890625,3.125 3.125,3.475 3.125,3.90625 L3.125,3.90703125 Z M12.5,3.13203125 C12.5,2.26484375 13.2007812,1.5625 14.0671875,1.5625 L21.8703125,1.5625 C22.7359375,1.5625 23.4375,2.2671875 23.4375,3.13203125 L23.4375,9.36796875 C23.4375,10.2351562 22.7367188,10.9375 21.8703125,10.9375 L14.0671875,10.9375 C13.2012748,10.9362069 12.499999,10.2338825 12.5,9.36796875 L12.5,3.1328125 L12.5,3.13203125 Z M14.0625,3.90390625 L14.0625,8.59609375 C14.0637818,9.02513069 14.4108103,9.37285672 14.8398438,9.375 L21.0976563,9.375 C21.5195313,9.375 21.875,9.0265625 21.875,8.59609375 L21.875,3.90390625 C21.8737182,3.47486931 21.5266897,3.12714328 21.0976563,3.125 L14.8398438,3.125 C14.4179688,3.125 14.0625,3.4734375 14.0625,3.90390625 Z M12.5,14.0671875 C12.5,13.2015625 13.2007812,12.5 14.0671875,12.5 L21.8703125,12.5 C22.7359375,12.5 23.4375,13.2007812 23.4375,14.0671875 L23.4375,21.8703125 C23.4377074,22.28602 23.2726601,22.6847608 22.9787104,22.9787104 C22.6847608,23.2726601 22.28602,23.4377074 21.8703125,23.4375 L14.0671875,23.4375 C13.65148,23.4377074 13.2527392,23.2726601 12.9587896,22.9787104 C12.6648399,22.6847608 12.4997926,22.28602 12.5,21.8703125 L12.5,14.0671875 Z M14.0625,14.840625 L14.0625,21.0976562 C14.0625,21.5195312 14.4109375,21.875 14.8398438,21.875 L21.0976563,21.875 C21.5195313,21.875 21.875,21.5265625 21.875,21.0976562 L21.875,14.8398437 C21.875,14.4179687 21.5265625,14.0625 21.0976563,14.0625 L14.8398438,14.0625 C14.4179688,14.0625 14.0625,14.4109375 14.0625,14.8398437 L14.0625,14.840625 Z" id="形状" fill="#02A7F9" fill-rule="nonzero"></path>
                    <path d="M4.5,5.5 L4.5,9.5" id="直线" stroke="#02A7F9" stroke-width="1.5" stroke-linecap="round"></path>
                </g>
            </g>
        </g>
    </g>
</svg>