<?xml version="1.0" encoding="UTF-8"?>
<svg width="25px" height="24px" viewBox="0 0 25 24" version="1.1" xmlns="http://www.w3.org/2000/svg" xmlns:xlink="http://www.w3.org/1999/xlink">
    <!-- Generator: Sketch 52.6 (67491) - http://www.bohemiancoding.com/sketch -->
    <title>分组</title>
    <desc>Created with Sketch.</desc>
    <g id="Page-1" stroke="none" stroke-width="1" fill="none" fill-rule="evenodd">
        <g id="画板" transform="translate(-29.000000, -232.000000)">
            <g id="分组" transform="translate(27.000000, 231.000000)">
                <rect id="矩形" fill="#000000" opacity="0" x="0" y="0" width="28" height="28"></rect>
                <path d="M22.2982812,18.7140625 L21.5334766,18.7140625 L21.5334766,23.5848047 C21.5334766,24.2571875 20.9882422,24.8024219 20.3158594,24.8024219 L15.9425,24.8024219 C15.526875,23.0630859 13.9584375,21.7582422 12.0963281,21.7582422 C10.2342188,21.7582422 8.66578125,23.0630859 8.25015625,24.8024219 L3.87679687,24.8024219 C3.20441406,24.8024219 2.65917969,24.2571875 2.65917969,23.5848047 L2.65917969,18.9071094 C4.39851562,18.4914844 5.70335937,16.9230469 5.70335937,15.0609375 C5.70335937,13.1988281 4.39851562,11.6303906 2.65917969,11.2147656 L2.65917969,7.7546875 C2.65917969,7.08230469 3.20441406,6.53707031 3.87679687,6.53707031 L8.13886719,6.53707031 L8.13886719,5.77226563 C8.13886719,3.76332031 9.5725,1.96519531 11.5642187,1.70160156 C13.9751172,1.3825 16.0537891,3.27222656 16.0537891,5.62378906 L16.0537891,6.53707031 L20.3158594,6.53707031 C20.9882422,6.53707031 21.5334766,7.08230469 21.5334766,7.7546875 L21.5334766,10.7988672 L22.4467578,10.7988672 C24.7983203,10.7988672 26.6880469,12.8778125 26.3689453,15.2884375 C26.1053516,17.2801563 24.3075,18.7140625 22.2982812,18.7140625 Z" id="路径"></path>
                <path d="M12.0963281,2.88394531 C13.6070703,2.88394531 14.8361719,4.11304688 14.8361719,5.62378906 L14.8361719,6.53707031 C14.8361719,7.20945312 15.3814063,7.7546875 16.0537891,7.7546875 L20.3158594,7.7546875 L20.3158594,10.7988672 C20.3158594,11.47125 20.8610937,12.0164844 21.5334766,12.0164844 L22.4467578,12.0164844 C23.2320703,12.0164844 23.9826562,12.3591016 24.5062891,12.9565625 C25.0345703,13.5594922 25.2675391,14.3308594 25.1617187,15.12875 C24.9831641,16.4784375 23.751875,17.4961719 22.2980078,17.4961719 L21.5332031,17.4961719 C20.8608203,17.4961719 20.3155859,18.0414063 20.3155859,18.7137891 L20.3155859,23.5845312 L16.80875,23.5845312 C15.9848828,21.7530469 14.1640625,20.540625 12.0963281,20.540625 C10.0285937,20.540625 8.20804688,21.7530469 7.38417969,23.5848047 L3.87679688,23.5848047 L3.87679688,19.7730859 C5.70855469,18.9492188 6.92125,17.1286719 6.92125,15.0609375 C6.92125,12.9932031 5.70882813,11.1726562 3.87707031,10.3487891 L3.87707031,7.7546875 L8.13914062,7.7546875 C8.81152344,7.7546875 9.35675781,7.20945312 9.35675781,6.53707031 L9.35675781,5.77226562 C9.35675781,4.31839844 10.3744922,3.08738281 11.7241797,2.90855469 C11.8480469,2.89214844 11.9732812,2.88394531 12.0963281,2.88394531 Z" id="路径" fill="#02A7F9" fill-rule="nonzero"></path>
                <path d="M12.0963281,1.66632812 C11.9213281,1.66632812 11.7435938,1.6778125 11.5642188,1.70160156 C9.5725,1.96519531 8.13886719,3.76332031 8.13886719,5.77226563 L8.13886719,6.53707031 L3.87679688,6.53707031 C3.20414063,6.53707031 2.65917969,7.08230469 2.65917969,7.7546875 L2.65917969,11.2147656 C4.39851563,11.6303906 5.70335937,13.1988281 5.70335937,15.0609375 C5.70335937,16.9230469 4.39851563,18.4914844 2.65917969,18.9071094 L2.65917969,23.5848047 C2.65917969,24.2574609 3.20441406,24.8024219 3.87679688,24.8024219 L8.25015625,24.8024219 C8.66578125,23.0630859 10.2342188,21.7582422 12.0963281,21.7582422 C13.9584375,21.7582422 15.526875,23.0630859 15.9425,24.8024219 L20.3158594,24.8024219 C20.9882422,24.8024219 21.5334766,24.2571875 21.5334766,23.5848047 L21.5334766,18.7140625 L22.2982813,18.7140625 C24.3072266,18.7140625 26.1053516,17.2804297 26.3689453,15.2887109 C26.6880469,12.8778125 24.7983203,10.7991406 22.4467578,10.7991406 L21.5334766,10.7991406 L21.5334766,7.7546875 C21.5334766,7.08203125 20.9882422,6.53707031 20.3158594,6.53707031 L16.0537891,6.53707031 L16.0537891,5.62378906 C16.0537891,3.44695313 14.2731641,1.66632813 12.0963281,1.66632812 Z" id="路径" fill="#02A7F9" fill-rule="nonzero"></path>
                <path d="M18.7848828,10.0627734 L18.7848828,12.5559766 C18.7848828,12.9024219 18.5016016,13.1857031 18.1551563,13.1857031 C17.8087109,13.1857031 17.5254297,12.9024219 17.5254297,12.5559766 L17.5254297,10.0627734 C17.5254297,9.71632813 17.8087109,9.43304688 18.1551563,9.43304688 C18.5016016,9.43304688 18.7848828,9.71660156 18.7848828,10.0627734 Z" id="路径" fill="#FFFFFF"></path>
                <path d="M18.1551563,9.43304688 C17.8087109,9.43304688 17.5254297,9.71632813 17.5254297,10.0627734 L17.5254297,12.5559766 C17.5254297,12.9024219 17.8087109,13.1857031 18.1551563,13.1857031 C18.5016016,13.1857031 18.7848828,12.9024219 18.7848828,12.5559766 L18.7848828,10.0627734 C18.7848828,9.71660156 18.5016016,9.43304688 18.1551563,9.43304688 Z" id="路径" fill="#FFFFFF"></path>
            </g>
        </g>
    </g>
</svg>