<?xml version="1.0" encoding="UTF-8"?>
<svg width="19px" height="23px" viewBox="0 0 19 23" version="1.1" xmlns="http://www.w3.org/2000/svg" xmlns:xlink="http://www.w3.org/1999/xlink">
    <!-- Generator: Sketch 52.6 (67491) - http://www.bohemiancoding.com/sketch -->
    <title>水滴 copy</title>
    <desc>Created with Sketch.</desc>
    <g id="Page-1" stroke="none" stroke-width="1" fill="none" fill-rule="evenodd">
        <g id="画板" transform="translate(-31.000000, -154.000000)" fill="#02A7F9">
            <g id="水滴-copy" transform="translate(31.000000, 154.000000)">
                <g id="分组">
                    <path d="M9.33235294,22.3565476 C4.48455882,22.3565476 0.530882353,18.4821429 0.530882353,13.7315476 C0.530882353,7.84464286 6.67794118,2.39583333 8.55,0.876190476 C8.99705882,0.506547619 9.65367647,0.506547619 10.1007353,0.876190476 C11.9867647,2.40952381 18.1198529,7.84464286 18.1198529,13.7315476 C18.1338235,18.4958333 14.1941176,22.3565476 9.33235294,22.3565476 Z M9.33235294,2.14940476 C7.76764706,3.45 2.02573529,8.5702381 2.02573529,13.7452381 C2.02573529,17.7017857 5.30882353,20.9053571 9.33235294,20.9053571 C13.3558824,20.9053571 16.6389706,17.6880952 16.6389706,13.7452381 C16.6529412,8.55654762 10.8970588,3.43630952 9.33235294,2.14940476 Z" id="形状" fill-rule="nonzero"></path>
                    <path d="M7.90735294,19.2214286 C7.8375,19.2214286 7.75367647,19.2077381 7.68382353,19.1940476 C5.50441176,18.5095238 3.86985294,16.7297619 3.40882353,14.5392857 C3.325,14.1422619 3.59044118,13.7589286 3.98161765,13.6767857 C4.38676471,13.5946429 4.77794118,13.8547619 4.86176471,14.2380952 C5.21102941,15.9083333 6.46838235,17.277381 8.13088235,17.7839286 C8.52205882,17.9071429 8.74558824,18.3178571 8.61985294,18.7011905 C8.50808824,19.0160714 8.21470588,19.2214286 7.90735294,19.2214286 Z" id="路径"></path>
                </g>
            </g>
        </g>
    </g>
</svg>