<?xml version="1.0" encoding="UTF-8"?>
<svg width="16px" height="16px" viewBox="0 0 16 16" version="1.1" xmlns="http://www.w3.org/2000/svg" xmlns:xlink="http://www.w3.org/1999/xlink">
    <!-- Generator: Sketch 52.6 (67491) - http://www.bohemiancoding.com/sketch -->
    <title>放大</title>
    <desc>Created with Sketch.</desc>
    <g id="Page-1" stroke="none" stroke-width="1" fill="none" fill-rule="evenodd">
        <g id="画板" transform="translate(-413.000000, -20.000000)" fill="#000000">
            <g id="放大" transform="translate(412.000000, 19.000000)">
                <g id="分组">
                    <rect id="矩形" opacity="0" x="0" y="0" width="18" height="18"></rect>
                    <path d="M1.12481337,1.85348134 L1.12481337,6.5713946 C1.12481337,6.90424093 1.39495421,7.17439976 1.72781854,7.17439976 C2.06068286,7.17439976 2.33082371,6.90424093 2.33082371,6.5713946 L2.33082371,3.1668069 L6.16474431,7.00193269 C6.39025741,7.22746378 6.75569765,7.22746378 6.98239795,7.00193269 C7.20792904,6.77521441 7.20792904,6.40979216 6.98239795,6.18426107 L3.14727216,2.35034047 L6.55185985,2.35034047 C6.88470618,2.35034047 7.15486502,2.08018164 7.15486502,1.7473353 C7.15486502,1.41448897 6.88470618,1.14433014 6.55185985,1.14433014 L1.83394658,1.14433014 C1.39374904,1.14433014 1.12481337,1.3710844 1.12481337,1.85348134 Z M16.131247,1.14433014 L11.4133158,1.14433014 C11.0804694,1.14433014 10.8103106,1.41448897 10.8103106,1.7473353 C10.8103106,2.08019962 11.0804694,2.35034047 11.4133158,2.35034047 L14.8179035,2.35034047 L10.9827777,6.18426107 C10.7572466,6.40977418 10.7572466,6.77521441 10.9827777,7.00193269 C11.209496,7.22746378 11.5749182,7.22746378 11.8004313,7.00193269 L15.6343519,3.1668069 L15.6343519,6.5713946 C15.6343519,6.90424093 15.9045108,7.17439976 16.2373571,7.17439976 C16.5702214,7.17439976 16.8403623,6.90424093 16.8403623,6.5713946 L16.8403622,1.85348134 C16.8403622,1.3710844 16.5726497,1.14433014 16.131247,1.14433014 Z M1.83394658,16.8225003 L6.55187781,16.8225003 C6.88472415,16.8225003 7.15488298,16.5523595 7.15488298,16.2194952 C7.15488298,15.8866309 6.88472415,15.61649 6.55187781,15.61649 L3.14729014,15.61649 L6.98241593,11.7825694 C7.20794702,11.5570563 7.20794702,11.1916161 6.98241593,10.9649158 C6.75569765,10.7393847 6.3902754,10.7393847 6.16476229,10.9649158 L2.33084169,14.8000416 L2.33084169,11.3954539 C2.33084169,11.0626076 2.06070086,10.7924487 1.72783652,10.7924487 C1.39497221,10.7924487 1.12483136,11.0626076 1.12483136,11.3954539 L1.12483136,16.1133851 C1.12481337,16.5957821 1.39374904,16.8225003 1.83394658,16.8225003 Z M16.8403622,16.1133671 L16.8403622,11.3954539 C16.8403622,11.0626076 16.5702214,10.7924487 16.2373571,10.7924487 C15.9045107,10.7924487 15.6343519,11.0626076 15.6343519,11.3954539 L15.6343519,14.8000416 L11.8004313,10.9649158 C11.5749182,10.7393847 11.209478,10.7393847 10.9827777,10.9649158 C10.7572466,11.1916341 10.7572466,11.5570563 10.9827777,11.7825694 L14.8179035,15.61649 L11.4133158,15.61649 C11.0804694,15.61649 10.8103106,15.8866309 10.8103106,16.2194952 C10.8103106,16.5523595 11.0804694,16.8225004 11.4133158,16.8225004 L16.131247,16.8225004 C16.5726497,16.8225003 16.8403622,16.5957821 16.8403622,16.1133671 Z" id="形状" fill-rule="nonzero"></path>
                </g>
            </g>
        </g>
    </g>
</svg>