<?xml version="1.0" encoding="UTF-8"?>
<svg width="23px" height="17px" viewBox="0 0 23 17" version="1.1" xmlns="http://www.w3.org/2000/svg" xmlns:xlink="http://www.w3.org/1999/xlink">
    <!-- Generator: Sketch 52.6 (67491) - http://www.bohemiancoding.com/sketch -->
    <title>形状</title>
    <desc>Created with Sketch.</desc>
    <g id="Page-1" stroke="none" stroke-width="1" fill="none" fill-rule="evenodd">
        <g id="画板" transform="translate(-29.000000, -316.000000)" fill="#02A7F9" fill-rule="nonzero">
            <path d="M49.0550781,316 L31.9449219,316 C30.6,316 29.5,317.092918 29.5,318.429181 L29.5,330.572953 C29.5,331.907082 30.6,333 31.9449219,333 L49.0550781,333 C50.4,333 51.5,331.907082 51.5,330.570819 L51.5,318.429181 C51.5,317.092918 50.4,316 49.0550781,316 Z M31.9449219,317.214591 L49.0550781,317.214591 C49.7296875,317.214591 50.2775391,317.758915 50.2775391,318.429181 L50.2775391,328.500251 L46,324.248117 L42.0275391,328.195003 L35.0214844,321.234053 L30.7224609,325.507534 L30.7224609,318.429181 C30.7224609,317.758915 31.2703125,317.214591 31.9449219,317.214591 Z M30.7224609,330.570819 L30.7224609,327.223757 L35.0214844,322.950276 L43.9138672,331.785409 L31.9449219,331.785409 C31.2703125,331.785409 30.7224609,331.241085 30.7224609,330.570819 Z M49.0550781,331.785409 L45.6412109,331.785409 L42.8912109,329.053114 L46,325.966474 L50.2775391,330.216474 L50.2775391,330.572953 C50.2775391,331.241085 49.7296875,331.785409 49.0550781,331.785409 Z M44.1673828,323.285409 C45.5166016,323.285409 46.6123047,322.198895 46.6123047,320.856228 C46.6123047,319.513561 45.51875,318.427047 44.1673828,318.427047 C42.8160156,318.427047 41.7224609,319.513561 41.7224609,320.856228 C41.7224609,322.198895 42.8160156,323.285409 44.1673828,323.285409 Z M44.1673828,319.641637 C44.8419922,319.641637 45.3898437,320.185962 45.3898437,320.856228 C45.3898437,321.526494 44.8419922,322.070819 44.1673828,322.070819 C43.4927734,322.070819 42.9449219,321.526494 42.9449219,320.856228 C42.9449219,320.185962 43.4927734,319.641637 44.1673828,319.641637 Z" id="形状"></path>
        </g>
    </g>
</svg>