<?xml version="1.0" encoding="UTF-8"?>
<svg width="16px" height="16px" viewBox="0 0 16 16" version="1.1" xmlns="http://www.w3.org/2000/svg" xmlns:xlink="http://www.w3.org/1999/xlink">
    <!-- Generator: Sketch 52.6 (67491) - http://www.bohemiancoding.com/sketch -->
    <title>路径</title>
    <desc>Created with Sketch.</desc>
    <g id="Page-1" stroke="none" stroke-width="1" fill="none" fill-rule="evenodd">
        <g id="画板" transform="translate(-207.000000, -21.000000)" fill="#333333">
            <path d="M216.6,25.08 L209.8,25.08 L211.72,23.16 C212.04,22.84 212.04,22.36 211.72,22.04 C211.4,21.72 210.92,21.72 210.6,22.04 L207.24,25.4 C207.08,25.56 207,25.8 207,25.96 C207,26.2 207.08,26.36 207.24,26.52 L210.6,29.88 C210.92,30.2 211.4,30.2 211.72,29.88 C212.04,29.56 212.04,29.08 211.72,28.76 L209.4,26.44 L216.6,26.44 C219.32,26.44 221.56,28.28 221.56,30.52 C221.56,32.76 219.32,34.6 216.6,34.6 L210.92,34.6 C210.52,34.68 210.2,35 210.2,35.4 C210.2,35.8 210.52,36.12 210.92,36.12 L216.6,36.12 C220.12,36.12 223,33.64 223,30.6 C223,27.56 220.12,25.08 216.6,25.08 Z" id="路径"></path>
        </g>
    </g>
</svg>