<?xml version="1.0" encoding="UTF-8"?>
<svg width="16px" height="16px" viewBox="0 0 16 16" version="1.1" xmlns="http://www.w3.org/2000/svg" xmlns:xlink="http://www.w3.org/1999/xlink">
    <!-- Generator: Sketch 52.6 (67491) - http://www.bohemiancoding.com/sketch -->
    <title>路径</title>
    <desc>Created with Sketch.</desc>
    <g id="Page-1" stroke="none" stroke-width="1" fill="none" fill-rule="evenodd">
        <g id="画板" transform="translate(-248.000000, -21.000000)" fill="#333333">
            <path d="M257.6,25.08 L250.8,25.08 L252.72,23.16 C253.04,22.84 253.04,22.36 252.72,22.04 C252.4,21.72 251.92,21.72 251.6,22.04 L248.24,25.4 C248.08,25.56 248,25.8 248,25.96 C248,26.2 248.08,26.36 248.24,26.52 L251.6,29.88 C251.92,30.2 252.4,30.2 252.72,29.88 C253.04,29.56 253.04,29.08 252.72,28.76 L250.4,26.44 L257.6,26.44 C260.32,26.44 262.56,28.28 262.56,30.52 C262.56,32.76 260.32,34.6 257.6,34.6 L251.92,34.6 C251.52,34.68 251.2,35 251.2,35.4 C251.2,35.8 251.52,36.12 251.92,36.12 L257.6,36.12 C261.12,36.12 264,33.64 264,30.6 C264,27.56 261.12,25.08 257.6,25.08 Z" id="路径" transform="translate(256.000000, 28.960000) scale(-1, 1) translate(-256.000000, -28.960000) "></path>
        </g>
    </g>
</svg>