<?xml version="1.0" encoding="UTF-8"?>
<svg width="16px" height="16px" viewBox="0 0 16 16" version="1.1" xmlns="http://www.w3.org/2000/svg" xmlns:xlink="http://www.w3.org/1999/xlink">
    <!-- Generator: Sketch 52.6 (67491) - http://www.bohemiancoding.com/sketch -->
    <title>新增汇总</title>
    <desc>Created with Sketch.</desc>
    <g id="Page-1" stroke="none" stroke-width="1" fill="none" fill-rule="evenodd">
        <g id="画板" transform="translate(-410.000000, -138.000000)" fill="#FFFFFF">
            <g id="新增汇总" transform="translate(418.000000, 146.000000) scale(-1, 1) translate(-418.000000, -146.000000) translate(410.000000, 138.000000)">
                <g id="分组">
                    <rect id="矩形" opacity="0" x="0" y="0" width="16" height="16"></rect>
                    <path d="M15.8,14.1 L15.8,5.3 C15.8,4.3 15,3.5 14,3.5 L5.3,3.5 C4.3,3.5 3.5,4.3 3.5,5.3 L3.5,14.2 C3.5,15.2 4.3,16 5.3,16 L14.2,16 C15.1,15.8 15.8,15.1 15.8,14.1 Z M8.8,13.2 L8.8,10.6 L6.1,10.6 L6.1,8.8 L8.7,8.8 L8.7,6.1 L10.5,6.1 L10.5,8.7 L13.1,8.7 L13.1,10.5 L10.5,10.5 L10.5,13.1 L8.8,13.1 L8.8,13.2 Z" id="形状" fill-rule="nonzero"></path>
                    <path d="M2.3,11.3 C1.7,11.3 1.3,10.9 1.3,10.3 L1.3,2.3 C1.3,1.7 1.7,1.3 2.3,1.3 L10.3,1.3 C10.9,1.3 11.3,1.7 11.3,2.3 L11.3,2.4 L12.5,2.4 L12.5,1.9 C12.5,0.9 11.7,0.1 10.7,0.1 L1.9,0.1 C0.9,0.1 0.1,0.9 0.1,1.9 L0.1,10.8 C0.1,11.8 0.9,12.6 1.9,12.6 L2.4,12.6 L2.3,11.3 Z" id="路径"></path>
                </g>
            </g>
        </g>
    </g>
</svg>