<?xml version="1.0" encoding="UTF-8"?>
<svg width="14px" height="12px" viewBox="0 0 14 12" version="1.1" xmlns="http://www.w3.org/2000/svg" xmlns:xlink="http://www.w3.org/1999/xlink">
    <!-- Generator: Sketch 52.6 (67491) - http://www.bohemiancoding.com/sketch -->
    <title>字幕</title>
    <desc>Created with Sketch.</desc>
    <g id="Page-1" stroke="none" stroke-width="1" fill="none" fill-rule="evenodd">
        <g id="画板" transform="translate(-411.000000, -202.000000)" fill="#000000">
            <g id="字幕" transform="translate(410.000000, 200.000000)">
                <g id="分组">
                    <rect id="矩形" opacity="0" x="0" y="0" width="16" height="16"></rect>
                    <path d="M12.9785366,2 L3.02146341,2 C1.90682439,2 1,2.88155651 1,3.96513707 L1,12.0348629 C1,13.1184435 1.90682439,14 3.02146341,14 L12.9785366,14 C14.0931756,14 15,13.1184435 15,12.0348629 L15,3.96513707 C15,2.88155651 14.0931756,2 12.9785366,2 Z M13.9756098,12.0348795 C13.9756098,12.5693503 13.5283268,13.0041701 12.9785366,13.0041701 L3.02146341,13.0041701 C2.47167317,13.0041701 2.02439024,12.5693503 2.02439024,12.0348795 L2.02439024,3.96513707 C2.02439024,3.43066626 2.47167317,2.99584649 3.02146341,2.99584649 L12.9785366,2.99584649 C13.5283268,2.99584649 13.9756098,3.43066626 13.9756098,3.96513707 L13.9756098,12.0348795 Z" id="形状" fill-rule="nonzero"></path>
                    <path d="M10.9996211,5 L5.00037886,5 C4.72403629,5 4.5,5.24813877 4.5,5.55421108 C4.5,5.86028339 4.72403629,6.10842216 5.00037886,6.10842216 L7.49962114,6.10842216 L7.49962114,11.4457889 C7.49962114,11.7518612 7.72365744,12 8,12 C8.27635924,12 8.50037886,11.7518612 8.50037886,11.4457889 L8.50037886,6.10842216 L10.9996211,6.10842216 C11.2759637,6.10842216 11.5,5.86028339 11.5,5.55421108 C11.5,5.24813877 11.2759637,5 10.9996211,5 Z" id="路径"></path>
                </g>
            </g>
        </g>
    </g>
</svg>