<?xml version="1.0" encoding="UTF-8"?>
<svg width="114px" height="40px" viewBox="0 0 114 40" version="1.1" xmlns="http://www.w3.org/2000/svg" xmlns:xlink="http://www.w3.org/1999/xlink">
    <!-- Generator: Sketch 52.6 (67491) - http://www.bohemiancoding.com/sketch -->
    <title>分组 6</title>
    <desc>Created with Sketch.</desc>
    <g id="图示" stroke="none" stroke-width="1" fill="none" fill-rule="evenodd">
        <g id="交通工具" transform="translate(-85.000000, -67.000000)">
            <g id="分组-6" transform="translate(85.000000, 67.000000)">
                <path d="M109.90456,22.76786 C110.48956,22.76786 110.96836,22.28906 110.96836,21.70406 L110.96836,17.65166 C110.96836,17.06666 110.48956,16.58806 109.90456,16.58806 C109.31956,16.58806 108.84076,17.06666 108.84076,17.65166 L108.84076,21.70406 C108.84076,22.28906 109.31956,22.76786 109.90456,22.76786" id="Fill-1" fill="#E03217"></path>
                <path d="M79.45154,0.82832 L79.45154,2.36512 L47.04634,2.36512 C51.27594,0.41172 53.49134,0.82832 53.49134,0.82832 L79.45154,0.82832 Z" id="Fill-3" fill="#FC372D"></path>
                <path d="M85.6571,2.43144 L78.7695,2.43144 L78.7695,0.89464 L80.1325,0.89464 C81.8105,0.89584 83.7027,1.48704 85.6571,2.43144" id="Fill-5" fill="#FC372D"></path>
                <path d="M79.45154,2.36514 L79.45154,25.80614 L8.67634,25.80614 C6.42994,25.80614 4.56874,24.38914 4.23374,22.53634 L4.74114,22.53634 C6.21914,18.58454 10.28594,16.29134 14.87814,14.97474 C23.01294,12.64094 32.79814,13.36874 32.79814,13.36874 C38.81234,7.12254 43.59834,3.95674 47.04634,2.36514 L79.45154,2.36514 Z" id="Fill-7" fill="#E4301F"></path>
                <path d="M109.90466,18.91406 L109.90466,21.99946 C109.90466,22.20426 109.88546,22.40646 109.84966,22.60266 C109.51446,24.45546 107.65466,25.87246 105.40946,25.87246 L78.76946,25.87246 L78.76946,2.43146 L85.65706,2.43146 C92.44546,5.71066 99.96986,13.24246 101.71366,15.04126 L105.40946,15.04126 C107.89286,15.04126 109.90466,16.77406 109.90466,18.91406" id="Fill-9" fill="#E4301F"></path>
                <path d="M79.45154,27.54266 L79.45154,30.50706 L2.18114,30.50706 C1.03334,30.50706 0.10114,29.57486 0.10114,28.42706 L0.10114,27.54266 L79.45154,27.54266 Z" id="Fill-11" fill="#161515"></path>
                <path d="M113.98348,27.60898 L113.98348,28.49338 C113.98348,29.64118 113.05228,30.57358 111.90228,30.57358 L78.76948,30.57358 L78.76948,27.60898 L113.98348,27.60898 Z" id="Fill-13" fill="#161515"></path>
                <path d="M79.45154,22.53632 L79.45154,27.54272 L0.10114,27.54272 L0.10114,24.61632 C0.10114,23.46872 1.03334,22.53632 2.18114,22.53632 L79.45154,22.53632 Z" id="Fill-15" fill="#CC0A00"></path>
                <path d="M113.98348,24.6828 L113.98348,27.609 L78.76948,27.609 L78.76948,22.6028 L111.90228,22.6028 C113.05228,22.6028 113.98348,23.535 113.98348,24.6828" id="Fill-17" fill="#CC0A00"></path>
                <path d="M47.29158,11.41962 L52.34698,11.41962 L55.58458,2.36502 L54.06658,2.36502 C52.74758,2.36502 51.50218,2.60062 50.30718,2.99302 L47.29158,11.41962 Z" id="Fill-19" fill="#FBFFFE"></path>
                <polygon id="Fill-21" fill="#C3D9CC" points="55.58464 2.36494 52.34704 11.41954 57.51264 11.41954 57.51264 2.36494"></polygon>
                <path d="M36.674,11.41962 L47.2916,11.41962 L50.3072,2.99302 C47.1866,4.01222 44.4124,6.09302 41.5958,7.81002 C40.721,8.34282 39.849,8.87702 39.0162,9.47642 C38.6034,9.77362 37.0842,11.41962 36.674,11.41962" id="Fill-23" fill="#C3D9CC"></path>
                <polygon id="Fill-25" fill="#FBFFFE" points="67.2324 11.41962 72.2864 11.41962 75.5254 2.36502 70.4714 2.36502"></polygon>
                <polygon id="Fill-27" fill="#C3D9CC" points="75.52536 2.36494 72.28636 11.41954 78.76976 11.41954 78.76976 2.36494"></polygon>
                <polygon id="Fill-29" fill="#C3D9CC" points="58.19402 2.36494 58.19402 11.41954 67.23242 11.41954 70.47142 2.36494"></polygon>
                <polygon id="Fill-31" fill="#C3D9CC" points="78.7694 11.4866 79.4516 11.4866 79.4516 2.4314 78.7694 2.4314"></polygon>
                <path d="M82.01424,11.48602 L87.06824,11.48602 L89.03044,5.99862 C87.47704,4.77902 86.06404,3.97522 84.88924,3.44642 L82.01424,11.48602 Z" id="Fill-33" fill="#FBFFFE"></path>
                <path d="M89.03034,5.99872 L87.06814,11.48612 L94.36774,11.48612 C92.50654,9.07012 90.68734,7.29732 89.03034,5.99872" id="Fill-34" fill="#C3D9CC"></path>
                <path d="M80.1324,2.43124 L80.1324,11.48604 L82.0142,11.48604 L84.8894,3.44644 C82.7732,2.49264 81.431,2.43124 81.431,2.43124 L80.1324,2.43124 Z" id="Fill-35" fill="#C3D9CC"></path>
                <polygon id="Fill-36" fill="#CC0A00" points="79.451 11.486 80.1324 11.486 80.1324 2.4312 79.451 2.4312"></polygon>
                <polygon id="Fill-37" fill="#CC0A00" points="78.7694 11.4202 79.4516 11.4202 79.4516 2.3652 78.7694 2.3652"></polygon>
                <polygon id="Fill-38" fill="#CC0A00" points="57.5126 11.4196 58.194 11.4196 58.194 2.365 57.5126 2.365"></polygon>
                <polygon id="Fill-39" fill="#CC0A00" points="28.145 20.2264 79.4516 20.2264 79.4516 18.9972 28.145 18.9972"></polygon>
                <polygon id="Fill-40" fill="#CC0A00" points="78.7694 20.2928 89.6724 20.2928 89.6724 19.0636 78.7694 19.0636"></polygon>
                <polygon id="Fill-41" fill="#FC372D" points="26.8382 19.1684 79.4516 19.1684 79.4516 18.1882 26.8382 18.1882"></polygon>
                <polygon id="Fill-42" fill="#FC372D" points="78.7694 19.2348 89.6724 19.2348 89.6724 18.2546 78.7694 18.2546"></polygon>
                <path d="M11.86462,17.8328 C10.17642,19.178 9.28442,20.8668 9.87242,21.6048 C10.46042,22.3428 12.30582,21.8504 13.99402,20.5052 C15.68222,19.16 16.57422,17.4714 15.98622,16.7334 C15.39822,15.9954 13.55302,16.4876 11.86462,17.8328" id="Fill-43" fill="#FFCD2E"></path>
                <polygon id="Fill-44" fill="#CC0A00" points="57.5126 22.6844 58.194 22.6844 58.194 2.3986 57.5126 2.3986"></polygon>
                <polygon id="Fill-45" fill="#FC372D" points="56.8314 22.65 57.5126 22.65 57.5126 2.365 56.8314 2.365"></polygon>
                <polygon id="Fill-46" fill="#CC0A00" points="79.4508 22.6028 80.1322 22.6028 80.1322 2.399 79.4508 2.399"></polygon>
                <polygon id="Fill-47" fill="#FC372D" points="78.7694 22.5684 79.4504 22.5684 79.4504 2.3652 78.7694 2.3652"></polygon>
                <path d="M36.67362,30.16094 C36.64802,30.62194 36.59682,31.07514 36.52002,31.51954 L13.71522,31.51954 C13.63842,31.07074 13.58582,30.61434 13.56162,30.14894 C13.86902,24.03234 18.92502,19.16914 25.11682,19.16914 C31.31482,19.16914 36.37382,24.03854 36.67362,30.16094" id="Fill-48" fill="#E4301F"></path>
                <path d="M34.06784,30.33944 C34.06784,35.28244 30.06064,39.28964 25.11764,39.28964 C20.17464,39.28964 16.16744,35.28244 16.16744,30.33944 C16.16744,25.39644 20.17464,21.38924 25.11764,21.38924 C30.06064,21.38924 34.06784,25.39644 34.06784,30.33944" id="Fill-49" fill="#1F1C23"></path>
                <path d="M31.17352,30.33974 C31.17352,30.49434 31.16792,30.64814 31.15592,30.80014 C30.91792,27.67294 28.30572,25.20994 25.11752,25.20994 C21.93012,25.20994 19.31692,27.67294 19.07892,30.80014 C19.06692,30.64814 19.06132,30.49434 19.06132,30.33974 C19.06132,26.99494 21.77352,24.28354 25.11752,24.28354 C28.46232,24.28354 31.17352,26.99494 31.17352,30.33974" id="Fill-50" fill="#DBDBDB"></path>
                <path d="M31.15594,30.8001 L31.15594,30.8057 C30.91794,33.9319 28.30574,36.3949 25.11754,36.3949 C21.93014,36.3949 19.31694,33.9319 19.07894,30.8057 L19.07894,30.8001 C19.31694,27.6729 21.93014,25.2099 25.11754,25.2099 C28.30574,25.2099 30.91794,27.6729 31.15594,30.8001" id="Fill-51" fill="#F3F4F6"></path>
                <path d="M28.14548,30.33974 C28.14548,30.49714 28.13348,30.65194 28.11028,30.80274 C27.88788,29.35054 26.63288,28.23794 25.11748,28.23794 C23.60288,28.23794 22.34788,29.35054 22.12468,30.80274 C22.10148,30.65194 22.08948,30.49714 22.08948,30.33974 C22.08948,28.66694 23.44548,27.31174 25.11748,27.31174 C26.79028,27.31174 28.14548,28.66694 28.14548,30.33974" id="Fill-52" fill="#72727C"></path>
                <path d="M28.11024,30.80282 C27.88804,32.25522 26.63284,33.36782 25.11744,33.36782 C23.60284,33.36782 22.34784,32.25522 22.12464,30.80282 C22.34784,29.35042 23.60284,28.23802 25.11744,28.23802 C26.63284,28.23802 27.88804,29.35042 28.11024,30.80282" id="Fill-53" fill="#8E8E9A"></path>
                <path d="M103.9158,29.21338 C103.9158,29.42258 103.9098,29.63198 103.8992,29.83838 C103.5994,23.71598 98.5404,18.84658 92.3424,18.84658 C86.1506,18.84658 81.0946,23.70978 80.7872,29.82638 C80.7768,29.62298 80.7706,29.41978 80.7706,29.21338 C80.7706,29.08698 80.7722,28.96178 80.7782,28.83678 C80.9756,22.61938 86.0784,17.64158 92.3424,17.64158 C98.608,17.64158 103.711,22.61938 103.9082,28.83678 C103.9144,28.96178 103.9158,29.08698 103.9158,29.21338" id="Fill-54" fill="#FC372D"></path>
                <path d="M103.8992,29.83838 C103.8736,30.29938 103.8224,30.75258 103.7456,31.19698 L80.9408,31.19698 C80.864,30.74818 80.8114,30.29178 80.7872,29.82638 C81.0946,23.70978 86.1506,18.84658 92.3424,18.84658 C98.5404,18.84658 103.5994,23.71598 103.8992,29.83838" id="Fill-55" fill="#E4301F"></path>
                <path d="M101.29344,30.01688 C101.29344,34.95988 97.28624,38.96708 92.34324,38.96708 C87.40024,38.96708 83.39304,34.95988 83.39304,30.01688 C83.39304,25.07388 87.40024,21.06668 92.34324,21.06668 C97.28624,21.06668 101.29344,25.07388 101.29344,30.01688" id="Fill-56" fill="#1F1C23"></path>
                <path d="M98.3992,30.01718 C98.3992,30.17178 98.3936,30.32558 98.3816,30.47758 C98.1436,27.35038 95.5314,24.88738 92.343,24.88738 C89.1558,24.88738 86.5426,27.35038 86.3046,30.47758 C86.2926,30.32558 86.287,30.17178 86.287,30.01718 C86.287,26.67238 88.9992,23.96098 92.343,23.96098 C95.6878,23.96098 98.3992,26.67238 98.3992,30.01718" id="Fill-57" fill="#DBDBDB"></path>
                <path d="M98.38152,30.47754 L98.38152,30.48314 C98.14352,33.60934 95.53132,36.07234 92.34312,36.07234 C89.15572,36.07234 86.54272,33.60934 86.30452,30.48314 L86.30452,30.47754 C86.54272,27.35034 89.15572,24.88734 92.34312,24.88734 C95.53132,24.88734 98.14352,27.35034 98.38152,30.47754" id="Fill-58" fill="#F3F4F6"></path>
                <path d="M95.37106,30.01718 C95.37106,30.17458 95.35906,30.32938 95.33586,30.48018 C95.11346,29.02778 93.85846,27.91538 92.34306,27.91538 C90.82866,27.91538 89.57346,29.02778 89.35026,30.48018 C89.32706,30.32938 89.31506,30.17458 89.31506,30.01718 C89.31506,28.34418 90.67106,26.98918 92.34306,26.98918 C94.01606,26.98918 95.37106,28.34418 95.37106,30.01718" id="Fill-59" fill="#72727C"></path>
                <path d="M95.33592,30.48026 C95.11352,31.93266 93.85852,33.04526 92.34312,33.04526 C90.82852,33.04526 89.57352,31.93266 89.35032,30.48026 C89.57352,29.02786 90.82852,27.91546 92.34312,27.91546 C93.85852,27.91546 95.11352,29.02786 95.33592,30.48026" id="Fill-60" fill="#8E8E9A"></path>
                <path d="M36.68982,29.53554 C36.68982,29.74534 36.68382,29.95434 36.67382,30.16134 C36.65602,29.78834 36.61902,29.42014 36.56642,29.05694 C36.56242,29.03294 36.55942,29.00814 36.55542,28.98434 C36.54562,28.91754 36.53462,28.85094 36.52262,28.78434 C36.49282,28.60014 36.45702,28.41914 36.41722,28.23794 C36.41022,28.20814 36.40422,28.17934 36.39722,28.14934 C36.38342,28.08674 36.36842,28.02514 36.35242,27.96234 C36.34162,27.91554 36.32962,27.86994 36.31662,27.82314 C36.29982,27.75334 36.28082,27.68474 36.26202,27.61614 C36.24602,27.55834 36.22922,27.49974 36.21122,27.44194 C36.20022,27.40314 36.18842,27.36334 36.17542,27.32454 C36.16642,27.29274 36.15642,27.26094 36.14562,27.22914 C36.13062,27.17934 36.11482,27.12954 36.09782,27.08094 C36.08682,27.04594 36.07482,27.01114 36.06302,26.97734 C36.04702,26.93054 36.03122,26.88374 36.01422,26.83694 C35.98722,26.76234 35.96042,26.68874 35.93162,26.61514 C35.90482,26.54454 35.87782,26.47394 35.84802,26.40414 C35.78142,26.23594 35.70982,26.06994 35.63302,25.90474 C35.61122,25.85594 35.58842,25.80714 35.56442,25.75954 C35.54562,25.71874 35.52662,25.67794 35.50582,25.63814 C35.49782,25.62014 35.48882,25.60214 35.47882,25.58434 C35.44802,25.52074 35.41622,25.45794 35.38342,25.39634 C35.37542,25.38034 35.36742,25.36354 35.35742,25.34754 C35.32962,25.29174 35.29982,25.23714 35.26902,25.18234 C35.25302,25.15154 35.23602,25.12074 35.21822,25.08974 C35.05002,24.78934 34.86802,24.49674 34.67382,24.21334 C34.62322,24.13854 34.57142,24.06494 34.51882,23.99234 C34.47302,23.92674 34.42522,23.86294 34.37642,23.79934 C34.35742,23.77334 34.33862,23.74754 34.31882,23.72174 C34.28882,23.68194 34.25902,23.64314 34.22722,23.60434 C34.20422,23.57334 34.17942,23.54254 34.15462,23.51274 C34.11782,23.46494 34.08002,23.41834 34.04102,23.37254 C34.03222,23.36154 34.02322,23.35054 34.01322,23.33974 C33.96462,23.27994 33.91382,23.22014 33.86202,23.16154 C33.85602,23.15354 33.85002,23.14654 33.84322,23.13974 C33.80142,23.09094 33.75742,23.04214 33.71382,22.99434 C33.41822,22.66594 33.10482,22.35454 32.77342,22.06294 C32.72762,22.02234 32.68102,21.98134 32.63422,21.94274 C32.61122,21.92274 32.58842,21.90274 32.56542,21.88394 C32.52082,21.84614 32.47602,21.80934 32.43122,21.77254 C32.41522,21.75854 32.39942,21.74554 32.38242,21.73274 C32.34262,21.69994 32.30182,21.66814 32.26102,21.63514 C32.22922,21.61134 32.19742,21.58554 32.16462,21.56154 C32.12182,21.52774 32.07802,21.49494 32.03322,21.46194 C31.96942,21.41334 31.90482,21.36654 31.83922,21.31974 C31.71982,21.23414 31.59842,21.15054 31.47502,21.06994 C31.39642,21.01834 31.31782,20.96754 31.23722,20.91774 C31.18142,20.88294 31.12482,20.84814 31.06802,20.81334 C31.04822,20.80134 31.02822,20.79034 31.00842,20.77754 C30.95462,20.74554 30.89982,20.71474 30.84522,20.68294 C30.83422,20.67714 30.82322,20.66994 30.81122,20.66414 C30.75362,20.63134 30.69582,20.59934 30.63722,20.56754 C30.61442,20.55454 30.59142,20.54274 30.56862,20.53074 C30.51382,20.50094 30.45802,20.47214 30.40242,20.44414 C30.39442,20.43934 30.38642,20.43534 30.37842,20.43214 C30.32182,20.40134 30.26402,20.37354 30.20642,20.34454 C30.17842,20.33074 30.14962,20.31674 30.12082,20.30394 C30.06702,20.27714 30.01342,20.25214 29.95862,20.22714 C29.66422,20.09094 29.36162,19.96654 29.05322,19.85514 C28.99442,19.83434 28.93562,19.81334 28.87702,19.79354 C28.84622,19.78254 28.81542,19.77154 28.78462,19.76154 C28.73082,19.74374 28.67802,19.72674 28.62422,19.70994 C28.60142,19.70194 28.57742,19.69494 28.55462,19.68794 C28.50382,19.67214 28.45222,19.65614 28.40142,19.64114 C28.35962,19.62934 28.31882,19.61734 28.27722,19.60534 C28.23322,19.59254 28.18962,19.58054 28.14582,19.56854 C28.11982,19.56154 28.09302,19.55474 28.06602,19.54774 C28.00342,19.53074 27.93982,19.51474 27.87602,19.49994 C27.79542,19.47994 27.71482,19.46114 27.63422,19.44314 C27.38862,19.38854 27.14082,19.34174 26.88902,19.30394 C26.83042,19.29394 26.77162,19.28594 26.71282,19.27794 C26.67402,19.27214 26.63622,19.26714 26.59762,19.26314 C26.55862,19.25714 26.51982,19.25314 26.48102,19.24914 C26.43442,19.24214 26.38762,19.23714 26.34082,19.23334 C26.29102,19.22714 26.24022,19.22234 26.18962,19.21834 C26.13282,19.21234 26.07622,19.20734 26.01942,19.20334 C26.00162,19.20134 25.98462,19.20034 25.96662,19.19934 C25.89302,19.19354 25.81942,19.18954 25.74482,19.18554 C25.72182,19.18454 25.69802,19.18254 25.67402,19.18154 C25.58562,19.17754 25.49602,19.17454 25.40642,19.17254 C25.31002,19.16954 25.21342,19.16854 25.11702,19.16854 C25.02042,19.16854 24.92382,19.16954 24.82742,19.17254 C24.73782,19.17454 24.64722,19.17754 24.55882,19.18154 C24.53682,19.18254 24.51502,19.18354 24.49402,19.18554 C24.41742,19.18954 24.34182,19.19354 24.26622,19.19934 C24.25122,19.20034 24.23742,19.20134 24.22342,19.20334 C24.15982,19.20734 24.09702,19.21234 24.03442,19.21934 C23.99162,19.22234 23.94982,19.22634 23.90702,19.23134 C23.85222,19.23714 23.79762,19.24334 23.74382,19.25014 C23.70902,19.25314 23.67522,19.25714 23.64142,19.26214 C23.59662,19.26714 23.55182,19.27294 23.50802,19.28114 C23.45922,19.28594 23.41142,19.29294 23.36282,19.30094 C23.02242,19.35254 22.68822,19.41934 22.35882,19.49994 C22.31702,19.50994 22.27522,19.51974 22.23442,19.53074 C22.17082,19.54674 22.10802,19.56354 22.04442,19.58154 C22.04242,19.58154 22.04142,19.58154 22.04042,19.58254 C21.95882,19.60434 21.87722,19.62814 21.79662,19.65314 C21.78082,19.65714 21.76582,19.66114 21.75082,19.66714 C21.67322,19.68894 21.59662,19.71394 21.52002,19.73974 C21.51702,19.73974 21.51402,19.74074 21.51202,19.74174 C21.43242,19.76754 21.35382,19.79434 21.27522,19.82234 C21.26222,19.82634 21.24942,19.83034 21.23742,19.83534 C21.17682,19.85714 21.11602,19.87894 21.05642,19.90194 C20.70902,20.03134 20.37082,20.17754 20.04242,20.33774 C19.97982,20.36854 19.91702,20.39934 19.85542,20.43134 C19.84642,20.43614 19.83842,20.44014 19.82942,20.44514 C19.78082,20.46894 19.73202,20.49494 19.68422,20.52174 C19.63842,20.54574 19.59162,20.57054 19.54702,20.59534 C19.52502,20.60734 19.50302,20.61914 19.48222,20.63134 C19.44142,20.65414 19.40062,20.67714 19.36082,20.69994 C19.31202,20.72774 19.26442,20.75554 19.21662,20.78354 C19.20462,20.79134 19.19382,20.79734 19.18282,20.80434 C19.12002,20.84114 19.05842,20.87894 18.99762,20.91774 C18.93802,20.95454 18.87922,20.99234 18.82062,21.03034 C18.77282,21.06114 18.72502,21.09194 18.67822,21.12474 C18.51602,21.23314 18.35682,21.34554 18.20162,21.46194 C18.15882,21.49294 18.11702,21.52474 18.07642,21.55754 C18.04042,21.58354 18.00562,21.61134 17.97082,21.63814 C17.91022,21.68594 17.85042,21.73474 17.79062,21.78334 C17.75602,21.81134 17.72102,21.84014 17.68722,21.86894 C17.65142,21.89874 17.61562,21.92974 17.57982,21.96054 C17.54902,21.98634 17.51822,22.01334 17.48722,22.04114 C17.45942,22.06494 17.43062,22.08994 17.40262,22.11574 C17.36382,22.14954 17.32502,22.18554 17.28622,22.22134 C17.04742,22.44114 16.81762,22.67094 16.59782,22.90974 C16.56482,22.94454 16.53302,22.98054 16.50222,23.01614 C16.46842,23.05214 16.43662,23.08794 16.40582,23.12374 C16.38982,23.14254 16.37282,23.16154 16.35802,23.17934 C16.31422,23.22914 16.27242,23.27894 16.23162,23.32874 C16.21662,23.34554 16.20262,23.36154 16.18982,23.37834 C16.15602,23.41834 16.12402,23.45794 16.09222,23.49794 C16.05542,23.54354 16.01862,23.58934 15.98282,23.63614 C15.94302,23.68694 15.90422,23.73754 15.86642,23.78934 C15.83162,23.83414 15.79782,23.87894 15.76582,23.92474 C15.74002,23.95854 15.71622,23.99234 15.69222,24.02614 C15.59682,24.15954 15.50422,24.29474 15.41562,24.43214 C15.36582,24.50774 15.31822,24.58334 15.27042,24.65994 C15.22262,24.73654 15.17682,24.81414 15.13122,24.89174 C15.09022,24.96054 15.05042,25.03014 15.01162,25.09974 C14.97782,25.16054 14.94402,25.22114 14.91222,25.28294 C14.87722,25.34654 14.84442,25.41034 14.81162,25.47494 C14.77582,25.54254 14.74202,25.61114 14.70922,25.68094 C14.67742,25.74454 14.64662,25.80914 14.61662,25.87394 C14.59382,25.92274 14.57182,25.97134 14.55002,26.02014 C14.48742,26.15954 14.42762,26.30074 14.37082,26.44394 C14.32122,26.56634 14.27442,26.69074 14.22962,26.81514 C14.20662,26.87994 14.18382,26.94354 14.16202,27.00814 C14.15602,27.02614 14.15002,27.04394 14.14402,27.06194 C14.11922,27.13454 14.09622,27.20814 14.07342,27.28094 C14.04842,27.35954 14.02462,27.43814 14.00182,27.51774 C13.97882,27.59634 13.95702,27.67594 13.93602,27.75554 C13.91522,27.83294 13.89522,27.91154 13.87542,27.99014 C13.87342,28.00014 13.87142,28.01014 13.86842,28.02014 C13.85162,28.09074 13.83562,28.16334 13.81962,28.23514 C13.81882,28.23594 13.81882,28.23694 13.81882,28.23794 C13.79682,28.33554 13.77702,28.43414 13.75802,28.53254 C13.74602,28.59114 13.73522,28.64994 13.72522,28.70874 C13.72122,28.72854 13.71722,28.74934 13.71422,28.76934 C13.70122,28.84494 13.68842,28.92054 13.67742,28.99614 C13.67442,29.01614 13.67142,29.03694 13.66842,29.05694 C13.66442,29.08174 13.66142,29.10654 13.65842,29.13154 C13.64842,29.19614 13.64062,29.26094 13.63262,29.32654 C13.59982,29.59714 13.57602,29.87174 13.56202,30.14834 C13.55102,29.94534 13.54502,29.74254 13.54502,29.53554 C13.54502,29.40914 13.54702,29.28474 13.55302,29.15934 C13.55402,29.12554 13.55502,29.09074 13.55802,29.05694 C13.56802,28.78134 13.58882,28.50774 13.61962,28.23794 C13.77582,26.82814 14.18682,25.49474 14.80382,24.28394 C14.92902,24.03714 15.06442,23.79534 15.20662,23.55954 C17.23262,20.20634 20.91302,17.96474 25.11702,17.96474 C31.07002,17.96474 35.97242,22.45694 36.61622,28.23794 C36.64702,28.50774 36.66802,28.78134 36.67782,29.05694 C36.68082,29.09074 36.68182,29.12554 36.68282,29.15934 C36.68882,29.28474 36.68982,29.40914 36.68982,29.53554" id="Fill-61" fill="#FC372D"></path>
                <path d="M35.93894,7.40166 L35.93894,11.16086 C35.93894,11.96886 36.60034,12.63026 37.40834,12.63026 L37.40834,5.93226 C37.00394,5.93226 36.63714,6.09746 36.37054,6.36406 C36.10394,6.62986 35.93894,6.99746 35.93894,7.40166" id="Fill-62" fill="#4F5150"></path>
            </g>
        </g>
    </g>
</svg>