<?xml version="1.0" encoding="UTF-8"?>
<svg width="115px" height="72px" viewBox="0 0 115 72" version="1.1" xmlns="http://www.w3.org/2000/svg" xmlns:xlink="http://www.w3.org/1999/xlink">
    <!-- Generator: Sketch 52.6 (67491) - http://www.bohemiancoding.com/sketch -->
    <title>分组 21</title>
    <desc>Created with Sketch.</desc>
    <defs>
        <path d="M0.0042,0.1884 L1.1904,10.9442 C1.2862,11.8054 2.0144,12.4578 2.8808,12.4578 L16.5918,12.4578 C17.4652,12.4578 18.197,11.7962 18.2836,10.927 L19.362,0.1884" id="path-1"></path>
        <path d="M0.0042,0.1884 L1.1904,10.9442 C1.2862,11.8054 2.0144,12.4578 2.8808,12.4578 L16.5918,12.4578 C17.4652,12.4578 18.197,11.7962 18.2836,10.927 L19.362,0.1884" id="path-3"></path>
        <path d="M0.0042,0.1884 L1.1904,10.9442 C1.2862,11.8054 2.0144,12.4578 2.8808,12.4578 L16.5918,12.4578 C17.4652,12.4578 18.197,11.7962 18.2836,10.927 L19.362,0.1884" id="path-5"></path>
        <path d="M0.0042,0.1884 L1.1904,10.9442 C1.2862,11.8054 2.0144,12.4578 2.8808,12.4578 L16.5918,12.4578 C17.4652,12.4578 18.197,11.7962 18.2836,10.927 L19.362,0.1884" id="path-7"></path>
        <path d="M0.0042,0.1884 L1.1904,10.9442 C1.2862,11.8054 2.0144,12.4578 2.8808,12.4578 L16.5918,12.4578 C17.4652,12.4578 18.197,11.7962 18.2836,10.927 L19.362,0.1884" id="path-9"></path>
        <path d="M0.0042,0.1884 L1.1904,10.9442 C1.2862,11.8054 2.0144,12.4578 2.8808,12.4578 L16.5918,12.4578 C17.4652,12.4578 18.197,11.7962 18.2836,10.927 L19.362,0.1884" id="path-11"></path>
        <path d="M0.0042,0.1884 L1.1904,10.9442 C1.2862,11.8054 2.0144,12.4578 2.8808,12.4578 L16.5918,12.4578 C17.4652,12.4578 18.197,11.7962 18.2836,10.927 L19.362,0.1884" id="path-13"></path>
        <path d="M0.0042,0.1884 L1.1904,10.9442 C1.2862,11.8054 2.0144,12.4578 2.8808,12.4578 L16.5918,12.4578 C17.4652,12.4578 18.197,11.7962 18.2836,10.927 L19.362,0.1884" id="path-15"></path>
        <path d="M0.0042,0.1884 L1.1904,10.9442 C1.2862,11.8054 2.0144,12.4578 2.8808,12.4578 L16.5918,12.4578 C17.4652,12.4578 18.197,11.7962 18.2836,10.927 L19.362,0.1884" id="path-17"></path>
        <path d="M0.0042,0.1884 L1.1904,10.9442 C1.2862,11.8054 2.0144,12.4578 2.8808,12.4578 L16.5918,12.4578 C17.4652,12.4578 18.197,11.7962 18.2836,10.927 L19.362,0.1884" id="path-19"></path>
        <path d="M0.0042,0.1884 L1.1904,10.9442 C1.2862,11.8054 2.0144,12.4578 2.8808,12.4578 L16.5918,12.4578 C17.4652,12.4578 18.197,11.7962 18.2836,10.927 L19.362,0.1884" id="path-21"></path>
        <path d="M0.0042,0.1884 L1.1904,10.9442 C1.2862,11.8054 2.0144,12.4578 2.8808,12.4578 L16.5918,12.4578 C17.4652,12.4578 18.197,11.7962 18.2836,10.927 L19.362,0.1884" id="path-23"></path>
        <path d="M0.0042,0.1884 L1.1904,10.9442 C1.2862,11.8054 2.0144,12.4578 2.8808,12.4578 L16.5918,12.4578 C17.4652,12.4578 18.197,11.7962 18.2836,10.927 L19.362,0.1884" id="path-25"></path>
        <path d="M0.0042,0.1884 L1.1904,10.9442 C1.2862,11.8054 2.0144,12.4578 2.8808,12.4578 L16.5918,12.4578 C17.4652,12.4578 18.197,11.7962 18.2836,10.927 L19.362,0.1884" id="path-27"></path>
        <path d="M0.0042,0.1884 L1.1904,10.9442 C1.2862,11.8054 2.0144,12.4578 2.8808,12.4578 L16.5918,12.4578 C17.4652,12.4578 18.197,11.7962 18.2836,10.927 L19.362,0.1884" id="path-29"></path>
        <path d="M0.0042,0.1884 L1.1904,10.9442 C1.2862,11.8054 2.0144,12.4578 2.8808,12.4578 L16.5918,12.4578 C17.4652,12.4578 18.197,11.7962 18.2836,10.927 L19.362,0.1884" id="path-31"></path>
        <path d="M0.0042,0.1884 L1.1904,10.9442 C1.2862,11.8054 2.0144,12.4578 2.8808,12.4578 L16.5918,12.4578 C17.4652,12.4578 18.197,11.7962 18.2836,10.927 L19.362,0.1884" id="path-33"></path>
        <path d="M0.0042,0.1884 L1.1904,10.9442 C1.2862,11.8054 2.0144,12.4578 2.8808,12.4578 L16.5918,12.4578 C17.4652,12.4578 18.197,11.7962 18.2836,10.927 L19.362,0.1884" id="path-35"></path>
    </defs>
    <g id="图示" stroke="none" stroke-width="1" fill="none" fill-rule="evenodd">
        <g id="交通工具" transform="translate(-537.000000, -533.000000)">
            <g id="分组-21" transform="translate(536.000000, 533.000000)">
                <path d="M70.98702,1.30792 C70.98702,1.30792 74.46582,1.50812 73.68802,6.33932" id="Stroke-583" stroke="#F3F4F6" stroke-width="0.9584"></path>
                <polygon id="Fill-584" fill="#F3F4F6" points="74.0888 16.829 81.5162 16.829 81.5162 13.6964 74.0888 13.6964"></polygon>
                <polygon id="Fill-585" fill="#FFB31A" points="77.80244 26.36416 76.63004 27.79516 55.23484 53.89596 45.37664 12.23016 46.93084 11.86276 52.80064 36.67456 53.16964 38.23656 56.04464 50.38676 75.97204 26.07816 77.17004 24.61676"></polygon>
                <path d="M3.4747,50.3667 C3.4747,62.1521 13.0287,71.7059 24.8139,71.7059 C36.5993,71.7059 46.1533,62.1521 46.1533,50.3667 C46.1533,38.5813 36.5993,29.0275 24.8139,29.0275 C13.0287,29.0275 3.4747,38.5813 3.4747,50.3667" id="Fill-586" fill="#1F1C23"></path>
                <path d="M24.81436,31.05694 C14.14896,31.05694 5.50376,39.70234 5.50376,50.36774 C5.50376,50.86094 5.52156,51.35114 5.55996,51.83554 L5.55996,51.85314 C6.31896,61.82154 14.64816,69.67534 24.81436,69.67534 C34.97776,69.67534 43.30996,61.82154 44.06876,51.85314 L44.06876,51.83554 C44.10736,51.35114 44.12516,50.86094 44.12516,50.36774 C44.12516,39.70234 35.47696,31.05694 24.81436,31.05694" id="Fill-587" fill="#F3F4F6"></path>
                <path d="M24.81436,32.78116 C15.10136,32.78116 7.22816,40.65436 7.22816,50.36756 C7.22816,50.81676 7.24416,51.26316 7.27916,51.70436 L7.27916,51.72036 C7.97056,60.79876 15.55596,67.95116 24.81436,67.95116 C34.07016,67.95116 41.65836,60.79876 42.34976,51.72036 L42.34976,51.70436 C42.38476,51.26316 42.40076,50.81676 42.40076,50.36756 C42.40076,40.65436 34.52496,32.78116 24.81436,32.78116" id="Fill-588" fill="#494949"></path>
                <path d="M24.81436,47.2921 C23.11636,47.2921 21.73976,48.6687 21.73976,50.3669 C21.73976,50.4455 21.74256,50.5235 21.74856,50.6007 L21.74856,50.6035 C21.86936,52.1907 23.19556,53.4413 24.81436,53.4413 C26.43276,53.4413 27.75956,52.1907 27.88036,50.6035 L27.88036,50.6007 C27.88636,50.5235 27.88916,50.4455 27.88916,50.3669 C27.88916,48.6687 26.51216,47.2921 24.81436,47.2921" id="Fill-589" fill="#F3F4F6"></path>
                <path d="M24.81708,48.59678 C23.83808,48.59678 23.04468,49.39038 23.04468,50.36918 C23.04468,50.41458 23.04628,50.45958 23.04968,50.50398 L23.04968,50.50578 C23.11948,51.42058 23.88388,52.14158 24.81708,52.14158 C25.75008,52.14158 26.51468,51.42058 26.58448,50.50578 L26.58448,50.50398 C26.58788,50.45958 26.58948,50.41458 26.58948,50.36918 C26.58948,49.39038 25.79588,48.59678 24.81708,48.59678" id="Fill-590" fill="#494949"></path>
                <polygon id="Fill-591" fill="#F3F4F6" points="24.2416 45.4454 25.3872 45.4454 25.3872 31.8034 24.2416 31.8034"></polygon>
                <polygon id="Fill-592" fill="#F3F4F6" points="24.09384 45.46476 22.98744 45.76116 19.45644 32.58396 20.56324 32.28756"></polygon>
                <polygon id="Fill-593" fill="#F3F4F6" points="22.8497 45.81808 21.8577 46.39068 15.0367 34.57648 16.0287 34.00388"></polygon>
                <polygon id="Fill-594" fill="#F3F4F6" points="21.73936 46.48136 20.92936 47.29156 11.28316 37.64496 12.09316 36.83516"></polygon>
                <polygon id="Fill-595" fill="#F3F4F6" points="20.83858 47.40968 20.26578 48.40168 8.45138 41.58048 9.02418 40.58868"></polygon>
                <polygon id="Fill-596" fill="#F3F4F6" points="20.2087 48.53916 19.9123 49.64556 6.7351 46.11496 7.0315 45.00856"></polygon>
                <polygon id="Fill-597" fill="#F3F4F6" points="6.2504 50.939 19.8924 50.939 19.8924 49.7934 6.2504 49.7934"></polygon>
                <polygon id="Fill-598" fill="#F3F4F6" points="19.91182 51.08664 20.20822 52.19324 7.03122 55.72404 6.73462 54.61744"></polygon>
                <polygon id="Fill-599" fill="#F3F4F6" points="20.26534 52.33096 20.83794 53.32296 9.02374 60.14396 8.45094 59.15176"></polygon>
                <polygon id="Fill-600" fill="#F3F4F6" points="20.92862 53.44132 21.73862 54.25132 12.09222 63.89752 11.28242 63.08752"></polygon>
                <polygon id="Fill-601" fill="#F3F4F6" points="21.85674 54.3421 22.84874 54.9147 16.02774 66.7293 15.03594 66.1563"></polygon>
                <polygon id="Fill-602" fill="#F3F4F6" points="22.98642 54.97198 24.09282 55.26838 20.56202 68.44558 19.45562 68.14918"></polygon>
                <polygon id="Fill-603" fill="#F3F4F6" points="24.2408 68.93 25.3862 68.93 25.3862 55.288 24.2408 55.288"></polygon>
                <polygon id="Fill-604" fill="#F3F4F6" points="25.53388 55.26866 26.64028 54.97226 30.17128 68.14946 29.06468 68.44606"></polygon>
                <polygon id="Fill-605" fill="#F3F4F6" points="26.77802 54.91534 27.77022 54.34274 34.59102 66.15694 33.59902 66.72974"></polygon>
                <polygon id="Fill-606" fill="#F3F4F6" points="27.88838 54.25206 28.69858 53.44206 38.34478 63.08846 37.53478 63.89826"></polygon>
                <polygon id="Fill-607" fill="#F3F4F6" points="28.78936 53.32394 29.36196 52.33174 41.17636 59.15294 40.60356 60.14474"></polygon>
                <polygon id="Fill-608" fill="#F3F4F6" points="29.41924 52.19424 29.71564 51.08784 42.89284 54.61844 42.59644 55.72504"></polygon>
                <polygon id="Fill-609" fill="#F3F4F6" points="29.7352 50.94 43.3772 50.94 43.3772 49.7944 29.7352 49.7944"></polygon>
                <polygon id="Fill-610" fill="#F3F4F6" points="29.71592 49.64678 29.41952 48.54038 42.59652 45.00938 42.89312 46.11598"></polygon>
                <polygon id="Fill-611" fill="#F3F4F6" points="29.3626 48.40246 28.7898 47.41046 40.6042 40.58966 41.1768 41.58166"></polygon>
                <polygon id="Fill-612" fill="#F3F4F6" points="28.69912 47.2921 27.88912 46.4821 37.53572 36.8359 38.34552 37.6459"></polygon>
                <polygon id="Fill-613" fill="#F3F4F6" points="27.771 46.39132 26.779 45.81872 33.6002 34.00412 34.592 34.57712"></polygon>
                <polygon id="Fill-614" fill="#F3F4F6" points="26.6413 45.76144 25.5349 45.46504 29.0657 32.28784 30.1721 32.58424"></polygon>
                <path d="M56.49208,48.21886 C56.45248,48.21406 56.41288,48.20926 56.37288,48.20626 L56.18668,48.19006 C56.18188,48.18966 56.17548,48.18906 56.16908,48.18966 L25.55468,45.70106 C24.27728,45.59626 23.07268,46.00846 22.14908,46.76326 C21.22528,47.51806 20.58368,48.61546 20.43108,49.88906 C20.12608,52.43426 21.88788,54.76726 24.42008,55.16906 L54.75508,59.98566 C54.76148,59.98806 54.76768,59.98886 54.77228,59.98946 L54.95728,60.01786 C54.99668,60.02426 55.03648,60.02906 55.07608,60.03366 C58.33808,60.42466 61.30048,58.09666 61.69148,54.83426 C62.08248,51.57226 59.75428,48.60986 56.49208,48.21886" id="Fill-615" fill="#FFB31A"></path>
                <path d="M60.79228,54.72648 C60.45128,57.57208 57.86748,59.60268 55.02208,59.26168 C54.98768,59.25748 54.95308,59.25328 54.91848,59.24768 L54.75728,59.22268 C54.75328,59.22228 54.74748,59.22168 54.74228,59.21968 C52.04448,58.74888 50.15728,56.24268 50.48708,53.49128 C50.81688,50.74008 53.24268,48.75068 55.97548,48.93088 C55.98108,48.93028 55.98668,48.93088 55.99088,48.93128 L56.15348,48.94528 C56.18808,48.94788 56.22268,48.95228 56.25728,48.95628 C59.10268,49.29728 61.13328,51.88108 60.79228,54.72648" id="Fill-616" fill="#FFD283"></path>
                <path d="M24.80264,48.59678 C23.82364,48.59678 23.03024,49.39038 23.03024,50.36918 C23.03024,50.41458 23.03184,50.45958 23.03524,50.50398 L23.03524,50.50578 C23.10504,51.42058 23.86944,52.14158 24.80264,52.14158 C25.73544,52.14158 26.50024,51.42058 26.57004,50.50578 L26.57004,50.50398 C26.57344,50.45958 26.57504,50.41458 26.57504,50.36918 C26.57504,49.39038 25.78144,48.59678 24.80264,48.59678" id="Fill-617" fill="#494949"></path>
                <path d="M73.14444,50.3667 C73.14444,62.1521 82.69844,71.7059 94.48364,71.7059 C106.26904,71.7059 115.82304,62.1521 115.82304,50.3667 C115.82304,38.5813 106.26904,29.0275 94.48364,29.0275 C82.69844,29.0275 73.14444,38.5813 73.14444,50.3667" id="Fill-618" fill="#1F1C23"></path>
                <path d="M94.48408,31.05694 C83.81868,31.05694 75.17348,39.70234 75.17348,50.36774 C75.17348,50.86094 75.19128,51.35114 75.22968,51.83554 L75.22968,51.85314 C75.98868,61.82154 84.31788,69.67534 94.48408,69.67534 C104.64748,69.67534 112.97968,61.82154 113.73848,51.85314 L113.73848,51.83554 C113.77708,51.35114 113.79488,50.86094 113.79488,50.36774 C113.79488,39.70234 105.14668,31.05694 94.48408,31.05694" id="Fill-619" fill="#F3F4F6"></path>
                <path d="M94.48408,32.78116 C84.77108,32.78116 76.89768,40.65436 76.89768,50.36756 C76.89768,50.81676 76.91388,51.26316 76.94888,51.70436 L76.94888,51.72036 C77.64028,60.79876 85.22568,67.95116 94.48408,67.95116 C103.73988,67.95116 111.32808,60.79876 112.01948,51.72036 L112.01948,51.70436 C112.05448,51.26316 112.07048,50.81676 112.07048,50.36756 C112.07048,40.65436 104.19468,32.78116 94.48408,32.78116" id="Fill-620" fill="#494949"></path>
                <path d="M94.48408,47.2921 C92.78588,47.2921 91.40928,48.6687 91.40928,50.3669 C91.40928,50.4455 91.41228,50.5235 91.41828,50.6007 L91.41828,50.6035 C91.53908,52.1907 92.86528,53.4413 94.48408,53.4413 C96.10248,53.4413 97.42928,52.1907 97.54988,50.6035 L97.54988,50.6007 C97.55608,50.5235 97.55888,50.4455 97.55888,50.3669 C97.55888,48.6687 96.18188,47.2921 94.48408,47.2921" id="Fill-621" fill="#F3F4F6"></path>
                <path d="M94.48682,48.59678 C93.50782,48.59678 92.71442,49.39038 92.71442,50.36918 C92.71442,50.41458 92.71602,50.45958 92.71942,50.50398 L92.71942,50.50578 C92.78922,51.42058 93.55362,52.14158 94.48682,52.14158 C95.41982,52.14158 96.18442,51.42058 96.25422,50.50578 L96.25422,50.50398 C96.25762,50.45958 96.25922,50.41458 96.25922,50.36918 C96.25922,49.39038 95.46562,48.59678 94.48682,48.59678" id="Fill-622" fill="#494949"></path>
                <polygon id="Fill-623" fill="#F3F4F6" points="93.9114 45.4454 95.057 45.4454 95.057 31.8034 93.9114 31.8034"></polygon>
                <polygon id="Fill-624" fill="#F3F4F6" points="93.76358 45.46476 92.65718 45.76116 89.12618 32.58396 90.23298 32.28756"></polygon>
                <polygon id="Fill-625" fill="#F3F4F6" points="92.51944 45.81808 91.52744 46.39068 84.70644 34.57648 85.69844 34.00388"></polygon>
                <polygon id="Fill-626" fill="#F3F4F6" points="91.40908 46.48136 90.59908 47.29156 80.95268 37.64496 81.76288 36.83516"></polygon>
                <polygon id="Fill-627" fill="#F3F4F6" points="90.5083 47.40968 89.9355 48.40168 78.1211 41.58048 78.6939 40.58868"></polygon>
                <polygon id="Fill-628" fill="#F3F4F6" points="89.87842 48.53916 89.58202 49.64556 76.40482 46.11496 76.70102 45.00856"></polygon>
                <polygon id="Fill-629" fill="#F3F4F6" points="75.9202 50.939 89.5622 50.939 89.5622 49.7934 75.9202 49.7934"></polygon>
                <polygon id="Fill-630" fill="#F3F4F6" points="89.58154 51.08664 89.87794 52.19324 76.70094 55.72404 76.40434 54.61744"></polygon>
                <polygon id="Fill-631" fill="#F3F4F6" points="89.93506 52.33096 90.50766 53.32296 78.69346 60.14396 78.12066 59.15176"></polygon>
                <polygon id="Fill-632" fill="#F3F4F6" points="90.59834 53.44132 91.40834 54.25132 81.76194 63.89752 80.95214 63.08752"></polygon>
                <polygon id="Fill-633" fill="#F3F4F6" points="91.52646 54.3421 92.51846 54.9147 85.69746 66.7293 84.70546 66.1563"></polygon>
                <polygon id="Fill-634" fill="#F3F4F6" points="92.65616 54.97198 93.76256 55.26838 90.23176 68.44558 89.12536 68.14918"></polygon>
                <polygon id="Fill-635" fill="#F3F4F6" points="93.9102 68.93 95.0558 68.93 95.0558 55.288 93.9102 55.288"></polygon>
                <polygon id="Fill-636" fill="#F3F4F6" points="95.20362 55.26866 96.31002 54.97226 99.84102 68.14946 98.73442 68.44606"></polygon>
                <polygon id="Fill-637" fill="#F3F4F6" points="96.44776 54.91534 97.43996 54.34274 104.26076 66.15694 103.26876 66.72974"></polygon>
                <polygon id="Fill-638" fill="#F3F4F6" points="97.5581 54.25206 98.3681 53.44206 108.0145 63.08846 107.2045 63.89826"></polygon>
                <polygon id="Fill-639" fill="#F3F4F6" points="98.45888 53.32394 99.03168 52.33174 110.84608 59.15294 110.27328 60.14474"></polygon>
                <polygon id="Fill-640" fill="#F3F4F6" points="99.08896 52.19424 99.38536 51.08784 112.56256 54.61844 112.26616 55.72504"></polygon>
                <polygon id="Fill-641" fill="#F3F4F6" points="99.405 50.94 113.047 50.94 113.047 49.7944 99.405 49.7944"></polygon>
                <polygon id="Fill-642" fill="#F3F4F6" points="99.38564 49.64678 99.08924 48.54038 112.26624 45.00938 112.56284 46.11598"></polygon>
                <polygon id="Fill-643" fill="#F3F4F6" points="99.03232 48.40246 98.45952 47.41046 110.27392 40.58966 110.84652 41.58166"></polygon>
                <polygon id="Fill-644" fill="#F3F4F6" points="98.36884 47.2921 97.55884 46.4821 107.20544 36.8359 108.01524 37.6459"></polygon>
                <polygon id="Fill-645" fill="#F3F4F6" points="97.44072 46.39132 96.44872 45.81872 103.26992 34.00412 104.26172 34.57712"></polygon>
                <polygon id="Fill-646" fill="#F3F4F6" points="96.31104 45.76144 95.20464 45.46504 98.73544 32.28784 99.84184 32.58424"></polygon>
                <polygon id="Fill-647" fill="#FFB31A" points="25.45888 50.8376 24.16888 49.8958 47.13368 18.4454 48.42348 19.3872"></polygon>
                <path d="M2.71162,43.02238 C2.48362,43.02238 2.25242,42.97718 2.02982,42.88178 C1.15082,42.50458 0.74422,41.48658 1.12142,40.60778 C5.24902,30.98878 14.67782,24.77338 25.14262,24.77338 C30.18702,24.77338 35.08062,26.21178 39.29442,28.93318 C40.09782,29.45178 40.32842,30.52358 39.80962,31.32678 C39.29082,32.13018 38.21922,32.36058 37.41582,31.84218 C33.76302,29.48318 29.51902,28.23598 25.14262,28.23598 C16.06422,28.23598 7.88442,33.62818 4.30362,41.97338 C4.02202,42.62938 3.38282,43.02238 2.71162,43.02238" id="Fill-648" fill="#FFB31A"></path>
                <path d="M72.24912,43.0257 C72.02112,43.0257 71.78992,42.9805 71.56732,42.8851 C70.68852,42.5079 70.28172,41.4899 70.65892,40.6113 C74.78632,30.9921 84.21512,24.7767 94.68012,24.7767 C99.72452,24.7767 104.61812,26.2151 108.83192,28.9365 C109.63512,29.4551 109.86592,30.5269 109.34692,31.3301 C108.82832,32.1335 107.75672,32.3641 106.95332,31.8455 C103.30052,29.4865 99.05652,28.2395 94.68012,28.2395 C85.60172,28.2395 77.42172,33.6315 73.84112,41.9767 C73.55952,42.6327 72.92052,43.0257 72.24912,43.0257" id="Fill-649" fill="#FFB31A"></path>
                <path d="M95.4042,49.90128 L94.5016,51.21908 C94.2796,51.06728 88.996,47.41128 83.6418,40.23308 C80.743,36.34388 78.387,32.16528 76.63,27.79528 C76.4816,27.42968 76.3394,27.06368 76.2004,26.69488 C76.1238,26.49028 76.047,26.28428 75.972,26.07828 C75.6206,25.10868 75.298,24.12968 75.0056,23.14248 C74.8108,22.49248 74.6304,21.83768 74.4626,21.17948 C73.3668,16.88768 72.8142,12.44888 72.8142,7.92708 L74.4114,7.92708 C74.4114,12.21268 74.9274,16.17228 75.7804,19.78828 C75.9128,20.35548 76.055,20.91428 76.2052,21.46528 C76.4992,22.54988 76.8218,23.60088 77.17,24.61668 C77.17,24.61828 77.17,24.62008 77.1716,24.62008 C77.3728,25.21268 77.5836,25.79228 77.8008,26.36108 C77.8008,26.36268 77.8008,26.36408 77.8024,26.36408 C79.831,31.67328 82.4744,35.98768 84.8862,39.22848 C90.0822,46.21168 95.3514,49.86448 95.4042,49.90128" id="Fill-650" fill="#FFB31A"></path>
                <path d="M75.78038,19.7882 L75.50098,19.6142 C75.16698,20.1508 74.82038,20.6732 74.46258,21.1794 C70.30018,27.099 64.76238,30.9546 60.70218,33.202 C57.17698,35.1506 54.16778,36.2336 52.80078,36.6744 C52.30878,36.834 52.02918,36.9092 52.01318,36.914 L52.21918,37.6854 L52.42538,38.4586 C52.46538,38.4474 52.72578,38.377 53.16958,38.2364 C54.54478,37.8006 57.67698,36.6952 61.43218,34.6236 C65.41578,32.4242 70.76338,28.7344 75.00558,23.1424 C75.41778,22.601 75.81718,22.0436 76.20518,21.4654 C76.05498,20.9144 75.91278,20.3554 75.78038,19.7882" id="Fill-651" fill="#FFB31A"></path>
                <path d="M98.16202,10.69444 L97.08362,21.43284 C96.99722,22.30204 96.26522,22.96384 95.39182,22.96384 L81.68102,22.96384 C80.81442,22.96384 80.08622,22.31144 79.99042,21.45004 L78.80442,10.69444 L98.16202,10.69444 Z" id="Fill-652" fill="#F4D594"></path>
                <g id="分组" transform="translate(78.800000, 10.506000)">
                    <g>
                        <mask id="mask-2" fill="white">
                            <use xlink:href="#path-1"></use>
                        </mask>
                        <g id="Clip-654"></g>
                        <path d="M-0.78292,-0.943 L20.02748,-0.943" id="Stroke-653" stroke="#F4C676" stroke-width="0.6656" mask="url(#mask-2)"></path>
                    </g>
                    <g>
                        <mask id="mask-4" fill="white">
                            <use xlink:href="#path-3"></use>
                        </mask>
                        <g id="Clip-656"></g>
                        <path d="M-0.78292,0.6988 L20.02748,0.6988" id="Stroke-655" stroke="#F4C676" stroke-width="0.6656" mask="url(#mask-4)"></path>
                    </g>
                    <g>
                        <mask id="mask-6" fill="white">
                            <use xlink:href="#path-5"></use>
                        </mask>
                        <g id="Clip-658"></g>
                        <path d="M-0.78292,2.3404 L20.02748,2.3404" id="Stroke-657" stroke="#F4C676" stroke-width="0.6656" mask="url(#mask-6)"></path>
                    </g>
                    <g>
                        <mask id="mask-8" fill="white">
                            <use xlink:href="#path-7"></use>
                        </mask>
                        <g id="Clip-660"></g>
                        <path d="M-0.78292,3.9822 L20.02748,3.9822" id="Stroke-659" stroke="#F4C676" stroke-width="0.6656" mask="url(#mask-8)"></path>
                    </g>
                    <g>
                        <mask id="mask-10" fill="white">
                            <use xlink:href="#path-9"></use>
                        </mask>
                        <g id="Clip-662"></g>
                        <path d="M-0.78292,5.624 L20.02748,5.624" id="Stroke-661" stroke="#F4C676" stroke-width="0.6656" mask="url(#mask-10)"></path>
                    </g>
                    <g>
                        <mask id="mask-12" fill="white">
                            <use xlink:href="#path-11"></use>
                        </mask>
                        <g id="Clip-664"></g>
                        <path d="M-0.78292,7.26578 L20.02748,7.26578" id="Stroke-663" stroke="#F4C676" stroke-width="0.6656" mask="url(#mask-12)"></path>
                    </g>
                    <g>
                        <mask id="mask-14" fill="white">
                            <use xlink:href="#path-13"></use>
                        </mask>
                        <g id="Clip-666"></g>
                        <path d="M-0.78292,8.90758 L20.02748,8.90758" id="Stroke-665" stroke="#F4C676" stroke-width="0.6656" mask="url(#mask-14)"></path>
                    </g>
                    <g>
                        <mask id="mask-16" fill="white">
                            <use xlink:href="#path-15"></use>
                        </mask>
                        <g id="Clip-668"></g>
                        <path d="M-0.78292,10.54918 L20.02748,10.54918" id="Stroke-667" stroke="#F4C676" stroke-width="0.6656" mask="url(#mask-16)"></path>
                    </g>
                    <g>
                        <mask id="mask-18" fill="white">
                            <use xlink:href="#path-17"></use>
                        </mask>
                        <g id="Clip-670"></g>
                        <path d="M-0.78292,12.19098 L20.02748,12.19098" id="Stroke-669" stroke="#F4C676" stroke-width="0.6656" mask="url(#mask-18)"></path>
                    </g>
                    <g>
                        <mask id="mask-20" fill="white">
                            <use xlink:href="#path-19"></use>
                        </mask>
                        <g id="Clip-672"></g>
                        <path d="M0.39306,-4.71468 L0.39306,17.38252" id="Stroke-671" stroke="#F4C676" stroke-width="0.6656" mask="url(#mask-20)"></path>
                    </g>
                    <g>
                        <mask id="mask-22" fill="white">
                            <use xlink:href="#path-21"></use>
                        </mask>
                        <g id="Clip-674"></g>
                        <path d="M2.7003,-4.71468 L2.7003,17.38252" id="Stroke-673" stroke="#F4C676" stroke-width="0.6656" mask="url(#mask-22)"></path>
                    </g>
                    <g>
                        <mask id="mask-24" fill="white">
                            <use xlink:href="#path-23"></use>
                        </mask>
                        <g id="Clip-676"></g>
                        <path d="M5.00772,-4.71468 L5.00772,17.38252" id="Stroke-675" stroke="#F4C676" stroke-width="0.6656" mask="url(#mask-24)"></path>
                    </g>
                    <g>
                        <mask id="mask-26" fill="white">
                            <use xlink:href="#path-25"></use>
                        </mask>
                        <g id="Clip-678"></g>
                        <path d="M7.31494,-4.71468 L7.31494,17.38252" id="Stroke-677" stroke="#F4C676" stroke-width="0.6656" mask="url(#mask-26)"></path>
                    </g>
                    <g>
                        <mask id="mask-28" fill="white">
                            <use xlink:href="#path-27"></use>
                        </mask>
                        <g id="Clip-680"></g>
                        <path d="M9.62236,-4.71468 L9.62236,17.38252" id="Stroke-679" stroke="#F4C676" stroke-width="0.6656" mask="url(#mask-28)"></path>
                    </g>
                    <g>
                        <mask id="mask-30" fill="white">
                            <use xlink:href="#path-29"></use>
                        </mask>
                        <g id="Clip-682"></g>
                        <path d="M11.92958,-4.71468 L11.92958,17.38252" id="Stroke-681" stroke="#F4C676" stroke-width="0.6656" mask="url(#mask-30)"></path>
                    </g>
                    <g>
                        <mask id="mask-32" fill="white">
                            <use xlink:href="#path-31"></use>
                        </mask>
                        <g id="Clip-684"></g>
                        <path d="M14.23702,-4.71468 L14.23702,17.38252" id="Stroke-683" stroke="#F4C676" stroke-width="0.6656" mask="url(#mask-32)"></path>
                    </g>
                    <g>
                        <mask id="mask-34" fill="white">
                            <use xlink:href="#path-33"></use>
                        </mask>
                        <g id="Clip-686"></g>
                        <path d="M16.54444,-4.71468 L16.54444,17.38252" id="Stroke-685" stroke="#F4C676" stroke-width="0.6656" mask="url(#mask-34)"></path>
                    </g>
                    <g>
                        <mask id="mask-36" fill="white">
                            <use xlink:href="#path-35"></use>
                        </mask>
                        <g id="Clip-688"></g>
                        <path d="M18.85166,-4.71468 L18.85166,17.38252" id="Stroke-687" stroke="#F4C676" stroke-width="0.6656" mask="url(#mask-36)"></path>
                    </g>
                </g>
                <path d="M99.19366,7.69932 L77.76206,7.69932 C77.28406,7.69932 76.89686,8.08672 76.89686,8.56452 L76.89686,8.83072 C76.89686,9.30872 77.28406,9.69592 77.76206,9.69592 L99.19366,9.69592 C99.67146,9.69592 100.05886,9.30872 100.05886,8.83072 L100.05886,8.56452 C100.05886,8.08672 99.67146,7.69932 99.19366,7.69932" id="Fill-689" fill="#F0DBA2"></path>
                <polygon id="Fill-691" fill="#F4C676" points="98.26182 9.696 98.16202 10.6944 78.80442 10.6944 78.69382 9.696"></polygon>
                <path d="M94.48682,48.58018 C93.50782,48.58018 92.71442,49.37378 92.71442,50.35278 C92.71442,50.39798 92.71602,50.44298 92.71942,50.48758 L92.71942,50.48918 C92.78922,51.40418 93.55362,52.12518 94.48682,52.12518 C95.41982,52.12518 96.18442,51.40418 96.25422,50.48918 L96.25422,50.48758 C96.25762,50.44298 96.25922,50.39798 96.25922,50.35278 C96.25922,49.37378 95.46562,48.58018 94.48682,48.58018" id="Fill-693" fill="#494949"></path>
                <path d="M36.34716,10.89094 C36.44896,12.52474 37.42296,14.30454 38.74576,15.27134 C40.87876,16.82994 43.47716,16.00154 45.67976,15.08674 C46.76536,14.63614 47.73776,13.96814 48.79536,13.46314 C50.24636,12.77014 51.84256,12.39894 53.44556,12.31574 C54.23036,12.27514 55.78556,12.25494 55.95496,11.21134 C56.06936,10.50554 55.22996,10.16394 54.65056,10.17314 C52.68556,10.20414 50.72076,10.23554 48.75576,10.26274 C46.83136,10.28974 44.87776,10.43134 42.98376,10.01274 C42.43616,9.89174 41.89816,9.72734 41.38056,9.51134 C40.88916,9.30594 40.44216,9.00254 39.92636,8.85994 C39.22056,8.66454 38.44556,8.63594 37.73556,8.82754 C36.62956,9.12594 36.28816,9.94474 36.34716,10.89094" id="Fill-695" fill="#1F1C23"></path>
                <polygon id="Fill-697" fill="#1F1C23" points="71.5134 7.927 75.8624 7.927 75.8624 5.6908 71.5134 5.6908"></polygon>
                <path d="M71.08194,2.34582 L64.73294,2.34582 C64.38834,2.34582 64.10934,2.06662 64.10934,1.72222 L64.10934,0.89362 C64.10934,0.54922 64.38834,0.26982 64.73294,0.26982 L71.08194,0.26982 C71.42654,0.26982 71.70574,0.54922 71.70574,0.89362 L71.70574,1.72222 C71.70574,2.06662 71.42654,2.34582 71.08194,2.34582" id="Fill-699" fill="#1F1C23"></path>
                <path d="M24.80264,48.60636 C23.82364,48.60636 23.03024,49.39996 23.03024,50.37876 C23.03024,50.42416 23.03184,50.46916 23.03524,50.51356 L23.03524,50.51536 C23.10504,51.43016 23.86944,52.15116 24.80264,52.15116 C25.73544,52.15116 26.50024,51.43016 26.57004,50.51536 L26.57004,50.51356 C26.57344,50.46916 26.57504,50.42416 26.57504,50.37876 C26.57504,49.39996 25.78144,48.60636 24.80264,48.60636" id="Fill-700" fill="#494949"></path>
                <path d="M55.96552,54.17628 L65.07712,60.53568" id="Stroke-701" stroke="#F3F4F6" stroke-width="1.5972"></path>
                <polygon id="Fill-702" fill="#1F1C23" points="63.9254 61.2018 70.6338 61.2018 70.6338 58.552 63.9254 58.552"></polygon>
                <path d="M57.88232,54.17628 C57.88232,55.23488 57.02412,56.09288 55.96552,56.09288 C54.90692,56.09288 54.04892,55.23488 54.04892,54.17628 C54.04892,53.11768 54.90692,52.25948 55.96552,52.25948 C57.02412,52.25948 57.88232,53.11768 57.88232,54.17628" id="Fill-703" fill="#494949"></path>
            </g>
        </g>
    </g>
</svg>