<?xml version="1.0" encoding="UTF-8"?>
<svg width="175px" height="124px" viewBox="0 0 175 124" version="1.1" xmlns="http://www.w3.org/2000/svg" xmlns:xlink="http://www.w3.org/1999/xlink">
    <!-- Generator: Sketch 52.6 (67491) - http://www.bohemiancoding.com/sketch -->
    <title>分组 4</title>
    <desc>Created with Sketch.</desc>
    <defs>
        <polygon id="path-1" points="0.103113001 0.100321928 99.2388749 0.100321928 99.2388749 53.6545455 0.103113001 53.6545455"></polygon>
        <polygon id="path-3" points="0.103113001 0.100321928 126.909819 0.100321928 126.909819 67.2722481 0.103113001 67.2722481"></polygon>
    </defs>
    <g id="图示" stroke="none" stroke-width="1" fill="none" fill-rule="evenodd">
        <g id="交通工具" transform="translate(-421.000000, -746.000000)">
            <g id="分组-4" transform="translate(421.000000, 746.000000)">
                <polygon id="Fill-34" fill="#56768C" points="21.8979457 22.0863002 174.779487 22.0863002 174.779487 0.611012442 21.8979457 0.611012442"></polygon>
                <polygon id="Fill-35" fill="#56768C" points="24.1700357 36.8480124 170.235507 36.8480124 170.235507 32.1858406 24.1700357 32.1858406"></polygon>
                <polygon id="Fill-36" fill="#A4D0E3" points="24.1700357 104.020138 170.235507 104.020138 170.235507 36.8480124 24.1700357 36.8480124"></polygon>
                <polygon id="Fill-37" fill="#56768C" points="24.1700357 108.68231 170.235507 108.68231 170.235507 104.020138 24.1700357 104.020138"></polygon>
                <path d="M21.8980658,22.0863801 L0.382487109,22.0863801 C0.382487109,10.2258101 10.0152436,0.611092379 21.8980658,0.611092379 L21.8980658,22.0863801 Z" id="Fill-38" fill="#7290A0"></path>
                <path d="M21.8980658,22.0863801 L7.54773944,22.0863801 L7.54773944,14.9345457 C7.54773944,7.02390187 13.9725804,0.611092379 21.8980658,0.611092379 L21.8980658,22.0863801 Z" id="Fill-40" fill="#56768C"></path>
                <polygon id="Fill-42" fill="#56768C" points="8.16469556 123.803543 12.7086753 123.803543 12.7086753 19.5326874 8.16469556 19.5326874"></polygon>
                <polygon id="Fill-44" fill="#56768C" points="19.626056 123.803543 24.1700357 123.803543 24.1700357 19.5326874 19.626056 19.5326874"></polygon>
                <polygon id="Fill-45" fill="#56768C" points="170.235507 123.803543 174.779487 123.803543 174.779487 19.5326874 170.235507 19.5326874"></polygon>
                <g id="分组" transform="translate(24.066923, 36.747691)">
                    <mask id="mask-2" fill="white">
                        <use xlink:href="#path-1"></use>
                    </mask>
                    <g id="Clip-47"></g>
                    <polygon id="Fill-46" fill="#FFFFFF" mask="url(#mask-2)" points="99.2388749 -40.7663752 -34.9922276 53.6545455 -40.0814048 46.4467547 94.1496978 -47.974166"></polygon>
                </g>
                <g id="分组" transform="translate(24.066923, 36.747691)">
                    <mask id="mask-4" fill="white">
                        <use xlink:href="#path-3"></use>
                    </mask>
                    <g id="Clip-51"></g>
                    <polygon id="Fill-50" fill="#FFFFFF" mask="url(#mask-4)" points="126.909819 -14.2081431 -7.32128332 80.2127776 -18.2552658 64.7266291 115.975837 -29.6940918"></polygon>
                </g>
                <polygon id="Fill-156" fill="#FEFCFF" points="33.9639687 78.5051944 54.7813823 78.5051944 54.7813823 50.272965 33.9639687 50.272965"></polygon>
                <path d="M51.6376972,76.8369327 L37.107774,76.8369327 C36.5825985,76.8369327 36.156932,76.4120633 36.156932,75.8878712 L36.156932,53.2738697 C36.156932,52.7496776 36.5825985,52.3248082 37.107774,52.3248082 L51.6376972,52.3248082 C52.1628727,52.3248082 52.5885392,52.7496776 52.5885392,53.2738697 L52.5885392,75.8878712 C52.5885392,76.4120633 52.1628727,76.8369327 51.6376972,76.8369327 Z" id="Stroke-158" stroke="#56768C" stroke-width="0.8"></path>
                <path d="M48.933754,57.6366545 L39.4227309,57.6366545 C39.1216009,57.6366545 38.8775335,57.3930441 38.8775335,57.0926778 L38.8775335,55.9137953 C38.8775335,55.613429 39.1216009,55.3696187 39.4227309,55.3696187 L48.933754,55.3696187 C49.2346838,55.3696187 49.4789515,55.613429 49.4789515,55.9137953 L49.4789515,57.0926778 C49.4789515,57.3930441 49.2346838,57.6366545 48.933754,57.6366545" id="Fill-159" fill="#56768C"></path>
            </g>
        </g>
    </g>
</svg>