<?xml version="1.0" encoding="UTF-8"?>
<svg width="219px" height="82px" viewBox="0 0 219 82" version="1.1" xmlns="http://www.w3.org/2000/svg" xmlns:xlink="http://www.w3.org/1999/xlink">
    <!-- Generator: Sketch 52.6 (67491) - http://www.bohemiancoding.com/sketch -->
    <title>分组 5</title>
    <desc>Created with Sketch.</desc>
    <defs>
        <polygon id="path-1" points="0.160135491 0.097803888 87.904734 0.097803888 87.904734 60.0778468 0.160135491 60.0778468"></polygon>
        <path d="M0.693760285,0.01918507 C0.322753703,0.01918507 0.0192210642,0.321949456 0.0192210642,0.692261275 L0.0192210642,22.3394152 C0.0192210642,22.7097271 0.322753703,23.0126913 0.693760285,23.0126913 L189.299652,23.0126913 C189.670458,23.0126913 189.974191,22.7097271 189.974191,22.3394152 L189.974191,0.692261275 C189.974191,0.321949456 189.670458,0.01918507 189.299652,0.01918507" id="path-3"></path>
        <path d="M0.693760285,0.01918507 C0.322753703,0.01918507 0.0192210642,0.321949456 0.0192210642,0.692261275 L0.0192210642,22.3394152 C0.0192210642,22.7097271 0.322753703,23.0126913 0.693760285,23.0126913 L189.299652,23.0126913 C189.670458,23.0126913 189.974191,22.7097271 189.974191,22.3394152 L189.974191,0.692261275 C189.974191,0.321949456 189.670458,0.01918507 189.299652,0.01918507" id="path-5"></path>
        <path d="M0.693760285,0.01918507 C0.322753703,0.01918507 0.0192210642,0.321949456 0.0192210642,0.692261275 L0.0192210642,22.3394152 C0.0192210642,22.7097271 0.322753703,23.0126913 0.693760285,23.0126913 L189.299652,23.0126913 C189.670458,23.0126913 189.974191,22.7097271 189.974191,22.3394152 L189.974191,0.692261275 C189.974191,0.321949456 189.670458,0.01918507 189.299652,0.01918507" id="path-7"></path>
        <path d="M0.693760285,0.01918507 C0.322753703,0.01918507 0.0192210642,0.321949456 0.0192210642,0.692261275 L0.0192210642,22.3394152 C0.0192210642,22.7097271 0.322753703,23.0126913 0.693760285,23.0126913 L189.299652,23.0126913 C189.670458,23.0126913 189.974191,22.7097271 189.974191,22.3394152 L189.974191,0.692261275 C189.974191,0.321949456 189.670458,0.01918507 189.299652,0.01918507" id="path-9"></path>
    </defs>
    <g id="图示" stroke="none" stroke-width="1" fill="none" fill-rule="evenodd">
        <g id="交通工具" transform="translate(-433.000000, -896.000000)">
            <g id="分组-5" transform="translate(433.000000, 896.000000)">
                <g id="分组" transform="translate(2.330773, 1.942092)">
                    <mask id="mask-2" fill="white">
                        <use xlink:href="#path-1"></use>
                    </mask>
                    <g id="Clip-49"></g>
                    <polygon id="Fill-48" fill="#FFFFFF" mask="url(#mask-2)" points="139.480415 7.30539487 5.24931267 101.726316 0.160135491 94.5185247 134.391238 0.097803888"></polygon>
                </g>
                <path d="M213.641467,69.369639 L11.3461733,69.369639 C8.81560011,69.369639 6.76395173,67.3220324 6.76395173,64.7957984 L6.76395173,4.87802698 C6.76395173,2.35199277 8.81560011,0.304186392 11.3461733,0.304186392 L213.641467,0.304186392 C216.17224,0.304186392 218.223688,2.35199277 218.223688,4.87802698 L218.223688,64.7957984 C218.223688,67.3220324 216.17224,69.369639 213.641467,69.369639" id="Fill-52" fill="#F4B04E"></path>
                <path d="M6.76399177,9.64579666 C6.76399177,6.33497317 9.45293856,3.65106182 12.7699737,3.65106182 L217.606452,3.65106182 C216.626578,1.66860459 214.582338,0.30426633 212.217947,0.30426633 L12.7699737,0.30426633 C9.45293856,0.30426633 6.76399177,2.98837753 6.76399177,6.29900117 L6.76399177,63.3755836 L6.76399177,9.64579666 Z" id="Fill-54" fill="#F9C178"></path>
                <path d="M6.76399177,57.6141272 L6.76399177,67.9231047 C6.76399177,71.5249017 9.45293856,74.4450292 12.7699737,74.4450292 L212.217947,74.4450292 C215.534782,74.4450292 218.223728,71.5249017 218.223728,67.9231047 L218.223728,57.6141272 L6.76399177,57.6141272 Z" id="Fill-56" fill="#E87B16"></path>
                <path d="M214.714523,57.6141272 L214.714523,65.7847687 C214.714523,69.3865658 212.025576,72.3064935 208.708741,72.3064935 L9.26076796,72.3064935 C8.91518925,72.3064935 8.57701865,72.2731194 8.24765771,72.2121669 C9.34846407,73.5799025 10.9656363,74.4450292 12.7698135,74.4450292 L212.217787,74.4450292 C215.534822,74.4450292 218.223568,71.5249017 218.223568,67.9231047 L218.223568,57.6141272 L214.714523,57.6141272 Z" id="Fill-58" fill="#D6701D"></path>
                <path d="M66.4297589,69.369639 C66.4297589,70.6756226 65.3689964,71.7345985 64.0603623,71.7345985 C62.7519284,71.7345985 61.6911659,70.6756226 61.6911659,69.369639 C61.6911659,68.0636553 62.7519284,67.0046794 64.0603623,67.0046794 C65.3689964,67.0046794 66.4297589,68.0636553 66.4297589,69.369639" id="Fill-60" fill="#312F1A"></path>
                <path d="M167.266625,69.369639 C167.266625,70.6756226 166.205863,71.7345985 164.897429,71.7345985 C163.588795,71.7345985 162.528032,70.6756226 162.528032,69.369639 C162.528032,68.0636553 163.588795,67.0046794 164.897429,67.0046794 C166.205863,67.0046794 167.266625,68.0636553 167.266625,69.369639" id="Fill-62" fill="#312F1A"></path>
                <path d="M11.5891997,11.644841 L6.76391168,11.644841 L6.76391168,50.0621442 C10.5344438,48.9450136 13.2862595,45.6463806 13.2862595,41.7771917 L13.2862595,13.2252111 C13.2862595,12.3560875 12.5226226,11.644841 11.5891997,11.644841" id="Fill-64" fill="#56768C"></path>
                <path d="M6.76399177,47.3018523 C9.47095831,45.9662917 11.3444114,43.1794604 11.3444114,39.9759534 L11.3444114,14.854703 C11.3444114,14.0381385 10.6750779,13.3696587 9.85678113,13.3696587 L6.76399177,13.3696587 L6.76399177,47.3018523 Z" id="Fill-66" fill="#82A6D8"></path>
                <path d="M210.009366,39.4911307 L17.5710752,39.4911307 C16.946791,39.4911307 16.435831,38.9811276 16.435831,38.3580125 L16.435831,12.7777194 C16.435831,12.1546043 16.946791,11.644801 17.5710752,11.644801 L210.009366,11.644801 C210.633651,11.644801 211.144611,12.1546043 211.144611,12.7777194 L211.144611,38.3580125 C211.144611,38.9811276 210.633651,39.4911307 210.009366,39.4911307" id="Fill-68" fill="#56768C"></path>
                <path d="M209.65684,38.0075253 L17.9237216,38.0075253 C17.1054248,38.0075253 16.4358911,37.3392453 16.4358911,36.5226808 L16.4358911,38.0061264 C16.4358911,38.8228907 17.1054248,39.4911707 17.9237216,39.4911707 L209.65684,39.4911707 C210.475137,39.4911707 211.144671,38.8228907 211.144671,38.0061264 L211.144671,36.5226808 C211.144671,37.3392453 210.475137,38.0075253 209.65684,38.0075253" id="Fill-70" fill="#436375"></path>
                <path d="M208.448876,36.7456073 L19.8429849,36.7456073 C19.4719783,36.7456073 19.1684457,36.4426431 19.1684457,36.0723313 L19.1684457,14.4253771 C19.1684457,14.0548655 19.4719783,13.7519012 19.8429849,13.7519012 L208.448876,13.7519012 C208.819883,13.7519012 209.123416,14.0548655 209.123416,14.4253771 L209.123416,36.0723313 C209.123416,36.4426431 208.819883,36.7456073 208.448876,36.7456073" id="Fill-72" fill="#82A6D8"></path>
                <path d="M39.868831,74.4449893 L16.4359512,74.4449893 L16.4359512,12.7777793 C16.4359512,12.1546642 16.9467109,11.644861 17.5709951,11.644861 L39.868831,11.644861 L39.868831,74.4449893 Z" id="Fill-74" fill="#56768C"></path>
                <polygon id="Fill-76" fill="#82A6D8" points="19.1684257 72.3063336 37.1365167 72.3063336 37.1365167 13.9371571 19.1684257 13.9371571"></polygon>
                <path d="M22.3653692,45.7015377 L21.8908491,45.7015377 C21.470989,45.7015377 21.1274125,45.3586046 21.1274125,44.9395307 L21.1274125,36.2165191 C21.1274125,35.7972453 21.470989,35.4545121 21.8908491,35.4545121 L22.3653692,35.4545121 C22.7852293,35.4545121 23.1288058,35.7972453 23.1288058,36.2165191 L23.1288058,44.9395307 C23.1288058,45.3586046 22.7852293,45.7015377 22.3653692,45.7015377" id="Fill-78" fill="#56768C"></path>
                <path d="M142.594868,74.4449893 L107.929278,74.4449893 L107.929278,12.7777793 C107.929278,12.1546642 108.440038,11.644861 109.064322,11.644861 L142.594868,11.644861 L142.594868,74.4449893 Z" id="Fill-79" fill="#56768C"></path>
                <polygon id="Fill-80" fill="#82A6D8" points="110.617444 72.3063336 139.906742 72.3063336 139.906742 13.9371571 110.617444 13.9371571"></polygon>
                <polygon id="Fill-81" fill="#56768C" points="125.079493 67.4039487 126.494443 67.4039487 126.494443 13.7519012 125.079493 13.7519012"></polygon>
                <path d="M60.6623184,38.0077051 L60.1825927,38.0077051 C59.7581275,38.0077051 59.4107468,37.660975 59.4107468,37.2371048 L59.4107468,13.3363047 C59.4107468,12.9126344 59.7581275,12.5657044 60.1825927,12.5657044 L60.6623184,12.5657044 C61.0869838,12.5657044 61.4341643,12.9126344 61.4341643,13.3363047 L61.4341643,37.2371048 C61.4341643,37.660975 61.0869838,38.0077051 60.6623184,38.0077051" id="Fill-82" fill="#56768C"></path>
                <path d="M88.6893129,38.0077051 L88.2095872,38.0077051 C87.7849218,38.0077051 87.4375411,37.660975 87.4375411,37.2371048 L87.4375411,13.3363047 C87.4375411,12.9126344 87.7849218,12.5657044 88.2095872,12.5657044 L88.6893129,12.5657044 C89.1137781,12.5657044 89.4611588,12.9126344 89.4611588,13.3363047 L89.4611588,37.2371048 C89.4611588,37.660975 89.1137781,38.0077051 88.6893129,38.0077051" id="Fill-83" fill="#56768C"></path>
                <path d="M160.51881,38.0077051 L160.039084,38.0077051 C159.614619,38.0077051 159.267239,37.660975 159.267239,37.2371048 L159.267239,13.3363047 C159.267239,12.9126344 159.614619,12.5657044 160.039084,12.5657044 L160.51881,12.5657044 C160.943476,12.5657044 161.290656,12.9126344 161.290656,13.3363047 L161.290656,37.2371048 C161.290656,37.660975 160.943476,38.0077051 160.51881,38.0077051" id="Fill-84" fill="#56768C"></path>
                <path d="M188.545604,38.0077051 L188.065879,38.0077051 C187.641414,38.0077051 187.294033,37.660975 187.294033,37.2371048 L187.294033,13.3363047 C187.294033,12.9126344 187.641414,12.5657044 188.065879,12.5657044 L188.545604,12.5657044 C188.97027,12.5657044 189.31745,12.9126344 189.31745,13.3363047 L189.31745,37.2371048 C189.31745,37.660975 188.97027,38.0077051 188.545604,38.0077051" id="Fill-85" fill="#56768C"></path>
                <path d="M114.027421,45.7015377 L113.553101,45.7015377 C113.133041,45.7015377 112.789464,45.3586046 112.789464,44.9395307 L112.789464,36.2165191 C112.789464,35.7972453 113.133041,35.4545121 113.553101,35.4545121 L114.027421,35.4545121 C114.447481,35.4545121 114.790857,35.7972453 114.790857,36.2165191 L114.790857,44.9395307 C114.790857,45.3586046 114.447481,45.7015377 114.027421,45.7015377" id="Fill-86" fill="#56768C"></path>
                <path d="M136.95821,45.7015377 L136.483891,45.7015377 C136.06383,45.7015377 135.720254,45.3586046 135.720254,44.9395307 L135.720254,36.2165191 C135.720254,35.7972453 136.06383,35.4545121 136.483891,35.4545121 L136.95821,35.4545121 C137.37807,35.4545121 137.721647,35.7972453 137.721647,36.2165191 L137.721647,44.9395307 C137.721647,45.3586046 137.37807,45.7015377 136.95821,45.7015377" id="Fill-87" fill="#56768C"></path>
                <g id="分组" transform="translate(19.149205, 13.732916)">
                    <mask id="mask-4" fill="white">
                        <use xlink:href="#path-3"></use>
                    </mask>
                    <g id="Clip-89"></g>
                    <path d="M47.6033681,-18.8424366 L-21.0819035,40.0387414 C-21.5556226,40.4446256 -22.2758118,40.3902679 -22.6824575,39.917236 L-26.6055568,35.3583837 C-27.0124026,34.8857516 -26.9575425,34.1667111 -26.4840236,33.7606271 L42.2014482,-25.1205509 C42.6749671,-25.5264351 43.3951563,-25.4718775 43.8020022,-24.9992453 L47.7249013,-20.4401932 C48.1317471,-19.9673612 48.076887,-19.2483208 47.6033681,-18.8424366" id="Fill-88" fill="#FFFFFF" mask="url(#mask-4)"></path>
                </g>
                <g id="分组" transform="translate(19.149205, 13.732916)">
                    <mask id="mask-6" fill="white">
                        <use xlink:href="#path-5"></use>
                    </mask>
                    <g id="Clip-91"></g>
                    <path d="M95.2952732,-14.5980796 L26.6100016,44.2830984 C26.1364827,44.6889826 25.4160933,44.634425 25.0094476,44.161593 L24.5323247,43.6072244 C24.1254789,43.1345922 24.180339,42.4155518 24.6538579,42.0096677 L93.3391295,-16.8715104 C93.8128486,-17.2775944 94.5330378,-17.2230369 94.9398837,-16.7504047 L95.4168064,-16.1958362 C95.8236522,-15.723204 95.7689923,-15.0041636 95.2952732,-14.5980796" id="Fill-90" fill="#FFFFFF" mask="url(#mask-6)"></path>
                </g>
                <g id="分组" transform="translate(19.149205, 13.732916)">
                    <mask id="mask-8" fill="white">
                        <use xlink:href="#path-7"></use>
                    </mask>
                    <g id="Clip-93"></g>
                    <path d="M199.71869,-22.6792907 L131.033418,36.2018873 C130.559699,36.6077715 129.83931,36.5534138 129.432664,36.0803819 L126.762338,32.9771968 C126.355692,32.5045646 126.410152,31.7855242 126.884071,31.37964 L195.569142,-27.501538 C196.042861,-27.907622 196.763051,-27.8530645 197.170097,-27.3802324 L199.840223,-24.2770474 C200.247069,-23.8042153 200.192209,-23.0853747 199.71869,-22.6792907" id="Fill-92" fill="#FFFFFF" mask="url(#mask-8)"></path>
                </g>
                <g id="分组" transform="translate(19.149205, 13.732916)">
                    <mask id="mask-10" fill="white">
                        <use xlink:href="#path-9"></use>
                    </mask>
                    <g id="Clip-95"></g>
                    <path d="M228.412835,-24.6176223 L159.727364,34.2635558 C159.253845,34.6696397 158.533455,34.6150822 158.12681,34.1422502 L155.456483,31.0390651 C155.049637,30.566233 155.104297,29.8473925 155.578016,29.4413085 L224.263288,-29.4398696 C224.737007,-29.8457537 225.457196,-29.791396 225.864042,-29.3183642 L228.534168,-26.2151791 C228.941014,-25.7425469 228.886354,-25.0235065 228.412835,-24.6176223" id="Fill-94" fill="#FFFFFF" mask="url(#mask-10)"></path>
                </g>
                <path d="M33.7856846,27.4385901 L22.5191377,27.4385901 C22.304102,27.4385901 22.1281092,27.2631267 22.1281092,27.0484937 L22.1281092,22.4502721 C22.1281092,22.2356391 22.304102,22.0599758 22.5191377,22.0599758 L33.7856846,22.0599758 C34.0007202,22.0599758 34.1767131,22.2356391 34.1767131,22.4502721 L34.1767131,27.0484937 C34.1767131,27.2631267 34.0007202,27.4385901 33.7856846,27.4385901" id="Fill-96" fill="#F47D7D"></path>
                <path d="M6.76399177,12.6926456 L5.77691004,12.6926456 C3.55607625,12.6926456 1.75570324,14.4894473 1.75570324,16.7061222 L1.75570324,20.8457008" id="Stroke-98" stroke="#56768C" stroke-width="1.6"></path>
                <path d="M2.11974218,29.4214271 L1.39174438,29.4214271 C0.76766045,29.4214271 0.256700494,28.911424 0.256700494,28.2883089 L0.256700494,18.6901782 C0.256700494,18.0670631 0.76766045,17.5572599 1.39174438,17.5572599 L2.11974218,17.5572599 C2.74402633,17.5572599 3.25478607,18.0670631 3.25478607,18.6901782 L3.25478607,28.2883089 C3.25478607,28.911424 2.74402633,29.4214271 2.11974218,29.4214271" id="Fill-100" fill="#56768C"></path>
                <path d="M64.0603823,55.7320119 C56.5145129,55.7320119 50.397209,61.8378603 50.397209,69.369599 C50.397209,71.1640026 50.7477932,72.8756705 51.3788848,74.4450492 L76.7420801,74.4450492 C77.3729715,72.8756705 77.7237559,71.1640026 77.7237559,69.369599 C77.7237559,61.8378603 71.606452,55.7320119 64.0603823,55.7320119" id="Fill-102" fill="#4C482B"></path>
                <path d="M164.897429,55.7320119 C157.351359,55.7320119 151.234055,61.8378603 151.234055,69.369599 C151.234055,71.1640026 151.58484,72.8756705 152.215731,74.4450492 L177.578926,74.4450492 C178.209818,72.8756705 178.560602,71.1640026 178.560602,69.369599 C178.560602,61.8378603 172.443298,55.7320119 164.897429,55.7320119" id="Fill-104" fill="#4C482B"></path>
                <path d="M76.5175741,69.369639 C76.5175741,76.2366949 70.9404622,81.8035628 64.0603223,81.8035628 C57.1805828,81.8035628 51.6032707,76.2366949 51.6032707,69.369639 C51.6032707,62.502583 57.1805828,56.9357152 64.0603223,56.9357152 C70.9404622,56.9357152 76.5175741,62.502583 76.5175741,69.369639" id="Fill-106" fill="#312F1A"></path>
                <path d="M71.4499205,69.369639 C71.4499205,73.443069 68.141695,76.7452991 64.0604224,76.7452991 C59.97935,76.7452991 56.6711245,73.443069 56.6711245,69.369639 C56.6711245,65.2962089 59.97935,61.9939788 64.0604224,61.9939788 C68.141695,61.9939788 71.4499205,65.2962089 71.4499205,69.369639" id="Fill-108" fill="#312F1A"></path>
                <path d="M71.4499205,69.369639 C71.4499205,73.443069 68.141695,76.7452991 64.0604224,76.7452991 C59.97935,76.7452991 56.6711245,73.443069 56.6711245,69.369639 C56.6711245,65.2962089 59.97935,61.9939788 64.0604224,61.9939788 C68.141695,61.9939788 71.4499205,65.2962089 71.4499205,69.369639 Z" id="Stroke-110" stroke="#ABACAE"></path>
                <path d="M65.0413374,65.0679066 L66.4392693,63.7169579 C67.5743132,62.6204113 69.3812935,63.9307915 68.6869325,65.3468895 L67.8319956,67.0915318 C67.497429,67.7738009 67.7655228,68.5979595 68.4380598,68.9536827 L70.1573439,69.8633747 C71.5528733,70.6019999 70.8629172,72.72215 69.2988031,72.5007223 L67.3722918,72.2281344 C66.6186659,72.1214175 65.9162962,72.6308211 65.7851525,73.3790388 L65.4495848,75.29215 C65.1772863,76.8453413 62.9436385,76.8453413 62.6713401,75.29215 L62.3357724,73.3790388 C62.2046286,72.6308211 61.5022589,72.1214175 60.7488332,72.2281344 L58.8221218,72.5007223 C57.2580077,72.72215 56.5678513,70.6019999 57.9635809,69.8633747 L59.6828651,68.9536827 C60.3552019,68.5979595 60.6236961,67.7738009 60.2891295,67.0915318 L59.4339923,65.3468895 C58.7396314,63.9307915 60.5466116,62.6204113 61.6816555,63.7169579 L63.0795875,65.0679066 C63.6263867,65.5962954 64.4947383,65.5962954 65.0413374,65.0679066" id="Fill-112" fill="#ABACAE"></path>
                <path d="M177.35464,69.369639 C177.35464,76.2366949 171.777328,81.8035628 164.897389,81.8035628 C158.017449,81.8035628 152.439937,76.2366949 152.439937,69.369639 C152.439937,62.502583 158.017449,56.9357152 164.897389,56.9357152 C171.777328,56.9357152 177.35464,62.502583 177.35464,69.369639" id="Fill-114" fill="#312F1A"></path>
                <path d="M172.286787,69.369639 C172.286787,73.443069 168.978561,76.7452991 164.897489,76.7452991 C160.816216,76.7452991 157.507991,73.443069 157.507991,69.369639 C157.507991,65.2962089 160.816216,61.9939788 164.897489,61.9939788 C168.978561,61.9939788 172.286787,65.2962089 172.286787,69.369639" id="Fill-116" fill="#312F1A"></path>
                <path d="M172.286787,69.369639 C172.286787,73.443069 168.978561,76.7452991 164.897489,76.7452991 C160.816216,76.7452991 157.507991,73.443069 157.507991,69.369639 C157.507991,65.2962089 160.816216,61.9939788 164.897489,61.9939788 C168.978561,61.9939788 172.286787,65.2962089 172.286787,69.369639 Z" id="Stroke-118" stroke="#ABACAE"></path>
                <path d="M165.878183,65.0679066 L167.276115,63.7169579 C168.411159,62.6204113 170.21814,63.9307915 169.523979,65.3468895 L168.668842,67.0915318 C168.334275,67.7738009 168.602369,68.5979595 169.274906,68.9536827 L170.99419,69.8633747 C172.389719,70.6019999 171.699763,72.72215 170.135649,72.5007223 L168.209138,72.2281344 C167.455512,72.1214175 166.753142,72.6308211 166.621999,73.3790388 L166.286431,75.29215 C166.014132,76.8453413 163.780485,76.8453413 163.508186,75.29215 L163.172618,73.3790388 C163.041475,72.6308211 162.339105,72.1214175 161.585679,72.2281344 L159.658968,72.5007223 C158.094854,72.72215 157.404898,70.6019999 158.800427,69.8633747 L160.519711,68.9536827 C161.192248,68.5979595 161.460542,67.7738009 161.125976,67.0915318 L160.270638,65.3468895 C159.576478,63.9307915 161.383458,62.6204113 162.518502,63.7169579 L163.916434,65.0679066 C164.463233,65.5962954 165.331584,65.5962954 165.878183,65.0679066" id="Fill-120" fill="#ABACAE"></path>
            </g>
        </g>
    </g>
</svg>