<?xml version="1.0" encoding="UTF-8"?>
<svg width="27px" height="99px" viewBox="0 0 27 99" version="1.1" xmlns="http://www.w3.org/2000/svg" xmlns:xlink="http://www.w3.org/1999/xlink">
    <!-- Generator: Sketch 52.6 (67491) - http://www.bohemiancoding.com/sketch -->
    <title>分组 2</title>
    <desc>Created with Sketch.</desc>
    <g id="图示" stroke="none" stroke-width="1" fill="none" fill-rule="evenodd">
        <g id="交通工具" transform="translate(-682.000000, -761.000000)">
            <g id="分组-2" transform="translate(683.000000, 762.000000)">
                <path d="M20.0361728,97.8035228 L5.21212726,97.8035228 C4.58784312,97.8035228 4.07708338,97.2937195 4.07708338,96.6706044 L4.07708338,94.8574155 C4.07708338,94.2343004 4.58784312,93.7242973 5.21212726,93.7242973 L20.0361728,93.7242973 C20.6604569,93.7242973 21.1712167,94.2343004 21.1712167,94.8574155 L21.1712167,96.6706044 C21.1712167,97.2937195 20.6604569,97.8035228 20.0361728,97.8035228" id="Fill-122" fill="#56768C"></path>
                <path d="M13.7947729,95.76389 L11.4536072,95.76389 C10.8291229,95.76389 10.3183631,95.2540868 10.3183631,94.6309717 L10.3183631,10.0967571 C10.3183631,9.47364199 10.8291229,8.96383872 11.4536072,8.96383872 L13.7947729,8.96383872 C14.419057,8.96383872 14.9298168,9.47364199 14.9298168,10.0967571 L14.9298168,94.6309717 C14.9298168,95.2540868 14.419057,95.76389 13.7947729,95.76389" id="Fill-124" fill="#56768C"></path>
                <path d="M21.1238047,35.6224128 L4.12457543,35.6224128 C2.09775425,35.6224128 0.439336807,33.9673008 0.439336807,31.9442751 L0.439336807,4.21105739 C0.439336807,2.18803173 2.09775425,0.532919751 4.12457543,0.532919751 L21.1238047,0.532919751 C23.1506259,0.532919751 24.8090433,2.18803173 24.8090433,4.21105739 L24.8090433,31.9442751 C24.8090433,33.9673008 23.1506259,35.6224128 21.1238047,35.6224128" id="Fill-126" fill="#FFFFFF"></path>
                <path d="M21.1238047,35.6224128 L4.12457543,35.6224128 C2.09775425,35.6224128 0.439336807,33.9673008 0.439336807,31.9442751 L0.439336807,4.21105739 C0.439336807,2.18803173 2.09775425,0.532919751 4.12457543,0.532919751 L21.1238047,0.532919751 C23.1506259,0.532919751 24.8090433,2.18803173 24.8090433,4.21105739 L24.8090433,31.9442751 C24.8090433,33.9673008 23.1506259,35.6224128 21.1238047,35.6224128 Z" id="Stroke-128" stroke="#56768C" stroke-width="1.6"></path>
                <path d="M19.615712,8.96385871 L5.21212726,8.96385871 C4.58784312,8.96385871 4.07708338,8.4538556 4.07708338,7.83074051 L4.07708338,7.31873896 C4.07708338,6.69542403 4.58784312,6.18582061 5.21212726,6.18582061 L19.615712,6.18582061 C20.2399962,6.18582061 20.7507559,6.69542403 20.7507559,7.31873896 L20.7507559,7.83074051 C20.7507559,8.4538556 20.2399962,8.96385871 19.615712,8.96385871" id="Fill-130" fill="#909CA3"></path>
                <path d="M19.615712,16.0405715 L5.21212726,16.0405715 C4.58784312,16.0405715 4.07708338,15.5307683 4.07708338,14.9076532 L4.07708338,14.3956516 C4.07708338,13.7723367 4.58784312,13.2627333 5.21212726,13.2627333 L19.615712,13.2627333 C20.2399962,13.2627333 20.7507559,13.7723367 20.7507559,14.3956516 L20.7507559,14.9076532 C20.7507559,15.5307683 20.2399962,16.0405715 19.615712,16.0405715" id="Fill-132" fill="#909CA3"></path>
                <path d="M19.615712,22.4838173 L5.21212726,22.4838173 C4.58784312,22.4838173 4.07708338,21.9738142 4.07708338,21.3506991 L4.07708338,20.8388974 C4.07708338,20.2155825 4.58784312,19.7057792 5.21212726,19.7057792 L19.615712,19.7057792 C20.2399962,19.7057792 20.7507559,20.2155825 20.7507559,20.8388974 L20.7507559,21.3506991 C20.7507559,21.9738142 20.2399962,22.4838173 19.615712,22.4838173" id="Fill-134" fill="#909CA3"></path>
                <path d="M19.615712,29.4549523 L5.21212726,29.4549523 C4.58784312,29.4549523 4.07708338,28.9451491 4.07708338,28.322034 L4.07708338,27.8100324 C4.07708338,27.1867175 4.58784312,26.6771141 5.21212726,26.6771141 L19.615712,26.6771141 C20.2399962,26.6771141 20.7507559,27.1867175 20.7507559,27.8100324 L20.7507559,28.322034 C20.7507559,28.9451491 20.2399962,29.4549523 19.615712,29.4549523" id="Fill-136" fill="#909CA3"></path>
            </g>
        </g>
    </g>
</svg>