<?xml version="1.0" encoding="UTF-8"?>
<svg width="120px" height="42px" viewBox="0 0 120 42" version="1.1" xmlns="http://www.w3.org/2000/svg" xmlns:xlink="http://www.w3.org/1999/xlink">
    <!-- Generator: Sketch 52.6 (67491) - http://www.bohemiancoding.com/sketch -->
    <title>分组 10</title>
    <desc>Created with Sketch.</desc>
    <g id="图示" stroke="none" stroke-width="1" fill="none" fill-rule="evenodd">
        <g id="交通工具" transform="translate(-80.000000, -226.000000)">
            <g id="分组-10" transform="translate(80.000000, 226.000000)">
                <path d="M114.84626,23.8537 C115.45826,23.8537 115.95886,23.3531 115.95886,22.7411 L115.95886,18.5027 C115.95886,17.8907 115.45826,17.3901 114.84626,17.3901 C114.23426,17.3901 113.73366,17.8907 113.73366,18.5027 L113.73366,22.7411 C113.73366,23.3531 114.23426,23.8537 114.84626,23.8537" id="Fill-63" fill="#E03217"></path>
                <path d="M82.9947,0.90664 L82.9947,2.51404 L49.1013,2.51404 C53.5251,0.47104 55.8423,0.90664 55.8423,0.90664 L82.9947,0.90664 Z" id="Fill-64" fill="#008EC6"></path>
                <path d="M89.48522,2.5834 L82.28122,2.5834 L82.28122,0.976 L83.70702,0.976 C85.46202,0.9774 87.44102,1.5958 89.48522,2.5834" id="Fill-65" fill="#008EC6"></path>
                <path d="M82.9947,2.51396 L82.9947,27.03136 L8.9691,27.03136 C6.6195,27.03136 4.6729,25.54936 4.3225,23.61156 L4.8531,23.61156 C6.3991,19.47816 10.6527,17.07976 15.4559,15.70276 C23.9643,13.26176 34.1989,14.02276 34.1989,14.02276 C40.4891,7.48976 45.4949,4.17876 49.1013,2.51396 L82.9947,2.51396 Z" id="Fill-66" fill="#035A87"></path>
                <path d="M114.84646,19.82294 L114.84646,23.05014 C114.84646,23.26414 114.82646,23.47574 114.78886,23.68094 C114.43826,25.61874 112.49306,27.10094 110.14466,27.10094 L82.28126,27.10094 L82.28126,2.58334 L89.48526,2.58334 C96.58526,6.01334 104.45526,13.89074 106.27926,15.77214 L110.14466,15.77214 C112.74226,15.77214 114.84646,17.58474 114.84646,19.82294" id="Fill-67" fill="#035A87"></path>
                <path d="M82.9947,28.84774 L82.9947,31.94854 L2.1757,31.94854 C0.9751,31.94854 -0.0001,30.97334 -0.0001,29.77294 L-0.0001,28.84774 L82.9947,28.84774 Z" id="Fill-68" fill="#161515"></path>
                <path d="M119.11248,28.91718 L119.11248,29.84238 C119.11248,31.04278 118.13868,32.01798 116.93568,32.01798 L82.28128,32.01798 L82.28128,28.91718 L119.11248,28.91718 Z" id="Fill-69" fill="#161515"></path>
                <path d="M82.9947,23.61152 L82.9947,28.84772 L-0.0001,28.84772 L-0.0001,25.78712 C-0.0001,24.58672 0.9751,23.61152 2.1757,23.61152 L82.9947,23.61152 Z" id="Fill-70" fill="#004B68"></path>
                <path d="M119.11248,25.85654 L119.11248,28.91714 L82.28128,28.91714 L82.28128,23.68094 L116.93568,23.68094 C118.13868,23.68094 119.11248,24.65614 119.11248,25.85654" id="Fill-71" fill="#004B68"></path>
                <path d="M49.3578,11.98436 L54.6452,11.98436 L58.0318,2.51376 L56.444,2.51376 C55.0644,2.51376 53.7618,2.76036 52.5118,3.17076 L49.3578,11.98436 Z" id="Fill-72" fill="#FBFFFE"></path>
                <polygon id="Fill-73" fill="#C3D9CC" points="58.03172 2.51376 54.64532 11.98436 60.04832 11.98436 60.04832 2.51376"></polygon>
                <path d="M38.25252,11.98436 L49.35772,11.98436 L52.51172,3.17076 C49.24812,4.23676 46.34632,6.41316 43.40032,8.20896 C42.48552,8.76616 41.57332,9.32496 40.70252,9.95196 C40.27072,10.26276 38.68152,11.98436 38.25252,11.98436" id="Fill-74" fill="#C3D9CC"></path>
                <polygon id="Fill-75" fill="#FBFFFE" points="70.21442 11.98436 75.50042 11.98436 78.88822 2.51376 73.60202 2.51376"></polygon>
                <polygon id="Fill-76" fill="#C3D9CC" points="78.88826 2.51376 75.50046 11.98436 82.28166 11.98436 82.28166 2.51376"></polygon>
                <polygon id="Fill-77" fill="#C3D9CC" points="60.76092 2.51376 60.76092 11.98436 70.21452 11.98436 73.60212 2.51376"></polygon>
                <polygon id="Fill-78" fill="#C3D9CC" points="82.2814 12.0542 82.9948 12.0542 82.9948 2.5834 82.2814 2.5834"></polygon>
                <path d="M85.67508,12.0538 L90.96128,12.0538 L93.01348,6.3144 C91.38868,5.0388 89.91088,4.198 88.68228,3.645 L85.67508,12.0538 Z" id="Fill-79" fill="#FBFFFE"></path>
                <path d="M93.01346,6.31444 L90.96126,12.05384 L98.59606,12.05384 C96.64926,9.52684 94.74646,7.67264 93.01346,6.31444" id="Fill-80" fill="#C3D9CC"></path>
                <path d="M83.70682,2.5832 L83.70682,12.0538 L85.67502,12.0538 L88.68222,3.645 C86.46902,2.6474 85.06502,2.5832 85.06502,2.5832 L83.70682,2.5832 Z" id="Fill-81" fill="#C3D9CC"></path>
                <polygon id="Fill-82" fill="#004B68" points="82.9942 12.0538 83.7068 12.0538 83.7068 2.5832 82.9942 2.5832"></polygon>
                <polygon id="Fill-83" fill="#004B68" points="82.2814 11.985 82.9948 11.985 82.9948 2.514 82.2814 2.514"></polygon>
                <polygon id="Fill-84" fill="#004B68" points="60.0484 11.9844 60.761 11.9844 60.761 2.5138 60.0484 2.5138"></polygon>
                <polygon id="Fill-85" fill="#004B68" points="29.332 21.1956 82.9948 21.1956 82.9948 19.91 29.332 19.91"></polygon>
                <polygon id="Fill-86" fill="#004B68" points="82.2812 21.265 93.685 21.265 93.685 19.9794 82.2812 19.9794"></polygon>
                <polygon id="Fill-87" fill="#008EC6" points="27.965 20.089 82.9948 20.089 82.9948 19.0638 27.965 19.0638"></polygon>
                <polygon id="Fill-88" fill="#008EC6" points="82.2812 20.1584 93.685 20.1584 93.685 19.1332 82.2812 19.1332"></polygon>
                <path d="M12.30388,18.69198 C10.53808,20.09898 9.60508,21.86538 10.22008,22.63718 C10.83508,23.40898 12.76528,22.89418 14.53108,21.48718 C16.29688,20.08018 17.22968,18.31398 16.61488,17.54198 C15.99968,16.77018 14.06968,17.28498 12.30388,18.69198" id="Fill-89" fill="#FFCD2E"></path>
                <polygon id="Fill-90" fill="#004B68" points="60.0484 23.7664 60.761 23.7664 60.761 2.549 60.0484 2.549"></polygon>
                <polygon id="Fill-91" fill="#008EC6" points="59.3358 23.7304 60.0484 23.7304 60.0484 2.5138 59.3358 2.5138"></polygon>
                <polygon id="Fill-92" fill="#004B68" points="82.994 23.681 83.7066 23.681 83.7066 2.5494 82.994 2.5494"></polygon>
                <polygon id="Fill-93" fill="#008EC6" points="82.2812 23.645 82.9934 23.645 82.9934 2.514 82.2812 2.514"></polygon>
                <path d="M38.25222,31.58634 C38.22542,32.06854 38.17182,32.54254 38.09142,33.00734 L14.23942,33.00734 C14.15922,32.53794 14.10402,32.06054 14.07882,31.57374 C14.40022,25.17634 19.68862,20.08954 26.16462,20.08954 C32.64722,20.08954 37.93862,25.18274 38.25222,31.58634" id="Fill-94" fill="#035A87"></path>
                <path d="M35.52674,31.77306 C35.52674,36.94326 31.33554,41.13446 26.16554,41.13446 C20.99534,41.13446 16.80414,36.94326 16.80414,31.77306 C16.80414,26.60286 20.99534,22.41186 26.16554,22.41186 C31.33554,22.41186 35.52674,26.60286 35.52674,31.77306" id="Fill-95" fill="#1F1C23"></path>
                <path d="M32.4995,31.77336 C32.4995,31.93516 32.4937,32.09596 32.4811,32.25496 C32.2321,28.98416 29.4999,26.40796 26.1653,26.40796 C22.8315,26.40796 20.0985,28.98416 19.8495,32.25496 C19.8369,32.09596 19.8311,31.93516 19.8311,31.77336 C19.8311,28.27496 22.6679,25.43916 26.1653,25.43916 C29.6637,25.43916 32.4995,28.27496 32.4995,31.77336" id="Fill-96" fill="#DBDBDB"></path>
                <path d="M32.48114,32.2549 L32.48114,32.2607 C32.23214,35.5305 29.49994,38.1065 26.16534,38.1065 C22.83154,38.1065 20.09854,35.5305 19.84954,32.2607 L19.84954,32.2549 C20.09854,28.9841 22.83154,26.4079 26.16534,26.4079 C29.49994,26.4079 32.23214,28.9841 32.48114,32.2549" id="Fill-97" fill="#F3F4F6"></path>
                <path d="M29.3324,31.77336 C29.3324,31.93796 29.3198,32.09976 29.2956,32.25776 C29.063,30.73856 27.7502,29.57516 26.1654,29.57516 C24.5812,29.57516 23.2684,30.73856 23.035,32.25776 C23.0108,32.09976 22.9982,31.93796 22.9982,31.77336 C22.9982,30.02356 24.4166,28.60616 26.1654,28.60616 C27.915,28.60616 29.3324,30.02356 29.3324,31.77336" id="Fill-98" fill="#72727C"></path>
                <path d="M29.29558,32.25774 C29.06298,33.77694 27.75018,34.94054 26.16538,34.94054 C24.58118,34.94054 23.26838,33.77694 23.03498,32.25774 C23.26838,30.73854 24.58118,29.57514 26.16538,29.57514 C27.75018,29.57514 29.06298,30.73854 29.29558,32.25774" id="Fill-99" fill="#8E8E9A"></path>
                <path d="M108.5825,30.59524 C108.5825,30.81424 108.5761,31.03324 108.5653,31.24904 C108.2517,24.84524 102.9601,19.75224 96.4777,19.75224 C90.0015,19.75224 84.7131,24.83904 84.3917,31.23644 C84.3807,31.02384 84.3743,30.81124 84.3743,30.59524 C84.3743,30.46304 84.3761,30.33224 84.3823,30.20144 C84.5887,23.69844 89.9259,18.49204 96.4777,18.49204 C103.0311,18.49204 108.3683,23.69844 108.5745,30.20144 C108.5809,30.33224 108.5825,30.46304 108.5825,30.59524" id="Fill-100" fill="#008EC6"></path>
                <path d="M108.5652,31.24904 C108.5384,31.73104 108.4848,32.20524 108.4044,32.66984 L84.5524,32.66984 C84.4722,32.20044 84.417,31.72324 84.3918,31.23644 C84.7132,24.83904 90.0016,19.75224 96.4776,19.75224 C102.9602,19.75224 108.2516,24.84524 108.5652,31.24904" id="Fill-101" fill="#035A87"></path>
                <path d="M105.83972,31.43566 C105.83972,36.60586 101.64852,40.79706 96.47852,40.79706 C91.30832,40.79706 87.11712,36.60586 87.11712,31.43566 C87.11712,26.26566 91.30832,22.07446 96.47852,22.07446 C101.64852,22.07446 105.83972,26.26566 105.83972,31.43566" id="Fill-102" fill="#1F1C23"></path>
                <path d="M102.81248,31.43596 C102.81248,31.59776 102.80668,31.75856 102.79408,31.91756 C102.54508,28.64676 99.81288,26.07056 96.47828,26.07056 C93.14448,26.07056 90.41148,28.64676 90.16248,31.91756 C90.14988,31.75856 90.14408,31.59776 90.14408,31.43596 C90.14408,27.93756 92.98068,25.10176 96.47828,25.10176 C99.97668,25.10176 102.81248,27.93756 102.81248,31.43596" id="Fill-103" fill="#DBDBDB"></path>
                <path d="M102.79412,31.9175 L102.79412,31.9233 C102.54512,35.1931 99.81292,37.7693 96.47832,37.7693 C93.14452,37.7693 90.41132,35.1931 90.16252,31.9233 L90.16252,31.9175 C90.41132,28.6467 93.14452,26.0707 96.47832,26.0707 C99.81292,26.0707 102.54512,28.6467 102.79412,31.9175" id="Fill-104" fill="#F3F4F6"></path>
                <path d="M99.64538,31.43596 C99.64538,31.60076 99.63278,31.76236 99.60858,31.92036 C99.37598,30.40136 98.06318,29.23776 96.47838,29.23776 C94.89418,29.23776 93.58138,30.40136 93.34798,31.92036 C93.32378,31.76236 93.31118,31.60076 93.31118,31.43596 C93.31118,29.68616 94.72958,28.26876 96.47838,28.26876 C98.22798,28.26876 99.64538,29.68616 99.64538,31.43596" id="Fill-105" fill="#72727C"></path>
                <path d="M99.60856,31.92042 C99.37596,33.43942 98.06316,34.60302 96.47836,34.60302 C94.89416,34.60302 93.58136,33.43942 93.34796,31.92042 C93.58136,30.40122 94.89416,29.23762 96.47836,29.23762 C98.06316,29.23762 99.37596,30.40122 99.60856,31.92042" id="Fill-106" fill="#8E8E9A"></path>
                <path d="M38.26912,30.93224 C38.26912,31.15184 38.26292,31.37024 38.25252,31.58684 C38.23372,31.19644 38.19512,30.81144 38.14012,30.43164 C38.13592,30.40664 38.13272,30.38064 38.12852,30.35564 C38.11832,30.28604 38.10672,30.21624 38.09432,30.14644 C38.06312,29.95384 38.02572,29.76444 37.98392,29.57504 C37.97672,29.54384 37.97052,29.51364 37.96312,29.48244 C37.94852,29.41684 37.93292,29.35244 37.91632,29.28684 C37.90492,29.23784 37.89232,29.19004 37.87892,29.14104 C37.86112,29.06824 37.84132,28.99644 37.82172,28.92464 C37.80492,28.86424 37.78732,28.80284 37.76852,28.74264 C37.75712,28.70204 37.74452,28.66044 37.73112,28.61964 C37.72172,28.58644 37.71132,28.55304 37.69992,28.51984 C37.68432,28.46784 37.66752,28.41564 37.64992,28.36464 C37.63852,28.32824 37.62592,28.29184 37.61352,28.25644 C37.59692,28.20764 37.58012,28.15864 37.56252,28.10984 C37.53432,28.03164 37.50632,27.95464 37.47612,27.87764 C37.44812,27.80384 37.41992,27.73004 37.38872,27.65704 C37.31912,27.48124 37.24412,27.30744 37.16392,27.13464 C37.14092,27.08364 37.11712,27.03264 37.09212,26.98264 C37.07232,26.94004 37.05252,26.89744 37.03072,26.85584 C37.02232,26.83704 37.01312,26.81824 37.00252,26.79964 C36.97032,26.73284 36.93712,26.66744 36.90272,26.60284 C36.89432,26.58624 36.88592,26.56864 36.87572,26.55184 C36.84652,26.49364 36.81532,26.43624 36.78292,26.37904 C36.76632,26.34684 36.74872,26.31444 36.72992,26.28224 C36.55412,25.96804 36.36372,25.66204 36.16072,25.36544 C36.10752,25.28744 36.05352,25.21044 35.99832,25.13444 C35.95052,25.06564 35.90052,24.99904 35.84952,24.93244 C35.82972,24.90544 35.80992,24.87844 35.78912,24.85144 C35.75792,24.80984 35.72672,24.76904 35.69352,24.72864 C35.66952,24.69624 35.64352,24.66404 35.61752,24.63284 C35.57892,24.58284 35.53932,24.53404 35.49872,24.48604 C35.48952,24.47464 35.48012,24.46324 35.46972,24.45184 C35.41872,24.38924 35.36552,24.32684 35.31152,24.26544 C35.30532,24.25704 35.29892,24.24984 35.29172,24.24264 C35.24812,24.19164 35.20232,24.14064 35.15652,24.09064 C34.84732,23.74724 34.51952,23.42144 34.17292,23.11644 C34.12512,23.07384 34.07612,23.03124 34.02732,22.99064 C34.00332,22.96984 33.97932,22.94904 33.95552,22.92924 C33.90852,22.88964 33.86172,22.85124 33.81492,22.81264 C33.79832,22.79804 33.78172,22.78464 33.76392,22.77104 C33.72232,22.73664 33.67972,22.70344 33.63692,22.66904 C33.60372,22.64404 33.57032,22.61704 33.53592,22.59204 C33.49132,22.55664 33.44552,22.52224 33.39872,22.48804 C33.33212,22.43684 33.26452,22.38804 33.19572,22.33924 C33.07092,22.24964 32.94392,22.16224 32.81492,22.07784 C32.73252,22.02384 32.65032,21.97064 32.56612,21.91864 C32.50772,21.88224 32.44852,21.84584 32.38912,21.80944 C32.36832,21.79704 32.34752,21.78544 32.32672,21.77204 C32.27052,21.73864 32.21332,21.70624 32.15612,21.67304 C32.14452,21.66684 32.13312,21.65964 32.12072,21.65324 C32.06032,21.61884 31.99992,21.58564 31.93852,21.55224 C31.91472,21.53884 31.89072,21.52644 31.86672,21.51384 C31.80952,21.48264 31.75132,21.45244 31.69292,21.42324 C31.68472,21.41824 31.67632,21.41404 31.66792,21.41084 C31.60872,21.37864 31.54832,21.34944 31.48792,21.31924 C31.45872,21.30464 31.42852,21.29004 31.39832,21.27664 C31.34232,21.24844 31.28592,21.22244 31.22872,21.19644 C30.92072,21.05384 30.60432,20.92384 30.28172,20.80724 C30.22032,20.78544 30.15892,20.76344 30.09752,20.74264 C30.06532,20.73124 30.03312,20.71984 30.00072,20.70944 C29.94452,20.69064 29.88952,20.67284 29.83312,20.65524 C29.80932,20.64704 29.78432,20.63964 29.76052,20.63224 C29.70732,20.61564 29.65312,20.59904 29.60012,20.58344 C29.55652,20.57104 29.51372,20.55844 29.46992,20.54604 C29.42412,20.53244 29.37852,20.52004 29.33272,20.50744 C29.30572,20.50024 29.27752,20.49304 29.24932,20.48564 C29.18392,20.46804 29.11732,20.45124 29.05072,20.43564 C28.96632,20.41484 28.88192,20.39504 28.79772,20.37644 C28.54072,20.31904 28.28152,20.27024 28.01832,20.23064 C27.95692,20.22024 27.89552,20.21184 27.83412,20.20364 C27.79352,20.19744 27.75392,20.19224 27.71332,20.18804 C27.67272,20.18164 27.63212,20.17764 27.59152,20.17344 C27.54272,20.16604 27.49372,20.16084 27.44472,20.15684 C27.39272,20.15044 27.33972,20.14524 27.28652,20.14124 C27.22732,20.13504 27.16812,20.12964 27.10872,20.12564 C27.08992,20.12344 27.07232,20.12244 27.05352,20.12144 C26.97652,20.11504 26.89952,20.11104 26.82152,20.10684 C26.79752,20.10584 26.77252,20.10364 26.74752,20.10264 C26.65492,20.09844 26.56132,20.09544 26.46772,20.09324 C26.36672,20.09004 26.26572,20.08924 26.16472,20.08924 C26.06392,20.08924 25.96292,20.09004 25.86192,20.09324 C25.76832,20.09544 25.67352,20.09844 25.58092,20.10264 C25.55812,20.10364 25.53512,20.10484 25.51332,20.10684 C25.43312,20.11104 25.35412,20.11504 25.27492,20.12144 C25.25932,20.12244 25.24472,20.12344 25.23032,20.12564 C25.16372,20.12964 25.09812,20.13504 25.03252,20.14224 C24.98772,20.14524 24.94412,20.14944 24.89932,20.15464 C24.84212,20.16084 24.78492,20.16724 24.72852,20.17444 C24.69212,20.17764 24.65672,20.18164 24.62152,20.18704 C24.57452,20.19224 24.52772,20.19844 24.48192,20.20664 C24.43092,20.21184 24.38112,20.21924 24.33012,20.22744 C23.97412,20.28164 23.62432,20.35144 23.27992,20.43564 C23.23612,20.44604 23.19252,20.45644 23.14992,20.46804 C23.08332,20.48464 23.01772,20.50224 22.95112,20.52104 C22.94892,20.52104 22.94792,20.52104 22.94692,20.52204 C22.86152,20.54484 22.77632,20.56984 22.69192,20.59604 C22.67532,20.60004 22.65972,20.60424 22.64412,20.61044 C22.56292,20.63344 22.48272,20.65944 22.40252,20.68644 C22.39952,20.68644 22.39632,20.68764 22.39432,20.68864 C22.31112,20.71564 22.22892,20.74364 22.14672,20.77284 C22.13312,20.77704 22.11952,20.78124 22.10712,20.78644 C22.04372,20.80924 21.98012,20.83224 21.91772,20.85624 C21.55452,20.99144 21.20072,21.14444 20.85712,21.31204 C20.79172,21.34424 20.72612,21.37644 20.66152,21.40984 C20.65232,21.41484 20.64392,21.41904 20.63452,21.42424 C20.58352,21.44924 20.53252,21.47644 20.48252,21.50444 C20.43472,21.52944 20.38572,21.55544 20.33892,21.58144 C20.31612,21.59404 20.29312,21.60644 20.27132,21.61884 C20.22852,21.64284 20.18592,21.66684 20.14432,21.69084 C20.09332,21.71984 20.04352,21.74904 19.99352,21.77824 C19.98092,21.78644 19.96952,21.79284 19.95812,21.80004 C19.89252,21.83864 19.82792,21.87804 19.76452,21.91864 C19.70212,21.95724 19.64052,21.99684 19.57932,22.03624 C19.52932,22.06864 19.47932,22.10084 19.43052,22.13524 C19.26072,22.24864 19.09432,22.36624 18.93192,22.48804 C18.88712,22.52024 18.84352,22.55344 18.80072,22.58784 C18.76332,22.61484 18.72692,22.64404 18.69052,22.67224 C18.62712,22.72204 18.56452,22.77304 18.50212,22.82404 C18.46572,22.85324 18.42932,22.88344 18.39392,22.91364 C18.35652,22.94484 18.31892,22.97704 18.28152,23.00944 C18.24912,23.03644 18.21692,23.06444 18.18472,23.09364 C18.15552,23.11864 18.12532,23.14464 18.09632,23.17164 C18.05572,23.20704 18.01512,23.24444 17.97452,23.28204 C17.72472,23.51204 17.48432,23.75244 17.25432,24.00204 C17.21992,24.03864 17.18672,24.07604 17.15432,24.11344 C17.11912,24.15104 17.08572,24.18844 17.05352,24.22584 C17.03672,24.24564 17.01912,24.26544 17.00352,24.28424 C16.95772,24.33624 16.91412,24.38824 16.87132,24.44024 C16.85572,24.45804 16.84112,24.47464 16.82752,24.49224 C16.79232,24.53404 16.75892,24.57564 16.72572,24.61724 C16.68712,24.66504 16.64852,24.71304 16.61112,24.76184 C16.56952,24.81484 16.52892,24.86804 16.48952,24.92224 C16.45292,24.96884 16.41752,25.01584 16.38432,25.06364 C16.35712,25.09904 16.33212,25.13444 16.30732,25.16984 C16.20732,25.30924 16.11072,25.45084 16.01792,25.59444 C15.96592,25.67344 15.91592,25.75264 15.86592,25.83264 C15.81612,25.91284 15.76832,25.99404 15.72032,26.07524 C15.67752,26.14704 15.63592,26.21984 15.59552,26.29284 C15.56012,26.35624 15.52472,26.41964 15.49132,26.48424 C15.45492,26.55084 15.42052,26.61744 15.38632,26.68504 C15.34872,26.75584 15.31332,26.82764 15.27912,26.90044 C15.24572,26.96704 15.21352,27.03484 15.18232,27.10244 C15.15832,27.15344 15.13552,27.20444 15.11252,27.25544 C15.04712,27.40104 14.98452,27.54884 14.92532,27.69864 C14.87332,27.82684 14.82432,27.95684 14.77752,28.08684 C14.75352,28.15464 14.72952,28.22124 14.70672,28.28884 L14.68792,28.34504 C14.66192,28.42104 14.63792,28.49784 14.61412,28.57384 C14.58812,28.65624 14.56312,28.73844 14.53912,28.82164 C14.51512,28.90384 14.49232,28.98704 14.47052,29.07024 C14.44852,29.15164 14.42772,29.23384 14.40692,29.31604 C14.40492,29.32644 14.40272,29.33684 14.39972,29.34724 C14.38192,29.42104 14.36532,29.49704 14.34872,29.57204 C14.34772,29.57304 14.34772,29.57404 14.34772,29.57504 C14.32472,29.67704 14.30392,29.78004 14.28412,29.88304 C14.27172,29.94464 14.26032,30.00604 14.24992,30.06744 C14.24572,30.08824 14.24152,30.11004 14.23832,30.13084 C14.22492,30.21004 14.21132,30.28904 14.19992,30.36824 C14.19672,30.38884 14.19372,30.41084 14.19052,30.43164 C14.18632,30.45764 14.18312,30.48364 14.18012,30.50964 C14.16972,30.57724 14.16132,30.64484 14.15292,30.71364 C14.11872,30.99664 14.09372,31.28384 14.07912,31.57324 C14.06772,31.36104 14.06152,31.14864 14.06152,30.93224 C14.06152,30.80004 14.06352,30.66984 14.06972,30.53884 C14.07072,30.50344 14.07192,30.46704 14.07492,30.43164 C14.08552,30.14344 14.10712,29.85724 14.13952,29.57504 C14.30292,28.10044 14.73272,26.70584 15.37792,25.43944 C15.50912,25.18124 15.65052,24.92844 15.79932,24.68164 C17.91832,21.17464 21.76792,18.82984 26.16472,18.82984 C32.39132,18.82984 37.51892,23.52864 38.19212,29.57504 C38.22432,29.85724 38.24632,30.14344 38.25672,30.43164 C38.25972,30.46704 38.26072,30.50344 38.26192,30.53884 C38.26812,30.66984 38.26912,30.80004 38.26912,30.93224" id="Fill-107" fill="#008EC6"></path>
                <path d="M37.48376,7.78184 L37.48376,11.71364 C37.48376,12.55864 38.17536,13.25044 39.02056,13.25044 L39.02056,6.24504 C38.59776,6.24504 38.21396,6.41764 37.93516,6.69644 C37.65636,6.97464 37.48376,7.35904 37.48376,7.78184" id="Fill-108" fill="#4F5150"></path>
            </g>
        </g>
    </g>
</svg>