<?xml version="1.0" encoding="UTF-8"?>
<svg width="463px" height="68px" viewBox="0 0 463 68" version="1.1" xmlns="http://www.w3.org/2000/svg" xmlns:xlink="http://www.w3.org/1999/xlink">
    <!-- Generator: Sketch 52.6 (67491) - http://www.bohemiancoding.com/sketch -->
    <title>分组</title>
    <desc>Created with Sketch.</desc>
    <defs>
        <polygon id="path-1" points="0 74.4983278 466.951422 74.4983278 466.951422 0.0569397993 0 0.0569397993"></polygon>
        <path d="M131.733814,1.59255853 C131.733814,2.47575251 131.431328,3.27316054 130.941542,3.8520903 C130.452005,4.43102007 129.777422,4.78846154 129.030472,4.78846154 L2.81852654,4.78846154 C1.32562895,4.78846154 0.115184987,3.35744147 0.115184987,1.59255853 C0.115184987,1.04448161 0.231371582,0.530769231 0.436200536,0.0817725753 C0.892182842,1.08010033 1.7866193,1.75936455 2.81452011,1.75936455 L129.026716,1.75936455 C129.772414,1.75936455 130.449501,1.40192308 130.937786,0.822993311 C131.124085,0.603010033 131.284092,0.35041806 131.408792,0.0742474916" id="path-3"></path>
        <path d="M131.15839,1.83010033 C131.03369,2.1062709 130.873683,2.35886288 130.687383,2.57884615 C130.199099,3.15777592 129.522012,3.51521739 128.776314,3.51521739 L2.56411796,3.51521739 C1.53621716,3.51521739 0.641780697,2.83595318 0.185798391,1.83762542 C0.31049866,1.56145485 0.47050563,1.30886288 0.656804826,1.08862876 C1.14508901,0.509949833 1.82217641,0.152508361 2.5681244,0.152508361 L128.78007,0.152508361" id="path-5"></path>
        <path d="M131.664453,1.58252508 C131.664453,2.46571906 131.362217,3.26337793 130.872431,3.84230769 C130.382894,4.42123746 129.708311,4.77867893 128.961111,4.77867893 L2.74941555,4.77867893 C1.25651796,4.77867893 0.0458235925,3.34765886 0.0458235925,1.58252508 C0.0458235925,1.034699 0.162010188,0.520986622 0.367089544,0.0719899666 C0.822821448,1.07031773 1.71750831,1.74958194 2.74565952,1.74958194 L128.957605,1.74958194 C129.703303,1.74958194 130.38014,1.39214047 130.868925,0.813210702 C131.054974,0.593227425 131.21473,0.340635452 131.339681,0.0644648829" id="path-7"></path>
        <path d="M131.089279,1.82031773 C130.964328,2.09648829 130.804572,2.34908027 130.618523,2.56906355 C130.129738,3.14799331 129.452901,3.50543478 128.707203,3.50543478 L2.49525737,3.50543478 C1.46710617,3.50543478 0.572419303,2.82617057 0.116687399,1.82784281 C0.24163807,1.5514214 0.401394638,1.29908027 0.587443432,1.07909699 C1.07597802,0.500167224 1.75306542,0.142725753 2.4990134,0.142725753 L128.710709,0.142725753" id="path-9"></path>
        <path d="M131.627143,1.58252508 C131.627143,2.46571906 131.324657,3.26337793 130.835121,3.84230769 C130.345334,4.42123746 129.670751,4.77867893 128.923801,4.77867893 L2.71185523,4.77867893 C1.21895764,4.77867893 0.00851367292,3.34765886 0.00851367292,1.58252508 C0.00851367292,1.034699 0.124700268,0.520986622 0.329529223,0.0719899666 C0.785261126,1.07031773 1.67994799,1.74958194 2.7080992,1.74958194 L128.919795,1.74958194 C129.665743,1.74958194 130.34283,1.39214047 130.831365,0.813210702 C131.017413,0.593227425 131.17742,0.340635452 131.302121,0.0644648829" id="path-11"></path>
        <path d="M131.051718,1.82031773 C130.927018,2.09648829 130.767011,2.34908027 130.580962,2.56906355 C130.092428,3.14799331 129.41534,3.50543478 128.669392,3.50543478 L2.45769705,3.50543478 C1.42954584,3.50543478 0.534858981,2.82617057 0.0791270777,1.82784281 C0.203827346,1.5514214 0.363834316,1.29908027 0.550133512,1.07909699 C1.03841769,0.500167224 1.71550509,0.142725753 2.46145308,0.142725753 L128.673399,0.142725753" id="path-13"></path>
        <path d="M3.58250349,0.0965719064 C1.61233941,0.0965719064 0,1.71170569 0,3.68553512 C0,5.65936455 1.61233941,7.27424749 3.58250349,7.27424749 L463.368918,7.27424749 C465.339333,7.27424749 466.951172,5.65936455 466.951172,3.68553512 C466.951172,1.71170569 465.339333,0.0965719064 463.368918,0.0965719064 L3.58250349,0.0965719064 Z" id="path-15"></path>
    </defs>
    <g id="图示" stroke="none" stroke-width="1" fill="none" fill-rule="evenodd">
        <g id="交通工具" transform="translate(-73.000000, -1084.000000)">
            <g id="分组" transform="translate(69.000000, 1084.000000)">
                <g transform="translate(0.000000, 0.193896)">
                    <path d="M202.423166,2.83951505 L174.271705,2.83951505 C173.966464,2.83951505 173.766143,2.519699 173.899106,2.24428094 L174.813825,0.348963211 C174.882936,0.205735786 175.027919,0.114682274 175.186674,0.114682274 L201.59158,0.114682274 C201.755594,0.114682274 201.904332,0.212006689 201.970439,0.362508361 L202.802024,2.25807692 C202.922468,2.53198997 202.721895,2.83951505 202.423166,2.83951505" id="Fill-1" fill="#030303"></path>
                    <path d="M292.769436,2.83951505 L264.617975,2.83951505 C264.312485,2.83951505 264.112413,2.519699 264.245377,2.24428094 L265.160096,0.348963211 C265.229457,0.205735786 265.37419,0.114682274 265.532945,0.114682274 L291.937851,0.114682274 C292.101864,0.114682274 292.250603,0.212006689 292.316709,0.362508361 L293.148545,2.25807692 C293.268738,2.53198997 293.068166,2.83951505 292.769436,2.83951505" id="Fill-3" fill="#030303"></path>
                    <path d="M306.455717,39.1703428 L306.455717,56.2986873 C306.455717,58.8559615 304.386143,60.9288712 301.833543,60.9288712 L164.988521,60.9288712 C162.404371,60.9288712 160.309256,58.8301254 160.309256,56.2414967 L160.309256,39.1703428 L306.455717,39.1703428 Z" id="Fill-5" fill="#007CF0"></path>
                    <polygon id="Fill-7" fill="#747476" points="214.941069 16.3542893 207.652113 39.1703428 199.768953 39.1703428 207.057909 16.3542893"></polygon>
                    <polygon id="Fill-9" fill="#131313" points="230.147115 13.6960284 230.147115 39.1704431 215.302275 39.1704431 222.591231 16.3543896 219.154712 16.3543896 211.865755 39.1704431 207.652239 39.1704431 214.940944 16.3543896 207.058034 16.3543896 199.769078 39.1704431 194.468816 39.1704431 194.468816 13.6960284"></polygon>
                    <polygon id="Fill-11" fill="#747476" points="254.841574 16.3542893 247.554121 39.1703428 239.669458 39.1703428 246.958665 16.3542893"></polygon>
                    <polygon id="Fill-13" fill="#131313" points="269.511134 13.6960284 269.511134 39.1704431 255.204407 39.1704431 262.491861 16.3543896 259.055342 16.3543896 251.767888 39.1704431 247.554121 39.1704431 254.841574 16.3543896 246.958665 16.3543896 239.669458 39.1704431 233.832835 39.1704431 233.832835 13.6960284"></polygon>
                    <polygon id="Fill-15" fill="#747476" points="294.743807 16.3542893 288.303965 36.5119816 280.421055 36.5119816 286.860647 16.3542893"></polygon>
                    <polygon id="Fill-17" fill="#747476" points="280.421005 36.5119314 288.303915 36.5119314 287.454801 39.1702926 279.571641 39.1702926"></polygon>
                    <polygon id="Fill-19" fill="#131313" points="287.709811 13.6960284 279.571741 39.1704431 273.196753 39.1704431 273.196753 13.6960284"></polygon>
                    <polygon id="Fill-21" fill="#131313" points="299.806613 13.6960284 291.668293 39.1704431 287.454776 39.1704431 295.593096 13.6960284"></polygon>
                    <path d="M306.455717,14.1212709 L306.455717,39.1702676 L295.104987,39.1702676 L303.243057,13.6961037 L306.446952,13.6961037 C306.452712,13.8378261 306.455717,13.9795485 306.455717,14.1212709" id="Fill-23" fill="#131313"></path>
                    <path d="M306.446927,13.6960284 L273.196778,13.6960284 L273.196778,39.1704431 L269.511109,39.1704431 L269.511109,13.6960284 L233.832809,13.6960284 L233.832809,39.1704431 L230.14714,39.1704431 L230.14714,13.6960284 L194.468841,13.6960284 L194.468841,39.1704431 L160.309231,39.1704431 L160.309231,14.1211957 C160.309231,13.9794732 160.312236,13.8377508 160.317995,13.6960284 C160.360814,12.456898 160.599697,11.2651756 161.003596,10.1514632 C162.63722,5.63365385 166.970178,2.38482441 172.025547,2.38482441 L294.739375,2.38482441 C299.794744,2.38482441 304.127703,5.63365385 305.761326,10.1514632 C306.165225,11.2651756 306.404109,12.456898 306.446927,13.6960284" id="Fill-25" fill="#D8D7D6"></path>
                    <path d="M306.446927,13.6960284 L160.317995,13.6960284 C160.360814,12.456898 160.599697,11.2651756 161.003596,10.1514632 L305.761326,10.1514632 C306.165225,11.2651756 306.404109,12.456898 306.446927,13.6960284" id="Fill-27" fill="#B9B6B1"></path>
                    <mask id="mask-2" fill="white">
                        <use xlink:href="#path-1"></use>
                    </mask>
                    <g id="Clip-30"></g>
                    <polygon id="Fill-29" fill="#D8D7D6" mask="url(#mask-2)" points="160.304949 16.3542642 306.45141 16.3542642 306.45141 13.695903 160.304949 13.695903"></polygon>
                    <path d="M299.185516,64.1248495 C299.185516,65.0080435 298.88328,65.8054515 298.393494,66.3843813 C297.903707,66.963311 297.229374,67.3207525 296.482174,67.3207525 L170.270228,67.3207525 C168.777331,67.3207525 167.566887,65.8897324 167.566887,64.1248495 C167.566887,63.5767726 167.683073,63.0630602 167.887902,62.6140635 C168.343885,63.6123913 169.238321,64.2919064 170.266472,64.2919064 L296.478168,64.2919064 C297.224116,64.2919064 297.901203,63.934214 298.389738,63.3555351 C298.575786,63.135301 298.735793,62.882709 298.860744,62.6065385 C299.068077,63.0570401 299.185516,63.5740134 299.185516,64.1248495" id="Fill-31" fill="#353F44" mask="url(#mask-2)"></path>
                    <path d="M298.860769,62.6066137 C298.735818,62.8827843 298.575811,63.1353763 298.389763,63.3553595 C297.901228,63.9342893 297.224141,64.2917308 296.478193,64.2917308 L170.266497,64.2917308 C169.238346,64.2917308 168.34391,63.6124666 167.887927,62.613888 C168.012878,62.3379682 168.172635,62.0853763 168.358934,61.8651421 C168.847218,61.2862124 169.524305,60.9290217 170.270253,60.9290217 L296.482199,60.9290217 C297.5101,60.9290217 298.403535,61.6067809 298.860769,62.6066137" id="Fill-32" fill="#3D484C" mask="url(#mask-2)"></path>
                    <path d="M142.502834,64.1346572 C142.502834,65.0178512 142.200599,65.8152592 141.710812,66.394189 C141.221025,66.9731187 140.546692,67.3305602 139.799492,67.3305602 L13.5875465,67.3305602 C12.0948994,67.3305602 10.884205,65.8995401 10.884205,64.1346572 C10.884205,63.5865803 11.0003916,63.0728679 11.2052205,62.6238712 C11.6612028,63.622199 12.5556393,64.3014632 13.5837905,64.3014632 L139.795736,64.3014632 C140.541434,64.3014632 141.218772,63.9440217 141.707056,63.365092 C141.893105,63.1451087 142.053112,62.8925167 142.178062,62.6163462 C142.385395,63.0668478 142.502834,63.5838211 142.502834,64.1346572" id="Fill-33" fill="#353F44" mask="url(#mask-2)"></path>
                    <path d="M142.178087,62.6164214 C142.053137,62.892592 141.89313,63.1451839 141.707081,63.3651672 C141.218546,63.944097 140.541459,64.3015385 139.795761,64.3015385 L13.5838155,64.3015385 C12.5556643,64.3015385 11.6612279,63.6222742 11.2052456,62.6236957 C11.3301962,62.3477759 11.4902032,62.0951839 11.676252,61.8749498 C12.1647866,61.2960201 12.841874,60.9388294 13.5875716,60.9388294 L139.799517,60.9388294 C140.827669,60.9388294 141.720853,61.6165886 142.178087,62.6164214" id="Fill-34" fill="#3D484C" mask="url(#mask-2)"></path>
                    <g mask="url(#mask-2)">
                        <g transform="translate(10.767292, 62.709030)">
                            <mask id="mask-4" fill="white">
                                <use xlink:href="#path-3"></use>
                            </mask>
                            <g id="Clip-36" stroke="none" fill="none"></g>
                            <path d="M131.733814,1.59255853 C131.733814,2.47575251 131.431328,3.27316054 130.941542,3.8520903 C130.452005,4.43102007 129.777422,4.78846154 129.030472,4.78846154 L2.81852654,4.78846154 C1.32562895,4.78846154 0.115184987,3.35744147 0.115184987,1.59255853 C0.115184987,1.04448161 0.231371582,0.530769231 0.436200536,0.0817725753 C0.892182842,1.08010033 1.7866193,1.75936455 2.81452011,1.75936455 L129.026716,1.75936455 C129.772414,1.75936455 130.449501,1.40192308 130.937786,0.822993311 C131.124085,0.603010033 131.284092,0.35041806 131.408792,0.0742474916 C131.616125,0.524749164 131.733814,1.04172241 131.733814,1.59255853" id="Fill-35" stroke="none" fill="none" mask="url(#mask-4)"></path>
                        </g>
                    </g>
                    <g mask="url(#mask-2)">
                        <g transform="translate(11.017694, 60.953177)">
                            <mask id="mask-6" fill="white">
                                <use xlink:href="#path-5"></use>
                            </mask>
                            <g id="Clip-38" stroke="none" fill="none"></g>
                            <path d="M131.15839,1.83010033 C131.03369,2.1062709 130.873683,2.35886288 130.687383,2.57884615 C130.199099,3.15777592 129.522012,3.51521739 128.776314,3.51521739 L2.56411796,3.51521739 C1.53621716,3.51521739 0.641780697,2.83595318 0.185798391,1.83762542 C0.31049866,1.56145485 0.47050563,1.30886288 0.656804826,1.08862876 C1.14508901,0.509949833 1.82217641,0.152508361 2.5681244,0.152508361 L128.78007,0.152508361 C129.807971,0.152508361 130.701406,0.830267559 131.15839,1.83010033" id="Fill-37" stroke="none" fill="none" mask="url(#mask-6)"></path>
                        </g>
                    </g>
                    <g mask="url(#mask-2)">
                        <g transform="translate(167.519035, 62.709030)">
                            <mask id="mask-8" fill="white">
                                <use xlink:href="#path-7"></use>
                            </mask>
                            <g id="Clip-40" stroke="none" fill="none"></g>
                            <path d="M131.664453,1.58252508 C131.664453,2.46571906 131.362217,3.26337793 130.872431,3.84230769 C130.382894,4.42123746 129.708311,4.77867893 128.961111,4.77867893 L2.74941555,4.77867893 C1.25651796,4.77867893 0.0458235925,3.34765886 0.0458235925,1.58252508 C0.0458235925,1.034699 0.162010188,0.520986622 0.367089544,0.0719899666 C0.822821448,1.07031773 1.71750831,1.74958194 2.74565952,1.74958194 L128.957605,1.74958194 C129.703303,1.74958194 130.38014,1.39214047 130.868925,0.813210702 C131.054974,0.593227425 131.21473,0.340635452 131.339681,0.0644648829 C131.547264,0.514966555 131.664453,1.0319398 131.664453,1.58252508" id="Fill-39" stroke="none" fill="none" mask="url(#mask-8)"></path>
                        </g>
                    </g>
                    <g mask="url(#mask-2)">
                        <g transform="translate(167.769437, 60.953177)">
                            <mask id="mask-10" fill="white">
                                <use xlink:href="#path-9"></use>
                            </mask>
                            <g id="Clip-42" stroke="none" fill="none"></g>
                            <path d="M131.089279,1.82031773 C130.964328,2.09648829 130.804572,2.34908027 130.618523,2.56906355 C130.129738,3.14799331 129.452901,3.50543478 128.707203,3.50543478 L2.49525737,3.50543478 C1.46710617,3.50543478 0.572419303,2.82617057 0.116687399,1.82784281 C0.24163807,1.5514214 0.401394638,1.29908027 0.587443432,1.07909699 C1.07597802,0.500167224 1.75306542,0.142725753 2.4990134,0.142725753 L128.710709,0.142725753 C129.73886,0.142725753 130.632045,0.82048495 131.089279,1.82031773" id="Fill-41" stroke="none" fill="none" mask="url(#mask-10)"></path>
                        </g>
                    </g>
                    <polygon id="Fill-43" fill="#D8D7D6" mask="url(#mask-2)" points="160.309206 47.5708194 306.455666 47.5708194 306.455666 43.8298495 160.309206 43.8298495"></polygon>
                    <polygon id="Fill-44" fill="#747476" mask="url(#mask-2)" points="222.591281 16.3542893 215.302325 39.1703428 211.865806 39.1703428 219.154511 16.3542893"></polygon>
                    <polygon id="Fill-45" fill="#747476" mask="url(#mask-2)" points="262.491811 16.3542893 255.204357 39.1703428 251.767838 39.1703428 259.055292 16.3542893"></polygon>
                    <polygon id="Fill-46" fill="#747476" mask="url(#mask-2)" points="302.394018 16.3542893 295.954176 36.5119816 292.517657 36.5119816 298.957249 16.3542893"></polygon>
                    <polygon id="Fill-47" fill="#D8D7D6" mask="url(#mask-2)" points="160.309206 39.1703177 306.455666 39.1703177 306.455666 36.5119565 160.309206 36.5119565"></polygon>
                    <path d="M180.877438,57.5563294 L170.883889,57.5563294 C168.659817,57.5563294 166.857172,55.7503094 166.857172,53.5226338 L166.857172,24.8179515 C166.857172,22.5902759 168.659817,20.7842559 170.883889,20.7842559 L180.877438,20.7842559 C183.10126,20.7842559 184.904155,22.5902759 184.904155,24.8179515 L184.904155,53.5226338 C184.904155,55.7503094 183.10126,57.5563294 180.877438,57.5563294" id="Fill-48" fill="#D8D7D6" mask="url(#mask-2)"></path>
                    <path d="M180.877438,57.5563294 L170.883889,57.5563294 C168.659817,57.5563294 166.857172,55.7503094 166.857172,53.5226338 L166.857172,24.8179515 C166.857172,22.5902759 168.659817,20.7842559 170.883889,20.7842559 L180.877438,20.7842559 C183.10126,20.7842559 184.904155,22.5902759 184.904155,24.8179515 L184.904155,53.5226338 C184.904155,55.7503094 183.10126,57.5563294 180.877438,57.5563294 Z" id="Stroke-49" stroke="#007CF0" stroke-width="1.472" mask="url(#mask-2)"></path>
                    <polygon id="Fill-50" fill="#131313" mask="url(#mask-2)" points="168.684782 24.1255686 171.999105 24.1255686 168.749636 34.2967224 168.684782 34.2967224"></polygon>
                    <polygon id="Fill-51" fill="#131313" mask="url(#mask-2)" points="177.138409 24.1255686 173.88894 34.2967224 172.159663 34.2967224 175.409131 24.1255686"></polygon>
                    <polygon id="Fill-52" fill="#131313" mask="url(#mask-2)" points="183.076896 24.1255686 183.076896 34.2967224 175.78218 34.2967224 179.031399 24.1255686"></polygon>
                    <polygon id="Fill-53" fill="#747476" mask="url(#mask-2)" points="175.409081 24.1255686 172.159613 34.2967224 168.749636 34.2967224 171.999105 24.1255686"></polygon>
                    <polygon id="Fill-54" fill="#747476" mask="url(#mask-2)" points="179.031474 24.1255686 175.782005 34.2967224 173.888965 34.2967224 177.138434 24.1255686"></polygon>
                    <polygon id="Fill-55" fill="#353F44" mask="url(#mask-2)" points="155.526024 53.1331104 160.243851 53.1331104 160.243851 16.3542642 155.526024 16.3542642"></polygon>
                    <polygon id="Fill-56" fill="#3D484C" mask="url(#mask-2)" points="306.521021 53.1331104 311.238848 53.1331104 311.238848 16.3542642 306.521021 16.3542642"></polygon>
                    <path d="M358.13589,2.83951505 L329.984429,2.83951505 C329.678938,2.83951505 329.478867,2.519699 329.61158,2.24428094 L330.526549,0.348963211 C330.59566,0.205735786 330.740393,0.114682274 330.899398,0.114682274 L357.304054,0.114682274 C357.468318,0.114682274 357.617056,0.212006689 357.682912,0.362508361 L358.514748,2.25807692 C358.634941,2.53198997 358.434619,2.83951505 358.13589,2.83951505" id="Fill-57" fill="#030303" mask="url(#mask-2)"></path>
                    <path d="M448.48216,2.83951505 L420.330699,2.83951505 C420.025209,2.83951505 419.825137,2.519699 419.957851,2.24428094 L420.87282,0.348963211 C420.941931,0.205735786 421.086914,0.114682274 421.245669,0.114682274 L447.650325,0.114682274 C447.814588,0.114682274 447.963327,0.212006689 448.029183,0.362508361 L448.861019,2.25807692 C448.981212,2.53198997 448.78089,2.83951505 448.48216,2.83951505" id="Fill-58" fill="#030303" mask="url(#mask-2)"></path>
                    <path d="M462.168215,39.1703428 L462.168215,56.2986873 C462.168215,58.8559615 460.098892,60.9288712 457.546042,60.9288712 L320.70127,60.9288712 C318.11712,60.9288712 316.022005,58.8301254 316.022005,56.2414967 L316.022005,39.1703428 L462.168215,39.1703428 Z" id="Fill-59" fill="#007CF0" mask="url(#mask-2)"></path>
                    <polygon id="Fill-60" fill="#747476" mask="url(#mask-2)" points="370.653793 16.3542893 363.364837 39.1703428 355.481677 39.1703428 362.770633 16.3542893"></polygon>
                    <polygon id="Fill-61" fill="#131313" mask="url(#mask-2)" points="385.859614 13.6960284 385.859614 39.1704431 371.015024 39.1704431 378.303729 16.3543896 374.867461 16.3543896 367.578254 39.1704431 363.364737 39.1704431 370.653693 16.3543896 362.770533 16.3543896 355.481827 39.1704431 350.181565 39.1704431 350.181565 13.6960284"></polygon>
                    <polygon id="Fill-62" fill="#747476" mask="url(#mask-2)" points="410.554298 16.3542893 403.266594 39.1703428 395.382182 39.1703428 402.671389 16.3542893"></polygon>
                    <polygon id="Fill-63" fill="#131313" mask="url(#mask-2)" points="425.223607 13.6960284 425.223607 39.1704431 410.916881 39.1704431 418.204585 16.3543896 414.767815 16.3543896 407.480612 39.1704431 403.266594 39.1704431 410.554298 16.3543896 402.671389 16.3543896 395.382182 39.1704431 389.545558 39.1704431 389.545558 13.6960284"></polygon>
                    <polygon id="Fill-64" fill="#747476" mask="url(#mask-2)" points="450.456281 16.3542893 444.016689 36.5119816 436.133529 36.5119816 442.573371 16.3542893"></polygon>
                    <polygon id="Fill-65" fill="#747476" mask="url(#mask-2)" points="436.133478 36.5119314 444.016639 36.5119314 443.167525 39.1702926 435.284114 39.1702926"></polygon>
                    <polygon id="Fill-66" fill="#131313" mask="url(#mask-2)" points="443.422535 13.6960284 435.284215 39.1704431 428.909477 39.1704431 428.909477 13.6960284"></polygon>
                    <polygon id="Fill-67" fill="#131313" mask="url(#mask-2)" points="455.519087 13.6960284 447.381017 39.1704431 443.1675 39.1704431 451.30557 13.6960284"></polygon>
                    <path d="M462.168215,14.1212709 L462.168215,39.1702676 L450.817736,39.1702676 L458.955806,13.6961037 L462.159451,13.6961037 C462.16521,13.8378261 462.168215,13.9795485 462.168215,14.1212709" id="Fill-68" fill="#131313" mask="url(#mask-2)"></path>
                    <path d="M462.159401,13.6960284 L428.909502,13.6960284 L428.909502,39.1704431 L425.223582,39.1704431 L425.223582,13.6960284 L389.545533,13.6960284 L389.545533,39.1704431 L385.859614,39.1704431 L385.859614,13.6960284 L350.181565,13.6960284 L350.181565,39.1704431 L316.021955,39.1704431 L316.021955,14.1211957 C316.021955,13.9794732 316.024709,13.8377508 316.030719,13.6960284 C316.073538,12.456898 316.312421,11.2651756 316.71632,10.1514632 C318.349944,5.63365385 322.682652,2.38482441 327.738271,2.38482441 L450.451849,2.38482441 C455.507468,2.38482441 459.840176,5.63365385 461.47405,10.1514632 C461.877949,11.2651756 462.116582,12.456898 462.159401,13.6960284" id="Fill-69" fill="#D8D7D6" mask="url(#mask-2)"></path>
                    <path d="M462.159401,13.6960284 L316.030719,13.6960284 C316.073538,12.456898 316.312421,11.2651756 316.71632,10.1514632 L461.47405,10.1514632 C461.877949,11.2651756 462.116582,12.456898 462.159401,13.6960284" id="Fill-70" fill="#B9B6B1" mask="url(#mask-2)"></path>
                    <polygon id="Fill-71" fill="#D8D7D6" mask="url(#mask-2)" points="316.017523 16.3542642 462.163733 16.3542642 462.163733 13.695903 316.017523 13.695903"></polygon>
                    <path d="M454.897989,64.1248495 C454.897989,65.0080435 454.595754,65.8054515 454.106218,66.3843813 C453.616431,66.963311 452.941848,67.3207525 452.194648,67.3207525 L325.982952,67.3207525 C324.490055,67.3207525 323.27936,65.8897324 323.27936,64.1248495 C323.27936,63.5767726 323.395547,63.0630602 323.600376,62.6140635 C324.056609,63.6123913 324.951045,64.2919064 325.978946,64.2919064 L452.190892,64.2919064 C452.93684,64.2919064 453.613927,63.934214 454.102211,63.3555351 C454.28826,63.135301 454.448267,62.882709 454.573218,62.6065385 C454.780551,63.0570401 454.897989,63.5740134 454.897989,64.1248495" id="Fill-72" fill="#353F44" mask="url(#mask-2)"></path>
                    <path d="M454.573243,62.6066137 C454.448292,62.8827843 454.288285,63.1353763 454.102236,63.3553595 C453.613952,63.9342893 452.936865,64.2917308 452.190917,64.2917308 L325.978971,64.2917308 C324.95107,64.2917308 324.056383,63.6124666 323.600401,62.613888 C323.725352,62.3379682 323.885358,62.0853763 324.071407,61.8651421 C324.559942,61.2862124 325.237029,60.9290217 325.982977,60.9290217 L452.194673,60.9290217 C453.222824,60.9290217 454.116008,61.6067809 454.573243,62.6066137" id="Fill-73" fill="#3D484C" mask="url(#mask-2)"></path>
                    <g mask="url(#mask-2)">
                        <g transform="translate(323.269169, 62.709030)">
                            <mask id="mask-12" fill="white">
                                <use xlink:href="#path-11"></use>
                            </mask>
                            <g id="Clip-75" stroke="none" fill="none"></g>
                            <path d="M131.627143,1.58252508 C131.627143,2.46571906 131.324657,3.26337793 130.835121,3.84230769 C130.345334,4.42123746 129.670751,4.77867893 128.923801,4.77867893 L2.71185523,4.77867893 C1.21895764,4.77867893 0.00851367292,3.34765886 0.00851367292,1.58252508 C0.00851367292,1.034699 0.124700268,0.520986622 0.329529223,0.0719899666 C0.785261126,1.07031773 1.67994799,1.74958194 2.7080992,1.74958194 L128.919795,1.74958194 C129.665743,1.74958194 130.34283,1.39214047 130.831365,0.813210702 C131.017413,0.593227425 131.17742,0.340635452 131.302121,0.0644648829 C131.509704,0.514966555 131.627143,1.0319398 131.627143,1.58252508" id="Fill-74" stroke="none" fill="none" mask="url(#mask-12)"></path>
                        </g>
                    </g>
                    <g mask="url(#mask-2)">
                        <g transform="translate(323.519571, 60.953177)">
                            <mask id="mask-14" fill="white">
                                <use xlink:href="#path-13"></use>
                            </mask>
                            <g id="Clip-77" stroke="none" fill="none"></g>
                            <path d="M131.051718,1.82031773 C130.927018,2.09648829 130.767011,2.34908027 130.580962,2.56906355 C130.092428,3.14799331 129.41534,3.50543478 128.669392,3.50543478 L2.45769705,3.50543478 C1.42954584,3.50543478 0.534858981,2.82617057 0.0791270777,1.82784281 C0.203827346,1.5514214 0.363834316,1.29908027 0.550133512,1.07909699 C1.03841769,0.500167224 1.71550509,0.142725753 2.46145308,0.142725753 L128.673399,0.142725753 C129.7013,0.142725753 130.594735,0.82048495 131.051718,1.82031773" id="Fill-76" stroke="none" fill="none" mask="url(#mask-14)"></path>
                        </g>
                    </g>
                    <polygon id="Fill-78" fill="#D8D7D6" mask="url(#mask-2)" points="316.02203 47.5708194 462.16824 47.5708194 462.16824 43.8298495 316.02203 43.8298495"></polygon>
                    <polygon id="Fill-79" fill="#747476" mask="url(#mask-2)" points="378.303779 16.3542893 371.015074 39.1703428 367.578304 39.1703428 374.86726 16.3542893"></polygon>
                    <polygon id="Fill-80" fill="#747476" mask="url(#mask-2)" points="418.204535 16.3542893 410.916831 39.1703428 407.480562 39.1703428 414.767765 16.3542893"></polygon>
                    <polygon id="Fill-81" fill="#747476" mask="url(#mask-2)" points="458.106517 16.3542893 451.666675 36.5119816 448.230406 36.5119816 454.669998 16.3542893"></polygon>
                    <polygon id="Fill-82" fill="#D8D7D6" mask="url(#mask-2)" points="316.02203 39.1703177 462.16824 39.1703177 462.16824 36.5119565 316.02203 36.5119565"></polygon>
                    <path d="M336.590062,57.5563294 L326.596513,57.5563294 C324.372691,57.5563294 322.569796,55.7503094 322.569796,53.5226338 L322.569796,24.8179515 C322.569796,22.5902759 324.372691,20.7842559 326.596513,20.7842559 L336.590062,20.7842559 C338.813884,20.7842559 340.616779,22.5902759 340.616779,24.8179515 L340.616779,53.5226338 C340.616779,55.7503094 338.813884,57.5563294 336.590062,57.5563294" id="Fill-83" fill="#D8D7D6" mask="url(#mask-2)"></path>
                    <path d="M336.590062,57.5563294 L326.596513,57.5563294 C324.372691,57.5563294 322.569796,55.7503094 322.569796,53.5226338 L322.569796,24.8179515 C322.569796,22.5902759 324.372691,20.7842559 326.596513,20.7842559 L336.590062,20.7842559 C338.813884,20.7842559 340.616779,22.5902759 340.616779,24.8179515 L340.616779,53.5226338 C340.616779,55.7503094 338.813884,57.5563294 336.590062,57.5563294 Z" id="Stroke-84" stroke="#007CF0" stroke-width="1.472" mask="url(#mask-2)"></path>
                    <polygon id="Fill-85" fill="#131313" mask="url(#mask-2)" points="324.397381 24.1255686 327.711453 24.1255686 324.462235 34.2967224 324.397381 34.2967224"></polygon>
                    <polygon id="Fill-86" fill="#131313" mask="url(#mask-2)" points="332.851158 24.1255686 329.601689 34.2967224 327.872412 34.2967224 331.12188 24.1255686"></polygon>
                    <polygon id="Fill-87" fill="#131313" mask="url(#mask-2)" points="338.789645 24.1255686 338.789645 34.2967224 331.494679 34.2967224 334.744148 24.1255686"></polygon>
                    <polygon id="Fill-88" fill="#747476" mask="url(#mask-2)" points="331.121805 24.1255686 327.872337 34.2967224 324.46211 34.2967224 327.711578 24.1255686"></polygon>
                    <polygon id="Fill-89" fill="#747476" mask="url(#mask-2)" points="334.744073 24.1255686 331.494604 34.2967224 329.601814 34.2967224 332.851032 24.1255686"></polygon>
                    <polygon id="Fill-90" fill="#353F44" mask="url(#mask-2)" points="311.238848 53.1331104 315.956675 53.1331104 315.956675 16.3542642 311.238848 16.3542642"></polygon>
                    <polygon id="Fill-91" fill="#3D484C" mask="url(#mask-2)" points="462.233345 53.1331104 466.951172 53.1331104 466.951172 16.3542642 462.233345 16.3542642"></polygon>
                    <path d="M108.803813,2.78011706 L136.955024,2.83229097 C137.260515,2.83279264 137.461337,2.51347826 137.328875,2.23755853 L136.417661,0.34048495 C136.348801,0.197257525 136.204068,0.105953177 136.045313,0.105702341 L109.640407,0.0570401338 C109.476394,0.0565384615 109.327404,0.15361204 109.261048,0.303862876 L108.425957,2.19792642 C108.305012,2.47183946 108.505084,2.77961538 108.803813,2.78011706" id="Fill-92" fill="#030303" mask="url(#mask-2)"></path>
                    <path d="M150.850841,39.1888294 L150.81929,56.3598161 C150.814282,58.9637458 148.715662,61.0707692 146.131011,61.0660033 L9.28623866,60.8126589 C6.73288799,60.807893 4.6680719,58.7184281 4.67307995,56.147107 L4.67358075,55.8157525 C4.91622043,52.937408 5.36368906,50.1172575 6.00121292,47.3701003 C6.29568584,46.1006187 6.63097432,44.8459365 7.00632713,43.6093144 C7.48684885,42.0177592 8.03372713,40.4560535 8.64120273,38.9254515 L150.850841,39.1888294 Z" id="Fill-93" fill="#007CF0" mask="url(#mask-2)"></path>
                    <polygon id="Fill-94" fill="#747476" mask="url(#mask-2)" points="96.2609697 16.2717391 103.507858 39.101087 111.390768 39.1156355 104.14388 16.2862876"></polygon>
                    <polygon id="Fill-95" fill="#131313" mask="url(#mask-2)" points="81.0599069 13.5851839 81.0128313 39.0595987 95.857672 39.0869398 88.6107835 16.257592 92.0473026 16.2638629 99.294191 39.0934615 103.507708 39.1012375 96.2610699 16.2716388 104.14398 16.2864381 111.390868 39.115786 116.69088 39.1255686 116.737956 13.6514047"></polygon>
                    <polygon id="Fill-96" fill="#747476" mask="url(#mask-2)" points="56.3604647 16.1977676 63.6058507 39.0273662 71.4902631 39.0419147 64.2433746 16.2125669"></polygon>
                    <polygon id="Fill-97" fill="#131313" mask="url(#mask-2)" points="41.6960387 13.512291 41.6489631 38.9867057 55.9556896 39.0130435 48.7103035 16.1836957 52.1468226 16.1899666 59.3922086 39.0193144 63.6057255 39.0273411 56.3603395 16.1977425 64.2434998 16.2125418 71.4903883 39.0418896 77.3270118 39.0526756 77.3740875 13.5782609"></polygon>
                    <path d="M30.7443753,36.3081271 L22.861215,36.2935786 L18.5079737,22.577107 C20.3444231,20.4169064 22.3353705,18.3929097 24.4635383,16.5226756 L30.7443753,36.3081271 Z" id="Fill-98" fill="#747476" mask="url(#mask-2)"></path>
                    <polygon id="Fill-99" fill="#747476" mask="url(#mask-2)" points="30.7439997 36.3081271 22.8610898 36.2933278 23.7051954 38.9534448 31.5883558 38.9679933"></polygon>
                    <path d="M38.0105448,13.5055686 L37.9634692,38.9799833 L31.5887314,38.9679431 L30.7443753,36.3080769 L24.4632879,16.5226254 L24.3418429,16.1385953 L24.9019925,16.1395987 C25.9709592,15.2170234 27.0739807,14.3313211 28.208052,13.4872575 L38.0105448,13.5055686 Z" id="Fill-100" fill="#131313" mask="url(#mask-2)"></path>
                    <path d="M23.7054709,38.9534197 L19.491954,38.9456438 L18.647598,36.2857776 L15.5108103,26.4040886 C16.4568296,25.0854431 17.4574366,23.8099415 18.5078736,22.5770819 L22.8611149,36.2935535 L23.7054709,38.9534197 Z" id="Fill-101" fill="#131313" mask="url(#mask-2)"></path>
                    <path d="M16.0553598,38.9392224 L8.64120273,38.9254264 C8.9995282,38.0281856 9.37863705,37.1427341 9.77978129,36.2693227 C10.7848955,34.0677341 11.9239749,31.9401421 13.1839984,29.8955769 L15.2110038,36.2793562 L16.0553598,38.9392224 Z" id="Fill-102" fill="#131313" mask="url(#mask-2)"></path>
                    <path d="M150.897165,14.1398829 L150.850841,39.1888796 L116.691231,39.1256689 L116.738306,13.6512542 L81.0602574,13.5852843 L81.0131818,39.0594482 L77.3272623,39.0526756 L77.3743379,13.5785117 L41.6962891,13.512291 L41.6492135,38.9867057 L37.9635443,38.9799331 L38.0106199,13.5055184 L28.2078767,13.4872074 C29.9146177,12.2159699 31.6902194,11.0362876 33.5321775,9.95292642 C43.0401974,4.35953177 54.1901041,2.46471572 65.0830982,2.26204013 C76.8850521,2.04280936 88.7127974,2.28812709 100.517005,2.30994983 C113.412215,2.33377926 126.307174,2.3576087 139.202383,2.38168896 C144.257752,2.3909699 148.584952,5.64807692 150.210062,10.1686455 C150.611957,11.2831104 150.848587,12.4753344 150.889152,13.7144649 C150.894661,13.8564381 150.897416,13.9981605 150.897165,14.1398829" id="Fill-103" fill="#D8D7D6" mask="url(#mask-2)"></path>
                    <path d="M150.889102,13.7145151 L28.2078266,13.4872575 C29.9145677,12.2160201 31.6904197,11.0363378 33.5323779,9.95272575 L150.210012,10.1686957 C150.611907,11.2831605 150.848537,12.4753846 150.889102,13.7145151" id="Fill-104" fill="#B9B6B1" mask="url(#mask-2)"></path>
                    <path d="M150.902298,13.7145151 L150.89729,16.3728763 L24.9019424,16.1395987 C25.9711596,15.2170234 27.0739306,14.3313211 28.2080019,13.4872575 L150.902298,13.7145151 Z" id="Fill-105" fill="#D8D7D6" mask="url(#mask-2)"></path>
                    <path d="M150.842277,43.848286 L150.835516,47.5892559 L6.00141324,47.321112 C6.29563576,46.0589047 6.63117464,44.8114967 7.00652745,43.581898 L150.842277,43.848286 Z" id="Fill-106" fill="#D8D7D6" mask="url(#mask-2)"></path>
                    <polygon id="Fill-107" fill="#747476" mask="url(#mask-2)" points="88.6107335 16.2575418 95.8576219 39.0871405 99.2943914 39.0934114 92.0475029 16.2638127"></polygon>
                    <polygon id="Fill-108" fill="#747476" mask="url(#mask-2)" points="48.7102284 16.1836957 55.9556145 39.0130435 59.3921335 39.0195652 52.1469979 16.1899666"></polygon>
                    <path d="M18.6476731,36.2857274 L15.211154,36.2794565 L13.1838983,29.8954264 C13.9188286,28.702199 14.6950752,27.5383194 15.5108854,26.4040385 L18.6476731,36.2857274 Z" id="Fill-109" fill="#747476" mask="url(#mask-2)"></path>
                    <path d="M150.855849,36.5305686 L150.850841,39.1889298 L8.64120273,38.9255518 C8.9995282,38.028311 9.37863705,37.1428595 9.77978129,36.2691973 L150.855849,36.5305686 Z" id="Fill-110" fill="#D8D7D6" mask="url(#mask-2)"></path>
                    <path d="M130.248529,57.5367391 L140.242078,57.555301 C142.4659,57.5593144 144.27205,55.756806 144.276307,53.5288796 L144.329142,24.8244482 C144.333399,22.5967726 142.533759,20.7874916 140.309937,20.7832274 L130.316388,20.7646656 C128.092566,20.7606522 126.286415,22.5631605 126.282409,24.791087 L126.229324,53.4957692 C126.225317,55.7234448 128.024707,57.5324749 130.248529,57.5367391" id="Fill-111" fill="#D8D7D6" mask="url(#mask-2)"></path>
                    <path d="M130.248529,57.5367391 L140.242078,57.555301 C142.4659,57.5593144 144.27205,55.756806 144.276307,53.5288796 L144.329142,24.8244482 C144.333399,22.5967726 142.533759,20.7874916 140.309937,20.7832274 L130.316388,20.7646656 C128.092566,20.7606522 126.286415,22.5631605 126.282409,24.791087 L126.229324,53.4957692 C126.225317,55.7234448 128.024707,57.5324749 130.248529,57.5367391 Z" id="Stroke-112" stroke="#007CF0" stroke-width="1.472" mask="url(#mask-2)"></path>
                    <polygon id="Fill-113" fill="#131313" mask="url(#mask-2)" points="142.502834 24.1286288 139.188762 24.1223579 142.4192 34.2995318 142.484054 34.2997826"></polygon>
                    <polygon id="Fill-114" fill="#131313" mask="url(#mask-2)" points="134.049182 24.1129515 137.279871 34.2901254 139.009148 34.2931355 135.77846 24.1162124"></polygon>
                    <polygon id="Fill-115" fill="#131313" mask="url(#mask-2)" points="128.110695 24.1019147 128.091915 34.2730686 135.386881 34.2866137 132.156192 24.1094398"></polygon>
                    <polygon id="Fill-116" fill="#747476" mask="url(#mask-2)" points="135.778535 24.1161371 139.009223 34.293311 142.4192 34.2995819 139.188762 24.122408"></polygon>
                    <polygon id="Fill-117" fill="#747476" mask="url(#mask-2)" points="132.156267 24.1093896 135.386705 34.2865635 137.279746 34.2900753 134.049308 24.1129013"></polygon>
                    <polygon id="Fill-118" fill="#3D484C" mask="url(#mask-2)" points="150.890204 53.1517475 155.608031 53.1605268 155.67589 16.3816806 150.958063 16.3729013"></polygon>
                </g>
                <g transform="translate(0.000000, 67.417977)">
                    <mask id="mask-16" fill="white">
                        <use xlink:href="#path-15"></use>
                    </mask>
                    <g id="Clip-120"></g>
                    <path d="M3.58250349,0.0965719064 C1.61233941,0.0965719064 0,1.71170569 0,3.68553512 C0,5.65936455 1.61233941,7.27424749 3.58250349,7.27424749 L463.368918,7.27424749 C465.339333,7.27424749 466.951172,5.65936455 466.951172,3.68553512 C466.951172,1.71170569 465.339333,0.0965719064 463.368918,0.0965719064 L3.58250349,0.0965719064 Z" id="Fill-119" mask="url(#mask-16)"></path>
                </g>
            </g>
        </g>
    </g>
</svg>