<?xml version="1.0" encoding="UTF-8"?>
<svg width="94px" height="46px" viewBox="0 0 94 46" version="1.1" xmlns="http://www.w3.org/2000/svg" xmlns:xlink="http://www.w3.org/1999/xlink">
    <!-- Generator: Sketch 52.6 (67491) - http://www.bohemiancoding.com/sketch -->
    <title>分组 7</title>
    <desc>Created with Sketch.</desc>
    <g id="图示" stroke="none" stroke-width="1" fill="none" fill-rule="evenodd">
        <g id="交通工具" transform="translate(-254.000000, -64.000000)">
            <g id="分组-7" transform="translate(254.000000, 64.000000)">
                <path d="M89.37762,29.72782 C91.38182,29.72782 93.02142,28.08802 93.02142,26.08402 L93.02142,12.20262 C93.02142,10.19862 91.38182,8.55882 89.37762,8.55882 C87.37342,8.55882 85.73382,10.19862 85.73382,12.20262 L85.73382,26.08402 C85.73382,28.08802 87.37342,29.72782 89.37762,29.72782" id="Fill-109" fill="#121210"></path>
                <path d="M40.91716,2.75624 L28.21356,15.91944 L33.88936,15.94244 L44.20636,2.75624 L40.91716,2.75624 Z M61.17896,2.75624 L61.17896,16.05464 L67.05456,16.07964 L67.05456,2.75624 L61.17896,2.75624 Z M83.15656,2.75624 L84.99296,16.15244 L86.29696,16.15764 L86.90956,16.16064 L87.52096,16.16284 L85.73376,2.75624 L83.15656,2.75624 Z" id="Fill-110" fill="#1E7844"></path>
                <polygon id="Fill-111" fill="#21934F" points="85.33874 0.3623 85.73374 2.7563 40.91714 2.7563 43.22794 0.3623"></polygon>
                <path d="M87.52098,17.76942 L87.52098,29.41042 L2.64618,29.41042 L2.64618,18.20422 C3.08918,18.04922 3.63818,17.90562 4.26958,17.76942 L87.52098,17.76942 Z" id="Fill-112" fill="#1E7844"></path>
                <polygon id="Fill-113" fill="#2E2A2B" points="87.52098 33.8705 87.52098 36.1551 2.64618 36.1551 0.87618 33.8705"></polygon>
                <polygon id="Fill-114" fill="#343635" points="87.52098 29.41034 87.52098 33.87054 0.87618 33.87054 0.03498 32.78374 0.03498 29.41034"></polygon>
                <polygon id="Fill-115" fill="#C9DFDD" points="69.51834 16.2458 76.21274 16.2458 80.06074 2.756 73.36654 2.756"></polygon>
                <polygon id="Fill-116" fill="#8FC0BD" points="80.06072 2.75604 76.21272 16.24584 85.00552 16.24584 83.15652 2.75604"></polygon>
                <polygon id="Fill-117" fill="#8FC0BD" points="67.05408 2.75604 67.05408 16.24584 69.51828 16.24584 73.36648 2.75604"></polygon>
                <polygon id="Fill-118" fill="#C9DFDD" points="47.00222 16.07432 53.67862 16.12992 57.49242 2.75612 50.80142 2.75612"></polygon>
                <polygon id="Fill-119" fill="#8FC0BD" points="57.49246 2.75604 53.67866 16.12984 61.17906 16.19184 61.17906 2.75604"></polygon>
                <polygon id="Fill-120" fill="#8FC0BD" points="33.87156 15.9667 47.00216 16.0743 50.80136 2.7561 44.20676 2.7561"></polygon>
                <path d="M86.90954,16.16074 L87.52094,16.16274 L87.52094,17.76934 L4.26954,17.76934 C11.20994,16.28454 28.21354,15.91934 28.21354,15.91934 L33.88934,15.94234 L33.65334,16.24594 L61.17894,16.24594 L61.17894,16.05474 L67.05454,16.07954 L67.05454,16.24594 L85.00534,16.24594 L84.99294,16.15234 L86.29694,16.15754 L86.90954,16.16074 Z" id="Fill-121" fill="#21934F"></path>
                <polygon id="Fill-122" fill="#1E7844" points="33.6529 16.2458 61.1791 16.2458 61.1791 16.1918 33.8715 15.9666"></polygon>
                <polygon id="Fill-123" fill="#0F602F" points="64.3206 29.382 64.9326 29.382 64.9326 2.7562 64.3206 2.7562"></polygon>
                <polygon id="Fill-124" fill="#21934F" points="63.7086 29.382 64.3206 29.382 64.3206 2.7562 63.7086 2.7562"></polygon>
                <polygon id="Fill-125" fill="#0F602F" points="34.2868 29.382 34.8988 29.382 34.8988 17.7988 34.2868 17.7988"></polygon>
                <polygon id="Fill-126" fill="#21934F" points="33.6748 29.382 34.2868 29.382 34.2868 17.7988 33.6748 17.7988"></polygon>
                <polygon id="Fill-127" fill="#0F602F" points="32.987 26.922 63.7084 26.922 63.7084 26.3828 32.987 26.3828"></polygon>
                <polygon id="Fill-128" fill="#21934F" points="32.987 26.3828 63.7084 26.3828 63.7084 25.8436 32.987 25.8436"></polygon>
                <polygon id="Fill-129" fill="#0F602F" points="64.933 26.9218 87.521 26.9218 87.521 26.3832 64.933 26.3832"></polygon>
                <polygon id="Fill-130" fill="#21934F" points="64.933 26.383 87.521 26.383 87.521 25.8432 64.933 25.8432"></polygon>
                <path d="M38.12878,35.54794 C38.10038,36.06014 38.04338,36.56374 37.95798,37.05754 L12.61858,37.05754 C12.53318,36.55874 12.47458,36.05174 12.44798,35.53454 C12.78938,28.73814 18.40758,23.33434 25.28738,23.33434 C32.17438,23.33434 37.79578,28.74494 38.12878,35.54794" id="Fill-131" fill="#1E7844"></path>
                <path d="M35.23338,35.74628 C35.23338,41.23868 30.78078,45.69128 25.28838,45.69128 C19.79578,45.69128 15.34338,41.23868 15.34338,35.74628 C15.34338,30.25388 19.79578,25.80128 25.28838,25.80128 C30.78078,25.80128 35.23338,30.25388 35.23338,35.74628" id="Fill-132" fill="#1F1C23"></path>
                <path d="M32.01736,35.74658 C32.01736,35.91838 32.01116,36.08938 31.99776,36.25818 C31.73336,32.78338 28.83076,30.04658 25.28816,30.04658 C21.74656,30.04658 18.84296,32.78338 18.57856,36.25818 C18.56516,36.08938 18.55896,35.91838 18.55896,35.74658 C18.55896,32.02998 21.57256,29.01738 25.28816,29.01738 C29.00476,29.01738 32.01736,32.02998 32.01736,35.74658" id="Fill-133" fill="#DBDBDB"></path>
                <path d="M31.99782,36.2581 L31.99782,36.2643 C31.73322,39.7379 28.83082,42.4747 25.28822,42.4747 C21.74642,42.4747 18.84302,39.7379 18.57842,36.2643 L18.57842,36.2581 C18.84302,32.7833 21.74642,30.0465 25.28822,30.0465 C28.83082,30.0465 31.73322,32.7833 31.99782,36.2581" id="Fill-134" fill="#F3F4F6"></path>
                <path d="M28.6528,35.74658 C28.6528,35.92158 28.6394,36.09338 28.6136,36.26118 C28.3666,34.64738 26.972,33.41118 25.2882,33.41118 C23.6054,33.41118 22.2108,34.64738 21.9626,36.26118 C21.9368,36.09338 21.9236,35.92158 21.9236,35.74658 C21.9236,33.88778 23.4304,32.38198 25.2882,32.38198 C27.147,32.38198 28.6528,33.88778 28.6528,35.74658" id="Fill-135" fill="#72727C"></path>
                <path d="M28.61364,36.26122 C28.36664,37.87502 26.97204,39.11122 25.28824,39.11122 C23.60524,39.11122 22.21064,37.87502 21.96264,36.26122 C22.21064,34.64742 23.60524,33.41122 25.28824,33.41122 C26.97204,33.41122 28.36664,34.64742 28.61364,36.26122" id="Fill-136" fill="#8E8E9A"></path>
                <path d="M84.79724,34.88056 C84.79724,35.11316 84.79044,35.34576 84.77884,35.57516 C84.44584,28.77216 78.82424,23.36136 71.93744,23.36136 C65.05744,23.36136 59.43924,28.76536 59.09784,35.56176 C59.08624,35.33576 59.07944,35.10976 59.07944,34.88056 C59.07944,34.73996 59.08104,34.60116 59.08784,34.46216 C59.30704,27.55356 64.97704,22.02256 71.93744,22.02256 C78.89964,22.02256 84.56964,27.55356 84.78884,34.46216 C84.79564,34.60116 84.79724,34.73996 84.79724,34.88056" id="Fill-137" fill="#21934F"></path>
                <path d="M84.77878,35.5751 C84.75038,36.0873 84.69338,36.5909 84.60798,37.0847 L59.26858,37.0847 C59.18318,36.5859 59.12458,36.0789 59.09798,35.5617 C59.43938,28.7653 65.05758,23.3615 71.93738,23.3615 C78.82418,23.3615 84.44578,28.7721 84.77878,35.5751" id="Fill-138" fill="#1E7844"></path>
                <path d="M81.88338,35.77344 C81.88338,41.26584 77.43078,45.71844 71.93838,45.71844 C66.44578,45.71844 61.99318,41.26584 61.99318,35.77344 C61.99318,30.28084 66.44578,25.82824 71.93838,25.82824 C77.43078,25.82824 81.88338,30.28084 81.88338,35.77344" id="Fill-139" fill="#1F1C23"></path>
                <path d="M78.66736,35.77372 C78.66736,35.94552 78.66116,36.11632 78.64776,36.28532 C78.38336,32.81052 75.48076,30.07372 71.93816,30.07372 C68.39656,30.07372 65.49296,32.81052 65.22856,36.28532 C65.21516,36.11632 65.20896,35.94552 65.20896,35.77372 C65.20896,32.05712 68.22256,29.04452 71.93816,29.04452 C75.65476,29.04452 78.66736,32.05712 78.66736,35.77372" id="Fill-140" fill="#DBDBDB"></path>
                <path d="M78.64782,36.28524 L78.64782,36.29144 C78.38322,39.76504 75.48082,42.50184 71.93822,42.50184 C68.39642,42.50184 65.49302,39.76504 65.22842,36.29144 L65.22842,36.28524 C65.49302,32.81044 68.39642,30.07364 71.93822,30.07364 C75.48082,30.07364 78.38322,32.81044 78.64782,36.28524" id="Fill-141" fill="#F3F4F6"></path>
                <path d="M75.3027,35.77372 C75.3027,35.94872 75.2893,36.12052 75.2637,36.28832 C75.0165,34.67432 73.6219,33.43832 71.9381,33.43832 C70.2553,33.43832 68.8607,34.67432 68.6127,36.28832 C68.5869,36.12052 68.5735,35.94872 68.5735,35.77372 C68.5735,33.91492 70.0803,32.40912 71.9381,32.40912 C73.7969,32.40912 75.3027,33.91492 75.3027,35.77372" id="Fill-142" fill="#72727C"></path>
                <path d="M75.26364,36.28828 C75.01664,37.90208 73.62204,39.13828 71.93824,39.13828 C70.25524,39.13828 68.86064,37.90208 68.61264,36.28828 C68.86064,34.67448 70.25524,33.43828 71.93824,33.43828 C73.62204,33.43828 75.01664,34.67448 75.26364,36.28828" id="Fill-143" fill="#8E8E9A"></path>
                <path d="M38.14686,34.85292 C38.14686,35.08632 38.14026,35.31852 38.12926,35.54852 C38.10926,35.13372 38.06826,34.72472 38.00966,34.32112 C38.00526,34.29452 38.00186,34.26692 37.99746,34.24032 C37.98646,34.16632 37.97426,34.09232 37.96106,34.01832 C37.92786,33.81372 37.88826,33.61252 37.84386,33.41132 C37.83606,33.37812 37.82966,33.34592 37.82186,33.31292 C37.80626,33.24312 37.78966,33.17452 37.77206,33.10492 C37.75986,33.05292 37.74666,33.00212 37.73226,32.95012 C37.71346,32.87292 37.69246,32.79652 37.67146,32.72012 C37.65366,32.65612 37.63486,32.59092 37.61506,32.52672 C37.60286,32.48372 37.58966,32.43952 37.57526,32.39632 C37.56526,32.36092 37.55426,32.32552 37.54206,32.29012 C37.52546,32.23492 37.50786,32.17952 37.48906,32.12552 C37.47686,32.08672 37.46346,32.04812 37.45026,32.01052 C37.43266,31.95852 37.41486,31.90652 37.39606,31.85452 C37.36626,31.77172 37.33646,31.68992 37.30446,31.60792 C37.27446,31.52952 37.24466,31.45112 37.21146,31.37372 C37.13746,31.18672 37.05786,31.00212 36.97266,30.81872 C36.94826,30.76452 36.92286,30.71032 36.89646,30.65712 C36.87546,30.61192 36.85446,30.56652 36.83106,30.52232 C36.82226,30.50252 36.81246,30.48252 36.80126,30.46252 C36.76706,30.39192 36.73166,30.32232 36.69526,30.25372 C36.68626,30.23592 36.67746,30.21712 36.66646,30.19952 C36.63546,30.13752 36.60226,30.07672 36.56806,30.01592 C36.55046,29.98172 36.53146,29.94732 36.51166,29.91312 C36.32486,29.57912 36.12246,29.25412 35.90686,28.93912 C35.85046,28.85612 35.79286,28.77432 35.73446,28.69372 C35.68366,28.62072 35.63046,28.54992 35.57626,28.47912 C35.55526,28.45032 35.53426,28.42172 35.51226,28.39292 C35.47906,28.34872 35.44586,28.30552 35.41046,28.26252 C35.38506,28.22812 35.35746,28.19392 35.32986,28.16072 C35.28886,28.10772 35.24686,28.05572 35.20366,28.00492 C35.19366,27.99272 35.18386,27.98052 35.17266,27.96832 C35.11866,27.90212 35.06226,27.83572 35.00486,27.77052 C34.99806,27.76152 34.99146,27.75392 34.98366,27.74612 C34.93726,27.69192 34.88866,27.63772 34.84006,27.58472 C34.51166,27.21992 34.16346,26.87372 33.79526,26.54992 C33.74426,26.50452 33.69246,26.45932 33.64046,26.41612 C33.61506,26.39412 33.58946,26.37192 33.56406,26.35092 C33.51426,26.30892 33.46466,26.26792 33.41486,26.22712 C33.39706,26.21152 33.37946,26.19732 33.36066,26.18292 C33.31646,26.14632 33.27106,26.11112 33.22586,26.07452 C33.19046,26.04792 33.15506,26.01932 33.11846,25.99272 C33.07106,25.95512 33.02226,25.91872 32.97266,25.88212 C32.90186,25.82792 32.83006,25.77592 32.75706,25.72392 C32.62446,25.62892 32.48946,25.53612 32.35246,25.44652 C32.26506,25.38912 32.17766,25.33252 32.08826,25.27732 C32.02626,25.23872 31.96326,25.19992 31.90026,25.16132 C31.87806,25.14812 31.85586,25.13592 31.83386,25.12152 C31.77426,25.08612 31.71346,25.05192 31.65246,25.01632 C31.64046,25.00992 31.62826,25.00212 31.61486,24.99532 C31.55086,24.95892 31.48666,24.92352 31.42146,24.88812 C31.39606,24.87372 31.37066,24.86052 31.34526,24.84732 C31.28426,24.81412 31.22246,24.78212 31.16046,24.75112 C31.15166,24.74552 31.14286,24.74112 31.13406,24.73792 C31.07106,24.70352 31.00686,24.67252 30.94266,24.64052 C30.91186,24.62512 30.87986,24.60952 30.84766,24.59512 C30.78806,24.56532 30.72826,24.53772 30.66746,24.51012 C30.34026,24.35852 30.00406,24.22032 29.66126,24.09652 C29.59626,24.07332 29.53086,24.05012 29.46566,24.02792 C29.43146,24.01592 29.39706,24.00372 29.36286,23.99272 C29.30306,23.97272 29.24446,23.95392 29.18486,23.93512 C29.15946,23.92632 29.13286,23.91852 29.10746,23.91092 C29.05106,23.89312 28.99346,23.87552 28.93726,23.85892 C28.89066,23.84552 28.84546,23.83232 28.79906,23.81912 C28.75046,23.80472 28.70166,23.79132 28.65306,23.77812 C28.62426,23.77032 28.59446,23.76272 28.56466,23.75492 C28.49506,23.73612 28.42426,23.71852 28.35346,23.70192 C28.26386,23.67972 28.17426,23.65872 28.08466,23.63892 C27.81166,23.57792 27.53646,23.52612 27.25666,23.48412 C27.19146,23.47312 27.12626,23.46412 27.06106,23.45532 C27.01786,23.44872 26.97586,23.44312 26.93266,23.43872 C26.88966,23.43212 26.84646,23.42772 26.80346,23.42332 C26.75146,23.41552 26.69946,23.41012 26.64746,23.40552 C26.59226,23.39892 26.53586,23.39352 26.47946,23.38912 C26.41646,23.38232 26.35346,23.37692 26.29046,23.37252 C26.27046,23.37012 26.25166,23.36912 26.23186,23.36792 C26.15006,23.36132 26.06806,23.35692 25.98526,23.35252 C25.95986,23.35152 25.93326,23.34912 25.90666,23.34812 C25.80826,23.34372 25.70886,23.34032 25.60926,23.33812 C25.50206,23.33492 25.39486,23.33372 25.28766,23.33372 C25.18026,23.33372 25.07306,23.33492 24.96586,23.33812 C24.86646,23.34032 24.76586,23.34372 24.66746,23.34812 C24.64306,23.34912 24.61866,23.35032 24.59546,23.35252 C24.51046,23.35692 24.42626,23.36132 24.34246,23.36792 C24.32586,23.36912 24.31026,23.37012 24.29486,23.37252 C24.22406,23.37692 24.15446,23.38232 24.08466,23.39012 C24.03726,23.39352 23.99066,23.39792 23.94326,23.40332 C23.88246,23.41012 23.82166,23.41672 23.76186,23.42432 C23.72326,23.42772 23.68566,23.43212 23.64806,23.43772 C23.59826,23.44312 23.54846,23.44972 23.49986,23.45872 C23.44566,23.46412 23.39266,23.47192 23.33846,23.48072 C22.96026,23.53832 22.58886,23.61232 22.22286,23.70192 C22.17646,23.71292 22.13006,23.72392 22.08466,23.73612 C22.01386,23.75372 21.94426,23.77272 21.87346,23.79252 C21.87126,23.79252 21.87026,23.79252 21.86906,23.79372 C21.77846,23.81792 21.68786,23.84452 21.59826,23.87212 C21.58046,23.87652 21.56386,23.88092 21.54726,23.88752 C21.46106,23.91192 21.37606,23.93972 21.29086,23.96832 C21.28766,23.96832 21.28426,23.96952 21.28206,23.97052 C21.19366,23.99932 21.10626,24.02912 21.01886,24.06012 C21.00466,24.06452 20.99006,24.06892 20.97686,24.07452 C20.90946,24.09872 20.84206,24.12312 20.77566,24.14852 C20.38986,24.29232 20.01386,24.45472 19.64906,24.63272 C19.57946,24.66712 19.50966,24.70132 19.44126,24.73672 C19.43126,24.74232 19.42246,24.74672 19.41246,24.75232 C19.35826,24.77872 19.30406,24.80752 19.25106,24.83732 C19.20026,24.86392 19.14826,24.89152 19.09846,24.91912 C19.07406,24.93232 19.04986,24.94572 19.02666,24.95892 C18.98126,24.98432 18.93586,25.00992 18.89166,25.03532 C18.83766,25.06612 18.78446,25.09712 18.73146,25.12812 C18.71806,25.13692 18.70606,25.14352 18.69386,25.15132 C18.62426,25.19212 18.55566,25.23432 18.48826,25.27732 C18.42186,25.31832 18.35666,25.36032 18.29146,25.40232 C18.23846,25.43652 18.18526,25.47072 18.13326,25.50732 C17.95306,25.62792 17.77606,25.75272 17.60366,25.88212 C17.55606,25.91632 17.50966,25.95172 17.46446,25.98832 C17.42466,26.01692 17.38586,26.04792 17.34726,26.07792 C17.27986,26.13092 17.21346,26.18512 17.14706,26.23932 C17.10846,26.27012 17.06966,26.30232 17.03206,26.33432 C16.99226,26.36752 16.95246,26.40172 16.91266,26.43612 C16.87846,26.46472 16.84406,26.49452 16.80986,26.52552 C16.77886,26.55212 16.74686,26.57972 16.71586,26.60852 C16.67266,26.64612 16.62966,26.68592 16.58646,26.72572 C16.32126,26.96992 16.06586,27.22552 15.82146,27.49072 C15.78486,27.52952 15.74966,27.56932 15.71526,27.60912 C15.67766,27.64872 15.64246,27.68872 15.60806,27.72852 C15.59046,27.74952 15.57166,27.77052 15.55506,27.79032 C15.50626,27.84572 15.45986,27.90092 15.41466,27.95632 C15.39806,27.97492 15.38266,27.99272 15.36806,28.01152 C15.33046,28.05572 15.29526,28.09992 15.25986,28.14412 C15.21886,28.19492 15.17806,28.24592 15.13826,28.29792 C15.09406,28.35432 15.05086,28.41072 15.00886,28.46812 C14.97026,28.51792 14.93266,28.56752 14.89706,28.61852 C14.86846,28.65612 14.84186,28.69372 14.81546,28.73132 C14.70926,28.87932 14.60646,29.02972 14.50806,29.18232 C14.45266,29.26632 14.39966,29.35032 14.34666,29.43552 C14.29346,29.52072 14.24266,29.60692 14.19186,29.69312 C14.14646,29.76952 14.10226,29.84672 14.05926,29.92412 C14.02166,29.99152 13.98406,30.05912 13.94866,30.12772 C13.90986,30.19832 13.87346,30.26912 13.83686,30.34092 C13.79706,30.41612 13.75946,30.49252 13.72306,30.56992 C13.68766,30.64052 13.65346,30.71252 13.62026,30.78432 C13.59486,30.83852 13.57046,30.89272 13.54626,30.94692 C13.47646,31.10172 13.41006,31.25872 13.34706,31.41792 C13.29186,31.55372 13.23986,31.69212 13.19006,31.83032 C13.16466,31.90212 13.13926,31.97292 13.11506,32.04472 C13.10846,32.06472 13.10166,32.08452 13.09506,32.10432 C13.06746,32.18512 13.04206,32.26692 13.01666,32.34772 C12.98886,32.43492 12.96246,32.52232 12.93706,32.61092 C12.91146,32.69812 12.88726,32.78652 12.86406,32.87492 C12.84086,32.96132 12.81866,33.04872 12.79666,33.13592 C12.79426,33.14692 12.79206,33.15812 12.78886,33.16912 C12.77006,33.24772 12.75226,33.32832 12.73466,33.40792 C12.73366,33.40912 12.73366,33.41012 12.73366,33.41132 C12.70926,33.51952 12.68706,33.62912 12.66606,33.73852 C12.65286,33.80372 12.64066,33.86892 12.62966,33.93412 C12.62526,33.95632 12.62086,33.97952 12.61746,34.00172 C12.60306,34.08572 12.58866,34.16972 12.57646,34.25372 C12.57326,34.27572 12.56986,34.29892 12.56666,34.32112 C12.56226,34.34872 12.55886,34.37652 12.55546,34.40412 C12.54446,34.47592 12.53566,34.54792 12.52666,34.62072 C12.49026,34.92152 12.46366,35.22672 12.44826,35.53392 C12.43606,35.30852 12.42946,35.08292 12.42946,34.85292 C12.42946,34.71252 12.43166,34.57432 12.43846,34.43512 C12.43946,34.39752 12.44046,34.35872 12.44386,34.32112 C12.45506,34.01492 12.47806,33.71092 12.51246,33.41132 C12.68606,31.84452 13.14266,30.36312 13.82806,29.01752 C13.96746,28.74352 14.11766,28.47472 14.27586,28.21272 C16.52686,24.48692 20.61646,21.99592 25.28766,21.99592 C31.90246,21.99592 37.34966,26.98772 38.06506,33.41132 C38.09926,33.71092 38.12246,34.01492 38.13366,34.32112 C38.13686,34.35872 38.13806,34.39752 38.13906,34.43512 C38.14566,34.57432 38.14686,34.71252 38.14686,34.85292" id="Fill-144" fill="#21934F"></path>
                <path d="M66.77518,20.44706 C66.77518,20.58166 66.79578,20.71106 66.83378,20.83386 C66.94678,20.22986 67.48018,19.76806 68.11578,19.76806 L70.99478,19.76806 C71.35338,19.76806 71.67938,19.91466 71.91618,20.15146 C72.06278,20.29826 72.17578,20.48066 72.23978,20.68386 C72.25398,20.60666 72.26158,20.52746 72.26158,20.44706 C72.26158,20.08846 72.11498,19.76266 71.87918,19.52586 C71.64238,19.28986 71.31638,19.14326 70.95798,19.14326 L68.07898,19.14326 C67.36178,19.14326 66.77518,19.73006 66.77518,20.44706" id="Fill-145" fill="#353F44"></path>
                <path d="M66.83376,20.83378 L66.83376,20.83478 C66.89796,21.03798 67.01096,21.22058 67.15756,21.36838 C67.39436,21.60418 67.72036,21.75078 68.07896,21.75078 L70.95796,21.75078 C71.59336,21.75078 72.12676,21.28898 72.23976,20.68498 L72.23976,20.68378 C72.17576,20.48078 72.06276,20.29818 71.91616,20.15158 C71.67936,19.91458 71.35336,19.76798 70.99476,19.76798 L68.11576,19.76798 C67.48016,19.76798 66.94676,20.22978 66.83376,20.83378" id="Fill-146" fill="#3D484C"></path>
                <path d="M57.42888,20.44706 C57.42888,20.58166 57.44948,20.71106 57.48748,20.83386 C57.60048,20.22986 58.13388,19.76806 58.76948,19.76806 L61.64848,19.76806 C62.00708,19.76806 62.33308,19.91466 62.56988,20.15146 C62.71648,20.29826 62.82948,20.48066 62.89348,20.68386 C62.90768,20.60666 62.91528,20.52746 62.91528,20.44706 C62.91528,20.08846 62.76868,19.76266 62.53288,19.52586 C62.29608,19.28986 61.97008,19.14326 61.61168,19.14326 L58.73268,19.14326 C58.01548,19.14326 57.42888,19.73006 57.42888,20.44706" id="Fill-147" fill="#353F44"></path>
                <path d="M57.48748,20.83378 L57.48748,20.83478 C57.55168,21.03798 57.66468,21.22058 57.81128,21.36838 C58.04808,21.60418 58.37408,21.75078 58.73268,21.75078 L61.61168,21.75078 C62.24708,21.75078 62.78048,21.28898 62.89348,20.68498 L62.89348,20.68378 C62.82948,20.48078 62.71648,20.29818 62.56988,20.15158 C62.33308,19.91458 62.00708,19.76798 61.64848,19.76798 L58.76948,19.76798 C58.13388,19.76798 57.60048,20.22978 57.48748,20.83378" id="Fill-148" fill="#3D484C"></path>
                <path d="M32.57,10.0207 L32.57,14.4131 C32.57,15.3571 33.3428,16.1299 34.2868,16.1299 L34.2868,8.3039 C33.8144,8.3039 33.3858,8.4967 33.0742,8.8083 C32.7628,9.1189 32.57,9.5483 32.57,10.0207" id="Fill-149" fill="#4F5150"></path>
                <path d="M9.15036,23.81836 L11.82396,23.81836 C12.40496,23.81836 12.88036,23.34296 12.88036,22.76196 C12.88036,22.18076 12.40496,21.70556 11.82396,21.70556 L9.15036,21.70556 C8.56936,21.70556 8.09396,22.18076 8.09396,22.76196 C8.09396,23.34296 8.56936,23.81836 9.15036,23.81836" id="Fill-150" fill="#E76D25"></path>
                <path d="M9.65212,23.69922 L11.32212,23.69922 C11.77872,23.69922 12.15212,23.32582 12.15212,22.86922 L12.15212,22.65462 C12.15212,22.19822 11.77872,21.82462 11.32212,21.82462 L9.65212,21.82462 C9.19572,21.82462 8.82212,22.19822 8.82212,22.65462 L8.82212,22.86922 C8.82212,23.32582 9.19572,23.69922 9.65212,23.69922" id="Fill-151" fill="#EFA53C"></path>
            </g>
        </g>
    </g>
</svg>