<?xml version="1.0" encoding="UTF-8"?>
<svg width="109px" height="36px" viewBox="0 0 109 36" version="1.1" xmlns="http://www.w3.org/2000/svg" xmlns:xlink="http://www.w3.org/1999/xlink">
    <!-- Generator: Sketch 52.6 (67491) - http://www.bohemiancoding.com/sketch -->
    <title>分组 13</title>
    <desc>Created with Sketch.</desc>
    <g id="图示" stroke="none" stroke-width="1" fill="none" fill-rule="evenodd">
        <g id="交通工具" transform="translate(-542.000000, -230.000000)">
            <g id="分组-13" transform="translate(542.000000, 230.000000)">
                <path d="M61.54874,24.40604 L62.77614,24.40604 C63.08574,24.40604 63.33874,23.98124 63.33874,23.46204 L63.33874,6.05764 C63.33874,5.53844 63.08574,5.11364 62.77614,5.11364 L61.54874,5.11364 C61.85834,5.11364 62.11134,5.53844 62.11134,6.05764 L62.11134,23.46204 C62.11134,23.98124 61.85834,24.40604 61.54874,24.40604" id="Fill-152" fill="#B1917A"></path>
                <path d="M58.90772,6.05762 L58.90772,23.46202 C58.90772,23.98122 59.16112,24.40602 59.47032,24.40602 L61.54872,24.40602 C61.85832,24.40602 62.11152,23.98122 62.11152,23.46202 L62.11152,6.05762 C62.11152,5.53842 61.85832,5.11362 61.54872,5.11362 L59.47032,5.11362 C59.16112,5.11362 58.90772,5.53842 58.90772,6.05762" id="Fill-153" fill="#D9BA7A"></path>
                <path d="M0.59326,21.5584 L47.51506,21.5584 L42.37966,16.1408 L47.15866,10.905 L12.59766,10.905 C10.46906,11.4182 8.40986,12.4048 6.39766,13.0632 C6.97486,14.1288 7.76546,14.9266 7.62746,15.5048 C7.45626,16.2258 6.56406,16.8194 5.89286,17.3562 C5.61786,17.5758 5.10806,17.4978 4.70566,17.564 C3.70026,17.7292 2.41166,17.08 1.58686,17.7716 C1.34146,17.977 1.13726,18.3014 0.99326,18.8018 C0.72666,19.7282 0.56146,20.665 0.59326,21.5584 Z M43.38866,16.1408 L48.52386,21.5584 L86.37486,21.5584 C86.45866,21.556 86.54246,21.556 86.62746,21.5584 L86.98626,21.241 L89.48666,19.0342 L91.19766,17.5238 L91.98606,16.8288 L95.61346,13.6262 L104.59346,13.6262 C104.97586,12.9676 105.24726,12.203 105.76066,11.6696 C106.18666,11.226 106.41326,10.7564 106.43306,10.3126 C106.46866,9.5172 105.84186,8.8044 104.50726,8.4658 C101.43686,7.6858 98.28966,7.1194 95.14126,6.7596 C92.41086,6.4492 89.66726,6.2664 86.92246,6.081 L80.21506,10.905 L48.16766,10.905 L43.38866,16.1408 Z" id="Fill-154" fill="#DA7F9E"></path>
                <path d="M12.59776,10.90498 L80.21516,10.90498 L86.92236,6.08098 C85.42716,5.97958 83.93236,5.87678 82.43956,5.75058 C81.08016,5.63738 80.30356,6.12578 79.41636,7.23398 C78.70456,8.12478 77.18376,8.76678 75.99516,8.81158 C69.54996,9.05238 63.09756,9.09138 56.64616,9.16338 C53.06476,9.20338 49.48216,9.17038 45.45136,9.17038 C46.18056,8.61218 46.65356,8.14838 47.21296,7.83578 C49.99196,6.28278 52.82296,4.81958 55.56776,3.20758 C56.28996,2.78278 56.76776,1.94258 57.35776,1.29358 C57.10896,0.94658 56.86096,0.59978 56.61196,0.25278 C55.37756,0.86058 54.11496,1.41978 52.91256,2.08658 C48.84156,4.34278 44.96496,7.08418 40.66956,8.75498 C39.53556,9.19638 38.29896,9.37578 37.02096,9.44758 C35.19676,9.55138 33.28856,9.43458 31.47256,9.54318 C25.69616,9.88658 19.89516,9.98458 14.15416,10.62418 C13.63156,10.68198 13.11216,10.77998 12.59776,10.90498" id="Fill-155" fill="#F77FAD"></path>
                <path d="M11.80948,24.9203 C12.25328,23.4665 13.39308,22.2995 14.85988,21.8109 L14.86108,21.8109 C15.29888,21.6645 15.76608,21.5795 16.25348,21.5655 C16.87668,21.5477 17.47148,21.6445 18.01888,21.8369 C18.02968,21.8405 18.04008,21.8439 18.04948,21.8463 C19.45148,22.3491 20.53928,23.4783 20.97488,24.9131 C21.10348,25.3333 21.17548,25.7805 21.18248,26.2455 C21.19328,26.9005 21.04908,27.5365 20.78608,28.1181 C20.05548,29.7325 18.40128,30.9339 16.52968,30.9999 C14.57088,31.0683 12.76888,29.8411 11.99948,28.1181 C11.77768,27.6213 11.64188,27.0833 11.61248,26.5239 C11.58288,25.9659 11.65388,25.4255 11.80948,24.9203 Z M0.59328,21.5583 C0.63808,22.8245 1.07828,24.0011 2.18628,24.9239 C3.27548,25.8301 4.61468,26.5193 5.98248,27.0421 C6.35648,27.1847 6.73308,27.3157 7.10588,27.4349 C7.58628,27.5873 8.00268,27.7465 8.37208,27.9495 C8.46888,28.0025 8.56208,28.0581 8.65308,28.1181 C9.16988,28.4629 9.58768,28.9289 9.95928,29.6487 C12.56128,34.6981 19.87988,34.9625 22.58688,30.0097 C23.11188,29.0505 23.71368,28.4793 24.39468,28.1441 C24.41248,28.1347 24.43008,28.1265 24.44768,28.1181 C25.13208,27.7937 25.89688,27.6993 26.74408,27.6793 C26.87628,27.6757 27.01088,27.6745 27.14748,27.6745 C34.33988,27.6639 41.53348,27.6603 48.72708,27.6615 C57.63628,27.6627 66.54568,27.6733 75.45588,27.6757 C75.88068,27.6757 76.28568,27.6899 76.67148,27.7299 C76.77528,27.7395 76.87688,27.7523 76.97708,27.7677 L78.95828,27.7677 C78.99728,28.0603 79.05048,28.3471 79.12008,28.6281 C79.59208,28.9961 80.02748,29.5001 80.42988,30.1891 C83.29268,35.0817 90.61828,34.5895 93.02188,29.4481 C93.37368,28.6953 93.78068,28.1607 94.28828,27.7677 C94.50888,27.5967 94.74848,27.4515 95.01048,27.3289 C95.29828,27.1931 95.61448,27.0821 95.96268,26.9877 C96.44308,26.8579 96.91728,26.7139 97.38228,26.5571 C101.13848,25.3003 104.40468,23.2021 107.09868,20.2213 C107.13988,20.1753 107.18128,20.1293 107.22148,20.0821 C107.76408,19.4425 108.20208,18.6673 108.52188,17.8801 C108.57368,17.7539 108.62208,17.6277 108.66688,17.5013 C108.89228,16.8689 108.95728,16.3213 108.80968,15.8847 C108.61508,15.3031 108.04388,14.9219 106.97348,14.8073 C106.14748,14.7189 105.38528,14.0379 104.59348,13.6261 L95.61348,13.6261 L91.98608,16.8287 L91.19768,17.5239 L89.48668,19.0343 L86.98628,21.2409 L86.62748,21.5583 C87.88288,21.5913 89.00408,22.0881 89.83008,22.8895 C90.71048,23.7425 91.25668,24.9379 91.27428,26.2797 C91.28148,26.7943 91.19308,27.2957 91.02428,27.7677 C90.35988,29.6487 88.44928,31.0635 86.35128,30.9975 C84.33928,30.9339 82.59048,29.5661 81.96048,27.7677 C81.79168,27.2851 81.70308,26.7729 81.71148,26.2455 C81.71268,26.1593 81.71608,26.0731 81.72188,25.9881 C81.88728,23.5279 83.89208,21.6197 86.37488,21.5583 L48.52388,21.5583 L50.46868,23.6105 L58.26748,23.6105 L64.10748,26.2833 L26.83248,26.2833 C26.83248,26.1841 26.83028,26.0875 26.82548,25.9895 C26.82548,25.9587 26.82428,25.9281 26.82208,25.8973 C26.81248,25.6485 26.79368,25.4017 26.76528,25.1587 C26.70628,24.6299 26.60828,24.1119 26.47248,23.6105 L49.45988,23.6105 L47.51508,21.5583 L0.59328,21.5583 Z" id="Fill-156" fill="#F77FAD"></path>
                <path d="M26.81748,26.89288 C26.79448,27.30868 26.74828,27.71748 26.67908,28.11808 L6.11068,28.11808 C6.04128,27.71348 5.99388,27.30168 5.97208,26.88208 C6.24908,21.36528 10.80948,16.97888 16.39428,16.97888 C21.98428,16.97888 26.54708,21.37088 26.81748,26.89288" id="Fill-157" fill="#DA7F9E"></path>
                <path d="M24.46728,27.05382 C24.46728,31.51222 20.85328,35.12642 16.39488,35.12642 C11.93648,35.12642 8.32228,31.51222 8.32228,27.05382 C8.32228,22.59542 11.93648,18.98142 16.39488,18.98142 C20.85328,18.98142 24.46728,22.59542 24.46728,27.05382" id="Fill-158" fill="#1F1C23"></path>
                <path d="M21.85694,27.05412 C21.85694,27.19372 21.85194,27.33232 21.84094,27.46932 C21.62634,24.64892 19.27014,22.42732 16.39454,22.42732 C13.51974,22.42732 11.16294,24.64892 10.94834,27.46932 C10.93734,27.33232 10.93254,27.19372 10.93254,27.05412 C10.93254,24.03732 13.37854,21.59192 16.39454,21.59192 C19.41134,21.59192 21.85694,24.03732 21.85694,27.05412" id="Fill-159" fill="#DBDBDB"></path>
                <path d="M21.84092,27.46936 L21.84092,27.47436 C21.62632,30.29396 19.27012,32.51536 16.39472,32.51536 C13.51992,32.51536 11.16292,30.29396 10.94832,27.47436 L10.94832,27.46936 C11.16292,24.64876 13.51992,22.42736 16.39472,22.42736 C19.27012,22.42736 21.62632,24.64876 21.84092,27.46936" id="Fill-160" fill="#F3F4F6"></path>
                <path d="M19.12568,27.05412 C19.12568,27.19612 19.11488,27.33572 19.09408,27.47172 C18.89348,26.16192 17.76148,25.15832 16.39468,25.15832 C15.02868,25.15832 13.89648,26.16192 13.69528,27.47172 C13.67448,27.33572 13.66348,27.19612 13.66348,27.05412 C13.66348,25.54532 14.88668,24.32292 16.39468,24.32292 C17.90348,24.32292 19.12568,25.54532 19.12568,27.05412" id="Fill-161" fill="#72727C"></path>
                <path d="M19.09404,27.4718 C18.89344,28.7818 17.76144,29.7852 16.39464,29.7852 C15.02864,29.7852 13.89664,28.7818 13.69524,27.4718 C13.89664,26.1618 15.02864,25.1584 16.39464,25.1584 C17.76144,25.1584 18.89344,26.1618 19.09404,27.4718" id="Fill-162" fill="#8E8E9A"></path>
                <path d="M5.95772,26.32922 C5.95772,26.51582 5.96232,26.69862 5.97172,26.88162 C5.97552,26.81422 5.97892,26.74702 5.98492,26.67982 C5.98712,26.64202 5.98952,26.60542 5.99312,26.56762 C5.99652,26.52162 6.00032,26.47442 6.00492,26.42842 C6.00732,26.40842 6.00852,26.38722 6.01092,26.36702 C6.01912,26.29042 6.02612,26.21602 6.03572,26.14042 C6.04392,26.08142 6.05092,26.02242 6.05932,25.96462 C6.06172,25.94222 6.06512,25.91982 6.06872,25.89742 C6.07092,25.87962 6.07332,25.86082 6.07692,25.84182 C6.08272,25.79702 6.09112,25.75102 6.09812,25.70502 C6.11352,25.61062 6.12992,25.51742 6.14892,25.42422 C6.15832,25.38062 6.16652,25.33562 6.17612,25.29082 C6.18432,25.24602 6.19372,25.20242 6.20432,25.15862 L6.20432,25.15622 C6.21252,25.12322 6.21972,25.09142 6.22692,25.05842 C6.23392,25.02642 6.24092,24.99342 6.24912,24.96162 C6.25152,24.95322 6.25272,24.94402 6.25492,24.93442 C6.27272,24.86362 6.29052,24.79282 6.30932,24.72322 C6.31072,24.71842 6.31172,24.71502 6.31292,24.71022 C6.33052,24.64302 6.34952,24.57442 6.36972,24.50842 C6.38612,24.45302 6.40152,24.39642 6.41912,24.34202 C6.42032,24.33622 6.42272,24.33142 6.42372,24.32562 C6.42732,24.31502 6.42972,24.30542 6.43332,24.29482 C6.44392,24.26182 6.45432,24.22882 6.46512,24.19582 C6.47452,24.16502 6.48532,24.13322 6.49572,24.10262 C6.49572,24.10142 6.49692,24.09902 6.49692,24.09782 C6.50292,24.08122 6.50752,24.06582 6.51352,24.04942 C6.52412,24.01982 6.53352,23.99042 6.54432,23.96202 C6.55352,23.93382 6.56412,23.90422 6.57492,23.87482 C6.61492,23.76282 6.65732,23.65082 6.70212,23.54122 C6.72812,23.47662 6.75392,23.41202 6.78132,23.34862 C6.80732,23.28482 6.83572,23.22102 6.86392,23.15842 C6.88292,23.11362 6.90292,23.07002 6.92412,23.02642 C6.93352,23.00502 6.94312,22.98382 6.95352,22.96262 C6.97132,22.92482 6.98912,22.88822 7.00672,22.85162 C7.03632,22.78922 7.06692,22.72782 7.09992,22.66642 C7.12832,22.60862 7.15772,22.55422 7.18712,22.49762 C7.18852,22.49642 7.18852,22.49422 7.18972,22.49302 C7.19212,22.48942 7.19332,22.48582 7.19552,22.48242 C7.20852,22.45642 7.22272,22.43042 7.23792,22.40442 C7.25232,22.37962 7.26632,22.35362 7.28052,22.32782 C7.29832,22.29582 7.31472,22.26522 7.33372,22.23462 C7.36092,22.18622 7.38792,22.13902 7.41632,22.09062 C7.44812,22.03742 7.47992,21.98442 7.51292,21.93122 C7.55672,21.86282 7.59912,21.79442 7.64412,21.72602 C7.68052,21.66942 7.71832,21.61382 7.75612,21.55842 C7.80092,21.49102 7.84692,21.42622 7.89432,21.36022 C7.91532,21.32942 7.93672,21.29882 7.96032,21.26802 C7.97912,21.24082 7.99792,21.21502 8.01812,21.18902 C8.02852,21.17482 8.03932,21.16082 8.05112,21.14642 C8.06772,21.12302 8.08532,21.09922 8.10312,21.07702 C8.12792,21.04502 8.15272,21.01202 8.17752,20.98022 C8.20212,20.94702 8.22812,20.91522 8.25392,20.88342 C8.28352,20.84682 8.31192,20.81142 8.34252,20.77602 C8.35432,20.76062 8.36612,20.74522 8.38032,20.73002 C8.38632,20.72302 8.39092,20.71702 8.39792,20.71002 C8.40992,20.69582 8.42152,20.68042 8.43472,20.66622 C8.45352,20.64262 8.47352,20.61902 8.49372,20.59542 C8.49712,20.59182 8.50072,20.58722 8.50412,20.58362 C8.50772,20.58022 8.51132,20.57542 8.51612,20.57062 L8.53712,20.54582 C8.56552,20.51282 8.59272,20.48222 8.62332,20.45022 L8.62452,20.44902 C8.64352,20.42682 8.66352,20.40422 8.68492,20.38182 C8.69312,20.37122 8.70132,20.36182 8.71072,20.35242 C8.73912,20.32162 8.76732,20.29222 8.79572,20.26142 C8.80052,20.25802 8.80392,20.25322 8.80752,20.24962 C8.83812,20.21782 8.86772,20.18602 8.89832,20.15402 C8.93852,20.11282 8.97852,20.07142 9.01992,20.03142 C9.07652,19.97362 9.13432,19.91682 9.19332,19.86142 C9.23932,19.81782 9.28552,19.77402 9.33152,19.73162 C9.34912,19.71622 9.36692,19.69982 9.38452,19.68322 C9.40112,19.66682 9.41872,19.65142 9.43652,19.63622 C9.46132,19.61362 9.48712,19.59122 9.51312,19.56882 C9.54032,19.54402 9.56872,19.52042 9.59572,19.49682 C9.62872,19.46862 9.66072,19.44142 9.69372,19.41422 C9.72312,19.38822 9.75492,19.36222 9.78692,19.33642 C9.83292,19.29862 9.87892,19.26082 9.92632,19.22422 C9.93332,19.21722 9.94152,19.21142 9.94852,19.20542 C9.97812,19.18422 10.00632,19.16162 10.03592,19.13922 C10.03812,19.13682 10.04192,19.13582 10.04432,19.13342 C10.08072,19.10382 10.11852,19.07442 10.15752,19.04722 C10.22472,18.99642 10.29332,18.94702 10.36272,18.89862 C10.43612,18.84542 10.51152,18.79362 10.58692,18.74282 C10.62952,18.71322 10.67192,18.68502 10.71572,18.65782 C10.76872,18.62362 10.82052,18.58942 10.87492,18.55642 C10.89032,18.54562 10.90552,18.53642 10.92212,18.52682 C10.94232,18.51502 10.96112,18.50202 10.98232,18.49022 C11.00252,18.47742 11.02232,18.46562 11.04252,18.45362 C11.05192,18.44782 11.06152,18.44182 11.07192,18.43482 C11.11572,18.41002 11.15812,18.38522 11.20312,18.35922 C11.23832,18.33922 11.27492,18.31802 11.31172,18.29802 C11.33032,18.28722 11.35052,18.27662 11.37052,18.26482 C11.41072,18.24242 11.45332,18.22002 11.49452,18.19882 C11.53692,18.17522 11.58172,18.15162 11.62552,18.13042 C11.63372,18.12562 11.64072,18.12202 11.64892,18.11742 C11.66912,18.10682 11.69032,18.09622 11.71272,18.08562 C11.73412,18.07482 11.75512,18.06422 11.77652,18.05362 C11.79072,18.04662 11.80352,18.03942 11.81772,18.03242 C11.87792,18.00302 11.93812,17.97462 11.99832,17.94742 C12.06192,17.91682 12.12572,17.88842 12.19072,17.86022 C12.21072,17.85062 12.23192,17.84242 12.25332,17.83302 C12.31212,17.80702 12.37112,17.78222 12.43132,17.75742 C12.46932,17.74222 12.50812,17.72682 12.54692,17.71142 C12.54952,17.71022 12.55312,17.70902 12.55532,17.70782 C12.60852,17.68662 12.66272,17.66542 12.71692,17.64542 C12.71952,17.64422 12.72032,17.64422 12.72292,17.64302 C12.72652,17.64182 12.72872,17.64062 12.73232,17.63942 C12.78552,17.61942 12.84092,17.59922 12.89532,17.57922 C12.89992,17.57822 12.90452,17.57582 12.91052,17.57442 C12.91632,17.57222 12.92232,17.56982 12.92932,17.56742 C13.00012,17.54262 13.07092,17.51922 13.14292,17.49542 C13.14432,17.49442 13.14772,17.49322 13.15012,17.49322 C13.21972,17.47062 13.28812,17.44842 13.35772,17.42822 C13.37172,17.42242 13.38492,17.41882 13.39892,17.41522 C13.47212,17.39282 13.54532,17.37162 13.61972,17.35162 C13.61972,17.35042 13.62092,17.35042 13.62312,17.35042 C13.67992,17.33502 13.73652,17.31962 13.79432,17.30562 C13.83092,17.29482 13.86872,17.28662 13.90652,17.27722 C13.97372,17.26062 14.03972,17.24522 14.10832,17.23002 C14.18612,17.21222 14.26632,17.19582 14.34532,17.18042 C14.35352,17.17822 14.36312,17.17682 14.37132,17.17442 C14.42912,17.16382 14.48692,17.15322 14.54492,17.14262 C14.58132,17.13562 14.61692,17.12962 14.65352,17.12382 C14.70532,17.11442 14.75852,17.10602 14.81172,17.09782 C14.82572,17.09542 14.83972,17.09322 14.85292,17.09182 C14.88352,17.08722 14.91292,17.08362 14.94252,17.08002 C14.95312,17.07782 14.96252,17.07662 14.97312,17.07542 C15.00272,17.07062 15.03332,17.06582 15.06272,17.06242 C15.09352,17.05882 15.12432,17.05422 15.15612,17.05182 C15.20452,17.04582 15.25392,17.04002 15.30252,17.03522 C15.34132,17.03062 15.37912,17.02702 15.41812,17.02462 C15.42272,17.02342 15.42752,17.02342 15.43212,17.02342 C15.43932,17.02222 15.44632,17.02102 15.45352,17.02102 C15.49832,17.01522 15.54312,17.01282 15.58792,17.00922 C15.60112,17.00822 15.61392,17.00702 15.62712,17.00582 C15.69532,17.00102 15.76372,16.99762 15.83232,16.99402 C15.85112,16.99162 15.87112,16.99042 15.89132,16.99042 C15.97032,16.98682 16.05172,16.98342 16.13312,16.98222 C16.22032,16.97982 16.30652,16.97862 16.39412,16.97862 C16.48132,16.97862 16.56872,16.97982 16.65592,16.98222 C16.73632,16.98342 16.81632,16.98682 16.89652,16.99042 C16.90252,16.99042 16.90852,16.99042 16.91432,16.99162 C16.92952,16.99162 16.94612,16.99282 16.96052,16.99402 C17.02772,16.99762 17.09372,17.00102 17.16112,17.00582 C17.16452,17.00582 17.16812,17.00702 17.17272,17.00702 C17.18472,17.00702 17.19632,17.00822 17.20832,17.00922 C17.25892,17.01282 17.31092,17.01762 17.36172,17.02342 L17.36272,17.02342 C17.39572,17.02582 17.42652,17.02942 17.45832,17.03282 C17.46292,17.03282 17.46672,17.03402 17.47032,17.03402 C17.47952,17.03522 17.48892,17.03522 17.49852,17.03642 C17.53972,17.04002 17.58232,17.04482 17.62472,17.05062 C17.66012,17.05422 17.69432,17.05882 17.72972,17.06362 C17.76512,17.06722 17.79812,17.07182 17.83372,17.07662 C17.86792,17.08242 17.90212,17.08722 17.93632,17.09182 C17.95512,17.09442 17.97392,17.09782 17.99292,17.10022 C18.05772,17.10962 18.12272,17.12022 18.18652,17.13202 C18.34692,17.15922 18.50612,17.19102 18.66432,17.22642 C18.73752,17.24182 18.81072,17.25942 18.88272,17.27722 C18.94052,17.29022 18.99712,17.30562 19.05372,17.32082 C19.07852,17.32682 19.10212,17.33262 19.12572,17.33982 C19.16592,17.35042 19.20472,17.36102 19.24492,17.37282 C19.28272,17.38342 19.31932,17.39402 19.35712,17.40462 C19.36772,17.40822 19.37932,17.41162 19.39132,17.41522 C19.42552,17.42462 19.46092,17.43642 19.49512,17.44722 C19.51512,17.45302 19.53752,17.45882 19.55772,17.46722 C19.60472,17.48142 19.65092,17.49542 19.69812,17.51202 C19.69932,17.51202 19.70052,17.51322 19.70172,17.51322 C19.72992,17.52262 19.75832,17.53222 19.78552,17.54142 C19.79492,17.54502 19.80312,17.54742 19.81252,17.55102 C19.81612,17.55222 19.82072,17.55322 19.82432,17.55442 C19.86432,17.56862 19.90352,17.58282 19.94352,17.59822 L19.94472,17.59822 C20.01432,17.62302 20.08392,17.64902 20.15252,17.67602 C20.22072,17.70202 20.28932,17.72902 20.35772,17.75742 C20.49352,17.81282 20.62812,17.87202 20.76132,17.93322 C20.81092,17.95562 20.85932,17.97822 20.90772,18.00302 C20.90872,18.00302 20.90872,18.00402 20.90992,18.00402 C20.91132,18.00402 20.91132,18.00522 20.91212,18.00522 C20.93592,18.01582 20.96192,18.02662 20.98432,18.03942 C21.03632,18.06542 21.08812,18.09022 21.14012,18.11862 C21.14712,18.12082 21.15412,18.12442 21.16152,18.12922 C21.21192,18.15402 21.26172,18.17982 21.31132,18.20702 C21.33232,18.21762 21.35252,18.22822 21.37372,18.24022 C21.42572,18.26842 21.47772,18.29802 21.53072,18.32742 C21.54132,18.33222 21.55072,18.33922 21.56032,18.34402 C21.57312,18.35102 21.58632,18.35922 21.59912,18.36762 C21.60612,18.37102 21.61432,18.37582 21.62152,18.38062 C21.64992,18.39582 21.67932,18.41242 21.70772,18.43002 C21.72532,18.44062 21.74432,18.45142 21.76192,18.46182 C21.78692,18.47742 21.81272,18.49382 21.83852,18.50922 C21.86452,18.52442 21.88932,18.54102 21.91412,18.55642 C21.98732,18.60122 22.05812,18.64722 22.12892,18.69322 C22.23972,18.76642 22.34952,18.84182 22.45692,18.91862 L22.52432,18.96822 C22.54652,18.98482 22.57032,19.00122 22.59152,19.01782 C22.60572,19.02722 22.61872,19.03662 22.63272,19.04722 C22.67292,19.07682 22.71192,19.10622 22.75092,19.13682 C22.78032,19.15822 22.80872,19.18182 22.83812,19.20302 C22.84752,19.21142 22.85832,19.21962 22.86772,19.22782 C22.89492,19.24902 22.92072,19.27022 22.94672,19.29142 C22.96192,19.30322 22.97752,19.31402 22.99152,19.32702 C23.03172,19.36002 23.07172,19.39302 23.11192,19.42722 C23.13312,19.44482 23.15332,19.46262 23.17452,19.48042 C23.21692,19.51562 23.25832,19.55242 23.29952,19.58882 C23.35492,19.63722 23.40932,19.68562 23.46232,19.73522 C23.50012,19.76942 23.53692,19.80362 23.57332,19.83902 C23.59452,19.85902 23.61572,19.87922 23.63592,19.89922 C23.68312,19.94402 23.72892,19.98882 23.77392,20.03502 C23.83532,20.09502 23.89432,20.15642 23.95332,20.21902 C23.98652,20.25322 24.01832,20.28742 24.05012,20.32282 C24.08312,20.35722 24.11372,20.39122 24.14552,20.42682 L24.14792,20.42902 C24.18692,20.47162 24.22712,20.51642 24.26472,20.56002 C24.27072,20.56582 24.27672,20.57302 24.28132,20.58022 C24.28712,20.58602 24.29192,20.59302 24.29652,20.59902 C24.30492,20.60842 24.31312,20.61782 24.32132,20.62742 C24.35572,20.66502 24.38752,20.70162 24.41832,20.74062 C24.42772,20.75002 24.43472,20.76062 24.44312,20.77002 C24.47852,20.81142 24.51252,20.85382 24.54552,20.89642 C24.56812,20.92362 24.59052,20.95182 24.61072,20.97902 C24.64012,21.01442 24.66732,21.04862 24.69312,21.08522 C24.71192,21.10882 24.72852,21.13122 24.74512,21.15482 C24.74852,21.15822 24.75112,21.16302 24.75452,21.16662 C24.79572,21.22082 24.83492,21.27402 24.87372,21.32942 C24.92192,21.39442 24.96812,21.46162 25.01412,21.52882 C25.02112,21.53822 25.02712,21.54902 25.03432,21.55842 C25.07312,21.61622 25.11192,21.67402 25.14872,21.73182 C25.19932,21.80742 25.24772,21.88522 25.29512,21.96302 C25.34352,22.04102 25.38932,22.11882 25.43432,22.19802 C25.44012,22.20742 25.44492,22.21562 25.44952,22.22502 C25.46972,22.25582 25.48732,22.28762 25.50492,22.31942 C25.52152,22.34662 25.53692,22.37502 25.55112,22.40222 C25.57232,22.43982 25.59372,22.47882 25.61232,22.51782 L25.61592,22.52482 C25.62052,22.53422 25.62532,22.54242 25.63012,22.55202 C25.63952,22.56602 25.64652,22.58142 25.65352,22.59562 C25.65612,22.60042 25.65852,22.60382 25.66092,22.60862 C25.68332,22.65222 25.70672,22.69582 25.72812,22.74062 C25.73152,22.74902 25.73652,22.75742 25.73992,22.76562 C25.74932,22.78082 25.75752,22.79742 25.76452,22.81402 C25.78352,22.84922 25.80012,22.88602 25.81772,22.92242 C25.83312,22.95322 25.84712,22.98382 25.86032,23.01462 C25.86732,23.02762 25.87312,23.04062 25.87912,23.05342 C25.90272,23.10422 25.92512,23.15262 25.94632,23.20322 C25.94752,23.20802 25.94992,23.21402 25.95232,23.21862 C25.99492,23.31302 26.03492,23.40862 26.07252,23.50422 C26.07252,23.50542 26.07372,23.50542 26.07372,23.50662 C26.08792,23.54082 26.10212,23.57622 26.11632,23.61042 C26.12692,23.63882 26.13752,23.66582 26.14812,23.69422 L26.14812,23.69542 C26.17412,23.76262 26.19892,23.82762 26.22252,23.89482 C26.23772,23.93722 26.25212,23.97982 26.26732,24.02102 C26.27812,24.05182 26.28852,24.08362 26.29792,24.11442 C26.30372,24.13082 26.30872,24.14622 26.31332,24.16262 C26.32392,24.19102 26.33232,24.22042 26.34172,24.24882 C26.35112,24.27722 26.36072,24.30542 26.36772,24.33502 C26.37932,24.36922 26.39132,24.40582 26.40072,24.44002 C26.41732,24.49322 26.43132,24.54502 26.44672,24.59822 C26.45032,24.61222 26.45372,24.62522 26.45732,24.63942 C26.46792,24.67602 26.47752,24.71142 26.48692,24.74922 C26.48912,24.76102 26.49272,24.77282 26.49512,24.78462 C26.50692,24.82582 26.51752,24.86722 26.52832,24.90962 C26.54232,24.96622 26.55532,25.02182 26.56832,25.07842 C26.57412,25.10562 26.57992,25.13162 26.58592,25.15862 C26.62252,25.32142 26.65432,25.48562 26.68152,25.65062 C26.69212,25.71102 26.70172,25.77102 26.71112,25.83142 C26.71452,25.85262 26.71692,25.87502 26.72032,25.89742 C26.72992,25.96122 26.73812,26.02482 26.74632,26.08982 C26.75472,26.15342 26.76192,26.21842 26.76892,26.28322 C26.77352,26.32102 26.77712,26.35882 26.78052,26.39642 C26.79012,26.47562 26.79592,26.55462 26.80192,26.63482 C26.80412,26.65742 26.80532,26.67982 26.80652,26.70222 C26.81152,26.76602 26.81492,26.82962 26.81852,26.89342 C26.82072,26.82962 26.82432,26.76602 26.82552,26.70222 C26.83012,26.57822 26.83252,26.45422 26.83252,26.32922 L26.83252,26.28322 C26.83252,26.18402 26.83012,26.08742 26.82552,25.98942 C26.82552,25.95862 26.82432,25.92802 26.82192,25.89742 C26.81232,25.64842 26.79372,25.40182 26.76532,25.15862 C26.70632,24.63002 26.60832,24.11202 26.47252,23.61042 C26.28032,22.89302 26.01232,22.20502 25.67852,21.55842 C23.94732,18.19302 20.43912,15.89302 16.39412,15.89302 C12.60252,15.89302 9.28312,17.91442 7.45632,20.93882 C7.33492,21.14062 7.21812,21.34722 7.11072,21.55842 C7.10472,21.57022 7.09872,21.58082 7.09292,21.59262 C6.53612,22.68402 6.16532,23.88662 6.02492,25.15862 C5.99652,25.40182 5.97792,25.64842 5.96832,25.89742 C5.96592,25.92802 5.96472,25.95862 5.96472,25.98942 C5.95892,26.10282 5.95772,26.21482 5.95772,26.32922" id="Fill-163" fill="#F77FAD"></path>
                <path d="M76.53818,26.53108 C76.55918,26.93828 76.60538,27.33588 76.67138,27.73008 C76.67258,27.74308 76.67498,27.75488 76.67738,27.76788 L97.24538,27.76788 C97.31378,27.37128 97.35978,26.96768 97.38238,26.55708 C97.38358,26.55228 97.38358,26.54648 97.38358,26.54168 C97.37878,26.45548 97.37418,26.36928 97.36798,26.28328 C97.35518,26.11928 97.33978,25.95528 97.31958,25.79248 C97.31018,25.70988 97.29858,25.62828 97.28658,25.54568 C97.28318,25.52448 97.28078,25.50208 97.27718,25.48088 C97.26778,25.42068 97.25838,25.36048 97.24778,25.30028 C97.23478,25.21768 97.21938,25.13628 97.20278,25.05488 C97.18758,24.97208 97.17098,24.88968 97.15218,24.80708 C97.14618,24.78108 97.14038,24.75508 97.13438,24.72788 C97.12158,24.67128 97.10858,24.61588 97.09438,24.55928 C97.08378,24.51668 97.07318,24.47548 97.06118,24.43288 C97.05078,24.38448 97.03638,24.33608 97.02358,24.28788 C96.99518,24.18628 96.96578,24.08368 96.93398,23.98328 C96.91738,23.92548 96.89858,23.86768 96.87958,23.81108 C96.87498,23.79448 96.86998,23.77928 96.86418,23.76388 C96.84298,23.70128 96.82178,23.63868 96.79938,23.57628 C96.77218,23.49828 96.74378,23.42048 96.71438,23.34368 C96.69298,23.28948 96.67318,23.23628 96.65078,23.18208 C96.64718,23.17268 96.64238,23.16328 96.63878,23.15388 C96.61878,23.10308 96.59758,23.05228 96.57618,23.00148 C96.53498,22.90128 96.49138,22.80208 96.44538,22.70308 C96.43578,22.68048 96.42538,22.65928 96.41458,22.63688 C96.38398,22.57088 96.35198,22.50588 96.32018,22.44228 C96.31678,22.43288 96.31198,22.42328 96.30618,22.41388 C96.27898,22.35608 96.24958,22.30068 96.21998,22.24388 C96.21278,22.22988 96.20578,22.21448 96.19638,22.20028 C96.18338,22.17568 96.17158,22.15088 96.15758,22.12588 C96.13618,22.08588 96.11498,22.04688 96.09238,22.00808 C96.06298,21.95368 96.03238,21.89948 96.00058,21.84628 C95.86938,21.61748 95.72898,21.39428 95.58038,21.17728 C95.53418,21.11108 95.48718,21.04388 95.43998,20.97908 L95.43998,20.97788 C95.39978,20.92228 95.35958,20.86688 95.31738,20.81268 C95.31598,20.81028 95.31358,20.80668 95.31118,20.80428 C95.30658,20.79728 95.30178,20.79008 95.29598,20.78308 C95.25698,20.73108 95.21698,20.67928 95.17678,20.62848 C95.15678,20.60028 95.13418,20.57308 95.11178,20.54588 C95.07758,20.50348 95.04338,20.46088 95.00918,20.41968 C94.95618,20.35468 94.90178,20.29108 94.84758,20.22848 C94.84278,20.22148 94.83698,20.21548 94.83098,20.20948 C94.79218,20.16588 94.75438,20.12228 94.71418,20.07868 L94.71178,20.07628 C94.64938,20.00668 94.58438,19.93708 94.51938,19.86848 C94.46158,19.80608 94.40138,19.74468 94.34018,19.68448 C94.29178,19.63608 94.24338,19.58768 94.19378,19.54168 C94.17838,19.52628 94.16438,19.51228 94.14898,19.49808 C94.10898,19.46028 94.06858,19.42248 94.02858,19.38468 C93.97558,19.33508 93.92118,19.28688 93.86578,19.23828 C93.82458,19.20068 93.78318,19.16408 93.74078,19.12988 C93.71938,19.11088 93.69938,19.09328 93.67818,19.07668 C93.65918,19.06148 93.64158,19.04488 93.62278,19.03068 C93.55998,18.97888 93.49758,18.92808 93.43398,18.87728 C93.37018,18.82648 93.30638,18.77708 93.24158,18.72868 C93.17658,18.68028 93.11178,18.63188 93.04558,18.58468 C93.03858,18.57888 93.03038,18.57288 93.02318,18.56808 C92.96538,18.52568 92.90638,18.48428 92.84618,18.44428 C92.71158,18.35348 92.57598,18.26368 92.43798,18.17868 C92.36818,18.13628 92.29878,18.09368 92.22778,18.05248 C92.09098,17.97228 91.95158,17.89548 91.81138,17.82128 C91.78418,17.80708 91.75578,17.79168 91.72758,17.77748 L91.70638,17.76688 C91.66498,17.74568 91.62378,17.72448 91.58238,17.70448 C91.51158,17.67008 91.44198,17.63588 91.37118,17.60288 C91.35698,17.59588 91.34278,17.58988 91.32738,17.58288 C91.28498,17.56288 91.24138,17.54268 91.19778,17.52388 C91.17418,17.51328 91.15058,17.50248 91.12678,17.49208 C90.97938,17.42828 90.83078,17.36808 90.67958,17.31028 C90.52518,17.25128 90.36918,17.19588 90.21238,17.14508 C90.13338,17.11908 90.05418,17.09428 89.97398,17.06948 C89.82058,17.02348 89.66358,16.98108 89.50678,16.94088 C89.48778,16.93608 89.46898,16.93148 89.44898,16.92668 C89.38298,16.91028 89.31558,16.89488 89.24838,16.87948 C89.16698,16.86188 89.08418,16.84408 89.00158,16.82768 C88.91898,16.81108 88.83638,16.79568 88.75258,16.78148 C88.60158,16.75548 88.44938,16.73208 88.29598,16.71328 C88.26058,16.70728 88.22618,16.70368 88.19098,16.70028 C88.12598,16.69188 88.06118,16.68468 87.99498,16.67888 C87.90998,16.67068 87.82518,16.66348 87.73898,16.65648 C87.73418,16.65528 87.73078,16.65528 87.72718,16.65528 C87.47358,16.63768 87.21858,16.62808 86.96018,16.62808 C86.70158,16.62808 86.44558,16.63768 86.19318,16.65528 C86.18958,16.65528 86.18598,16.65528 86.18258,16.65648 C86.17318,16.65768 86.16378,16.65768 86.15418,16.65888 C86.07738,16.66468 86.00198,16.67188 85.92638,16.67888 C85.85818,16.68608 85.78958,16.69308 85.72238,16.70128 C85.70458,16.70248 85.68818,16.70368 85.67158,16.70728 C85.34118,16.74728 85.01678,16.80408 84.69698,16.87488 C84.62138,16.89128 84.54698,16.90788 84.47278,16.92668 C84.45858,16.93028 84.44438,16.93268 84.43018,16.93728 C84.35938,16.95508 84.28858,16.97268 84.21878,16.99168 C84.20938,16.99388 84.19898,16.99748 84.18938,16.99988 C84.18718,16.99988 84.18578,16.99988 84.18578,17.00108 C84.17418,17.00468 84.16218,17.00688 84.15058,17.01048 C84.09158,17.02708 84.03258,17.04468 83.97358,17.06248 C83.97118,17.06348 83.96758,17.06348 83.96538,17.06488 C83.95098,17.06828 83.93818,17.07188 83.92398,17.07648 C83.86018,17.09548 83.79778,17.11548 83.73518,17.13668 C83.72918,17.13808 83.72218,17.14028 83.71638,17.14268 C83.71518,17.14268 83.71278,17.14268 83.71158,17.14388 C83.63958,17.16748 83.56758,17.19228 83.49558,17.21708 C83.48858,17.21948 83.48278,17.22048 83.47658,17.22408 C83.41758,17.24528 83.35758,17.26668 83.29858,17.28888 C83.29498,17.29008 83.29258,17.29128 83.28918,17.29248 C83.23018,17.31488 83.17098,17.33748 83.11338,17.36088 C82.99278,17.40828 82.87378,17.45768 82.75698,17.50968 C82.69198,17.53808 82.62818,17.56628 82.56458,17.59688 C82.49018,17.63108 82.41598,17.66668 82.34258,17.70328 C82.24838,17.74928 82.15378,17.79748 82.06058,17.84828 C82.01938,17.86948 81.97678,17.89208 81.93678,17.91448 C81.92718,17.91908 81.91778,17.92388 81.90958,17.92988 C81.76698,18.00888 81.62638,18.09148 81.48838,18.17628 C81.37518,18.24608 81.26298,18.31788 81.15318,18.39248 C81.11558,18.41708 81.07758,18.44308 81.03998,18.47028 C80.98918,18.50448 80.93838,18.53988 80.88898,18.57528 C80.83358,18.61408 80.77798,18.65428 80.72378,18.69568 C80.68458,18.72388 80.64698,18.75228 80.61038,18.78168 C80.57018,18.81248 80.53138,18.84308 80.49238,18.87368 C80.44518,18.91148 80.39918,18.94808 80.35318,18.98588 C80.27418,19.05088 80.19498,19.11688 80.11818,19.18428 C80.10538,19.19468 80.09238,19.20648 80.07938,19.21828 C80.03098,19.26088 79.98398,19.30328 79.93658,19.34588 C79.92358,19.35648 79.91058,19.36948 79.89778,19.38108 C79.79158,19.47908 79.68758,19.57828 79.58618,19.68088 C79.45058,19.81548 79.31818,19.95468 79.19078,20.09748 C79.15658,20.13528 79.12238,20.17428 79.08938,20.21188 C79.04698,20.26148 79.00438,20.30988 78.96438,20.35948 C78.95718,20.36648 78.95238,20.37248 78.94658,20.37948 C78.93238,20.39488 78.92058,20.40908 78.90878,20.42428 C78.86518,20.47748 78.82138,20.53168 78.77778,20.58608 C78.75898,20.60968 78.74018,20.63328 78.72238,20.65688 C78.68578,20.70288 78.65138,20.74888 78.61738,20.79488 C78.61498,20.79848 78.61258,20.80088 78.61018,20.80428 C78.58198,20.84208 78.55358,20.87988 78.52638,20.91748 C78.50398,20.94708 78.48278,20.97788 78.46038,21.00848 C78.42138,21.06288 78.38378,21.11708 78.34598,21.17248 C78.29998,21.23968 78.25498,21.30708 78.21018,21.37428 L78.21018,21.37548 C78.16998,21.43568 78.13238,21.49708 78.09338,21.55848 C78.08878,21.56548 78.08398,21.57368 78.07918,21.58068 C78.03678,21.64928 77.99538,21.71888 77.95418,21.78968 C77.93878,21.81448 77.92478,21.83928 77.91038,21.86508 C77.88798,21.90288 77.86698,21.93948 77.84678,21.97728 C77.81618,22.03148 77.78538,22.08708 77.75598,22.14248 C77.72538,22.19908 77.69578,22.25688 77.66638,22.31468 C77.63318,22.37608 77.60238,22.43868 77.57298,22.50108 C77.54698,22.55308 77.52218,22.60508 77.49878,22.65708 C77.49638,22.66288 77.49258,22.66868 77.49038,22.67468 C77.46918,22.71948 77.44918,22.76328 77.43018,22.80688 C77.40058,22.87288 77.37118,22.94028 77.34278,23.00748 C77.31698,23.06768 77.29218,23.12908 77.26838,23.18908 C77.22378,23.30008 77.18118,23.41228 77.14118,23.52428 C77.12938,23.55728 77.11738,23.59048 77.10578,23.62348 C77.08558,23.67768 77.06778,23.73328 77.04918,23.78988 C77.04318,23.80868 77.03718,23.82628 77.03138,23.84528 C77.01478,23.89608 76.99838,23.94668 76.98298,23.99868 C76.96658,24.05168 76.95098,24.10488 76.93578,24.15808 C76.93358,24.16628 76.93118,24.17568 76.92858,24.18408 C76.91218,24.23708 76.89678,24.29128 76.88278,24.34568 C76.88038,24.35508 76.87798,24.36328 76.87558,24.37268 C76.85678,24.44248 76.83898,24.51328 76.82138,24.58408 C76.81878,24.59348 76.81778,24.60168 76.81538,24.61108 L76.81538,24.61348 C76.80018,24.67608 76.78578,24.73848 76.77178,24.80228 C76.77058,24.80348 76.77058,24.80348 76.77058,24.80468 L76.77058,24.80708 C76.75058,24.89548 76.73278,24.98408 76.71518,25.07248 C76.70458,25.12568 76.69498,25.17868 76.68558,25.23188 C76.68218,25.24948 76.67838,25.26848 76.67598,25.28608 C76.67378,25.30148 76.67018,25.31808 76.66778,25.33328 C76.66078,25.37468 76.65378,25.41588 76.64798,25.45848 C76.64658,25.46908 76.64418,25.48088 76.64298,25.49148 C76.63958,25.50928 76.63718,25.52808 76.63478,25.54568 C76.63138,25.56828 76.62778,25.59048 76.62558,25.61308 C76.61818,25.66368 76.61238,25.71328 76.60538,25.76288 C76.59598,25.83248 76.58878,25.90208 76.58178,25.97288 C76.57818,26.00608 76.57478,26.03908 76.57238,26.07208 C76.56658,26.12048 76.56278,26.16988 76.55918,26.21948 C76.54998,26.32228 76.54398,26.42708 76.53818,26.53108" id="Fill-164" fill="#DA7F9E"></path>
                <path d="M78.88876,26.70334 C78.88876,27.06454 78.91236,27.41974 78.95836,27.76774 C78.99736,28.06034 79.05056,28.34714 79.11996,28.62814 C79.98276,32.15634 83.16636,34.77474 86.96136,34.77474 C91.05856,34.77474 94.44296,31.72334 94.96436,27.76774 C94.98336,27.62254 94.99856,27.47634 95.01036,27.32874 C95.02576,27.12234 95.03416,26.91334 95.03416,26.70334 C95.03416,23.12674 92.70816,20.09394 89.48656,19.03434 C88.69256,18.77234 87.84296,18.63074 86.96136,18.63074 C84.45856,18.63074 82.22116,19.76934 80.74016,21.55834 C79.58376,22.95554 78.88876,24.74814 78.88876,26.70334" id="Fill-165" fill="#1F1C23"></path>
                <path d="M92.42314,26.70304 C92.42314,26.84264 92.41814,26.98124 92.40714,27.11824 C92.19254,24.29784 89.83654,22.07644 86.96074,22.07644 C84.08594,22.07644 81.72914,24.29784 81.51454,27.11824 C81.50374,26.98124 81.49874,26.84264 81.49874,26.70304 C81.49874,23.68624 83.94474,21.24084 86.96074,21.24084 C89.97754,21.24084 92.42314,23.68624 92.42314,26.70304" id="Fill-166" fill="#DBDBDB"></path>
                <path d="M92.40712,27.11828 L92.40712,27.12328 C92.19252,29.94308 89.83652,32.16448 86.96092,32.16448 C84.08612,32.16448 81.72912,29.94308 81.51452,27.12328 L81.51452,27.11828 C81.72912,24.29768 84.08612,22.07628 86.96092,22.07628 C89.83652,22.07628 92.19252,24.29768 92.40712,27.11828" id="Fill-167" fill="#F3F4F6"></path>
                <path d="M89.69208,26.70304 C89.69208,26.84504 89.68108,26.98464 89.66028,27.12084 C89.45968,25.81084 88.32768,24.80744 86.96088,24.80744 C85.59508,24.80744 84.46288,25.81084 84.26168,27.12084 C84.24068,26.98464 84.22968,26.84504 84.22968,26.70304 C84.22968,25.19424 85.45288,23.97204 86.96088,23.97204 C88.46968,23.97204 89.69208,25.19424 89.69208,26.70304" id="Fill-168" fill="#72727C"></path>
                <path d="M89.66026,27.12082 C89.45966,28.43082 88.32766,29.43422 86.96086,29.43422 C85.59506,29.43422 84.46286,28.43082 84.26166,27.12082 C84.46286,25.81082 85.59506,24.80742 86.96086,24.80742 C88.32766,24.80742 89.45966,25.81082 89.66026,27.12082" id="Fill-169" fill="#8E8E9A"></path>
                <path d="M97.39834,25.97776 C97.39834,26.16716 97.39314,26.35556 97.38414,26.54216 C97.36794,26.20576 97.33474,25.87356 97.28714,25.54596 C97.28354,25.52456 97.28074,25.50216 97.27734,25.48056 C97.26834,25.42036 97.25854,25.36036 97.24774,25.30016 C97.22074,25.13416 97.18834,24.97076 97.15254,24.80736 C97.14614,24.78056 97.14094,24.75456 97.13474,24.72756 C97.12194,24.67116 97.10854,24.61536 97.09414,24.55896 C97.08434,24.51676 97.07354,24.47536 97.06174,24.43316 C97.04654,24.37036 97.02954,24.30856 97.01254,24.24656 C96.99814,24.19456 96.98294,24.14156 96.96674,24.08956 C96.95694,24.05456 96.94614,24.01856 96.93454,23.98356 C96.92654,23.95496 96.91754,23.92616 96.90754,23.89756 C96.89414,23.85256 96.87974,23.80776 96.86454,23.76376 C96.85454,23.73236 96.84394,23.70096 96.83314,23.67036 C96.81874,23.62816 96.80434,23.58596 96.78894,23.54376 C96.76474,23.47656 96.74054,23.41016 96.71454,23.34376 C96.69034,23.28016 96.66614,23.21636 96.63914,23.15356 C96.57894,23.00176 96.51434,22.85196 96.44534,22.70296 C96.42574,22.65896 96.40494,22.61496 96.38354,22.57196 C96.36634,22.53516 96.34934,22.49836 96.33054,22.46256 C96.32334,22.44636 96.31534,22.43016 96.30634,22.41416 C96.27834,22.35656 96.24974,22.30016 96.21994,22.24436 C96.21294,22.23016 96.20574,22.21476 96.19674,22.20036 C96.17154,22.15016 96.14454,22.10076 96.11694,22.05156 C96.10254,22.02356 96.08714,21.99576 96.07114,21.96796 C95.91934,21.69696 95.75514,21.43316 95.58014,21.17736 C95.53454,21.10996 95.48774,21.04356 95.44034,20.97816 C95.39894,20.91896 95.35594,20.86156 95.31174,20.80396 C95.29474,20.78076 95.27774,20.75736 95.25994,20.73396 C95.23294,20.69816 95.20594,20.66316 95.17734,20.62816 C95.15674,20.60036 95.13434,20.57256 95.11174,20.54556 C95.07854,20.50256 95.04434,20.46036 95.00954,20.41896 C95.00154,20.40916 94.99334,20.39936 94.98434,20.38936 C94.94034,20.33556 94.89454,20.28176 94.84794,20.22876 C94.84254,20.22156 94.83714,20.21536 94.83094,20.20916 C94.79334,20.16496 94.75354,20.12116 94.71414,20.07796 C94.44774,19.78176 94.16494,19.50096 93.86614,19.23796 C93.82494,19.20136 93.78274,19.16436 93.74054,19.12936 C93.71974,19.11156 93.69934,19.09356 93.67854,19.07656 C93.63814,19.04236 93.59774,19.00916 93.55754,18.97596 C93.54314,18.96336 93.52874,18.95176 93.51334,18.94016 C93.47754,18.91036 93.44074,18.88176 93.40394,18.85216 C93.37534,18.83056 93.34654,18.80716 93.31694,18.78576 C93.27834,18.75516 93.23874,18.72556 93.19854,18.69596 C93.14114,18.65196 93.08274,18.60996 93.02354,18.56776 C92.91574,18.49036 92.80634,18.41516 92.69494,18.34236 C92.62414,18.29576 92.55314,18.24996 92.48054,18.20516 C92.43034,18.17376 92.37914,18.14236 92.32794,18.11076 C92.31014,18.10016 92.29214,18.09016 92.27414,18.07856 C92.22574,18.04976 92.17634,18.02196 92.12694,17.99336 C92.11714,17.98796 92.10714,17.98156 92.09634,17.97636 C92.04434,17.94676 91.99234,17.91796 91.93934,17.88916 C91.91874,17.87756 91.89814,17.86676 91.87754,17.85596 C91.82794,17.82916 91.77774,17.80296 91.72754,17.77796 C91.72034,17.77336 91.71314,17.76976 91.70594,17.76716 C91.65494,17.73936 91.60274,17.71416 91.55094,17.68816 C91.52574,17.67556 91.49974,17.66316 91.47354,17.65136 C91.42514,17.62716 91.37674,17.60476 91.32734,17.58236 C91.06154,17.45936 90.78894,17.34716 90.51074,17.24676 C90.45774,17.22776 90.40474,17.20896 90.35194,17.19096 C90.32394,17.18116 90.29614,17.17136 90.26854,17.16236 C90.21974,17.14616 90.17234,17.13096 90.12394,17.11556 C90.10314,17.10836 90.08174,17.10216 90.06094,17.09596 C90.01534,17.08156 89.96874,17.06716 89.92294,17.05376 C89.88534,17.04296 89.84834,17.03216 89.81074,17.02136 C89.77114,17.00976 89.73174,16.99896 89.69234,16.98816 C89.66894,16.98196 89.64454,16.97556 89.62034,16.96936 C89.56394,16.95416 89.50654,16.93976 89.44894,16.92636 C89.37634,16.90836 89.30354,16.89136 89.23094,16.87516 C89.00934,16.82576 88.78574,16.78356 88.55874,16.74956 C88.50574,16.74056 88.45274,16.73336 88.39994,16.72616 C88.36494,16.72076 88.33074,16.71616 88.29574,16.71276 C88.26074,16.70736 88.22594,16.70376 88.19074,16.70016 C88.14874,16.69376 88.10654,16.68936 88.06434,16.68576 C88.01934,16.68036 87.97374,16.67596 87.92774,16.67236 C87.87674,16.66696 87.82554,16.66236 87.77434,16.65876 C87.75834,16.65696 87.74314,16.65616 87.72694,16.65536 C87.66054,16.64996 87.59414,16.64636 87.52674,16.64276 C87.50614,16.64176 87.48454,16.63996 87.46294,16.63916 C87.38314,16.63536 87.30254,16.63276 87.22154,16.63096 C87.13454,16.62836 87.04754,16.62736 86.96054,16.62736 C86.87334,16.62736 86.78634,16.62836 86.69934,16.63096 C86.61854,16.63276 86.53674,16.63536 86.45694,16.63916 C86.43714,16.63996 86.41754,16.64096 86.39874,16.64276 C86.32954,16.64636 86.26134,16.64996 86.19314,16.65536 C86.17954,16.65616 86.16714,16.65696 86.15454,16.65876 C86.09714,16.66236 86.04054,16.66696 85.98414,16.67316 C85.94534,16.67596 85.90774,16.67956 85.86914,16.68396 C85.81974,16.68936 85.77034,16.69476 85.72194,16.70096 C85.69054,16.70376 85.66014,16.70736 85.62954,16.71176 C85.58914,16.71616 85.54874,16.72176 85.50934,16.72876 C85.46534,16.73336 85.42214,16.73956 85.37814,16.74676 C85.07134,16.79336 84.76974,16.85356 84.47274,16.92636 C84.43514,16.93516 84.39734,16.94416 84.36074,16.95416 C84.30314,16.96836 84.24654,16.98376 84.18914,16.99976 C84.18734,16.99976 84.18634,16.99976 84.18574,17.00076 C84.11194,17.02056 84.03834,17.04196 83.96574,17.06436 C83.95154,17.06816 83.93794,17.07176 83.92454,17.07696 C83.85434,17.09676 83.78554,17.11916 83.71634,17.14256 C83.71354,17.14256 83.71074,17.14336 83.70914,17.14436 C83.63714,17.16776 83.56634,17.19196 83.49534,17.21696 C83.48394,17.22056 83.47214,17.22416 83.46134,17.22876 C83.40674,17.24836 83.35194,17.26816 83.29814,17.28876 C82.98494,17.40556 82.67974,17.53736 82.38354,17.68196 C82.32714,17.70976 82.27034,17.73756 82.21494,17.76616 C82.20674,17.77076 82.19954,17.77436 82.19154,17.77876 C82.14754,17.80036 82.10354,17.82356 82.06054,17.84796 C82.01914,17.86936 81.97714,17.89196 81.93654,17.91436 C81.91694,17.92516 81.89714,17.93576 81.87834,17.94676 C81.84154,17.96736 81.80474,17.98796 81.76894,18.00856 C81.72494,18.03376 81.68174,18.05876 81.63874,18.08396 C81.62794,18.09116 81.61814,18.09656 81.60814,18.10276 C81.55174,18.13596 81.49594,18.17016 81.44134,18.20516 C81.38734,18.23836 81.33454,18.27236 81.28154,18.30656 C81.23834,18.33436 81.19534,18.36216 81.15314,18.39176 C81.00694,18.48956 80.86334,18.59096 80.72334,18.69596 C80.68474,18.72376 80.64694,18.75256 80.61034,18.78216 C80.57794,18.80556 80.54654,18.83056 80.51514,18.85476 C80.46054,18.89776 80.40654,18.94196 80.35254,18.98576 C80.32114,19.01096 80.28994,19.03696 80.25934,19.06296 C80.22714,19.08996 80.19474,19.11776 80.16234,19.14556 C80.13474,19.16896 80.10674,19.19316 80.07894,19.21836 C80.05374,19.23976 80.02774,19.26236 80.00254,19.28556 C79.96774,19.31616 79.93274,19.34836 79.89774,19.38076 C79.68234,19.57916 79.47514,19.78636 79.27674,20.00176 C79.24694,20.03316 79.21834,20.06536 79.19054,20.09776 C79.16014,20.13016 79.13134,20.16236 79.10334,20.19476 C79.08914,20.21176 79.07394,20.22876 79.06054,20.24496 C79.02094,20.28976 78.98334,20.33476 78.94634,20.37956 C78.93294,20.39476 78.92034,20.40916 78.90874,20.42436 C78.87814,20.46036 78.84954,20.49616 78.82074,20.53216 C78.78754,20.57336 78.75434,20.61456 78.72214,20.65676 C78.68614,20.70256 78.65134,20.74836 78.61714,20.79516 C78.58574,20.83536 78.55514,20.87596 78.52654,20.91716 C78.50294,20.94756 78.48154,20.97816 78.46014,21.00876 C78.37394,21.12896 78.29034,21.25096 78.21054,21.37476 C78.16574,21.44296 78.12254,21.51116 78.07954,21.58036 C78.03634,21.64936 77.99514,21.71936 77.95374,21.78936 C77.91714,21.85136 77.88114,21.91416 77.84614,21.97696 C77.81574,22.03176 77.78534,22.08636 77.75654,22.14216 C77.72514,22.19956 77.69534,22.25696 77.66574,22.31536 C77.63354,22.37636 77.60294,22.43836 77.57334,22.50116 C77.54454,22.55856 77.51694,22.61676 77.48994,22.67516 C77.46914,22.71916 77.44954,22.76316 77.42974,22.80716 C77.37334,22.93276 77.31934,23.06016 77.26834,23.18936 C77.22334,23.29976 77.18114,23.41196 77.14074,23.52416 C77.12014,23.58256 77.09954,23.63996 77.07974,23.69816 C77.07434,23.71436 77.06914,23.73056 77.06354,23.74676 C77.04114,23.81216 77.02054,23.87856 76.99994,23.94416 C76.97754,24.01496 76.95594,24.08596 76.93534,24.15776 C76.91454,24.22856 76.89474,24.30036 76.87614,24.37216 C76.85714,24.44216 76.83934,24.51316 76.82134,24.58396 C76.81934,24.59296 76.81774,24.60196 76.81514,24.61096 C76.79974,24.67456 76.78554,24.74016 76.77094,24.80476 C76.77014,24.80576 76.77014,24.80656 76.77014,24.80736 C76.75054,24.89536 76.73254,24.98436 76.71534,25.07316 C76.70454,25.12616 76.69474,25.17896 76.68574,25.23196 C76.68234,25.24996 76.67854,25.26876 76.67594,25.28676 C76.66434,25.35496 76.65254,25.42316 76.64274,25.49136 C76.63994,25.50936 76.63734,25.52816 76.63474,25.54596 C76.63114,25.56856 76.62834,25.59096 76.62574,25.61336 C76.61674,25.67176 76.60954,25.72996 76.60254,25.78936 C76.57274,26.03336 76.55134,26.28116 76.53854,26.53056 C76.52874,26.34756 76.52334,26.16436 76.52334,25.97776 C76.52334,25.86376 76.52514,25.75156 76.53054,25.63856 C76.53134,25.60796 76.53234,25.57656 76.53514,25.54596 C76.54414,25.29756 76.56274,25.05076 76.59074,24.80736 C76.73154,23.53576 77.10234,22.33316 77.65874,21.24116 C77.77174,21.01856 77.89394,20.80056 78.02214,20.58776 C79.84934,17.56356 83.16894,15.54156 86.96054,15.54156 C92.32974,15.54156 96.75154,19.59336 97.33194,24.80736 C97.35994,25.05076 97.37854,25.29756 97.38754,25.54596 C97.39034,25.57656 97.39134,25.60796 97.39214,25.63856 C97.39754,25.75156 97.39834,25.86376 97.39834,25.97776" id="Fill-170" fill="#F77FAD"></path>
                <path d="M104.59346,13.62616 C105.38526,14.03796 106.14766,14.71876 106.97346,14.80736 C108.04386,14.92196 108.61506,15.30296 108.80966,15.88476 C109.28286,11.63076 106.51346,10.34796 106.43306,10.31256 C106.41326,10.75636 106.18666,11.22596 105.76066,11.66956 C105.24726,12.20296 104.97586,12.96776 104.59346,13.62616" id="Fill-171" fill="#F22A25"></path>
                <path d="M106.4331,10.3126 C106.4331,10.3114 106.4319,10.3114 106.4319,10.3114" id="Stroke-172" stroke="#3971BC" stroke-width="0.5"></path>
                <path d="M1.58682,17.77168 C2.41162,17.08008 3.70022,17.72908 4.70582,17.56388 C5.10802,17.49788 5.61782,17.57588 5.89282,17.35628 C6.56422,16.81928 7.45642,16.22588 7.62742,15.50488 C7.76562,14.92648 6.97482,14.12888 6.39782,13.06328 C6.39782,13.06328 2.54142,14.97248 1.58682,17.77168" id="Fill-173" fill="#F9DC62"></path>
                <path d="M26.47256,23.61044 C26.60836,24.11204 26.70636,24.63004 26.76536,25.15864 C26.79356,25.40184 26.81236,25.64844 26.82196,25.89744 C26.82436,25.92804 26.82556,25.95864 26.82556,25.98944 C26.83016,26.08744 26.83256,26.18404 26.83256,26.28324 L64.10756,26.28324 L58.26756,23.61044 L26.47256,23.61044 Z" id="Fill-174" fill="#DA7F9E"></path>
                <path d="M98.41708,20.08212 L107.22128,20.08212 C107.76408,19.44252 108.20208,18.66732 108.52168,17.88012 L101.80028,17.88012 C101.80028,17.88012 98.65328,18.03712 98.41708,20.08212" id="Fill-175" fill="#DA7F9E"></path>
                <path d="M64.10752,14.40536 C64.10752,14.55816 64.13092,14.70496 64.17412,14.84416 C64.30252,14.15876 64.90772,13.63476 65.62872,13.63476 L68.89572,13.63476 C69.30272,13.63476 69.67252,13.80116 69.94132,14.06996 C70.10772,14.23656 70.23592,14.44356 70.30872,14.67416 C70.32472,14.58656 70.33332,14.49656 70.33332,14.40536 C70.33332,13.99856 70.16692,13.62876 69.89932,13.35996 C69.63052,13.09236 69.26092,12.92596 68.85392,12.92596 L65.58692,12.92596 C64.77332,12.92596 64.10752,13.59176 64.10752,14.40536" id="Fill-176" fill="#353F44"></path>
                <path d="M64.17412,14.84424 L64.17412,14.84544 C64.24692,15.07604 64.37512,15.28304 64.54152,15.45084 C64.81032,15.71844 65.18012,15.88484 65.58692,15.88484 L68.85392,15.88484 C69.57512,15.88484 70.18032,15.36084 70.30872,14.67544 L70.30872,14.67404 C70.23592,14.44364 70.10772,14.23644 69.94132,14.07004 C69.67252,13.80124 69.30272,13.63484 68.89572,13.63484 L65.62872,13.63484 C64.90772,13.63484 64.30252,14.15884 64.17412,14.84424" id="Fill-177" fill="#3D484C"></path>
                <path d="M37.021,9.44766 C38.299,9.37566 39.5356,9.19626 40.6696,8.75506 C44.965,7.08406 48.8416,4.34286 52.9126,2.08646 C54.115,1.41986 55.3776,0.86046 56.612,0.25266 L53.512,0.25266 C53.512,0.25266 46.702,3.05066 37.021,9.44766" id="Fill-178" fill="#C3D9CC"></path>
                <polygon id="Fill-179" fill="#C63E72" points="72.2208 27.6208 73.0638 27.6208 73.0638 10.905 72.2208 10.905"></polygon>
                <polygon id="Fill-180" fill="#F77FAD" points="71.3776 27.6208 72.2208 27.6208 72.2208 10.905 71.3776 10.905"></polygon>
                <path d="M26.82548,26.70216 L65.01268,26.70216 L64.10748,26.28316 L26.83248,26.28316 L26.83248,26.32916 C26.83248,26.45436 26.83008,26.57816 26.82548,26.70216" id="Fill-181" fill="#C63E72"></path>
                <polyline id="Stroke-182" stroke="#3971BC" stroke-width="0.5" points="26.80538 26.70216 26.80658 26.70216 26.82558 26.70216"></polyline>
                <polygon id="Fill-183" fill="#C63E72" points="42.37958 16.14082 47.51518 21.55842 49.45978 23.61042 50.46858 23.61042 48.52398 21.55842 43.38858 16.14082 48.16758 10.90502 47.15878 10.90502"></polygon>
                <polygon id="Fill-184" fill="#F77FAD" points="41.42548 16.14082 46.56108 21.55842 48.50568 23.61042 49.51468 23.61042 47.57008 21.55842 42.43448 16.14082 47.21348 10.90502 46.20468 10.90502"></polygon>
            </g>
        </g>
    </g>
</svg>