<?xml version="1.0" encoding="UTF-8"?>
<svg width="112px" height="50px" viewBox="0 0 112 50" version="1.1" xmlns="http://www.w3.org/2000/svg" xmlns:xlink="http://www.w3.org/1999/xlink">
    <!-- Generator: Sketch 52.6 (67491) - http://www.bohemiancoding.com/sketch -->
    <title>分组 8</title>
    <desc>Created with Sketch.</desc>
    <g id="图示" stroke="none" stroke-width="1" fill="none" fill-rule="evenodd">
        <g id="交通工具" transform="translate(-395.000000, -62.000000)">
            <g id="分组-8" transform="translate(395.000000, 62.000000)">
                <path d="M106.98154,32.01112 C105.47014,32.58592 103.76334,31.81972 103.18854,30.30832 L101.19354,25.06312 C100.61874,23.55192 101.38494,21.84492 102.89614,21.27012 C104.40754,20.69532 106.11434,21.46152 106.68914,22.97292 L108.68434,28.21812 C109.25914,29.72932 108.49294,31.43612 106.98154,32.01112" id="Fill-232" fill="#F22A25"></path>
                <path d="M17.41452,20.75762 L103.08412,20.75762 C102.83632,20.34782 102.57812,19.93822 102.31252,19.52842 L21.29032,19.52842 C20.02712,19.86602 18.72812,20.27062 17.41452,20.75762" id="Fill-233" fill="#FFAE1F"></path>
                <path d="M2.0946,35.94844 L109.9592,38.85684 C109.9592,38.85684 108.696,29.99504 103.084,20.75764 L17.4146,20.75764 C18.7282,20.27064 20.027,19.86604 21.2904,19.52844 L102.3126,19.52844 C101.8966,18.88604 101.4578,18.24484 100.9976,17.60504 C98.6064,14.28824 95.6056,11.04724 91.8524,8.27924 C82.9158,3.64344 67.6354,-0.17296 43.6738,5.50224 C40.912,7.60004 37.9846,10.74884 36.237,15.33644 L35.8716,17.60504 C35.8716,17.60504 34.6652,17.52424 32.6608,17.60504 C30.3506,17.69864 26.9806,18.00844 23.1742,18.91004 C22.408,19.09084 21.6228,19.29584 20.8262,19.52844 C19.6376,19.87484 18.421,20.28084 17.1932,20.75764 C13.2212,22.29904 9.133,24.57524 5.5026,27.93124 C5.423,28.00584 5.3418,28.08044 5.2624,28.15504 C5.1966,28.21704 5.1308,28.27904 5.0652,28.34224 C4.7324,28.66084 4.4036,28.98964 4.0786,29.32744 C3.157,31.26084 2.4716,33.45604 2.0946,35.94844" id="Fill-234" fill="#F1B844"></path>
                <path d="M6.96316,19.5286 C6.96316,21.1698 8.29356,22.5002 9.93456,22.5002 C11.57576,22.5002 12.90636,21.1698 12.90636,19.5286 C12.90636,17.8874 11.57576,16.557 9.93456,16.557 C8.29356,16.557 6.96316,17.8874 6.96316,19.5286" id="Fill-235" fill="#F4DC31"></path>
                <path d="M43.6737,5.50224 C67.6355,-0.17296 82.9159,3.64344 91.8525,8.27924 C84.1173,2.57364 73.1829,-1.12636 57.7871,0.64784 C56.9045,0.74884 56.0053,0.86904 55.0925,1.00684 C55.0863,1.00804 55.0785,1.00944 55.0709,1.01064 C52.3611,1.47604 48.1551,2.48624 45.0065,4.55884 C44.5701,4.84604 44.1239,5.15964 43.6737,5.50224" id="Fill-236" fill="#FFCC71"></path>
                <path d="M4.07858,29.32734 C4.40358,28.98974 4.73258,28.66094 5.06518,28.34234 C5.13078,28.27894 5.19658,28.21714 5.26238,28.15514 C5.34178,28.08054 5.42298,28.00594 5.50258,27.93134 C9.20378,24.51834 13.37678,22.25354 17.41458,20.75754 C18.72818,20.27074 20.02698,19.86614 21.29038,19.52834 C29.24418,17.40654 35.81218,17.97814 35.81218,17.97814 L35.87158,17.60514 L36.23698,15.33654 C36.23698,15.33654 11.80878,13.11594 4.07858,29.32734" id="Fill-237" fill="#FFCC71"></path>
                <path d="M1.978,35.61348 L110.4192,36.90188 C111.0862,36.90988 111.6254,37.46208 111.6174,38.12928 C111.6096,38.79628 111.0574,39.33548 110.3904,39.32748 L1.949,38.03888 C1.2822,38.03108 0.7428,37.47888 0.7508,36.81188 C0.7586,36.14468 1.311,35.60548 1.978,35.61348" id="Fill-238" fill="#ACC1B8"></path>
                <path d="M16.1077,18.38554 C16.1077,18.38554 12.1267,14.74634 9.9347,15.08354 L9.9347,22.00234" id="Fill-239" fill="#F1B844"></path>
                <path d="M74.4866,16.55684 L85.1074,16.55684 L89.6396,8.90384 C88.3282,7.84284 86.6588,6.77444 84.6964,6.09524 C83.5888,5.70964 82.3874,5.44904 81.1014,5.38604 L74.4866,16.55684 Z" id="Fill-240" fill="#FBFFFE"></path>
                <path d="M89.63952,8.9038 L85.10732,16.5568 L90.23632,16.5568 C91.95732,16.5568 93.35452,15.2808 93.35452,13.7052 C93.35452,13.207 93.21172,12.7252 92.94872,12.303 C92.94872,12.303 92.94752,12.3016 92.94612,12.2992 C92.84752,12.1384 92.73132,11.9856 92.59712,11.8464 C92.09892,11.228 91.08492,10.071 89.63952,8.9038" id="Fill-241" fill="#B2DDC2"></path>
                <path d="M71.08874,8.2286 L71.08874,13.7052 C71.08874,15.2808 72.48354,16.5568 74.20714,16.5568 L74.48654,16.5568 L81.10134,5.386 C81.04574,5.3822 80.99014,5.3808 80.93314,5.3784 L74.20714,5.3784 C72.48354,5.3784 71.08874,6.6542 71.08874,8.2286" id="Fill-242" fill="#B2DDC2"></path>
                <path d="M15.13484,18.41338 C15.13484,18.41338 12.84324,15.66058 10.69344,15.72378 C10.69344,15.72378 15.80364,19.41698 15.13484,18.41338" id="Fill-243" fill="#FFCC71"></path>
                <path d="M18.3653,18.2917 L18.3653,18.8417 C18.3653,18.8645 18.3667,18.8873 18.3693,18.9101 C18.4045,19.2565 18.7169,19.5285 19.0939,19.5285 L102.3125,19.5285 C101.8713,18.8861 101.4059,18.2449 100.9179,17.6051 L19.0939,17.6051 C18.6917,17.6051 18.3653,17.9137 18.3653,18.2917" id="Fill-244" fill="#FFCC71"></path>
                <path d="M44.36922,15.90302 C45.12402,16.31782 46.00922,16.55682 46.95522,16.55682 L54.60302,16.55682 L61.20762,5.40242 C61.03842,5.38602 60.86502,5.37822 60.69042,5.37822 L50.60202,5.37822 L44.36922,15.90302 Z" id="Fill-245" fill="#FBFFFE"></path>
                <path d="M61.2077,5.40234 L54.6031,16.55674 L60.6905,16.55674 C63.4725,16.55674 65.7285,14.49434 65.7285,11.95134 L65.7285,9.98374 C65.7285,7.59874 63.7469,5.63894 61.2077,5.40234" id="Fill-246" fill="#B2DDC2"></path>
                <path d="M41.91862,11.95136 C41.91862,13.62936 42.90102,15.09876 44.36922,15.90296 L50.60202,5.37836 L49.89662,5.37836 C49.78382,5.37836 49.67142,5.38216 49.56002,5.38856 C49.55262,5.38856 49.54362,5.38976 49.53342,5.39096 C49.51962,5.39236 49.50322,5.39356 49.48542,5.39476 C48.82662,5.44416 48.18682,5.60976 47.60142,5.88416 C47.60002,5.88536 47.59762,5.88536 47.59642,5.88676 C46.55302,6.29376 45.20382,7.03236 43.79522,8.36516 C43.23362,8.77736 42.78342,9.29076 42.46362,9.86616 C42.10942,10.50356 41.91862,11.21676 41.91862,11.95136" id="Fill-247" fill="#B2DDC2"></path>
                <polygon id="Fill-248" fill="#FFCC71" points="68.2624 36.391 69.115 36.391 69.115 20.7576 68.2624 20.7576"></polygon>
                <polygon id="Fill-249" fill="#FFAE1F" points="33.3132 32.5658 67.763 32.5658 67.763 31.8386 33.3132 31.8386"></polygon>
                <polygon id="Fill-250" fill="#FFCC71" points="33.3132 31.8386 67.763 31.8386 67.763 31.1114 33.3132 31.1114"></polygon>
                <polygon id="Fill-251" fill="#FFAE1F" points="67.3368 36.391 68.1894 36.391 68.1894 20.7576 67.3368 20.7576"></polygon>
                <path d="M76.1819,38.51552 C76.2121,39.05812 76.2723,39.59192 76.3629,40.11512 L103.2143,40.11512 C103.3047,39.58652 103.3667,39.04932 103.3953,38.50132 C103.0333,31.29932 97.0799,25.57312 89.7895,25.57312 C82.4919,25.57312 76.5349,31.30652 76.1819,38.51552" id="Fill-252" fill="#F1B844"></path>
                <path d="M8.63914,38.3958 C8.63914,38.6422 8.64634,38.8888 8.65874,39.1318 C9.01154,31.9228 14.96854,26.1894 22.26634,26.1894 C29.55674,26.1894 35.50994,31.9158 35.87194,39.1176 C35.88434,38.8782 35.89154,38.6388 35.89154,38.3958 C35.89154,38.2468 35.88954,38.0998 35.88254,37.9524 C35.65034,30.6318 29.64194,24.7706 22.26634,24.7706 C14.88874,24.7706 8.88034,30.6318 8.64814,37.9524 C8.64114,38.0998 8.63914,38.2468 8.63914,38.3958" id="Fill-253" fill="#FFCC71"></path>
                <path d="M8.65866,39.13174 C8.68886,39.67434 8.74906,40.20814 8.83946,40.73134 L35.69106,40.73134 C35.78146,40.20294 35.84346,39.66554 35.87186,39.11754 C35.51006,31.91574 29.55666,26.18934 22.26626,26.18934 C14.96866,26.18934 9.01166,31.92294 8.65866,39.13174" id="Fill-254" fill="#F1B844"></path>
                <path d="M79.25008,38.72568 C79.25008,44.54588 83.96848,49.26408 89.78848,49.26408 C95.60888,49.26408 100.32708,44.54588 100.32708,38.72568 C100.32708,32.90548 95.60888,28.18728 89.78848,28.18728 C83.96848,28.18728 79.25008,32.90548 79.25008,38.72568" id="Fill-255" fill="#1F1C23"></path>
                <path d="M82.65808,38.72598 C82.65808,38.90818 82.66448,39.08918 82.67888,39.26798 C82.95908,35.58598 86.03468,32.68598 89.78868,32.68598 C93.54168,32.68598 96.61848,35.58598 96.89868,39.26798 C96.91308,39.08918 96.91968,38.90818 96.91968,38.72598 C96.91968,34.78758 93.72608,31.59518 89.78868,31.59518 C85.85048,31.59518 82.65808,34.78758 82.65808,38.72598" id="Fill-256" fill="#DBDBDB"></path>
                <path d="M82.67878,39.26806 L82.67878,39.27446 C82.95898,42.95546 86.03458,45.85566 89.78878,45.85566 C93.54158,45.85566 96.61838,42.95546 96.89878,39.27446 L96.89878,39.26806 C96.61838,35.58586 93.54158,32.68586 89.78878,32.68586 C86.03458,32.68586 82.95898,35.58586 82.67878,39.26806" id="Fill-257" fill="#F3F4F6"></path>
                <path d="M86.22352,38.72598 C86.22352,38.91138 86.23752,39.09358 86.26492,39.27138 C86.52672,37.56118 88.00452,36.25118 89.78872,36.25118 C91.57192,36.25118 93.04992,37.56118 93.31272,39.27138 C93.33992,39.09358 93.35412,38.91138 93.35412,38.72598 C93.35412,36.75618 91.75752,35.16058 89.78872,35.16058 C87.81912,35.16058 86.22352,36.75618 86.22352,38.72598" id="Fill-258" fill="#72727C"></path>
                <path d="M86.26492,39.27128 C86.52672,40.98148 88.00452,42.29128 89.78872,42.29128 C91.57192,42.29128 93.04992,40.98148 93.31272,39.27128 C93.04992,37.56108 91.57192,36.25128 89.78872,36.25128 C88.00452,36.25128 86.52672,37.56108 86.26492,39.27128" id="Fill-259" fill="#8E8E9A"></path>
                <path d="M11.72684,39.34188 C11.72684,45.16208 16.44504,49.88028 22.26524,49.88028 C28.08564,49.88028 32.80384,45.16208 32.80384,39.34188 C32.80384,33.52168 28.08564,28.80348 22.26524,28.80348 C16.44504,28.80348 11.72684,33.52168 11.72684,39.34188" id="Fill-260" fill="#1F1C23"></path>
                <path d="M15.13484,39.34218 C15.13484,39.52438 15.14124,39.70538 15.15564,39.88418 C15.43584,36.20218 18.51144,33.30218 22.26544,33.30218 C26.01844,33.30218 29.09524,36.20218 29.37544,39.88418 C29.38964,39.70538 29.39624,39.52438 29.39624,39.34218 C29.39624,35.40378 26.20284,32.21158 22.26544,32.21158 C18.32724,32.21158 15.13484,35.40378 15.13484,39.34218" id="Fill-261" fill="#DBDBDB"></path>
                <path d="M15.15554,39.88428 L15.15554,39.89088 C15.43574,43.57168 18.51134,46.47188 22.26554,46.47188 C26.01834,46.47188 29.09514,43.57168 29.37554,39.89088 L29.37554,39.88428 C29.09514,36.20228 26.01834,33.30208 22.26554,33.30208 C18.51134,33.30208 15.43574,36.20228 15.15554,39.88428" id="Fill-262" fill="#F3F4F6"></path>
                <path d="M18.70008,39.34218 C18.70008,39.52758 18.71428,39.70978 18.74168,39.88758 C19.00348,38.17738 20.48108,36.86738 22.26548,36.86738 C24.04868,36.86738 25.52668,38.17738 25.78948,39.88758 C25.81668,39.70978 25.83088,39.52758 25.83088,39.34218 C25.83088,37.37238 24.23428,35.77678 22.26548,35.77678 C20.29588,35.77678 18.70008,37.37238 18.70008,39.34218" id="Fill-263" fill="#72727C"></path>
                <path d="M18.74168,39.8876 C19.00348,41.5978 20.48108,42.9076 22.26548,42.9076 C24.04868,42.9076 25.52668,41.5978 25.78948,39.8876 C25.52668,38.1774 24.04868,36.8674 22.26548,36.8674 C20.48108,36.8674 19.00348,38.1774 18.74168,39.8876" id="Fill-264" fill="#8E8E9A"></path>
                <path d="M76.16296,37.779 C76.16296,38.0262 76.16996,38.2722 76.18176,38.516 C76.20276,38.0766 76.24616,37.6432 76.30836,37.2156 C76.31296,37.1874 76.31656,37.1582 76.32116,37.13 C76.33276,37.0514 76.34576,36.973 76.35956,36.8946 C76.39476,36.6778 76.43696,36.4646 76.48376,36.2514 C76.49216,36.2162 76.49916,36.1822 76.50736,36.147 C76.52376,36.0732 76.54136,36.0006 76.55996,35.9268 C76.57296,35.8718 76.58696,35.8178 76.60216,35.7628 C76.62216,35.6808 76.64436,35.5998 76.66676,35.5192 C76.68536,35.4512 76.70536,35.382 76.72636,35.314 C76.73936,35.2684 76.75336,35.2214 76.76856,35.1758 C76.77916,35.1384 76.79096,35.1008 76.80376,35.0634 C76.82136,35.0048 76.84016,34.9462 76.85996,34.8888 C76.87296,34.8478 76.88696,34.8068 76.90096,34.767 C76.91976,34.712 76.93856,34.6568 76.95856,34.6018 C76.99016,34.5138 77.02176,34.4272 77.05556,34.3406 C77.08716,34.2574 77.11876,34.1742 77.15396,34.092 C77.23256,33.8942 77.31696,33.6984 77.40716,33.504 C77.43296,33.4466 77.45976,33.3892 77.48796,33.333 C77.51016,33.2848 77.53256,33.237 77.55716,33.19 C77.56656,33.169 77.57696,33.1478 77.58876,33.1268 C77.62516,33.0518 77.66256,32.978 77.70116,32.9054 C77.71056,32.8866 77.71996,32.8666 77.73176,32.848 C77.76456,32.7824 77.79976,32.7178 77.83576,32.6534 C77.85456,32.617 77.87456,32.5808 77.89556,32.5444 C78.09356,32.1906 78.30816,31.8462 78.53656,31.5124 C78.59616,31.4246 78.65716,31.3378 78.71916,31.2522 C78.77316,31.1748 78.82936,31.1 78.88676,31.025 C78.90896,30.9946 78.93136,30.964 78.95476,30.9336 C78.98996,30.8868 79.02516,30.841 79.06256,30.7954 C79.08956,30.759 79.11876,30.7228 79.14816,30.6876 C79.19156,30.6314 79.23596,30.5762 79.28156,30.5224 C79.29216,30.5094 79.30256,30.4966 79.31436,30.4836 C79.37176,30.4134 79.43156,30.343 79.49236,30.274 C79.49956,30.2646 79.50656,30.2564 79.51476,30.2482 C79.56396,30.1908 79.61556,30.1334 79.66716,30.0772 C80.01496,29.6906 80.38396,29.3238 80.77416,28.9806 C80.82796,28.9326 80.88316,28.8846 80.93816,28.8388 C80.96516,28.8154 80.99216,28.792 81.01896,28.7698 C81.07176,28.7252 81.12456,28.6818 81.17716,28.6384 C81.19596,28.622 81.21476,28.6068 81.23456,28.5916 C81.28156,28.553 81.32956,28.5156 81.37756,28.4768 C81.41516,28.4488 81.45236,28.4182 81.49116,28.3902 C81.54156,28.3502 81.59296,28.3116 81.64576,28.273 C81.72076,28.2156 81.79696,28.1604 81.87436,28.1054 C82.01496,28.0046 82.15796,27.9062 82.30296,27.8114 C82.39556,27.7504 82.48816,27.6908 82.58316,27.6322 C82.64876,27.5912 82.71556,27.55 82.78236,27.509 C82.80576,27.495 82.82916,27.4822 82.85256,27.4668 C82.91596,27.4294 82.98016,27.393 83.04456,27.3556 C83.05756,27.3486 83.07036,27.3404 83.08436,27.3334 C83.15236,27.2948 83.22036,27.2572 83.28956,27.2198 C83.31656,27.2044 83.34336,27.1904 83.37036,27.1764 C83.43476,27.1412 83.50056,27.1072 83.56616,27.0744 C83.57556,27.0686 83.58476,27.064 83.59416,27.0604 C83.66096,27.0242 83.72896,26.9914 83.79676,26.9574 C83.82956,26.941 83.86356,26.9246 83.89756,26.9092 C83.96076,26.8776 84.02416,26.8484 84.08856,26.819 C84.43516,26.6586 84.79156,26.5122 85.15476,26.3808 C85.22376,26.3562 85.29276,26.3318 85.36196,26.3082 C85.39836,26.2954 85.43456,26.2826 85.47096,26.2708 C85.53416,26.2498 85.59636,26.2298 85.65956,26.2098 C85.68656,26.2004 85.71476,26.1922 85.74176,26.184 C85.80136,26.1654 85.86236,26.1466 85.92196,26.129 C85.97116,26.115 86.01916,26.1008 86.06836,26.0868 C86.11996,26.0716 86.17156,26.0576 86.22316,26.0434 C86.25356,26.0352 86.28516,26.027 86.31696,26.0188 C86.39076,25.999 86.46576,25.9802 86.54076,25.9626 C86.63536,25.9392 86.73036,25.917 86.82536,25.8958 C87.11476,25.8314 87.40636,25.7764 87.70276,25.7318 C87.77196,25.7202 87.84116,25.7108 87.91016,25.7014 C87.95596,25.6944 88.00056,25.6884 88.04616,25.6838 C88.09176,25.6768 88.13736,25.672 88.18316,25.6674 C88.23816,25.6592 88.29316,25.6534 88.34836,25.6486 C88.40696,25.6416 88.46676,25.6358 88.52636,25.6312 C88.59316,25.624 88.65996,25.6182 88.72676,25.6134 C88.74796,25.6112 88.76776,25.61 88.78896,25.6088 C88.87556,25.6018 88.96216,25.5972 89.05016,25.5924 C89.07696,25.5914 89.10516,25.589 89.13336,25.5876 C89.23756,25.583 89.34296,25.5794 89.44856,25.5772 C89.56196,25.5736 89.67556,25.5726 89.78936,25.5726 C89.90296,25.5726 90.01676,25.5736 90.13036,25.5772 C90.23576,25.5794 90.34216,25.583 90.44656,25.5876 C90.47236,25.589 90.49816,25.5902 90.52276,25.5924 C90.61296,25.5972 90.70196,25.6018 90.79116,25.6088 C90.80876,25.61 90.82516,25.6112 90.84156,25.6134 C90.91656,25.6182 90.99036,25.624 91.06396,25.6322 C91.11436,25.6358 91.16356,25.6404 91.21396,25.6462 C91.27836,25.6534 91.34276,25.6604 91.40616,25.6686 C91.44716,25.672 91.48696,25.6768 91.52676,25.6826 C91.57956,25.6884 91.63236,25.6956 91.68376,25.7048 C91.74136,25.7108 91.79736,25.719 91.85476,25.7284 C92.25556,25.7892 92.64916,25.8678 93.03696,25.9626 C93.08616,25.9744 93.13536,25.986 93.18356,25.999 C93.25836,26.0176 93.33216,26.0376 93.40716,26.0586 C93.40936,26.0586 93.41056,26.0586 93.41176,26.0598 C93.50796,26.0856 93.60396,26.1138 93.69896,26.143 C93.71756,26.1478 93.73516,26.1524 93.75276,26.1594 C93.84416,26.1852 93.93436,26.2146 94.02456,26.245 C94.02796,26.245 94.03156,26.2462 94.03376,26.2474 C94.12756,26.2778 94.22016,26.3094 94.31276,26.3422 C94.32796,26.3468 94.34316,26.3516 94.35736,26.3574 C94.42876,26.3832 94.50036,26.409 94.57056,26.436 C94.97936,26.5882 95.37776,26.7604 95.76436,26.9492 C95.83816,26.9854 95.91196,27.0218 95.98476,27.0592 C95.99516,27.065 96.00456,27.0698 96.01516,27.0756 C96.07256,27.1038 96.12996,27.1342 96.18596,27.1658 C96.23996,27.194 96.29496,27.2232 96.34776,27.2526 C96.37356,27.2666 96.39936,27.2806 96.42396,27.2948 C96.47196,27.3216 96.51996,27.3486 96.56696,27.3756 C96.62436,27.4084 96.68056,27.4412 96.73676,27.474 C96.75096,27.4832 96.76376,27.4904 96.77656,27.4986 C96.85056,27.5418 96.92296,27.5864 96.99436,27.6322 C97.06476,27.6754 97.13396,27.72 97.20296,27.7646 C97.25936,27.8008 97.31556,27.8372 97.37056,27.8758 C97.56156,28.0036 97.74896,28.136 97.93176,28.273 C97.98216,28.3092 98.03136,28.3468 98.07936,28.3854 C98.12156,28.416 98.16256,28.4488 98.20356,28.4804 C98.27516,28.5366 98.34516,28.594 98.41556,28.6514 C98.45656,28.6842 98.49756,28.7182 98.53736,28.7522 C98.57956,28.7874 98.62176,28.8236 98.66396,28.86 C98.70036,28.8904 98.73656,28.922 98.77296,28.9548 C98.80576,28.983 98.83976,29.0122 98.87256,29.0426 C98.91816,29.0826 98.96396,29.1248 99.00976,29.1668 C99.29076,29.4258 99.56136,29.6964 99.82036,29.9776 C99.85916,30.0186 99.89656,30.0608 99.93276,30.103 C99.97256,30.1452 100.00996,30.1874 100.04636,30.2294 C100.06516,30.2518 100.08496,30.274 100.10256,30.2952 C100.15416,30.3536 100.20336,30.4122 100.25156,30.4708 C100.26896,30.4908 100.28536,30.5094 100.30076,30.5294 C100.34056,30.5762 100.37796,30.6232 100.41556,30.67 C100.45896,30.7238 100.50216,30.7778 100.54436,30.8328 C100.59136,30.8926 100.63676,30.9524 100.68136,31.0132 C100.72236,31.066 100.76216,31.1186 100.79976,31.1726 C100.83016,31.2124 100.85836,31.2522 100.88636,31.292 C100.99896,31.4492 101.10796,31.6084 101.21216,31.7702 C101.27076,31.859 101.32696,31.9482 101.38316,32.0384 C101.43936,32.1286 101.49316,32.22 101.54716,32.3114 C101.59516,32.3922 101.64216,32.4742 101.68776,32.5562 C101.72756,32.6276 101.76756,32.6992 101.80496,32.7718 C101.84596,32.8468 101.88476,32.9218 101.92336,32.9978 C101.96556,33.0776 102.00536,33.1584 102.04376,33.2404 C102.08136,33.3154 102.11776,33.3916 102.15276,33.4676 C102.17976,33.525 102.20556,33.5826 102.23136,33.64 C102.30516,33.804 102.37556,33.9704 102.44236,34.139 C102.50096,34.2832 102.55596,34.4294 102.60876,34.576 C102.63556,34.6522 102.66256,34.7272 102.68836,34.8032 L102.70956,34.8664 C102.73876,34.952 102.76556,35.0388 102.79256,35.1242 C102.82176,35.2168 102.84996,35.3094 102.87676,35.4032 C102.90376,35.4956 102.92956,35.5894 102.95416,35.6832 C102.97876,35.7746 103.00216,35.867 103.02576,35.9596 C103.02796,35.9712 103.03036,35.983 103.03396,35.9948 C103.05376,36.078 103.07256,36.1634 103.09136,36.2478 C103.09256,36.249 103.09256,36.2502 103.09256,36.2514 C103.11816,36.3662 103.14176,36.4822 103.16396,36.5982 C103.17796,36.6672 103.19096,36.7364 103.20256,36.8054 C103.20736,36.829 103.21196,36.8536 103.21556,36.877 C103.23076,36.966 103.24596,37.055 103.25896,37.144 C103.26236,37.1674 103.26596,37.192 103.26936,37.2156 C103.27416,37.2448 103.27756,37.2742 103.28116,37.3034 C103.29296,37.3794 103.30216,37.4556 103.31156,37.533 C103.35036,37.8516 103.37836,38.175 103.39476,38.5006 C103.40776,38.2618 103.41476,38.0228 103.41476,37.779 C103.41476,37.6302 103.41236,37.4838 103.40536,37.3362 C103.40416,37.2964 103.40296,37.2554 103.39956,37.2156 C103.38776,36.891 103.36316,36.5688 103.32676,36.2514 C103.14296,34.5912 102.65916,33.0212 101.93276,31.5956 C101.78496,31.305 101.62576,31.0204 101.45816,30.7426 C99.07276,26.7944 94.73936,24.1548 89.78936,24.1548 C82.77996,24.1548 77.00776,29.4446 76.24976,36.2514 C76.21336,36.5688 76.18876,36.891 76.17696,37.2156 C76.17356,37.2554 76.17236,37.2964 76.17116,37.3362 C76.16416,37.4838 76.16296,37.6302 76.16296,37.779" id="Fill-265" fill="#FFCC71"></path>
                <path d="M65.6532,23.55976 C65.6532,23.70236 65.6314,23.83936 65.591,23.96956 C65.4714,23.32956 64.9064,22.84036 64.2328,22.84036 L61.1828,22.84036 C60.803,22.84036 60.4576,22.99576 60.2068,23.24676 C60.0514,23.40196 59.9318,23.59536 59.8638,23.81056 C59.8488,23.72896 59.8408,23.64496 59.8408,23.55976 C59.8408,23.17996 59.9962,22.83476 60.246,22.58376 C60.4968,22.33396 60.842,22.17856 61.222,22.17856 L64.2722,22.17856 C65.0318,22.17856 65.6532,22.80016 65.6532,23.55976" id="Fill-266" fill="#353F44"></path>
                <path d="M65.59108,23.96952 L65.59108,23.97072 C65.52308,24.18592 65.40368,24.37932 65.24808,24.53592 C64.99708,24.78552 64.65188,24.94092 64.27208,24.94092 L61.22188,24.94092 C60.54848,24.94092 59.98348,24.45172 59.86368,23.81172 L59.86368,23.81072 C59.93168,23.59532 60.05148,23.40212 60.20668,23.24672 C60.45768,22.99572 60.80308,22.84032 61.18288,22.84032 L64.23288,22.84032 C64.90628,22.84032 65.47128,23.32952 65.59108,23.96952" id="Fill-267" fill="#3D484C"></path>
                <path d="M24.00808,23.9874 L20.52308,23.9874 C20.34788,23.9874 20.20448,23.8442 20.20448,23.669 L20.20448,22.479 C20.20448,22.304 20.34788,22.1606 20.52308,22.1606 L24.00808,22.1606 C24.18308,22.1606 24.32648,22.304 24.32648,22.479 L24.32648,23.669 C24.32648,23.8442 24.18308,23.9874 24.00808,23.9874" id="Fill-268" fill="#FDB33A"></path>
            </g>
        </g>
    </g>
</svg>