<?xml version="1.0" encoding="UTF-8"?>
<svg width="93px" height="54px" viewBox="0 0 93 54" version="1.1" xmlns="http://www.w3.org/2000/svg" xmlns:xlink="http://www.w3.org/1999/xlink">
    <!-- Generator: Sketch 52.6 (67491) - http://www.bohemiancoding.com/sketch -->
    <title>分组 11</title>
    <desc>Created with Sketch.</desc>
    <g id="图示" stroke="none" stroke-width="1" fill="none" fill-rule="evenodd">
        <g id="交通工具" transform="translate(-249.000000, -221.000000)">
            <g id="分组-11" transform="translate(249.000000, 221.000000)">
                <path d="M91.84284,39.91564 L91.84284,42.63244 L1.06124,42.63244 L1.00504,42.55664 C1.00504,42.55664 -0.26096,40.02624 2.21484,39.91564 L91.84284,39.91564 Z" id="Fill-308" fill="#3D484C"></path>
                <path d="M85.52928,46.84816 L5.68128,46.18796 C5.68128,46.18796 3.75488,46.46356 2.92968,45.14316 L1.06128,42.63256 L91.84288,42.63256 L91.84288,42.72176 C91.84288,42.72176 92.58568,46.84816 85.52928,46.84816" id="Fill-309" fill="#353F44"></path>
                <path d="M92.17292,4.63398 C92.17292,5.13238 92.16632,6.16078 92.15472,7.56378 L33.41132,7.56378 C31.25412,7.56378 29.11812,7.91858 27.12752,8.44838 C24.65332,9.10878 22.40512,10.04138 20.62732,10.90478 C22.05032,9.21938 23.60672,7.54718 25.23592,6.06498 C26.18512,5.71178 27.19352,5.38338 28.24492,5.10278 C30.23552,4.57278 32.37152,4.21798 34.52892,4.21798 L92.15632,4.21798 C92.16792,4.35178 92.17292,4.49038 92.17292,4.63398" id="Fill-310" fill="#705602"></path>
                <path d="M92.15642,4.21796 L34.52882,4.21796 C32.37142,4.21796 30.23562,4.57276 28.24502,5.10276 C27.19362,5.38336 26.18502,5.71176 25.23582,6.06496 C28.50902,3.08896 32.08262,0.87876 35.47462,0.87876 L88.78922,0.87876 C88.78922,0.87876 91.90882,0.99276 92.15642,4.21796" id="Fill-311" fill="#8E6900"></path>
                <path d="M84.28464,7.56376 L79.38244,22.46216 L71.87044,22.59576 L68.07404,22.66356 L66.04224,22.69996 L56.38464,22.87316 L48.87264,23.00516 L46.10284,23.05476 L44.07104,23.09096 L37.58744,23.20656 L37.58244,23.20656 L37.06904,23.21656 L37.06904,23.21796 L29.55564,23.35176 L11.63984,23.35176 C12.05584,22.87316 12.59244,22.22436 12.98504,21.63516 C12.98504,21.63516 16.14604,16.20796 20.62744,10.90476 C22.40524,10.04136 24.65324,9.10876 27.12744,8.44836 C29.11804,7.91856 31.25404,7.56376 33.41144,7.56376 L36.79844,7.56376 C36.82324,7.56536 36.84964,7.56536 36.87764,7.56376 L84.28464,7.56376 Z" id="Fill-312" fill="#705602"></path>
                <path d="M92.15476,7.56376 C92.15136,8.03916 92.14656,8.55736 92.14316,9.11196 C92.11516,12.54696 92.06896,17.39816 92.02276,22.23756 C91.99296,25.25996 91.96156,28.27716 91.93516,30.94136 C91.88236,36.08796 91.84276,39.91556 91.84276,39.91556 L2.21496,39.91556 L3.37036,32.73556 C3.37036,32.73556 3.81116,30.45276 5.26856,29.18676 L9.17556,25.69396 L44.07096,25.05036 L46.10296,25.01236 L66.04216,24.64416 L68.07416,24.60616 L90.14256,24.19856 L90.14256,22.27076 L79.38396,22.46216 L84.28456,7.56376 L92.15476,7.56376 Z" id="Fill-313" fill="#705602"></path>
                <polygon id="Fill-314" fill="#FCFFFA" points="84.2863 7.55878 84.2847 7.56378 79.3823 22.46218 71.8705 22.59578 76.8173 7.56378 76.8191 7.55878"></polygon>
                <polygon id="Fill-315" fill="#C3D9CC" points="92.02272 22.23768 92.17292 22.23428 92.17292 9.13348 92.14332 9.11208 90.14272 7.63148 90.05192 7.56368 90.04532 7.55868 84.28632 7.55868 84.28472 7.56368 79.38412 22.46208 90.14272 22.27068"></polygon>
                <polygon id="Fill-316" fill="#C3D9CC" points="76.82068 7.55878 76.81908 7.56378 71.87048 22.59578 68.07408 22.66338 66.04208 22.69998 56.38448 22.87318 61.42208 7.56378 61.42388 7.55878 68.07408 7.55878 73.59368 7.55878"></polygon>
                <polygon id="Fill-317" fill="#C3D9CC" points="53.95486 7.55878 53.95326 7.56378 48.87266 23.00518 46.10286 23.05458 44.07106 23.09098 37.58746 23.20658 37.58246 23.20658 37.06906 23.21658 38.34506 19.34078 39.86846 14.70758 41.30126 10.35658 41.30126 10.35338 42.22066 7.56378 42.22226 7.55878"></polygon>
                <polygon id="Fill-318" fill="#705602" points="68.0741 7.39872 68.0741 22.66352 66.0421 22.69992 66.0421 7.39872"></polygon>
                <polygon id="Fill-319" fill="#705602" points="66.04216 24.64424 68.07416 24.60624 68.07416 39.91564 66.04216 39.91564"></polygon>
                <polygon id="Fill-320" fill="#705602" points="46.1029 7.48124 46.1029 23.05464 44.0709 23.09104 44.0709 7.48124"></polygon>
                <polygon id="Fill-321" fill="#563F00" points="44.74968 25.05028 45.42428 25.01228 45.42428 39.91568 44.74968 39.91568"></polygon>
                <polygon id="Fill-322" fill="#8E6900" points="45.4242 25.05028 46.0988 25.01228 46.0988 39.91568 45.4242 39.91568"></polygon>
                <polygon id="Fill-323" fill="#563F00" points="66.38356 24.64424 67.05816 24.60624 67.05816 39.50964 66.38356 39.50964"></polygon>
                <polygon id="Fill-324" fill="#8E6900" points="67.05818 24.64424 67.73278 24.60624 67.73278 39.50964 67.05818 39.50964"></polygon>
                <path d="M92.17292,7.27158 L92.17292,30.45278 C92.17292,30.65078 92.08052,30.82738 91.93532,30.94138 C91.82952,31.02558 91.69592,31.07498 91.55072,31.07498 L90.76332,31.07498 C90.42172,31.07498 90.14272,30.79618 90.14272,30.45278 L90.14272,7.27158 C90.14272,6.92998 90.42172,6.65098 90.76332,6.65098 L91.55072,6.65098 C91.89392,6.65098 92.17292,6.92998 92.17292,7.27158" id="Fill-325" fill="#BA3B2C"></path>
                <polygon id="Fill-326" fill="#FCFFFA" points="61.4238 7.55878 61.4222 7.56378 56.3846 22.87318 48.8726 23.00518 53.9532 7.56378 53.9548 7.55878"></polygon>
                <path d="M34.79626,7.56376 L34.65426,7.99136 C34.63786,7.99636 34.62126,8.00276 34.60466,8.00776 L29.55566,23.35176 L14.84366,23.35176 C14.84366,23.35176 20.30566,13.16256 27.12746,8.44836 C29.11806,7.91856 31.25406,7.56376 33.41146,7.56376 L34.79626,7.56376 Z" id="Fill-327" fill="#C3D9CC"></path>
                <polyline id="Stroke-328" stroke="#C3D9CC" stroke-width="0.5" points="37.5825 23.20654 37.5841 23.20654 37.5859 23.20654 37.5873 23.20654"></polyline>
                <path d="M42.22068,7.55878 L42.21908,7.56378 L41.30128,10.35338 L41.30128,10.35658 L39.86848,14.70758 L38.34508,19.34078 L37.06908,23.21658 L37.06908,23.21798 L29.55568,23.35178 L34.60468,8.00778 C34.61308,8.00618 34.65588,7.89558 34.70048,7.78498 C34.74508,7.67598 34.78788,7.56718 34.79628,7.56378 L36.79848,7.56378 C36.82328,7.56538 36.84968,7.56538 36.87768,7.56378 C36.96188,7.56038 37.04608,7.55878 37.13188,7.55878 L42.22068,7.55878 Z" id="Fill-329" fill="#FCFFFA"></path>
                <path d="M40.65262,7.56376 C40.65102,7.56216 40.64762,7.56036 40.64602,7.55876" id="Stroke-330" stroke="#C3D9CC" stroke-width="0.5"></path>
                <polyline id="Stroke-331" stroke="#C3D9CC" stroke-width="0.5" points="41.30124 10.35332 41.30124 10.35672 41.30124 10.35832"></polyline>
                <polygon id="Fill-332" fill="#353F44" points="27.4744 37.1344 71.8698 37.1344 71.8698 36.0842 27.4744 36.0842"></polygon>
                <polygon id="Fill-333" fill="#3D484C" points="27.4744 36.0842 71.8698 36.0842 71.8698 35.3764 27.4744 35.3764"></polygon>
                <path d="M32.6781,44.83332 C32.6539,45.26932 32.6055,45.69832 32.5327,46.11872 L10.9569,46.11872 C10.8841,45.69412 10.8343,45.26232 10.8115,44.82192 C11.1023,39.03492 15.8859,34.43372 21.7441,34.43372 C27.6079,34.43372 32.3947,39.04072 32.6781,44.83332" id="Fill-334" fill="#705602"></path>
                <path d="M86.95096,44.73712 C86.95096,44.93512 86.94536,45.13332 86.93536,45.32852 C86.65176,39.53592 81.86516,34.92872 76.00116,34.92872 C70.14296,34.92872 65.35936,39.53012 65.06856,45.31712 C65.05876,45.12472 65.05296,44.93252 65.05296,44.73712 C65.05296,44.61752 65.05436,44.49932 65.05996,44.38092 C65.24676,38.49852 70.07476,33.78892 76.00116,33.78892 C81.92936,33.78892 86.75716,38.49852 86.94376,44.38092 C86.94956,44.49932 86.95096,44.61752 86.95096,44.73712" id="Fill-335" fill="#8E6900"></path>
                <path d="M86.93532,45.32854 C86.91112,45.76454 86.86252,46.19354 86.78992,46.61394 L65.21392,46.61394 C65.14132,46.18934 65.09152,45.75754 65.06872,45.31714 C65.35932,39.53014 70.14312,34.92874 76.00132,34.92874 C81.86512,34.92874 86.65172,39.53594 86.93532,45.32854" id="Fill-336" fill="#705602"></path>
                <path d="M30.21276,45.00216 C30.21276,49.67896 26.42156,53.47016 21.74476,53.47016 C17.06796,53.47016 13.27676,49.67896 13.27676,45.00216 C13.27676,40.32556 17.06796,36.53416 21.74476,36.53416 C26.42156,36.53416 30.21276,40.32556 30.21276,45.00216" id="Fill-337" fill="#1F1C23"></path>
                <path d="M27.47438,45.00246 C27.47438,45.14886 27.46918,45.29426 27.45778,45.43806 C27.23258,42.47926 24.76118,40.14906 21.74458,40.14906 C18.72898,40.14906 16.25678,42.47926 16.03158,45.43806 C16.02018,45.29426 16.01478,45.14886 16.01478,45.00246 C16.01478,41.83786 18.58098,39.27266 21.74458,39.27266 C24.90918,39.27266 27.47438,41.83786 27.47438,45.00246" id="Fill-338" fill="#DBDBDB"></path>
                <path d="M27.45778,45.438 L27.45778,45.4432 C27.23258,48.401 24.76118,50.7314 21.74458,50.7314 C18.72898,50.7314 16.25678,48.401 16.03158,45.4432 L16.03158,45.438 C16.25678,42.4794 18.72898,40.149 21.74458,40.149 C24.76118,40.149 27.23258,42.4794 27.45778,45.438" id="Fill-339" fill="#F3F4F6"></path>
                <path d="M24.60954,45.00246 C24.60954,45.15146 24.59814,45.29786 24.57614,45.44066 C24.36594,44.06646 23.17834,43.01406 21.74454,43.01406 C20.31174,43.01406 19.12434,44.06646 18.91314,45.44066 C18.89114,45.29786 18.87974,45.15146 18.87974,45.00246 C18.87974,43.41966 20.16274,42.13746 21.74454,42.13746 C23.32734,42.13746 24.60954,43.41966 24.60954,45.00246" id="Fill-340" fill="#72727C"></path>
                <path d="M24.57624,45.44064 C24.36584,46.81484 23.17844,47.86724 21.74464,47.86724 C20.31184,47.86724 19.12424,46.81484 18.91304,45.44064 C19.12424,44.06644 20.31184,43.01404 21.74464,43.01404 C23.17844,43.01404 24.36584,44.06644 24.57624,45.44064" id="Fill-341" fill="#8E8E9A"></path>
                <path d="M84.4699,45.49738 C84.4699,50.17418 80.6787,53.96538 76.0019,53.96538 C71.3253,53.96538 67.5339,50.17418 67.5339,45.49738 C67.5339,40.82058 71.3253,37.02938 76.0019,37.02938 C80.6787,37.02938 84.4699,40.82058 84.4699,45.49738" id="Fill-342" fill="#1F1C23"></path>
                <path d="M81.73152,45.49768 C81.73152,45.64388 81.72632,45.78948 81.71492,45.93328 C81.48972,42.97448 79.01832,40.64428 76.00192,40.64428 C72.98612,40.64428 70.51392,42.97448 70.28872,45.93328 C70.27732,45.78948 70.27212,45.64388 70.27212,45.49768 C70.27212,42.33308 72.83812,39.76788 76.00192,39.76788 C79.16632,39.76788 81.73152,42.33308 81.73152,45.49768" id="Fill-343" fill="#DBDBDB"></path>
                <path d="M81.71492,45.93322 L81.71492,45.93842 C81.48972,48.89622 79.01832,51.22662 76.00192,51.22662 C72.98612,51.22662 70.51392,48.89622 70.28872,45.93842 L70.28872,45.93322 C70.51392,42.97462 72.98612,40.64422 76.00192,40.64422 C79.01832,40.64422 81.48972,42.97462 81.71492,45.93322" id="Fill-344" fill="#F3F4F6"></path>
                <path d="M78.86668,45.49768 C78.86668,45.64668 78.85528,45.79308 78.83328,45.93588 C78.62308,44.56168 77.43548,43.50908 76.00188,43.50908 C74.56888,43.50908 73.38148,44.56168 73.17028,45.93588 C73.14828,45.79308 73.13688,45.64668 73.13688,45.49768 C73.13688,43.91488 74.41988,42.63268 76.00188,42.63268 C77.58448,42.63268 78.86668,43.91488 78.86668,45.49768" id="Fill-345" fill="#72727C"></path>
                <path d="M78.83338,45.93586 C78.62298,47.31006 77.43558,48.36246 76.00178,48.36246 C74.56898,48.36246 73.38138,47.31006 73.17018,45.93586 C73.38138,44.56166 74.56898,43.50906 76.00178,43.50906 C77.43558,43.50906 78.62298,44.56166 78.83338,45.93586" id="Fill-346" fill="#8E8E9A"></path>
                <path d="M32.69344,44.24152 C32.69344,44.44012 32.68784,44.63792 32.67844,44.83372 C32.66144,44.48072 32.62664,44.13232 32.57684,43.78872 C32.57284,43.76612 32.57004,43.74252 32.56644,43.72012 C32.55704,43.65692 32.54664,43.59392 32.53524,43.53072 C32.50704,43.35672 32.47324,43.18532 32.43544,43.01392 C32.42884,42.98572 32.42324,42.95832 32.41664,42.93012 C32.40344,42.87092 32.38944,42.81252 32.37444,42.75332 C32.36404,42.70892 32.35264,42.66572 32.34044,42.62132 C32.32444,42.55552 32.30644,42.49052 32.28864,42.42552 C32.27364,42.37092 32.25764,42.31552 32.24064,42.26092 C32.23044,42.22412 32.21904,42.18652 32.20684,42.14992 C32.19824,42.11972 32.18904,42.08952 32.17844,42.05932 C32.16444,42.01232 32.14924,41.96532 32.13344,41.91912 C32.12304,41.88632 32.11164,41.85332 32.10044,41.82112 C32.08524,41.77692 32.07024,41.73272 32.05424,41.68852 C32.02884,41.61792 32.00344,41.54832 31.97624,41.47852 C31.95084,41.41172 31.92524,41.34492 31.89704,41.27892 C31.83404,41.11992 31.76624,40.96272 31.69364,40.80652 C31.67304,40.76032 31.65144,40.71412 31.62884,40.66892 C31.61084,40.63032 31.59304,40.59172 31.57324,40.55412 C31.56564,40.53732 31.55724,40.52032 31.54784,40.50332 C31.51864,40.44312 31.48864,40.38372 31.45744,40.32532 C31.44984,40.31032 31.44244,40.29432 31.43304,40.27912 C31.40664,40.22652 31.37844,40.17472 31.34924,40.12292 C31.33404,40.09372 31.31824,40.06452 31.30124,40.03552 C31.14204,39.75112 30.96984,39.47432 30.78624,39.20612 C30.73824,39.13552 30.68924,39.06592 30.63924,38.99712 C30.59604,38.93492 30.55084,38.87472 30.50484,38.81452 C30.48684,38.78992 30.46904,38.76552 30.45024,38.74112 C30.42204,38.70332 30.39364,38.66652 30.36364,38.62992 C30.34184,38.60072 30.31844,38.57152 30.29484,38.54332 C30.26004,38.49812 30.22424,38.45392 30.18744,38.41052 C30.17904,38.40012 30.17064,38.38992 30.16104,38.37952 C30.11504,38.32312 30.06704,38.26652 30.01804,38.21112 C30.01244,38.20352 30.00664,38.19692 30.00024,38.19032 C29.96064,38.14412 29.91924,38.09812 29.87784,38.05292 C29.59824,37.74212 29.30164,37.44752 28.98824,37.17172 C28.94484,37.13312 28.90064,37.09452 28.85624,37.05792 C28.83484,37.03892 28.81304,37.02012 28.79144,37.00232 C28.74904,36.96652 28.70664,36.93172 28.66424,36.89672 C28.64924,36.88352 28.63424,36.87132 28.61824,36.85912 C28.58064,36.82812 28.54204,36.79792 28.50324,36.76692 C28.47324,36.74432 28.44324,36.71992 28.41204,36.69732 C28.37164,36.66532 28.33024,36.63412 28.28784,36.60312 C28.22744,36.55692 28.16644,36.51272 28.10424,36.46852 C27.99124,36.38752 27.87644,36.30852 27.75964,36.23232 C27.68524,36.18312 27.61084,36.13532 27.53464,36.08812 C27.48184,36.05532 27.42824,36.02232 27.37464,35.98932 C27.35584,35.97812 27.33704,35.96772 27.31824,35.95552 C27.26724,35.92532 27.21544,35.89612 27.16384,35.86612 C27.15344,35.86032 27.14304,35.85372 27.13164,35.84812 C27.07704,35.81712 27.02264,35.78692 26.96704,35.75692 C26.94524,35.74452 26.92364,35.73332 26.90204,35.72192 C26.85024,35.69372 26.79764,35.66652 26.74484,35.64012 C26.73724,35.63532 26.72984,35.63172 26.72224,35.62892 C26.66844,35.59972 26.61404,35.57332 26.55944,35.54592 C26.53304,35.53272 26.50584,35.51952 26.47844,35.50732 C26.42764,35.48192 26.37684,35.45832 26.32504,35.43492 C26.04644,35.30592 25.76004,35.18812 25.46844,35.08292 C25.41284,35.06292 25.35724,35.04332 25.30164,35.02452 C25.27244,35.01412 25.24344,35.00372 25.21424,34.99432 C25.16324,34.97732 25.11344,34.96132 25.06264,34.94532 C25.04084,34.93772 25.01844,34.93112 24.99664,34.92472 C24.94864,34.90952 24.89964,34.89452 24.85184,34.88032 C24.81224,34.86912 24.77364,34.85772 24.73404,34.84652 C24.69264,34.83412 24.65124,34.82292 24.60984,34.81172 C24.58524,34.80512 24.55984,34.79852 24.53444,34.79192 C24.47524,34.77592 24.41484,34.76092 24.35464,34.74672 C24.27844,34.72792 24.20204,34.70992 24.12584,34.69292 C23.89344,34.64132 23.65904,34.59692 23.42084,34.56132 C23.36524,34.55192 23.30984,34.54432 23.25424,34.53672 C23.21744,34.53112 23.18164,34.52632 23.14504,34.52272 C23.10824,34.51692 23.07164,34.51312 23.03484,34.50952 C22.99064,34.50292 22.94624,34.49812 22.90204,34.49452 C22.85504,34.48872 22.80704,34.48392 22.75904,34.48032 C22.70544,34.47472 22.65164,34.46992 22.59804,34.46612 C22.58104,34.46432 22.56504,34.46332 22.54804,34.46232 C22.47844,34.45672 22.40884,34.45312 22.33824,34.44932 C22.31644,34.44832 22.29384,34.44632 22.27144,34.44552 C22.18764,34.44172 22.10284,34.43892 22.01824,34.43692 C21.92684,34.43412 21.83544,34.43312 21.74404,34.43312 C21.65284,34.43312 21.56144,34.43412 21.47024,34.43692 C21.38544,34.43892 21.29984,34.44172 21.21604,34.44552 C21.19544,34.44632 21.17464,34.44732 21.15484,34.44932 C21.08244,34.45312 21.01084,34.45672 20.93924,34.46232 C20.92524,34.46332 20.91204,34.46432 20.89884,34.46612 C20.83864,34.46992 20.77924,34.47472 20.71984,34.48132 C20.67944,34.48392 20.63984,34.48772 20.59944,34.49252 C20.54764,34.49812 20.49584,34.50392 20.44504,34.51032 C20.41204,34.51312 20.38024,34.51692 20.34804,34.52172 C20.30584,34.52632 20.26344,34.53212 20.22204,34.53952 C20.17584,34.54432 20.13064,34.55092 20.08444,34.55832 C19.76264,34.60732 19.44624,34.67052 19.13464,34.74672 C19.09504,34.75612 19.05564,34.76552 19.01704,34.77592 C18.95664,34.79092 18.89744,34.80692 18.83724,34.82392 C18.83524,34.82392 18.83444,34.82392 18.83344,34.82492 C18.75624,34.84552 18.67904,34.86812 18.60264,34.89172 C18.58764,34.89552 18.57344,34.89932 18.55944,34.90472 C18.48604,34.92552 18.41364,34.94912 18.34104,34.97352 C18.33824,34.97352 18.33544,34.97452 18.33344,34.97532 C18.25824,34.99992 18.18384,35.02532 18.10944,35.05172 C18.09724,35.05552 18.08504,35.05932 18.07364,35.06392 C18.01624,35.08472 17.95884,35.10532 17.90224,35.12712 C17.57384,35.24952 17.25364,35.38772 16.94304,35.53932 C16.88384,35.56852 16.82444,35.59772 16.76604,35.62792 C16.75764,35.63252 16.75004,35.63632 16.74164,35.64112 C16.69544,35.66352 16.64944,35.68812 16.60424,35.71352 C16.56084,35.73612 16.51664,35.75952 16.47424,35.78312 C16.45364,35.79452 16.43284,35.80572 16.41304,35.81712 C16.37444,35.83872 16.33584,35.86032 16.29824,35.88212 C16.25204,35.90832 16.20684,35.93472 16.16164,35.96112 C16.15044,35.96852 16.14004,35.97432 16.12984,35.98092 C16.07044,36.01572 16.01204,36.05152 15.95464,36.08812 C15.89804,36.12312 15.84264,36.15872 15.78704,36.19452 C15.74184,36.22372 15.69664,36.25292 15.65244,36.28392 C15.49904,36.38672 15.34824,36.49292 15.20164,36.60312 C15.16104,36.63232 15.12144,36.66232 15.08284,36.69352 C15.04904,36.71792 15.01604,36.74432 14.98304,36.76972 C14.92564,36.81492 14.86924,36.86112 14.81264,36.90712 C14.77984,36.93352 14.74684,36.96092 14.71484,36.98812 C14.68084,37.01652 14.64704,37.04572 14.61324,37.07472 C14.58404,37.09932 14.55484,37.12472 14.52564,37.15092 C14.49924,37.17372 14.47204,37.19712 14.44564,37.22152 C14.40884,37.25372 14.37224,37.28752 14.33544,37.32132 C14.10944,37.52932 13.89204,37.74692 13.68404,37.97292 C13.65284,38.00572 13.62284,38.03972 13.59364,38.07352 C13.56164,38.10752 13.53144,38.14132 13.50224,38.17512 C13.48724,38.19312 13.47124,38.21112 13.45704,38.22792 C13.41564,38.27492 13.37624,38.32212 13.33764,38.36912 C13.32344,38.38512 13.31024,38.40012 13.29804,38.41632 C13.26604,38.45392 13.23584,38.49152 13.20584,38.52912 C13.17104,38.57252 13.13604,38.61592 13.10224,38.66012 C13.06444,38.70812 13.02784,38.75612 12.99204,38.80492 C12.95924,38.84732 12.92704,38.88972 12.89704,38.93312 C12.87264,38.96512 12.84984,38.99712 12.82724,39.02912 C12.73704,39.15512 12.64944,39.28332 12.56564,39.41312 C12.51844,39.48472 12.47324,39.55632 12.42824,39.62872 C12.38304,39.70132 12.33964,39.77472 12.29644,39.84812 C12.25784,39.91312 12.22004,39.97892 12.18344,40.04492 C12.15144,40.10232 12.11944,40.15972 12.08924,40.21812 C12.05624,40.27832 12.02524,40.33852 11.99424,40.39972 C11.96024,40.46372 11.92824,40.52872 11.89724,40.59472 C11.86704,40.65492 11.83784,40.71612 11.80964,40.77732 C11.78804,40.82332 11.76724,40.86952 11.74664,40.91572 C11.68724,41.04732 11.63084,41.18112 11.57704,41.31652 C11.53004,41.43252 11.48584,41.55012 11.44344,41.66772 C11.42184,41.72892 11.40024,41.78932 11.37944,41.85032 C11.37384,41.86732 11.36824,41.88432 11.36264,41.90132 C11.33904,41.96992 11.31744,42.03972 11.29564,42.10832 C11.27224,42.18272 11.24964,42.25712 11.22784,42.33252 C11.20624,42.40672 11.18544,42.48212 11.16584,42.55752 C11.14604,42.63092 11.12724,42.70512 11.10844,42.77952 C11.10644,42.78892 11.10464,42.79852 11.10184,42.80792 C11.08564,42.87472 11.07064,42.94332 11.05564,43.01112 C11.05464,43.01212 11.05464,43.01292 11.05464,43.01392 C11.03404,43.10632 11.01504,43.19952 10.99724,43.29252 C10.98604,43.34812 10.97564,43.40372 10.96624,43.45932 C10.96244,43.47812 10.95864,43.49792 10.95584,43.51672 C10.94364,43.58812 10.93124,43.65972 10.92104,43.73132 C10.91824,43.75012 10.91544,43.76992 10.91264,43.78872 C10.90884,43.81232 10.90584,43.83592 10.90304,43.85932 C10.89364,43.92052 10.88624,43.98172 10.87864,44.04392 C10.84764,44.29992 10.82504,44.55972 10.81184,44.82152 C10.80144,44.62932 10.79584,44.43732 10.79584,44.24152 C10.79584,44.12192 10.79764,44.00432 10.80324,43.88572 C10.80424,43.85372 10.80524,43.82072 10.80804,43.78872 C10.81744,43.52792 10.83724,43.26912 10.86644,43.01392 C11.01424,41.68012 11.40304,40.41852 11.98664,39.27292 C12.10524,39.03952 12.23324,38.81072 12.36804,38.58752 C14.28464,35.41512 17.76684,33.29412 21.74404,33.29412 C27.37664,33.29412 32.01464,37.54452 32.62384,43.01392 C32.65304,43.26912 32.67264,43.52792 32.68224,43.78872 C32.68504,43.82072 32.68584,43.85372 32.68684,43.88572 C32.69264,44.00432 32.69344,44.12192 32.69344,44.24152" id="Fill-347" fill="#8E6900"></path>
                <path d="M23.30418,32.6791 L20.85738,32.6791 C20.59298,32.6791 20.37878,32.4647 20.37878,32.2003 L20.37878,31.0669 C20.37878,30.8027 20.59298,30.5883 20.85738,30.5883 L23.30418,30.5883 C23.56858,30.5883 23.78298,30.8027 23.78298,31.0669 L23.78298,32.2003 C23.78298,32.4647 23.56858,32.6791 23.30418,32.6791" id="Fill-348" fill="#FFAA00"></path>
                <path d="M79.38406,22.4621 L84.28466,7.5637 L79.38246,22.4621 L71.87046,22.5957 L68.07406,22.6635 L66.04226,22.6999 L56.38446,22.8731 L48.87266,23.0051 L46.10286,23.0547 L44.07106,23.0911 L37.58746,23.2065 L37.58246,23.2065 L37.06906,23.2165 L37.06906,23.2181 L29.55566,23.3517 L11.63986,23.3517 C11.26686,23.7777 10.99126,24.0699 10.99126,24.0699 L9.17566,25.6941 L44.07106,25.0503 L46.10286,25.0123 L66.04226,24.6443 L68.07406,24.6063 L90.14266,24.1985 L90.14266,22.2707 L79.38406,22.4621 Z" id="Fill-349" fill="#8E6900"></path>
                <path d="M7.96248,32.74452 C7.38068,34.24552 6.35048,35.24552 5.66168,34.97852 C4.97268,34.71152 4.88588,33.27812 5.46768,31.77752 C6.04948,30.27652 7.07968,29.27632 7.76848,29.54352 C8.45748,29.81052 8.54428,31.24372 7.96248,32.74452" id="Fill-350" fill="#FCFFFA"></path>
                <path d="M42.22068,27.38876 C42.22068,27.52136 42.20028,27.64836 42.16288,27.76916 C42.05168,27.17496 41.52688,26.72076 40.90168,26.72076 L38.06908,26.72076 C37.71628,26.72076 37.39568,26.86496 37.16248,27.09796 C37.01828,27.24236 36.90708,27.42196 36.84408,27.62176 C36.83008,27.54596 36.82268,27.46796 36.82268,27.38876 C36.82268,27.03596 36.96688,26.71536 37.19888,26.48236 C37.43188,26.25036 37.75268,26.10596 38.10528,26.10596 L40.93788,26.10596 C41.64348,26.10596 42.22068,26.68316 42.22068,27.38876" id="Fill-351" fill="#353F44"></path>
                <path d="M42.16296,27.76924 L42.16296,27.77024 C42.09996,27.97024 41.98876,28.14984 41.84436,28.29524 C41.61136,28.52724 41.29076,28.67144 40.93796,28.67144 L38.10536,28.67144 C37.47996,28.67144 36.95516,28.21724 36.84396,27.62284 L36.84396,27.62184 C36.90716,27.42184 37.01816,27.24224 37.16256,27.09804 C37.39556,26.86504 37.71636,26.72064 38.06896,26.72064 L40.90156,26.72064 C41.52696,26.72064 42.05176,27.17484 42.16296,27.76924" id="Fill-352" fill="#3D484C"></path>
                <path d="M65.06862,26.7207 C65.06862,26.8533 65.04822,26.9803 65.01082,27.1011 C64.89982,26.5069 64.37482,26.0525 63.74962,26.0525 L60.91702,26.0525 C60.56422,26.0525 60.24362,26.1969 60.01042,26.4299 C59.86622,26.5743 59.75502,26.7539 59.69202,26.9537 C59.67802,26.8779 59.67062,26.7999 59.67062,26.7207 C59.67062,26.3679 59.81482,26.0473 60.04682,25.8143 C60.27982,25.5823 60.60062,25.4379 60.95322,25.4379 L63.78582,25.4379 C64.49142,25.4379 65.06862,26.0151 65.06862,26.7207" id="Fill-353" fill="#353F44"></path>
                <path d="M65.01092,27.10116 L65.01092,27.10216 C64.94792,27.30216 64.83672,27.48176 64.69232,27.62696 C64.45932,27.85916 64.13872,28.00336 63.78592,28.00336 L60.95332,28.00336 C60.32792,28.00336 59.80312,27.54896 59.69192,26.95476 L59.69192,26.95376 C59.75512,26.75376 59.86612,26.57416 60.01052,26.42996 C60.24352,26.19696 60.56432,26.05256 60.91692,26.05256 L63.74952,26.05256 C64.37492,26.05256 64.89972,26.50676 65.01092,27.10116" id="Fill-354" fill="#3D484C"></path>
                <path d="M12.76492,18.3873 L12.76492,22.8859 C12.76492,23.8529 13.55632,24.6443 14.52332,24.6443 L14.52332,16.6289 C14.03952,16.6289 13.60032,16.8265 13.28152,17.1455 C12.96232,17.4637 12.76492,17.9035 12.76492,18.3873" id="Fill-355" fill="#4F5150"></path>
            </g>
        </g>
    </g>
</svg>