<?xml version="1.0" encoding="UTF-8"?>
<svg width="95px" height="55px" viewBox="0 0 95 55" version="1.1" xmlns="http://www.w3.org/2000/svg" xmlns:xlink="http://www.w3.org/1999/xlink">
    <!-- Generator: Sketch 52.6 (67491) - http://www.bohemiancoding.com/sketch -->
    <title>分组 17</title>
    <desc>Created with Sketch.</desc>
    <g id="图示" stroke="none" stroke-width="1" fill="none" fill-rule="evenodd">
        <g id="交通工具" transform="translate(-549.000000, -381.000000)">
            <g id="分组-17" transform="translate(549.000000, 381.000000)">
                <path d="M14.17276,23.16554 L11.42636,23.16554 L15.83636,7.20714 C17.98596,7.05934 20.17776,6.97614 22.37896,6.97614 L23.36676,6.97614 L18.90356,23.12454 L14.17276,23.16554 Z M93.99076,8.29114 C93.90116,7.82774 93.79676,7.38934 93.68056,6.97754 C93.58796,6.64994 93.48896,6.33834 93.38216,6.04134 C93.18136,5.48274 92.95696,4.97434 92.71536,4.51474 L11.46736,4.51474 C10.51656,5.46034 9.56456,6.60774 8.65336,8.00214 C6.47996,11.32414 4.52976,16.04474 3.33876,22.75234 C3.31516,22.88954 3.29136,23.02694 3.26756,23.16554 C3.12876,23.98014 3.00096,24.82254 2.88476,25.69534 C2.33936,29.81494 2.05936,34.59874 2.14516,40.15114 L94.05156,40.15114 C94.05156,40.15114 94.09256,36.22694 94.14656,30.94934 C94.17436,28.21734 94.20596,25.12494 94.23636,22.02474 L94.23636,22.02334 C94.27336,18.16234 94.31016,14.29374 94.33936,11.10754 C94.27616,10.07514 94.15576,9.13874 93.99076,8.29114 Z" id="Fill-356" fill="#D9E0E6"></path>
                <path d="M94.05206,40.1507 L94.05206,42.9367 L0.96246,42.9367 L0.90506,42.8589 C0.90506,42.8589 -0.39334,40.2641 2.14566,40.1507 L94.05206,40.1507 Z" id="Fill-357" fill="#42423A"></path>
                <path d="M87.57802,47.2595 L5.69982,46.5825 C5.69982,46.5825 3.72462,46.8651 2.87842,45.5111 L0.96242,42.9367 L94.05202,42.9367 L94.05202,43.0281 C94.05202,43.0281 94.81382,47.2595 87.57802,47.2595" id="Fill-358" fill="#353535"></path>
                <polygon id="Fill-359" fill="#FCFFFA" points="86.30342 6.9712 86.30182 6.9762 81.27482 22.2534 73.57202 22.3906 78.64462 6.9762 78.64642 6.9712"></polygon>
                <path d="M94.39112,12.85774 L94.39112,22.02014 L94.23672,22.02394 L92.30892,22.05694 L81.27692,22.25354 L86.30252,6.97674 L86.30352,6.97134 L92.20852,6.97134 L92.21512,6.97674 L92.30892,7.04534 L93.99112,8.29054 C94.15612,9.13814 94.27632,10.07434 94.33952,11.10694 C94.37392,11.66274 94.39112,12.24514 94.39112,12.85774" id="Fill-360" fill="#C3D9CC"></path>
                <polygon id="Fill-361" fill="#C3D9CC" points="78.64794 6.9712 78.64634 6.9762 73.57194 22.3906 69.67894 22.4598 67.59554 22.4972 57.69234 22.675 62.85814 6.9762 62.85974 6.9712 69.67894 6.9712 75.33894 6.9712"></polygon>
                <polygon id="Fill-362" fill="#C3D9CC" points="55.20146 6.97082 55.19866 6.97602 49.98966 22.81022 47.14966 22.86042 45.06606 22.89882 45.06606 6.97082"></polygon>
                <polygon id="Fill-363" fill="#D9E0E6" points="69.679 6.80714 69.679 22.45994 67.5956 22.49714 67.5956 6.80714"></polygon>
                <path d="M94.39112,12.85774 L94.39112,30.44674 C94.39112,30.65014 94.29592,30.83094 94.14672,30.94854 C94.03852,31.03434 93.90132,31.08594 93.75212,31.08594 L92.94532,31.08594 C92.59532,31.08594 92.30892,30.79934 92.30892,30.44674 L92.30892,6.67694 C92.30892,6.32714 92.59532,6.04054 92.94532,6.04054 L93.38232,6.04054 C93.48932,6.33754 93.58832,6.64914 93.68072,6.97674 C93.79692,7.38854 93.90132,7.82714 93.99112,8.29054 C94.15612,9.13814 94.27632,10.07434 94.33952,11.10694 C94.37392,11.66274 94.39112,12.24514 94.39112,12.85774" id="Fill-364" fill="#BA3B2C"></path>
                <polygon id="Fill-365" fill="#FCFFFA" points="62.85966 6.9712 62.85806 6.9762 57.69226 22.675 49.98926 22.8102 55.19906 6.9762 55.20086 6.9712"></polygon>
                <polyline id="Stroke-366" stroke="#C3D9CC" stroke-width="0.5" points="38.4122 23.01692 38.414 23.01692 38.4158 23.01692 38.4172 23.01692"></polyline>
                <polyline id="Stroke-367" stroke="#C3D9CC" stroke-width="0.5" points="42.22568 9.83684 42.22568 9.84024 42.22568 9.84184"></polyline>
                <path d="M33.3833,45.19348 C33.3585,45.64048 33.3087,46.08048 33.2343,46.51148 L11.1097,46.51148 C11.0353,46.07608 10.9841,45.63328 10.9607,45.18168 C11.2587,39.24768 16.1641,34.52948 22.1711,34.52948 C28.1843,34.52948 33.0925,39.25348 33.3833,45.19348" id="Fill-368" fill="#D9E0E6"></path>
                <path d="M89.03584,45.09484 C89.03584,45.29784 89.03004,45.50084 89.01984,45.70104 C88.72904,39.76124 83.82084,35.03704 77.80764,35.03704 C71.80064,35.03704 66.89544,39.75544 66.59724,45.68964 C66.58704,45.49204 66.58124,45.29504 66.58124,45.09484 C66.58124,44.97204 66.58244,44.85064 66.58844,44.72944 C66.77984,38.69744 71.73064,33.86804 77.80764,33.86804 C83.88644,33.86804 88.83724,38.69744 89.02864,44.72944 C89.03444,44.85064 89.03584,44.97204 89.03584,45.09484" id="Fill-369" fill="#F4F4F4"></path>
                <path d="M89.01982,45.7011 C88.99502,46.1483 88.94522,46.5883 88.87082,47.0193 L66.74622,47.0193 C66.67182,46.5837 66.62062,46.1411 66.59722,45.6895 C66.89542,39.7553 71.80062,35.0371 77.80762,35.0371 C83.82082,35.0371 88.72902,39.7613 89.01982,45.7011" id="Fill-370" fill="#D9E0E6"></path>
                <path d="M30.85518,45.36652 C30.85518,50.16212 26.96778,54.04992 22.17198,54.04992 C17.37618,54.04992 13.48878,50.16212 13.48878,45.36652 C13.48878,40.57092 17.37618,36.68332 22.17198,36.68332 C26.96778,36.68332 30.85518,40.57092 30.85518,45.36652" id="Fill-371" fill="#1F1C23"></path>
                <path d="M28.04716,45.36692 C28.04716,45.51692 28.04196,45.66612 28.03016,45.81332 C27.79916,42.77952 25.26496,40.38992 22.17176,40.38992 C19.07936,40.38992 16.54436,42.77952 16.31336,45.81332 C16.30156,45.66612 16.29636,45.51692 16.29636,45.36692 C16.29636,42.12172 18.92756,39.49132 22.17176,39.49132 C25.41696,39.49132 28.04716,42.12172 28.04716,45.36692" id="Fill-372" fill="#DBDBDB"></path>
                <path d="M28.03018,45.8134 L28.03018,45.8188 C27.79918,48.8518 25.26498,51.2414 22.17178,51.2414 C19.07938,51.2414 16.54438,48.8518 16.31338,45.8188 L16.31338,45.8134 C16.54438,42.7796 19.07938,40.39 22.17178,40.39 C25.26498,40.39 27.79918,42.7796 28.03018,45.8134" id="Fill-373" fill="#F3F4F6"></path>
                <path d="M25.10948,45.36692 C25.10948,45.51972 25.09768,45.66972 25.07528,45.81612 C24.85968,44.40692 23.64188,43.32792 22.17188,43.32792 C20.70248,43.32792 19.48488,44.40692 19.26828,45.81612 C19.24588,45.66972 19.23408,45.51972 19.23408,45.36692 C19.23408,43.74392 20.54968,42.42912 22.17188,42.42912 C23.79488,42.42912 25.10948,43.74392 25.10948,45.36692" id="Fill-374" fill="#72727C"></path>
                <path d="M25.0753,45.81614 C24.8597,47.22534 23.6419,48.30454 22.1717,48.30454 C20.7025,48.30454 19.4849,47.22534 19.2683,45.81614 C19.4849,44.40694 20.7025,43.32794 22.1717,43.32794 C23.6419,43.32794 24.8597,44.40694 25.0753,45.81614" id="Fill-375" fill="#8E8E9A"></path>
                <path d="M86.4917,45.87434 C86.4917,50.66994 82.6043,54.55754 77.8085,54.55754 C73.0127,54.55754 69.1253,50.66994 69.1253,45.87434 C69.1253,41.07854 73.0127,37.19114 77.8085,37.19114 C82.6043,37.19114 86.4917,41.07854 86.4917,45.87434" id="Fill-376" fill="#1F1C23"></path>
                <path d="M83.68388,45.87454 C83.68388,46.02474 83.67848,46.17374 83.66668,46.32114 C83.43588,43.28734 80.90148,40.89774 77.80828,40.89774 C74.71608,40.89774 72.18088,43.28734 71.94988,46.32114 C71.93828,46.17374 71.93288,46.02474 71.93288,45.87454 C71.93288,42.62954 74.56408,39.99914 77.80828,39.99914 C81.05348,39.99914 83.68388,42.62954 83.68388,45.87454" id="Fill-377" fill="#DBDBDB"></path>
                <path d="M83.6667,46.3212 L83.6667,46.3266 C83.4359,49.3596 80.9015,51.7492 77.8083,51.7492 C74.7161,51.7492 72.1809,49.3596 71.9499,46.3266 L71.9499,46.3212 C72.1809,43.2874 74.7161,40.8978 77.8083,40.8978 C80.9015,40.8978 83.4359,43.2874 83.6667,46.3212" id="Fill-378" fill="#F3F4F6"></path>
                <path d="M80.746,45.87454 C80.746,46.02734 80.7344,46.17754 80.712,46.32394 C80.4962,44.91474 79.2786,43.83554 77.8084,43.83554 C76.339,43.83554 75.1214,44.91474 74.9048,46.32394 C74.8824,46.17754 74.8706,46.02734 74.8706,45.87454 C74.8706,44.25174 76.1862,42.93694 77.8084,42.93694 C79.4314,42.93694 80.746,44.25174 80.746,45.87454" id="Fill-379" fill="#72727C"></path>
                <path d="M80.71202,46.32394 C80.49622,47.73314 79.27862,48.81214 77.80822,48.81214 C76.33902,48.81214 75.12142,47.73314 74.90482,46.32394 C75.12142,44.91474 76.33902,43.83554 77.80822,43.83554 C79.27862,43.83554 80.49622,44.91474 80.71202,46.32394" id="Fill-380" fill="#8E8E9A"></path>
                <path d="M33.39892,44.58664 C33.39892,44.79044 33.39332,44.99304 33.38352,45.19384 C33.36612,44.83184 33.33032,44.47444 33.27912,44.12224 C33.27552,44.09904 33.27252,44.07484 33.26872,44.05184 C33.25912,43.98724 33.24832,43.92244 33.23672,43.85764 C33.20792,43.67924 33.17312,43.50344 33.13452,43.32784 C33.12772,43.29884 33.12192,43.27084 33.11512,43.24184 C33.10172,43.18124 33.08712,43.12124 33.07172,43.06044 C33.06112,43.01504 33.04952,42.97064 33.03692,42.92524 C33.02052,42.85764 33.00232,42.79104 32.98392,42.72444 C32.96852,42.66844 32.95212,42.61164 32.93472,42.55564 C32.92412,42.51784 32.91232,42.47924 32.89992,42.44164 C32.89112,42.41064 32.88152,42.37984 32.87092,42.34904 C32.85652,42.30064 32.84092,42.25244 32.82452,42.20524 C32.81392,42.17144 32.80252,42.13764 32.79092,42.10484 C32.77532,42.05924 32.75992,42.01404 32.74352,41.96864 C32.71752,41.89624 32.69132,41.82464 32.66332,41.75344 C32.63732,41.68484 32.61132,41.61624 32.58232,41.54884 C32.51772,41.38544 32.44812,41.22424 32.37372,41.06424 C32.35272,41.01684 32.33032,40.96944 32.30712,40.92324 C32.28872,40.88344 32.27032,40.84404 32.25032,40.80544 C32.24252,40.78804 32.23392,40.77064 32.22412,40.75324 C32.19432,40.69144 32.16332,40.63084 32.13152,40.57084 C32.12372,40.55544 32.11612,40.53904 32.10632,40.52364 C32.07932,40.46944 32.05052,40.41624 32.02032,40.36344 C32.00492,40.33324 31.98852,40.30344 31.97112,40.27364 C31.80812,39.98204 31.63152,39.69824 31.44332,39.42324 C31.39412,39.35064 31.34392,39.27924 31.29272,39.20864 C31.24812,39.14504 31.20192,39.08324 31.15452,39.02144 C31.13632,38.99644 31.11792,38.97144 31.09852,38.94624 C31.06972,38.90744 31.04072,38.86984 31.00992,38.83244 C30.98752,38.80244 30.96332,38.77244 30.93932,38.74344 C30.90352,38.69724 30.86692,38.65184 30.82912,38.60744 C30.82052,38.59684 30.81172,38.58604 30.80232,38.57544 C30.75492,38.51744 30.70572,38.45964 30.65552,38.40264 C30.64972,38.39504 30.64392,38.38824 30.63712,38.38164 C30.59652,38.33404 30.55412,38.28684 30.51152,38.24064 C30.22492,37.92204 29.92072,37.61984 29.59952,37.33704 C29.55492,37.29744 29.50972,37.25784 29.46432,37.22024 C29.44212,37.20084 29.41972,37.18164 29.39772,37.16324 C29.35412,37.12644 29.31092,37.09084 29.26752,37.05524 C29.25192,37.04144 29.23652,37.02904 29.21992,37.01644 C29.18152,36.98464 29.14192,36.95384 29.10232,36.92204 C29.07132,36.89884 29.04052,36.87364 29.00872,36.85044 C28.96712,36.81764 28.92472,36.78584 28.88132,36.75404 C28.81952,36.70664 28.75672,36.66124 28.69312,36.61584 C28.57732,36.53284 28.45952,36.45184 28.33972,36.37364 C28.26332,36.32344 28.18712,36.27404 28.10912,36.22584 C28.05492,36.19204 27.99992,36.15824 27.94472,36.12444 C27.92552,36.11304 27.90632,36.10224 27.88692,36.08984 C27.83492,36.05884 27.78172,36.02904 27.72852,35.99824 C27.71812,35.99224 27.70732,35.98544 27.69572,35.97984 C27.63992,35.94804 27.58392,35.91704 27.52692,35.88604 C27.50472,35.87364 27.48252,35.86204 27.46032,35.85044 C27.40712,35.82144 27.35312,35.79344 27.29912,35.76624 C27.29132,35.76164 27.28372,35.75764 27.27592,35.75484 C27.22072,35.72484 27.16492,35.69804 27.10892,35.66984 C27.08192,35.65644 27.05372,35.64284 27.02592,35.63044 C26.97372,35.60424 26.92152,35.58024 26.86872,35.55604 C26.58292,35.42384 26.28932,35.30304 25.99012,35.19504 C25.93312,35.17464 25.87632,35.15444 25.81932,35.13504 C25.78932,35.12444 25.75952,35.11384 25.72932,35.10424 C25.67732,35.08684 25.62632,35.07044 25.57412,35.05404 C25.55192,35.04624 25.52852,35.03964 25.50652,35.03264 C25.45732,35.01724 25.40712,35.00184 25.35792,34.98744 C25.31732,34.97584 25.27772,34.96424 25.23712,34.95264 C25.19472,34.94024 25.15232,34.92844 25.10972,34.91684 C25.08472,34.91024 25.05852,34.90344 25.03252,34.89664 C24.97172,34.88024 24.90992,34.86484 24.84812,34.85024 C24.76992,34.83104 24.69172,34.81264 24.61352,34.79524 C24.37512,34.74224 24.13472,34.69684 23.89052,34.66004 C23.83352,34.65044 23.77672,34.64284 23.71972,34.63504 C23.68192,34.62924 23.64532,34.62444 23.60772,34.62064 C23.56992,34.61484 23.53232,34.61084 23.49472,34.60724 C23.44932,34.60024 23.40392,34.59544 23.35872,34.59164 C23.31052,34.58584 23.26112,34.58104 23.21172,34.57704 C23.15692,34.57144 23.10192,34.56644 23.04672,34.56264 C23.02932,34.56064 23.01292,34.55964 22.99552,34.55864 C22.92432,34.55304 22.85292,34.54904 22.78032,34.54524 C22.75812,34.54424 22.73512,34.54224 22.71172,34.54144 C22.62592,34.53764 22.53912,34.53464 22.45232,34.53264 C22.35852,34.52984 22.26492,34.52884 22.17112,34.52884 C22.07772,34.52884 21.98412,34.52984 21.89032,34.53264 C21.80332,34.53464 21.71572,34.53764 21.62972,34.54144 C21.60852,34.54224 21.58712,34.54324 21.56712,34.54524 C21.49272,34.54904 21.41932,34.55304 21.34592,34.55864 C21.33152,34.55964 21.31792,34.56064 21.30432,34.56264 C21.24272,34.56644 21.18172,34.57144 21.12092,34.57804 C21.07952,34.58104 21.03892,34.58484 20.99732,34.58984 C20.94452,34.59544 20.89132,34.60124 20.83912,34.60804 C20.80532,34.61084 20.77252,34.61484 20.73972,34.61964 C20.69612,34.62444 20.65292,34.63024 20.61052,34.63804 C20.56292,34.64284 20.51672,34.64944 20.46952,34.65744 C20.13932,34.70744 19.81492,34.77224 19.49532,34.85024 C19.45472,34.86004 19.41432,34.86964 19.37472,34.88024 C19.31292,34.89564 19.25232,34.91204 19.19032,34.92944 C19.18832,34.92944 19.18732,34.92944 19.18632,34.93044 C19.10732,34.95164 19.02812,34.97484 18.95012,34.99904 C18.93452,35.00284 18.91992,35.00684 18.90552,35.01244 C18.83032,35.03364 18.75592,35.05784 18.68172,35.08284 C18.67872,35.08284 18.67592,35.08384 18.67392,35.08484 C18.59672,35.11004 18.52032,35.13604 18.44432,35.16304 C18.43152,35.16684 18.41912,35.17084 18.40752,35.17564 C18.34852,35.19684 18.28972,35.21804 18.23172,35.24044 C17.89472,35.36584 17.56672,35.50764 17.24812,35.66324 C17.18732,35.69304 17.12652,35.72304 17.06672,35.75384 C17.05792,35.75864 17.05032,35.76264 17.04152,35.76724 C16.99432,35.79064 16.94692,35.81584 16.90072,35.84164 C16.85612,35.86504 16.81092,35.88904 16.76752,35.91324 C16.74612,35.92464 16.72492,35.93624 16.70452,35.94804 C16.66512,35.97004 16.62552,35.99224 16.58672,36.01464 C16.53952,36.04144 16.49332,36.06864 16.44692,36.09564 C16.43532,36.10324 16.42472,36.10904 16.41412,36.11584 C16.35312,36.15164 16.29352,36.18824 16.23452,36.22584 C16.17672,36.26164 16.11972,36.29844 16.06272,36.33504 C16.01632,36.36504 15.96992,36.39484 15.92472,36.42664 C15.76732,36.53204 15.61272,36.64084 15.46212,36.75404 C15.42072,36.78384 15.38012,36.81484 15.34072,36.84664 C15.30592,36.87184 15.27212,36.89884 15.23832,36.92464 C15.17932,36.97124 15.12152,37.01844 15.06352,37.06584 C15.02972,37.09264 14.99592,37.12084 14.96312,37.14884 C14.92832,37.17764 14.89372,37.20764 14.85892,37.23764 C14.82892,37.26264 14.79912,37.28884 14.76932,37.31584 C14.74212,37.33904 14.71412,37.36304 14.68712,37.38824 C14.64952,37.42104 14.61172,37.45584 14.57412,37.49064 C14.34252,37.70384 14.11952,37.92684 13.90612,38.15844 C13.87432,38.19224 13.84352,38.22704 13.81352,38.26184 C13.78072,38.29664 13.74992,38.33144 13.71972,38.36604 C13.70432,38.38424 13.68792,38.40264 13.67352,38.42004 C13.63112,38.46824 13.59052,38.51664 13.55092,38.56504 C13.53632,38.58144 13.52292,38.59684 13.51052,38.61324 C13.47772,38.65184 13.44672,38.69044 13.41572,38.72904 C13.38012,38.77344 13.34452,38.81784 13.30972,38.86324 C13.27092,38.91244 13.23332,38.96164 13.19652,39.01184 C13.16292,39.05524 13.12992,39.09884 13.09912,39.14304 C13.07412,39.17584 13.05092,39.20864 13.02792,39.24144 C12.93512,39.37104 12.84512,39.50224 12.75932,39.63544 C12.71112,39.70884 12.66472,39.78224 12.61852,39.85664 C12.57212,39.93084 12.52772,40.00624 12.48332,40.08144 C12.44372,40.14804 12.40512,40.21564 12.36752,40.28304 C12.33472,40.34204 12.30192,40.40084 12.27092,40.46084 C12.23712,40.52264 12.20532,40.58424 12.17352,40.64724 C12.13872,40.71284 12.10572,40.77944 12.07392,40.84704 C12.04312,40.90864 12.01312,40.97144 11.98432,41.03404 C11.96192,41.08164 11.94072,41.12884 11.91972,41.17604 C11.85872,41.31124 11.80092,41.44844 11.74572,41.58744 C11.69752,41.70604 11.65232,41.82664 11.60872,41.94744 C11.58632,42.01004 11.56432,42.07204 11.54312,42.13464 C11.53712,42.15204 11.53152,42.16944 11.52572,42.18684 C11.50172,42.25744 11.47932,42.32864 11.45712,42.39904 C11.43312,42.47544 11.40992,42.55164 11.38752,42.62884 C11.36552,42.70524 11.34432,42.78244 11.32392,42.85964 C11.30352,42.93484 11.28452,43.01124 11.26512,43.08744 C11.26312,43.09704 11.26132,43.10684 11.25832,43.11624 C11.24192,43.18484 11.22652,43.25544 11.21112,43.32484 C11.21012,43.32584 11.21012,43.32684 11.21012,43.32784 C11.18872,43.42244 11.16952,43.51784 11.15112,43.61364 C11.13952,43.67044 11.12892,43.72744 11.11932,43.78444 C11.11552,43.80364 11.11152,43.82404 11.10872,43.84324 C11.09612,43.91664 11.08352,43.99004 11.07292,44.06344 C11.06992,44.08264 11.06712,44.10304 11.06432,44.12224 C11.06052,44.14644 11.05752,44.17064 11.05452,44.19464 C11.04492,44.25744 11.03712,44.32024 11.02952,44.38384 C10.99772,44.64644 10.97452,44.91284 10.96112,45.18124 C10.95032,44.98424 10.94472,44.78744 10.94472,44.58664 C10.94472,44.46404 10.94652,44.34324 10.95232,44.22164 C10.95312,44.18884 10.95412,44.15504 10.95712,44.12224 C10.96672,43.85484 10.98692,43.58944 11.01692,43.32784 C11.16852,41.95984 11.56732,40.66624 12.16572,39.49144 C12.28732,39.25224 12.41872,39.01764 12.55672,38.78884 C14.52212,35.53564 18.09292,33.36084 22.17112,33.36084 C27.94672,33.36084 32.70312,37.71924 33.32752,43.32784 C33.35752,43.58944 33.37772,43.85484 33.38732,44.12224 C33.39032,44.15504 33.39132,44.18884 33.39232,44.22164 C33.39792,44.34324 33.39892,44.46404 33.39892,44.58664" id="Fill-381" fill="#F4F4F4"></path>
                <path d="M23.771,32.7302 L21.2618,32.7302 C20.9908,32.7302 20.771,32.5104 20.771,32.2394 L20.771,31.077 C20.771,30.806 20.9908,30.5862 21.2618,30.5862 L23.771,30.5862 C24.042,30.5862 24.2618,30.806 24.2618,31.077 L24.2618,32.2394 C24.2618,32.5104 24.042,32.7302 23.771,32.7302" id="Fill-382" fill="#FFAA00"></path>
                <path d="M8.03916,32.79718 C7.44276,34.33618 6.38616,35.36178 5.67976,35.08798 C4.97356,34.81418 4.88456,33.34458 5.48096,31.80558 C6.07756,30.26658 7.13396,29.24098 7.84036,29.51478 C8.54676,29.78858 8.63576,31.25838 8.03916,32.79718" id="Fill-383" fill="#FCFFFA"></path>
                <path d="M92.129,3.54562 C90.2698,0.83482 87.7174,0.23402 86.3074,0.12182 L36.251,0.12182 L20.7708,0.12182 C20.7708,0.12182 16.123,-0.11038 11.4672,4.51482 L26.8102,4.51482 L28.6098,4.51482 L92.7154,4.51482 C92.5304,4.16502 92.3336,3.84262 92.129,3.54562" id="Fill-384" fill="#F4F4F4"></path>
                <polyline id="Fill-385" fill="#FCFFFA" points="39.17178 9.83742 41.12598 6.97742 41.12718 6.97602 41.13138 6.97082 43.02858 6.97082 38.61318 22.95422 31.26778 23.01642 31.25598 23.01642 31.12798 23.01762 35.56178 6.97082 41.12718 6.97082 41.12338 6.97602 41.12198 6.97742"></polyline>
                <path d="M23.3667,6.9761 L18.9037,23.1245 L14.1727,23.1655 L11.4263,23.1655 L15.8365,7.2071 C17.9861,7.0593 20.1779,6.9761 22.3791,6.9761 L23.3667,6.9761 Z" id="Fill-386" fill="#FCFFFA"></path>
                <path d="M9.00458,7.88312 C11.21098,7.60072 13.49938,7.36692 15.83638,7.20712 L11.42618,23.16552 L3.26738,23.16552 C3.29138,23.02692 3.31518,22.88952 3.33878,22.75232 C4.52978,16.04472 6.47998,11.32412 8.65338,8.00212 C8.76958,7.96232 8.88718,7.92272 9.00458,7.88312" id="Fill-387" fill="#C3D9CC"></path>
                <path d="M35.56182,6.97082 L31.12802,23.01762 L30.16402,23.02682 L30.16282,23.02682 L30.16282,23.02802 L18.90362,23.12462 L23.36662,6.97602 L29.58702,6.97602 C29.64002,6.97742 29.69662,6.97742 29.75602,6.97602 C29.93422,6.97342 30.11382,6.97082 30.29742,6.97082 L35.56182,6.97082 Z" id="Fill-388" fill="#C3D9CC"></path>
                <polygon id="Fill-389" fill="#C3D9CC" points="45.06612 6.97082 45.06612 22.89882 38.61312 22.95422 43.02852 6.97082"></polygon>
                <path d="M92.3087,21.18098 L92.3087,23.98418 L61.3585,24.57678 L60.8805,24.58618 L60.6573,24.59018 L60.6415,24.59018 L59.9337,24.60598 L59.2273,24.61918 L59.2141,24.61918 L58.5091,24.63118 L30.5457,25.16738 L30.5365,25.16738 L29.5937,25.18558 L29.1221,25.19358 L29.0971,25.19478 L27.6963,25.22138 L18.7031,25.39318 L16.7817,25.42998 L10.1059,25.55818 L9.2781,25.57398 L2.8847,25.69538 C3.0153,24.82258 3.1593,23.98018 3.3163,23.16558 C3.3429,23.02678 3.3693,22.88958 3.3969,22.75218 L7.3409,22.75218 L12.2371,22.66238 L13.4439,22.63998 L17.8777,22.55958 L17.8777,22.55538 L18.5961,22.54238 L18.6041,22.54238 L27.6963,22.37318 L30.5457,22.32178 L34.4291,22.24778 L44.9643,22.05778 L50.4149,21.95598 L58.5091,21.80418 L61.3585,21.75258 L66.6837,21.65218 L77.2177,21.45818 L77.2205,21.45818 L92.3087,21.18098 Z" id="Fill-390" fill="#F4F4F4"></path>
            </g>
        </g>
    </g>
</svg>