<?xml version="1.0" encoding="UTF-8"?>
<svg width="123px" height="52px" viewBox="0 0 123 52" version="1.1" xmlns="http://www.w3.org/2000/svg" xmlns:xlink="http://www.w3.org/1999/xlink">
    <!-- Generator: Sketch 52.6 (67491) - http://www.bohemiancoding.com/sketch -->
    <title>分组 15</title>
    <desc>Created with Sketch.</desc>
    <g id="图示" stroke="none" stroke-width="1" fill="none" fill-rule="evenodd">
        <g id="交通工具" transform="translate(-235.000000, -384.000000)">
            <g id="分组-15" transform="translate(235.000000, 384.000000)">
                <path d="M119.86502,33.72864 C121.12662,33.72864 122.15862,32.69664 122.15862,31.43504 L122.15862,25.38024 C122.15862,24.11864 121.12662,23.08664 119.86502,23.08664 C118.60362,23.08664 117.57162,24.11864 117.57162,25.38024 L117.57162,31.43504 C117.57162,32.69664 118.60362,33.72864 119.86502,33.72864" id="Fill-391" fill="#ED2F39"></path>
                <path d="M65.69792,3.45382 L33.09312,3.45382 L33.32032,2.22722 C33.55832,0.94102 34.68012,0.00802 35.98832,0.00802 L62.80272,0.00802 C64.11092,0.00802 65.23272,0.94102 65.47072,2.22722 L65.69792,3.45382 Z" id="Fill-392" fill="#BCBCBC"></path>
                <path d="M119.86492,6.4593 L119.86492,43.2699 L3.35352,43.2699 L3.35352,33.7415 C3.43652,33.7333 3.52012,33.7289 3.60492,33.7289 L3.60752,33.7289 C3.58452,33.0621 3.56472,32.4073 3.54752,31.7659 C3.52392,30.8917 3.50472,30.0411 3.49072,29.2135 C3.48952,29.1407 3.48812,29.0687 3.48692,28.9967 C3.48052,28.6073 3.47532,28.2231 3.47092,27.8443 L11.22532,22.8171 C11.66292,22.5331 11.89912,22.0233 11.83212,21.5057 L10.97512,14.8727 L10.78672,13.4179 L10.29752,9.6295 L10.15892,8.5579 C10.15892,8.5561 10.15832,8.5537 10.15832,8.5517 C10.07992,7.9735 9.58712,7.5421 9.00332,7.5421 L4.39372,7.5421 L4.42812,6.9647 L4.42932,6.9403 L4.43012,6.9327 L4.46892,6.2801 C4.56332,4.6923 5.87852,3.4539 7.46872,3.4539 L116.85952,3.4539 C118.51972,3.4539 119.86492,4.7995 119.86492,6.4593" id="Fill-393" fill="#E7E6EB"></path>
                <path d="M25.64012,10.39328 L25.64012,13.32588 L17.70392,27.98128 L17.61972,27.98128 C17.12832,27.98128 16.70152,27.70828 16.48132,27.30568 L25.64012,10.39328 Z" id="Fill-394" fill="#E7E6EB"></path>
                <path d="M16.3237,23.16554 L16.3237,15.33414 L20.2557,8.07234 L24.3441,8.07234 C24.3945,8.07234 24.4443,8.07494 24.4927,8.08074 L16.3237,23.16554 Z" id="Fill-395" fill="#E7E6EB"></path>
                <path d="M12.52692,22.13704 L11.50412,14.22264 L11.31652,12.76684 L10.82652,8.97924 L10.70512,8.03864 C10.70512,8.03664 10.70452,8.03404 10.70452,8.03224 C10.68032,7.85364 10.61972,7.68824 10.53092,7.54204 C10.32992,7.21104 9.98212,6.98264 9.58272,6.94044 C9.53812,6.93524 9.49272,6.93284 9.44752,6.93284 L4.42812,6.93284 L4.42752,6.94484 C4.42752,6.94624 4.42692,6.94824 4.42692,6.94984 L4.39172,7.54204 L4.07392,12.84744 L4.07392,12.85044 L3.78812,17.62484 L3.78812,17.62804 L3.50412,22.36664 L3.50412,22.37124 L3.46332,23.04624 L3.46332,23.08704 L3.50672,22.36864 L3.50672,22.36344 L3.78992,17.62544 L4.07592,12.84804 L4.39352,7.54204 L9.00332,7.54204 C9.58712,7.54204 10.07992,7.97364 10.15832,8.55164 C10.15832,8.55364 10.15892,8.55624 10.15892,8.55784 L10.29752,9.62944 L10.78672,13.41784 L10.97512,14.87284 L11.83212,21.50584 C11.89912,22.02344 11.66292,22.53304 11.22532,22.81704 L3.47092,27.84424 C3.47532,28.22324 3.48052,28.60744 3.48692,28.99664 L11.86652,23.56444 C12.34332,23.25564 12.60032,22.70024 12.52692,22.13704" id="Fill-396" fill="#3E3F3A"></path>
                <polygon id="Fill-397" fill="#3E3F3A" points="27.7656 7.5421 27.7656 9.9199 111.468 9.9199 111.468 22.3527 27.7656 22.3527 27.7656 24.9121 115.3402 24.9121 115.3402 7.5421"></polygon>
                <polygon id="Fill-398" fill="#D1E2EC" points="95.016 22.35266 103.0598 22.35266 109.3258 9.92006 101.282 9.92006"></polygon>
                <polygon id="Fill-399" fill="#B1C8DA" points="109.32576 9.92004 103.05976 22.35264 111.87256 22.35264 111.87256 9.92004"></polygon>
                <polygon id="Fill-400" fill="#D1E2EC" points="72.5154 22.35266 80.5594 22.35266 86.8252 9.92006 78.7832 9.92006"></polygon>
                <polygon id="Fill-401" fill="#B1C8DA" points="86.82526 9.92004 80.55926 22.35264 95.01606 22.35264 101.28186 9.92004"></polygon>
                <polygon id="Fill-402" fill="#B1C8DA" points="64.3284 9.92004 58.0606 22.35264 72.5154 22.35264 78.7832 9.92004"></polygon>
                <polygon id="Fill-403" fill="#B1C8DA" points="49.39558 9.91984 42.74318 21.74124 42.39938 22.35264 27.76558 22.35264 27.76558 11.69684 28.76558 9.91984"></polygon>
                <path d="M1.15154,40.94504 L1.15154,41.36704 C1.15154,42.72104 2.25074,43.82024 3.60474,43.82024 L120.16414,43.82024 C121.51814,43.82024 122.61734,42.72104 122.61734,41.36704 L122.61734,40.94504 L1.15154,40.94504 Z" id="Fill-404" fill="#353535"></path>
                <path d="M122.61706,36.18176 L1.15146,36.18176 C1.15146,34.91236 2.11746,33.86736 3.35366,33.74156 C3.43646,33.73336 3.52006,33.72876 3.60486,33.72876 L120.16426,33.72876 C121.51826,33.72876 122.61706,34.82756 122.61706,36.18176" id="Fill-405" fill="#64C0F9"></path>
                <polygon id="Fill-406" fill="#4F9ED9" points="1.1516 40.945 122.6174 40.945 122.6174 36.1818 1.1516 36.1818"></polygon>
                <path d="M79.57518,41.75344 C79.57518,41.96484 79.58138,42.17604 79.59198,42.38444 C79.89458,36.20404 85.00158,31.28844 91.25818,31.28844 C97.50858,31.28844 102.61258,36.19804 102.92278,42.37224 C102.93338,42.16684 102.93938,41.96184 102.93938,41.75344 C102.93938,41.62564 102.93778,41.49944 102.93178,41.37344 C102.73258,35.09704 97.58158,30.07224 91.25818,30.07224 C84.93318,30.07224 79.78198,35.09704 79.58278,41.37344 C79.57678,41.49944 79.57518,41.62564 79.57518,41.75344" id="Fill-407" fill="#54544D"></path>
                <path d="M79.59196,42.3845 C79.61776,42.8497 79.66956,43.3073 79.74696,43.7557 L102.76756,43.7557 C102.84516,43.3029 102.89836,42.8421 102.92276,42.3721 C102.61256,36.1979 97.50856,31.2885 91.25816,31.2885 C85.00156,31.2885 79.89456,36.2041 79.59196,42.3845" id="Fill-408" fill="#42423A"></path>
                <path d="M82.22234,42.56456 C82.22234,47.55436 86.26754,51.59956 91.25734,51.59956 C96.24714,51.59956 100.29234,47.55436 100.29234,42.56456 C100.29234,37.57476 96.24714,33.52956 91.25734,33.52956 C86.26754,33.52956 82.22234,37.57476 82.22234,42.56456" id="Fill-409" fill="#1F1C23"></path>
                <path d="M85.14412,42.56496 C85.14412,42.72096 85.14972,42.87636 85.16192,43.02956 C85.40212,39.87276 88.03912,37.38636 91.25752,37.38636 C94.47512,37.38636 97.11292,39.87276 97.35312,43.02956 C97.36532,42.87636 97.37092,42.72096 97.37092,42.56496 C97.37092,39.18836 94.63312,36.45156 91.25752,36.45156 C87.88112,36.45156 85.14412,39.18836 85.14412,42.56496" id="Fill-410" fill="#DBDBDB"></path>
                <path d="M85.16188,43.0296 L85.16188,43.0352 C85.40208,46.191 88.03908,48.6772 91.25748,48.6772 C94.47508,48.6772 97.11288,46.191 97.35308,43.0352 L97.35308,43.0296 C97.11288,39.8728 94.47508,37.3864 91.25748,37.3864 C88.03908,37.3864 85.40208,39.8728 85.16188,43.0296" id="Fill-411" fill="#F3F4F6"></path>
                <path d="M88.20076,42.56496 C88.20076,42.72376 88.21296,42.87996 88.23636,43.03236 C88.46076,41.56636 89.72776,40.44336 91.25756,40.44336 C92.78636,40.44336 94.05336,41.56636 94.27876,43.03236 C94.30196,42.87996 94.31416,42.72376 94.31416,42.56496 C94.31416,40.87616 92.94536,39.50816 91.25756,39.50816 C89.56876,39.50816 88.20076,40.87616 88.20076,42.56496" id="Fill-412" fill="#72727C"></path>
                <path d="M88.2363,43.03234 C88.4607,44.49854 89.7277,45.62154 91.2575,45.62154 C92.7863,45.62154 94.0533,44.49854 94.2787,43.03234 C94.0533,41.56634 92.7863,40.44334 91.2575,40.44334 C89.7277,40.44334 88.4607,41.56634 88.2363,43.03234" id="Fill-413" fill="#8E8E9A"></path>
                <path d="M43.64304,41.75364 C43.64304,41.96164 43.63724,42.16704 43.62644,42.37204 C43.31624,36.19764 38.21204,31.28864 31.96184,31.28864 C25.70524,31.28864 20.59844,36.20404 20.29584,42.38464 C20.28504,42.17604 20.27944,41.96504 20.27944,41.75364 C20.27944,41.62604 20.28064,41.49964 20.28704,41.37344 C20.41584,37.30024 22.63064,33.75364 25.89844,31.76604 C26.10204,31.64204 26.30944,31.52464 26.52064,31.41384 C28.14524,30.55684 29.99704,30.07184 31.96184,30.07184 C38.28544,30.07184 43.43624,35.09704 43.63604,41.37344 C43.64184,41.49964 43.64304,41.62604 43.64304,41.75364" id="Fill-414" fill="#54544D"></path>
                <path d="M20.29578,42.3845 C20.32158,42.8497 20.37338,43.3073 20.45078,43.7557 L43.47138,43.7557 C43.54898,43.3029 43.60218,42.8421 43.62658,42.3721 C43.31638,36.1979 38.21238,31.2885 31.96198,31.2885 C25.70538,31.2885 20.59838,36.2041 20.29578,42.3845" id="Fill-415" fill="#42423A"></path>
                <path d="M22.92624,42.56456 C22.92624,47.55436 26.97124,51.59956 31.96124,51.59956 C36.95104,51.59956 40.99624,47.55436 40.99624,42.56456 C40.99624,37.57476 36.95104,33.52956 31.96124,33.52956 C26.97124,33.52956 22.92624,37.57476 22.92624,42.56456" id="Fill-416" fill="#1F1C23"></path>
                <path d="M25.84792,42.56496 C25.84792,42.72096 25.85352,42.87636 25.86572,43.02956 C26.10612,39.87276 28.74292,37.38636 31.96132,37.38636 C35.17892,37.38636 37.81672,39.87276 38.05692,43.02956 C38.06912,42.87636 38.07472,42.72096 38.07472,42.56496 C38.07472,39.18836 35.33692,36.45156 31.96132,36.45156 C28.58492,36.45156 25.84792,39.18836 25.84792,42.56496" id="Fill-417" fill="#DBDBDB"></path>
                <path d="M25.8657,43.0296 L25.8657,43.0352 C26.1061,46.191 28.7429,48.6772 31.9615,48.6772 C35.1789,48.6772 37.8167,46.191 38.0571,43.0352 L38.0571,43.0296 C37.8167,39.8728 35.1789,37.3864 31.9615,37.3864 C28.7429,37.3864 26.1061,39.8728 25.8657,43.0296" id="Fill-418" fill="#F3F4F6"></path>
                <path d="M28.90466,42.56496 C28.90466,42.72376 28.91686,42.87996 28.94026,43.03236 C29.16466,41.56636 30.43166,40.44336 31.96146,40.44336 C33.49026,40.44336 34.75726,41.56636 34.98246,43.03236 C35.00586,42.87996 35.01806,42.72376 35.01806,42.56496 C35.01806,40.87616 33.64906,39.50816 31.96146,39.50816 C30.27266,39.50816 28.90466,40.87616 28.90466,42.56496" id="Fill-419" fill="#72727C"></path>
                <path d="M28.9402,43.03234 C29.1646,44.49854 30.4316,45.62154 31.9614,45.62154 C33.4902,45.62154 34.7572,44.49854 34.9824,43.03234 C34.7572,41.56634 33.4902,40.44334 31.9614,40.44334 C30.4316,40.44334 29.1646,41.56634 28.9402,43.03234" id="Fill-420" fill="#8E8E9A"></path>
                <polygon id="Fill-421" fill="#3E3F3A" points="89.6018 22.3526 93.822 22.3526 93.822 9.9198 89.6018 9.9198"></polygon>
                <polygon id="Fill-422" fill="#3E3F3A" points="66.1352 22.3526 70.3554 22.3526 70.3554 9.9198 66.1352 9.9198"></polygon>
                <polygon id="Fill-423" fill="#3E3F3A" points="66.1352 15.0134 93.822 15.0134 93.822 13.0562 66.1352 13.0562"></polygon>
                <polygon id="Fill-424" fill="#55564F" points="4.39362 7.5421 9.00322 7.5421 115.34002 7.5421 115.34002 6.9403 4.42942 6.9403"></polygon>
                <polygon id="Fill-425" fill="#55564F" points="70.3552 13.0562 89.6016 13.0562 89.6016 12.3988 70.3552 12.3988"></polygon>
                <polygon id="Fill-426" fill="#D1E2EC" points="64.3285 9.91984 58.3687 21.74124 58.0605 22.35264 50.0171 22.35264 50.3253 21.74124 56.2827 9.91984"></polygon>
                <polygon id="Fill-427" fill="#3E3F3A" points="27.7654 24.912 31.9852 24.912 31.9852 9.8788 27.7654 9.8788"></polygon>
                <polygon id="Fill-428" fill="#B1C8DA" points="56.2826 9.91984 50.3252 21.74124 46.2414 21.74124 52.1988 9.91984"></polygon>
                <polygon id="Fill-429" fill="#D1E2EC" points="52.1987 9.91984 46.2413 21.74124 42.7433 21.74124 49.3955 9.91984"></polygon>
                <polygon id="Fill-430" fill="#55564F" points="27.7656 22.3526 111.8726 22.3526 111.8726 21.7412 27.7656 21.7412"></polygon>
                <polygon id="Fill-431" fill="#3E3F3A" points="46.0134 21.7414 50.2336 21.7414 50.2336 9.9198 46.0134 9.9198"></polygon>
                <polygon id="Fill-432" fill="#B1C8DA" points="3.50672 22.3634 10.78672 13.4178 10.29752 9.6294 3.79012 17.6256"></polygon>
                <path d="M11.22526,22.8171 L3.47106,27.8443 C3.45566,26.5399 3.45186,25.2967 3.45626,24.1157 L3.45626,24.1113 L10.97506,14.8727 L11.83206,21.5057 C11.89906,22.0233 11.66286,22.5331 11.22526,22.8171" id="Fill-433" fill="#B1C8DA"></path>
                <polygon id="Fill-434" fill="#B1C8DA" points="8.39392 7.5421 4.39372 7.5421 4.07592 12.8479"></polygon>
                <path d="M4.39178,7.5421 L4.07398,12.8473 L4.07398,12.8505 L3.78798,17.6249 L3.78798,17.6281 L3.50418,22.3667 L3.50418,22.3713 L3.46318,23.0463 C3.46518,22.8331 3.46698,22.6213 3.47038,22.4127 C3.49018,20.7709 3.52838,19.2617 3.57758,17.8833 C3.64198,16.0883 3.72558,14.5159 3.81558,13.1651 C4.00638,10.3007 4.22458,8.4297 4.34198,7.5421 L4.39178,7.5421 Z" id="Fill-435" fill="#B1C8DA"></path>
                <path d="M17.70398,27.98136 L17.61978,27.98136 C17.12838,27.98136 16.70138,27.70836 16.48138,27.30556 L25.64018,10.39336 L25.64018,13.32596 L17.70398,27.98136 Z M16.32378,15.33416 L20.25578,8.07236 L24.34418,8.07236 C24.39458,8.07236 24.44418,8.07496 24.49278,8.08076 L16.32378,23.16556 L16.32378,15.33416 Z M26.09118,7.54216 L15.87258,7.54216 C15.41698,7.54216 15.04758,7.91156 15.04758,8.36736 L15.04758,32.90376 C15.04758,33.35936 15.41698,33.72876 15.87258,33.72876 L23.04938,33.72876 C23.50498,33.72876 23.87438,33.35936 23.87438,32.90376 L23.87438,29.57216 C23.87438,29.44336 23.90378,29.32196 23.95678,29.21356 C24.09018,28.93716 24.37278,28.74716 24.69958,28.74716 L26.09118,28.74716 C26.54678,28.74716 26.91638,28.37756 26.91638,27.92196 L26.91638,8.36736 C26.91638,7.91156 26.54678,7.54216 26.09118,7.54216 Z" id="Fill-436" fill="#3E3F3A"></path>
                <path d="M20.25574,8.07238 L16.32374,15.33418 L16.32374,9.36778 C16.32374,8.65238 16.90374,8.07238 17.61974,8.07238 L20.25574,8.07238 Z" id="Fill-437" fill="#B1C8DA"></path>
                <path d="M25.64012,9.3677 L25.64012,10.3933 L16.48132,27.3055 C16.38112,27.1213 16.32372,26.9101 16.32372,26.6855 L16.32372,23.1655 L24.49272,8.0807 C25.13852,8.1549 25.64012,8.7029 25.64012,9.3677" id="Fill-438" fill="#B1C8DA"></path>
                <path d="M17.70398,27.98136 L25.64018,13.32596 L25.64018,26.68556 C25.64018,27.40076 25.05998,27.98136 24.34418,27.98136 L17.70398,27.98136 Z" id="Fill-439" fill="#B1C8DA"></path>
                <path d="M24.49274,8.08078 L16.32374,23.16558 L16.32374,15.33418 L20.25574,8.07238 L24.34414,8.07238 C24.39454,8.07238 24.44414,8.07498 24.49274,8.08078" id="Fill-440" fill="#D1E2EC"></path>
                <path d="M25.64012,10.39328 L25.64012,13.32588 L17.70392,27.98128 L17.61972,27.98128 C17.12832,27.98128 16.70152,27.70828 16.48132,27.30568 L25.64012,10.39328 Z" id="Fill-441" fill="#D1E2EC"></path>
                <path d="M10.29744,9.62942 L3.78804,17.62502 L3.57744,17.88342 C3.64204,16.08842 3.72564,14.51602 3.81544,13.16522 L4.07404,12.84742 L4.07584,12.84482 L8.39384,7.54202 L9.00344,7.54202 C9.58724,7.54202 10.07984,7.97362 10.15824,8.55162 C10.15824,8.55362 10.15904,8.55622 10.15904,8.55802 L10.29744,9.62942 Z" id="Fill-442" fill="#D1E2EC"></path>
                <path d="M10.97508,14.87278 L3.45628,24.11578 L3.45628,24.11118 C3.45828,23.76538 3.46008,23.42478 3.46328,23.08898 L3.46328,23.04618 C3.46528,22.83318 3.46708,22.62118 3.47028,22.41258 L3.50428,22.37118 L3.50668,22.36858 L10.78688,13.41798 L10.97508,14.87278 Z" id="Fill-443" fill="#D1E2EC"></path>
                <path d="M15.04754,29.2136 L15.04754,31.766 L3.54754,31.766 C3.52394,30.8918 3.50474,30.0412 3.49074,29.2136 L15.04754,29.2136 Z" id="Fill-444" fill="#4F9ED9"></path>
                <path d="M119.86492,25.77296 L119.86492,28.32536 L29.60912,28.32536 L26.52072,31.41376 C26.30952,31.52476 26.10212,31.64216 25.89852,31.76596 L23.87432,31.76596 L23.87432,29.57216 C23.87432,29.44336 23.90372,29.32196 23.95672,29.21356 L25.11172,29.21356 L25.57812,28.74716 L26.09112,28.74716 C26.54692,28.74716 26.91632,28.37756 26.91632,27.92196 L26.91632,27.40836 L28.55172,25.77296 L119.86492,25.77296 Z" id="Fill-445" fill="#4F9ED9"></path>
                <path d="M0.53914,8.20656 L0.53914,11.44656 C0.53914,11.70636 0.64894,11.94876 0.83674,12.15036 C0.73154,11.98776 0.67234,11.80656 0.67234,11.61616 L0.67234,8.37636 C0.67234,8.02776 0.86874,7.71096 1.18614,7.48216 C1.47194,7.27536 1.85334,7.13936 2.27674,7.11496 L2.27674,6.94036 C1.80074,6.94296 1.36814,7.08456 1.05314,7.31236 C0.73554,7.54156 0.53914,7.85816 0.53914,8.20656" id="Fill-446" fill="#686868"></path>
                <path d="M0.67224,8.37628 L0.67224,11.61608 C0.67224,11.80648 0.73144,11.98788 0.83664,12.15028 C1.15104,12.48868 1.68544,12.71288 2.28804,12.71288 L2.28804,7.11388 L2.27664,7.11488 C1.85324,7.13928 1.47184,7.27528 1.18624,7.48208 C0.86864,7.71108 0.67224,8.02788 0.67224,8.37628" id="Fill-447" fill="#4F5150"></path>
                <path d="M2.28806,6.94036 L2.28806,7.11396 C2.32866,7.11136 2.36926,7.11016 2.40986,7.11016 L5.26066,7.11016 L5.44386,6.94036 L2.28806,6.94036 Z" id="Fill-448" fill="#686868"></path>
                <path d="M2.27674,7.11496 L2.27674,7.51896 L4.81854,7.51896 L5.26074,7.11016 L2.40994,7.11016 C2.36934,7.11016 2.32874,7.11136 2.28814,7.11396 L2.27674,7.11496 Z" id="Fill-449" fill="#4F5150"></path>
                <path d="M7.216,37.8345 L7.216,38.1425 C7.216,37.8957 7.015,37.6953 6.768,37.6953 L4.0758,37.6953 C3.8284,37.6953 3.628,37.8957 3.628,38.1425 L3.628,37.8345 C3.628,37.5869 3.8284,37.3865 4.0758,37.3865 L6.768,37.3865 C7.015,37.3865 7.216,37.5869 7.216,37.8345" id="Fill-450" fill="#FFBF4D"></path>
                <path d="M7.216,38.1425 L7.216,38.6755 C7.216,38.9229 7.015,39.1233 6.768,39.1233 L4.0758,39.1233 C3.8284,39.1233 3.628,38.9229 3.628,38.6755 L3.628,38.1425 C3.628,37.8957 3.8284,37.6953 4.0758,37.6953 L6.768,37.6953 C7.015,37.6953 7.216,37.8957 7.216,38.1425" id="Fill-451" fill="#FFAA00"></path>
            </g>
        </g>
    </g>
</svg>