<?xml version="1.0" encoding="UTF-8"?>
<svg width="104px" height="61px" viewBox="0 0 104 61" version="1.1" xmlns="http://www.w3.org/2000/svg" xmlns:xlink="http://www.w3.org/1999/xlink">
    <!-- Generator: Sketch 52.6 (67491) - http://www.bohemiancoding.com/sketch -->
    <title>分组 16</title>
    <desc>Created with Sketch.</desc>
    <g id="图示" stroke="none" stroke-width="1" fill="none" fill-rule="evenodd">
        <g id="交通工具" transform="translate(-395.000000, -374.000000)">
            <g id="分组-16" transform="translate(395.000000, 374.000000)">
                <path d="M103.56904,44.61106 L103.56904,47.68186 L0.95544,47.68186 L0.89184,47.59626 C0.89184,47.59626 -0.53916,44.73606 2.25944,44.61106 L103.56904,44.61106 Z" id="Fill-452" fill="#3D484C"></path>
                <path d="M96.43272,52.44718 L6.17752,51.70098 C6.17752,51.70098 4.00032,52.01238 3.06732,50.51978 L0.95532,47.68198 L103.56912,47.68198 L103.56912,47.78278 C103.56912,47.78278 104.40872,52.44718 96.43272,52.44718" id="Fill-453" fill="#353F44"></path>
                <path d="M103.94228,4.73078 C103.94228,5.29418 103.93488,6.45678 103.92168,8.04258 L37.52188,8.04258 C35.08348,8.04258 32.66928,8.44358 30.41908,9.04258 C27.62228,9.78878 25.08108,10.84318 23.07168,11.81878 C24.67988,9.91378 26.43948,8.02398 28.28088,6.34838 C29.35368,5.94918 30.49368,5.57778 31.68208,5.26058 C33.93228,4.66178 36.34648,4.26058 38.78508,4.26058 L103.92348,4.26058 C103.93668,4.41178 103.94228,4.56838 103.94228,4.73078" id="Fill-454" fill="#D2D1D6"></path>
                <path d="M103.92354,4.26066 L38.78494,4.26066 C36.34654,4.26066 33.93234,4.66186 31.68214,5.26066 C30.49354,5.57786 29.35374,5.94906 28.28094,6.34826 C31.98074,2.98446 36.01994,0.48626 39.85414,0.48626 L100.11754,0.48626 C100.11754,0.48626 103.64374,0.61486 103.92354,4.26066" id="Fill-455" fill="#E3E9E7"></path>
                <path d="M95.02588,8.0425 L89.48468,24.8827 L80.99368,25.0339 L76.70248,25.1103 L74.40568,25.1515 L63.48928,25.3473 L54.99828,25.4967 L51.86768,25.5525 L49.57088,25.5935 L42.24228,25.7241 L42.23668,25.7241 L41.65648,25.7355 L41.65648,25.7373 L33.16348,25.8883 L12.91268,25.8883 C13.38308,25.3473 13.98928,24.6139 14.43348,23.9479 C14.43348,23.9479 18.00628,17.8133 23.07168,11.8189 C25.08108,10.8431 27.62228,9.7887 30.41908,9.0425 C32.66928,8.4437 35.08348,8.0425 37.52188,8.0425 L41.35048,8.0425 C41.37848,8.0445 41.40828,8.0445 41.43988,8.0425 L95.02588,8.0425 Z" id="Fill-456" fill="#BDBEC2"></path>
                <path d="M2.26022,44.61184 L103.56822,44.61184 C103.56822,44.61184 103.60502,41.11664 103.65702,36.18744 C103.66282,35.63224 103.66862,35.05764 103.67422,34.46784 C103.68402,33.29784 103.69762,32.06764 103.71102,30.79924 C103.73042,28.80404 103.75142,26.71624 103.77282,24.62844 C103.82462,19.15944 103.87682,13.67484 103.90962,9.79244 C103.91142,9.16604 103.91722,8.57984 103.92122,8.04184 L95.02642,8.04184 L89.48602,24.88284 L101.64842,24.66704 L101.64842,26.84544 L76.70302,27.30624 L74.40502,27.34864 L51.86742,27.76504 L49.57162,27.80744 L10.12742,28.53604 L5.71102,32.48404 C4.06282,33.91464 3.56522,36.49584 3.56522,36.49584 L2.26022,44.61184 Z" id="Fill-457" fill="#F5F5F5"></path>
                <polygon id="Fill-458" fill="#C3D9CC" points="51.86804 8.03644 51.86804 25.55304 49.57144 25.59384 42.24264 25.72384 42.23664 25.72384 41.65604 25.73564 43.09824 21.35504 44.82064 16.11744 46.44064 11.19964 46.44064 11.19604 47.47904 8.04244 47.48124 8.03644"></polygon>
                <polygon id="Fill-459" fill="#BDBEC2" points="51.86804 7.94874 51.86804 25.55294 49.57144 25.59394 49.57144 7.94874"></polygon>
                <polygon id="Fill-460" fill="#E3E9E7" points="50.33796 27.80812 51.10056 27.76532 51.10056 44.61112 50.33796 44.61112"></polygon>
                <polygon id="Fill-461" fill="#E3E9E7" points="51.10046 27.80812 51.86306 27.76532 51.86306 44.61112 51.10046 44.61112"></polygon>
                <polygon id="Fill-462" fill="#E3E9E7" points="74.79168 27.34914 75.55408 27.30634 75.55408 44.15214 74.79168 44.15214"></polygon>
                <polygon id="Fill-463" fill="#E3E9E7" points="75.55398 27.34914 76.31658 27.30634 76.31658 44.15214 75.55398 44.15214"></polygon>
                <polygon id="Fill-464" fill="#BDBEC2" points="95.02784 8.03684 86.58904 8.03684 86.58724 8.03684 82.94144 8.03684 76.70244 8.03684 69.18544 8.03684 69.18444 8.03984 69.18504 8.03644 60.74344 8.03644 51.86804 8.03644 51.86804 25.55304 54.99864 25.49664 63.48964 25.34764 63.48964 25.34744 74.40584 25.15144 76.70244 25.11024 80.99364 25.03384 89.48464 24.88264 95.02584 8.04244"></polygon>
                <polygon id="Fill-465" fill="#BDBEC2" points="103.9087 9.7927 101.6473 8.1191 101.5449 8.0425 101.5375 8.0371 95.0259 8.0425 89.4865 24.8827 101.6473 24.6663 103.7725 24.6291 103.9423 24.6253 103.9423 9.8169"></polygon>
                <polygon id="Fill-466" fill="#353F44" points="99.59834 9.78762 93.76254 9.79202 93.76434 9.78802 85.50254 9.78802 85.50074 9.78802 81.93154 9.78802 75.82334 9.78802 68.46394 9.78802 68.46294 9.79042 68.46354 9.78762 60.19914 9.78762 51.50974 9.78762 51.50974 23.75502 54.57494 23.70982 62.88754 23.59122 62.88774 23.59102 73.57474 23.43462 75.82334 23.40202 80.02454 23.34102 88.33734 23.22042 88.33994 23.21422 99.59834 23.04982"></polygon>
                <polygon id="Fill-467" fill="#B1C8DA" points="98.03974 11.4302 92.58474 11.4338 92.58634 11.4306 84.86414 11.4306 84.86234 11.4306 81.52614 11.4306 75.81694 11.4306 68.93774 11.4306 68.93694 11.4324 68.93754 11.4304 61.21254 11.4304 53.09054 11.4304 53.09054 22.342 55.95554 22.3068 63.72574 22.2138 73.71514 22.0918 75.81694 22.0662 79.74354 22.0184 87.51394 21.9244 87.51634 21.9194 98.03974 21.791"></polygon>
                <path d="M39.08738,8.0425 L38.92678,8.5257 C38.90818,8.5313 38.88958,8.5387 38.87078,8.5445 L33.16358,25.8883 L16.53418,25.8883 C16.53418,25.8883 22.70798,14.3713 30.41898,9.0425 C32.66918,8.4437 35.08338,8.0425 37.52198,8.0425 L39.08738,8.0425 Z" id="Fill-468" fill="#C3D9CC"></path>
                <polyline id="Stroke-469" stroke="#C3D9CC" stroke-width="0.5" points="42.24226 25.72414 42.24026 25.72414 42.23846 25.72414 42.23666 25.72414"></polyline>
                <path d="M47.47938,8.03684 L47.47738,8.04244 L46.44018,11.19564 L46.44018,11.19944 L44.82078,16.11744 L43.09878,21.35464 L41.65658,25.73544 L41.65658,25.73724 L33.16358,25.88844 L38.87078,8.54444 C38.88018,8.54264 38.92878,8.41744 38.97898,8.29244 C39.02938,8.16944 39.07798,8.04624 39.08738,8.04244 L41.35038,8.04244 C41.37838,8.04444 41.40838,8.04444 41.43998,8.04244 C41.53498,8.03884 41.63038,8.03684 41.72718,8.03684 L47.47938,8.03684 Z" id="Fill-470" fill="#FCFFFA"></path>
                <path d="M45.69948,8.03704 C45.70128,8.03884 45.70508,8.04084 45.70688,8.04244" id="Stroke-471" stroke="#C3D9CC" stroke-width="0.5"></path>
                <polyline id="Stroke-472" stroke="#C3D9CC" stroke-width="0.5" points="46.44012 11.20128 46.44012 11.19928 46.44012 11.19568"></polyline>
                <polygon id="Fill-473" fill="#353F44" points="30.8112 41.4676 80.9928 41.4676 80.9928 40.2804 30.8112 40.2804"></polygon>
                <polygon id="Fill-474" fill="#3D484C" points="30.8112 40.2804 80.9928 40.2804 80.9928 39.4802 30.8112 39.4802"></polygon>
                <path d="M36.69304,50.16964 C36.66564,50.66264 36.61104,51.14744 36.52884,51.62264 L12.14064,51.62264 C12.05844,51.14244 12.00224,50.65464 11.97644,50.15684 C12.30504,43.61544 17.71224,38.41464 24.33384,38.41464 C30.96224,38.41464 36.37244,43.62204 36.69304,50.16964" id="Fill-475" fill="#BDBEC2"></path>
                <path d="M98.03974,50.06106 C98.03974,50.28486 98.03334,50.50866 98.02194,50.72946 C97.70154,44.18186 92.29094,38.97426 85.66274,38.97426 C79.04114,38.97426 73.63394,44.17526 73.30534,50.71646 C73.29394,50.49886 73.28754,50.28166 73.28754,50.06106 C73.28754,49.92566 73.28914,49.79186 73.29554,49.65826 C73.50654,43.00906 78.96374,37.68566 85.66274,37.68566 C92.36334,37.68566 97.82054,43.00906 98.03154,49.65826 C98.03794,49.79186 98.03974,49.92566 98.03974,50.06106" id="Fill-476" fill="#E3E9E7"></path>
                <path d="M98.02198,50.72942 C97.99458,51.22242 97.93978,51.70722 97.85778,52.18242 L73.46958,52.18242 C73.38738,51.70222 73.33118,51.21422 73.30538,50.71662 C73.63378,44.17522 79.04118,38.97442 85.66278,38.97442 C92.29098,38.97442 97.70138,44.18182 98.02198,50.72942" id="Fill-477" fill="#BDBEC2"></path>
                <path d="M33.90632,50.36046 C33.90632,55.64686 29.62092,59.93206 24.33492,59.93206 C19.04852,59.93206 14.76312,55.64686 14.76312,50.36046 C14.76312,45.07426 19.04852,40.78906 24.33492,40.78906 C29.62092,40.78906 33.90632,45.07426 33.90632,50.36046" id="Fill-478" fill="#1F1C23"></path>
                <path d="M30.8112,50.36086 C30.8112,50.52626 30.8052,50.69066 30.7922,50.85326 C30.5378,47.50886 27.7442,44.87486 24.3346,44.87486 C20.9258,44.87486 18.1314,47.50886 17.8768,50.85326 C17.864,50.69066 17.8578,50.52626 17.8578,50.36086 C17.8578,46.78366 20.7584,43.88426 24.3346,43.88426 C27.9116,43.88426 30.8112,46.78366 30.8112,50.36086" id="Fill-479" fill="#DBDBDB"></path>
                <path d="M30.79226,50.85324 L30.79226,50.85904 C30.53786,54.20244 27.74426,56.83644 24.33466,56.83644 C20.92586,56.83644 18.13126,54.20244 17.87686,50.85904 L17.87686,50.85324 C18.13126,47.50884 20.92586,44.87484 24.33466,44.87484 C27.74426,44.87484 30.53786,47.50884 30.79226,50.85324" id="Fill-480" fill="#F3F4F6"></path>
                <path d="M27.57292,50.36086 C27.57292,50.52926 27.56012,50.69466 27.53532,50.85626 C27.29752,49.30286 25.95512,48.11326 24.33472,48.11326 C22.71492,48.11326 21.37272,49.30286 21.13392,50.85626 C21.10912,50.69466 21.09632,50.52926 21.09632,50.36086 C21.09632,48.57186 22.54652,47.12266 24.33472,47.12266 C26.12352,47.12266 27.57292,48.57186 27.57292,50.36086" id="Fill-481" fill="#72727C"></path>
                <path d="M27.53522,50.85618 C27.29762,52.40958 25.95522,53.59918 24.33462,53.59918 C22.71482,53.59918 21.37282,52.40958 21.13382,50.85618 C21.37282,49.30278 22.71482,48.11318 24.33462,48.11318 C25.95522,48.11318 27.29762,49.30278 27.53522,50.85618" id="Fill-482" fill="#8E8E9A"></path>
                <path d="M95.23526,50.92024 C95.23526,56.20664 90.94986,60.49184 85.66346,60.49184 C80.37726,60.49184 76.09186,56.20664 76.09186,50.92024 C76.09186,45.63384 80.37726,41.34864 85.66346,41.34864 C90.94986,41.34864 95.23526,45.63384 95.23526,50.92024" id="Fill-483" fill="#1F1C23"></path>
                <path d="M92.13992,50.92062 C92.13992,51.08602 92.13412,51.25042 92.12112,51.41282 C91.86652,48.06862 89.07312,45.43442 85.66332,45.43442 C82.25472,45.43442 79.46032,48.06862 79.20572,51.41282 C79.19292,51.25042 79.18672,51.08602 79.18672,50.92062 C79.18672,47.34342 82.08732,44.44402 85.66332,44.44402 C89.24052,44.44402 92.13992,47.34342 92.13992,50.92062" id="Fill-484" fill="#DBDBDB"></path>
                <path d="M92.12116,51.41282 L92.12116,51.41882 C91.86656,54.76202 89.07316,57.39622 85.66336,57.39622 C82.25476,57.39622 79.46016,54.76202 79.20576,51.41882 L79.20576,51.41282 C79.46016,48.06862 82.25476,45.43442 85.66336,45.43442 C89.07316,45.43442 91.86656,48.06862 92.12116,51.41282" id="Fill-485" fill="#F3F4F6"></path>
                <path d="M88.90164,50.92062 C88.90164,51.08902 88.88884,51.25442 88.86424,51.41602 C88.62624,49.86262 87.28404,48.67302 85.66344,48.67302 C84.04384,48.67302 82.70144,49.86262 82.46284,51.41602 C82.43804,51.25442 82.42504,51.08902 82.42504,50.92062 C82.42504,49.13162 83.87524,47.68242 85.66344,47.68242 C87.45244,47.68242 88.90164,49.13162 88.90164,50.92062" id="Fill-486" fill="#72727C"></path>
                <path d="M88.86414,51.41594 C88.62634,52.96914 87.28414,54.15894 85.66334,54.15894 C84.04374,54.15894 82.70154,52.96914 82.46274,51.41594 C82.70154,49.86254 84.04374,48.67294 85.66334,48.67294 C87.28414,48.67294 88.62634,49.86254 88.86414,51.41594" id="Fill-487" fill="#8E8E9A"></path>
                <path d="M36.71042,49.5007 C36.71042,49.7253 36.70402,49.9487 36.69342,50.1701 C36.67422,49.7711 36.63482,49.3773 36.57842,48.9889 C36.57422,48.9633 36.57102,48.9369 36.56662,48.9113 C36.55622,48.8399 36.54442,48.7687 36.53162,48.6973 C36.49962,48.5005 36.46142,48.3067 36.41882,48.1133 C36.41142,48.0813 36.40502,48.0505 36.39762,48.0185 C36.38262,47.9515 36.36662,47.8855 36.34962,47.8185 C36.33802,47.7685 36.32522,47.7195 36.31142,47.6695 C36.29322,47.5951 36.27302,47.5215 36.25282,47.4481 C36.23582,47.3865 36.21782,47.3237 36.19842,47.2621 C36.18702,47.2205 36.17402,47.1779 36.16022,47.1365 C36.15062,47.1023 36.14002,47.0683 36.12842,47.0343 C36.11242,46.9809 36.09542,46.9279 36.07722,46.8757 C36.06542,46.8383 36.05282,46.8011 36.04002,46.7649 C36.02302,46.7149 36.00602,46.6649 35.98802,46.6149 C35.95922,46.5351 35.93042,46.4563 35.89962,46.3777 C35.87082,46.3021 35.84202,46.2267 35.81022,46.1521 C35.73902,45.9721 35.66242,45.7947 35.58042,45.6179 C35.55682,45.5657 35.53242,45.5135 35.50682,45.4627 C35.48682,45.4189 35.46642,45.3753 35.44422,45.3327 C35.43562,45.3135 35.42602,45.2945 35.41542,45.2753 C35.38242,45.2071 35.34842,45.1401 35.31342,45.0741 C35.30482,45.0571 35.29622,45.0389 35.28562,45.0219 C35.25582,44.9625 35.22382,44.9039 35.19082,44.8455 C35.17382,44.8125 35.15582,44.7795 35.13662,44.7465 C34.95682,44.4251 34.76202,44.1123 34.55462,43.8089 C34.50022,43.7293 34.44502,43.6505 34.38862,43.5727 C34.33962,43.5025 34.28862,43.4345 34.23642,43.3663 C34.21622,43.3385 34.19602,43.3111 34.17462,43.2833 C34.14282,43.2407 34.11082,43.1991 34.07682,43.1577 C34.05242,43.1247 34.02562,43.0917 33.99902,43.0599 C33.95982,43.0087 33.91942,42.9587 33.87782,42.9099 C33.86822,42.8981 33.85862,42.8865 33.84802,42.8747 C33.79602,42.8109 33.74162,42.7469 33.68622,42.6843 C33.68002,42.6757 33.67342,42.6683 33.66602,42.6609 C33.62142,42.6087 33.57442,42.5565 33.52782,42.5053 C33.21182,42.1545 32.87642,41.8213 32.52222,41.5095 C32.47322,41.4659 32.42302,41.4221 32.37302,41.3807 C32.34862,41.3595 32.32422,41.3381 32.29982,41.3179 C32.25182,41.2775 32.20402,41.2381 32.15622,41.1987 C32.13922,41.1839 32.12222,41.1701 32.10402,41.1561 C32.06142,41.1211 32.01782,41.0871 31.97402,41.0519 C31.94002,41.0263 31.90622,40.9987 31.87102,40.9731 C31.82522,40.9371 31.77842,40.9019 31.73062,40.8667 C31.66242,40.8145 31.59322,40.7645 31.52302,40.7145 C31.39542,40.6231 31.26542,40.5337 31.13342,40.4475 C31.04942,40.3921 30.96542,40.3381 30.87922,40.2847 C30.81962,40.2475 30.75902,40.2103 30.69822,40.1729 C30.67702,40.1603 30.65582,40.1485 30.63442,40.1347 C30.57702,40.1007 30.51842,40.0677 30.46002,40.0335 C30.44822,40.0273 30.43662,40.0199 30.42362,40.0133 C30.36222,39.9783 30.30022,39.9443 30.23762,39.9101 C30.21322,39.8965 30.18862,39.8835 30.16422,39.8709 C30.10582,39.8387 30.04602,39.8079 29.98642,39.7783 C29.97802,39.7729 29.96942,39.7687 29.96102,39.7653 C29.90022,39.7325 29.83862,39.7027 29.77682,39.6717 C29.74702,39.6569 29.71602,39.6419 29.68522,39.6283 C29.62782,39.5995 29.57042,39.5727 29.51182,39.5463 C29.19702,39.4005 28.87342,39.2675 28.54362,39.1483 C28.48082,39.1259 28.41802,39.1037 28.35522,39.0823 C28.32222,39.0707 28.28942,39.0589 28.25622,39.0481 C28.19862,39.0291 28.14242,39.0111 28.08482,38.9929 C28.06042,38.9845 28.03482,38.9769 28.01042,38.9695 C27.95622,38.9525 27.90082,38.9355 27.84662,38.9195 C27.80182,38.9067 27.75822,38.8939 27.71362,38.8811 C27.66662,38.8673 27.62002,38.8547 27.57302,38.8419 C27.54542,38.8343 27.51662,38.8269 27.48802,38.8195 C27.42102,38.8013 27.35282,38.7843 27.28462,38.7685 C27.19842,38.7471 27.11242,38.7269 27.02622,38.7077 C26.76342,38.6491 26.49822,38.5991 26.22922,38.5587 C26.16642,38.5481 26.10362,38.5395 26.04082,38.5311 C25.99922,38.5247 25.95882,38.5195 25.91742,38.5151 C25.87582,38.5087 25.83442,38.5045 25.79282,38.5003 C25.74282,38.4927 25.69282,38.4875 25.64282,38.4831 C25.58962,38.4769 25.53542,38.4715 25.48122,38.4673 C25.42042,38.4609 25.35982,38.4555 25.29902,38.4513 C25.28002,38.4491 25.26202,38.4481 25.24282,38.4469 C25.16402,38.4407 25.08522,38.4365 25.00562,38.4321 C24.98102,38.4311 24.95562,38.4291 24.93002,38.4279 C24.83522,38.4235 24.73962,38.4205 24.64362,38.4183 C24.54042,38.4151 24.43722,38.4139 24.33402,38.4139 C24.23082,38.4139 24.12762,38.4151 24.02422,38.4183 C23.92862,38.4205 23.83162,38.4235 23.73702,38.4279 C23.71382,38.4291 23.69022,38.4299 23.66782,38.4321 C23.58602,38.4365 23.50522,38.4407 23.42422,38.4469 C23.40822,38.4481 23.39342,38.4491 23.37842,38.4513 C23.31042,38.4555 23.24322,38.4609 23.17622,38.4683 C23.13062,38.4715 23.08582,38.4757 23.04002,38.4811 C22.98142,38.4875 22.92302,38.4939 22.86542,38.5013 C22.82842,38.5045 22.79222,38.5087 22.75602,38.5139 C22.70802,38.5195 22.66022,38.5257 22.61342,38.5343 C22.56122,38.5395 22.51022,38.5469 22.45802,38.5555 C22.09422,38.6109 21.73662,38.6821 21.38442,38.7685 C21.33962,38.7791 21.29502,38.7895 21.25142,38.8013 C21.18322,38.8185 21.11622,38.8365 21.04802,38.8555 C21.04602,38.8555 21.04502,38.8555 21.04382,38.8567 C20.95662,38.8801 20.86942,38.9055 20.78302,38.9323 C20.76602,38.9365 20.75022,38.9407 20.73422,38.9471 C20.65122,38.9707 20.56922,38.9971 20.48742,39.0247 C20.48422,39.0247 20.48102,39.0259 20.47882,39.0269 C20.39382,39.0547 20.30962,39.0833 20.22562,39.1131 C20.21182,39.1175 20.19782,39.1215 20.18522,39.1271 C20.12022,39.1503 20.05542,39.1737 19.99142,39.1983 C19.62022,39.3367 19.25822,39.4931 18.90702,39.6643 C18.84002,39.6973 18.77302,39.7303 18.70702,39.7643 C18.69762,39.7697 18.68922,39.7739 18.67962,39.7793 C18.62742,39.8049 18.57522,39.8325 18.52402,39.8613 C18.47522,39.8869 18.42502,39.9133 18.37722,39.9399 C18.35382,39.9527 18.33062,39.9655 18.30802,39.9783 C18.26462,40.0027 18.22082,40.0273 18.17822,40.0517 C18.12622,40.0815 18.07502,40.1113 18.02402,40.1411 C18.01122,40.1495 17.99942,40.1559 17.98782,40.1633 C17.92082,40.2029 17.85482,40.2433 17.78982,40.2847 C17.72602,40.3241 17.66342,40.3645 17.60042,40.4049 C17.54942,40.4381 17.49822,40.4711 17.44822,40.5059 C17.27482,40.6219 17.10462,40.7423 16.93862,40.8667 C16.89282,40.8997 16.84802,40.9339 16.80462,40.9689 C16.76622,40.9965 16.72902,41.0263 16.69162,41.0551 C16.62682,41.1061 16.56302,41.1583 16.49902,41.2105 C16.46202,41.2403 16.42462,41.2713 16.38862,41.3021 C16.35022,41.3339 16.31182,41.3669 16.27342,41.3999 C16.24042,41.4275 16.20762,41.4563 16.17462,41.4861 C16.14482,41.5117 16.11402,41.5381 16.08422,41.5659 C16.04262,41.6021 16.00122,41.6403 15.95962,41.6787 C15.70442,41.9137 15.45842,42.1597 15.22322,42.4149 C15.18822,42.4523 15.15422,42.4905 15.12122,42.5289 C15.08502,42.5671 15.05082,42.6055 15.01802,42.6439 C15.00082,42.6639 14.98282,42.6843 14.96682,42.7035 C14.92002,42.7565 14.87522,42.8099 14.83162,42.8631 C14.81562,42.8811 14.80082,42.8981 14.78702,42.9161 C14.75082,42.9587 14.71682,43.0013 14.68262,43.0439 C14.64342,43.0929 14.60402,43.1417 14.56562,43.1917 C14.52302,43.2461 14.48162,43.3003 14.44122,43.3555 C14.40402,43.4037 14.36782,43.4515 14.33362,43.5003 C14.30622,43.5367 14.28062,43.5727 14.25502,43.6089 C14.15282,43.7515 14.05402,43.8963 13.95922,44.0431 C13.90602,44.1239 13.85502,44.2049 13.80382,44.2869 C13.75282,44.3687 13.70382,44.4517 13.65482,44.5347 C13.61122,44.6081 13.56862,44.6825 13.52722,44.7571 C13.49082,44.8219 13.45482,44.8869 13.42082,44.9529 C13.38342,45.0211 13.34822,45.0889 13.31342,45.1583 C13.27482,45.2305 13.23882,45.3041 13.20362,45.3785 C13.16962,45.4465 13.13662,45.5157 13.10482,45.5849 C13.08042,45.6371 13.05682,45.6891 13.03342,45.7413 C12.96642,45.8903 12.90262,46.0415 12.84182,46.1947 C12.78882,46.3255 12.73882,46.4585 12.69062,46.5915 C12.66622,46.6607 12.64182,46.7289 12.61842,46.7979 C12.61202,46.8171 12.60582,46.8363 12.59922,46.8553 C12.57282,46.9331 12.54802,47.0119 12.52362,47.0895 C12.49722,47.1735 12.47162,47.2577 12.44722,47.3429 C12.42262,47.4269 12.39922,47.5121 12.37682,47.5971 C12.35462,47.6801 12.33322,47.7641 12.31202,47.8481 C12.30982,47.8589 12.30762,47.8695 12.30462,47.8801 C12.28642,47.9557 12.26942,48.0333 12.25242,48.1101 C12.25122,48.1111 12.25122,48.1123 12.25122,48.1133 C12.22782,48.2175 12.20662,48.3227 12.18642,48.4283 C12.17362,48.4909 12.16202,48.5537 12.15122,48.6165 C12.14722,48.6379 12.14282,48.6601 12.13962,48.6813 C12.12562,48.7623 12.11202,48.8431 12.10022,48.9241 C12.09702,48.9453 12.09382,48.9677 12.09062,48.9889 C12.08642,49.0155 12.08322,49.0421 12.08002,49.0687 C12.06942,49.1381 12.06082,49.2071 12.05242,49.2773 C12.01722,49.5667 11.99162,49.8605 11.97682,50.1561 C11.96502,49.9391 11.95862,49.7221 11.95862,49.5007 C11.95862,49.3655 11.96082,49.2325 11.96722,49.0985 C11.96822,49.0625 11.96942,49.0251 11.97262,48.9889 C11.98302,48.6943 12.00562,48.4015 12.03862,48.1133 C12.20562,46.6053 12.64502,45.1795 13.30482,43.8845 C13.43882,43.6207 13.58342,43.3621 13.73582,43.1099 C15.90222,39.5239 19.83822,37.1265 24.33402,37.1265 C30.70042,37.1265 35.94322,41.9307 36.63162,48.1133 C36.66462,48.4015 36.68702,48.6943 36.69782,48.9889 C36.70082,49.0251 36.70182,49.0625 36.70302,49.0985 C36.70942,49.2325 36.71042,49.3655 36.71042,49.5007" id="Fill-488" fill="#E3E9E7"></path>
                <path d="M89.4864,24.88274 L89.4846,24.88274 L80.9936,25.03394 L76.7024,25.11034 L74.4058,25.15154 L63.4894,25.34734 L54.9984,25.49654 L51.8676,25.55254 L49.571,25.59354 L42.2422,25.72414 L42.2366,25.72414 L41.6566,25.73554 L41.6566,25.73714 L33.1636,25.88834 L12.9128,25.88834 C12.491,26.36974 12.1796,26.69994 12.1796,26.69994 L10.1272,28.53594 L49.571,27.80814 L51.8676,27.76534 L74.4058,27.34914 L76.7024,27.30634 L101.6474,26.84534 L101.6474,24.66634 L89.4864,24.88274 Z" id="Fill-489" fill="#E3E9E7"></path>
                <path d="M8.75612,36.5052 C8.09852,38.2016 6.93412,39.3324 6.15532,39.0304 C5.37672,38.7286 5.27852,37.1086 5.93612,35.412 C6.59372,33.7156 7.75832,32.585 8.53692,32.887 C9.31572,33.1888 9.41372,34.8088 8.75612,36.5052" id="Fill-490" fill="#FCFFFA"></path>
                <path d="M47.47938,30.45148 C47.47938,30.60128 47.45638,30.74508 47.41418,30.88148 C47.28858,30.20968 46.69518,29.69628 45.98838,29.69628 L42.78658,29.69628 C42.38778,29.69628 42.02538,29.85928 41.76198,30.12268 C41.59898,30.28588 41.47338,30.48888 41.40198,30.71468 C41.38618,30.62908 41.37778,30.54068 41.37778,30.45148 C41.37778,30.05268 41.54098,29.69008 41.80298,29.42688 C42.06658,29.16448 42.42898,29.00148 42.82758,29.00148 L46.02958,29.00148 C46.82678,29.00148 47.47938,29.65408 47.47938,30.45148" id="Fill-491" fill="#353F44"></path>
                <path d="M47.41414,30.88156 L47.41414,30.88276 C47.34294,31.10876 47.21734,31.31156 47.05394,31.47616 C46.79074,31.73816 46.42814,31.90136 46.02954,31.90136 L42.82754,31.90136 C42.12074,31.90136 41.52754,31.38776 41.40194,30.71596 L41.40194,30.71476 C41.47334,30.48876 41.59894,30.28576 41.76194,30.12276 C42.02554,29.85936 42.38774,29.69616 42.78654,29.69616 L45.98834,29.69616 C46.69514,29.69616 47.28854,30.20976 47.41414,30.88156" id="Fill-492" fill="#3D484C"></path>
                <path d="M73.30534,29.6962 C73.30534,29.846 73.28234,29.99 73.23994,30.1264 C73.11434,29.4546 72.52114,28.9412 71.81434,28.9412 L68.61234,28.9412 C68.21374,28.9412 67.85114,29.1042 67.58794,29.3676 C67.42474,29.5308 67.29914,29.7336 67.22774,29.9596 C67.21214,29.874 67.20354,29.7856 67.20354,29.6962 C67.20354,29.2976 67.36694,28.935 67.62894,28.6716 C67.89254,28.4094 68.25474,28.2464 68.65354,28.2464 L71.85534,28.2464 C72.65274,28.2464 73.30534,28.8988 73.30534,29.6962" id="Fill-493" fill="#353F44"></path>
                <path d="M73.23992,30.12648 L73.23992,30.12768 C73.16872,30.35368 73.04312,30.55648 72.87992,30.72088 C72.61652,30.98308 72.25412,31.14628 71.85532,31.14628 L68.65352,31.14628 C67.94672,31.14628 67.35332,30.63268 67.22772,29.96088 L67.22772,29.95968 C67.29912,29.73368 67.42472,29.53068 67.58792,29.36768 C67.85132,29.10428 68.21372,28.94108 68.61232,28.94108 L71.81432,28.94108 C72.52112,28.94108 73.11432,29.45468 73.23992,30.12648" id="Fill-494" fill="#3D484C"></path>
                <path d="M101.64834,7.71242 L101.64834,33.91462 C101.64834,34.30202 101.96254,34.61822 102.34814,34.61822 L103.23874,34.61822 C103.40254,34.61822 103.55474,34.56222 103.67434,34.46782 C103.83814,34.33862 103.94234,34.13822 103.94234,33.91462 L103.94234,7.71242 C103.94234,7.32682 103.62634,7.01062 103.23874,7.01062 L102.34814,7.01062 C101.96254,7.01062 101.64834,7.32682 101.64834,7.71242" id="Fill-495" fill="#EF1F0F"></path>
                <path d="M11.24168,36.18742 L103.65688,36.18742 C103.66288,35.74582 103.66868,35.28882 103.67428,34.81962 C103.83828,34.71662 103.94228,34.55742 103.94228,34.37942 L103.94228,31.90122 L14.90448,31.90122 L11.24168,36.18742 Z" id="Fill-496" fill="#EF1F0F"></path>
                <path d="M26.09734,36.43136 L23.33154,36.43136 C23.03274,36.43136 22.79054,36.18916 22.79054,35.89036 L22.79054,34.60916 C22.79054,34.31036 23.03274,34.06816 23.33154,34.06816 L26.09734,34.06816 C26.39614,34.06816 26.63834,34.31036 26.63834,34.60916 L26.63834,35.89036 C26.63834,36.18916 26.39614,36.43136 26.09734,36.43136" id="Fill-497" fill="#FFAA00"></path>
                <path d="M14.18444,20.27668 L14.18444,25.36188 C14.18444,26.45488 15.07904,27.34928 16.17204,27.34928 L16.17204,18.28908 C15.62504,18.28908 15.12884,18.51248 14.76824,18.87288 C14.40764,19.23268 14.18444,19.72988 14.18444,20.27668" id="Fill-498" fill="#4F5150"></path>
                <path d="M95.86884,7.1466 L99.24504,7.1466 C99.70864,7.1466 100.08804,6.7674 100.08804,6.3036 L100.08804,5.9336 C100.08804,5.4698 99.70864,5.0906 99.24504,5.0906 L95.86884,5.0906 C95.40524,5.0906 95.02584,5.4698 95.02584,5.9336 L95.02584,6.3036 C95.02584,6.7674 95.40524,7.1466 95.86884,7.1466" id="Fill-499" fill="#1E227B"></path>
            </g>
        </g>
    </g>
</svg>