<?xml version="1.0" encoding="UTF-8"?>
<svg width="132px" height="56px" viewBox="0 0 132 56" version="1.1" xmlns="http://www.w3.org/2000/svg" xmlns:xlink="http://www.w3.org/1999/xlink">
    <!-- Generator: Sketch 52.6 (67491) - http://www.bohemiancoding.com/sketch -->
    <title>分组 14</title>
    <desc>Created with Sketch.</desc>
    <g id="图示" stroke="none" stroke-width="1" fill="none" fill-rule="evenodd">
        <g id="交通工具" transform="translate(-80.000000, -379.000000)">
            <g id="分组-14" transform="translate(80.000000, 379.000000)">
                <polygon id="Fill-500" fill="#CECECE" points="38.941 35.1932 39.3924 35.1932 39.3924 6.141 38.941 6.141"></polygon>
                <polygon id="Fill-501" fill="#F4F4F4" points="38.4904 35.1932 38.9414 35.1932 38.9414 6.1412 38.4904 6.1412"></polygon>
                <path d="M15.20212,2.59446 C26.43852,0.71806 34.75552,1.84626 39.39252,2.94786 L39.39252,2.18426 C36.62252,1.26606 28.38672,-0.81934 16.12112,1.65386 L15.20212,2.59446 Z" id="Fill-502" fill="#F4F4F4"></path>
                <path d="M16.62,1.62316 L16.62,2.06396 C16.62,1.85856 16.7044,1.67136 16.8392,1.53576 C16.9748,1.40096 17.162,1.31656 17.3674,1.31656 C17.7782,1.31656 18.1146,1.65296 18.1146,2.06396 L18.1146,1.62316 C18.1146,1.21236 17.7782,0.87596 17.3674,0.87596 C17.162,0.87596 16.9748,0.96036 16.8392,1.09496 C16.7044,1.23076 16.62,1.41776 16.62,1.62316" id="Fill-503" fill="#FFB85A"></path>
                <path d="M16.62,2.06398 L16.62,2.76438 L18.1146,2.76438 L18.1146,2.06398 C18.1146,1.65298 17.7782,1.31658 17.3674,1.31658 C17.162,1.31658 16.9748,1.40098 16.8392,1.53578 C16.7044,1.67138 16.62,1.85858 16.62,2.06398" id="Fill-504" fill="#FFA827"></path>
                <path d="M30.881,15.9608 L30.8818,15.9608 L30.8818,6.1406 L30.881,6.1406 L30.881,15.9608 Z M26.5512,6.1408 L26.5512,15.9424 L28.4152,15.9502 L28.416,15.9502 L28.8658,15.9522 L28.8666,15.9522 L29.3174,15.9538 L29.3174,6.1408 L26.5512,6.1408 Z M2.2542,15.8426 L6.157,15.859 L6.4376,15.8596 L13.5764,6.7356 L14.0416,6.1408 L11.6174,6.1408 L10.7298,7.0604 L6.7304,11.2048 L5.465,12.5156 L2.2542,15.8426 Z" id="Fill-505" fill="#EAEAEA"></path>
                <path d="M11.73612,6.14074 L39.39252,6.14074 L39.39252,2.94774 C34.75552,1.84614 26.43852,0.71814 15.20212,2.59454 L12.84832,5.00274 L12.45972,5.40034 L11.73612,6.14074 Z" id="Fill-506" fill="#D9E0E6"></path>
                <path d="M2.21512,35.21438 L39.39252,35.21438 L39.39252,17.20698 L1.95452,17.20698 C1.50292,20.04678 1.58972,32.41378 2.21512,35.21438" id="Fill-507" fill="#D9E0E6"></path>
                <polygon id="Fill-508" fill="#2E2A2B" points="0.6201 42.06672 1.9239 45.57672 39.3925 45.57672 39.3925 42.06672"></polygon>
                <polygon id="Fill-509" fill="#545454" points="6.39488462e-14 36.9712 39.3926 36.9712 39.3926 35.2144 6.39488462e-14 35.2144"></polygon>
                <polygon id="Fill-510" fill="#343635" points="-1.99999999e-05 36.9712 -1.99999999e-05 40.3956 0.62018 42.0652 39.39258 42.0652 39.39258 36.9712"></polygon>
                <polygon id="Fill-511" fill="#7586A4" points="16.10194 15.95696 21.02274 15.99836 23.66394 6.73576 18.73234 6.73576"></polygon>
                <polygon id="Fill-512" fill="#455883" points="21.02264 15.99836 26.55044 16.04356 26.55044 6.73576 23.66384 6.73576"></polygon>
                <polygon id="Fill-513" fill="#455883" points="6.4237 15.87804 16.1019 15.95704 18.7323 6.73564 13.5765 6.73564 6.4375 15.85964"></polygon>
                <polygon id="Fill-514" fill="#D9E0E6" points="30.88094 6.14074 35.53334 6.14074 35.53414 6.14074 39.39254 6.14074 39.39254 16.08334 39.39254 17.20694 29.31734 17.20694 29.31734 16.06654 29.31734 15.95374 29.31734 6.14074"></polygon>
                <path d="M1.95448,17.20696 L29.31728,17.20696 L29.31728,15.95376 L28.86668,15.95236 L28.86588,15.95236 L28.41608,15.95016 L28.41528,15.95016 L26.55108,15.94236 L26.55108,16.08336 L6.26348,16.08336 L6.33568,15.99156 L6.37168,15.94456 L6.43768,15.85976 L6.15708,15.85896 L2.25428,15.84276 C2.25428,15.84276 2.24048,15.84276 2.21428,15.84356 C2.11388,16.29496 2.02728,16.74956 1.95448,17.20696" id="Fill-515" fill="#F4F4F4"></path>
                <polygon id="Fill-516" fill="#F4F4F4" points="6.26268 16.08352 26.55068 16.08352 26.55068 16.04392 6.42388 15.87792"></polygon>
                <polygon id="Fill-517" fill="#CECECE" points="28.8658 35.1928 29.3172 35.1928 29.3172 6.1406 28.8658 6.1406"></polygon>
                <polygon id="Fill-518" fill="#F4F4F4" points="28.4152 35.193 28.8662 35.193 28.8662 6.1408 28.4152 6.1408"></polygon>
                <polygon id="Fill-519" fill="#CECECE" points="6.7298 35.193 7.1808 35.193 7.1808 17.228 6.7298 17.228"></polygon>
                <polygon id="Fill-520" fill="#F4F4F4" points="6.2788 35.193 6.7298 35.193 6.7298 17.228 6.2788 17.228"></polygon>
                <polygon id="Fill-521" fill="#CECECE" points="6.7298 27.7082 28.415 27.7082 28.415 27.3108 6.7298 27.3108"></polygon>
                <polygon id="Fill-522" fill="#F4F4F4" points="6.7298 27.3106 28.415 27.3106 28.415 26.9132 6.7298 26.9132"></polygon>
                <polygon id="Fill-523" fill="#F4F4F4" points="12.45964 5.40032 39.39264 5.40032 39.39264 5.00272 12.84824 5.00272"></polygon>
                <polygon id="Fill-524" fill="#CECECE" points="29.317 23.9528 38.4904 23.9528 38.4904 23.555 29.317 23.555"></polygon>
                <polygon id="Fill-525" fill="#F4F4F4" points="29.317 23.555 38.4904 23.555 38.4904 23.1572 29.317 23.1572"></polygon>
                <path d="M23.7866,19.18 C23.7866,19.2794 23.8018,19.3748 23.8298,19.4652 C23.9132,19.0198 24.3064,18.6796 24.7748,18.6796 L26.8968,18.6796 C27.161,18.6796 27.4012,18.7876 27.5758,18.9622 C27.6838,19.0704 27.7672,19.2048 27.8144,19.3546 C27.8248,19.2978 27.8304,19.2394 27.8304,19.18 C27.8304,18.9158 27.7224,18.6756 27.5486,18.501 C27.374,18.3272 27.1338,18.2192 26.8696,18.2192 L24.7476,18.2192 C24.219,18.2192 23.7866,18.6514 23.7866,19.18" id="Fill-526" fill="#353F44"></path>
                <path d="M23.82986,19.46516 L23.82986,19.46596 C23.87706,19.61576 23.96046,19.75016 24.06846,19.85916 C24.24306,20.03296 24.48326,20.14096 24.74746,20.14096 L26.86946,20.14096 C27.33806,20.14096 27.73106,19.80076 27.81446,19.35536 L27.81446,19.35456 C27.76726,19.20476 27.68386,19.07036 27.57566,18.96216 C27.40126,18.78756 27.16106,18.67956 26.89666,18.67956 L24.77486,18.67956 C24.30626,18.67956 23.91326,19.01976 23.82986,19.46516" id="Fill-527" fill="#3D484C"></path>
                <path d="M8.3951,8.15422 L8.3951,13.30662 C8.3951,13.71962 8.5215,14.10522 8.7377,14.42542 C8.6165,14.16722 8.5485,13.87902 8.5485,13.57622 L8.5485,8.42422 C8.5485,7.87002 8.7745,7.36642 9.1401,7.00222 C9.4689,6.67362 9.9081,6.45742 10.3955,6.41822 L10.3955,6.14082 C9.8475,6.14462 9.3493,6.37002 8.9867,6.73262 C8.6211,7.09662 8.3951,7.60002 8.3951,8.15422" id="Fill-528" fill="#686868"></path>
                <polygon id="Fill-529" fill="#686868" points="10.39558 6.14074 10.39558 6.41834 10.40858 6.41674 10.40858 6.14074"></polygon>
                <path d="M8.54842,8.42414 L8.54842,13.57634 C8.54842,13.87894 8.61662,14.16734 8.73762,14.42554 C9.09942,14.96354 9.71502,15.31994 10.40862,15.31994 L10.40862,6.41674 L10.39562,6.41834 C9.90802,6.45734 9.46902,6.67354 9.14002,7.00234 C8.77442,7.36634 8.54842,7.86994 8.54842,8.42414" id="Fill-530" fill="#4F5150"></path>
                <path d="M10.40858,6.14074 L10.40858,6.41674 C10.45538,6.41274 10.50218,6.41074 10.54898,6.41074 L13.83078,6.41074 L14.04178,6.14074 L10.40858,6.14074 Z" id="Fill-531" fill="#686868"></path>
                <path d="M10.39558,6.41828 L10.39558,7.06048 L13.32198,7.06048 L13.83078,6.41068 L10.54898,6.41068 C10.50218,6.41068 10.45538,6.41288 10.40858,6.41668 L10.39558,6.41828 Z" id="Fill-532" fill="#4F5150"></path>
                <path d="M2.86658,27.23098 C2.86658,27.26138 2.86898,27.29218 2.87438,27.32138 C2.91638,27.04698 3.15558,26.83538 3.44158,26.83538 L5.05098,26.83538 C5.20878,26.83538 5.35298,26.89978 5.45718,27.00398 C5.54158,27.08838 5.59978,27.19878 5.61818,27.32138 C5.62358,27.29218 5.62578,27.26138 5.62578,27.23098 C5.62578,27.07298 5.56158,26.92878 5.45718,26.82478 C5.35298,26.72038 5.20878,26.65598 5.05098,26.65598 L3.44158,26.65598 C3.12498,26.65598 2.86658,26.91518 2.86658,27.23098" id="Fill-533" fill="#FFB85A"></path>
                <path d="M2.8743,27.3214 C2.8743,27.3214 2.8735,27.3222 2.8743,27.3228 C2.8789,27.3526 2.8865,27.382 2.8957,27.4102 C2.9241,27.4968 2.9723,27.5744 3.0353,27.637 C3.1395,27.7414 3.2835,27.8058 3.4415,27.8058 L5.0511,27.8058 C5.3047,27.8058 5.5217,27.6394 5.5967,27.4102 C5.6059,27.382 5.6137,27.3526 5.6183,27.3228 C5.6189,27.3222 5.6183,27.3214 5.6183,27.3214 C5.5997,27.1988 5.5415,27.0884 5.4573,27.004 C5.3531,26.8998 5.2089,26.8354 5.0511,26.8354 L3.4415,26.8354 C3.1555,26.8354 2.9163,27.047 2.8743,27.3214" id="Fill-534" fill="#FFA827"></path>
                <path d="M2.86658,27.58956 C2.86658,27.74756 2.93098,27.89156 3.03518,27.99576 C3.13938,28.10016 3.28358,28.16436 3.44158,28.16436 L5.05098,28.16436 C5.36758,28.16436 5.62578,27.90616 5.62578,27.58956 C5.62578,27.52676 5.61598,27.46696 5.59678,27.41036 C5.52158,27.63936 5.30478,27.80576 5.05098,27.80576 L3.44158,27.80576 C3.28358,27.80576 3.13938,27.74136 3.03518,27.63696 C2.97238,27.57436 2.92418,27.49676 2.89578,27.41036 C2.87658,27.46696 2.86658,27.52676 2.86658,27.58956" id="Fill-535" fill="#CECECE"></path>
                <polygon id="Fill-536" fill="#CECECE" points="11.73612 6.14074 39.39252 6.14074 39.39252 5.40034 12.45972 5.40034"></polygon>
                <path d="M30.26296,8.22024 L30.26296,8.59424 L36.09796,8.59424 C36.41756,8.59424 36.67596,8.85264 36.67596,9.17144 L36.67596,20.91524 L36.96716,20.91524 C37.28596,20.91524 37.54436,20.65624 37.54436,20.33744 L37.54436,8.22024 C37.54436,7.90144 37.28596,7.64224 36.96716,7.64224 L30.84076,7.64224 C30.52196,7.64224 30.26296,7.90144 30.26296,8.22024" id="Fill-537" fill="#CECECE"></path>
                <path d="M30.26296,8.59426 L30.26296,20.33746 C30.26296,20.65626 30.52196,20.91506 30.84076,20.91506 L36.67596,20.91506 L36.67596,20.15426 L31.60956,20.15426 C31.28996,20.15426 31.03176,19.89586 31.03176,19.57706 L31.03176,8.59426 L30.26296,8.59426 Z" id="Fill-538" fill="#F4F4F4"></path>
                <path d="M31.03172,8.59426 L31.03172,19.57706 C31.03172,19.89586 31.29012,20.15426 31.60972,20.15426 L36.67592,20.15426 L36.67592,9.17146 C36.67592,8.85266 36.41772,8.59426 36.09812,8.59426 L31.03172,8.59426 Z" id="Fill-539" fill="#D9E0E6"></path>
                <polygon id="Fill-540" fill="#F4F4F4" points="30.148 25.2316 37.6594 25.2316 37.6594 24.7882 30.148 24.7882"></polygon>
                <polygon id="Fill-541" fill="#CECECE" points="30.148 25.675 37.6594 25.675 37.6594 25.2316 30.148 25.2316"></polygon>
                <polygon id="Fill-542" fill="#F4F4F4" points="30.148 26.458 37.6594 26.458 37.6594 26.0146 30.148 26.0146"></polygon>
                <polygon id="Fill-543" fill="#CECECE" points="30.148 26.9012 37.6594 26.9012 37.6594 26.4578 30.148 26.4578"></polygon>
                <polygon id="Fill-544" fill="#F4F4F4" points="30.148 27.6842 37.6594 27.6842 37.6594 27.2408 30.148 27.2408"></polygon>
                <polygon id="Fill-545" fill="#CECECE" points="30.148 28.1276 37.6594 28.1276 37.6594 27.6842 30.148 27.6842"></polygon>
                <polygon id="Fill-546" fill="#F4F4F4" points="30.148 28.9106 37.6594 28.9106 37.6594 28.467 30.148 28.467"></polygon>
                <polygon id="Fill-547" fill="#CECECE" points="30.148 29.354 37.6594 29.354 37.6594 28.9106 30.148 28.9106"></polygon>
                <polygon id="Fill-548" fill="#F4F4F4" points="30.148 30.137 37.6594 30.137 37.6594 29.6934 30.148 29.6934"></polygon>
                <polygon id="Fill-549" fill="#CECECE" points="30.148 30.5804 37.6594 30.5804 37.6594 30.137 30.148 30.137"></polygon>
                <polygon id="Fill-550" fill="#324A75" points="13.57644 6.73566 26.55124 6.73566 26.55124 6.14066 14.04164 6.14066"></polygon>
                <polygon id="Fill-551" fill="#262626" points="39.3924 34.57 119.7022 34.57 119.7022 32.325 39.3924 32.325"></polygon>
                <polygon id="Fill-552" fill="#343635" points="39.3924 39.7866 119.7022 39.7866 119.7022 34.57 39.3924 34.57"></polygon>
                <path d="M106.58338,45.00206 C106.58338,45.22386 106.57698,45.44586 106.56598,45.66466 C106.24818,39.17626 100.88698,34.01606 94.31878,34.01606 C87.75718,34.01606 82.39918,39.16986 82.07338,45.65166 C82.06238,45.43626 82.05598,45.22086 82.05598,45.00206 C82.05598,44.86806 82.05758,44.73566 82.06378,44.60306 C82.27298,38.01446 87.68058,32.73926 94.31878,32.73926 C100.95858,32.73926 106.36638,38.01446 106.57538,44.60306 C106.58178,44.73566 106.58338,44.86806 106.58338,45.00206" id="Fill-553" fill="#F4F4F4"></path>
                <path d="M106.5659,45.66456 C106.5387,46.15276 106.4845,46.63336 106.4031,47.10416 L82.2363,47.10416 C82.1549,46.62856 82.0991,46.14496 82.0735,45.65176 C82.3991,39.16976 87.7573,34.01616 94.3189,34.01616 C100.8869,34.01616 106.2483,39.17636 106.5659,45.66456" id="Fill-554" fill="#D9E0E6"></path>
                <path d="M103.80446,45.85364 C103.80446,51.09184 99.55806,55.33844 94.31966,55.33844 C89.08126,55.33844 84.83486,51.09184 84.83486,45.85364 C84.83486,40.61544 89.08126,36.36884 94.31966,36.36884 C99.55806,36.36884 103.80446,40.61544 103.80446,45.85364" id="Fill-555" fill="#1F1C23"></path>
                <path d="M100.73728,45.85402 C100.73728,46.01782 100.73128,46.18082 100.71868,46.34162 C100.46628,43.02782 97.69828,40.41762 94.31948,40.41762 C90.94168,40.41762 88.17248,43.02782 87.92028,46.34162 C87.90748,46.18082 87.90168,46.01782 87.90168,45.85402 C87.90168,42.30922 90.77588,39.43602 94.31948,39.43602 C97.86408,39.43602 100.73728,42.30922 100.73728,45.85402" id="Fill-556" fill="#DBDBDB"></path>
                <path d="M100.71862,46.34172 L100.71862,46.34772 C100.46622,49.66072 97.69822,52.27072 94.31942,52.27072 C90.94162,52.27072 88.17262,49.66072 87.92022,46.34772 L87.92022,46.34172 C88.17262,43.02792 90.94162,40.41772 94.31942,40.41772 C97.69822,40.41772 100.46622,43.02792 100.71862,46.34172" id="Fill-557" fill="#F3F4F6"></path>
                <path d="M97.5284,45.85402 C97.5284,46.02082 97.5156,46.18462 97.491,46.34482 C97.2554,44.80562 95.9254,43.62662 94.3194,43.62662 C92.7146,43.62662 91.3844,44.80562 91.1478,46.34482 C91.1234,46.18462 91.1106,46.02082 91.1106,45.85402 C91.1106,44.08122 92.5476,42.64502 94.3194,42.64502 C96.0922,42.64502 97.5284,44.08122 97.5284,45.85402" id="Fill-558" fill="#72727C"></path>
                <path d="M97.49108,46.34484 C97.25548,47.88384 95.92528,49.06284 94.31948,49.06284 C92.71448,49.06284 91.38448,47.88384 91.14788,46.34484 C91.38448,44.80564 92.71448,43.62664 94.31948,43.62664 C95.92528,43.62664 97.25548,44.80564 97.49108,46.34484" id="Fill-559" fill="#8E8E9A"></path>
                <polygon id="Fill-560" fill="#D9E0E6" points="39.8952 44.0388 56.6856 44.0388 56.6856 36.993 39.8952 36.993"></polygon>
                <polygon id="Fill-561" fill="#343635" points="52.994 44.0388 54.9156 44.0388 54.9156 36.993 52.994 36.993"></polygon>
                <polygon id="Fill-562" fill="#343635" points="41.8002 44.0388 43.7218 44.0388 43.7218 36.993 41.8002 36.993"></polygon>
                <path d="M41.22204,45.10032 C41.22204,45.32192 41.21564,45.54392 41.20444,45.76272 C40.88684,39.27432 35.52564,34.11412 28.95744,34.11412 C22.39584,34.11412 17.03764,39.26812 16.71204,45.74992 C16.70104,45.53432 16.69444,45.31892 16.69444,45.10032 C16.69444,44.96612 16.69624,44.83372 16.70244,44.70132 C16.91164,38.11252 22.31924,32.83732 28.95744,32.83732 C35.59724,32.83732 41.00504,38.11252 41.21404,44.70132 C41.22044,44.83372 41.22204,44.96612 41.22204,45.10032" id="Fill-563" fill="#F4F4F4"></path>
                <path d="M41.20448,45.76262 C41.17748,46.25102 41.12308,46.73142 41.04168,47.20222 L16.87488,47.20222 C16.79348,46.72662 16.73768,46.24302 16.71208,45.75002 C17.03768,39.26802 22.39588,34.11422 28.95748,34.11422 C35.52548,34.11422 40.88688,39.27442 41.20448,45.76262" id="Fill-564" fill="#D9E0E6"></path>
                <path d="M38.44314,45.95168 C38.44314,51.19008 34.19674,55.43668 28.95834,55.43668 C23.71994,55.43668 19.47354,51.19008 19.47354,45.95168 C19.47354,40.71348 23.71994,36.46688 28.95834,36.46688 C34.19674,36.46688 38.44314,40.71348 38.44314,45.95168" id="Fill-565" fill="#1F1C23"></path>
                <path d="M35.37596,45.95206 C35.37596,46.11586 35.36996,46.27886 35.35736,46.43986 C35.10496,43.12586 32.33676,40.51586 28.95816,40.51586 C25.58036,40.51586 22.81116,43.12586 22.55896,46.43986 C22.54616,46.27886 22.54036,46.11586 22.54036,45.95206 C22.54036,42.40726 25.41436,39.53426 28.95816,39.53426 C32.50276,39.53426 35.37596,42.40726 35.37596,45.95206" id="Fill-566" fill="#DBDBDB"></path>
                <path d="M35.3573,46.43996 L35.3573,46.44576 C35.1049,49.75876 32.3367,52.36876 28.9581,52.36876 C25.5803,52.36876 22.8113,49.75876 22.5589,46.44576 L22.5589,46.43996 C22.8113,43.12596 25.5803,40.51596 28.9581,40.51596 C32.3367,40.51596 35.1049,43.12596 35.3573,46.43996" id="Fill-567" fill="#F3F4F6"></path>
                <path d="M32.16698,45.95206 C32.16698,46.11886 32.15438,46.28286 32.12958,46.44286 C31.89418,44.90366 30.56398,43.72466 28.95818,43.72466 C27.35318,43.72466 26.02318,44.90366 25.78658,46.44286 C25.76198,46.28286 25.74918,46.11886 25.74918,45.95206 C25.74918,44.17926 27.18638,42.74306 28.95818,42.74306 C30.73098,42.74306 32.16698,44.17926 32.16698,45.95206" id="Fill-568" fill="#72727C"></path>
                <path d="M32.12966,46.44288 C31.89406,47.98188 30.56406,49.16088 28.95806,49.16088 C27.35326,49.16088 26.02306,47.98188 25.78646,46.44288 C26.02306,44.90368 27.35326,43.72468 28.95806,43.72468 C30.56406,43.72468 31.89406,44.90368 32.12966,46.44288" id="Fill-569" fill="#8E8E9A"></path>
                <polygon id="Fill-570" fill="#D9E0E6" points="131.8445 16.80852 131.8445 22.12732 131.8445 24.68552 131.8445 32.32512 39.3925 32.32512 39.3925 24.68552 39.3925 22.12732 39.3925 16.80852"></polygon>
                <polygon id="Fill-571" fill="#F4F4F4" points="130.15066 19.11692 130.15066 22.12732 130.15066 24.68552 130.15066 30.27912 41.08646 30.27912 41.08646 24.68552 41.08646 22.12732 41.08646 19.11692"></polygon>
                <polygon id="Fill-572" fill="#CECECE" points="129.16404 20.05618 129.16404 22.12718 129.16404 24.68538 129.16404 29.43218 42.07304 29.43218 42.07304 24.68538 42.07304 22.12718 42.07304 20.05618"></polygon>
                <polygon id="Fill-573" fill="#D9E0E6" points="127.58366 21.26984 127.58366 22.80484 127.58366 24.70064 127.58366 28.21844 43.65346 28.21844 43.65346 24.70064 43.65346 22.80484 43.65346 21.26984"></polygon>
                <polygon id="Fill-574" fill="#F4F4F4" points="112.0448 29.4322 113.653 29.4322 113.653 20.0562 112.0448 20.0562"></polygon>
                <polygon id="Fill-575" fill="#CECECE" points="111.102 29.4322 112.0448 29.4322 112.0448 20.0562 111.102 20.0562"></polygon>
                <polygon id="Fill-576" fill="#F4F4F4" points="94.326 29.4322 95.9344 29.4322 95.9344 20.0562 94.326 20.0562"></polygon>
                <polygon id="Fill-577" fill="#CECECE" points="93.3832 29.4322 94.326 29.4322 94.326 20.0562 93.3832 20.0562"></polygon>
                <polygon id="Fill-578" fill="#F4F4F4" points="76.6072 29.4322 78.2156 29.4322 78.2156 20.0562 76.6072 20.0562"></polygon>
                <polygon id="Fill-579" fill="#CECECE" points="75.6642 29.4322 76.607 29.4322 76.607 20.0562 75.6642 20.0562"></polygon>
                <polygon id="Fill-580" fill="#F4F4F4" points="58.8882 29.424 60.4966 29.424 60.4966 20.0482 58.8882 20.0482"></polygon>
                <polygon id="Fill-581" fill="#CECECE" points="57.9454 29.424 58.8882 29.424 58.8882 20.0482 57.9454 20.0482"></polygon>
                <polygon id="Fill-582" fill="#F40000" points="119.7022 39.7866 121.5178 39.7866 121.5178 34.57 119.7022 34.57"></polygon>
            </g>
        </g>
    </g>
</svg>