<?xml version="1.0" encoding="UTF-8"?>
<svg width="97px" height="84px" viewBox="0 0 97 84" version="1.1" xmlns="http://www.w3.org/2000/svg" xmlns:xlink="http://www.w3.org/1999/xlink">
    <!-- Generator: Sketch 52.6 (67491) - http://www.bohemiancoding.com/sketch -->
    <title>分组 20</title>
    <desc>Created with Sketch.</desc>
    <g id="图示" stroke="none" stroke-width="1" fill="none" fill-rule="evenodd">
        <g id="交通工具" transform="translate(-390.000000, -521.000000)">
            <g id="分组-20" transform="translate(390.000000, 521.000000)">
                <path d="M74.22468,1.89894 C74.22468,1.89894 78.17288,2.12634 77.29008,7.60954" id="Stroke-704" stroke="#F3F4F6" stroke-width="1.0876"></path>
                <path d="M74.3325,3.07706 L67.1267,3.07706 C66.7359,3.07706 66.4189,2.76006 66.4189,2.36926 L66.4189,1.42886 C66.4189,1.03786 66.7359,0.72106 67.1267,0.72106 L74.3325,0.72106 C74.7235,0.72106 75.0405,1.03786 75.0405,1.42886 L75.0405,2.36926 C75.0405,2.76006 74.7235,3.07706 74.3325,3.07706" id="Fill-705" fill="#1F1C23"></path>
                <path d="M0.76238,64.17374 C0.76238,74.71134 9.30478,83.25354 19.84218,83.25354 C30.37978,83.25354 38.92198,74.71134 38.92198,64.17374 C38.92198,53.63634 30.37978,45.09414 19.84218,45.09414 C9.30478,45.09414 0.76238,53.63634 0.76238,64.17374" id="Fill-706" fill="#1F1C23"></path>
                <path d="M19.84266,48.9087 C11.41126,48.9087 4.57686,55.7431 4.57686,64.1745 C4.57686,64.5645 4.59086,64.9521 4.62126,65.3351 L4.62126,65.3489 C5.22126,73.2295 11.80566,79.4379 19.84266,79.4379 C27.87726,79.4379 34.46386,73.2295 35.06406,65.3489 L35.06406,65.3351 C35.09446,64.9521 35.10846,64.5645 35.10846,64.1745 C35.10846,55.7431 28.27186,48.9087 19.84266,48.9087" id="Fill-707" fill="#F3F4F6"></path>
                <path d="M19.84266,50.27178 C12.16406,50.27178 5.93986,56.49578 5.93986,64.17458 C5.93986,64.52958 5.95266,64.88258 5.98026,65.23138 L5.98026,65.24398 C6.52686,72.42078 12.52326,78.07498 19.84266,78.07498 C27.15986,78.07498 33.15846,72.42078 33.70506,65.24398 L33.70506,65.23138 C33.73266,64.88258 33.74546,64.52958 33.74546,64.17458 C33.74546,56.49578 27.51926,50.27178 19.84266,50.27178" id="Fill-708" fill="#494949"></path>
                <path d="M19.84266,61.74328 C18.50006,61.74328 17.41206,62.83148 17.41206,64.17388 C17.41206,64.23608 17.41406,64.29768 17.41906,64.35868 L17.41906,64.36108 C17.51446,65.61568 18.56306,66.60448 19.84266,66.60448 C21.12186,66.60448 22.17086,65.61568 22.26626,64.36108 L22.26626,64.35868 C22.27126,64.29768 22.27326,64.23608 22.27326,64.17388 C22.27326,62.83148 21.18486,61.74328 19.84266,61.74328" id="Fill-709" fill="#F3F4F6"></path>
                <path d="M19.8448,62.77472 C19.0708,62.77472 18.4434,63.40212 18.4434,64.17592 C18.4434,64.21172 18.4448,64.24712 18.4476,64.28232 L18.4476,64.28372 C18.5026,65.00692 19.1072,65.57692 19.8448,65.57692 C20.5824,65.57692 21.1868,65.00692 21.2418,64.28372 L21.2418,64.28232 C21.2448,64.24712 21.246,64.21172 21.246,64.17592 C21.246,63.40212 20.6184,62.77472 19.8448,62.77472" id="Fill-710" fill="#494949"></path>
                <polygon id="Fill-711" fill="#F3F4F6" points="19.39 60.2834 20.2954 60.2834 20.2954 49.4988 19.39 49.4988"></polygon>
                <polygon id="Fill-712" fill="#F3F4F6" points="19.27312 60.29854 18.39832 60.53294 15.60712 50.11594 16.48172 49.88134"></polygon>
                <polygon id="Fill-713" fill="#F3F4F6" points="18.28952 60.57784 17.50512 61.03084 12.11292 51.69084 12.89712 51.23824"></polygon>
                <polygon id="Fill-714" fill="#F3F4F6" points="17.4116 61.10226 16.7714 61.74266 9.1454 54.11686 9.7858 53.47646"></polygon>
                <polygon id="Fill-715" fill="#F3F4F6" points="16.69948 61.83604 16.24668 62.62044 6.90708 57.22804 7.35988 56.44384"></polygon>
                <polygon id="Fill-716" fill="#F3F4F6" points="16.20164 62.7292 15.96724 63.6038 5.55004 60.8126 5.78444 59.9378"></polygon>
                <polygon id="Fill-717" fill="#F3F4F6" points="5.167 64.6262 15.9516 64.6262 15.9516 63.7206 5.167 63.7206"></polygon>
                <polygon id="Fill-718" fill="#F3F4F6" points="15.96688 64.74308 16.20148 65.61768 5.78428 68.40888 5.54988 67.53428"></polygon>
                <polygon id="Fill-719" fill="#F3F4F6" points="16.24636 65.72666 16.69916 66.51086 7.35936 71.90326 6.90656 71.11886"></polygon>
                <polygon id="Fill-720" fill="#F3F4F6" points="16.77078 66.6044 17.41098 67.2446 9.78518 74.8706 9.14478 74.2302"></polygon>
                <polygon id="Fill-721" fill="#F3F4F6" points="17.50456 67.31652 18.28876 67.76932 12.89636 77.10912 12.11216 76.65612"></polygon>
                <polygon id="Fill-722" fill="#F3F4F6" points="18.39754 67.81456 19.27214 68.04896 16.48094 78.46596 15.60634 78.23156"></polygon>
                <polygon id="Fill-723" fill="#F3F4F6" points="19.389 78.849 20.2946 78.849 20.2946 68.0644 19.389 68.0644"></polygon>
                <polygon id="Fill-724" fill="#F3F4F6" points="20.4114 68.04914 21.2862 67.81474 24.0774 78.23174 23.2026 78.46614"></polygon>
                <polygon id="Fill-725" fill="#F3F4F6" points="21.395 67.76964 22.1792 67.31684 27.5716 76.65684 26.7874 77.10944"></polygon>
                <polygon id="Fill-726" fill="#F3F4F6" points="22.27272 67.24522 22.91312 66.60502 30.53892 74.23082 29.89872 74.87122"></polygon>
                <polygon id="Fill-727" fill="#F3F4F6" points="22.98484 66.51164 23.43784 65.72724 32.77744 71.11964 32.32464 71.90384"></polygon>
                <polygon id="Fill-728" fill="#F3F4F6" points="23.48288 65.61846 23.71728 64.74386 34.13448 67.53506 33.90008 68.40986"></polygon>
                <polygon id="Fill-729" fill="#F3F4F6" points="23.7326 64.627 34.5172 64.627 34.5172 63.7214 23.7326 63.7214"></polygon>
                <polygon id="Fill-730" fill="#F3F4F6" points="23.71746 63.6046 23.48306 62.73 33.90026 59.9386 34.13466 60.8134"></polygon>
                <polygon id="Fill-731" fill="#F3F4F6" points="23.43816 62.621 22.98536 61.8368 32.32516 56.4444 32.77776 57.2288"></polygon>
                <polygon id="Fill-732" fill="#F3F4F6" points="22.91374 61.74328 22.27334 61.10308 29.89934 53.47708 30.53954 54.11748"></polygon>
                <polygon id="Fill-733" fill="#F3F4F6" points="22.17996 61.03116 21.39576 60.57836 26.78796 51.23856 27.57236 51.69136"></polygon>
                <polygon id="Fill-734" fill="#F3F4F6" points="21.28698 60.53312 20.41218 60.29872 23.20338 49.88172 24.07818 50.11612"></polygon>
                <path d="M19.83328,62.77472 C19.05948,62.77472 18.43208,63.40212 18.43208,64.17592 C18.43208,64.21172 18.43328,64.24712 18.43628,64.28232 L18.43628,64.28372 C18.49128,65.00692 19.09568,65.57692 19.83328,65.57692 C20.57088,65.57692 21.17548,65.00692 21.23048,64.28372 L21.23048,64.28232 C21.23328,64.24712 21.23468,64.21172 21.23468,64.17592 C21.23468,63.40212 20.60708,62.77472 19.83328,62.77472" id="Fill-735" fill="#494949"></path>
                <path d="M58.10398,64.62628 C58.10398,75.16368 66.64638,83.70588 77.18378,83.70588 C87.72138,83.70588 96.26358,75.16368 96.26358,64.62628 C96.26358,54.08868 87.72138,45.54648 77.18378,45.54648 C66.64638,45.54648 58.10398,54.08868 58.10398,64.62628" id="Fill-736" fill="#1F1C23"></path>
                <path d="M77.18426,49.36104 C68.75286,49.36104 61.91846,56.19544 61.91846,64.62684 C61.91846,65.01684 61.93226,65.40444 61.96286,65.78744 L61.96286,65.80124 C62.56286,73.68184 69.14726,79.89024 77.18426,79.89024 C85.21886,79.89024 91.80546,73.68184 92.40566,65.80124 L92.40566,65.78744 C92.43606,65.40444 92.45006,65.01684 92.45006,64.62684 C92.45006,56.19544 85.61346,49.36104 77.18426,49.36104" id="Fill-737" fill="#F3F4F6"></path>
                <path d="M77.18426,50.72414 C69.50546,50.72414 63.28146,56.94814 63.28146,64.62694 C63.28146,64.98194 63.29426,65.33494 63.32186,65.68374 L63.32186,65.69634 C63.86846,72.87314 69.86486,78.52754 77.18426,78.52754 C84.50146,78.52754 90.50006,72.87314 91.04666,65.69634 L91.04666,65.68374 C91.07406,65.33494 91.08706,64.98194 91.08706,64.62694 C91.08706,56.94814 84.86066,50.72414 77.18426,50.72414" id="Fill-738" fill="#494949"></path>
                <path d="M77.18426,62.19562 C75.84166,62.19562 74.75366,63.28382 74.75366,64.62642 C74.75366,64.68842 74.75566,64.75002 74.76066,64.81122 L74.76066,64.81342 C74.85606,66.06802 75.90466,67.05682 77.18426,67.05682 C78.46346,67.05682 79.51246,66.06802 79.60786,64.81342 L79.60786,64.81122 C79.61286,64.75002 79.61486,64.68842 79.61486,64.62642 C79.61486,63.28382 78.52646,62.19562 77.18426,62.19562" id="Fill-739" fill="#F3F4F6"></path>
                <path d="M77.1864,63.22706 C76.4124,63.22706 75.785,63.85446 75.785,64.62826 C75.785,64.66406 75.7864,64.69966 75.7892,64.73466 L75.7892,64.73606 C75.8442,65.45946 76.4488,66.02926 77.1864,66.02926 C77.924,66.02926 78.5284,65.45946 78.5834,64.73606 L78.5834,64.73466 C78.5864,64.69966 78.5876,64.66406 78.5876,64.62826 C78.5876,63.85446 77.96,63.22706 77.1864,63.22706" id="Fill-740" fill="#494949"></path>
                <polygon id="Fill-741" fill="#F3F4F6" points="76.7316 60.7356 77.637 60.7356 77.637 49.951 76.7316 49.951"></polygon>
                <polygon id="Fill-742" fill="#F3F4F6" points="76.61472 60.75088 75.73992 60.98528 72.94872 50.56828 73.82332 50.33388"></polygon>
                <polygon id="Fill-743" fill="#F3F4F6" points="75.63112 61.03038 74.84672 61.48318 69.45452 52.14318 70.23872 51.69058"></polygon>
                <polygon id="Fill-744" fill="#F3F4F6" points="74.7532 61.5548 74.113 62.195 66.487 54.5692 67.1274 53.9288"></polygon>
                <polygon id="Fill-745" fill="#F3F4F6" points="74.04108 62.28838 73.58828 63.07278 64.24848 57.68038 64.70148 56.89618"></polygon>
                <polygon id="Fill-746" fill="#F3F4F6" points="73.54324 63.18156 73.30884 64.05616 62.89164 61.26496 63.12604 60.39016"></polygon>
                <polygon id="Fill-747" fill="#F3F4F6" points="62.5086 65.0786 73.2932 65.0786 73.2932 64.173 62.5086 64.173"></polygon>
                <polygon id="Fill-748" fill="#F3F4F6" points="73.30848 65.19542 73.54288 66.07002 63.12588 68.86142 62.89148 67.98662"></polygon>
                <polygon id="Fill-749" fill="#F3F4F6" points="73.58796 66.17902 74.04076 66.96322 64.70096 72.35562 64.24816 71.57122"></polygon>
                <polygon id="Fill-750" fill="#F3F4F6" points="74.11238 67.05674 74.75258 67.69694 67.12678 75.32294 66.48638 74.68254"></polygon>
                <polygon id="Fill-751" fill="#F3F4F6" points="74.84616 67.76886 75.63036 68.22166 70.23796 77.56146 69.45376 77.10866"></polygon>
                <polygon id="Fill-752" fill="#F3F4F6" points="75.73914 68.2669 76.61374 68.5013 73.82254 78.9183 72.94794 78.6839"></polygon>
                <polygon id="Fill-753" fill="#F3F4F6" points="76.7306 79.3014 77.6362 79.3014 77.6362 68.5168 76.7306 68.5168"></polygon>
                <polygon id="Fill-754" fill="#F3F4F6" points="77.753 68.50148 78.6276 68.26708 81.419 78.68428 80.5442 78.91868"></polygon>
                <polygon id="Fill-755" fill="#F3F4F6" points="78.7366 68.22218 79.5208 67.76918 84.9132 77.10918 84.129 77.56178"></polygon>
                <polygon id="Fill-756" fill="#F3F4F6" points="79.61434 67.69776 80.25474 67.05736 87.88054 74.68316 87.24034 75.32356"></polygon>
                <polygon id="Fill-757" fill="#F3F4F6" points="80.32644 66.96398 80.77944 66.17978 90.11904 71.57198 89.66624 72.35618"></polygon>
                <polygon id="Fill-758" fill="#F3F4F6" points="80.82448 66.07082 81.05888 65.19622 91.47608 67.98742 91.24168 68.86222"></polygon>
                <polygon id="Fill-759" fill="#F3F4F6" points="81.0742 65.0794 91.8588 65.0794 91.8588 64.1738 81.0742 64.1738"></polygon>
                <polygon id="Fill-760" fill="#F3F4F6" points="81.05906 64.05694 80.82466 63.18234 91.24186 60.39114 91.47626 61.26574"></polygon>
                <polygon id="Fill-761" fill="#F3F4F6" points="80.77976 63.07334 80.32696 62.28914 89.66676 56.89674 90.11936 57.68114"></polygon>
                <polygon id="Fill-762" fill="#F3F4F6" points="80.25534 62.19562 79.61494 61.55542 87.24094 53.92942 87.88114 54.56982"></polygon>
                <polygon id="Fill-763" fill="#F3F4F6" points="79.52156 61.4835 78.73736 61.0307 84.12956 51.6909 84.91396 52.1439"></polygon>
                <polygon id="Fill-764" fill="#F3F4F6" points="78.62858 60.98546 77.75378 60.75106 80.54498 50.33406 81.41978 50.56846"></polygon>
                <path d="M44.98348,66.89424 L19.39108,66.89424 C17.89468,66.89424 16.67048,65.66984 16.67048,64.17344 C16.67048,62.67684 17.89468,61.45244 19.39108,61.45244 L44.98348,61.45244 C46.47988,61.45244 47.70428,62.67684 47.70428,64.17344 C47.70428,65.66984 46.47988,66.89424 44.98348,66.89424" id="Fill-765" fill="#E3E3E3"></path>
                <path d="M77.2618,64.62628 L77.2618,8.67248" id="Stroke-766" stroke="#F3F4F6" stroke-width="2.9748"></path>
                <path d="M42.52176,44.02002 L35.32236,18.23162" id="Stroke-767" stroke="#F3F4F6" stroke-width="2.6978"></path>
                <polyline id="Stroke-768" stroke="#F8CA43" stroke-width="3.6828" points="19.86706 64.4876 42.70186 42.2108 77.26186 42.3962"></polyline>
                <polygon id="Fill-769" fill="#F8CA43" points="74.7126 44.8042 79.811 44.8042 79.811 39.7058 74.7126 39.7058"></polygon>
                <polygon id="Fill-770" fill="#F8CA43" points="74.3446 9.5698 80.0222 9.5698 80.0222 7.0206 74.3446 7.0206"></polygon>
                <path d="M26.77038,18.56808 C26.85898,19.99308 27.70838,21.54548 28.86218,22.38848 C30.72258,23.74768 32.98858,23.02528 34.90958,22.22748 C35.85638,21.83448 36.70438,21.25188 37.62658,20.81148 C38.89218,20.20708 40.28398,19.88328 41.68218,19.81088 C42.36658,19.77528 43.72318,19.75768 43.87078,18.84748 C43.97038,18.23208 43.23838,17.93408 42.73298,17.94208 C41.01938,17.96928 39.30578,17.99668 37.59198,18.02048 C35.91398,18.04388 34.21018,18.16748 32.55798,17.80228 C32.08078,17.69688 31.61138,17.55328 31.15998,17.36488 C30.73158,17.18608 30.34158,16.92128 29.89198,16.79688 C29.27618,16.62668 28.60038,16.60148 27.98138,16.76868 C27.01658,17.02888 26.71898,17.74288 26.77038,18.56808" id="Fill-771" fill="#1F1C23"></path>
                <path d="M77.18348,63.30362 C76.40948,63.30362 75.78208,63.93102 75.78208,64.70482 C75.78208,64.74062 75.78348,64.77622 75.78628,64.81142 L75.78628,64.81262 C75.84128,65.53602 76.44588,66.10582 77.18348,66.10582 C77.92108,66.10582 78.52548,65.53602 78.58048,64.81262 L78.58048,64.81142 C78.58328,64.77622 78.58468,64.74062 78.58468,64.70482 C78.58468,63.93102 77.95708,63.30362 77.18348,63.30362" id="Fill-772" fill="#494949"></path>
                <path d="M19.98738,62.14014 C18.88538,62.14014 17.99198,63.03354 17.99198,64.13554 C17.99198,64.18634 17.99378,64.23714 17.99798,64.28714 L17.99798,64.28894 C18.07618,65.31914 18.93698,66.13054 19.98738,66.13054 C21.03758,66.13054 21.89858,65.31914 21.97678,64.28894 L21.97678,64.28714 C21.98098,64.23714 21.98278,64.18634 21.98278,64.13554 C21.98278,63.03354 21.08918,62.14014 19.98738,62.14014" id="Fill-773" fill="#494949"></path>
                <path d="M43.22604,63.96554 L51.17224,69.51174" id="Stroke-774" stroke="#F3F4F6" stroke-width="1.393"></path>
                <polygon id="Fill-775" fill="#1F1C23" points="50.1678 70.0926 56.0184 70.0926 56.0184 67.7816 50.1678 67.7816"></polygon>
                <path d="M44.0114,62.29972 C42.9094,62.29972 42.016,63.19312 42.016,64.29512 C42.016,64.34592 42.0178,64.39672 42.022,64.44672 L42.022,64.44852 C42.1002,65.47872 42.961,66.29012 44.0114,66.29012 C45.0616,66.29012 45.9226,65.47872 46.001,64.44852 L46.001,64.44672 C46.005,64.39672 46.0068,64.34592 46.0068,64.29512 C46.0068,63.19312 45.1132,62.29972 44.0114,62.29972" id="Fill-776" fill="#494949"></path>
            </g>
        </g>
    </g>
</svg>