<?xml version="1.0" encoding="UTF-8"?>
<svg width="117px" height="68px" viewBox="0 0 117 68" version="1.1" xmlns="http://www.w3.org/2000/svg" xmlns:xlink="http://www.w3.org/1999/xlink">
    <!-- Generator: Sketch 52.6 (67491) - http://www.bohemiancoding.com/sketch -->
    <title>分组 19</title>
    <desc>Created with Sketch.</desc>
    <g id="图示" stroke="none" stroke-width="1" fill="none" fill-rule="evenodd">
        <g id="交通工具" transform="translate(-224.000000, -537.000000)">
            <g id="分组-19" transform="translate(224.000000, 537.000000)">
                <polygon id="Fill-777" fill="#B8956D" points="35.7861 44.21084 34.1163 39.99424 39.4189 37.89444 41.0887 42.11104"></polygon>
                <path d="M0.49764,49.01416 C0.49764,59.33736 8.86624,67.70596 19.18944,67.70596 C29.51264,67.70596 37.88124,59.33736 37.88124,49.01416 C37.88124,38.69096 29.51264,30.32236 19.18944,30.32236 C8.86624,30.32236 0.49764,38.69096 0.49764,49.01416" id="Fill-778" fill="#1F1C23"></path>
                <path d="M19.18982,34.89796 C11.39302,34.89796 5.07302,41.21796 5.07302,49.01476 C5.07302,49.37536 5.08582,49.73376 5.11402,50.08796 L5.11402,50.10096 C5.66902,57.38816 11.75782,63.12936 19.18982,63.12936 C26.61962,63.12936 32.71062,57.38816 33.26562,50.10096 L33.26562,50.08796 C33.29382,49.73376 33.30662,49.37536 33.30662,49.01476 C33.30662,41.21796 26.98462,34.89796 19.18982,34.89796" id="Fill-779" fill="#F3F4F6"></path>
                <path d="M19.18982,36.15832 C12.08922,36.15832 6.33362,41.91392 6.33362,49.01472 C6.33362,49.34312 6.34522,49.66952 6.37082,49.99192 L6.37082,50.00392 C6.87622,56.64032 12.42142,61.86912 19.18982,61.86912 C25.95622,61.86912 31.50342,56.64032 32.00882,50.00392 L32.00882,49.99192 C32.03442,49.66952 32.04622,49.34312 32.04622,49.01472 C32.04622,41.91392 26.28862,36.15832 19.18982,36.15832" id="Fill-780" fill="#494949"></path>
                <path d="M19.18982,44.79932 C16.86182,44.79932 14.97482,46.68652 14.97482,49.01452 C14.97482,49.12212 14.97862,49.22912 14.98702,49.33492 L14.98702,49.33872 C15.15262,51.51452 16.97082,53.22892 19.18982,53.22892 C21.40822,53.22892 23.22702,51.51452 23.39282,49.33872 L23.39282,49.33492 C23.40102,49.22912 23.40502,49.12212 23.40502,49.01452 C23.40502,46.68652 21.51722,44.79932 19.18982,44.79932" id="Fill-781" fill="#F3F4F6"></path>
                <polygon id="Fill-782" fill="#F3F4F6" points="19.78972 49.01416 18.58932 49.01416 17.78892 35.69556 20.59012 35.69556"></polygon>
                <polygon id="Fill-783" fill="#F3F4F6" points="19.61394 48.58976 18.76494 49.43856 8.78154 40.58696 10.76234 38.60616"></polygon>
                <polygon id="Fill-784" fill="#F3F4F6" points="19.18942 48.41398 19.18942 49.61438 5.87102 50.41478 5.87102 47.61358"></polygon>
                <polygon id="Fill-785" fill="#F3F4F6" points="18.76502 48.58976 19.61402 49.43856 10.76222 59.42216 8.78162 57.44136"></polygon>
                <polygon id="Fill-786" fill="#F3F4F6" points="18.58924 49.01416 19.78964 49.01416 20.59004 62.33256 17.78884 62.33256"></polygon>
                <polygon id="Fill-787" fill="#F3F4F6" points="18.76502 49.43858 19.61402 48.58978 29.59742 57.44138 27.61662 59.42218"></polygon>
                <polygon id="Fill-788" fill="#F3F4F6" points="19.18942 49.61436 19.18942 48.41396 32.50782 47.61356 32.50782 50.41476"></polygon>
                <polygon id="Fill-789" fill="#F3F4F6" points="19.61394 49.43858 18.76494 48.58978 27.61674 38.60618 29.59734 40.58698"></polygon>
                <path d="M79.36736,49.01416 C79.36736,59.33736 87.73596,67.70596 98.05916,67.70596 C108.38236,67.70596 116.75096,59.33736 116.75096,49.01416 C116.75096,38.69096 108.38236,30.32236 98.05916,30.32236 C87.73596,30.32236 79.36736,38.69096 79.36736,49.01416" id="Fill-790" fill="#1F1C23"></path>
                <path d="M98.05954,34.89796 C90.26274,34.89796 83.94274,41.21796 83.94274,49.01476 C83.94274,49.37536 83.95554,49.73376 83.98374,50.08796 L83.98374,50.10096 C84.53874,57.38816 90.62754,63.12936 98.05954,63.12936 C105.48934,63.12936 111.58034,57.38816 112.13534,50.10096 L112.13534,50.08796 C112.16354,49.73376 112.17634,49.37536 112.17634,49.01476 C112.17634,41.21796 105.85434,34.89796 98.05954,34.89796" id="Fill-791" fill="#F3F4F6"></path>
                <path d="M98.05954,36.15832 C90.95894,36.15832 85.20334,41.91392 85.20334,49.01472 C85.20334,49.34312 85.21494,49.66952 85.24054,49.99192 L85.24054,50.00392 C85.74594,56.64032 91.29114,61.86912 98.05954,61.86912 C104.82594,61.86912 110.37314,56.64032 110.87854,50.00392 L110.87854,49.99192 C110.90414,49.66952 110.91594,49.34312 110.91594,49.01472 C110.91594,41.91392 105.15834,36.15832 98.05954,36.15832" id="Fill-792" fill="#494949"></path>
                <path d="M98.05954,44.79932 C95.73154,44.79932 93.84434,46.68652 93.84434,49.01452 C93.84434,49.12212 93.84834,49.22912 93.85674,49.33492 L93.85674,49.33872 C94.02234,51.51452 95.84054,53.22892 98.05954,53.22892 C100.27794,53.22892 102.09674,51.51452 102.26254,49.33872 L102.26254,49.33492 C102.27074,49.22912 102.27474,49.12212 102.27474,49.01452 C102.27474,46.68652 100.38694,44.79932 98.05954,44.79932" id="Fill-793" fill="#F3F4F6"></path>
                <polygon id="Fill-794" fill="#F3F4F6" points="98.65944 49.01416 97.45904 49.01416 96.65864 35.69556 99.45984 35.69556"></polygon>
                <polygon id="Fill-795" fill="#F3F4F6" points="98.48366 48.58976 97.63466 49.43856 87.65126 40.58696 89.63206 38.60616"></polygon>
                <polygon id="Fill-796" fill="#F3F4F6" points="98.05916 48.41398 98.05916 49.61438 84.74076 50.41478 84.74076 47.61358"></polygon>
                <polygon id="Fill-797" fill="#F3F4F6" points="97.63474 48.58976 98.48374 49.43856 89.63194 59.42216 87.65134 57.44136"></polygon>
                <polygon id="Fill-798" fill="#F3F4F6" points="97.45896 49.01416 98.65936 49.01416 99.45976 62.33256 96.65856 62.33256"></polygon>
                <polygon id="Fill-799" fill="#F3F4F6" points="97.63474 49.43858 98.48374 48.58978 108.46714 57.44138 106.48634 59.42218"></polygon>
                <polygon id="Fill-800" fill="#F3F4F6" points="98.05916 49.61436 98.05916 48.41396 111.37756 47.61356 111.37756 50.41476"></polygon>
                <polygon id="Fill-801" fill="#F3F4F6" points="98.48366 49.43858 97.63466 48.58978 106.48626 38.60618 108.46706 40.58698"></polygon>
                <path d="M70.55486,41.77002 L67.74726,44.65462 C67.73826,44.66382 67.72466,44.67742 67.71566,44.68202 L65.62926,40.32782 L67.16686,38.74482 L70.55486,41.77002 Z" id="Fill-802" fill="#A87A4C"></path>
                <path d="M65.62928,40.32784 L67.71568,44.68204 C67.28928,45.10824 66.71328,45.33964 66.12368,45.33964 C66.00108,45.33964 65.87888,45.33044 65.75628,45.31244 L46.53948,42.19184 L47.26508,37.71524 L65.32088,40.64524 L65.62928,40.32784 Z" id="Fill-803" fill="#B8956D"></path>
                <path d="M74.65036,25.75538 L70.24196,27.60118 L65.08956,22.38998 L68.86756,19.76398 L74.25116,25.20658 C74.41456,25.36978 74.55056,25.55578 74.65036,25.75538" id="Fill-804" fill="#A87A4C"></path>
                <path d="M74.90886,26.86652 L74.62306,36.73112 C74.60946,37.29812 74.37826,37.83772 73.98366,38.24592 L73.72526,38.51352 L70.55486,41.77012 L67.16686,38.74492 L70.11486,35.71532 L70.12846,35.30712 L70.34626,27.70552 L70.24186,27.60132 L74.65046,25.75532 C74.83186,26.09092 74.92246,26.47652 74.90886,26.86652" id="Fill-805" fill="#B8956D"></path>
                <polygon id="Fill-806" fill="#A87A4C" points="34.54754 26.08194 31.19134 29.13434 23.87554 20.59834 27.31794 17.64574"></polygon>
                <polygon id="Fill-807" fill="#A87A4C" points="56.06844 20.30362 50.34924 29.51062 46.31724 27.40162 52.21784 17.90882"></polygon>
                <path d="M50.3492,29.51066 L44.0676,39.62026 C43.6866,40.23246 43.0334,40.62726 42.3122,40.68606 C42.2534,40.69066 42.199,40.69066 42.14,40.69066 C41.4824,40.69066 40.852,40.40506 40.4164,39.89706 L31.1912,29.13426 L34.5476,26.08186 L41.8452,34.59506 L46.3172,27.40166 L50.3492,29.51066 Z" id="Fill-808" fill="#B8956D"></path>
                <path d="M34.60652,19.47824 C34.54312,19.57344 34.47052,19.66424 34.38432,19.75024 L31.37732,22.81624 C30.79212,23.41044 29.91672,23.60544 29.13672,23.31524 L11.60252,16.81124 C11.16252,16.64804 10.87232,16.22624 10.87232,15.75904 L10.87232,14.15804 C10.87232,14.62524 11.16252,15.04704 11.60252,15.21024 L29.13672,21.71424 C29.91672,22.00444 30.79212,21.80944 31.37732,21.21544 L34.38432,18.14924 C34.47052,18.06324 34.54312,17.97244 34.60652,17.87704 C34.70632,17.74104 34.78792,17.59144 34.85152,17.43724 C34.86052,17.45544 34.86492,17.47804 34.87412,17.49624 C35.11452,18.15384 35.02372,18.89764 34.60652,19.47824" id="Fill-809" fill="#E08500"></path>
                <path d="M34.85144,17.43722 C34.78804,17.59142 34.70624,17.74122 34.60644,17.87702 C34.54304,17.97242 34.47044,18.06322 34.38424,18.14942 L31.37724,21.21542 C30.79224,21.80942 29.91684,22.00442 29.13664,21.71422 L11.60244,15.21022 C11.16264,15.04702 10.87224,14.62522 10.87224,14.15822 L10.87224,14.05382 C10.87224,13.49582 11.33944,13.05142 11.89724,13.08322 L26.14784,13.90402 L31.31824,14.20342 C32.08924,14.24422 32.79684,14.62062 33.26844,15.23302 L34.55664,16.91562 C34.67904,17.07882 34.77884,17.25582 34.85144,17.43722" id="Fill-810" fill="#F29F15"></path>
                <path d="M51.89128,23.16554 L51.89128,25.13394 C51.89128,25.24274 51.87308,25.35174 51.84128,25.45134 C51.70988,25.90494 51.28808,26.23154 50.79368,26.23154 L34.98748,26.23154 C34.32528,26.23154 33.81268,25.65094 33.89908,24.99334 L34.05768,23.75054 C34.25268,24.05454 34.59288,24.26314 34.98748,24.26314 L50.79368,24.26314 C51.28808,24.26314 51.70988,23.93654 51.84128,23.48314 C51.87308,23.38334 51.89128,23.27434 51.89128,23.16554" id="Fill-811" fill="#E08500"></path>
                <path d="M51.89128,17.76378 L51.89128,23.16558 C51.89128,23.27438 51.87308,23.38338 51.84128,23.48318 C51.70988,23.93658 51.28808,24.26318 50.79368,24.26318 L34.98748,24.26318 C34.62468,24.26318 34.30728,24.08618 34.10768,23.81858 C34.08948,23.79598 34.07128,23.77338 34.05768,23.75058 L34.60648,19.47818 L34.84688,17.62318 C34.85148,17.57778 34.86048,17.53698 34.87408,17.49618 C34.99648,17.01078 35.43208,16.66158 35.93988,16.66158 L50.79368,16.66158 C50.91628,16.66158 51.03408,16.67978 51.14288,16.72058 C51.57828,16.86578 51.89128,17.27838 51.89128,17.76378" id="Fill-812" fill="#F29F15"></path>
                <path d="M74.74568,13.6048 L74.47808,16.7796 C74.39188,17.8002 73.81588,18.7164 72.93608,19.2422 L67.31648,22.5714 C67.08968,22.7028 66.83128,22.7756 66.56808,22.7756 L54.26788,22.7756 C53.69648,22.7756 53.17488,22.4444 52.93448,21.9272 L52.04108,20.0178 C52.30408,20.2584 52.65328,20.3944 53.02068,20.3944 L65.32088,20.3944 C65.58388,20.3944 65.84248,20.3218 66.06928,20.1904 L71.68868,16.8612 C72.56868,16.335 73.14468,15.4188 73.23068,14.3984 L73.48468,11.3686 L74.43728,12.5706 C74.66848,12.8608 74.77748,13.2328 74.74568,13.6048" id="Fill-813" fill="#E08500"></path>
                <path d="M73.48474,11.36866 L73.23074,14.39826 C73.14454,15.41886 72.56854,16.33506 71.68874,16.86126 L66.06914,20.19026 C65.84254,20.32186 65.58394,20.39446 65.32094,20.39446 L53.02054,20.39446 C52.65314,20.39446 52.30394,20.25826 52.04094,20.01786 L51.89134,19.69586 L51.22454,18.26726 C50.98874,17.76386 50.97054,17.21046 51.14294,16.72066 C51.29714,16.25786 51.61454,15.84966 52.06814,15.59106 L54.75774,14.04906 L54.76234,14.04906 L64.40474,8.51586 C64.82194,8.27546 65.29814,8.14846 65.77894,8.14846 L69.53894,8.14846 C70.42334,8.14846 71.26234,8.55226 71.81114,9.24606 L73.48474,11.36866 Z" id="Fill-814" fill="#F29F15"></path>
                <polygon id="Fill-815" fill="#E08500" points="72.12576 9.64776 75.47576 8.14856 78.08376 13.59116 74.59016 15.46196"></polygon>
                <path d="M82.6201,13.32746 L82.2165,13.50526 L77.8137,15.43486 L77.0625,15.76466 L74.0021,8.64686 L75.5343,7.91166 L77.6619,6.90086 L79.1581,6.18366 L79.8793,7.66786 C79.8753,7.69606 79.8753,7.72586 79.8753,7.75386 C79.8753,9.32806 80.5285,10.75246 81.5813,11.76706 C81.7351,11.91306 81.8929,12.05286 82.0607,12.17666 L82.6201,13.32746 Z" id="Fill-816" fill="#F29F15"></path>
                <polygon id="Fill-817" fill="#A87A4C" points="77.66198 6.90128 75.53478 7.91268 74.40098 5.27748 76.41018 4.31608"></polygon>
                <path d="M34.60652,19.47824 L33.92392,25.40344 L31.37732,22.81624 L34.38432,19.75024 C34.47052,19.66424 34.54312,19.57344 34.60652,19.47824" id="Fill-818" fill="#E08500"></path>
                <path d="M54.26784,22.7755 L51.84144,25.4513 C51.87304,25.3517 51.89124,25.2427 51.89124,25.1339 L51.89124,19.6959 L52.93444,21.9273 C53.17484,22.4445 53.69644,22.7755 54.26784,22.7755" id="Fill-819" fill="#E08500"></path>
                <polygon id="Fill-820" fill="#A87A4C" points="45.2558 52.0294 47.1926 52.0294 47.1926 47.4938 45.2558 47.4938"></polygon>
                <path d="M75.68444,42.81788 L70.46864,50.98168 C70.05144,51.63488 69.33484,52.02948 68.55924,52.02948 L47.19264,52.02948 L47.19264,47.49388 L67.31644,47.49388 L68.31424,45.92928 L70.82244,42.00588 L70.55484,41.77008 L67.16684,38.74488 L70.11484,35.71528 L70.12844,35.30708 L73.72524,38.51368 L75.28524,39.90588 C76.11544,40.64528 76.28764,41.87908 75.68444,42.81788" id="Fill-821" fill="#ECC59A"></path>
                <path d="M48.37624,38.56906 C48.37624,41.21486 46.23144,43.35966 43.58564,43.35966 C40.93984,43.35966 38.79504,41.21486 38.79504,38.56906 C38.79504,35.92326 40.93984,33.77826 43.58564,33.77826 C46.23144,33.77826 48.37624,35.92326 48.37624,38.56906" id="Fill-822" fill="#F29F15"></path>
                <path d="M47.5951,38.56906 C47.5951,40.78326 45.7999,42.57846 43.5857,42.57846 C41.3713,42.57846 39.5763,40.78326 39.5763,38.56906 C39.5763,36.35466 41.3713,34.55946 43.5857,34.55946 C45.7999,34.55946 47.5951,36.35466 47.5951,38.56906" id="Fill-823" fill="#E08500"></path>
                <path d="M47.19148,38.56906 C47.19148,40.56046 45.57708,42.17466 43.58568,42.17466 C41.59428,42.17466 39.97988,40.56046 39.97988,38.56906 C39.97988,36.57746 41.59428,34.96326 43.58568,34.96326 C45.57708,34.96326 47.19148,36.57746 47.19148,38.56906" id="Fill-824" fill="#F29F15"></path>
                <path d="M46.64704,38.56906 C46.64704,40.25966 45.27624,41.63046 43.58564,41.63046 C41.89484,41.63046 40.52424,40.25966 40.52424,38.56906 C40.52424,36.87826 41.89484,35.50746 43.58564,35.50746 C45.27624,35.50746 46.64704,36.87826 46.64704,38.56906" id="Fill-825" fill="#E08500"></path>
                <path d="M46.2864,38.56906 C46.2864,40.06046 45.0772,41.26966 43.5856,41.26966 C42.094,41.26966 40.885,40.06046 40.885,38.56906 C40.885,37.07746 42.094,35.86826 43.5856,35.86826 C45.0772,35.86826 46.2864,37.07746 46.2864,38.56906" id="Fill-826" fill="#F29F15"></path>
                <path d="M45.49538,38.56906 C45.49538,39.62366 44.64038,40.47866 43.58558,40.47866 C42.53098,40.47866 41.67598,39.62366 41.67598,38.56906 C41.67598,37.51426 42.53098,36.65926 43.58558,36.65926 C44.64038,36.65926 45.49538,37.51426 45.49538,38.56906" id="Fill-827" fill="#E08500"></path>
                <polygon id="Fill-828" fill="#D9C9BC" points="31.1912 52.2562 45.995 52.2562 45.995 47.2672 31.1912 47.2672"></polygon>
                <polygon id="Fill-829" fill="#F3F4F6" points="34.1162 52.2562 34.9856 52.2562 34.9856 47.2672 34.1162 47.2672"></polygon>
                <polygon id="Fill-830" fill="#F3F4F6" points="42.3558 52.2562 43.225 52.2562 43.225 47.2672 42.3558 47.2672"></polygon>
                <path d="M84.44998,2.26436 L84.44998,13.23896 C83.34578,13.03856 82.35478,12.51296 81.57958,11.76796 C80.52838,10.75056 79.87418,9.32856 79.87418,7.75176 C79.87418,6.17476 80.52838,4.75256 81.57958,3.73536 C82.35478,2.99036 83.34578,2.46476 84.44998,2.26436" id="Fill-831" fill="#F29F15"></path>
                <path d="M82.0614,12.17608 C81.8936,12.05368 81.7348,11.91308 81.5806,11.76788 C80.5284,10.75188 79.8752,9.32768 79.8752,7.75408 C79.8752,7.72668 79.8752,7.69508 79.8798,7.66768 L82.0614,12.17608 Z" id="Fill-832" fill="#E08500"></path>
                <path d="M87.59646,7.75168 C87.59646,9.73708 86.26906,11.40868 84.45006,11.93068 L84.45006,3.57268 C86.26906,4.09468 87.59646,5.76628 87.59646,7.75168" id="Fill-833" fill="#F4BD37"></path>
                <path d="M77.2903,3.20422 C77.2903,4.60682 76.1535,5.74342 74.7511,5.74342 C73.3487,5.74342 72.2117,4.60682 72.2117,3.20422 C72.2117,1.80182 73.3487,0.66502 74.7511,0.66502 C76.1535,0.66502 77.2903,1.80182 77.2903,3.20422" id="Fill-834" fill="#4F342B"></path>
                <path d="M76.59852,3.20422 C76.59852,4.22462 75.77132,5.05162 74.75112,5.05162 C73.73072,5.05162 72.90352,4.22462 72.90352,3.20422 C72.90352,2.18382 73.73072,1.35682 74.75112,1.35682 C75.77132,1.35682 76.59852,2.18382 76.59852,3.20422" id="Fill-835" fill="#735438"></path>
                <path d="M75.90974,3.20422 C75.90974,3.84422 75.39094,4.36302 74.75114,4.36302 C74.11114,4.36302 73.59234,3.84422 73.59234,3.20422 C73.59234,2.56442 74.11114,2.04562 74.75114,2.04562 C75.39094,2.04562 75.90974,2.56442 75.90974,3.20422" id="Fill-836" fill="#4F342B"></path>
                <polygon id="Fill-837" fill="#E08500" points="100.85642 22.12686 100.85642 23.55106 87.01422 25.43326 86.44262 24.09066"></polygon>
                <polygon id="Fill-838" fill="#F29F15" points="100.85642 20.69816 100.85642 22.12696 86.44262 24.09076 84.99582 20.69816"></polygon>
                <path d="M61.72234,9.40264 C61.51314,9.49764 61.27394,9.62064 61.02534,9.76064 C60.77654,9.90044 60.54734,10.04084 60.35754,10.17044 C59.92454,10.36844 59.61114,10.46104 59.56874,10.38584 L59.91654,11.00364 C59.97834,11.11364 60.64294,10.85364 61.40054,10.42744 C62.15814,10.00124 62.72514,9.56784 62.66334,9.45804 L62.31574,8.84024 C62.35814,8.91544 62.11634,9.13524 61.72234,9.40264" id="Fill-839" fill="#3D251E"></path>
                <path d="M62.3158,8.84034 C62.358,8.91554 62.1162,9.13534 61.7224,9.40274 C61.5326,9.53214 61.3032,9.67274 61.0546,9.81254 C60.806,9.95254 60.5668,10.07574 60.3574,10.17034 C59.9244,10.36854 59.6112,10.46114 59.5688,10.38594 C59.507,10.27594 60.0724,9.83974 60.83,9.41354 C61.5876,8.98734 62.254,8.73034 62.3158,8.84034" id="Fill-840" fill="#4F342B"></path>
                <path d="M54.7577,14.04914 L52.0681,15.59114 C51.6147,15.84974 51.2971,16.25794 51.1429,16.72054 C51.0341,16.67974 50.9161,16.66154 50.7937,16.66154 L35.9399,16.66154 C35.4321,16.66154 34.9965,17.01094 34.8741,17.49614 C34.8651,17.47814 34.8605,17.45534 34.8515,17.43714 C34.7789,17.25574 34.6791,17.07874 34.5567,16.91554 L33.2685,15.23294 C32.7969,14.62054 32.0893,14.24434 31.3183,14.20334 L26.1479,13.90394 L27.4131,12.48574 C27.7921,12.06074 28.3607,11.85694 28.9233,11.94454 L38.7295,13.46794 C38.7717,13.47454 38.8141,13.47794 38.8567,13.47834 L51.7177,13.58994 C51.8001,13.59074 51.8823,13.59754 51.9635,13.61034 L54.7577,14.04914 Z" id="Fill-841" fill="#3D251E"></path>
                <path d="M66.89432,27.66808 L61.72352,27.66808 C61.29212,27.66808 60.94232,27.31848 60.94232,26.88708 L60.94232,23.79268 C60.94232,23.23088 61.39792,22.77548 61.95972,22.77548 L66.65812,22.77548 C67.21992,22.77548 67.67532,23.23088 67.67532,23.79268 L67.67532,26.88708 C67.67532,27.31848 67.32572,27.66808 66.89432,27.66808" id="Fill-842" fill="#795C4C"></path>
                <polygon id="Fill-843" fill="#5E4336" points="62.0644 28.617 66.5546 28.617 66.5546 27.6692 62.0644 27.6692"></polygon>
                <path d="M66.55456,28.6171 L66.55456,31.1707 C66.55456,31.8375 66.01476,32.3771 65.34816,32.3771 L63.26636,32.3771 C62.60416,32.3771 62.06436,31.8375 62.06436,31.1707 L62.06436,28.6171 L66.55456,28.6171 Z" id="Fill-844" fill="#795C4C"></path>
                <path d="M70.26912,36.80382 C68.99912,37.72902 66.79032,39.26642 66.25972,39.19862 C65.66092,39.12142 58.61292,37.76082 55.61052,37.18462 C54.83032,37.03062 54.26792,36.35002 54.26792,35.55662 C54.26792,35.38402 54.29512,35.22082 54.34492,35.06202 C54.58532,35.45222 54.98452,35.74242 55.46072,35.83302 C58.52672,36.42722 65.72452,37.81062 66.33672,37.89222 C66.88112,37.96022 69.13532,36.39122 70.42772,35.44762 C70.60932,35.31622 70.75892,35.14842 70.87232,34.96242 L70.89492,35.05302 C71.06272,35.71062 70.81792,36.40462 70.26912,36.80382" id="Fill-845" fill="#8C6E50"></path>
                <path d="M70.87234,34.96242 C70.75894,35.14842 70.60934,35.31622 70.42774,35.44762 C69.13514,36.39122 66.88094,37.96022 66.33674,37.89222 C65.72454,37.81062 58.52674,36.42722 55.46074,35.83322 C54.98454,35.74242 54.58534,35.45222 54.34494,35.06202 C54.39034,34.90802 54.45834,34.76722 54.54454,34.63562 C54.72594,34.36822 54.97994,34.15042 55.28834,34.02362 L62.91714,30.85322 C63.17554,30.74902 63.45214,30.70822 63.72434,30.73522 L68.80414,31.26602 C69.48894,31.33382 70.06034,31.82822 70.23734,32.49962 L70.87234,34.96242 Z" id="Fill-846" fill="#A99175"></path>
                <path d="M68.78602,33.77824 C68.78602,34.88464 67.88922,35.78164 66.78282,35.78164 C65.67642,35.78164 64.77962,34.88464 64.77962,33.77824 C64.77962,32.67204 65.67642,31.77504 66.78282,31.77504 C67.88922,31.77504 68.78602,32.67204 68.78602,33.77824" id="Fill-847" fill="#8C6E50"></path>
                <path d="M61.61804,34.31066 C61.61804,35.10406 60.97504,35.74706 60.18184,35.74706 C59.38864,35.74706 58.74564,35.10406 58.74564,34.31066 C58.74564,33.51746 59.38864,32.87446 60.18184,32.87446 C60.97504,32.87446 61.61804,33.51746 61.61804,34.31066" id="Fill-848" fill="#8C6E50"></path>
                <polygon id="Fill-849" fill="#A87A4C" points="82.91774 14.83762 78.40494 16.55962 77.81374 15.43482 82.21654 13.50522"></polygon>
                <polygon id="Fill-850" fill="#B8956D" points="100.18152 47.68526 95.93652 49.91446 78.40492 16.55966 82.91772 14.83766"></polygon>
                <path d="M98.05916,44.79932 C95.73116,44.79932 93.84416,46.68652 93.84416,49.01452 C93.84416,49.12212 93.84796,49.22912 93.85636,49.33492 L93.85636,49.33872 C94.02196,51.51452 95.84016,53.22892 98.05916,53.22892 C100.27756,53.22892 102.09636,51.51452 102.26216,49.33872 L102.26216,49.33492 C102.27036,49.22912 102.27436,49.12212 102.27436,49.01452 C102.27436,46.68652 100.38656,44.79932 98.05916,44.79932" id="Fill-851" fill="#F3F4F6"></path>
            </g>
        </g>
    </g>
</svg>