<?xml version="1.0" encoding="UTF-8"?>
<svg width="84px" height="76px" viewBox="0 0 84 76" version="1.1" xmlns="http://www.w3.org/2000/svg" xmlns:xlink="http://www.w3.org/1999/xlink">
    <!-- Generator: Sketch 52.6 (67491) - http://www.bohemiancoding.com/sketch -->
    <title>分组 18</title>
    <desc>Created with Sketch.</desc>
    <g id="图示" stroke="none" stroke-width="1" fill="none" fill-rule="evenodd">
        <g id="交通工具" transform="translate(-85.000000, -529.000000)">
            <g id="分组-18" transform="translate(85.000000, 529.000000)">
                <path d="M21.51278,20.43272 L21.51278,30.84092 L1.37478,30.84092 L1.37478,20.43272 C1.37478,17.62232 3.65298,15.34412 6.46318,15.34412 L16.42418,15.34412 C19.23458,15.34412 21.51278,17.62232 21.51278,20.43272" id="Fill-852" fill="#50B0B2"></path>
                <path d="M62.54792,12.19132 C61.93672,5.15492 59.32192,4.73412 59.32192,4.73412 L59.32192,3.86132 C61.49472,3.86132 63.47032,7.43152 63.47032,12.19132 L62.54792,12.19132 Z" id="Fill-853" fill="#F3F4F6"></path>
                <path d="M56.80652,0.1384 L56.80652,8.362 C58.31712,7.658 59.36492,6.1248 59.36492,4.3464 L59.36492,4.1554 C59.36492,2.3758 58.31712,0.8426 56.80652,0.1384" id="Fill-854" fill="#424242"></path>
                <path d="M10.97254,35.32608 C43.19334,45.38008 43.07194,40.77528 42.91254,40.11668 L42.91254,40.11408 C42.90754,40.09668 42.90134,40.08008 42.89614,40.06248 C42.89234,40.04968 42.88994,40.04348 42.88994,40.04348 C41.27834,34.96588 38.47094,30.68468 27.87734,30.68468 L11.27834,30.68468 C11.27834,30.68468 11.02434,32.53528 10.97254,35.32608" id="Fill-855" fill="#323431"></path>
                <path d="M18.0284,32.6507 L1.0712,32.6507 C0.6068,32.6507 0.2302,32.2741 0.2302,31.8097 L0.2302,31.5259 C0.2302,31.0613 0.6068,30.6847 1.0712,30.6847 L18.0284,30.6847 L18.0284,32.6507 Z" id="Fill-856" fill="#424242"></path>
                <path d="M59.47868,51.23878 C61.90688,49.49298 64.87728,48.45398 68.08908,48.42378 C69.06348,45.58478 69.94088,42.06458 70.33648,37.93878 C70.80408,33.08398 70.88868,27.83698 70.82548,23.32818 L63.29588,23.32818 C63.35908,27.83698 63.27448,33.08398 62.80688,37.93878 C62.26708,43.55978 60.83488,48.05958 59.47868,51.23878" id="Fill-857" fill="#7CE5E2"></path>
                <path d="M68.08904,48.42374 C68.13844,48.42254 68.18904,48.42254 68.23824,48.42254 C69.53884,48.42254 70.80164,48.58794 72.00504,48.89774 C73.17924,49.20114 74.29784,49.64234 75.34184,50.20334 C75.40124,49.77494 75.47964,49.17194 75.55804,48.42374 C76.07364,43.56754 76.66024,32.58954 72.95664,23.32814 L70.82564,23.32814 C70.88884,27.83694 70.80404,33.08394 70.33644,37.93874 C69.94084,42.06454 69.06364,45.58494 68.08904,48.42374" id="Fill-858" fill="#50B0B2"></path>
                <path d="M46.87908,54.83468 L49.08228,63.01168 L54.32648,63.01168 L54.32648,62.87508 C54.32648,62.87508 54.29888,61.46068 54.80048,59.54588 C54.91808,59.09948 55.06348,58.62548 55.24548,58.13508 C55.63748,57.07588 56.19848,55.94328 56.99868,54.85608 L55.91168,54.85388 L54.52488,54.85128 L46.87908,54.83468 Z" id="Fill-859" fill="#424242"></path>
                <path d="M11.1198,63.17998 C11.1188,63.24858 11.115,63.31618 11.115,63.38478 C11.115,69.12518 15.7726,73.78078 21.5108,73.78078 C27.2532,73.78078 31.9106,69.12518 31.9106,63.38478 C31.9106,63.31618 31.9068,63.24858 31.9058,63.17998 L25.6362,63.17998 C25.639,63.24358 25.641,63.30698 25.641,63.37098 C25.641,65.63438 23.7524,67.52318 21.4896,67.52318 C19.2268,67.52318 17.3382,65.63438 17.3382,63.37098 C17.3382,63.30698 17.3402,63.24358 17.343,63.17998 L11.1198,63.17998 Z" id="Fill-860" fill="#424242"></path>
                <path d="M55.66638,63.13428 C55.66638,63.17468 55.66638,63.21628 55.66758,63.25668 C55.66758,63.32128 55.66898,63.38588 55.67018,63.45028 C55.69798,64.58408 55.87618,65.68248 56.18718,66.72268 C57.73058,71.91768 62.54258,75.70588 68.23818,75.70588 C75.07638,75.70588 80.63798,70.24688 80.80618,63.45028 C80.80858,63.34528 80.80998,63.23908 80.80998,63.13428 C80.80998,57.50548 77.11018,52.74028 72.00858,51.13768 C72.00618,51.13628 72.00378,51.13628 72.00118,51.13508 C70.81298,50.76348 69.54898,50.56248 68.23818,50.56248 C66.92358,50.56248 65.65458,50.76468 64.46378,51.14008 C64.46018,51.14008 64.45638,51.14128 64.45258,51.14268 C59.35858,52.74908 55.66638,57.51068 55.66638,63.13428" id="Fill-861" fill="#1F1C23"></path>
                <path d="M68.23846,53.63976 C73.48246,53.63976 77.73326,57.89056 77.73326,63.13456 C77.73326,63.37716 77.72446,63.61816 77.70566,63.85636 L77.70566,63.86496 C77.33246,68.76636 73.23706,72.62776 68.23846,72.62776 C63.24146,72.62776 59.14466,68.76636 58.77146,63.86496 L58.77146,63.85636 C58.75246,63.61816 58.74386,63.37716 58.74386,63.13456 C58.74386,57.89056 62.99586,53.63976 68.23846,53.63976" id="Fill-862" fill="#F3F4F6"></path>
                <path d="M68.23846,54.4876 C73.01426,54.4876 76.88546,58.3586 76.88546,63.1344 C76.88546,63.3554 76.87746,63.575 76.86026,63.7918 L76.86026,63.7998 C76.52046,68.2634 72.79066,71.78 68.23846,71.78 C63.68766,71.78 59.95666,68.2634 59.61666,63.7998 L59.61666,63.7918 C59.59946,63.575 59.59166,63.3554 59.59166,63.1344 C59.59166,58.3586 63.46406,54.4876 68.23846,54.4876" id="Fill-863" fill="#494949"></path>
                <path d="M68.23846,60.29932 C69.80426,60.29932 71.07346,61.56852 71.07346,63.13432 C71.07346,63.20672 71.07086,63.27852 71.06526,63.34992 L71.06526,63.35252 C70.95386,64.81592 69.73106,65.96892 68.23846,65.96892 C66.74646,65.96892 65.52326,64.81592 65.41166,63.35252 L65.41166,63.34992 C65.40606,63.27852 65.40346,63.20672 65.40346,63.13432 C65.40346,61.56852 66.67306,60.29932 68.23846,60.29932" id="Fill-864" fill="#F3F4F6"></path>
                <polygon id="Fill-865" fill="#F3F4F6" points="67.83504 63.1341 68.64244 63.1341 69.18084 54.1765 67.29684 54.1765"></polygon>
                <polygon id="Fill-866" fill="#F3F4F6" points="67.9533 62.84854 68.5241 63.41954 75.2389 57.46614 73.9067 56.13394"></polygon>
                <polygon id="Fill-867" fill="#F3F4F6" points="68.23874 62.73038 68.23874 63.53778 77.19654 64.07618 77.19654 62.19218"></polygon>
                <polygon id="Fill-868" fill="#F3F4F6" points="68.5242 62.84854 67.9534 63.41954 73.9068 70.13434 75.239 68.80214"></polygon>
                <polygon id="Fill-869" fill="#F3F4F6" points="68.64246 63.1341 67.83506 63.1341 67.29666 72.0919 69.18066 72.0919"></polygon>
                <polygon id="Fill-870" fill="#F3F4F6" points="68.5242 63.41964 67.9534 62.84864 61.2386 68.80204 62.5708 70.13424"></polygon>
                <polygon id="Fill-871" fill="#F3F4F6" points="68.23874 63.5378 68.23874 62.7304 59.28094 62.192 59.28094 64.076"></polygon>
                <polygon id="Fill-872" fill="#F3F4F6" points="67.9533 63.41964 68.5241 62.84864 62.5707 56.13384 61.2385 57.46604"></polygon>
                <path d="M53.23698,62.55792 C53.22818,62.72212 53.26618,62.87772 53.34058,63.01172 C53.36478,63.05712 53.39378,63.10132 53.42658,63.14172 C53.43418,63.09872 53.44178,63.05452 53.45058,63.01172 C53.46198,62.94332 53.47338,62.87632 53.48718,62.81072 C53.50358,62.72072 53.52258,62.63232 53.54158,62.54272 C53.55678,62.47052 53.57198,62.39992 53.58958,62.32892 C53.59478,62.30252 53.59978,62.27732 53.60738,62.25192 C53.61998,62.19132 53.63518,62.13192 53.65038,62.07232 C53.66558,62.00532 53.68318,61.93832 53.70078,61.87272 C53.70458,61.85372 53.70978,61.83352 53.71618,61.81452 C53.73758,61.73112 53.76038,61.64632 53.78558,61.56432 C53.87518,61.24452 53.97638,60.92872 54.08898,60.61892 C54.11418,60.54552 54.14198,60.47212 54.16978,60.39892 C54.17738,60.37612 54.18498,60.35452 54.19378,60.33312 C54.22298,60.25612 54.25338,60.18012 54.28358,60.10432 C54.28858,60.08912 54.29498,60.07532 54.30118,60.06152 C54.32658,59.99812 54.35178,59.93632 54.37838,59.87432 C54.38978,59.84412 54.40358,59.81232 54.41758,59.78212 C54.44918,59.70612 54.48198,59.63172 54.51618,59.55712 C54.55398,59.46992 54.59458,59.38392 54.63498,59.29792 C54.71598,59.12612 54.79938,58.95532 54.88658,58.78712 C55.00018,58.56732 55.11918,58.34992 55.24538,58.13512 C55.27078,58.08952 55.29858,58.04292 55.32638,57.99732 C55.36558,57.93152 55.40478,57.86592 55.44518,57.80152 C55.48818,57.73052 55.53238,57.66232 55.57538,57.59292 C55.78518,57.26552 56.00778,56.94552 56.24278,56.63612 C56.29838,56.56152 56.35658,56.48692 56.41478,56.41352 C56.46278,56.35172 56.51198,56.28952 56.56138,56.22892 C56.60418,56.17592 56.64718,56.12272 56.69158,56.07092 C56.74198,56.01032 56.79258,55.95092 56.84318,55.89152 C56.87858,55.84972 56.91518,55.80812 56.95058,55.76772 C56.95438,55.76252 56.95938,55.75752 56.96318,55.75372 C57.02278,55.68672 57.08218,55.61972 57.14278,55.55392 C57.26918,55.41492 57.39818,55.27972 57.52958,55.14572 C57.57498,55.10032 57.62058,55.05352 57.66738,55.00792 C57.67858,54.99652 57.69018,54.98532 57.70278,54.97372 C57.75198,54.92452 57.80138,54.87652 57.85198,54.82852 C57.96058,54.72352 58.07178,54.62112 58.18418,54.52012 C58.23738,54.47192 58.29178,54.42392 58.34598,54.37592 C58.35238,54.36972 58.35878,54.36452 58.36638,54.35832 L58.52558,54.22172 C58.64058,54.12312 58.75818,54.02852 58.87558,53.93352 C58.95778,53.86792 59.03998,53.80352 59.12478,53.74012 C59.25358,53.64032 59.38518,53.54292 59.51778,53.44812 C59.61638,53.37872 59.71498,53.30912 59.81618,53.24092 C59.90458,53.18132 59.99318,53.12192 60.08398,53.06392 C60.13838,53.02852 60.19278,52.99312 60.24838,52.95912 C60.29898,52.92612 60.34958,52.89452 60.40138,52.86552 C60.45058,52.83252 60.50118,52.80352 60.55038,52.77452 C60.58978,52.75052 60.63018,52.72652 60.67058,52.70372 C60.73378,52.66572 60.79818,52.62892 60.86278,52.59252 C61.07258,52.47352 61.28498,52.36112 61.50098,52.25252 C61.58438,52.21072 61.66798,52.16912 61.75258,52.12872 C61.75378,52.12872 61.75518,52.12732 61.75638,52.12732 C61.84738,52.08312 61.93958,52.04012 62.03318,51.99832 C62.04578,51.99212 62.05978,51.98572 62.07238,51.98052 C62.13678,51.95172 62.20258,51.92252 62.26838,51.89472 C62.37058,51.84912 62.47298,51.80612 62.57678,51.76452 C62.63738,51.73912 62.69938,51.71512 62.75998,51.69112 C62.85598,51.65332 62.95338,51.61672 63.05078,51.58112 C63.12018,51.55452 63.18978,51.53052 63.25918,51.50532 C63.34398,51.47632 63.42738,51.44712 63.51198,51.41952 C63.55638,51.40552 63.60058,51.39032 63.64358,51.37772 C63.80278,51.32472 63.96338,51.27672 64.12498,51.23232 C64.23378,51.19952 64.34258,51.17032 64.45258,51.14272 C64.45638,51.14132 64.46018,51.14012 64.46378,51.14012 C64.53838,51.11992 64.61438,51.10092 64.69018,51.08332 C64.76478,51.06552 64.84058,51.04772 64.91518,51.03012 C64.99358,51.01232 65.07058,50.99472 65.14898,50.97952 C65.19818,50.96952 65.24878,50.95812 65.29938,50.94932 C65.34498,50.93912 65.39158,50.93012 65.43838,50.92132 C65.48638,50.91252 65.53438,50.90372 65.58378,50.89492 C65.68998,50.87592 65.79738,50.85832 65.90358,50.84172 C65.99718,50.82672 66.09058,50.81272 66.18418,50.80012 C66.29538,50.78492 66.40778,50.77092 66.52158,50.75832 C66.63038,50.74572 66.74038,50.73432 66.84898,50.72432 C66.86298,50.72292 66.87818,50.72172 66.89198,50.72032 C66.99558,50.71172 67.09798,50.70292 67.20178,50.69632 C67.28518,50.69012 67.36858,50.68512 67.45198,50.68132 C67.47098,50.67992 67.48998,50.67872 67.50878,50.67872 C67.55938,50.67632 67.60998,50.67372 67.66058,50.67232 C67.71238,50.66992 67.76418,50.66872 67.81718,50.66732 C67.87158,50.66472 67.92598,50.66352 67.98038,50.66352 C68.06618,50.66212 68.15218,50.66112 68.23818,50.66112 C68.32418,50.66112 68.41018,50.66212 68.49598,50.66352 C68.55038,50.66352 68.60478,50.66472 68.65898,50.66732 C68.71098,50.66872 68.76158,50.66992 68.81338,50.67232 C68.86378,50.67372 68.91578,50.67632 68.96618,50.67872 L69.03818,50.68252 C69.11798,50.68632 69.19618,50.69132 69.27458,50.69632 C69.36818,50.70292 69.46038,50.71032 69.55278,50.71792 C69.58178,50.72032 69.60958,50.72292 69.63738,50.72552 C69.73218,50.73432 69.82838,50.74332 69.92318,50.75452 C69.93318,50.75572 69.94458,50.75712 69.95458,50.75832 C70.06338,50.76992 70.17218,50.78372 70.27958,50.79872 C70.28838,50.80012 70.29598,50.80012 70.30358,50.80132 C70.37818,50.81152 70.45278,50.82272 70.52738,50.83432 C70.63978,50.85192 70.75098,50.86972 70.86218,50.88972 C70.91918,50.89872 70.97478,50.91012 71.03038,50.92032 C71.10758,50.93412 71.18318,50.94932 71.25918,50.96572 C71.39558,50.99232 71.53218,51.02252 71.66618,51.05412 C71.73938,51.07052 71.81398,51.08812 71.88738,51.10712 C71.91638,51.11352 71.94538,51.12112 71.97338,51.12872 C71.98218,51.13112 71.99218,51.13372 72.00118,51.13512 C72.00358,51.13632 72.00618,51.13632 72.00858,51.13752 C72.20078,51.18692 72.39038,51.23992 72.57998,51.29812 C72.67238,51.32472 72.76338,51.35372 72.85418,51.38412 C72.88458,51.39292 72.91378,51.40172 72.94278,51.41312 C73.03258,51.44092 73.12098,51.47112 73.20818,51.50292 C73.30678,51.53572 73.40538,51.57112 73.50278,51.60912 C73.73778,51.69612 73.96918,51.78972 74.19798,51.88832 C74.27498,51.92112 74.35098,51.95532 74.42678,51.99072 C74.42798,51.98952 74.42798,51.99072 74.42918,51.99072 C74.52798,52.03512 74.62638,52.08052 74.72378,52.12872 C74.82238,52.17412 74.91978,52.22332 75.01698,52.27252 C75.18758,52.35852 75.35698,52.44692 75.52258,52.54052 C75.55538,52.55832 75.58698,52.57732 75.61878,52.59512 C75.70458,52.64172 75.78938,52.69112 75.87278,52.74152 C75.96618,52.79592 76.05858,52.85152 76.15078,52.90972 C76.24318,52.96532 76.33418,53.02352 76.42398,53.08292 C76.52498,53.14852 76.62478,53.21552 76.72338,53.28252 C76.80318,53.33712 76.88138,53.39252 76.95978,53.44812 C77.04698,53.51012 77.13418,53.57332 77.22018,53.63892 C77.29218,53.69212 77.36558,53.74632 77.43638,53.80352 C77.48438,53.83992 77.53118,53.87672 77.57798,53.91452 C77.66378,53.98152 77.74858,54.05112 77.83198,54.12052 C77.88118,54.16112 77.93058,54.20152 77.97858,54.24332 C78.48418,54.67432 78.96078,55.13812 79.40438,55.63112 C79.44118,55.67152 79.47778,55.71212 79.51298,55.75252 C79.55478,55.79912 79.59658,55.84712 79.63698,55.89532 C79.75318,56.02912 79.86698,56.16572 79.97698,56.30472 C80.02618,56.36552 80.07298,56.42612 80.11978,56.48692 C80.13118,56.49952 80.13998,56.51092 80.14878,56.52352 C80.19318,56.58032 80.23618,56.63712 80.27898,56.69552 C80.35098,56.79012 80.42178,56.88632 80.48898,56.98352 C80.53198,57.04172 80.57358,57.10112 80.61398,57.16052 C80.71638,57.30712 80.81498,57.45632 80.90978,57.60672 C80.95018,57.66872 80.98938,57.73312 81.02978,57.79632 C81.04258,57.81532 81.05378,57.83552 81.06518,57.85432 C81.10698,57.92272 81.14878,57.99232 81.19038,58.06292 C81.23598,58.13892 81.28018,58.21732 81.32438,58.29452 C81.36858,58.37272 81.41158,58.45112 81.45458,58.52932 C81.53918,58.68632 81.62278,58.84552 81.70238,59.00592 C81.74138,59.08692 81.78078,59.16772 81.81998,59.24872 C81.85778,59.32952 81.89578,59.41052 81.93358,59.49272 C81.97038,59.57472 82.00698,59.65692 82.04238,59.74032 C82.11438,59.90452 82.18278,60.07152 82.24838,60.24092 C82.26358,60.28012 82.27858,60.32052 82.29398,60.35972 C82.31658,60.42152 82.34078,60.48352 82.36338,60.54552 C82.39238,60.62652 82.42158,60.70732 82.44938,60.78952 C82.46838,60.84632 82.48858,60.90452 82.50758,60.96252 C82.52018,60.99792 82.53158,61.03352 82.54158,61.06892 C82.56298,61.13452 82.58458,61.20152 82.60478,61.26852 C82.68958,61.54292 82.76658,61.81972 82.83358,62.09892 C82.85258,62.17492 82.87158,62.25072 82.88798,62.32652 C82.88918,62.32652 82.88918,62.32792 82.88798,62.32892 C82.90698,62.40612 82.92338,62.48452 82.93978,62.56272 C82.98158,62.75492 83.01818,62.94712 83.05098,63.14172 C83.17998,62.98372 83.25318,62.77892 83.23938,62.55792 C82.92718,57.20472 79.81258,52.60632 75.34178,50.20352 C73.22718,49.06712 70.80778,48.42252 68.23818,48.42252 C64.96938,48.42252 61.94478,49.46652 59.47858,51.23872 C58.09458,52.23352 56.88738,53.45692 55.91158,54.85372 C54.36818,57.06072 53.40378,59.70252 53.23698,62.55792" id="Fill-873" fill="#61CECE"></path>
                <path d="M53.42664,63.1417 C53.57964,63.3289 53.81204,63.4503 54.07504,63.4503 L82.40264,63.4503 C82.66424,63.4503 82.89684,63.3289 83.05104,63.1417 C83.01824,62.9471 82.98144,62.7549 82.93984,62.5627 C82.92324,62.4845 82.90684,62.4061 82.88804,62.3291 C82.88924,62.3279 82.88924,62.3265 82.88804,62.3265 C82.87164,62.2507 82.85244,62.1749 82.83364,62.0989 C82.76664,61.8197 82.68944,61.5429 82.60484,61.2685 C82.58464,61.2015 82.56304,61.1345 82.54164,61.0689 C82.53144,61.0335 82.52024,60.9979 82.50744,60.9625 C82.48864,60.9045 82.46824,60.8463 82.44944,60.7895 C82.42164,60.7073 82.39244,60.6265 82.36344,60.5457 C82.34064,60.4823 82.31784,60.4205 82.29384,60.3597 C82.27864,60.3207 82.26364,60.2801 82.24844,60.2409 C82.18384,60.0727 82.11444,59.9059 82.04244,59.7403 C82.00684,59.6569 81.97024,59.5747 81.93364,59.4927 C81.89584,59.4105 81.85784,59.3295 81.81984,59.2487 C81.78084,59.1677 81.74144,59.0869 81.70224,59.0059 C81.62404,58.8455 81.54044,58.6863 81.45464,58.5293 C81.41164,58.4511 81.36864,58.3727 81.32444,58.2945 C81.28024,58.2173 81.23584,58.1389 81.19044,58.0629 C81.14864,57.9923 81.10704,57.9227 81.06524,57.8543 C81.05384,57.8355 81.04264,57.8153 81.02984,57.7963 C80.98944,57.7331 80.95024,57.6687 80.90984,57.6067 C80.81504,57.4563 80.71644,57.3071 80.61404,57.1605 C80.57364,57.1011 80.53184,57.0417 80.48904,56.9835 C80.42184,56.8863 80.35104,56.7901 80.27904,56.6955 C80.23604,56.6373 80.19324,56.5803 80.14884,56.5235 C80.14004,56.5109 80.13124,56.4995 80.11984,56.4869 C80.07304,56.4261 80.02624,56.3655 79.97684,56.3047 C79.86704,56.1657 79.75464,56.0291 79.63704,55.8953 C79.59664,55.8471 79.55484,55.7991 79.51304,55.7525 C79.47764,55.7107 79.44224,55.6703 79.40444,55.6311 C78.96064,55.1381 78.48424,54.6743 77.97864,54.2433 C77.93064,54.2015 77.88124,54.1611 77.83204,54.1207 C77.74844,54.0511 77.66384,53.9815 77.57784,53.9145 C77.53104,53.8767 77.48444,53.8399 77.43624,53.8035 C77.36564,53.7477 77.29344,53.6935 77.22024,53.6389 C77.13424,53.5745 77.04704,53.5101 76.95984,53.4481 C76.88144,53.3925 76.80304,53.3371 76.72344,53.2825 C76.62484,53.2155 76.52504,53.1485 76.42384,53.0829 C76.33424,53.0247 76.24184,52.9665 76.15084,52.9097 C76.05864,52.8529 75.96624,52.7959 75.87264,52.7415 C75.78924,52.6911 75.70464,52.6431 75.61864,52.5951 C75.58704,52.5773 75.55544,52.5583 75.52264,52.5405 C75.35584,52.4483 75.18764,52.3585 75.01704,52.2725 C74.91964,52.2233 74.82244,52.1753 74.72384,52.1287 C74.62644,52.0817 74.52784,52.0363 74.42924,51.9907 C74.42804,51.9907 74.42804,51.9895 74.42664,51.9907 C74.35104,51.9553 74.27384,51.9211 74.19784,51.8883 C73.96924,51.7897 73.73784,51.6961 73.50284,51.6091 C73.40544,51.5723 73.30684,51.5371 73.20824,51.5029 C73.12104,51.4711 73.03244,51.4409 72.94284,51.4131 C72.91384,51.4017 72.88464,51.3929 72.85424,51.3841 C72.76344,51.3537 72.67244,51.3259 72.58004,51.2981 C72.39164,51.2413 72.20084,51.1869 72.00864,51.1375 C71.99744,51.1351 71.98464,51.1311 71.97324,51.1287 C71.94544,51.1211 71.91644,51.1135 71.88744,51.1071 C71.81404,51.0881 71.74064,51.0707 71.66624,51.0541 C71.53224,51.0225 71.39564,50.9923 71.25924,50.9657 C71.18324,50.9493 71.10744,50.9341 71.03044,50.9203 C70.97484,50.9101 70.91904,50.8987 70.86224,50.8897 C70.75104,50.8697 70.63984,50.8519 70.52724,50.8343 C70.45264,50.8227 70.37804,50.8115 70.30364,50.8013 C70.29604,50.8001 70.28844,50.8001 70.27964,50.7987 C70.17224,50.7837 70.06344,50.7709 69.95464,50.7583 C69.94464,50.7571 69.93324,50.7557 69.92304,50.7545 C69.82824,50.7445 69.73344,50.7343 69.63744,50.7255 C69.60964,50.7229 69.58184,50.7205 69.55284,50.7179 C69.46044,50.7103 69.36824,50.7029 69.27464,50.6963 C69.19624,50.6913 69.11804,50.6863 69.03824,50.6825 L68.96624,50.6789 C68.91564,50.6763 68.86384,50.6737 68.81344,50.6723 C68.76284,50.6699 68.71084,50.6687 68.65904,50.6673 C68.60484,50.6647 68.55044,50.6635 68.49604,50.6635 C68.41004,50.6623 68.32404,50.6611 68.23824,50.6611 C68.15224,50.6611 68.06624,50.6623 67.98044,50.6635 C67.92604,50.6635 67.87164,50.6647 67.81724,50.6673 C67.76424,50.6687 67.71244,50.6699 67.66044,50.6723 C67.61004,50.6737 67.55944,50.6763 67.50884,50.6789 C67.48984,50.6789 67.47104,50.6799 67.45184,50.6813 C67.36844,50.6851 67.28504,50.6901 67.20164,50.6963 C67.09804,50.7029 66.99444,50.7117 66.89204,50.7205 C66.87804,50.7217 66.86304,50.7229 66.84904,50.7243 C66.73904,50.7343 66.63044,50.7459 66.52164,50.7583 C66.40784,50.7709 66.29664,50.7849 66.18424,50.8001 C66.09064,50.8127 65.99724,50.8267 65.90364,50.8417 C65.79744,50.8583 65.68984,50.8759 65.58384,50.8949 C65.53444,50.9039 65.48644,50.9125 65.43844,50.9213 C65.39164,50.9301 65.34484,50.9391 65.29944,50.9493 C65.24884,50.9581 65.19824,50.9695 65.14904,50.9795 C65.07064,50.9947 64.99344,51.0125 64.91504,51.0301 C64.84044,51.0477 64.76464,51.0655 64.69004,51.0833 C64.61424,51.1009 64.53964,51.1211 64.46384,51.1401 C64.46004,51.1401 64.45624,51.1413 64.45244,51.1427 C64.34264,51.1705 64.23384,51.1995 64.12504,51.2323 C63.96344,51.2767 63.80284,51.3247 63.64344,51.3777 C63.60064,51.3903 63.55624,51.4055 63.51204,51.4195 C63.42744,51.4471 63.34384,51.4763 63.25924,51.5053 C63.18964,51.5293 63.12024,51.5545 63.05084,51.5811 C62.95344,51.6167 62.85604,51.6533 62.76004,51.6911 C62.69924,51.7151 62.63744,51.7391 62.57664,51.7645 C62.47304,51.8061 62.37064,51.8491 62.26824,51.8947 C62.20264,51.9225 62.13684,51.9503 62.07244,51.9805 C62.05984,51.9857 62.04584,51.9921 62.03324,51.9983 C61.93964,52.0401 61.84744,52.0831 61.75644,52.1273 C61.75524,52.1273 61.75384,52.1287 61.75264,52.1287 C61.66804,52.1691 61.58444,52.2107 61.50104,52.2525 C61.28504,52.3611 61.07244,52.4735 60.86284,52.5925 C60.79824,52.6291 60.73384,52.6657 60.67064,52.7037 C60.63024,52.7265 60.58964,52.7505 60.55044,52.7745 C60.50004,52.8035 60.45064,52.8339 60.40144,52.8655 C60.34964,52.8945 60.29904,52.9261 60.24844,52.9591 C60.19284,52.9931 60.13844,53.0285 60.08404,53.0639 C59.99324,53.1219 59.90464,53.1813 59.81604,53.2409 C59.71504,53.3091 59.61644,53.3787 59.51784,53.4481 C59.38504,53.5429 59.25364,53.6403 59.12484,53.7401 C59.04004,53.8035 58.95784,53.8679 58.87564,53.9335 C58.75824,54.0285 58.64064,54.1231 58.52564,54.2217 L58.36644,54.3583 C58.35884,54.3645 58.35244,54.3697 58.34604,54.3759 C58.29184,54.4239 58.23744,54.4719 58.18424,54.5201 C58.07184,54.6211 57.96044,54.7235 57.85184,54.8285 C57.80144,54.8765 57.75204,54.9245 57.70264,54.9737 C57.69004,54.9853 57.67864,54.9965 57.66744,55.0079 C57.62064,55.0535 57.57504,55.1003 57.52964,55.1459 C57.39804,55.2797 57.26904,55.4149 57.14284,55.5541 C57.08204,55.6197 57.02264,55.6867 56.96324,55.7537 C56.95944,55.7575 56.95444,55.7625 56.95064,55.7677 C56.91524,55.8081 56.87864,55.8497 56.84324,55.8915 C56.79264,55.9509 56.74204,56.0103 56.69164,56.0709 C56.64724,56.1227 56.60424,56.1759 56.56124,56.2291 C56.51204,56.2895 56.46284,56.3517 56.41464,56.4135 C56.35644,56.4869 56.29844,56.5615 56.24284,56.6361 C56.00764,56.9457 55.78524,57.2655 55.57544,57.5929 C55.53244,57.6625 55.48824,57.7305 55.44524,57.8015 C55.40484,57.8659 55.36564,57.9315 55.32644,57.9973 C55.29864,58.0429 55.27084,58.0895 55.24544,58.1351 C55.11904,58.3499 55.00024,58.5673 54.88644,58.7873 C54.79804,58.9553 54.71464,59.1261 54.63504,59.2979 C54.59444,59.3839 54.55404,59.4699 54.51624,59.5571 C54.48204,59.6317 54.44924,59.7061 54.41764,59.7821 C54.40364,59.8125 54.38964,59.8441 54.37844,59.8743 C54.35184,59.9363 54.32664,59.9981 54.30124,60.0615 C54.29504,60.0753 54.28864,60.0891 54.28364,60.1043 C54.25324,60.1801 54.22284,60.2561 54.19384,60.3331 C54.18504,60.3545 54.17744,60.3761 54.16984,60.3989 C54.14204,60.4721 54.11424,60.5457 54.08904,60.6189 C53.97644,60.9287 53.87524,61.2445 53.78544,61.5643 C53.76024,61.6463 53.73764,61.7311 53.71604,61.8145 C53.70984,61.8335 53.70464,61.8539 53.70084,61.8727 C53.68324,61.9383 53.66544,62.0053 53.65044,62.0723 C53.63504,62.1319 53.62004,62.1913 53.60744,62.2519 C53.59984,62.2773 53.59464,62.3025 53.58964,62.3291 C53.57204,62.3999 53.55684,62.4707 53.54164,62.5427 C53.52264,62.6323 53.50364,62.7209 53.48724,62.8107 C53.47324,62.8777 53.46204,62.9447 53.45064,63.0117 C53.44184,63.0545 53.43424,63.0987 53.42664,63.1417" id="Fill-874" fill="#50B0B2"></path>
                <path d="M7.7367,63.13428 C7.7367,70.07748 13.3653,75.70588 20.3085,75.70588 C26.0041,75.70588 30.8161,71.91768 32.3595,66.72268 C32.6983,65.58648 32.8803,64.38048 32.8803,63.13428 C32.8803,63.06348 32.8803,62.99388 32.8777,62.92308 C32.7653,56.07728 27.1809,50.56248 20.3085,50.56248 C13.3653,50.56248 7.7367,56.19108 7.7367,63.13428" id="Fill-875" fill="#1F1C23"></path>
                <path d="M20.30798,53.63976 C25.55198,53.63976 29.80278,57.89056 29.80278,63.13456 C29.80278,63.37716 29.79398,63.61816 29.77498,63.85636 L29.77498,63.86496 C29.40198,68.76636 25.30658,72.62776 20.30798,72.62776 C15.31078,72.62776 11.21418,68.76636 10.84098,63.86496 L10.84098,63.85636 C10.82198,63.61816 10.81318,63.37716 10.81318,63.13456 C10.81318,57.89056 15.06538,53.63976 20.30798,53.63976" id="Fill-876" fill="#F3F4F6"></path>
                <path d="M20.30798,54.4876 C25.08378,54.4876 28.95478,58.3586 28.95478,63.1344 C28.95478,63.3554 28.94698,63.575 28.92978,63.7918 L28.92978,63.7998 C28.58978,68.2634 24.86018,71.78 20.30798,71.78 C15.75718,71.78 12.02618,68.2634 11.68618,63.7998 L11.68618,63.7918 C11.66898,63.575 11.66118,63.3554 11.66118,63.1344 C11.66118,58.3586 15.53358,54.4876 20.30798,54.4876" id="Fill-877" fill="#494949"></path>
                <path d="M20.30798,60.29932 C21.87378,60.29932 23.14298,61.56852 23.14298,63.13432 C23.14298,63.20672 23.14038,63.27852 23.13478,63.34992 L23.13478,63.35252 C23.02338,64.81592 21.80058,65.96892 20.30798,65.96892 C18.81598,65.96892 17.59258,64.81592 17.48118,63.35252 L17.48118,63.34992 C17.47558,63.27852 17.47298,63.20672 17.47298,63.13432 C17.47298,61.56852 18.74258,60.29932 20.30798,60.29932" id="Fill-878" fill="#F3F4F6"></path>
                <polygon id="Fill-879" fill="#F3F4F6" points="19.90456 63.1341 20.71196 63.1341 21.25036 54.1765 19.36616 54.1765"></polygon>
                <polygon id="Fill-880" fill="#F3F4F6" points="20.02284 62.84854 20.59364 63.41954 27.30844 57.46614 25.97624 56.13394"></polygon>
                <polygon id="Fill-881" fill="#F3F4F6" points="20.30828 62.73038 20.30828 63.53778 29.26608 64.07618 29.26608 62.19218"></polygon>
                <polygon id="Fill-882" fill="#F3F4F6" points="20.59372 62.84854 20.02292 63.41954 25.97632 70.13434 27.30852 68.80214"></polygon>
                <polygon id="Fill-883" fill="#F3F4F6" points="20.712 63.1341 19.9046 63.1341 19.3662 72.0919 21.2502 72.0919"></polygon>
                <polygon id="Fill-884" fill="#F3F4F6" points="20.59372 63.41964 20.02292 62.84864 13.30812 68.80204 14.64032 70.13424"></polygon>
                <polygon id="Fill-885" fill="#F3F4F6" points="20.30828 63.5378 20.30828 62.7304 11.35048 62.192 11.35048 64.076"></polygon>
                <polygon id="Fill-886" fill="#F3F4F6" points="20.02284 63.41964 20.59364 62.84864 14.64024 56.13384 13.30804 57.46604"></polygon>
                <path d="M12.28582,47.28116 C12.64742,48.61716 12.90262,49.51956 13.12142,50.24896 C13.25922,50.71156 13.38302,51.10476 13.50942,51.49656 C13.65102,51.39176 16.93222,48.55016 22.87442,48.64116 L22.87562,48.64116 C29.66722,49.80916 34.89882,55.53516 35.30962,62.55796 C35.31982,62.72216 36.37022,62.93956 36.90742,63.00536 C37.09322,63.02796 37.21702,63.03316 37.21582,63.01156 L49.08222,63.01156 L46.87902,54.83476 L46.77922,54.83476 C46.24702,52.45336 45.68342,49.98596 44.18542,44.70016 C43.75062,43.16296 43.38282,41.60696 42.91262,40.11676 C43.07202,40.77536 43.19322,45.37996 10.97262,35.32616 C10.91322,38.53176 11.12042,42.97836 12.28582,47.28116" id="Fill-887" fill="#50B0B2"></path>
                <path d="M5.49696,63.1417 C5.51596,63.0305 5.53616,62.9207 5.55756,62.8107 C5.57776,62.7033 5.59936,62.5959 5.62336,62.4883 C5.62456,62.4833 5.62596,62.4769 5.62696,62.4707 C5.64996,62.3657 5.67396,62.2609 5.69916,62.1571 C5.72436,62.0497 5.75096,61.9435 5.77876,61.8385 C5.80796,61.7299 5.83816,61.6211 5.86856,61.5137 C5.89876,61.4075 5.93036,61.3015 5.96456,61.1965 C5.98976,61.1119 6.01776,61.0271 6.04556,60.9437 C6.06196,60.8919 6.07956,60.8401 6.09736,60.7895 C6.15936,60.6125 6.22236,60.4369 6.29076,60.2625 C6.32996,60.1601 6.37036,60.0589 6.41196,59.9577 C6.44736,59.8731 6.48276,59.7883 6.51956,59.7037 C6.54856,59.6355 6.57896,59.5671 6.61036,59.5003 C6.63716,59.4395 6.66476,59.3789 6.69396,59.3183 C6.72296,59.2561 6.75196,59.1943 6.78236,59.1323 C6.84176,59.0099 6.90236,58.8883 6.96576,58.7671 C7.01496,58.6723 7.06416,58.5789 7.11616,58.4853 C7.16776,58.3891 7.22096,58.2957 7.27536,58.2021 C7.31716,58.1289 7.35996,58.0553 7.40436,57.9821 C7.43216,57.9341 7.46116,57.8861 7.49156,57.8379 C7.63176,57.6093 7.77836,57.3843 7.93136,57.1629 C7.96936,57.1061 8.00856,57.0505 8.04756,56.9961 C8.11076,56.9065 8.17656,56.8181 8.24236,56.7295 C8.29156,56.6625 8.34096,56.5979 8.39016,56.5323 C8.40536,56.5133 8.41916,56.4957 8.43456,56.4767 C8.52796,56.3553 8.62396,56.2353 8.72396,56.1165 C8.78336,56.0431 8.84516,55.9699 8.90836,55.8965 C8.96016,55.8359 9.01456,55.7751 9.06776,55.7145 C9.07656,55.7043 9.08676,55.6931 9.09676,55.6815 C9.15116,55.6209 9.20676,55.5603 9.26236,55.4997 C9.33936,55.4149 9.41916,55.3315 9.49996,55.2481 C9.54296,55.2039 9.58596,55.1583 9.63016,55.1141 C9.75536,54.9889 9.88176,54.8651 10.01196,54.7425 C10.06256,54.6959 10.11316,54.6489 10.16356,54.6023 C10.18876,54.5783 10.21416,54.5553 10.23936,54.5327 C10.29516,54.4833 10.34936,54.4341 10.40616,54.3849 C10.47456,54.3227 10.54396,54.2633 10.61476,54.2041 C10.74876,54.0915 10.88276,53.9815 11.02056,53.8741 C11.09016,53.8185 11.16096,53.7641 11.23176,53.7111 C11.29876,53.6593 11.36696,53.6087 11.43516,53.5595 C11.44156,53.5531 11.44916,53.5479 11.45536,53.5443 C11.52376,53.4937 11.59316,53.4445 11.66276,53.3951 C11.73476,53.3445 11.80816,53.2941 11.88136,53.2435 C12.15056,53.0615 12.42616,52.8871 12.70796,52.7213 L12.85976,52.6341 C12.91276,52.6027 12.96716,52.5721 13.02156,52.5431 C13.21236,52.4357 13.40696,52.3333 13.60296,52.2373 C13.66856,52.2031 13.73436,52.1715 13.80136,52.1385 C13.88096,52.1007 13.96056,52.0627 14.04036,52.0275 C14.10096,51.9983 14.16296,51.9707 14.22476,51.9441 C14.47136,51.8341 14.72156,51.7315 14.97436,51.6357 C15.02876,51.6153 15.08176,51.5953 15.13616,51.5749 C15.19296,51.5545 15.24996,51.5331 15.30816,51.5141 C15.37516,51.4889 15.44216,51.4661 15.50916,51.4447 C15.58736,51.4181 15.66576,51.3917 15.74416,51.3677 C16.00336,51.2843 16.26756,51.2083 16.53296,51.1401 C16.60876,51.1211 16.68336,51.1009 16.75916,51.0833 C16.82996,51.0655 16.90076,51.0491 16.97156,51.0327 C17.15116,50.9923 17.33036,50.9541 17.51256,50.9213 C17.55796,50.9125 17.60356,50.9039 17.64896,50.8961 C17.75016,50.8773 17.84996,50.8609 17.95116,50.8443 C18.05216,50.8279 18.15336,50.8139 18.25456,50.8001 C18.36576,50.7849 18.47816,50.7709 18.59196,50.7583 C18.70076,50.7459 18.80936,50.7343 18.91936,50.7243 C18.93316,50.7229 18.94836,50.7217 18.96236,50.7205 C19.06476,50.7117 19.16836,50.7029 19.27196,50.6963 C19.35536,50.6901 19.43876,50.6851 19.52216,50.6813 C19.54116,50.6799 19.56016,50.6789 19.57916,50.6789 C19.62976,50.6763 19.68036,50.6737 19.73076,50.6723 C19.78276,50.6699 19.83456,50.6687 19.88756,50.6673 C19.94196,50.6647 19.99636,50.6635 20.05076,50.6635 C20.13656,50.6623 20.22256,50.6611 20.30856,50.6611 C20.39436,50.6611 20.48036,50.6623 20.56636,50.6635 C20.62076,50.6635 20.67516,50.6647 20.72936,50.6673 C20.78256,50.6687 20.83436,50.6699 20.88616,50.6723 C20.93676,50.6737 20.98716,50.6763 21.03776,50.6789 C21.05676,50.6789 21.07576,50.6799 21.09476,50.6813 C21.17816,50.6851 21.26156,50.6901 21.34496,50.6963 C21.44856,50.7029 21.55216,50.7117 21.65476,50.7205 C21.66856,50.7217 21.68376,50.7229 21.69756,50.7243 C21.80756,50.7343 21.91636,50.7459 22.02496,50.7583 C22.13876,50.7709 22.25116,50.7849 22.36256,50.8001 C22.46356,50.8139 22.56476,50.8279 22.66576,50.8443 C22.76696,50.8609 22.86676,50.8773 22.96796,50.8961 C23.01356,50.9039 23.05896,50.9125 23.10456,50.9213 C23.28636,50.9541 23.46596,50.9923 23.64536,51.0327 C23.71616,51.0491 23.78696,51.0655 23.85776,51.0833 C23.93376,51.1009 24.00816,51.1211 24.08416,51.1401 C24.34956,51.2083 24.61236,51.2843 24.87276,51.3677 C24.95116,51.3917 25.02956,51.4181 25.10796,51.4447 C25.17496,51.4661 25.24196,51.4889 25.30896,51.5141 C25.36716,51.5331 25.42396,51.5545 25.48076,51.5749 C25.53516,51.5953 25.58836,51.6153 25.64256,51.6357 C25.81196,51.6987 25.97876,51.7657 26.14436,51.8367 C26.21776,51.8669 26.28976,51.8985 26.36176,51.9301 C26.42236,51.9565 26.48196,51.9831 26.54256,52.0123 C26.61456,52.0439 26.68656,52.0767 26.75736,52.1109 C26.77636,52.1197 26.79396,52.1287 26.81316,52.1375 C26.90536,52.1815 26.99636,52.2271 27.08596,52.2725 C27.09876,52.2777 27.10996,52.2841 27.12156,52.2903 C27.20736,52.3333 27.29076,52.3777 27.37556,52.4229 C27.44876,52.4623 27.52216,52.5015 27.59556,52.5431 C27.64976,52.5721 27.70416,52.6027 27.75716,52.6341 C27.80776,52.6631 27.85836,52.6923 27.90896,52.7213 C27.93156,52.7353 27.95576,52.7491 27.97976,52.7643 C28.06056,52.8111 28.14016,52.8605 28.21996,52.9097 C28.29316,52.9551 28.36656,53.0007 28.43976,53.0487 C28.70136,53.2169 28.95676,53.3925 29.20576,53.5771 C29.26016,53.6163 29.31336,53.6553 29.36636,53.6971 C29.69876,53.9473 30.01976,54.2127 30.32956,54.4897 C30.39276,54.5453 30.45476,54.6023 30.51536,54.6591 C30.56956,54.7083 30.62276,54.7589 30.67596,54.8095 C30.71636,54.8487 30.75676,54.8877 30.79716,54.9271 C31.02716,55.1507 31.24976,55.3821 31.46336,55.6197 C31.51516,55.6753 31.56576,55.7321 31.61636,55.7903 C31.78436,55.9825 31.94736,56.1785 32.10536,56.3781 C32.15716,56.4425 32.20776,56.5095 32.25836,56.5753 C32.32656,56.6637 32.39356,56.7535 32.45816,56.8433 C32.51356,56.9179 32.56796,56.9937 32.62116,57.0709 C32.82596,57.3627 33.02056,57.6625 33.20396,57.9683 C33.23916,58.0277 33.27456,58.0859 33.30756,58.1453 C33.34796,58.2133 33.38716,58.2817 33.42516,58.3499 C33.45916,58.4093 33.49216,58.4701 33.52496,58.5307 C33.65756,58.7747 33.78276,59.0223 33.90156,59.2739 C33.93056,59.3333 33.95716,59.3927 33.98496,59.4523 C34.06596,59.6293 34.14296,59.8087 34.21756,59.9893 C34.25416,60.0803 34.29096,60.1713 34.32616,60.2625 C34.37056,60.3761 34.41216,60.4899 34.45256,60.6049 C34.48676,60.6959 34.51956,60.7881 34.54996,60.8817 C34.58536,60.9855 34.61956,61.0903 34.65236,61.1965 C34.68516,61.3015 34.71696,61.4075 34.74716,61.5137 C34.81416,61.7439 34.87496,61.9765 34.93036,62.2115 C34.94696,62.2809 34.96336,62.3505 34.97856,62.4213 C34.98856,62.4643 34.99736,62.5073 35.00636,62.5503 C35.03656,62.6893 35.06436,62.8283 35.08856,62.9687 C35.09996,63.0255 35.10996,63.0837 35.12016,63.1417 C35.16176,63.0899 35.19836,63.0317 35.22756,62.9711 C35.28816,62.8473 35.31856,62.7057 35.30956,62.5579 C34.89876,55.5351 29.66716,49.8091 22.87576,48.6411 L22.87436,48.6411 C22.04016,48.4969 21.18316,48.4225 20.30856,48.4225 C17.70476,48.4225 15.25616,49.0835 13.12136,50.2489 C8.69616,52.6631 5.61816,57.2389 5.30736,62.5579 C5.29336,62.7791 5.36796,62.9837 5.49696,63.1417" id="Fill-888" fill="#61CECE"></path>
                <path d="M5.49646,63.1423 C5.64966,63.3291 5.88206,63.4499 6.14406,63.4499 L34.47226,63.4499 C34.73426,63.4499 34.96686,63.3291 35.11986,63.1423 C33.91206,56.0547 27.74086,50.6617 20.30826,50.6617 C12.87666,50.6617 6.70426,56.0547 5.49646,63.1423" id="Fill-889" fill="#50B0B2"></path>
                <path d="M42.91268,40.11416 C42.90628,40.09156 42.90128,40.07376 42.89608,40.06236" id="Fill-890" fill="#323431"></path>
                <path d="M55.9238,4.2503 C55.9238,1.9795 56.2922,0.1383 56.7464,0.1383 C57.2008,0.1383 57.5692,1.9795 57.5692,4.2503 C57.5692,6.5211 57.2008,8.3621 56.7464,8.3621 C56.2922,8.3621 55.9238,6.5211 55.9238,4.2503" id="Fill-891" fill="#92AFB5"></path>
                <path d="M73.8327,11.38976 L73.8327,23.32816 L74.8477,23.32816 C77.4325,23.32816 79.5485,20.88376 79.5485,17.89556 L79.5485,16.82236 C79.5485,13.83436 77.4325,11.38976 74.8477,11.38976 L73.8327,11.38976 Z" id="Fill-892" fill="#FCD638"></path>
                <path d="M59.47868,16.82238 L59.47868,17.89558 C59.47868,20.88378 61.59468,23.32818 64.18068,23.32818 L73.83268,23.32818 L73.83268,11.38978 L64.18068,11.38978 C61.59468,11.38978 59.47868,13.83438 59.47868,16.82238" id="Fill-893" fill="#54C7E2"></path>
                <path d="M64.57,19.94678 C65.7172,19.94678 66.6556,19.00838 66.6556,17.86118 C66.6556,16.71418 65.7172,15.77578 64.57,15.77578 C63.423,15.77578 62.4844,16.71418 62.4844,17.86118 C62.4844,19.00838 63.423,19.94678 64.57,19.94678" id="Fill-894" fill="#1F1C23"></path>
                <path d="M62.85174,17.86124 C62.85174,18.81024 63.62114,19.57964 64.56994,19.57964 C65.51894,19.57964 66.28834,18.81024 66.28834,17.86124 C66.28834,16.91224 65.51894,16.14284 64.56994,16.14284 C63.62114,16.14284 62.85174,16.91224 62.85174,17.86124" id="Fill-895" fill="#FEEDA3"></path>
                <path d="M63.1652,17.86124 C63.1652,18.63724 63.7942,19.26604 64.57,19.26604 C65.346,19.26604 65.9748,18.63724 65.9748,17.86124 C65.9748,17.08544 65.346,16.45644 64.57,16.45644 C63.7942,16.45644 63.1652,17.08544 63.1652,17.86124" id="Fill-896" fill="#1F1C23"></path>
                <path d="M35.22752,62.9712 L36.90732,63.0054 C36.37012,62.9396 35.31972,62.7222 35.30972,62.558 C35.31852,62.7058 35.28812,62.8474 35.22752,62.9712" id="Fill-897" fill="#50B0B2"></path>
                <path d="M32.87518,63.4503 C32.87898,63.3453 32.88018,63.2403 32.88018,63.1343 C32.88018,63.0633 32.88018,62.9939 32.87778,62.9231 L35.08838,62.9687 L35.22758,62.9711 L36.90738,63.0053 L37.21578,63.0117 L53.34058,63.0117 C53.36478,63.0571 53.39378,63.1013 53.42658,63.1417 C53.57958,63.3289 53.81218,63.4503 54.07498,63.4503 L55.67018,63.4503 C55.69798,64.5841 55.87618,65.6825 56.18718,66.7227 L32.35938,66.7227 C32.66918,65.6825 32.84858,64.5853 32.87518,63.4503" id="Fill-898" fill="#424242"></path>
            </g>
        </g>
    </g>
</svg>