<?xml version="1.0" encoding="UTF-8"?>
<svg width="361px" height="257px" viewBox="0 0 361 257" version="1.1" xmlns="http://www.w3.org/2000/svg" xmlns:xlink="http://www.w3.org/1999/xlink">
    <!-- Generator: Sketch 52.6 (67491) - http://www.bohemiancoding.com/sketch -->
    <title>分组</title>
    <desc>Created with Sketch.</desc>
    <defs>
        <polygon id="path-1" points="0 256.600311 364.956152 256.600311 364.956152 0.141290047 0 0.141290047"></polygon>
        <polygon id="path-3" points="0.103113001 0.100321928 99.2388749 0.100321928 99.2388749 53.6545455 0.103113001 53.6545455"></polygon>
        <polygon id="path-5" points="0.160135491 0.097803888 87.904734 0.097803888 87.904734 60.0778468 0.160135491 60.0778468"></polygon>
        <polygon id="path-7" points="0.103113001 0.100321928 126.909819 0.100321928 126.909819 67.2722481 0.103113001 67.2722481"></polygon>
        <polygon id="path-9" points="0 256.600311 364.956152 256.600311 364.956152 0.141290047 0 0.141290047"></polygon>
        <path d="M0.693760285,0.01918507 C0.322753703,0.01918507 0.0192210642,0.321949456 0.0192210642,0.692261275 L0.0192210642,22.3394152 C0.0192210642,22.7097271 0.322753703,23.0126913 0.693760285,23.0126913 L189.299652,23.0126913 C189.670458,23.0126913 189.974191,22.7097271 189.974191,22.3394152 L189.974191,0.692261275 C189.974191,0.321949456 189.670458,0.01918507 189.299652,0.01918507" id="path-11"></path>
        <path d="M0.693760285,0.01918507 C0.322753703,0.01918507 0.0192210642,0.321949456 0.0192210642,0.692261275 L0.0192210642,22.3394152 C0.0192210642,22.7097271 0.322753703,23.0126913 0.693760285,23.0126913 L189.299652,23.0126913 C189.670458,23.0126913 189.974191,22.7097271 189.974191,22.3394152 L189.974191,0.692261275 C189.974191,0.321949456 189.670458,0.01918507 189.299652,0.01918507" id="path-13"></path>
        <path d="M0.693760285,0.01918507 C0.322753703,0.01918507 0.0192210642,0.321949456 0.0192210642,0.692261275 L0.0192210642,22.3394152 C0.0192210642,22.7097271 0.322753703,23.0126913 0.693760285,23.0126913 L189.299652,23.0126913 C189.670458,23.0126913 189.974191,22.7097271 189.974191,22.3394152 L189.974191,0.692261275 C189.974191,0.321949456 189.670458,0.01918507 189.299652,0.01918507" id="path-15"></path>
        <path d="M0.693760285,0.01918507 C0.322753703,0.01918507 0.0192210642,0.321949456 0.0192210642,0.692261275 L0.0192210642,22.3394152 C0.0192210642,22.7097271 0.322753703,23.0126913 0.693760285,23.0126913 L189.299652,23.0126913 C189.670458,23.0126913 189.974191,22.7097271 189.974191,22.3394152 L189.974191,0.692261275 C189.974191,0.321949456 189.670458,0.01918507 189.299652,0.01918507" id="path-17"></path>
        <polygon id="path-19" points="0 256.600311 364.956152 256.600311 364.956152 0.141290047 0 0.141290047"></polygon>
    </defs>
    <g id="图示" stroke="none" stroke-width="1" fill="none" fill-rule="evenodd">
        <g id="交通工具" transform="translate(-19.000000, -731.000000)">
            <g id="分组" transform="translate(19.000000, 731.000000)">
                <polygon id="Fill-1" fill="#F4C17D" points="45.3212671 93.0441921 110.542943 93.0441921 110.542943 26.4378258 45.3212671 26.4378258"></polygon>
                <polygon id="Fill-2" fill="#F9D095" points="45.3210669 93.0441921 98.3175453 93.0441921 98.3175453 26.4378258 45.3210669 26.4378258"></polygon>
                <polygon id="Fill-3" fill="#E8AE69" points="42.088124 27.6662698 111.62593 27.6662698 111.62593 24.4979355 42.088124 24.4979355"></polygon>
                <polygon id="Fill-4" fill="#FFFFFF" points="49.55791 31.8440187 93.1524849 31.8440187 93.1524849 29.9462955 49.55791 29.9462955"></polygon>
                <polygon id="Fill-5" fill="#FFFFFF" points="49.55791 43.1622107 93.1524849 43.1622107 93.1524849 41.2644876 49.55791 41.2644876"></polygon>
                <polygon id="Fill-6" fill="#FFFFFF" points="49.55791 54.480203 93.1524849 54.480203 93.1524849 52.5824798 49.55791 52.5824798"></polygon>
                <polygon id="Fill-7" fill="#FFFFFF" points="49.55791 65.798395 93.1524849 65.798395 93.1524849 63.9006719 49.55791 63.9006719"></polygon>
                <polygon id="Fill-8" fill="#FFFFFF" points="49.55791 77.1163872 93.1524849 77.1163872 93.1524849 75.2186641 49.55791 75.2186641"></polygon>
                <polygon id="Fill-9" fill="#FFFFFF" points="49.55791 88.4345793 93.1524849 88.4345793 93.1524849 86.5368561 49.55791 86.5368561"></polygon>
                <polygon id="Fill-10" fill="#F4C17D" points="33.8805293 228.803543 119.833324 228.803543 119.833324 95.5908103 33.8805293 95.5908103"></polygon>
                <polygon id="Fill-11" fill="#F9D095" points="33.8807296 228.803543 103.722268 228.803543 103.722268 95.5908103 33.8807296 95.5908103"></polygon>
                <polygon id="Fill-12" fill="#E8AE69" points="29.6200603 98.0476983 121.260688 98.0476983 121.260688 91.7108297 29.6200603 91.7108297"></polygon>
                <polygon id="Fill-13" fill="#FFFFFF" points="39.4640483 106.394203 96.9154087 106.394203 96.9154087 102.607949 39.4640483 102.607949"></polygon>
                <polygon id="Fill-14" fill="#FFFFFF" points="39.4640483 128.976629 96.9154087 128.976629 96.9154087 125.190376 39.4640483 125.190376"></polygon>
                <polygon id="Fill-15" fill="#FFFFFF" points="39.4640483 151.559055 96.9154087 151.559055 96.9154087 147.772802 39.4640483 147.772802"></polygon>
                <polygon id="Fill-16" fill="#FFFFFF" points="39.4640483 174.141481 96.9154087 174.141481 96.9154087 170.355228 39.4640483 170.355228"></polygon>
                <polygon id="Fill-17" fill="#FFFFFF" points="39.4640483 196.723907 96.9154087 196.723907 96.9154087 192.937654 39.4640483 192.937654"></polygon>
                <polygon id="Fill-18" fill="#FFFFFF" points="39.4640483 219.306334 96.9154087 219.306334 96.9154087 215.52028 39.4640483 215.52028"></polygon>
                <polygon id="Fill-19" fill="#B3DAE8" points="224.787963 229.549422 134.923281 229.549422 134.923281 121.525687 224.787963 79.1438694"></polygon>
                <polygon id="Fill-20" fill="#B3DAE8" points="224.677302 116.739952 159.625212 116.739952 159.625212 38.5424059 224.677302 7.86268118"></polygon>
                <polygon id="Fill-21" fill="#56768C" points="224.787863 0.199284914 220.932438 5.00894199 220.932438 229.549402 224.787863 229.549402"></polygon>
                <polygon id="Fill-22" fill="#FFFFFF" points="210.279483 34.8216414 167.647964 53.8614245 167.647964 50.1686982 210.279483 31.1289152"></polygon>
                <polygon id="Fill-23" fill="#FFFFFF" points="210.279483 44.7147226 167.647964 63.7545056 167.647964 60.0617793 210.279483 41.0219963"></polygon>
                <polygon id="Fill-24" fill="#FFFFFF" points="210.279483 54.6078236 167.647964 73.6476067 167.647964 69.9548804 210.279483 50.9150974"></polygon>
                <polygon id="Fill-25" fill="#FFFFFF" points="210.279483 64.5010047 167.647964 83.5405879 167.647964 79.8480614 210.279483 60.8082784"></polygon>
                <polygon id="Fill-26" fill="#FFFFFF" points="210.279483 74.3940858 167.647964 93.4338688 167.647964 89.7411425 210.279483 70.7013595"></polygon>
                <polygon id="Fill-27" fill="#FFFFFF" points="210.279483 84.2871669 167.647964 103.32695 167.647964 99.6342236 210.279483 80.5944406"></polygon>
                <polygon id="Fill-28" fill="#F4C59A" points="235.974202 228.803543 351.743673 228.803543 351.743673 25.5834907 235.974202 25.5834907"></polygon>
                <polygon id="Fill-29" fill="#F9D9B9" points="235.974202 228.803543 330.043692 228.803543 330.043692 25.5834907 235.974202 25.5834907"></polygon>
                <polygon id="Fill-30" fill="#E0AE80" points="233.389569 228.803543 235.974202 228.803543 235.974202 25.5834907 233.389569 25.5834907"></polygon>
                <polygon id="Fill-31" fill="#767476" points="0 256.658266 360.270016 256.658266 360.270016 244.678589 0 244.678589"></polygon>
                <polygon id="Fill-32" fill="#B2B2B2" points="0 244.678589 360.270016 244.678589 360.270016 238.68865 0 238.68865"></polygon>
                <polygon id="Fill-33" fill="#88AF7B" points="0 238.68865 360.270016 238.68865 360.270016 228.803543 0 228.803543"></polygon>
                <polygon id="Fill-34" fill="#56768C" points="58.8979457 127.0863 211.779487 127.0863 211.779487 105.611012 58.8979457 105.611012"></polygon>
                <polygon id="Fill-35" fill="#56768C" points="61.1700357 141.848012 207.235507 141.848012 207.235507 137.185841 61.1700357 137.185841"></polygon>
                <polygon id="Fill-36" fill="#A4D0E3" points="61.1700357 209.020138 207.235507 209.020138 207.235507 141.848012 61.1700357 141.848012"></polygon>
                <polygon id="Fill-37" fill="#56768C" points="61.1700357 213.68231 207.235507 213.68231 207.235507 209.020138 61.1700357 209.020138"></polygon>
                <g transform="translate(0.000000, 0.057955)">
                    <path d="M58.8980658,127.028425 L37.3824871,127.028425 C37.3824871,115.167855 47.0152436,105.553137 58.8980658,105.553137 L58.8980658,127.028425 Z" id="Fill-38" fill="#7290A0"></path>
                    <path d="M58.8980658,127.028425 L44.5477394,127.028425 L44.5477394,119.876591 C44.5477394,111.965947 50.9725804,105.553137 58.8980658,105.553137 L58.8980658,127.028425 Z" id="Fill-40" fill="#56768C"></path>
                    <mask id="mask-2" fill="white">
                        <use xlink:href="#path-1"></use>
                    </mask>
                    <g id="Clip-43"></g>
                    <polygon id="Fill-42" fill="#56768C" mask="url(#mask-2)" points="45.1646956 228.745588 49.7086753 228.745588 49.7086753 124.474733 45.1646956 124.474733"></polygon>
                    <polygon id="Fill-44" fill="#56768C" mask="url(#mask-2)" points="56.626056 228.745588 61.1700357 228.745588 61.1700357 124.474733 56.626056 124.474733"></polygon>
                    <polygon id="Fill-45" fill="#56768C" mask="url(#mask-2)" points="207.235507 228.745588 211.779487 228.745588 211.779487 124.474733 207.235507 124.474733"></polygon>
                </g>
                <g transform="translate(61.066923, 141.747691)">
                    <g>
                        <mask id="mask-4" fill="white">
                            <use xlink:href="#path-3"></use>
                        </mask>
                        <g id="Clip-47"></g>
                        <polygon id="Fill-46" fill="#FFFFFF" mask="url(#mask-4)" points="99.2388749 -40.7663752 -34.9922276 53.6545455 -40.0814048 46.4467547 94.1496978 -47.974166"></polygon>
                    </g>
                    <g transform="translate(58.263851, 7.194401)">
                        <mask id="mask-6" fill="white">
                            <use xlink:href="#path-5"></use>
                        </mask>
                        <g id="Clip-49"></g>
                        <polygon id="Fill-48" fill="#FFFFFF" mask="url(#mask-6)" points="139.480415 7.30539487 5.24931267 101.726316 0.160135491 94.5185247 134.391238 0.097803888"></polygon>
                    </g>
                    <g>
                        <mask id="mask-8" fill="white">
                            <use xlink:href="#path-7"></use>
                        </mask>
                        <g id="Clip-51"></g>
                        <polygon id="Fill-50" fill="#FFFFFF" mask="url(#mask-8)" points="126.909819 -14.2081431 -7.32128332 80.2127776 -18.2552658 64.7266291 115.975837 -29.6940918"></polygon>
                    </g>
                </g>
                <g transform="translate(0.000000, 0.057955)">
                    <path d="M330.641467,216.311684 L128.346173,216.311684 C125.8156,216.311684 123.763952,214.264078 123.763952,211.737843 L123.763952,151.820072 C123.763952,149.294038 125.8156,147.246231 128.346173,147.246231 L330.641467,147.246231 C333.17224,147.246231 335.223688,149.294038 335.223688,151.820072 L335.223688,211.737843 C335.223688,214.264078 333.17224,216.311684 330.641467,216.311684" id="Fill-52" fill="#F4B04E"></path>
                    <path d="M123.763992,156.587842 C123.763992,153.277018 126.452939,150.593107 129.769974,150.593107 L334.606452,150.593107 C333.626578,148.61065 331.582338,147.246311 329.217947,147.246311 L129.769974,147.246311 C126.452939,147.246311 123.763992,149.930423 123.763992,153.241046 L123.763992,210.317629 L123.763992,156.587842 Z" id="Fill-54" fill="#F9C178"></path>
                    <path d="M123.763992,204.556172 L123.763992,214.86515 C123.763992,218.466947 126.452939,221.387074 129.769974,221.387074 L329.217947,221.387074 C332.534782,221.387074 335.223728,218.466947 335.223728,214.86515 L335.223728,204.556172 L123.763992,204.556172 Z" id="Fill-56" fill="#E87B16"></path>
                    <path d="M331.714523,204.556172 L331.714523,212.726814 C331.714523,216.328611 329.025576,219.248539 325.708741,219.248539 L126.260768,219.248539 C125.915189,219.248539 125.577019,219.215165 125.247658,219.154212 C126.348464,220.521948 127.965636,221.387074 129.769813,221.387074 L329.217787,221.387074 C332.534822,221.387074 335.223568,218.466947 335.223568,214.86515 L335.223568,204.556172 L331.714523,204.556172 Z" id="Fill-58" fill="#D6701D"></path>
                    <path d="M183.429759,216.311684 C183.429759,217.617668 182.368996,218.676644 181.060362,218.676644 C179.751928,218.676644 178.691166,217.617668 178.691166,216.311684 C178.691166,215.0057 179.751928,213.946724 181.060362,213.946724 C182.368996,213.946724 183.429759,215.0057 183.429759,216.311684" id="Fill-60" fill="#312F1A"></path>
                    <path d="M284.266625,216.311684 C284.266625,217.617668 283.205863,218.676644 281.897429,218.676644 C280.588795,218.676644 279.528032,217.617668 279.528032,216.311684 C279.528032,215.0057 280.588795,213.946724 281.897429,213.946724 C283.205863,213.946724 284.266625,215.0057 284.266625,216.311684" id="Fill-62" fill="#312F1A"></path>
                    <path d="M128.5892,158.586886 L123.763912,158.586886 L123.763912,197.004189 C127.534444,195.887059 130.286259,192.588426 130.286259,188.719237 L130.286259,160.167256 C130.286259,159.298133 129.522623,158.586886 128.5892,158.586886" id="Fill-64" fill="#56768C"></path>
                    <path d="M123.763992,194.243897 C126.470958,192.908337 128.344411,190.121506 128.344411,186.917999 L128.344411,161.796748 C128.344411,160.980184 127.675078,160.311704 126.856781,160.311704 L123.763992,160.311704 L123.763992,194.243897 Z" id="Fill-66" fill="#82A6D8"></path>
                    <path d="M327.009366,186.433176 L134.571075,186.433176 C133.946791,186.433176 133.435831,185.923173 133.435831,185.300058 L133.435831,159.719764 C133.435831,159.096649 133.946791,158.586846 134.571075,158.586846 L327.009366,158.586846 C327.633651,158.586846 328.144611,159.096649 328.144611,159.719764 L328.144611,185.300058 C328.144611,185.923173 327.633651,186.433176 327.009366,186.433176" id="Fill-68" fill="#56768C"></path>
                    <path d="M326.65684,184.94957 L134.923722,184.94957 C134.105425,184.94957 133.435891,184.28129 133.435891,183.464726 L133.435891,184.948171 C133.435891,185.764936 134.105425,186.433216 134.923722,186.433216 L326.65684,186.433216 C327.475137,186.433216 328.144671,185.764936 328.144671,184.948171 L328.144671,183.464726 C328.144671,184.28129 327.475137,184.94957 326.65684,184.94957" id="Fill-70" fill="#436375"></path>
                    <path d="M325.448876,183.687652 L136.842985,183.687652 C136.471978,183.687652 136.168446,183.384688 136.168446,183.014376 L136.168446,161.367422 C136.168446,160.996911 136.471978,160.693946 136.842985,160.693946 L325.448876,160.693946 C325.819883,160.693946 326.123416,160.996911 326.123416,161.367422 L326.123416,183.014376 C326.123416,183.384688 325.819883,183.687652 325.448876,183.687652" id="Fill-72" fill="#82A6D8"></path>
                    <path d="M156.868831,221.387034 L133.435951,221.387034 L133.435951,159.719824 C133.435951,159.096709 133.946711,158.586906 134.570995,158.586906 L156.868831,158.586906 L156.868831,221.387034 Z" id="Fill-74" fill="#56768C"></path>
                    <mask id="mask-10" fill="white">
                        <use xlink:href="#path-9"></use>
                    </mask>
                    <g id="Clip-77"></g>
                    <polygon id="Fill-76" fill="#82A6D8" mask="url(#mask-10)" points="136.168426 219.248379 154.136517 219.248379 154.136517 160.879202 136.168426 160.879202"></polygon>
                    <path d="M139.365369,192.643583 L138.890849,192.643583 C138.470989,192.643583 138.127413,192.30065 138.127413,191.881576 L138.127413,183.158564 C138.127413,182.73929 138.470989,182.396557 138.890849,182.396557 L139.365369,182.396557 C139.785229,182.396557 140.128806,182.73929 140.128806,183.158564 L140.128806,191.881576 C140.128806,192.30065 139.785229,192.643583 139.365369,192.643583" id="Fill-78" fill="#56768C" mask="url(#mask-10)"></path>
                    <path d="M259.594868,221.387034 L224.929278,221.387034 L224.929278,159.719824 C224.929278,159.096709 225.440038,158.586906 226.064322,158.586906 L259.594868,158.586906 L259.594868,221.387034 Z" id="Fill-79" fill="#56768C" mask="url(#mask-10)"></path>
                    <polygon id="Fill-80" fill="#82A6D8" mask="url(#mask-10)" points="227.617444 219.248379 256.906742 219.248379 256.906742 160.879202 227.617444 160.879202"></polygon>
                    <polygon id="Fill-81" fill="#56768C" mask="url(#mask-10)" points="242.079493 214.345994 243.494443 214.345994 243.494443 160.693946 242.079493 160.693946"></polygon>
                    <path d="M177.662318,184.94975 L177.182593,184.94975 C176.758128,184.94975 176.410747,184.60302 176.410747,184.17915 L176.410747,160.27835 C176.410747,159.854679 176.758128,159.507749 177.182593,159.507749 L177.662318,159.507749 C178.086984,159.507749 178.434164,159.854679 178.434164,160.27835 L178.434164,184.17915 C178.434164,184.60302 178.086984,184.94975 177.662318,184.94975" id="Fill-82" fill="#56768C" mask="url(#mask-10)"></path>
                    <path d="M205.689313,184.94975 L205.209587,184.94975 C204.784922,184.94975 204.437541,184.60302 204.437541,184.17915 L204.437541,160.27835 C204.437541,159.854679 204.784922,159.507749 205.209587,159.507749 L205.689313,159.507749 C206.113778,159.507749 206.461159,159.854679 206.461159,160.27835 L206.461159,184.17915 C206.461159,184.60302 206.113778,184.94975 205.689313,184.94975" id="Fill-83" fill="#56768C" mask="url(#mask-10)"></path>
                    <path d="M277.51881,184.94975 L277.039084,184.94975 C276.614619,184.94975 276.267239,184.60302 276.267239,184.17915 L276.267239,160.27835 C276.267239,159.854679 276.614619,159.507749 277.039084,159.507749 L277.51881,159.507749 C277.943476,159.507749 278.290656,159.854679 278.290656,160.27835 L278.290656,184.17915 C278.290656,184.60302 277.943476,184.94975 277.51881,184.94975" id="Fill-84" fill="#56768C" mask="url(#mask-10)"></path>
                    <path d="M305.545604,184.94975 L305.065879,184.94975 C304.641414,184.94975 304.294033,184.60302 304.294033,184.17915 L304.294033,160.27835 C304.294033,159.854679 304.641414,159.507749 305.065879,159.507749 L305.545604,159.507749 C305.97027,159.507749 306.31745,159.854679 306.31745,160.27835 L306.31745,184.17915 C306.31745,184.60302 305.97027,184.94975 305.545604,184.94975" id="Fill-85" fill="#56768C" mask="url(#mask-10)"></path>
                    <path d="M231.027421,192.643583 L230.553101,192.643583 C230.133041,192.643583 229.789464,192.30065 229.789464,191.881576 L229.789464,183.158564 C229.789464,182.73929 230.133041,182.396557 230.553101,182.396557 L231.027421,182.396557 C231.447481,182.396557 231.790857,182.73929 231.790857,183.158564 L231.790857,191.881576 C231.790857,192.30065 231.447481,192.643583 231.027421,192.643583" id="Fill-86" fill="#56768C" mask="url(#mask-10)"></path>
                    <path d="M253.95821,192.643583 L253.483891,192.643583 C253.06383,192.643583 252.720254,192.30065 252.720254,191.881576 L252.720254,183.158564 C252.720254,182.73929 253.06383,182.396557 253.483891,182.396557 L253.95821,182.396557 C254.37807,182.396557 254.721647,182.73929 254.721647,183.158564 L254.721647,191.881576 C254.721647,192.30065 254.37807,192.643583 253.95821,192.643583" id="Fill-87" fill="#56768C" mask="url(#mask-10)"></path>
                </g>
                <g transform="translate(136.149205, 160.732916)">
                    <g>
                        <mask id="mask-12" fill="white">
                            <use xlink:href="#path-11"></use>
                        </mask>
                        <g id="Clip-89"></g>
                        <path d="M47.6033681,-18.8424366 L-21.0819035,40.0387414 C-21.5556226,40.4446256 -22.2758118,40.3902679 -22.6824575,39.917236 L-26.6055568,35.3583837 C-27.0124026,34.8857516 -26.9575425,34.1667111 -26.4840236,33.7606271 L42.2014482,-25.1205509 C42.6749671,-25.5264351 43.3951563,-25.4718775 43.8020022,-24.9992453 L47.7249013,-20.4401932 C48.1317471,-19.9673612 48.076887,-19.2483208 47.6033681,-18.8424366" id="Fill-88" fill="#FFFFFF" mask="url(#mask-12)"></path>
                    </g>
                    <g>
                        <mask id="mask-14" fill="white">
                            <use xlink:href="#path-13"></use>
                        </mask>
                        <g id="Clip-91"></g>
                        <path d="M95.2952732,-14.5980796 L26.6100016,44.2830984 C26.1364827,44.6889826 25.4160933,44.634425 25.0094476,44.161593 L24.5323247,43.6072244 C24.1254789,43.1345922 24.180339,42.4155518 24.6538579,42.0096677 L93.3391295,-16.8715104 C93.8128486,-17.2775944 94.5330378,-17.2230369 94.9398837,-16.7504047 L95.4168064,-16.1958362 C95.8236522,-15.723204 95.7689923,-15.0041636 95.2952732,-14.5980796" id="Fill-90" fill="#FFFFFF" mask="url(#mask-14)"></path>
                    </g>
                    <g>
                        <mask id="mask-16" fill="white">
                            <use xlink:href="#path-15"></use>
                        </mask>
                        <g id="Clip-93"></g>
                        <path d="M199.71869,-22.6792907 L131.033418,36.2018873 C130.559699,36.6077715 129.83931,36.5534138 129.432664,36.0803819 L126.762338,32.9771968 C126.355692,32.5045646 126.410152,31.7855242 126.884071,31.37964 L195.569142,-27.501538 C196.042861,-27.907622 196.763051,-27.8530645 197.170097,-27.3802324 L199.840223,-24.2770474 C200.247069,-23.8042153 200.192209,-23.0853747 199.71869,-22.6792907" id="Fill-92" fill="#FFFFFF" mask="url(#mask-16)"></path>
                    </g>
                    <g>
                        <mask id="mask-18" fill="white">
                            <use xlink:href="#path-17"></use>
                        </mask>
                        <g id="Clip-95"></g>
                        <path d="M228.412835,-24.6176223 L159.727364,34.2635558 C159.253845,34.6696397 158.533455,34.6150822 158.12681,34.1422502 L155.456483,31.0390651 C155.049637,30.566233 155.104297,29.8473925 155.578016,29.4413085 L224.263288,-29.4398696 C224.737007,-29.8457537 225.457196,-29.791396 225.864042,-29.3183642 L228.534168,-26.2151791 C228.941014,-25.7425469 228.886354,-25.0235065 228.412835,-24.6176223" id="Fill-94" fill="#FFFFFF" mask="url(#mask-18)"></path>
                    </g>
                </g>
                <g transform="translate(0.000000, 0.057955)">
                    <path d="M150.785685,174.380635 L139.519138,174.380635 C139.304102,174.380635 139.128109,174.205172 139.128109,173.990539 L139.128109,169.392317 C139.128109,169.177684 139.304102,169.002021 139.519138,169.002021 L150.785685,169.002021 C151.00072,169.002021 151.176713,169.177684 151.176713,169.392317 L151.176713,173.990539 C151.176713,174.205172 151.00072,174.380635 150.785685,174.380635" id="Fill-96" fill="#F47D7D"></path>
                    <path d="M123.763992,159.634691 L122.77691,159.634691 C120.556076,159.634691 118.755703,161.431492 118.755703,163.648167 L118.755703,167.787746" id="Stroke-98" stroke="#56768C" stroke-width="1.6"></path>
                    <path d="M119.119742,176.363472 L118.391744,176.363472 C117.76766,176.363472 117.2567,175.853469 117.2567,175.230354 L117.2567,165.632223 C117.2567,165.009108 117.76766,164.499305 118.391744,164.499305 L119.119742,164.499305 C119.744026,164.499305 120.254786,165.009108 120.254786,165.632223 L120.254786,175.230354 C120.254786,175.853469 119.744026,176.363472 119.119742,176.363472" id="Fill-100" fill="#56768C"></path>
                    <path d="M181.060382,202.674057 C173.514513,202.674057 167.397209,208.779905 167.397209,216.311644 C167.397209,218.106048 167.747793,219.817716 168.378885,221.387094 L193.74208,221.387094 C194.372971,219.817716 194.723756,218.106048 194.723756,216.311644 C194.723756,208.779905 188.606452,202.674057 181.060382,202.674057" id="Fill-102" fill="#4C482B"></path>
                    <path d="M281.897429,202.674057 C274.351359,202.674057 268.234055,208.779905 268.234055,216.311644 C268.234055,218.106048 268.58484,219.817716 269.215731,221.387094 L294.578926,221.387094 C295.209818,219.817716 295.560602,218.106048 295.560602,216.311644 C295.560602,208.779905 289.443298,202.674057 281.897429,202.674057" id="Fill-104" fill="#4C482B"></path>
                    <path d="M193.517574,216.311684 C193.517574,223.17874 187.940462,228.745608 181.060322,228.745608 C174.180583,228.745608 168.603271,223.17874 168.603271,216.311684 C168.603271,209.444628 174.180583,203.87776 181.060322,203.87776 C187.940462,203.87776 193.517574,209.444628 193.517574,216.311684" id="Fill-106" fill="#312F1A"></path>
                    <path d="M188.44992,216.311684 C188.44992,220.385114 185.141695,223.687344 181.060422,223.687344 C176.97935,223.687344 173.671125,220.385114 173.671125,216.311684 C173.671125,212.238254 176.97935,208.936024 181.060422,208.936024 C185.141695,208.936024 188.44992,212.238254 188.44992,216.311684" id="Fill-108" fill="#312F1A"></path>
                    <path d="M188.44992,216.311684 C188.44992,220.385114 185.141695,223.687344 181.060422,223.687344 C176.97935,223.687344 173.671125,220.385114 173.671125,216.311684 C173.671125,212.238254 176.97935,208.936024 181.060422,208.936024 C185.141695,208.936024 188.44992,212.238254 188.44992,216.311684 Z" id="Stroke-110" stroke="#ABACAE"></path>
                    <path d="M182.041337,212.009952 L183.439269,210.659003 C184.574313,209.562456 186.381293,210.872837 185.686933,212.288935 L184.831996,214.033577 C184.497429,214.715846 184.765523,215.540005 185.43806,215.895728 L187.157344,216.80542 C188.552873,217.544045 187.862917,219.664195 186.298803,219.442767 L184.372292,219.17018 C183.618666,219.063463 182.916296,219.572866 182.785152,220.321084 L182.449585,222.234195 C182.177286,223.787386 179.943639,223.787386 179.67134,222.234195 L179.335772,220.321084 C179.204629,219.572866 178.502259,219.063463 177.748833,219.17018 L175.822122,219.442767 C174.258008,219.664195 173.567851,217.544045 174.963581,216.80542 L176.682865,215.895728 C177.355202,215.540005 177.623696,214.715846 177.289129,214.033577 L176.433992,212.288935 C175.739631,210.872837 177.546612,209.562456 178.681656,210.659003 L180.079587,212.009952 C180.626387,212.538341 181.494738,212.538341 182.041337,212.009952" id="Fill-112" fill="#ABACAE"></path>
                    <path d="M294.35464,216.311684 C294.35464,223.17874 288.777328,228.745608 281.897389,228.745608 C275.017449,228.745608 269.439937,223.17874 269.439937,216.311684 C269.439937,209.444628 275.017449,203.87776 281.897389,203.87776 C288.777328,203.87776 294.35464,209.444628 294.35464,216.311684" id="Fill-114" fill="#312F1A"></path>
                    <path d="M289.286787,216.311684 C289.286787,220.385114 285.978561,223.687344 281.897489,223.687344 C277.816216,223.687344 274.507991,220.385114 274.507991,216.311684 C274.507991,212.238254 277.816216,208.936024 281.897489,208.936024 C285.978561,208.936024 289.286787,212.238254 289.286787,216.311684" id="Fill-116" fill="#312F1A"></path>
                    <path d="M289.286787,216.311684 C289.286787,220.385114 285.978561,223.687344 281.897489,223.687344 C277.816216,223.687344 274.507991,220.385114 274.507991,216.311684 C274.507991,212.238254 277.816216,208.936024 281.897489,208.936024 C285.978561,208.936024 289.286787,212.238254 289.286787,216.311684 Z" id="Stroke-118" stroke="#ABACAE"></path>
                    <path d="M282.878183,212.009952 L284.276115,210.659003 C285.411159,209.562456 287.21814,210.872837 286.523979,212.288935 L285.668842,214.033577 C285.334275,214.715846 285.602369,215.540005 286.274906,215.895728 L287.99419,216.80542 C289.389719,217.544045 288.699763,219.664195 287.135649,219.442767 L285.209138,219.17018 C284.455512,219.063463 283.753142,219.572866 283.621999,220.321084 L283.286431,222.234195 C283.014132,223.787386 280.780485,223.787386 280.508186,222.234195 L280.172618,220.321084 C280.041475,219.572866 279.339105,219.063463 278.585679,219.17018 L276.658968,219.442767 C275.094854,219.664195 274.404898,217.544045 275.800427,216.80542 L277.519711,215.895728 C278.192248,215.540005 278.460542,214.715846 278.125976,214.033577 L277.270638,212.288935 C276.576478,210.872837 278.383458,209.562456 279.518502,210.659003 L280.916434,212.009952 C281.463233,212.538341 282.331584,212.538341 282.878183,212.009952" id="Fill-120" fill="#ABACAE"></path>
                    <path d="M26.0361728,228.745568 L11.2121273,228.745568 C10.5878431,228.745568 10.0770834,228.235765 10.0770834,227.61265 L10.0770834,225.799461 C10.0770834,225.176345 10.5878431,224.666342 11.2121273,224.666342 L26.0361728,224.666342 C26.6604569,224.666342 27.1712167,225.176345 27.1712167,225.799461 L27.1712167,227.61265 C27.1712167,228.235765 26.6604569,228.745568 26.0361728,228.745568" id="Fill-122" fill="#56768C"></path>
                    <path d="M19.7947729,226.705935 L17.4536072,226.705935 C16.8291229,226.705935 16.3183631,226.196132 16.3183631,225.573017 L16.3183631,141.038802 C16.3183631,140.415687 16.8291229,139.905884 17.4536072,139.905884 L19.7947729,139.905884 C20.419057,139.905884 20.9298168,140.415687 20.9298168,141.038802 L20.9298168,225.573017 C20.9298168,226.196132 20.419057,226.705935 19.7947729,226.705935" id="Fill-124" fill="#56768C"></path>
                    <path d="M27.1238047,166.564458 L10.1245754,166.564458 C8.09775425,166.564458 6.43933681,164.909346 6.43933681,162.88632 L6.43933681,135.153102 C6.43933681,133.130077 8.09775425,131.474965 10.1245754,131.474965 L27.1238047,131.474965 C29.1506259,131.474965 30.8090433,133.130077 30.8090433,135.153102 L30.8090433,162.88632 C30.8090433,164.909346 29.1506259,166.564458 27.1238047,166.564458" id="Fill-126" fill="#FFFFFF"></path>
                    <path d="M27.1238047,166.564458 L10.1245754,166.564458 C8.09775425,166.564458 6.43933681,164.909346 6.43933681,162.88632 L6.43933681,135.153102 C6.43933681,133.130077 8.09775425,131.474965 10.1245754,131.474965 L27.1238047,131.474965 C29.1506259,131.474965 30.8090433,133.130077 30.8090433,135.153102 L30.8090433,162.88632 C30.8090433,164.909346 29.1506259,166.564458 27.1238047,166.564458 Z" id="Stroke-128" stroke="#56768C" stroke-width="1.6"></path>
                    <path d="M25.615712,139.905904 L11.2121273,139.905904 C10.5878431,139.905904 10.0770834,139.395901 10.0770834,138.772786 L10.0770834,138.260784 C10.0770834,137.637469 10.5878431,137.127866 11.2121273,137.127866 L25.615712,137.127866 C26.2399962,137.127866 26.7507559,137.637469 26.7507559,138.260784 L26.7507559,138.772786 C26.7507559,139.395901 26.2399962,139.905904 25.615712,139.905904" id="Fill-130" fill="#909CA3"></path>
                    <path d="M25.615712,146.982617 L11.2121273,146.982617 C10.5878431,146.982617 10.0770834,146.472813 10.0770834,145.849698 L10.0770834,145.337697 C10.0770834,144.714382 10.5878431,144.204778 11.2121273,144.204778 L25.615712,144.204778 C26.2399962,144.204778 26.7507559,144.714382 26.7507559,145.337697 L26.7507559,145.849698 C26.7507559,146.472813 26.2399962,146.982617 25.615712,146.982617" id="Fill-132" fill="#909CA3"></path>
                    <path d="M25.615712,153.425862 L11.2121273,153.425862 C10.5878431,153.425862 10.0770834,152.915859 10.0770834,152.292744 L10.0770834,151.780943 C10.0770834,151.157628 10.5878431,150.647824 11.2121273,150.647824 L25.615712,150.647824 C26.2399962,150.647824 26.7507559,151.157628 26.7507559,151.780943 L26.7507559,152.292744 C26.7507559,152.915859 26.2399962,153.425862 25.615712,153.425862" id="Fill-134" fill="#909CA3"></path>
                    <path d="M25.615712,160.396997 L11.2121273,160.396997 C10.5878431,160.396997 10.0770834,159.887194 10.0770834,159.264079 L10.0770834,158.752078 C10.0770834,158.128763 10.5878431,157.619159 11.2121273,157.619159 L25.615712,157.619159 C26.2399962,157.619159 26.7507559,158.128763 26.7507559,158.752078 L26.7507559,159.264079 C26.7507559,159.887194 26.2399962,160.396997 25.615712,160.396997" id="Fill-136" fill="#909CA3"></path>
                    <path d="M42.8768083,227.031462 L43.5327271,230.874071 L45.5289147,230.902449 L45.6144084,230.020136 C45.6144084,230.020136 49.7477381,231.771173 50.7904808,229.741553 C50.8949953,229.538311 50.8777765,229.287906 50.7244084,229.118238 C49.8924967,228.198354 47.8280343,229.420003 46.2703272,228.540088 C44.5708648,227.579835 42.8768083,227.031462 42.8768083,227.031462" id="Fill-138" fill="#606060"></path>
                    <path d="M36.9518552,226.240278 L37.6840576,230.069098 L39.6802452,230.058106 L39.7483198,229.174194 C39.7483198,229.174194 43.9156868,230.843096 44.9179852,228.793091 C45.0182951,228.587851 44.9960708,228.337845 44.8394992,228.171375 C43.9893675,227.268078 41.9493319,228.530295 40.3748064,227.681356 C38.6565233,226.754877 36.9518552,226.240278 36.9518552,226.240278" id="Fill-140" fill="#606060"></path>
                    <path d="M37.9456242,204.115695 C37.9456242,204.115695 35.7870587,226.37817 36.650605,228.245317 C37.5139512,230.112664 41.9748398,228.101629 41.9748398,228.101629 L40.5358629,203.68483 L37.9456242,204.115695 Z" id="Fill-142" fill="#F29F86"></path>
                    <path d="M46.0039553,203.828419 C46.0039553,203.828419 48.4502361,227.814353 47.7308478,228.245417 C47.0112592,228.676282 42.6943283,229.681699 42.1186975,229.394523 C41.5430666,229.107147 39.6724166,203.253866 40.6797205,203.110178 C41.6870244,202.966689 46.0039553,203.828419 46.0039553,203.828419" id="Fill-144" fill="#ED9877"></path>
                    <path d="M38.4351207,185.738017 C37.0467992,186.898913 36.2573341,188.623771 36.1558228,190.428567 C35.9245694,194.543764 35.4754772,204.287381 36.2669446,206.394142 C36.8505842,207.947933 38.5592567,208.772091 39.8971229,209.190566 C41.0700082,209.55768 42.3279868,209.567073 43.507079,209.220742 C45.0549753,208.765696 47.0587713,207.769272 47.3757186,205.633734 C47.9401371,201.831293 49.3510834,193.381668 43.9894076,186.269803 C41.7319336,184.016556 39.801418,184.595506 38.4351207,185.738017" id="Fill-146" fill="#C2D6C1"></path>
                    <path d="M43.2761659,189.122683 C43.757093,189.602709 44.9528033,192.533229 45.5955077,194.165758 C45.7839142,194.644586 46.238212,194.961339 46.7531764,194.977127 C47.4705625,194.99871 48.2966679,195.055666 49.236698,195.146395 C52.7323289,195.483533 53.7370299,193.55983 54.2652087,194.709935 C54.7096958,195.678181 52.1843283,198.004771 48.6722795,198.004771 C46.0063579,198.004771 44.1883656,197.499164 43.4657737,196.789916 C41.6517858,195.688973 39.5841199,191.248828 39.5841199,191.248828 C38.5427787,189.406262 42.5187359,188.366871 43.2761659,189.122683" id="Fill-148" fill="#91AF90"></path>
                    <path d="M41.5726391,182.871887 C41.5726391,182.871887 41.4725293,185.018417 41.6226939,185.317984 C41.7728585,185.617351 39.972085,185.517628 39.972085,185.517628 C39.972085,185.517628 40.4722331,183.520782 40.3222688,183.071532 C41.3726199,182.722004 41.5726391,182.871887 41.5726391,182.871887" id="Fill-150" fill="#F9DFCD"></path>
                    <path d="M44.1665016,177.944462 C44.800997,180.977701 43.5117841,183.812295 41.286946,184.276134 C39.0621078,184.739774 36.7441676,182.656795 36.1096722,179.623555 C35.4751769,176.590515 36.7643897,173.755722 38.9892279,173.292082 C41.2140661,172.828243 43.5320063,174.911222 44.1665016,177.944462" id="Fill-152" fill="#FFF0E3"></path>
                    <path d="M44.3640782,176.274481 C44.3640782,176.274481 42.9273036,172.225033 38.7012724,172.984242 C34.4752411,173.743651 33.9682855,180.492399 35.7430304,182.348555 C37.5179756,184.20451 38.9547501,183.276432 38.9547501,182.685892 C38.9547501,182.095352 40.8143881,181.083139 41.2368511,178.973981 C41.6595143,176.864822 44.195093,178.045903 44.2795856,177.624231 C44.3640782,177.202359 44.3640782,176.527485 44.3640782,176.527485 L44.3640782,176.274481 Z" id="Fill-154" fill="#3F464C"></path>
                    <mask id="mask-20" fill="white">
                        <use xlink:href="#path-19"></use>
                    </mask>
                    <g id="Clip-157"></g>
                    <polygon id="Fill-156" fill="#FEFCFF" mask="url(#mask-20)" points="70.9639687 183.44724 91.7813823 183.44724 91.7813823 155.21501 70.9639687 155.21501"></polygon>
                    <path d="M88.6376972,181.778978 L74.107774,181.778978 C73.5825985,181.778978 73.156932,181.354108 73.156932,180.829916 L73.156932,158.215915 C73.156932,157.691723 73.5825985,157.266853 74.107774,157.266853 L88.6376972,157.266853 C89.1628727,157.266853 89.5885392,157.691723 89.5885392,158.215915 L89.5885392,180.829916 C89.5885392,181.354108 89.1628727,181.778978 88.6376972,181.778978 Z" id="Stroke-158" stroke="#56768C" stroke-width="0.8" mask="url(#mask-20)"></path>
                    <path d="M85.933754,162.5787 L76.4227309,162.5787 C76.1216009,162.5787 75.8775335,162.335089 75.8775335,162.034723 L75.8775335,160.85584 C75.8775335,160.555474 76.1216009,160.311664 76.4227309,160.311664 L85.933754,160.311664 C86.2346838,160.311664 86.4789515,160.555474 86.4789515,160.85584 L86.4789515,162.034723 C86.4789515,162.335089 86.2346838,162.5787 85.933754,162.5787" id="Fill-159" fill="#56768C" mask="url(#mask-20)"></path>
                    <polygon id="Fill-160" fill="#E0AE80" mask="url(#mask-20)" points="230.235713 29.2734191 353.666179 29.2734191 353.666179 19.6063421 230.235713 19.6063421"></polygon>
                    <polygon id="Fill-161" fill="#FFFFFF" mask="url(#mask-20)" points="243.494443 92.4296703 320.875444 92.4296703 320.875444 90.8762792 243.494443 90.8762792"></polygon>
                    <polygon id="Fill-162" fill="#FFFFFF" mask="url(#mask-20)" points="243.494443 101.69506 320.875444 101.69506 320.875444 100.141669 243.494443 100.141669"></polygon>
                    <polygon id="Fill-163" fill="#FFFFFF" mask="url(#mask-20)" points="243.494443 110.960449 320.875444 110.960449 320.875444 109.407058 243.494443 109.407058"></polygon>
                    <polygon id="Fill-164" fill="#FFFFFF" mask="url(#mask-20)" points="243.494443 120.225839 320.875444 120.225839 320.875444 118.672448 243.494443 118.672448"></polygon>
                    <polygon id="Fill-165" fill="#FFFFFF" mask="url(#mask-20)" points="243.494443 129.491229 320.875444 129.491229 320.875444 127.937837 243.494443 127.937837"></polygon>
                    <polygon id="Fill-166" fill="#FFFFFF" mask="url(#mask-20)" points="243.494443 138.756618 320.875444 138.756618 320.875444 137.203227 243.494443 137.203227"></polygon>
                    <polygon id="Fill-167" fill="#FFFFFF" mask="url(#mask-20)" points="243.494443 37.7837963 320.875444 37.7837963 320.875444 36.2304051 243.494443 36.2304051"></polygon>
                    <polygon id="Fill-168" fill="#FFFFFF" mask="url(#mask-20)" points="243.494443 47.0491858 320.875444 47.0491858 320.875444 45.4957947 243.494443 45.4957947"></polygon>
                    <polygon id="Fill-169" fill="#FFFFFF" mask="url(#mask-20)" points="243.494443 56.3145754 320.875444 56.3145754 320.875444 54.7611843 243.494443 54.7611843"></polygon>
                    <polygon id="Fill-170" fill="#FFFFFF" mask="url(#mask-20)" points="243.494443 65.579965 320.875444 65.579965 320.875444 64.0265739 243.494443 64.0265739"></polygon>
                    <polygon id="Fill-171" fill="#FFFFFF" mask="url(#mask-20)" points="243.494443 74.8453546 320.875444 74.8453546 320.875444 73.2919635 243.494443 73.2919635"></polygon>
                    <polygon id="Fill-172" fill="#FFFFFF" mask="url(#mask-20)" points="243.494443 84.110944 320.875444 84.110944 320.875444 82.5575529 243.494443 82.5575529"></polygon>
                </g>
            </g>
        </g>
    </g>
</svg>