<?xml version="1.0" encoding="UTF-8"?>
<svg width="21px" height="59px" viewBox="0 0 21 59" version="1.1" xmlns="http://www.w3.org/2000/svg" xmlns:xlink="http://www.w3.org/1999/xlink">
    <!-- Generator: Sketch 52.6 (67491) - http://www.bohemiancoding.com/sketch -->
    <title>分组 3</title>
    <desc>Created with Sketch.</desc>
    <g id="图示" stroke="none" stroke-width="1" fill="none" fill-rule="evenodd">
        <g id="交通工具" transform="translate(-631.000000, -801.000000)">
            <g id="分组-3" transform="translate(631.000000, 801.000000)">
                <path d="M8.87680828,55.0894167 L9.5327271,58.9320264 L11.5289147,58.9604043 L11.6144084,58.0780909 C11.6144084,58.0780909 15.7477381,59.8291282 16.7904808,57.7995077 C16.8949953,57.5962659 16.8777765,57.3458607 16.7244084,57.1761928 C15.8924967,56.2563086 13.8280343,57.4779579 12.2703272,56.5980427 C10.5708648,55.63779 8.87680828,55.0894167 8.87680828,55.0894167" id="Fill-138" fill="#606060"></path>
                <path d="M2.95185518,54.2982324 L3.6840576,58.1270528 L5.6802452,58.1160614 L5.7483198,57.2321492 C5.7483198,57.2321492 9.91568678,58.9010505 10.9179852,56.8510458 C11.0182951,56.6458055 10.9960708,56.3958001 10.8394992,56.2293296 C9.98936753,55.3260326 7.94933187,56.5882503 6.37480636,55.739311 C4.65652331,54.812832 2.95185518,54.2982324 2.95185518,54.2982324" id="Fill-140" fill="#606060"></path>
                <path d="M3.94562425,32.17365 C3.94562425,32.17365 1.78705869,54.4361251 2.65060505,56.3032721 C3.51395118,58.1706189 7.97483982,56.1595839 7.97483982,56.1595839 L6.53586286,31.7427853 L3.94562425,32.17365 Z" id="Fill-142" fill="#F29F86"></path>
                <path d="M12.0039553,31.8863736 C12.0039553,31.8863736 14.4502361,55.8723075 13.7308478,56.303372 C13.0112592,56.7342367 8.6943283,57.7396543 8.11869748,57.4524778 C7.54306665,57.1651014 5.67241662,31.3118207 6.67972052,31.1681325 C7.68702441,31.0246442 12.0039553,31.8863736 12.0039553,31.8863736" id="Fill-144" fill="#ED9877"></path>
                <path d="M4.43512068,13.7959717 C3.04679923,14.9568683 2.25733406,16.681726 2.15582282,18.4865215 C1.92456939,22.601719 1.47547724,32.3453364 2.2669446,34.4520969 C2.8505842,36.0058877 4.55925672,36.8300463 5.89712287,37.2485207 C7.07000823,37.615635 8.32798683,37.6250277 9.50707899,37.2786972 C11.0549753,36.8236513 13.0587713,35.8272267 13.3757186,33.6916886 C13.9401371,29.8892477 15.3510834,21.4396233 9.98940757,14.3277579 C7.73193363,12.0745114 5.80141799,12.6534608 4.43512068,13.7959717" id="Fill-146" fill="#C2D6C1"></path>
                <path d="M9.27616594,17.1806377 C9.75709298,17.6606642 10.9528033,20.5911836 11.5955077,22.2237131 C11.7839142,22.7025405 12.238212,23.019294 12.7531764,23.0350817 C13.4705625,23.0566649 14.2966679,23.1136206 15.236698,23.20435 C18.7323289,23.5414876 19.7370299,21.6177847 20.2652087,22.7678897 C20.7096958,23.7361362 18.1843283,26.0627256 14.6722795,26.0627256 C12.0063579,26.0627256 10.1883656,25.5571191 9.46577372,24.847871 C7.65178579,23.7469278 5.58411986,19.3067831 5.58411986,19.3067831 C4.54277866,17.464217 8.51873587,16.4248259 9.27616594,17.1806377" id="Fill-148" fill="#91AF90"></path>
                <path d="M7.57263906,10.9298421 C7.57263906,10.9298421 7.47252935,13.0763717 7.62269391,13.3759386 C7.77285848,13.6753056 5.97208502,13.5755832 5.97208502,13.5755832 C5.97208502,13.5755832 6.47223313,11.5787372 6.32226879,11.1294868 C7.37261986,10.7799588 7.57263906,10.9298421 7.57263906,10.9298421" id="Fill-150" fill="#F9DFCD"></path>
                <path d="M10.1665016,6.00241672 C10.800997,9.03565622 9.51178415,11.8702503 7.28694597,12.3340893 C5.06210779,12.7977285 2.74416758,10.7147495 2.10967224,7.68151003 C1.47517691,4.64847037 2.76438974,1.81367644 4.98922792,1.35003725 C7.2140661,0.886198212 9.53200631,2.96917722 10.1665016,6.00241672" id="Fill-152" fill="#FFF0E3"></path>
                <path d="M10.3640782,4.33243631 C10.3640782,4.33243631 8.92730362,0.282987636 4.70127235,1.04219681 C0.475241086,1.80160583 -0.0317144816,8.55035389 1.74303044,10.4065094 C3.51797559,12.2624651 4.95475014,11.3343873 4.95475014,10.7438469 C4.95475014,10.1533065 6.8143881,9.14109417 7.23685107,7.03193554 C7.65951426,4.92277691 10.195093,6.10385778 10.2795856,5.68218593 C10.3640782,5.26031423 10.3640782,4.58543942 10.3640782,4.58543942 L10.3640782,4.33243631 Z" id="Fill-154" fill="#3F464C"></path>
            </g>
        </g>
    </g>
</svg>