<?xml version="1.0" encoding="UTF-8"?>
<svg width="101px" height="48px" viewBox="0 0 101 48" version="1.1" xmlns="http://www.w3.org/2000/svg" xmlns:xlink="http://www.w3.org/1999/xlink">
    <!-- Generator: Sketch 52.6 (67491) - http://www.bohemiancoding.com/sketch -->
    <title>分组 9</title>
    <desc>Created with Sketch.</desc>
    <g id="图示" stroke="none" stroke-width="1" fill="none" fill-rule="evenodd">
        <g id="交通工具" transform="translate(-551.000000, -63.000000)">
            <g id="分组-9" transform="translate(551.000000, 63.000000)">
                <polygon id="Fill-269" fill="#343635" points="85.87724 3.55516 84.27864 2.03116 81.57504 2.03116 68.33884 2.03116 68.33884 0.10196 66.47284 0.10196 66.47284 17.98016 68.33884 17.98016 68.33884 3.89696 83.53184 3.89696 98.30624 17.97796 100.00544 19.59816 100.73984 20.29836 100.95204 20.07596 100.95204 17.92396"></polygon>
                <path d="M62.66962,4.45634 L62.66962,17.92814 L65.23222,17.93854 L65.85242,17.94194 L66.47182,17.94454 L66.47182,4.45634 L62.66962,4.45634 Z M42.14402,4.45634 L35.42702,11.41554 L33.68742,13.21794 L29.27422,17.79074 L34.63582,17.81214 L35.02402,17.81394 L35.42702,17.29934 L45.47542,4.45634 L42.14402,4.45634 Z" id="Fill-270" fill="#D52319"></path>
                <polygon id="Fill-271" fill="#EB4C25" points="66.47178 2.03124 66.47178 4.45624 42.14398 4.45624 44.48418 2.03124"></polygon>
                <path d="M100.95206,19.59736 L100.95206,31.38976 L85.33346,31.40096 L84.58526,31.40096 L81.26566,31.40356 L75.63806,31.40696 C75.63806,31.40696 75.63726,31.40596 75.63646,31.40696 L71.49226,31.41036 L66.47186,31.41376 L65.85246,31.41376 L65.23206,31.41456 L62.54426,31.41636 L61.79786,31.41716 L38.10386,31.43356 L37.36426,31.43356 L34.05846,31.43616 L28.56046,31.44036 L24.05306,31.44296 L18.55506,31.44736 L15.24766,31.44896 L14.51226,31.44996 L3.37346,31.45756 L3.37346,20.10596 C3.82206,19.94876 4.37886,19.80356 5.01786,19.66516 L65.23206,19.62236 L65.85246,19.62236 L66.47186,19.62136 L100.00546,19.59816 L100.95206,19.59736 Z" id="Fill-272" fill="#C4231B"></path>
                <polygon id="Fill-273" fill="#2E2A2B" points="100.95186 35.9082 100.95186 38.2226 3.37346 38.2908 1.58066 35.9762"></polygon>
                <polygon id="Fill-274" fill="#343635" points="100.95186 31.38984 100.95186 35.90824 1.58066 35.97624 0.72826 34.87544 0.72826 31.45784"></polygon>
                <polygon id="Fill-275" fill="#C9DFDD" points="48.3081 17.94794 55.0715 18.00414 58.9351 4.45594 52.1567 4.45594"></polygon>
                <polygon id="Fill-276" fill="#8FC0BD" points="58.93506 4.45586 55.07166 18.00426 62.66986 18.06706 62.66986 4.45586"></polygon>
                <polygon id="Fill-277" fill="#8FC0BD" points="35.00616 17.83886 48.30816 17.94786 52.15676 4.45586 45.47616 4.45586"></polygon>
                <path d="M5.51806,23.97764 C4.35666,25.79804 3.98466,27.63704 4.68746,28.08544 C5.38986,28.53364 6.90106,27.42144 8.06246,25.60104 C9.22386,23.78064 9.59586,21.94144 8.89326,21.49324 C8.19066,21.04484 6.67966,22.15724 5.51806,23.97764" id="Fill-278" fill="#F3F4F6"></path>
                <path d="M100.95206,17.96942 L100.95206,19.59742 L100.00546,19.59822 L66.47186,19.62142 L65.85246,19.62222 L65.23206,19.62222 L5.01786,19.66522 C12.04926,18.16102 29.27426,17.79082 29.27426,17.79082 L34.63586,17.81222 L35.02406,17.81402 L34.93206,17.93242 L34.87206,18.00902 L34.78526,18.12142 L62.66966,18.12142 L62.66966,17.92822 L65.23206,17.93842 L65.85246,17.94202 L66.47186,17.94442 L68.62126,17.95302 L68.62226,17.95302 L71.15706,17.96342 L71.17186,17.96342 L77.93606,17.99082 L81.73486,18.00642 L85.03806,18.02002 L86.79386,18.02702 L86.80666,18.12142 L86.79466,18.02702 L88.11506,18.03202 L98.30626,17.97802 L100.33266,17.96762 L100.95206,17.96942 Z" id="Fill-279" fill="#EB4C25"></path>
                <polygon id="Fill-280" fill="#EB4C25" points="34.78466 18.12158 62.66986 18.12158 62.66986 18.06698 35.00606 17.83878"></polygon>
                <polygon id="Fill-281" fill="#8D1F22" points="65.8524 31.4292 66.4718 31.4292 66.4718 2.0312 65.8524 2.0312"></polygon>
                <polygon id="Fill-282" fill="#EB4C25" points="65.2324 31.4292 65.8524 31.4292 65.8524 2.0312 65.2324 2.0312"></polygon>
                <polygon id="Fill-283" fill="#8D1F22" points="35.4268 31.4292 36.0468 31.4292 36.0468 19.6948 35.4268 19.6948"></polygon>
                <polygon id="Fill-284" fill="#EB4C25" points="34.8068 31.4292 35.427 31.4292 35.427 19.6948 34.8068 19.6948"></polygon>
                <polygon id="Fill-285" fill="#8D1F22" points="34.11 28.9372 65.2322 28.9372 65.2322 28.391 34.11 28.391"></polygon>
                <polygon id="Fill-286" fill="#EB4C25" points="34.11 28.3908 65.2322 28.3908 65.2322 27.8446 34.11 27.8446"></polygon>
                <polygon id="Fill-287" fill="#8D1F22" points="100.95186 28.32314 100.95186 28.86894 66.47266 28.93694 66.47266 28.39114"></polygon>
                <polygon id="Fill-288" fill="#EB4C25" points="100.95186 27.77636 100.95186 28.32316 66.47266 28.39116 66.47266 27.84436"></polygon>
                <path d="M39.31884,37.67558 C39.29004,38.19438 39.23244,38.70478 39.14604,39.20478 L13.47584,39.20478 C13.38964,38.69958 13.33024,38.18598 13.30304,37.66198 C13.64884,30.77698 19.34024,25.30258 26.31004,25.30258 C33.28664,25.30258 38.98144,30.78378 39.31884,37.67558" id="Fill-289" fill="#D52319"></path>
                <path d="M36.38584,37.87646 C36.38584,43.44066 31.87504,47.95126 26.31104,47.95126 C20.74684,47.95126 16.23624,43.44066 16.23624,37.87646 C16.23624,32.31226 20.74684,27.80166 26.31104,27.80166 C31.87504,27.80166 36.38584,32.31226 36.38584,37.87646" id="Fill-290" fill="#1F1C23"></path>
                <path d="M33.12784,37.87676 C33.12784,38.05096 33.12164,38.22396 33.10784,38.39496 C32.84004,34.87496 29.89964,32.10236 26.31084,32.10236 C22.72304,32.10236 19.78164,34.87496 19.51364,38.39496 C19.50004,38.22396 19.49384,38.05096 19.49384,37.87676 C19.49384,34.11156 22.54684,31.05976 26.31084,31.05976 C30.07584,31.05976 33.12784,34.11156 33.12784,37.87676" id="Fill-291" fill="#DBDBDB"></path>
                <path d="M33.10792,38.39502 L33.10792,38.40122 C32.83992,41.92022 29.89972,44.69282 26.31092,44.69282 C22.72292,44.69282 19.78152,41.92022 19.51352,38.40122 L19.51352,38.39502 C19.78152,34.87482 22.72292,32.10242 26.31092,32.10242 C29.89972,32.10242 32.83992,34.87482 33.10792,38.39502" id="Fill-292" fill="#F3F4F6"></path>
                <path d="M29.71924,37.87676 C29.71924,38.05396 29.70584,38.22816 29.67964,38.39816 C29.42944,36.76316 28.01644,35.51096 26.31084,35.51096 C24.60604,35.51096 23.19324,36.76316 22.94184,38.39816 C22.91564,38.22816 22.90224,38.05396 22.90224,37.87676 C22.90224,35.99376 24.42884,34.46836 26.31084,34.46836 C28.19384,34.46836 29.71924,35.99376 29.71924,37.87676" id="Fill-293" fill="#72727C"></path>
                <path d="M29.67958,38.39814 C29.42938,40.03294 28.01658,41.28534 26.31078,41.28534 C24.60598,41.28534 23.19318,40.03294 22.94198,38.39814 C23.19318,36.76314 24.60598,35.51094 26.31078,35.51094 C28.01658,35.51094 29.42938,36.76314 29.67958,38.39814" id="Fill-294" fill="#8E8E9A"></path>
                <path d="M86.596,36.9995 C86.596,37.2351 86.5892,37.4707 86.5774,37.7031 C86.24,30.8113 80.5452,25.3301 73.5686,25.3301 C66.5988,25.3301 60.9074,30.8045 60.5614,37.6895 C60.5498,37.4605 60.5428,37.2317 60.5428,36.9995 C60.5428,36.8571 60.5444,36.7163 60.5512,36.5755 C60.7734,29.5769 66.5174,23.9737 73.5686,23.9737 C80.6214,23.9737 86.3656,29.5769 86.5876,36.5755 C86.5942,36.7163 86.596,36.8571 86.596,36.9995" id="Fill-295" fill="#EB4C25"></path>
                <path d="M86.57744,37.70302 C86.54844,38.22182 86.49084,38.73222 86.40444,39.23222 L60.73444,39.23222 C60.64804,38.72702 60.58864,38.21342 60.56144,37.68942 C60.90724,30.80442 66.59864,25.33002 73.56864,25.33002 C80.54524,25.33002 86.24004,30.81122 86.57744,37.70302" id="Fill-296" fill="#D52319"></path>
                <path d="M83.64424,37.904 C83.64424,43.468 79.13344,47.9788 73.56944,47.9788 C68.00524,47.9788 63.49464,43.468 63.49464,37.904 C63.49464,32.3398 68.00524,27.8292 73.56944,27.8292 C79.13344,27.8292 83.64424,32.3398 83.64424,37.904" id="Fill-297" fill="#1F1C23"></path>
                <path d="M80.38624,37.9042 C80.38624,38.0784 80.38004,38.2514 80.36624,38.4224 C80.09844,34.9024 77.15804,32.1298 73.56924,32.1298 C69.98144,32.1298 67.04004,34.9024 66.77204,38.4224 C66.75844,38.2514 66.75224,38.0784 66.75224,37.9042 C66.75224,34.1392 69.80524,31.0872 73.56924,31.0872 C77.33424,31.0872 80.38624,34.1392 80.38624,37.9042" id="Fill-298" fill="#DBDBDB"></path>
                <path d="M80.3663,38.42246 L80.3663,38.42866 C80.0983,41.94766 77.1581,44.72026 73.5693,44.72026 C69.9813,44.72026 67.0399,41.94766 66.7719,38.42866 L66.7719,38.42246 C67.0399,34.90226 69.9813,32.12986 73.5693,32.12986 C77.1581,32.12986 80.0983,34.90226 80.3663,38.42246" id="Fill-299" fill="#F3F4F6"></path>
                <path d="M76.97764,37.9042 C76.97764,38.0814 76.96424,38.2556 76.93824,38.4256 C76.68784,36.7906 75.27504,35.5384 73.56924,35.5384 C71.86444,35.5384 70.45164,36.7906 70.20024,38.4256 C70.17424,38.2556 70.16064,38.0814 70.16064,37.9042 C70.16064,36.0212 71.68724,34.4958 73.56924,34.4958 C75.45224,34.4958 76.97764,36.0212 76.97764,37.9042" id="Fill-300" fill="#72727C"></path>
                <path d="M76.93818,38.42558 C76.68778,40.06058 75.27518,41.31278 73.56918,41.31278 C71.86438,41.31278 70.45158,40.06058 70.20038,38.42558 C70.45158,36.79058 71.86438,35.53838 73.56918,35.53838 C75.27518,35.53838 76.68778,36.79058 76.93818,38.42558" id="Fill-301" fill="#8E8E9A"></path>
                <path d="M39.3372,36.97148 C39.3372,37.20788 39.3304,37.44308 39.3192,37.67588 C39.2992,37.25588 39.2578,36.84168 39.1984,36.43288 C39.1938,36.40588 39.1904,36.37788 39.1858,36.35088 C39.1748,36.27588 39.1624,36.20088 39.149,36.12588 C39.1154,35.91868 39.075,35.71488 39.0302,35.51108 C39.0224,35.47728 39.0158,35.44488 39.008,35.41128 C38.992,35.34068 38.9752,35.27128 38.9576,35.20068 C38.9452,35.14808 38.9318,35.09648 38.917,35.04388 C38.8982,34.96548 38.8768,34.88828 38.8556,34.81088 C38.8376,34.74608 38.8186,34.67988 38.7984,34.61488 C38.786,34.57128 38.7726,34.52648 38.758,34.48288 C38.748,34.44688 38.7368,34.41108 38.7246,34.37528 C38.7078,34.31928 38.6898,34.26328 38.6708,34.20848 C38.6584,34.16928 38.645,34.12988 38.6316,34.09188 C38.6136,34.03928 38.5958,33.98668 38.5766,33.93388 C38.5464,33.85008 38.5162,33.76708 38.4836,33.68428 C38.4534,33.60468 38.4232,33.52528 38.3896,33.44668 C38.3146,33.25748 38.2338,33.07048 38.1478,32.88448 C38.1232,32.82968 38.0974,32.77488 38.0704,32.72108 C38.0492,32.67508 38.0278,32.62928 38.0044,32.58428 C37.9954,32.56428 37.9852,32.54408 37.9742,32.52388 C37.9394,32.45228 37.9036,32.38168 37.8664,32.31228 C37.8576,32.29428 37.8488,32.27528 37.8374,32.25728 C37.8062,32.19468 37.7726,32.13308 37.7378,32.07148 C37.7198,32.03668 37.7008,32.00188 37.6806,31.96728 C37.4914,31.62908 37.2864,31.29968 37.068,30.98048 C37.0108,30.89648 36.9526,30.81368 36.8932,30.73188 C36.8416,30.65788 36.788,30.58628 36.733,30.51448 C36.7118,30.48548 36.6906,30.45628 36.668,30.42728 C36.6344,30.38248 36.6008,30.33868 36.5652,30.29508 C36.5394,30.26028 36.5114,30.22568 36.4832,30.19208 C36.4418,30.13828 36.3994,30.08568 36.3558,30.03408 C36.3456,30.02168 36.3354,30.00948 36.3244,29.99708 C36.2694,29.92988 36.2122,29.86268 36.154,29.79668 C36.1474,29.78768 36.1406,29.77988 36.1328,29.77188 C36.0856,29.71728 36.0364,29.66228 35.9872,29.60848 C35.6546,29.23888 35.3016,28.88828 34.9288,28.56008 C34.8772,28.51428 34.8246,28.46828 34.772,28.42468 C34.7462,28.40228 34.7204,28.37988 34.6946,28.35848 C34.6442,28.31608 34.5938,28.27448 34.5434,28.23308 C34.5254,28.21728 34.5078,28.20288 34.4886,28.18828 C34.4438,28.15128 34.3978,28.11548 34.3518,28.07848 C34.3162,28.05168 34.2802,28.02248 34.2432,27.99568 C34.1952,27.95768 34.1458,27.92068 34.0954,27.88368 C34.0238,27.82888 33.951,27.77608 33.877,27.72348 C33.7426,27.62708 33.606,27.53308 33.467,27.44228 C33.3786,27.38408 33.2902,27.32708 33.1996,27.27108 C33.1368,27.23188 33.073,27.19248 33.009,27.15348 C32.9866,27.13988 32.9642,27.12768 32.9418,27.11308 C32.8814,27.07728 32.8198,27.04248 32.758,27.00668 C32.7458,27.00008 32.7334,26.99208 32.72,26.98528 C32.6552,26.94848 32.5902,26.91268 32.5242,26.87668 C32.4984,26.86228 32.4726,26.84868 32.4468,26.83528 C32.3852,26.80168 32.3226,26.76928 32.2596,26.73788 C32.2506,26.73228 32.2418,26.72788 32.233,26.72448 C32.169,26.68968 32.104,26.65848 32.0392,26.62588 C32.0078,26.61028 31.9752,26.59448 31.9428,26.57988 C31.8824,26.54968 31.8218,26.52168 31.7602,26.49368 C31.4286,26.34028 31.0882,26.20028 30.741,26.07488 C30.6748,26.05128 30.6088,26.02788 30.5426,26.00528 C30.508,25.99308 30.4734,25.98068 30.4386,25.96948 C30.378,25.94948 30.3186,25.93028 30.2582,25.91128 C30.2326,25.90228 30.2056,25.89448 30.1798,25.88668 C30.1228,25.86868 30.0646,25.85088 30.0074,25.83408 C29.9602,25.82068 29.9144,25.80708 29.8674,25.79368 C29.818,25.77908 29.7688,25.76568 29.7196,25.75228 C29.6906,25.74448 29.6602,25.73668 29.63,25.72868 C29.5594,25.70968 29.4878,25.69188 29.416,25.67508 C29.3252,25.65248 29.2346,25.63128 29.1438,25.61108 C28.8672,25.54948 28.5884,25.49688 28.305,25.45428 C28.239,25.44308 28.1728,25.43408 28.1068,25.42528 C28.063,25.41848 28.0204,25.41288 27.9768,25.40848 C27.933,25.40168 27.8894,25.39728 27.8458,25.39268 C27.793,25.38488 27.7406,25.37928 27.6878,25.37488 C27.6318,25.36808 27.5746,25.36248 27.5176,25.35808 C27.4538,25.35128 27.39,25.34568 27.326,25.34128 C27.306,25.33888 27.2868,25.33788 27.2666,25.33668 C27.1838,25.33008 27.1008,25.32568 27.0168,25.32108 C26.9912,25.31988 26.9644,25.31768 26.9374,25.31668 C26.8378,25.31208 26.737,25.30868 26.6362,25.30648 C26.5274,25.30308 26.4188,25.30208 26.3102,25.30208 C26.2014,25.30208 26.0928,25.30308 25.9842,25.30648 C25.8834,25.30868 25.7816,25.31208 25.682,25.31668 C25.6574,25.31768 25.6326,25.31888 25.609,25.32108 C25.5228,25.32568 25.4378,25.33008 25.3526,25.33668 C25.3358,25.33788 25.32,25.33888 25.3044,25.34128 C25.2328,25.34568 25.1622,25.35128 25.0916,25.35908 C25.0434,25.36248 24.9964,25.36708 24.9484,25.37248 C24.8866,25.37928 24.825,25.38608 24.7646,25.39388 C24.7252,25.39728 24.6874,25.40168 24.6494,25.40728 C24.599,25.41288 24.5484,25.41968 24.4992,25.42868 C24.4442,25.43408 24.3906,25.44208 24.3356,25.45088 C23.9526,25.50908 23.5762,25.58428 23.2056,25.67508 C23.1584,25.68628 23.1114,25.69728 23.0656,25.70968 C22.9938,25.72768 22.9234,25.74668 22.8516,25.76688 C22.8494,25.76688 22.8482,25.76688 22.8472,25.76788 C22.7554,25.79248 22.6634,25.81948 22.5728,25.84748 C22.5548,25.85188 22.538,25.85648 22.5212,25.86308 C22.4338,25.88788 22.3476,25.91588 22.2614,25.94488 C22.258,25.94488 22.2546,25.94608 22.2524,25.94708 C22.1628,25.97628 22.0744,26.00648 21.9858,26.03788 C21.9712,26.04228 21.9568,26.04688 21.9432,26.05248 C21.8748,26.07708 21.8066,26.10168 21.7394,26.12748 C21.3486,26.27308 20.9676,26.43768 20.5982,26.61808 C20.5276,26.65268 20.457,26.68748 20.3876,26.72328 C20.3774,26.72888 20.3684,26.73348 20.3584,26.73888 C20.3036,26.76588 20.2488,26.79508 20.1948,26.82528 C20.1434,26.85208 20.0908,26.88008 20.0404,26.90808 C20.0158,26.92148 19.9912,26.93488 19.9674,26.94848 C19.9216,26.97428 19.8756,27.00008 19.831,27.02568 C19.776,27.05708 19.7222,27.08848 19.6684,27.11988 C19.655,27.12888 19.6426,27.13548 19.6304,27.14328 C19.5598,27.18468 19.4904,27.22728 19.4222,27.27108 C19.355,27.31248 19.2888,27.35488 19.2228,27.39748 C19.169,27.43228 19.1152,27.46708 19.0626,27.50408 C18.88,27.62608 18.7008,27.75268 18.526,27.88368 C18.4778,27.91828 18.431,27.95428 18.385,27.99128 C18.3446,28.02028 18.3054,28.05168 18.2664,28.08188 C18.198,28.13568 18.1308,28.19048 18.0636,28.24548 C18.0244,28.27668 17.985,28.30928 17.947,28.34188 C17.9068,28.37548 17.8664,28.41008 17.826,28.44488 C17.7914,28.47388 17.7566,28.50428 17.722,28.53548 C17.6906,28.56248 17.658,28.59048 17.6266,28.61948 C17.583,28.65768 17.5394,28.69788 17.4956,28.73828 C17.2268,28.98568 16.968,29.24448 16.7206,29.51328 C16.6836,29.55248 16.6478,29.59268 16.6132,29.63308 C16.575,29.67348 16.5392,29.71368 16.5044,29.75408 C16.4864,29.77548 16.4674,29.79668 16.4506,29.81688 C16.4014,29.87288 16.3544,29.92888 16.3084,29.98468 C16.2916,30.00388 16.2758,30.02168 16.2614,30.04088 C16.2234,30.08568 16.1874,30.13048 16.1516,30.17528 C16.1102,30.22668 16.0686,30.27828 16.0284,30.33088 C15.9836,30.38808 15.94,30.44508 15.8974,30.50348 C15.858,30.55388 15.82,30.60428 15.7842,30.65568 C15.7552,30.69368 15.7282,30.73188 15.7014,30.76988 C15.5938,30.92008 15.4898,31.07228 15.39,31.22688 C15.334,31.31208 15.2802,31.39708 15.2264,31.48348 C15.1728,31.56968 15.1212,31.65708 15.0696,31.74448 C15.0238,31.82168 14.979,31.90008 14.9352,31.97848 C14.8972,32.04668 14.859,32.11508 14.8234,32.18448 C14.784,32.25628 14.7472,32.32788 14.7102,32.40068 C14.6698,32.47688 14.6318,32.55428 14.5948,32.63248 C14.5588,32.70428 14.5244,32.77708 14.4908,32.84988 C14.465,32.90468 14.4404,32.95948 14.4156,33.01448 C14.345,33.17128 14.2778,33.33028 14.214,33.49168 C14.158,33.62948 14.1054,33.76928 14.055,33.90928 C14.0292,33.98228 14.0034,34.05388 13.9788,34.12668 C13.9722,34.14668 13.9654,34.16708 13.9586,34.18708 C13.9306,34.26888 13.905,34.35168 13.8792,34.43348 C13.851,34.52188 13.8244,34.61048 13.7986,34.70008 C13.7728,34.78848 13.7482,34.87828 13.7246,34.96768 C13.701,35.05508 13.6786,35.14368 13.6562,35.23208 C13.654,35.24328 13.6516,35.25448 13.6484,35.26568 C13.6294,35.34528 13.6114,35.42688 13.5934,35.50768 C13.5924,35.50888 13.5924,35.50988 13.5924,35.51108 C13.5676,35.62088 13.5454,35.73168 13.5242,35.84248 C13.5106,35.90868 13.4984,35.97468 13.4872,36.04068 C13.4828,36.06308 13.4782,36.08668 13.4748,36.10908 C13.4602,36.19428 13.4456,36.27928 13.4332,36.36448 C13.43,36.38688 13.4266,36.41028 13.4234,36.43288 C13.4188,36.46068 13.4156,36.48868 13.412,36.51688 C13.4008,36.58948 13.3918,36.66248 13.383,36.73628 C13.346,37.04088 13.319,37.35008 13.3034,37.66148 C13.2912,37.43288 13.2844,37.20448 13.2844,36.97148 C13.2844,36.82928 13.2866,36.68928 13.2932,36.54808 C13.2944,36.51008 13.2956,36.47088 13.299,36.43288 C13.31,36.12248 13.3336,35.81448 13.3684,35.51108 C13.5442,33.92388 14.0068,32.42308 14.7012,31.06008 C14.8422,30.78228 14.9946,30.51008 15.1548,30.24468 C17.4352,26.47028 21.578,23.94668 26.3102,23.94668 C33.0112,23.94668 38.5296,29.00368 39.2542,35.51108 C39.289,35.81448 39.3126,36.12248 39.3238,36.43288 C39.327,36.47088 39.3282,36.51008 39.3294,36.54808 C39.336,36.68928 39.3372,36.82928 39.3372,36.97148" id="Fill-302" fill="#EB4C25"></path>
                <path d="M68.33876,22.37764 C68.33876,22.51424 68.35976,22.64504 68.39836,22.76944 C68.51276,22.15744 69.05316,21.68984 69.69696,21.68984 L72.61356,21.68984 C72.97676,21.68984 73.30696,21.83844 73.54696,22.07824 C73.69536,22.22684 73.80976,22.41184 73.87496,22.61764 C73.88916,22.53944 73.89696,22.45904 73.89696,22.37764 C73.89696,22.01444 73.74836,21.68424 73.50956,21.44424 C73.26956,21.20564 72.93936,21.05684 72.57616,21.05684 L69.65956,21.05684 C68.93316,21.05684 68.33876,21.65124 68.33876,22.37764" id="Fill-303" fill="#353F44"></path>
                <path d="M68.39834,22.76952 L68.39834,22.77052 C68.46314,22.97632 68.57754,23.16132 68.72634,23.31112 C68.96614,23.54972 69.29634,23.69852 69.65974,23.69852 L72.57614,23.69852 C73.21994,23.69852 73.76054,23.23072 73.87494,22.61872 L73.87494,22.61752 C73.80994,22.41172 73.69534,22.22692 73.54694,22.07832 C73.30694,21.83832 72.97694,21.68992 72.61354,21.68992 L69.69694,21.68992 C69.05314,21.68992 68.51274,22.15752 68.39834,22.76952" id="Fill-304" fill="#3D484C"></path>
                <path d="M58.8706,22.37764 C58.8706,22.51424 58.8914,22.64504 58.9302,22.76944 C59.0446,22.15744 59.5848,21.68984 60.2288,21.68984 L63.1454,21.68984 C63.5084,21.68984 63.8388,21.83844 64.0786,22.07824 C64.2272,22.22684 64.3416,22.41184 64.4068,22.61764 C64.421,22.53944 64.4286,22.45904 64.4286,22.37764 C64.4286,22.01444 64.2802,21.68424 64.0414,21.44424 C63.8012,21.20564 63.4712,21.05684 63.108,21.05684 L60.1914,21.05684 C59.465,21.05684 58.8706,21.65124 58.8706,22.37764" id="Fill-305" fill="#353F44"></path>
                <path d="M58.93018,22.76952 L58.93018,22.77052 C58.99498,22.97632 59.10938,23.16132 59.25818,23.31112 C59.49798,23.54972 59.82818,23.69852 60.19138,23.69852 L63.10798,23.69852 C63.75178,23.69852 64.29238,23.23072 64.40678,22.61872 L64.40678,22.61752 C64.34178,22.41172 64.22718,22.22692 64.07858,22.07832 C63.83878,21.83832 63.50858,21.68992 63.14538,21.68992 L60.22878,21.68992 C59.58478,21.68992 59.04458,22.15752 58.93018,22.76952" id="Fill-306" fill="#3D484C"></path>
                <path d="M33.6876,11.81532 L33.6876,16.26512 C33.6876,17.22132 34.4704,18.00412 35.4268,18.00412 L35.4268,10.07612 C34.9482,10.07612 34.514,10.27152 34.1984,10.58692 C33.883,10.90192 33.6876,11.33672 33.6876,11.81532" id="Fill-307" fill="#4F5150"></path>
            </g>
        </g>
    </g>
</svg>