<?xml version="1.0" encoding="UTF-8"?>
<svg width="109px" height="46px" viewBox="0 0 109 46" version="1.1" xmlns="http://www.w3.org/2000/svg" xmlns:xlink="http://www.w3.org/1999/xlink">
    <!-- Generator: Sketch 52.6 (67491) - http://www.bohemiancoding.com/sketch -->
    <title>分组 12</title>
    <desc>Created with Sketch.</desc>
    <g id="图示" stroke="none" stroke-width="1" fill="none" fill-rule="evenodd">
        <g id="交通工具" transform="translate(-392.000000, -223.000000)">
            <g id="分组-12" transform="translate(392.000000, 223.000000)">
                <path d="M106.33018,27.66816 C107.25558,27.66816 108.01258,26.91116 108.01258,25.98576 L108.01258,19.57676 C108.01258,18.65156 107.25558,17.89436 106.33018,17.89436 C105.40498,17.89436 104.64778,18.65156 104.64778,19.57676 L104.64778,25.98576 C104.64778,26.91116 105.40498,27.66816 106.33018,27.66816" id="Fill-185" fill="#E03217"></path>
                <path d="M95.75534,2.57754 L100.13434,13.47294 L98.65694,15.79294 L105.60114,15.82174 L99.14394,2.57754 L95.75534,2.57754 Z M86.67534,2.57754 L81.76274,2.57754 L83.56534,15.73034 L89.97114,15.75774 L86.67534,2.57754 Z M65.95334,2.57754 L60.18514,2.57754 L60.18514,15.63434 L65.95334,15.65834 L65.95334,2.57754 Z M27.81974,15.50134 L33.39254,15.52374 L43.52194,2.57754 L40.29174,2.57754 L27.81974,15.50134 Z" id="Fill-186" fill="#AF0E13"></path>
                <polygon id="Fill-187" fill="#D11927" points="40.29168 2.57754 99.14408 2.57754 97.99848 0.22714 42.56068 0.22714"></polygon>
                <path d="M2.71726,17.74452 L2.71726,28.74712 L105.90246,28.74712 L106.33026,17.31832 L4.31166,17.31832 C3.69146,17.45132 3.15326,17.59232 2.71726,17.74452" id="Fill-188" fill="#AF0E13"></path>
                <polygon id="Fill-189" fill="#2E2A2B" points="0.98054 33.1262 2.71734 35.3692 105.58194 35.3692 107.82514 33.1262"></polygon>
                <polygon id="Fill-190" fill="#343635" points="0.15378 28.74716 0.15378 32.05896 0.98058 33.12616 107.82518 33.12616 107.82518 28.74716"></polygon>
                <polygon id="Fill-191" fill="#C9DFDD" points="89.38796 13.4248 89.98716 15.8218 95.27476 15.8218 97.68296 7.3748 95.75536 2.5776 92.48196 2.5776"></polygon>
                <polygon id="Fill-192" fill="#8FC0BD" points="97.68292 7.3747 95.27472 15.8217 98.63932 15.8217 100.13432 13.4729"></polygon>
                <polygon id="Fill-193" fill="#8FC0BD" points="86.67526 2.57754 89.38786 13.42474 92.48186 2.57754"></polygon>
                <polygon id="Fill-194" fill="#C9DFDD" points="68.37292 15.82178 74.94512 15.82178 78.72332 2.57758 72.15092 2.57758"></polygon>
                <polygon id="Fill-195" fill="#8FC0BD" points="78.72332 2.57754 74.94512 15.82174 83.57812 15.82174 81.76272 2.57754"></polygon>
                <polygon id="Fill-196" fill="#8FC0BD" points="65.9534 2.57754 65.9534 15.82174 68.373 15.82174 72.1508 2.57754"></polygon>
                <polygon id="Fill-197" fill="#C9DFDD" points="46.26648 15.6535 52.82128 15.7079 56.56588 2.5775 49.99648 2.5775"></polygon>
                <polygon id="Fill-198" fill="#8FC0BD" points="56.5659 2.57754 52.8213 15.70794 60.1853 15.76894 60.1853 2.57754"></polygon>
                <polygon id="Fill-199" fill="#8FC0BD" points="33.37488 15.54784 46.26648 15.65344 49.99648 2.57744 43.52188 2.57744"></polygon>
                <path d="M4.79616,21.49716 C3.67056,23.26136 3.30996,25.04376 3.99116,25.47836 C4.67196,25.91276 6.13656,24.83476 7.26216,23.07056 C8.38776,21.30616 8.74836,19.52376 8.06716,19.08936 C7.38636,18.65496 5.92176,19.73296 4.79616,21.49716" id="Fill-200" fill="#F3F4F6"></path>
                <path d="M4.3116,17.31826 L106.3302,17.31826 L105.601,15.82186 L98.657,15.79306 L98.6394,15.82186 L89.9872,15.82186 L89.9712,15.75766 L83.5654,15.73046 L83.5782,15.82186 L65.9534,15.82186 L65.9534,15.65846 L60.1852,15.63446 L60.1852,15.82186 L33.16,15.82186 L33.3924,15.52366 L27.8198,15.50146 C27.8198,15.50146 11.1258,15.86026 4.3116,17.31826" id="Fill-201" fill="#D11927"></path>
                <polygon id="Fill-202" fill="#D11927" points="33.16004 15.82178 60.18524 15.82178 60.18524 15.76898 33.37484 15.54778"></polygon>
                <polygon id="Fill-203" fill="#9E000C" points="63.2696 28.719 63.8706 28.719 63.8706 2.5776 63.2696 2.5776"></polygon>
                <polygon id="Fill-204" fill="#D11927" points="62.6688 28.719 63.2696 28.719 63.2696 2.5776 62.6688 2.5776"></polygon>
                <polygon id="Fill-205" fill="#9E000C" points="33.7824 28.719 34.3832 28.719 34.3832 17.3466 33.7824 17.3466"></polygon>
                <polygon id="Fill-206" fill="#D11927" points="33.1818 28.719 33.7826 28.719 33.7826 17.3466 33.1818 17.3466"></polygon>
                <polygon id="Fill-207" fill="#9E000C" points="85.4476 28.558 86.0484 28.558 86.0484 2.4448 85.4476 2.4448"></polygon>
                <polygon id="Fill-208" fill="#D11927" points="84.8466 28.558 85.4476 28.558 85.4476 2.4448 84.8466 2.4448"></polygon>
                <polygon id="Fill-209" fill="#9E000C" points="32.5064 26.3038 62.6688 26.3038 62.6688 25.7744 32.5064 25.7744"></polygon>
                <polygon id="Fill-210" fill="#D11927" points="32.5064 25.7744 62.6688 25.7744 62.6688 25.245 32.5064 25.245"></polygon>
                <polygon id="Fill-211" fill="#9E000C" points="63.8706 26.3038 94.033 26.3038 94.033 25.7744 63.8706 25.7744"></polygon>
                <polygon id="Fill-212" fill="#D11927" points="63.8706 25.7744 94.033 25.7744 94.033 25.245 63.8706 25.245"></polygon>
                <path d="M37.55456,34.77268 C37.52656,35.27548 37.47076,35.77008 37.38696,36.25488 L12.50876,36.25488 C12.42496,35.76508 12.36716,35.26728 12.34116,34.75968 C12.67616,28.08688 18.19196,22.78128 24.94696,22.78128 C31.70856,22.78128 37.22756,28.09348 37.55456,34.77268" id="Fill-213" fill="#AF0E13"></path>
                <path d="M100.13428,34.66184 C100.13428,34.89024 100.12788,35.11864 100.11628,35.34364 C99.78908,28.66444 94.27008,23.35224 87.50868,23.35224 C80.75388,23.35224 75.23788,28.65784 74.90268,35.33044 C74.89108,35.10864 74.88468,34.88684 74.88468,34.66184 C74.88468,34.52384 74.88628,34.38744 74.89288,34.25104 C75.10808,27.46824 80.67488,22.03784 87.50868,22.03784 C94.34408,22.03784 99.91088,27.46824 100.12608,34.25104 C100.13268,34.38744 100.13428,34.52384 100.13428,34.66184" id="Fill-214" fill="#D11927"></path>
                <path d="M100.1163,35.34368 C100.0883,35.84648 100.0325,36.34108 99.9485,36.82588 L75.0701,36.82588 C74.9863,36.33608 74.9289,35.83828 74.9027,35.33048 C75.2379,28.65788 80.7537,23.35228 87.5087,23.35228 C94.2699,23.35228 99.7891,28.66448 100.1163,35.34368" id="Fill-215" fill="#AF0E13"></path>
                <path d="M34.7118,34.9674 C34.7118,40.36 30.3404,44.7314 24.9478,44.7314 C19.5554,44.7314 15.1836,40.36 15.1836,34.9674 C15.1836,29.5748 19.5554,25.2034 24.9478,25.2034 C30.3404,25.2034 34.7118,29.5748 34.7118,34.9674" id="Fill-216" fill="#1F1C23"></path>
                <path d="M31.55438,34.9677 C31.55438,35.1365 31.54838,35.3043 31.53518,35.4699 C31.27538,32.0583 28.42578,29.3715 24.94758,29.3715 C21.47038,29.3715 18.61978,32.0583 18.35998,35.4699 C18.34698,35.3043 18.34098,35.1365 18.34098,34.9677 C18.34098,31.3187 21.29978,28.3609 24.94758,28.3609 C28.59658,28.3609 31.55438,31.3187 31.55438,34.9677" id="Fill-217" fill="#DBDBDB"></path>
                <path d="M31.53522,35.46994 L31.53522,35.47594 C31.27542,38.88654 28.42582,41.57354 24.94762,41.57354 C21.47042,41.57354 18.61982,38.88654 18.36002,35.47594 L18.36002,35.46994 C18.61982,32.05834 21.47042,29.37154 24.94762,29.37154 C28.42582,29.37154 31.27542,32.05834 31.53522,35.46994" id="Fill-218" fill="#F3F4F6"></path>
                <path d="M28.25104,34.9677 C28.25104,35.1395 28.23784,35.3083 28.21264,35.4729 C27.97004,33.8885 26.60084,32.6749 24.94744,32.6749 C23.29544,32.6749 21.92624,33.8885 21.68264,35.4729 C21.65724,35.3083 21.64424,35.1395 21.64424,34.9677 C21.64424,33.1427 23.12364,31.6643 24.94744,31.6643 C26.77244,31.6643 28.25104,33.1427 28.25104,34.9677" id="Fill-219" fill="#72727C"></path>
                <path d="M28.21258,35.47296 C27.96998,37.05736 26.60078,38.27116 24.94758,38.27116 C23.29538,38.27116 21.92618,37.05736 21.68278,35.47296 C21.92618,33.88856 23.29538,32.67476 24.94758,32.67476 C26.60078,32.67476 27.96998,33.88856 28.21258,35.47296" id="Fill-220" fill="#8E8E9A"></path>
                <path d="M97.27352,35.5384 C97.27352,40.931 92.90212,45.3024 87.50952,45.3024 C82.11692,45.3024 77.74532,40.931 77.74532,35.5384 C77.74532,30.1458 82.11692,25.7744 87.50952,25.7744 C92.90212,25.7744 97.27352,30.1458 97.27352,35.5384" id="Fill-221" fill="#1F1C23"></path>
                <path d="M94.11608,35.5387 C94.11608,35.7075 94.11008,35.8753 94.09668,36.0409 C93.83708,32.6295 90.98728,29.9423 87.50928,29.9423 C84.03208,29.9423 81.18128,32.6295 80.92168,36.0409 C80.90848,35.8753 80.90248,35.7075 80.90248,35.5387 C80.90248,31.8897 83.86128,28.9319 87.50928,28.9319 C91.15828,28.9319 94.11608,31.8897 94.11608,35.5387" id="Fill-222" fill="#DBDBDB"></path>
                <path d="M94.09676,36.04094 L94.09676,36.04694 C93.83716,39.45754 90.98736,42.14454 87.50916,42.14454 C84.03216,42.14454 81.18136,39.45754 80.92176,36.04694 L80.92176,36.04094 C81.18136,32.62934 84.03216,29.94234 87.50916,29.94234 C90.98736,29.94234 93.83716,32.62934 94.09676,36.04094" id="Fill-223" fill="#F3F4F6"></path>
                <path d="M90.81258,35.5387 C90.81258,35.7105 90.79958,35.8793 90.77438,36.0439 C90.53178,34.4595 89.16238,33.2459 87.50918,33.2459 C85.85718,33.2459 84.48778,34.4595 84.24418,36.0439 C84.21898,35.8793 84.20598,35.7105 84.20598,35.5387 C84.20598,33.7137 85.68518,32.2353 87.50918,32.2353 C89.33418,32.2353 90.81258,33.7137 90.81258,35.5387" id="Fill-224" fill="#72727C"></path>
                <path d="M90.7743,36.04396 C90.5317,37.62836 89.1623,38.84216 87.5093,38.84216 C85.8571,38.84216 84.4877,37.62836 84.2443,36.04396 C84.4877,34.45956 85.8571,33.24576 87.5093,33.24576 C89.1623,33.24576 90.5317,34.45956 90.7743,36.04396" id="Fill-225" fill="#8E8E9A"></path>
                <path d="M37.57234,34.09036 C37.57234,34.31936 37.56574,34.54736 37.55494,34.77316 C37.53534,34.36616 37.49514,33.96456 37.43754,33.56836 C37.43334,33.54216 37.42994,33.51516 37.42574,33.48896 C37.41494,33.41636 37.40274,33.34356 37.38994,33.27076 C37.35734,33.06996 37.31814,32.87256 37.27494,32.67496 C37.26734,32.64236 37.26074,32.61096 37.25314,32.57816 C37.23794,32.50996 37.22154,32.44256 37.20434,32.37416 C37.19234,32.32336 37.17934,32.27336 37.16514,32.22236 C37.14674,32.14636 37.12614,32.07136 37.10554,31.99656 C37.08814,31.93356 37.06954,31.86936 37.05014,31.80656 C37.03814,31.76416 37.02514,31.72076 37.01094,31.67836 C37.00134,31.64356 36.99054,31.60896 36.97834,31.57416 C36.96214,31.51996 36.94474,31.46556 36.92654,31.41256 C36.91454,31.37456 36.90154,31.33656 36.88834,31.29956 C36.87094,31.24856 36.85354,31.19756 36.83514,31.14656 C36.80594,31.06516 36.77654,30.98476 36.74514,30.90456 C36.71594,30.82736 36.68654,30.75036 36.65394,30.67436 C36.58114,30.49096 36.50294,30.30976 36.41934,30.12956 C36.39554,30.07636 36.37054,30.02296 36.34454,29.97096 C36.32394,29.92656 36.30334,29.88196 36.28054,29.83856 C36.27174,29.81896 36.26214,29.79936 36.25134,29.77996 C36.21774,29.71036 36.18294,29.64216 36.14694,29.57476 C36.13834,29.55736 36.12954,29.53896 36.11874,29.52156 C36.08834,29.46076 36.05574,29.40116 36.02214,29.34136 C36.00474,29.30776 35.98634,29.27416 35.96694,29.24036 C35.78354,28.91256 35.58474,28.59356 35.37314,28.28416 C35.31774,28.20276 35.26114,28.12236 35.20374,28.04316 C35.15374,27.97156 35.10154,27.90196 35.04854,27.83256 C35.02774,27.80436 35.00734,27.77616 34.98554,27.74776 C34.95294,27.70456 34.92034,27.66216 34.88554,27.61976 C34.86074,27.58616 34.83374,27.55256 34.80654,27.51996 C34.76634,27.46796 34.72514,27.41676 34.68274,27.36696 C34.67294,27.35496 34.66314,27.34296 34.65234,27.33096 C34.59914,27.26596 34.54374,27.20076 34.48734,27.13676 C34.48074,27.12816 34.47434,27.12056 34.46674,27.11296 C34.42114,27.05976 34.37334,27.00656 34.32574,26.95436 C34.00314,26.59616 33.66114,26.25636 33.29994,25.93836 C33.24994,25.89396 33.19894,25.84936 33.14794,25.80696 C33.12294,25.78536 33.09794,25.76376 33.07294,25.74316 C33.02414,25.70176 32.97534,25.66156 32.92654,25.62156 C32.90914,25.60616 32.89174,25.59216 32.87314,25.57796 C32.82974,25.54216 32.78514,25.50756 32.74074,25.47176 C32.70614,25.44556 32.67134,25.41736 32.63534,25.39136 C32.58874,25.35436 32.54114,25.31856 32.49234,25.28276 C32.42274,25.22956 32.35214,25.17856 32.28054,25.12756 C32.15034,25.03416 32.01794,24.94316 31.88334,24.85516 C31.79754,24.79856 31.71174,24.74336 31.62394,24.68916 C31.56294,24.65116 31.50134,24.61316 31.43934,24.57496 C31.41774,24.56196 31.39594,24.55016 31.37414,24.53596 C31.31554,24.50136 31.25594,24.46756 31.19614,24.43276 C31.18434,24.42636 31.17234,24.41876 31.15934,24.41216 C31.09634,24.37656 31.03334,24.34176 30.96914,24.30696 C30.94434,24.29296 30.91934,24.27976 30.89434,24.26676 C30.83474,24.23416 30.77394,24.20276 30.71314,24.17236 C30.70434,24.16696 30.69574,24.16256 30.68694,24.15936 C30.62534,24.12576 30.56214,24.09536 30.49934,24.06376 C30.46874,24.04856 30.43734,24.03336 30.40594,24.01936 C30.34734,23.98996 30.28874,23.96296 30.22894,23.93576 C29.90774,23.78696 29.57774,23.65136 29.24134,23.52976 C29.17714,23.50696 29.11314,23.48416 29.04914,23.46236 C29.01554,23.45056 28.98174,23.43856 28.94814,23.42776 C28.88954,23.40816 28.83194,23.38976 28.77334,23.37136 C28.74834,23.36256 28.72234,23.35496 28.69734,23.34736 C28.64214,23.32996 28.58554,23.31276 28.53014,23.29636 C28.48474,23.28336 28.44014,23.27036 28.39454,23.25736 C28.34674,23.24316 28.29914,23.23016 28.25134,23.21716 C28.22314,23.20956 28.19374,23.20196 28.16434,23.19436 C28.09594,23.17596 28.02654,23.15856 27.95714,23.14216 C27.86914,23.12056 27.78134,23.09996 27.69314,23.08036 C27.42534,23.02076 27.15494,22.96956 26.88034,22.92836 C26.81634,22.91756 26.75214,22.90896 26.68814,22.90016 C26.64574,22.89356 26.60454,22.88816 26.56214,22.88396 C26.51994,22.87736 26.47754,22.87296 26.43514,22.86856 C26.38434,22.86096 26.33334,22.85576 26.28214,22.85136 C26.22794,22.84476 26.17254,22.83936 26.11734,22.83516 C26.05534,22.82856 25.99334,22.82316 25.93154,22.81876 C25.91194,22.81656 25.89354,22.81556 25.87414,22.81436 C25.79374,22.80796 25.71334,22.80356 25.63194,22.79916 C25.60714,22.79816 25.58094,22.79596 25.55494,22.79496 C25.45834,22.79056 25.36054,22.78736 25.26294,22.78516 C25.15774,22.78176 25.05234,22.78076 24.94714,22.78076 C24.84174,22.78076 24.73634,22.78176 24.63114,22.78516 C24.53354,22.78736 24.43474,22.79056 24.33814,22.79496 C24.31434,22.79596 24.29034,22.79716 24.26774,22.79916 C24.18414,22.80356 24.10154,22.80796 24.01894,22.81436 C24.00254,22.81556 23.98754,22.81656 23.97234,22.81876 C23.90274,22.82316 23.83454,22.82856 23.76614,22.83616 C23.71934,22.83936 23.67374,22.84376 23.62694,22.84916 C23.56754,22.85576 23.50774,22.86216 23.44914,22.86976 C23.41114,22.87296 23.37434,22.87736 23.33734,22.88276 C23.28854,22.88816 23.23954,22.89476 23.19194,22.90336 C23.13874,22.90896 23.08654,22.91656 23.03334,22.92516 C22.66214,22.98156 22.29734,23.05436 21.93814,23.14216 C21.89254,23.15316 21.84694,23.16396 21.80234,23.17596 C21.73294,23.19336 21.66454,23.21176 21.59514,23.23116 C21.59294,23.23116 21.59194,23.23116 21.59074,23.23236 C21.50174,23.25616 21.41274,23.28216 21.32494,23.30936 C21.30754,23.31376 21.29114,23.31816 21.27494,23.32456 C21.19034,23.34836 21.10674,23.37556 21.02314,23.40376 C21.01974,23.40376 21.01654,23.40496 21.01434,23.40596 C20.92754,23.43436 20.84194,23.46356 20.75614,23.49396 C20.74194,23.49816 20.72774,23.50256 20.71474,23.50796 C20.64854,23.53196 20.58234,23.55576 20.51734,23.58076 C20.13834,23.72196 19.76934,23.88136 19.41114,24.05616 C19.34274,24.08976 19.27434,24.12356 19.20714,24.15816 C19.19734,24.16376 19.18854,24.16796 19.17874,24.17336 C19.12574,24.19956 19.07254,24.22776 19.02034,24.25696 C18.97034,24.28316 18.91934,24.31016 18.87054,24.33736 C18.84674,24.35036 18.82274,24.36336 18.80014,24.37656 C18.75554,24.40136 18.71094,24.42636 18.66774,24.45136 C18.61434,24.48176 18.56234,24.51216 18.51014,24.54256 C18.49714,24.55116 18.48514,24.55776 18.47334,24.56536 C18.40494,24.60556 18.33754,24.64676 18.27134,24.68916 C18.20634,24.72916 18.14234,24.77036 18.07814,24.81176 C18.02614,24.84536 17.97394,24.87896 17.92294,24.91476 C17.74594,25.03316 17.57234,25.15576 17.40294,25.28276 C17.35634,25.31636 17.31074,25.35116 17.26634,25.38696 C17.22714,25.41516 17.18914,25.44556 17.15134,25.47496 C17.08494,25.52696 17.01974,25.58016 16.95474,25.63336 C16.91674,25.66376 16.87874,25.69536 16.84194,25.72676 C16.80274,25.75936 16.76374,25.79296 16.72454,25.82656 C16.69094,25.85476 16.65734,25.88416 16.62374,25.91456 C16.59314,25.94056 16.56174,25.96776 16.53134,25.99596 C16.48894,26.03276 16.44674,26.07196 16.40434,26.11096 C16.14374,26.35096 15.89314,26.60176 15.65314,26.86216 C15.61754,26.90016 15.58274,26.93936 15.54914,26.97836 C15.51214,27.01736 15.47734,27.05636 15.44354,27.09556 C15.42634,27.11616 15.40794,27.13676 15.39174,27.15636 C15.34374,27.21056 15.29834,27.26476 15.25374,27.31916 C15.23734,27.33756 15.22234,27.35496 15.20814,27.37336 C15.17134,27.41676 15.13654,27.46016 15.10174,27.50356 C15.06154,27.55356 15.02134,27.60356 14.98234,27.65456 C14.93894,27.70996 14.89654,27.76516 14.85534,27.82176 C14.81754,27.87056 14.78054,27.91936 14.74574,27.96936 C14.71754,28.00616 14.69154,28.04316 14.66554,28.08016 C14.56114,28.22556 14.46014,28.37316 14.36374,28.52296 C14.30954,28.60556 14.25734,28.68796 14.20514,28.77156 C14.15294,28.85516 14.10314,28.93976 14.05314,29.02436 C14.00874,29.09936 13.96534,29.17536 13.92294,29.25136 C13.88594,29.31756 13.84914,29.38376 13.81434,29.45116 C13.77654,29.52056 13.74074,29.58996 13.70474,29.66056 C13.66574,29.73436 13.62874,29.80936 13.59314,29.88516 C13.55834,29.95476 13.52454,30.02516 13.49214,30.09576 C13.46714,30.14896 13.44314,30.20216 13.41914,30.25536 C13.35094,30.40736 13.28574,30.56136 13.22394,30.71776 C13.16954,30.85136 13.11854,30.98696 13.06974,31.12256 C13.04474,31.19336 13.01974,31.26276 12.99594,31.33316 C12.98954,31.35276 12.98294,31.37236 12.97654,31.39196 C12.94934,31.47116 12.92434,31.55136 12.89934,31.63076 C12.87214,31.71636 12.84614,31.80216 12.82114,31.88896 C12.79614,31.97476 12.77234,32.06156 12.74954,32.14856 C12.72674,32.23316 12.70514,32.31896 12.68334,32.40456 C12.68114,32.41536 12.67894,32.42636 12.67574,32.43716 C12.65734,32.51436 12.63994,32.59356 12.62254,32.67156 C12.62154,32.67276 12.62154,32.67376 12.62154,32.67496 C12.59754,32.78136 12.57594,32.88876 12.55534,32.99616 C12.54234,33.06036 12.53034,33.12416 12.51934,33.18836 C12.51514,33.21016 12.51074,33.23276 12.50754,33.25456 C12.49334,33.33696 12.47934,33.41956 12.46734,33.50216 C12.46414,33.52376 12.46074,33.54656 12.45754,33.56836 C12.45314,33.59536 12.44994,33.62256 12.44674,33.64956 C12.43574,33.72016 12.42714,33.79076 12.41834,33.86236 C12.38274,34.15756 12.35674,34.45716 12.34154,34.75896 C12.32954,34.53756 12.32294,34.31616 12.32294,34.09036 C12.32294,33.95256 12.32514,33.81676 12.33174,33.68016 C12.33274,33.64316 12.33394,33.60516 12.33694,33.56836 C12.34794,33.26756 12.37074,32.96916 12.40434,32.67496 C12.57494,31.13676 13.02314,29.68216 13.69614,28.36116 C13.83294,28.09196 13.98054,27.82816 14.13574,27.57096 C16.34574,23.91296 20.36074,21.46736 24.94714,21.46736 C31.44154,21.46736 36.78954,26.36836 37.49194,32.67496 C37.52574,32.96916 37.54834,33.26756 37.55934,33.56836 C37.56254,33.60516 37.56354,33.64316 37.56474,33.68016 C37.57114,33.81676 37.57234,33.95256 37.57234,34.09036" id="Fill-226" fill="#D11927"></path>
                <path d="M65.67956,19.94658 C65.67956,20.07898 65.69996,20.20578 65.73716,20.32638 C65.84816,19.73338 66.37176,19.27998 66.99576,19.27998 L69.82236,19.27998 C70.17456,19.27998 70.49436,19.42398 70.72696,19.65638 C70.87096,19.80058 70.98196,19.97978 71.04476,20.17918 C71.05876,20.10338 71.06616,20.02558 71.06616,19.94658 C71.06616,19.59458 70.92216,19.27458 70.69076,19.04218 C70.45816,18.81058 70.13816,18.66658 69.78616,18.66658 L66.95936,18.66658 C66.25556,18.66658 65.67956,19.24258 65.67956,19.94658" id="Fill-227" fill="#353F44"></path>
                <path d="M65.73718,20.32636 L65.73718,20.32736 C65.79998,20.52676 65.91098,20.70596 66.05498,20.85116 C66.28758,21.08256 66.60758,21.22656 66.95938,21.22656 L69.78618,21.22656 C70.41018,21.22656 70.93378,20.77316 71.04478,20.18016 L71.04478,20.17916 C70.98198,19.97976 70.87098,19.80056 70.72698,19.65636 C70.49438,19.42396 70.17458,19.27996 69.82238,19.27996 L66.99578,19.27996 C66.37178,19.27996 65.84818,19.73336 65.73718,20.32636" id="Fill-228" fill="#3D484C"></path>
                <path d="M56.5034,19.94658 C56.5034,20.07898 56.5236,20.20578 56.561,20.32638 C56.672,19.73338 57.1956,19.27998 57.8196,19.27998 L60.6462,19.27998 C60.9984,19.27998 61.3182,19.42398 61.5506,19.65638 C61.6948,19.80058 61.8058,19.97978 61.8686,20.17918 C61.8826,20.10338 61.89,20.02558 61.89,19.94658 C61.89,19.59458 61.746,19.27458 61.5146,19.04218 C61.282,18.81058 60.962,18.66658 60.61,18.66658 L57.7832,18.66658 C57.0794,18.66658 56.5034,19.24258 56.5034,19.94658" id="Fill-229" fill="#353F44"></path>
                <path d="M56.56102,20.32636 L56.56102,20.32736 C56.62382,20.52676 56.73482,20.70596 56.87882,20.85116 C57.11142,21.08256 57.43142,21.22656 57.78322,21.22656 L60.61002,21.22656 C61.23382,21.22656 61.75762,20.77316 61.86862,20.18016 L61.86862,20.17916 C61.80582,19.97976 61.69482,19.80056 61.55062,19.65636 C61.31822,19.42396 60.99842,19.27996 60.64622,19.27996 L57.81962,19.27996 C57.19562,19.27996 56.67202,19.73336 56.56102,20.32636" id="Fill-230" fill="#3D484C"></path>
                <path d="M32.09694,9.71006 L32.09694,14.02246 C32.09694,14.94926 32.85554,15.70806 33.78254,15.70806 L33.78254,8.02446 C33.31854,8.02446 32.89774,8.21386 32.59214,8.51946 C32.28614,8.82466 32.09694,9.24626 32.09694,9.71006" id="Fill-231" fill="#4F5150"></path>
            </g>
        </g>
    </g>
</svg>