<?xml version="1.0" encoding="UTF-8"?>
<svg width="251px" height="101px" viewBox="0 0 251 101" version="1.1" xmlns="http://www.w3.org/2000/svg" xmlns:xlink="http://www.w3.org/1999/xlink">
    <!-- Generator: Sketch 52.6 (67491) - http://www.bohemiancoding.com/sketch -->
    <title>分组</title>
    <desc>Created with Sketch.</desc>
    <defs>
        <polygon id="path-1" points="0.0002 0.814 250.074 0.814 250.074 82.8243 0.0002 82.8243"></polygon>
        <polygon id="path-3" points="0.0001 0.6881 250.074 0.6881 250.074 19.8241 0.0001 19.8241"></polygon>
    </defs>
    <g id="图示" stroke="none" stroke-width="1" fill="none" fill-rule="evenodd">
        <g id="场景" transform="translate(-599.000000, -1074.000000)">
            <g id="分组" transform="translate(599.000000, 1073.000000)">
                <g transform="translate(0.000000, 0.186000)">
                    <mask id="mask-2" fill="white">
                        <use xlink:href="#path-1"></use>
                    </mask>
                    <g id="Clip-2"></g>
                    <path d="M236.9132,35.7633 L218.4482,35.7633 L202.5802,15.7203 C195.2782,6.4963 181.7812,0.8133 167.1762,0.8133 L133.2252,0.8133 C118.6202,0.8133 105.1232,6.4963 97.8212,15.7203 L81.9532,35.7633 L33.4512,35.7633 C15.0542,35.7633 0.0002,50.8163 0.0002,69.2153 L0.0002,69.6633 C0.0002,76.9023 5.9232,82.8243 13.1612,82.8243 L236.9132,82.8243 C244.1512,82.8243 250.0742,76.9023 250.0742,69.6633 L250.0742,48.9233 C250.0742,41.6853 244.1512,35.7633 236.9132,35.7633" id="Fill-1" fill="#53676B" mask="url(#mask-2)"></path>
                </g>
                <path d="M196.1007,37.3478 C198.9557,37.3478 200.5517,34.0508 198.7787,31.8128 L190.5387,21.4048 C184.7297,14.0668 173.9947,9.5468 162.3757,9.5468 L135.3717,9.5468 C123.7527,9.5468 113.0167,14.0668 107.2077,21.4048 L98.9687,31.8128 C97.1967,34.0508 98.7897,37.3478 101.6457,37.3478 L196.1007,37.3478 Z" id="Fill-3" fill="#FFFFFE"></path>
                <g transform="translate(0.000000, 63.186000)">
                    <mask id="mask-4" fill="white">
                        <use xlink:href="#path-3"></use>
                    </mask>
                    <g id="Clip-6"></g>
                    <path d="M0.5001,0.6881 C0.1951,2.4911 0.0001,4.3301 0.0001,6.2151 L0.0001,6.6641 C0.0001,13.9021 5.9231,19.8241 13.1611,19.8241 L236.9131,19.8241 C244.1511,19.8241 250.0741,13.9021 250.0741,6.6641 L250.0741,0.6881 L0.5001,0.6881 Z" id="Fill-5" fill="#6F858A" mask="url(#mask-4)"></path>
                </g>
                <path d="M77.1446,76.7208 C77.1446,90.2318 66.1916,101.1858 52.6786,101.1858 C39.1666,101.1858 28.2146,90.2318 28.2146,76.7208 C28.2146,63.2068 39.1666,52.2558 52.6786,52.2558 C66.1916,52.2558 77.1446,63.2068 77.1446,76.7208" id="Fill-7" fill="#FFFFFE"></path>
                <path d="M65.5245,76.7208 C65.5245,83.8138 59.7735,89.5648 52.6785,89.5648 C45.5855,89.5648 39.8355,83.8138 39.8355,76.7208 C39.8355,69.6248 45.5855,63.8738 52.6785,63.8738 C59.7735,63.8738 65.5245,69.6248 65.5245,76.7208" id="Fill-9" fill="#3D4C4F"></path>
                <path d="M218.4982,76.7208 C218.4982,90.2318 207.5452,101.1858 194.0322,101.1858 C180.5202,101.1858 169.5672,90.2318 169.5672,76.7208 C169.5672,63.2068 180.5202,52.2558 194.0322,52.2558 C207.5452,52.2558 218.4982,63.2068 218.4982,76.7208" id="Fill-11" fill="#FFFFFE"></path>
                <path d="M206.878,76.7208 C206.878,83.8138 201.127,89.5648 194.032,89.5648 C186.939,89.5648 181.188,83.8138 181.188,76.7208 C181.188,69.6248 186.939,63.8738 194.032,63.8738 C201.127,63.8738 206.878,69.6248 206.878,76.7208" id="Fill-13" fill="#3D4C4F"></path>
            </g>
        </g>
    </g>
</svg>