<?xml version="1.0" encoding="UTF-8"?>
<svg width="25px" height="39px" viewBox="0 0 25 39" version="1.1" xmlns="http://www.w3.org/2000/svg" xmlns:xlink="http://www.w3.org/1999/xlink">
    <!-- Generator: Sketch 52.6 (67491) - http://www.bohemiancoding.com/sketch -->
    <title>分组</title>
    <desc>Created with Sketch.</desc>
    <defs>
        <polygon id="path-1" points="0.122857143 0.170572093 20.7163095 0.170572093 20.7163095 8.76744186 0.122857143 8.76744186"></polygon>
        <polygon id="path-3" points="0 0.0115186047 12.5029464 0.0115186047 12.5029464 34.3992395 0 34.3992395"></polygon>
    </defs>
    <g id="图示" stroke="none" stroke-width="1" fill="none" fill-rule="evenodd">
        <g id="场景" transform="translate(-349.000000, -379.000000)">
            <g id="分组" transform="translate(349.000000, 379.000000)">
                <g transform="translate(2.083333, 30.221070)">
                    <mask id="mask-2" fill="white">
                        <use xlink:href="#path-1"></use>
                    </mask>
                    <g id="Clip-2"></g>
                    <path d="M20.7163095,4.46903721 C20.7163095,6.8432 16.1061905,8.76750233 10.4195833,8.76750233 C4.73267857,8.76750233 0.122857143,6.8432 0.122857143,4.46903721 C0.122857143,2.09487442 4.73267857,0.170572093 10.4195833,0.170572093 C16.1061905,0.170572093 20.7163095,2.09487442 20.7163095,4.46903721" id="Fill-1" fill="#C6C4C5" mask="url(#mask-2)"></path>
                </g>
                <path d="M24.825,12.9111465 C24.825,23.2618674 12.5029762,34.6900767 12.5029762,34.6900767 L12.5029762,16.3386116 C14.3196429,16.3041465 15.797619,14.7798209 15.797619,12.9111465 C15.797619,11.0427744 14.3196429,9.51814651 12.5029762,9.48398372 L12.5029762,0.302355814 C19.3071429,0.348309302 24.825,5.9878907 24.825,12.9111465" id="Fill-3" fill="#7FB7E6"></path>
                <g transform="translate(0.000000, 0.290837)">
                    <mask id="mask-4" fill="white">
                        <use xlink:href="#path-3"></use>
                    </mask>
                    <g id="Clip-6"></g>
                    <path d="M9.02735119,12.6203093 C9.02735119,14.5231465 10.5395536,16.0592628 12.4124702,16.0592628 C12.4463988,16.0592628 12.4690179,16.0592628 12.5029464,16.0477744 L12.5029464,34.3992395 C12.5029464,34.3992395 -2.97619048e-05,23.0054953 -2.97619048e-05,12.6203093 C-2.97619048e-05,5.66258837 5.55175595,0.0115186047 12.4124702,0.0115186047 L12.5029464,0.0115186047 L12.5029464,9.19314651 C12.4690179,9.18165814 12.4463988,9.18165814 12.4124702,9.18165814 C10.5395536,9.18165814 9.02735119,10.7174721 9.02735119,12.6203093" id="Fill-5" fill="#3C64AA" mask="url(#mask-4)"></path>
                </g>
            </g>
        </g>
    </g>
</svg>