<?xml version="1.0" encoding="UTF-8"?>
<svg width="383px" height="128px" viewBox="0 0 383 128" version="1.1" xmlns="http://www.w3.org/2000/svg" xmlns:xlink="http://www.w3.org/1999/xlink">
    <!-- Generator: Sketch 52.6 (67491) - http://www.bohemiancoding.com/sketch -->
    <title>分组</title>
    <desc>Created with Sketch.</desc>
    <defs>
        <polygon id="path-1" points="0 127.901816 382.714851 127.901816 382.714851 -5.68434189e-14 0 -5.68434189e-14"></polygon>
    </defs>
    <g id="图示" stroke="none" stroke-width="1" fill="none" fill-rule="evenodd">
        <g id="场景" transform="translate(-974.000000, -113.000000)">
            <g id="分组" transform="translate(974.000000, 113.000000)">
                <path d="M381.301473,124.938963 L327.735801,124.938963 C325.85622,119.327142 323.437857,114.236055 320.582166,109.838878 C315.905124,102.620582 310.056269,97.2734946 303.532363,94.5653158 C300.393323,93.2570052 297.096402,92.5630946 293.698928,92.5630946 C290.301453,92.5630946 287.004532,93.2570052 283.865793,94.5653158 C277.341586,97.2734946 271.493032,102.620582 266.815689,109.838878 C263.960298,114.236055 261.541635,119.327142 259.662054,124.938963 L248.160348,124.938963 C247.307002,119.712045 246.170609,114.666135 244.777881,109.838878 C243.22457,104.453542 241.352793,99.3398664 239.199768,94.5653158 C236.683254,88.9842146 233.785241,83.8590946 230.560957,79.2920546 C228.22994,75.9887511 225.730835,72.9754805 223.086154,70.2901911 C220.774947,67.9407134 218.353883,65.8439228 215.834367,64.0187934 C214.156191,62.8008358 212.437193,61.7069628 210.678275,60.7416922 C204.628616,57.411584 198.127521,55.6051275 191.357786,55.6051275 C187.139983,55.6051275 183.027536,56.3065675 179.062765,57.6416828 C174.814947,59.0671511 170.734917,61.2241769 166.880904,64.0187934 C164.444232,65.7836875 162.098507,67.8048828 159.855135,70.0600922 C157.127611,72.8020028 154.550765,75.8941816 152.154614,79.2920546 C150.495948,81.6415322 148.925228,84.137984 147.447556,86.7666522 C146.049726,89.2519605 144.737441,91.853824 143.515503,94.5653158 C141.362779,99.3398664 139.490701,104.453542 137.93769,109.838878 C136.544963,114.666135 135.408569,119.712045 134.555224,124.938963 L120.044747,124.938963 C118.850423,121.371226 117.437885,118.014916 115.831747,114.911292 C114.913567,113.134953 113.932355,111.441739 112.891111,109.838878 C109.237903,104.201156 104.869422,99.7057958 100.023992,96.7151134 C98.6666831,95.8778428 97.2691533,95.1574287 95.8413077,94.5653158 C92.7022685,93.2570052 89.4077481,92.5630946 86.0078727,92.5630946 C85.4084597,92.5630946 84.8111478,92.5856828 84.2165373,92.6311605 C81.448792,92.8269252 78.7563861,93.4868028 76.1720365,94.5653158 C73.4547176,95.6932216 70.85506,97.2807228 68.4087826,99.2718005 C64.9812928,102.055273 61.8521588,105.626323 59.1222332,109.838878 C56.5781047,113.761099 54.3773555,118.23357 52.6010279,123.132506 C52.3852152,123.728233 52.1745052,124.33149 51.9712991,124.938963 L1.41409843,124.938963 C3.68478417,119.77981 6.28174028,114.74173 9.18995893,109.838878 C12.303785,104.585758 15.773897,99.4868405 19.5729809,94.5653158 C20.0394245,93.9620593 20.5088696,93.3624169 20.9855185,92.7666899 C24.6915538,88.1053816 28.6986462,83.6100216 32.9818829,79.2920546 C33.1172536,79.1526099 33.2553257,79.0131652 33.3933978,78.8773346 C38.6173257,73.6465016 44.247966,68.6837158 50.2499002,64.0187934 C51.0279064,63.4116216 51.8107152,62.8119793 52.6010279,62.2198664 C59.0219809,57.3814664 65.8493461,52.8785769 73.0381,48.7452311 C81.5517458,43.8465958 90.5720561,39.4605628 100.023992,35.651584 C101.880761,34.9010522 103.75524,34.1734099 105.647128,33.4719699 C108.991775,32.2235934 112.389249,31.0508122 115.831747,29.9457958 C125.983948,26.6988122 136.547664,24.0815887 147.447556,22.1658052 C157.709915,20.363264 168.27093,19.1790381 179.062765,18.6622193 C183.127788,18.4700687 187.227629,18.3718852 191.357786,18.3718852 C197.873888,18.3718852 204.320055,18.6170428 210.678275,19.0998287 C221.490221,19.9069816 232.051536,21.3966005 242.293784,23.512064 C253.223692,25.759744 263.789809,28.7200075 273.909294,32.3214758 C274.967946,32.6949346 276.019395,33.0798381 277.068143,33.4719699 C281.368789,35.0709158 285.589293,36.7906334 289.717048,38.6232922 C296.634761,41.6892687 303.299141,45.0720828 309.677471,48.7452311 C317.749587,53.3875652 325.366964,58.4976264 332.465671,64.0187934 C338.55285,68.7514805 344.261231,73.7898616 349.547892,79.1038193 C349.610624,79.1676687 349.673357,79.2282052 349.733689,79.2920546 C354.566512,84.1608734 359.047552,89.263104 363.142591,94.5653158 C370.487126,104.080083 376.599218,114.247499 381.301473,124.938963" id="Fill-1" fill="#3E3A39"></path>
                <path d="M381.301473,124.938963 L327.735801,124.938963 C325.85622,119.327142 323.437857,114.236055 320.582166,109.838878 C315.905124,102.620582 310.056269,97.2734946 303.532363,94.5653158 C300.393323,93.2570052 297.096402,92.5630946 293.698928,92.5630946 C290.301453,92.5630946 287.004532,93.2570052 283.865793,94.5653158 C277.341586,97.2734946 271.493032,102.620582 266.815689,109.838878 C263.960298,114.236055 261.541635,119.327142 259.662054,124.938963 L248.160348,124.938963 C247.307002,119.712045 246.170609,114.666135 244.777881,109.838878 C243.22457,104.453542 241.352793,99.3398664 239.199768,94.5653158 C236.683254,88.9842146 233.785241,83.8590946 230.560957,79.2920546 C228.22994,75.9887511 225.730835,72.9754805 223.086154,70.2901911 C220.774947,67.9407134 218.353883,65.8439228 215.834367,64.0187934 C214.156191,62.8008358 212.437193,61.7069628 210.678275,60.7416922 C204.628616,57.411584 198.127521,55.6051275 191.357786,55.6051275 C187.139983,55.6051275 183.027536,56.3065675 179.062765,57.6416828 C174.814947,59.0671511 170.734917,61.2241769 166.880904,64.0187934 C164.444232,65.7836875 162.098507,67.8048828 159.855135,70.0600922 C157.127611,72.8020028 154.550765,75.8941816 152.154614,79.2920546 C150.495948,81.6415322 148.925228,84.137984 147.447556,86.7666522 C146.049726,89.2519605 144.737441,91.853824 143.515503,94.5653158 C141.362779,99.3398664 139.490701,104.453542 137.93769,109.838878 C136.544963,114.666135 135.408569,119.712045 134.555224,124.938963 L120.044747,124.938963 C118.850423,121.371226 117.437885,118.014916 115.831747,114.911292 C114.913567,113.134953 113.932355,111.441739 112.891111,109.838878 C109.237903,104.201156 104.869422,99.7057958 100.023992,96.7151134 C98.6666831,95.8778428 97.2691533,95.1574287 95.8413077,94.5653158 C92.7022685,93.2570052 89.4077481,92.5630946 86.0078727,92.5630946 C85.4084597,92.5630946 84.8111478,92.5856828 84.2165373,92.6311605 C81.448792,92.8269252 78.7563861,93.4868028 76.1720365,94.5653158 C73.4547176,95.6932216 70.85506,97.2807228 68.4087826,99.2718005 C64.9812928,102.055273 61.8521588,105.626323 59.1222332,109.838878 C56.5781047,113.761099 54.3773555,118.23357 52.6010279,123.132506 C52.3852152,123.728233 52.1745052,124.33149 51.9712991,124.938963 L1.41409843,124.938963 C3.68478417,119.77981 6.28174028,114.74173 9.18995893,109.838878 C12.303785,104.585758 15.773897,99.4868405 19.5729809,94.5653158 C20.0394245,93.9620593 20.5088696,93.3624169 20.9855185,92.7666899 C24.6915538,88.1053816 28.6986462,83.6100216 32.9818829,79.2920546 C33.1172536,79.1526099 33.2553257,79.0131652 33.3933978,78.8773346 C38.6173257,73.6465016 44.247966,68.6837158 50.2499002,64.0187934 C51.0279064,63.4116216 51.8107152,62.8119793 52.6010279,62.2198664 C59.0219809,57.3814664 65.8493461,52.8785769 73.0381,48.7452311 C81.5517458,43.8465958 90.5720561,39.4605628 100.023992,35.651584 C101.880761,34.9010522 103.75524,34.1734099 105.647128,33.4719699 C108.991775,32.2235934 112.389249,31.0508122 115.831747,29.9457958 C125.983948,26.6988122 136.547664,24.0815887 147.447556,22.1658052 C157.709915,20.363264 168.27093,19.1790381 179.062765,18.6622193 C183.127788,18.4700687 187.227629,18.3718852 191.357786,18.3718852 C197.873888,18.3718852 204.320055,18.6170428 210.678275,19.0998287 C221.490221,19.9069816 232.051536,21.3966005 242.293784,23.512064 C253.223692,25.759744 263.789809,28.7200075 273.909294,32.3214758 C274.967946,32.6949346 276.019395,33.0798381 277.068143,33.4719699 C281.368789,35.0709158 285.589293,36.7906334 289.717048,38.6232922 C296.634761,41.6892687 303.299141,45.0720828 309.677471,48.7452311 C317.749587,53.3875652 325.366964,58.4976264 332.465671,64.0187934 C338.55285,68.7514805 344.261231,73.7898616 349.547892,79.1038193 C349.610624,79.1676687 349.673357,79.2282052 349.733689,79.2920546 C354.566512,84.1608734 359.047552,89.263104 363.142591,94.5653158 C370.487126,104.080083 376.599218,114.247499 381.301473,124.938963 Z" id="Stroke-3" stroke="#3E3A39" stroke-width="1.8417"></path>
                <path d="M115.831867,29.9457054 L115.831867,33.4718795 L105.647248,33.4718795 C108.991895,32.2235031 112.389369,31.0507219 115.831867,29.9457054 Z" id="Stroke-5" stroke="#9FA0A0" stroke-width="1.6749"></path>
                <path d="M147.447406,22.1657148 L147.447406,33.4718795 L115.831897,33.4718795 L115.831897,29.9457054 C125.984098,26.6987219 136.547514,24.0814984 147.447406,22.1657148 Z" id="Stroke-7" stroke="#9FA0A0" stroke-width="1.6749"></path>
                <path d="M179.062795,18.6623398 L179.062795,33.4717892 L147.447286,33.4717892 L147.447286,22.1656245 C157.709945,20.3630833 168.27096,19.1788574 179.062795,18.6623398 Z" id="Stroke-9" stroke="#9FA0A0" stroke-width="1.6749"></path>
                <mask id="mask-2" fill="white">
                    <use xlink:href="#path-1"></use>
                </mask>
                <g id="Clip-12"></g>
                <polygon id="Stroke-11" stroke="#9FA0A0" stroke-width="1.6749" mask="url(#mask-2)" points="179.062705 33.4718494 210.678215 33.4718494 210.678215 18.1985882 179.062705 18.1985882"></polygon>
                <path d="M242.293694,23.5120339 L242.293694,33.4719398 L210.678185,33.4719398 L210.678185,19.0997986 C221.490131,19.9069515 232.051446,21.3965704 242.293694,23.5120339 Z" id="Stroke-13" stroke="#9FA0A0" stroke-width="1.6749" mask="url(#mask-2)"></path>
                <path d="M273.909234,32.3215962 L273.909234,33.4717892 L242.293724,33.4717892 L242.293724,23.5121845 C253.223632,25.7595633 263.789749,28.720128 273.909234,32.3215962 Z" id="Stroke-14" stroke="#9FA0A0" stroke-width="1.6749" mask="url(#mask-2)"></path>
                <path d="M277.068203,33.4718795 L273.909354,33.4718795 L273.909354,32.3216866 C274.968006,32.6948442 276.019455,33.0797478 277.068203,33.4718795 Z" id="Stroke-15" stroke="#9FA0A0" stroke-width="1.6749" mask="url(#mask-2)"></path>
                <path d="M100.024112,35.651584 L100.024112,48.7452311 L73.0382201,48.7452311 C81.5518658,43.8462946 90.5721762,39.4605628 100.024112,35.651584 Z" id="Stroke-16" stroke="#9FA0A0" stroke-width="1.6749" mask="url(#mask-2)"></path>
                <polyline id="Stroke-17" stroke="#9FA0A0" stroke-width="1.6749" mask="url(#mask-2)" points="100.024112 35.651584 100.024112 48.7452311 115.831867 48.7452311 131.639621 48.7452311 131.639621 33.4719699 115.831867 33.4719699 105.647248 33.4719699"></polyline>
                <polygon id="Stroke-18" stroke="#9FA0A0" stroke-width="1.6749" mask="url(#mask-2)" points="131.640342 48.7454118 163.255851 48.7454118 163.255851 33.4721506 131.640342 33.4721506"></polygon>
                <polygon id="Stroke-19" stroke="#9FA0A0" stroke-width="1.6749" mask="url(#mask-2)" points="163.255851 48.7454118 194.871361 48.7454118 194.871361 33.4721506 163.255851 33.4721506"></polygon>
                <polygon id="Stroke-20" stroke="#9FA0A0" stroke-width="1.6749" mask="url(#mask-2)" points="194.871361 48.7454118 226.48687 48.7454118 226.48687 33.4721506 194.871361 33.4721506"></polygon>
                <polygon id="Stroke-21" stroke="#9FA0A0" stroke-width="1.6749" mask="url(#mask-2)" points="226.48687 48.7454118 258.102079 48.7454118 258.102079 33.4721506 226.48687 33.4721506"></polygon>
                <path d="M289.717018,38.6233525 L289.717018,48.7452913 L258.101509,48.7452913 L258.101509,33.4720301 L277.068113,33.4720301 C281.369059,35.070976 285.589263,36.7906936 289.717018,38.6233525 Z" id="Stroke-22" stroke="#9FA0A0" stroke-width="1.6749" mask="url(#mask-2)"></path>
                <path d="M309.677441,48.7452612 L289.717018,48.7452612 L289.717018,38.6233224 C296.634731,41.6892988 303.299111,45.0721129 309.677441,48.7452612 Z" id="Stroke-23" stroke="#9FA0A0" stroke-width="1.6749" mask="url(#mask-2)"></path>
                <path d="M52.6009379,62.2198362 L52.6009379,64.0187633 L50.2498101,64.0187633 C51.0278164,63.4115915 51.8106252,62.8119492 52.6009379,62.2198362 Z" id="Stroke-24" stroke="#9FA0A0" stroke-width="1.6749" mask="url(#mask-2)"></path>
                <path d="M84.2164773,48.7452612 L84.2164773,64.0185224 L52.6009679,64.0185224 L52.6009679,62.2198965 C59.0219208,57.3811953 65.8492861,52.8786071 73.03804,48.7452612 L84.2164773,48.7452612 Z" id="Stroke-25" stroke="#9FA0A0" stroke-width="1.6749" mask="url(#mask-2)"></path>
                <polygon id="Stroke-26" stroke="#9FA0A0" stroke-width="1.6749" mask="url(#mask-2)" points="84.2170776 64.0186729 115.832587 64.0186729 115.832587 48.7454118 84.2170776 48.7454118"></polygon>
                <polygon id="Stroke-27" stroke="#9FA0A0" stroke-width="1.6749" mask="url(#mask-2)" points="115.832587 64.0186729 147.448096 64.0186729 147.448096 48.7454118 115.832587 48.7454118"></polygon>
                <path d="M179.062795,48.7452612 L179.062795,57.6417129 C174.814977,59.06688 170.734947,61.2242071 166.880934,64.0185224 L147.447286,64.0185224 L147.447286,48.7452612 L179.062795,48.7452612 Z" id="Stroke-28" stroke="#9FA0A0" stroke-width="1.6749" mask="url(#mask-2)"></path>
                <path d="M210.678185,48.7452612 L210.678185,60.7417224 C204.628826,57.4113129 198.127731,55.6051576 191.357696,55.6051576 C187.139893,55.6051576 183.027446,56.3065976 179.062675,57.6417129 L179.062675,48.7452612 L210.678185,48.7452612 Z" id="Stroke-29" stroke="#9FA0A0" stroke-width="1.6749" mask="url(#mask-2)"></path>
                <path d="M242.293694,48.7452612 L242.293694,64.0185224 L215.834577,64.0185224 C214.156101,62.8005647 212.437103,61.7069929 210.678185,60.7417224 L210.678185,48.7452612 L242.293694,48.7452612 Z" id="Stroke-30" stroke="#9FA0A0" stroke-width="1.6749" mask="url(#mask-2)"></path>
                <polygon id="Stroke-31" stroke="#9FA0A0" stroke-width="1.6749" mask="url(#mask-2)" points="242.294324 64.0186729 273.909834 64.0186729 273.909834 48.7454118 242.294324 48.7454118"></polygon>
                <polygon id="Stroke-32" stroke="#9FA0A0" stroke-width="1.6749" mask="url(#mask-2)" points="273.909834 64.0186729 305.525343 64.0186729 305.525343 48.7454118 273.909834 48.7454118"></polygon>
                <path d="M332.465611,64.0186428 L305.524743,64.0186428 L305.524743,48.7453816 L309.677411,48.7453816 C317.749527,53.3877158 325.367205,58.4974758 332.465611,64.0186428 Z" id="Stroke-33" stroke="#9FA0A0" stroke-width="1.6749" mask="url(#mask-2)"></path>
                <path d="M33.3932777,78.877184 L33.3932777,79.2922052 L32.9817629,79.2922052 C33.1174337,79.1524593 33.2555058,79.0130146 33.3932777,78.877184 Z" id="Stroke-34" stroke="#9FA0A0" stroke-width="1.6749" mask="url(#mask-2)"></path>
                <path d="M65.0087871,64.0186428 L65.0087871,79.2922052 L33.3932777,79.2922052 L33.3932777,78.877184 C38.6175058,73.6466522 44.2478459,68.6835652 50.2497801,64.0186428 L65.0087871,64.0186428 Z" id="Stroke-35" stroke="#9FA0A0" stroke-width="1.6749" mask="url(#mask-2)"></path>
                <polygon id="Stroke-36" stroke="#9FA0A0" stroke-width="1.6749" mask="url(#mask-2)" points="65.0076466 79.2922353 96.623156 79.2922353 96.623156 64.0186729 65.0076466 64.0186729"></polygon>
                <polygon id="Stroke-37" stroke="#9FA0A0" stroke-width="1.6749" mask="url(#mask-2)" points="96.623156 79.2922353 128.238665 79.2922353 128.238665 64.0186729 96.623156 64.0186729"></polygon>
                <polyline id="Stroke-38" stroke="#9FA0A0" stroke-width="1.6749" mask="url(#mask-2)" points="159.855105 70.0601224 159.855105 64.0185224 147.447526 64.0185224 128.239596 64.0185224 128.239596 79.2920847 147.447526 79.2920847 152.154584 79.2920847"></polyline>
                <path d="M166.880784,64.0186428 C164.444412,65.7835369 162.098387,67.8047322 159.855015,70.0602428 L159.855015,64.0186428 L166.880784,64.0186428 Z" id="Stroke-39" stroke="#9FA0A0" stroke-width="1.6749" mask="url(#mask-2)"></path>
                <path d="M223.086034,64.0186428 L223.086034,70.2900405 C220.775127,67.9405628 218.353763,65.8440734 215.834547,64.0186428 L223.086034,64.0186428 Z" id="Stroke-40" stroke="#9FA0A0" stroke-width="1.6749" mask="url(#mask-2)"></path>
                <polyline id="Stroke-41" stroke="#9FA0A0" stroke-width="1.6749" mask="url(#mask-2)" points="230.560927 79.2921751 242.293754 79.2921751 254.701633 79.2921751 254.701633 64.0186127 242.293754 64.0186127 223.086124 64.0186127 223.086124 70.2900104"></polyline>
                <polygon id="Stroke-42" stroke="#9FA0A0" stroke-width="1.6749" mask="url(#mask-2)" points="254.700403 79.2922353 286.315912 79.2922353 286.315912 64.0186729 254.700403 64.0186729"></polygon>
                <polygon id="Stroke-43" stroke="#9FA0A0" stroke-width="1.6749" mask="url(#mask-2)" points="286.315912 79.2922353 317.931422 79.2922353 317.931422 64.0186729 286.315912 64.0186729"></polygon>
                <path d="M349.547862,79.1036687 L349.547862,79.2922052 L317.932652,79.2922052 L317.932652,64.0186428 L332.465641,64.0186428 C338.55282,68.7516311 344.261201,73.7897111 349.547862,79.1036687 Z" id="Stroke-44" stroke="#9FA0A0" stroke-width="1.6749" mask="url(#mask-2)"></path>
                <path d="M52.6009379,79.2921751 L52.6009379,94.5654362 L20.9854284,94.5654362 L20.9854284,92.7665092 C24.6914637,88.1055021 28.6985562,83.6101421 32.9817929,79.2921751 L52.6009379,79.2921751 Z" id="Stroke-45" stroke="#9FA0A0" stroke-width="1.6749" mask="url(#mask-2)"></path>
                <polygon id="Stroke-46" stroke="#9FA0A0" stroke-width="1.6749" mask="url(#mask-2)" points="52.6009679 94.5654965 84.2164773 94.5654965 84.2164773 79.2922353 52.6009679 79.2922353"></polygon>
                <polygon id="Stroke-47" stroke="#9FA0A0" stroke-width="1.6749" mask="url(#mask-2)" points="84.2164773 94.5654965 115.831987 94.5654965 115.831987 79.2922353 84.2164773 79.2922353"></polygon>
                <polyline id="Stroke-48" stroke="#9FA0A0" stroke-width="1.6749" mask="url(#mask-2)" points="147.447406 86.766592 147.447406 79.2922955 128.239776 79.2922955 115.831897 79.2922955 115.831897 94.5655567 131.639651 94.5655567 143.515353 94.5655567"></polyline>
                <path d="M152.154494,79.2921751 C150.496128,81.6416527 148.925108,84.1381045 147.447436,86.7664715 L147.447436,79.2921751 L152.154494,79.2921751 Z" id="Stroke-49" stroke="#9FA0A0" stroke-width="1.6749" mask="url(#mask-2)"></path>
                <path d="M242.293694,79.2921751 L242.293694,94.5654362 L239.199678,94.5654362 C236.683464,88.9843351 233.785151,83.8589139 230.560867,79.2921751 L242.293694,79.2921751 Z" id="Stroke-50" stroke="#9FA0A0" stroke-width="1.6749" mask="url(#mask-2)"></path>
                <polygon id="Stroke-51" stroke="#9FA0A0" stroke-width="1.6749" mask="url(#mask-2)" points="242.294324 94.5654965 273.909834 94.5654965 273.909834 79.2922353 242.294324 79.2922353"></polygon>
                <polygon id="Stroke-52" stroke="#9FA0A0" stroke-width="1.6749" mask="url(#mask-2)" points="273.909234 94.5654965 305.524743 94.5654965 305.524743 79.2922353 273.909234 79.2922353"></polygon>
                <polygon id="Stroke-53" stroke="#9FA0A0" stroke-width="1.6749" mask="url(#mask-2)" points="305.525343 94.5654965 337.140853 94.5654965 337.140853 79.2922353 305.525343 79.2922353"></polygon>
                <path d="M363.142561,94.5654061 L337.139982,94.5654061 L337.139982,79.2921449 L349.733659,79.2921449 C354.566482,84.1606626 359.047522,89.2631944 363.142561,94.5654061 Z" id="Stroke-54" stroke="#9FA0A0" stroke-width="1.6749" mask="url(#mask-2)"></path>
                <path d="M36.7931832,94.5654061 L36.7931832,109.838968 L9.18986889,109.838968 C12.3036949,104.585848 15.7741071,99.4869308 19.5728908,94.5654061 L36.7931832,94.5654061 Z" id="Stroke-55" stroke="#9FA0A0" stroke-width="1.6749" mask="url(#mask-2)"></path>
                <path d="M68.4087226,94.5654061 L68.4087226,99.2718908 C64.9812328,102.055063 61.8520987,105.626413 59.1224734,109.838968 L36.7932132,109.838968 L36.7932132,94.5654061 L68.4087226,94.5654061 Z" id="Stroke-56" stroke="#9FA0A0" stroke-width="1.6749" mask="url(#mask-2)"></path>
                <path d="M68.4087226,94.5654061 L76.1719765,94.5654061 C73.4546575,95.6930108 70.855,97.2808132 68.4087226,99.2718908 L68.4087226,94.5654061 Z" id="Stroke-57" stroke="#9FA0A0" stroke-width="1.6749" mask="url(#mask-2)"></path>
                <path d="M100.024112,94.5654061 L100.024112,96.7152038 C98.6668031,95.877632 97.2689732,95.1575191 95.8414277,94.5654061 L100.024112,94.5654061 Z" id="Stroke-58" stroke="#9FA0A0" stroke-width="1.6749" mask="url(#mask-2)"></path>
                <path d="M131.639651,94.5654061 L131.639651,109.838968 L112.891261,109.838968 C109.237753,104.200945 104.869272,99.7055849 100.024142,96.7152038 L100.024142,94.5654061 L131.639651,94.5654061 Z" id="Stroke-59" stroke="#9FA0A0" stroke-width="1.6749" mask="url(#mask-2)"></path>
                <path d="M143.515473,94.5654061 C141.362749,99.3399567 139.490671,104.453632 137.93766,109.838968 L131.639771,109.838968 L131.639771,94.5654061 L143.515473,94.5654061 Z" id="Stroke-60" stroke="#9FA0A0" stroke-width="1.6749" mask="url(#mask-2)"></path>
                <path d="M258.101479,94.5654061 L258.101479,109.838968 L244.777821,109.838968 C243.22481,104.453632 241.352733,99.3399567 239.199708,94.5654061 L258.101479,94.5654061 Z" id="Stroke-61" stroke="#9FA0A0" stroke-width="1.6749" mask="url(#mask-2)"></path>
                <path d="M283.865703,94.5654061 C277.341796,97.2732838 271.492942,102.620672 266.815599,109.838968 L258.101449,109.838968 L258.101449,94.5654061 L283.865703,94.5654061 Z" id="Stroke-62" stroke="#9FA0A0" stroke-width="1.6749" mask="url(#mask-2)"></path>
                <path d="M321.332258,94.5654061 L321.332258,109.838968 L320.582166,109.838968 C315.905124,102.620672 310.056269,97.2732838 303.532363,94.5654061 L321.332258,94.5654061 Z" id="Stroke-63" stroke="#9FA0A0" stroke-width="1.6749" mask="url(#mask-2)"></path>
                <polygon id="Stroke-64" stroke="#9FA0A0" stroke-width="1.6749" mask="url(#mask-2)" points="321.333098 109.839059 352.948607 109.839059 352.948607 94.5654965 321.333098 94.5654965"></polygon>
                <polygon id="Stroke-65" stroke="#9FA0A0" stroke-width="1.6749" mask="url(#mask-2)" points="20.9854585 125.11232 52.6009679 125.11232 52.6009679 109.839059 20.9854585 109.839059"></polygon>
                <path d="M59.1223233,109.838938 C56.5778946,113.760858 54.3774455,118.23363 52.6008178,123.132567 L52.6008178,109.838938 L59.1223233,109.838938 Z" id="Stroke-66" stroke="#9FA0A0" stroke-width="1.6749" mask="url(#mask-2)"></path>
                <path d="M115.831867,109.838938 L115.831867,114.911352 C114.913387,113.134712 113.932475,111.441498 112.891231,109.838938 L115.831867,109.838938 Z" id="Stroke-67" stroke="#9FA0A0" stroke-width="1.6749" mask="url(#mask-2)"></path>
                <path d="M137.93766,109.838938 C136.544933,114.665894 135.408539,119.711804 134.555194,124.939023 L120.044717,124.939023 C118.850393,121.371287 117.437855,118.014675 115.832017,114.911352 L115.832017,109.838938 L137.93766,109.838938 Z" id="Stroke-68" stroke="#9FA0A0" stroke-width="1.6749" mask="url(#mask-2)"></path>
                <path d="M266.815689,109.838938 C263.960298,114.236115 261.541635,119.327202 259.662054,124.939023 L248.160348,124.939023 C247.307002,119.711804 246.170609,114.665894 244.777881,109.838938 L266.815689,109.838938 Z" id="Stroke-69" stroke="#9FA0A0" stroke-width="1.6749" mask="url(#mask-2)"></path>
                <path d="M337.140042,109.838938 L337.140042,124.939023 L327.735831,124.939023 C325.85625,119.327202 323.437887,114.236115 320.582196,109.838938 L337.140042,109.838938 Z" id="Stroke-70" stroke="#9FA0A0" stroke-width="1.6749" mask="url(#mask-2)"></path>
                <polygon id="Stroke-71" stroke="#9FA0A0" stroke-width="1.6749" mask="url(#mask-2)" points="337.139952 125.11232 368.755462 125.11232 368.755462 109.839059 337.139952 109.839059"></polygon>
                <path d="M15.6058993,83.0292329 C15.6058993,83.0292329 82.8515145,-5.18324706 197.269463,1.60496941 C314.698283,4.62215529 374.136822,94.5654965 374.136822,94.5654965" id="Stroke-72" stroke="#9FA0A0" stroke-width="2.4555" mask="url(#mask-2)"></path>
                <polygon id="Fill-73" fill="#9FA0A0" mask="url(#mask-2)" points="18.6847571 93.8742965 20.9854585 93.8742965 20.9854585 77.9682635 18.6847571 77.9682635"></polygon>
                <polygon id="Fill-74" fill="#9FA0A0" mask="url(#mask-2)" points="36.2415251 74.7327247 38.5422265 74.7327247 38.5422265 59.6187859 36.2415251 59.6187859"></polygon>
                <polygon id="Fill-75" fill="#9FA0A0" mask="url(#mask-2)" points="55.8615705 58.6206871 58.1625721 58.6206871 58.1625721 44.14976 55.8615705 44.14976"></polygon>
                <polygon id="Fill-76" fill="#9FA0A0" mask="url(#mask-2)" points="78.5143997 45.0903341 80.8154013 45.0903341 80.8154013 29.9456753 78.5143997 29.9456753"></polygon>
                <polygon id="Fill-77" fill="#9FA0A0" mask="url(#mask-2)" points="104.496567 32.8966024 106.797569 32.8966024 106.797569 17.7522447 104.496567 17.7522447"></polygon>
                <polygon id="Fill-78" fill="#9FA0A0" mask="url(#mask-2)" points="124.583657 27.0158306 126.884658 27.0158306 126.884658 10.7998871 124.583657 10.7998871"></polygon>
                <polygon id="Fill-79" fill="#9FA0A0" mask="url(#mask-2)" points="151.004053 20.7302776 153.305055 20.7302776 153.305055 4.51433412 151.004053 4.51433412"></polygon>
                <polygon id="Fill-80" fill="#9FA0A0" mask="url(#mask-2)" points="176.762604 18.1985882 179.063606 18.1985882 179.063606 1.98264471 176.762604 1.98264471"></polygon>
                <polygon id="Fill-81" fill="#9FA0A0" mask="url(#mask-2)" points="205.701616 18.1985882 208.002618 18.1985882 208.002618 1.98264471 205.701616 1.98264471"></polygon>
                <polygon id="Fill-82" fill="#9FA0A0" mask="url(#mask-2)" points="230.560897 20.7302776 232.861599 20.7302776 232.861599 4.51433412 230.560897 4.51433412"></polygon>
                <polygon id="Fill-83" fill="#9FA0A0" mask="url(#mask-2)" points="255.796575 27.8187671 258.097577 27.8187671 258.097577 11.6028235 255.796575 11.6028235"></polygon>
                <polygon id="Fill-84" fill="#9FA0A0" mask="url(#mask-2)" points="278.21198 35.1238024 280.512682 35.1238024 280.512682 18.9078588 278.21198 18.9078588"></polygon>
                <polygon id="Fill-85" fill="#9FA0A0" mask="url(#mask-2)" points="302.927187 46.7314447 305.228188 46.7314447 305.228188 30.5155012 302.927187 30.5155012"></polygon>
                <polygon id="Fill-86" fill="#9FA0A0" mask="url(#mask-2)" points="325.635245 59.9003859 327.935946 59.9003859 327.935946 46.7311435 325.635245 46.7311435"></polygon>
                <polygon id="Fill-87" fill="#9FA0A0" mask="url(#mask-2)" points="343.95231 75.1736471 346.253011 75.1736471 346.253011 62.0047059 343.95231 62.0047059"></polygon>
            </g>
        </g>
    </g>
</svg>