<?xml version="1.0" encoding="UTF-8"?>
<svg width="251px" height="101px" viewBox="0 0 251 101" version="1.1" xmlns="http://www.w3.org/2000/svg" xmlns:xlink="http://www.w3.org/1999/xlink">
    <!-- Generator: Sketch 52.6 (67491) - http://www.bohemiancoding.com/sketch -->
    <title>分组</title>
    <desc>Created with Sketch.</desc>
    <defs>
        <polygon id="path-1" points="0.0002 0.814 250.074 0.814 250.074 82.8248 0.0002 82.8248"></polygon>
        <polygon id="path-3" points="0.0001 0.6886 250.074 0.6886 250.074 19.8246 0.0001 19.8246"></polygon>
        <polygon id="path-5" points="0.2146 0.0703 49.1446 0.0703 49.1446 49 0.2146 49"></polygon>
        <polygon id="path-7" points="0.5671 0.0703 49.4981 0.0703 49.4981 49 0.5671 49"></polygon>
    </defs>
    <g id="图示" stroke="none" stroke-width="1" fill="none" fill-rule="evenodd">
        <g id="场景" transform="translate(-599.000000, -949.000000)">
            <g id="分组" transform="translate(599.000000, 948.000000)">
                <g transform="translate(0.000000, 0.186000)">
                    <mask id="mask-2" fill="white">
                        <use xlink:href="#path-1"></use>
                    </mask>
                    <g id="Clip-2"></g>
                    <path d="M236.9132,35.7638 L218.4482,35.7638 L202.5802,15.7208 C195.2782,6.4968 181.7812,0.8138 167.1762,0.8138 L133.2252,0.8138 C118.6202,0.8138 105.1232,6.4968 97.8212,15.7208 L81.9532,35.7638 L33.4512,35.7638 C15.0542,35.7638 0.0002,50.8168 0.0002,69.2158 L0.0002,69.6638 C0.0002,76.9028 5.9232,82.8248 13.1612,82.8248 L236.9132,82.8248 C244.1512,82.8248 250.0742,76.9028 250.0742,69.6638 L250.0742,48.9238 C250.0742,41.6858 244.1512,35.7638 236.9132,35.7638" id="Fill-1" fill="#E26035" mask="url(#mask-2)"></path>
                </g>
                <path d="M196.1007,37.3482 C198.9557,37.3482 200.5517,34.0512 198.7787,31.8132 L190.5387,21.4052 C184.7297,14.0672 173.9947,9.5472 162.3757,9.5472 L135.3717,9.5472 C123.7527,9.5472 113.0167,14.0672 107.2077,21.4052 L98.9687,31.8132 C97.1967,34.0512 98.7897,37.3482 101.6457,37.3482 L196.1007,37.3482 Z" id="Fill-3" fill="#FFFFFE"></path>
                <g transform="translate(0.000000, 63.186000)">
                    <mask id="mask-4" fill="white">
                        <use xlink:href="#path-3"></use>
                    </mask>
                    <g id="Clip-6"></g>
                    <path d="M0.5001,0.6886 C0.1951,2.4916 0.0001,4.3306 0.0001,6.2156 L0.0001,6.6646 C0.0001,13.9026 5.9231,19.8246 13.1611,19.8246 L236.9131,19.8246 C244.1511,19.8246 250.0741,13.9026 250.0741,6.6646 L250.0741,0.6886 L0.5001,0.6886 Z" id="Fill-5" fill="#E9863F" mask="url(#mask-4)"></path>
                </g>
                <g transform="translate(28.000000, 52.186000)">
                    <mask id="mask-6" fill="white">
                        <use xlink:href="#path-5"></use>
                    </mask>
                    <g id="Clip-8"></g>
                    <path d="M49.1446,24.5353 C49.1446,38.0463 38.1916,49.0003 24.6786,49.0003 C11.1666,49.0003 0.2146,38.0463 0.2146,24.5353 C0.2146,11.0213 11.1666,0.0703 24.6786,0.0703 C38.1916,0.0703 49.1446,11.0213 49.1446,24.5353" id="Fill-7" fill="#FFFFFE" mask="url(#mask-6)"></path>
                </g>
                <path d="M65.5245,76.7213 C65.5245,83.8143 59.7735,89.5653 52.6785,89.5653 C45.5855,89.5653 39.8355,83.8143 39.8355,76.7213 C39.8355,69.6253 45.5855,63.8743 52.6785,63.8743 C59.7735,63.8743 65.5245,69.6253 65.5245,76.7213" id="Fill-9" fill="#863B22"></path>
                <g transform="translate(169.000000, 52.186000)">
                    <mask id="mask-8" fill="white">
                        <use xlink:href="#path-7"></use>
                    </mask>
                    <g id="Clip-12"></g>
                    <path d="M49.4981,24.5353 C49.4981,38.0463 38.5451,49.0003 25.0321,49.0003 C11.5201,49.0003 0.5671,38.0463 0.5671,24.5353 C0.5671,11.0213 11.5201,0.0703 25.0321,0.0703 C38.5451,0.0703 49.4981,11.0213 49.4981,24.5353" id="Fill-11" fill="#FFFFFE" mask="url(#mask-8)"></path>
                </g>
                <path d="M206.878,76.7213 C206.878,83.8143 201.127,89.5653 194.032,89.5653 C186.939,89.5653 181.188,83.8143 181.188,76.7213 C181.188,69.6253 186.939,63.8743 194.032,63.8743 C201.127,63.8743 206.878,69.6253 206.878,76.7213" id="Fill-13" fill="#863B22"></path>
            </g>
        </g>
    </g>
</svg>