<?xml version="1.0" encoding="UTF-8"?>
<svg width="230px" height="168px" viewBox="0 0 230 168" version="1.1" xmlns="http://www.w3.org/2000/svg" xmlns:xlink="http://www.w3.org/1999/xlink">
    <!-- Generator: Sketch 52.6 (67491) - http://www.bohemiancoding.com/sketch -->
    <title>分组</title>
    <desc>Created with Sketch.</desc>
    <defs>
        <polygon id="path-1" points="0 208.870186 229.921992 208.870186 229.921992 0.0415403727 0 0.0415403727"></polygon>
    </defs>
    <g id="图示" stroke="none" stroke-width="1" fill="none" fill-rule="evenodd">
        <g id="场景" transform="translate(-68.000000, -95.000000)">
            <g id="分组" transform="translate(68.000000, 54.000000)">
                <polygon id="Fill-1" fill="#5E9834" points="0.773459368 204.330602 228.700604 204.330602 228.700604 193.723528 0.773459368 193.723528"></polygon>
                <polygon id="Fill-2" fill="#A4A4A4" points="0.773459368 208.95846 228.700604 208.95846 228.700604 204.330602 0.773459368 204.330602"></polygon>
                <g transform="translate(0.000000, 0.088273)">
                    <path d="M171.161639,125.311597 C171.320121,125.311597 171.447192,195.647366 171.447192,195.647366 L57.8883262,195.647366 C57.7308826,195.647366 57.8883262,125.311597 57.8883262,125.311597 C57.8883262,125.158936 171.161639,125.311597 171.161639,125.311597" id="Fill-3" fill="#D6D6D6"></path>
                    <mask id="mask-2" fill="white">
                        <use xlink:href="#path-1"></use>
                    </mask>
                    <g id="Clip-6"></g>
                    <polygon id="Fill-5" fill="#D2633A" mask="url(#mask-2)" points="57.0785497 128.542789 173.466857 128.542789 173.466857 124.80052 57.0785497 124.80052"></polygon>
                    <polygon id="Fill-7" fill="#D2633A" mask="url(#mask-2)" points="57.9023702 195.647366 171.321315 195.647366 171.321315 191.623143 57.9023702 191.623143"></polygon>
                    <polygon id="Fill-8" fill="#C2C2C2" mask="url(#mask-2)" points="81.5821163 191.61146 148.984577 191.61146 148.984577 133.757014 81.5821163 133.757014"></polygon>
                    <polygon id="Fill-9" fill="#E1E1E1" mask="url(#mask-2)" points="155.95982 182.614062 155.95982 183.045043 156.563375 183.045043 156.563375 190.75208 155.87039 190.75208 155.87039 191.177999 156.563375 191.177999 166.168341 191.177999 166.683635 191.177999 166.683635 190.75208 166.168341 190.75208 166.168341 183.045043 166.773324 183.045043 166.773324 182.614062 166.168341 182.614062 156.563375 182.614062"></polygon>
                    <polygon id="Fill-10" fill="#E1E1E1" mask="url(#mask-2)" points="63.7944977 182.616723 63.7944977 183.046406 64.3988318 183.046406 64.3988318 190.754612 63.7051975 190.754612 63.7051975 191.18053 64.3988318 191.18053 74.003798 191.18053 74.5189616 191.18053 74.5189616 190.754612 74.003798 190.754612 74.003798 183.046406 74.6081321 183.046406 74.6081321 182.616723 74.003798 182.616723 64.3988318 182.616723"></polygon>
                    <polygon id="Fill-11" fill="#E1E1E1" mask="url(#mask-2)" points="155.95982 166.804042 155.95982 167.235024 156.563375 167.235024 156.563375 174.942061 155.87039 174.942061 155.87039 175.36785 156.563375 175.36785 166.168341 175.36785 166.683635 175.36785 166.683635 174.942061 166.168341 174.942061 166.168341 167.235024 166.773324 167.235024 166.773324 166.804042 166.168341 166.804042 156.563375 166.804042"></polygon>
                    <polygon id="Fill-12" fill="#E1E1E1" mask="url(#mask-2)" points="63.7944977 166.806704 63.7944977 167.236387 64.3988318 167.236387 64.3988318 174.944592 63.7051975 174.944592 63.7051975 175.370511 64.3988318 175.370511 74.003798 175.370511 74.5189616 175.370511 74.5189616 174.944592 74.003798 174.944592 74.003798 167.236387 74.6081321 167.236387 74.6081321 166.806704 74.003798 166.806704 64.3988318 166.806704"></polygon>
                    <polygon id="Fill-13" fill="#E1E1E1" mask="url(#mask-2)" points="156.049445 151.437986 156.049445 151.868967 156.653 151.868967 156.653 159.576005 155.959885 159.576005 155.959885 160.001923 156.653 160.001923 166.257966 160.001923 166.77326 160.001923 166.77326 159.576005 166.257966 159.576005 166.257966 151.868967 166.862819 151.868967 166.862819 151.437986 166.257966 151.437986 156.653 151.437986"></polygon>
                    <polygon id="Fill-14" fill="#E1E1E1" mask="url(#mask-2)" points="63.8836682 151.440647 63.8836682 151.87033 64.4880023 151.87033 64.4880023 159.578536 63.7944977 159.578536 63.7944977 160.004455 64.4880023 160.004455 74.0929684 160.004455 74.6081321 160.004455 74.6081321 159.578536 74.0929684 159.578536 74.0929684 151.87033 74.6974323 151.87033 74.6974323 151.440647 74.0929684 151.440647 64.4880023 151.440647"></polygon>
                    <polygon id="Fill-15" fill="#E1E1E1" mask="url(#mask-2)" points="155.95982 135.949022 155.95982 136.378965 156.563375 136.378965 156.563375 144.086651 155.87039 144.086651 155.87039 144.51257 156.563375 144.51257 166.168341 144.51257 166.683635 144.51257 166.683635 144.086651 166.168341 144.086651 166.168341 136.378965 166.773324 136.378965 166.773324 135.949022 166.168341 135.949022 156.563375 135.949022"></polygon>
                    <polygon id="Fill-16" fill="#E1E1E1" mask="url(#mask-2)" points="63.7944977 135.950865 63.7944977 136.380808 64.3988318 136.380808 64.3988318 144.088494 63.7051975 144.088494 63.7051975 144.514543 64.3988318 144.514543 74.003798 144.514543 74.5189616 144.514543 74.5189616 144.088494 74.003798 144.088494 74.003798 136.380808 74.6081321 136.380808 74.6081321 135.950865 74.003798 135.950865 64.3988318 135.950865"></polygon>
                    <polygon id="Fill-17" fill="#E1E1E1" mask="url(#mask-2)" points="88.8184199 136.813101 88.8184199 137.243043 89.422754 137.243043 89.422754 144.95073 88.7291196 144.95073 88.7291196 145.376778 89.422754 145.376778 99.0277201 145.376778 99.5428837 145.376778 99.5428837 144.95073 99.0277201 144.95073 99.0277201 137.243043 99.6320542 137.243043 99.6320542 136.813101 99.0277201 136.813101 89.422754 136.813101"></polygon>
                    <polygon id="Fill-18" fill="#E1E1E1" mask="url(#mask-2)" points="89.1233256 151.012288 89.1233256 151.44314 89.7276597 151.44314 89.7276597 159.150177 89.0340254 159.150177 89.0340254 159.576095 89.7276597 159.576095 99.3326258 159.576095 99.8477895 159.576095 99.8477895 159.150177 99.3326258 159.150177 99.3326258 151.44314 99.9369599 151.44314 99.9369599 151.012288 99.3326258 151.012288 89.7276597 151.012288"></polygon>
                    <polygon id="Fill-19" fill="#E1E1E1" mask="url(#mask-2)" points="132.220056 136.809037 132.220056 137.23898 132.823481 137.23898 132.823481 144.946667 132.130496 144.946667 132.130496 145.372585 132.823481 145.372585 142.428448 145.372585 142.943741 145.372585 142.943741 144.946667 142.428448 144.946667 142.428448 137.23898 143.033431 137.23898 143.033431 136.809037 142.428448 136.809037 132.823481 136.809037"></polygon>
                    <polygon id="Fill-20" fill="#E1E1E1" mask="url(#mask-2)" points="132.525027 151.008355 132.525027 151.438038 133.128582 151.438038 133.128582 159.146373 132.435597 159.146373 132.435597 159.572162 133.128582 159.572162 142.733548 159.572162 143.248841 159.572162 143.248841 159.146373 142.733548 159.146373 142.733548 151.438038 143.338531 151.438038 143.338531 151.008355 142.733548 151.008355 133.128582 151.008355"></polygon>
                    <path d="M161.646258,190.752093 L165.730965,190.752093 L165.730965,183.045056 L161.646258,183.045056 L161.646258,190.752093 Z M157.002128,190.752093 L161.06996,190.752093 L161.06996,183.045056 L157.002128,183.045056 L157.002128,190.752093 Z" id="Fill-21" fill="#7385A3" mask="url(#mask-2)"></path>
                    <path d="M69.4811569,190.754689 L73.5657336,190.754689 L73.5657336,183.046354 L69.4811569,183.046354 L69.4811569,190.754689 Z M64.8368962,190.754689 L68.9052483,190.754689 L68.9052483,183.046354 L64.8368962,183.046354 L64.8368962,190.754689 Z" id="Fill-22" fill="#7385A3" mask="url(#mask-2)"></path>
                    <path d="M161.646258,174.942087 L165.730965,174.942087 L165.730965,167.23505 L161.646258,167.23505 L161.646258,174.942087 Z M157.002128,174.942087 L161.06996,174.942087 L161.06996,167.23505 L157.002128,167.23505 L157.002128,174.942087 Z" id="Fill-23" fill="#7385A3" mask="url(#mask-2)"></path>
                    <path d="M69.4811569,174.944683 L73.5657336,174.944683 L73.5657336,167.236348 L69.4811569,167.236348 L69.4811569,174.944683 Z M64.8368962,174.944683 L68.9052483,174.944683 L68.9052483,167.236348 L64.8368962,167.236348 L64.8368962,174.944683 Z" id="Fill-24" fill="#7385A3" mask="url(#mask-2)"></path>
                    <path d="M161.735818,159.576043 L165.820525,159.576043 L165.820525,151.869006 L161.735818,151.869006 L161.735818,159.576043 Z M157.091558,159.576043 L161.15952,159.576043 L161.15952,151.869006 L157.091558,151.869006 L157.091558,159.576043 Z" id="Fill-25" fill="#7385A3" mask="url(#mask-2)"></path>
                    <path d="M69.5704571,159.57864 L73.6549041,159.57864 L73.6549041,151.870304 L69.5704571,151.870304 L69.5704571,159.57864 Z M64.9260666,159.57864 L68.9944187,159.57864 L68.9944187,151.870304 L64.9260666,151.870304 L64.9260666,159.57864 Z" id="Fill-26" fill="#7385A3" mask="url(#mask-2)"></path>
                    <path d="M161.646258,144.086677 L165.730965,144.086677 L165.730965,136.378991 L161.646258,136.378991 L161.646258,144.086677 Z M157.002128,144.086677 L161.06996,144.086677 L161.06996,136.378991 L157.002128,136.378991 L157.002128,144.086677 Z" id="Fill-27" fill="#7385A3" mask="url(#mask-2)"></path>
                    <path d="M69.4811569,144.088494 L73.5657336,144.088494 L73.5657336,136.380808 L69.4811569,136.380808 L69.4811569,144.088494 Z M64.8368962,144.088494 L68.9052483,144.088494 L68.9052483,136.380808 L64.8368962,136.380808 L64.8368962,144.088494 Z" id="Fill-28" fill="#7385A3" mask="url(#mask-2)"></path>
                    <path d="M94.505079,144.950717 L98.5896558,144.950717 L98.5896558,137.24303 L94.505079,137.24303 L94.505079,144.950717 Z M89.8608183,144.950717 L93.9291704,144.950717 L93.9291704,137.24303 L89.8608183,137.24303 L89.8608183,144.950717 Z" id="Fill-29" fill="#7385A3" mask="url(#mask-2)"></path>
                    <path d="M94.8099718,159.150255 L98.8945485,159.150255 L98.8945485,151.443217 L94.8099718,151.443217 L94.8099718,159.150255 Z M90.1657111,159.150255 L94.2340632,159.150255 L94.2340632,151.443217 L90.1657111,151.443217 L90.1657111,159.150255 Z" id="Fill-30" fill="#7385A3" mask="url(#mask-2)"></path>
                    <path d="M137.906416,144.946693 L141.991123,144.946693 L141.991123,137.239006 L137.906416,137.239006 L137.906416,144.946693 Z M133.262286,144.946693 L137.330119,144.946693 L137.330119,137.239006 L133.262286,137.239006 L133.262286,144.946693 Z" id="Fill-31" fill="#7385A3" mask="url(#mask-2)"></path>
                    <path d="M138.211439,159.14649 L142.296146,159.14649 L142.296146,151.438025 L138.211439,151.438025 L138.211439,159.14649 Z M133.567308,159.14649 L137.635141,159.14649 L137.635141,151.438025 L133.567308,151.438025 L133.567308,159.14649 Z" id="Fill-32" fill="#7385A3" mask="url(#mask-2)"></path>
                    <path d="M161.663158,183.045082 L161.646284,190.768995 L165.694648,190.74433 L161.663158,183.045082 Z M157.002153,183.045082 L156.986578,190.768995 L161.029749,190.74433 L157.002153,183.045082 Z" id="Fill-33" fill="#556D92" mask="url(#mask-2)"></path>
                    <polygon id="Fill-34" fill="#D2633A" mask="url(#mask-2)" points="77.9542946 164.258422 153.401563 164.258422 153.401563 160.881969 77.9542946 160.881969"></polygon>
                    <path d="M79.2705514,164.259746 L79.2705514,181.992293 L79.2705514,196.34579 L84.9225547,196.34579 L84.9225547,177.191784 C84.9225547,177.191784 84.920478,173.517927 90.8551789,173.517927 C96.78975,173.517927 96.7918267,177.191784 96.7918267,177.191784 L96.7918267,196.34579 L101.497741,196.34579 L101.497741,177.191784 C101.497741,177.191784 101.497741,173.963318 106.387707,173.559597 C106.713757,173.532337 107.059276,173.517927 107.430235,173.517927 C113.364936,173.517927 113.367013,177.191784 113.367013,177.191784 L113.367013,196.34579 L118.094214,196.34579 L118.094214,177.191784 C118.094214,177.191784 118.091618,173.517927 124.025929,173.517927 C129.961539,173.517927 129.962837,177.191784 129.962837,177.191784 L129.962837,196.34579 L135.246866,196.34579 L135.246866,177.191784 C135.246866,177.191784 135.24427,173.517927 141.178582,173.517927 C147.114191,173.517927 147.115489,177.191784 147.115489,177.191784 L147.115489,196.34579 L151.934846,196.34579 L151.934846,164.259746 L79.2705514,164.259746 Z" id="Fill-35" fill="#DE793D" mask="url(#mask-2)"></path>
                    <path d="M147.311495,198.886088 L151.010705,198.886088 L151.010705,196.914348 L147.311495,196.914348 L147.311495,198.886088 Z M130.693736,198.886088 L134.392946,198.886088 L134.392946,196.914348 L130.693736,196.914348 L130.693736,198.886088 Z M113.605333,198.886088 L117.305062,198.886088 L117.305062,196.914348 L113.605333,196.914348 L113.605333,198.886088 Z M83.3586456,198.886088 L87.0578555,198.886088 L87.0578555,196.914348 L83.3586456,196.914348 L83.3586456,198.886088 Z M117.305062,195.62413 L121.004272,195.62413 L121.004272,193.65226 L117.305062,193.65226 L117.305062,195.62413 Z M148.281208,193.65213 L151.980418,193.65213 L151.980418,191.681429 L148.281208,191.681429 L148.281208,193.65213 Z M133.963188,193.65213 L137.662398,193.65213 L137.662398,191.681429 L133.963188,191.681429 L133.963188,193.65213 Z M84.0360553,192.666845 L87.7311117,192.666845 L87.7311117,190.694975 L84.0360553,190.694975 L84.0360553,192.666845 Z M112.737381,189.814968 L116.436721,189.814968 L116.436721,187.839075 L112.737381,187.839075 L112.737381,189.814968 Z M97.5673758,185.733497 L101.266586,185.733497 L101.266586,183.762796 L97.5673758,183.762796 L97.5673758,185.733497 Z M101.266586,179.754409 L104.965796,179.754409 L104.965796,177.783708 L101.266586,177.783708 L101.266586,179.754409 Z M143.552579,179.608758 L147.251789,179.608758 L147.251789,177.637019 L143.552579,177.637019 L143.552579,179.608758 Z M81.5821163,179.608758 L85.2813262,179.608758 L85.2813262,177.637019 L81.5821163,177.637019 L81.5821163,179.608758 Z M146.849419,175.710584 L150.548629,175.710584 L150.548629,173.738714 L146.849419,173.738714 L146.849419,175.710584 Z M117.345299,175.710584 L121.044509,175.710584 L121.044509,173.738714 L117.345299,173.738714 L117.345299,175.710584 Z" id="Fill-36" fill="#868686" mask="url(#mask-2)"></path>
                    <polygon id="Fill-37" fill="#D6D6D6" mask="url(#mask-2)" points="89.9000169 124.80052 140.64513 124.80052 140.64513 84.8129789 89.9000169 84.8129789"></polygon>
                    <polygon id="Fill-38" fill="#D7D7D7" mask="url(#mask-2)" points="96.5563883 84.8129789 134.800378 84.8129789 134.800378 64.0046273 96.5563883 64.0046273"></polygon>
                    <polygon id="Fill-39" fill="#C2C2C2" mask="url(#mask-2)" points="103.742331 124.80052 127.613527 124.80052 127.613527 87.1030217 103.742331 87.1030217"></polygon>
                    <path d="M109.41675,94.3206745 C109.41675,90.9725204 112.083945,88.2582465 115.373776,88.2582465 C118.663996,88.2582465 121.331321,90.9725204 121.331321,94.3206745 C121.331321,97.6688285 118.663996,100.382973 115.373776,100.382973 C112.083945,100.382973 109.41675,97.6688285 109.41675,94.3206745" id="Fill-40" fill="#FFFFFF" mask="url(#mask-2)"></path>
                    <polygon id="Fill-41" fill="#000000" mask="url(#mask-2)" points="114.935361 95.1279727 118.12408 95.1279727 118.12408 94.5852217 114.935361 94.5852217"></polygon>
                    <polygon id="Fill-42" fill="#000000" mask="url(#mask-2)" points="114.935361 94.7834472 115.373685 94.7834472 115.373685 91.6317012 114.935361 91.6317012"></polygon>
                    <path d="M101.50954,73.6700335 C101.50954,73.6700335 101.50954,72.2475354 103.813174,72.2475354 C106.116678,72.2475354 106.116678,73.6700335 106.116678,73.6700335 L106.116678,76.1842646 L106.116678,84.8129789 L101.50954,84.8129789 L101.50954,73.6700335 Z" id="Fill-43" fill="#7385A3" mask="url(#mask-2)"></path>
                    <path d="M108.962461,73.6700335 C108.962461,73.6700335 108.962461,72.2475354 111.266095,72.2475354 C113.56973,72.2475354 113.56973,73.6700335 113.56973,73.6700335 L113.56973,76.1843944 L113.56973,84.8129789 L108.962461,84.8129789 L108.962461,73.6700335 Z" id="Fill-44" fill="#7385A3" mask="url(#mask-2)"></path>
                    <path d="M116.855991,73.6700335 C116.855991,73.6700335 116.855991,72.2475354 119.159885,72.2475354 C121.463779,72.2475354 121.463779,73.6700335 121.463779,73.6700335 L121.463779,76.1843944 L121.463779,84.8129789 L116.855991,84.8129789 L116.855991,73.6700335 Z" id="Fill-45" fill="#7385A3" mask="url(#mask-2)"></path>
                    <path d="M125.310905,73.6700335 C125.310905,73.6700335 125.310905,72.2475354 127.613501,72.2475354 C129.917395,72.2475354 129.917395,73.6700335 129.917395,73.6700335 L129.917395,76.1842646 L129.917395,84.8129789 L125.310905,84.8129789 L125.310905,73.6700335 Z" id="Fill-46" fill="#7385A3" mask="url(#mask-2)"></path>
                    <polygon id="Fill-47" fill="#7385A3" mask="url(#mask-2)" points="109.510243 112.74875 113.569769 112.74875 113.569769 104.80675 109.510243 104.80675"></polygon>
                    <polygon id="Fill-48" fill="#7385A3" mask="url(#mask-2)" points="117.129836 112.74875 121.189881 112.74875 121.189881 104.80675 117.129836 104.80675"></polygon>
                    <polygon id="Fill-49" fill="#7385A3" mask="url(#mask-2)" points="117.129836 122.339383 121.189881 122.339383 121.189881 114.397383 117.129836 114.397383"></polygon>
                    <polygon id="Fill-50" fill="#7385A3" mask="url(#mask-2)" points="109.510243 122.339383 113.569769 122.339383 113.569769 114.397383 109.510243 114.397383"></polygon>
                    <polygon id="Fill-51" fill="#C2C2C2" mask="url(#mask-2)" points="171.321315 195.208596 228.700474 195.208596 228.700474 146.96854 171.321315 146.96854"></polygon>
                    <polygon id="Fill-52" fill="#C2C2C2" mask="url(#mask-2)" points="0.773459368 195.206 57.9023702 195.206 57.9023702 146.971137 0.773459368 146.971137"></polygon>
                    <polyline id="Fill-53" fill="#A5A5A5" mask="url(#mask-2)" points="57.9023702 148.780739 6.76994357 190.750795 57.9023702 190.750795"></polyline>
                    <polygon id="Fill-54" fill="#BB532D" mask="url(#mask-2)" points="171.321315 195.208596 228.700474 195.208596 228.700474 190.752093 171.321315 190.752093"></polygon>
                    <polygon id="Fill-55" fill="#BB532D" mask="url(#mask-2)" points="171.321315 149.187056 229.921862 149.187056 229.921862 146.96854 171.321315 146.96854"></polygon>
                    <polygon id="Fill-56" fill="#BB532D" mask="url(#mask-2)" points="0.773459368 195.206 57.9023702 195.206 57.9023702 190.750795 0.773459368 190.750795"></polygon>
                    <polygon id="Fill-57" fill="#BB532D" mask="url(#mask-2)" points="0 148.780739 57.9023702 148.780739 57.9023702 146.552877 0 146.552877"></polygon>
                    <polygon id="Fill-58" fill="#000000" mask="url(#mask-2)" points="115.842252 64.0046273 116.530305 64.0046273 116.530305 41.5432286 115.842252 41.5432286"></polygon>
                    <path d="M116.489925,41.6785074 C116.489925,41.6785074 117.620455,46.7569478 116.530292,48.6270434 C116.486031,48.7016863 120.696641,48.3449583 121.880388,48.2518819 C124.206347,48.0689745 126.436257,48.6270434 126.436257,48.6270434 L126.436257,41.5045571 C126.436257,41.5045571 124.667126,41.5045571 121.70646,41.9566981 C120.586313,42.1276627 116.489925,41.6785074 116.489925,41.6785074" id="Fill-59" fill="#DE4444" mask="url(#mask-2)"></path>
                    <polygon id="Fill-60" fill="#E1E1E1" mask="url(#mask-2)" points="184.35162 151.443191 184.35162 151.873004 184.955175 151.873004 184.955175 159.580042 184.26206 159.580042 184.26206 160.005701 184.955175 160.005701 194.560141 160.005701 195.075435 160.005701 195.075435 159.580042 194.560141 159.580042 194.560141 151.873004 195.164994 151.873004 195.164994 151.443191 194.560141 151.443191 184.955175 151.443191"></polygon>
                    <polygon id="Fill-61" fill="#E1E1E1" mask="url(#mask-2)" points="12.722167 151.617246 12.722167 152.046929 13.3266309 152.046929 13.3266309 159.755134 12.6329966 159.755134 12.6329966 160.181053 13.3266309 160.181053 22.9315971 160.181053 23.4466309 160.181053 23.4466309 159.755134 22.9315971 159.755134 22.9315971 152.046929 23.5359312 152.046929 23.5359312 151.617246 22.9315971 151.617246 13.3266309 151.617246"></polygon>
                    <polygon id="Fill-62" fill="#E1E1E1" mask="url(#mask-2)" points="184.35162 166.378228 184.35162 166.808041 184.955175 166.808041 184.955175 174.516246 184.26206 174.516246 184.26206 174.942165 184.955175 174.942165 194.560141 174.942165 195.075435 174.942165 195.075435 174.516246 194.560141 174.516246 194.560141 166.808041 195.164994 166.808041 195.164994 166.378228 194.560141 166.378228 184.955175 166.378228"></polygon>
                    <polygon id="Fill-63" fill="#E1E1E1" mask="url(#mask-2)" points="12.722167 166.553541 12.722167 166.983224 13.3266309 166.983224 13.3266309 174.690261 12.6329966 174.690261 12.6329966 175.11605 13.3266309 175.11605 22.9315971 175.11605 23.4466309 175.11605 23.4466309 174.690261 22.9315971 174.690261 22.9315971 166.983224 23.5359312 166.983224 23.5359312 166.553541 22.9315971 166.553541 13.3266309 166.553541"></polygon>
                    <polygon id="Fill-64" fill="#E1E1E1" mask="url(#mask-2)" points="184.35162 182.0299 184.35162 182.460881 184.955175 182.460881 184.955175 190.167919 184.26206 190.167919 184.26206 190.593837 184.955175 190.593837 194.560141 190.593837 195.075435 190.593837 195.075435 190.167919 194.560141 190.167919 194.560141 182.460881 195.164994 182.460881 195.164994 182.0299 194.560141 182.0299 184.955175 182.0299"></polygon>
                    <polygon id="Fill-65" fill="#E1E1E1" mask="url(#mask-2)" points="12.722167 182.205097 12.722167 182.63491 13.3266309 182.63491 13.3266309 190.341947 12.6329966 190.341947 12.6329966 190.769034 13.3266309 190.769034 22.9315971 190.769034 23.4466309 190.769034 23.4466309 190.341947 22.9315971 190.341947 22.9315971 182.63491 23.5359312 182.63491 23.5359312 182.205097 22.9315971 182.205097 13.3266309 182.205097"></polygon>
                    <polygon id="Fill-66" fill="#E1E1E1" mask="url(#mask-2)" points="206.858444 151.443191 206.858444 151.873004 207.461869 151.873004 207.461869 159.580042 206.768884 159.580042 206.768884 160.005701 207.461869 160.005701 217.066835 160.005701 217.582258 160.005701 217.582258 159.580042 217.066835 159.580042 217.066835 151.873004 217.671818 151.873004 217.671818 151.443191 217.066835 151.443191 207.461869 151.443191"></polygon>
                    <polygon id="Fill-67" fill="#E1E1E1" mask="url(#mask-2)" points="35.2290559 151.617246 35.2290559 152.046929 35.83339 152.046929 35.83339 159.755134 35.1398854 159.755134 35.1398854 160.181053 35.83339 160.181053 45.4383561 160.181053 45.9535198 160.181053 45.9535198 159.755134 45.4383561 159.755134 45.4383561 152.046929 46.04282 152.046929 46.04282 151.617246 45.4383561 151.617246 35.83339 151.617246"></polygon>
                    <polygon id="Fill-68" fill="#E1E1E1" mask="url(#mask-2)" points="206.858444 166.378228 206.858444 166.808041 207.461869 166.808041 207.461869 174.516246 206.768884 174.516246 206.768884 174.942165 207.461869 174.942165 217.066835 174.942165 217.582258 174.942165 217.582258 174.516246 217.066835 174.516246 217.066835 166.808041 217.671818 166.808041 217.671818 166.378228 217.066835 166.378228 207.461869 166.378228"></polygon>
                    <polygon id="Fill-69" fill="#E1E1E1" mask="url(#mask-2)" points="35.2290559 166.553541 35.2290559 166.983224 35.83339 166.983224 35.83339 174.690261 35.1398854 174.690261 35.1398854 175.11605 35.83339 175.11605 45.4383561 175.11605 45.9535198 175.11605 45.9535198 174.690261 45.4383561 174.690261 45.4383561 166.983224 46.04282 166.983224 46.04282 166.553541 45.4383561 166.553541 35.83339 166.553541"></polygon>
                    <polygon id="Fill-70" fill="#E1E1E1" mask="url(#mask-2)" points="206.858444 182.0299 206.858444 182.460881 207.461869 182.460881 207.461869 190.167919 206.768884 190.167919 206.768884 190.593837 207.461869 190.593837 217.066835 190.593837 217.582258 190.593837 217.582258 190.167919 217.066835 190.167919 217.066835 182.460881 217.671818 182.460881 217.671818 182.0299 217.066835 182.0299 207.461869 182.0299"></polygon>
                    <polygon id="Fill-71" fill="#E1E1E1" mask="url(#mask-2)" points="35.2290559 182.205097 35.2290559 182.63491 35.83339 182.63491 35.83339 190.341947 35.1398854 190.341947 35.1398854 190.769034 35.83339 190.769034 45.4383561 190.769034 45.9535198 190.769034 45.9535198 190.341947 45.4383561 190.341947 45.4383561 182.63491 46.04282 182.63491 46.04282 182.205097 45.4383561 182.205097 35.83339 182.205097"></polygon>
                    <path d="M189.99259,159.572149 L194.077297,159.572149 L194.077297,151.865112 L189.99259,151.865112 L189.99259,159.572149 Z M185.348459,159.572149 L189.41772,159.572149 L189.41772,151.865112 L185.348459,151.865112 L185.348459,159.572149 Z" id="Fill-72" fill="#7385A3" mask="url(#mask-2)"></path>
                    <path d="M18.3643059,159.746099 L22.4488826,159.746099 L22.4488826,152.039192 L18.3643059,152.039192 L18.3643059,159.746099 Z M13.7200451,159.746099 L17.7883973,159.746099 L17.7883973,152.039192 L13.7200451,152.039192 L13.7200451,159.746099 Z" id="Fill-73" fill="#7385A3" mask="url(#mask-2)"></path>
                    <path d="M189.99259,174.508509 L194.077297,174.508509 L194.077297,166.800044 L189.99259,166.800044 L189.99259,174.508509 Z M185.348459,174.508509 L189.41772,174.508509 L189.41772,166.800044 L185.348459,166.800044 L185.348459,174.508509 Z" id="Fill-74" fill="#7385A3" mask="url(#mask-2)"></path>
                    <path d="M18.3643059,174.68246 L22.4488826,174.68246 L22.4488826,166.975422 L18.3643059,166.975422 L18.3643059,174.68246 Z M13.7200451,174.68246 L17.7883973,174.68246 L17.7883973,166.975422 L13.7200451,166.975422 L13.7200451,174.68246 Z" id="Fill-75" fill="#7385A3" mask="url(#mask-2)"></path>
                    <path d="M189.99259,190.160143 L194.077297,190.160143 L194.077297,182.451807 L189.99259,182.451807 L189.99259,190.160143 Z M185.348459,190.160143 L189.41772,190.160143 L189.41772,182.451807 L185.348459,182.451807 L185.348459,190.160143 Z" id="Fill-76" fill="#7385A3" mask="url(#mask-2)"></path>
                    <path d="M18.3643059,190.334223 L22.4488826,190.334223 L22.4488826,182.627056 L18.3643059,182.627056 L18.3643059,190.334223 Z M13.7200451,190.334223 L17.7883973,190.334223 L17.7883973,182.627056 L13.7200451,182.627056 L13.7200451,190.334223 Z" id="Fill-77" fill="#7385A3" mask="url(#mask-2)"></path>
                    <path d="M212.50066,159.572149 L216.584069,159.572149 L216.584069,151.865112 L212.50066,151.865112 L212.50066,159.572149 Z M207.855231,159.572149 L211.924362,159.572149 L211.924362,151.865112 L207.855231,151.865112 L207.855231,159.572149 Z" id="Fill-78" fill="#7385A3" mask="url(#mask-2)"></path>
                    <path d="M40.8712077,159.746099 L44.9557844,159.746099 L44.9557844,152.039192 L40.8712077,152.039192 L40.8712077,159.746099 Z M36.226947,159.746099 L40.2951693,159.746099 L40.2951693,152.039192 L36.226947,152.039192 L36.226947,159.746099 Z" id="Fill-79" fill="#7385A3" mask="url(#mask-2)"></path>
                    <path d="M212.50066,174.508509 L216.584069,174.508509 L216.584069,166.800044 L212.50066,166.800044 L212.50066,174.508509 Z M207.855231,174.508509 L211.924362,174.508509 L211.924362,166.800044 L207.855231,166.800044 L207.855231,174.508509 Z" id="Fill-80" fill="#7385A3" mask="url(#mask-2)"></path>
                    <path d="M40.8712077,174.68246 L44.9557844,174.68246 L44.9557844,166.975422 L40.8712077,166.975422 L40.8712077,174.68246 Z M36.226947,174.68246 L40.2951693,174.68246 L40.2951693,166.975422 L36.226947,166.975422 L36.226947,174.68246 Z" id="Fill-81" fill="#7385A3" mask="url(#mask-2)"></path>
                    <path d="M212.50066,190.160143 L216.584069,190.160143 L216.584069,182.451807 L212.50066,182.451807 L212.50066,190.160143 Z M207.855231,190.160143 L211.924362,190.160143 L211.924362,182.451807 L207.855231,182.451807 L207.855231,190.160143 Z" id="Fill-82" fill="#7385A3" mask="url(#mask-2)"></path>
                    <path d="M40.8712077,190.334223 L44.9557844,190.334223 L44.9557844,182.627056 L40.8712077,182.627056 L40.8712077,190.334223 Z M36.226947,190.334223 L40.2951693,190.334223 L40.2951693,182.627056 L36.226947,182.627056 L36.226947,190.334223 Z" id="Fill-83" fill="#7385A3" mask="url(#mask-2)"></path>
                    <polygon id="Fill-84" fill="#A24320" mask="url(#mask-2)" points="6.76995655 190.750743 0.96025 195.156619 57.9023832 195.18388 57.8964125 190.805265"></polygon>
                    <path d="M195.164929,184.428909 C195.164929,179.624505 197.663519,173.314263 201.290042,173.314263 C204.915268,173.314263 207.855296,179.624505 207.855296,184.428909 C207.855296,189.23461 204.915268,190.714486 201.290042,190.714486 C197.663519,190.714486 195.164929,189.23461 195.164929,184.428909" id="Fill-85" fill="#5E9834" mask="url(#mask-2)"></path>
                    <path d="M177.022018,184.428909 C177.022018,179.624505 179.520607,173.314263 183.147001,173.314263 C186.773655,173.314263 189.713423,179.624505 189.713423,184.428909 C189.713423,189.23461 186.773655,190.714486 183.147001,190.714486 C179.520607,190.714486 177.022018,189.23461 177.022018,184.428909" id="Fill-86" fill="#5E9834" mask="url(#mask-2)"></path>
                    <path d="M40.5913527,184.853347 C40.5913527,180.047645 43.0894227,173.738701 46.7159464,173.738701 C50.3424701,173.738701 53.2822387,180.047645 53.2822387,184.853347 C53.2822387,189.657751 50.3424701,191.138925 46.7159464,191.138925 C43.0894227,191.138925 40.5913527,189.657751 40.5913527,184.853347" id="Fill-87" fill="#5E9834" mask="url(#mask-2)"></path>
                    <path d="M22.4488826,184.87021 C22.4488826,180.065806 24.9470824,173.755564 28.5734763,173.755564 C32.2,173.755564 35.1398984,180.065806 35.1398984,184.87021 C35.1398984,189.674744 32.2,191.155788 28.5734763,191.155788 C24.9470824,191.155788 22.4488826,189.674744 22.4488826,184.87021" id="Fill-88" fill="#5E9834" mask="url(#mask-2)"></path>
                    <polygon id="Fill-89" fill="#81432A" mask="url(#mask-2)" points="200.74496 195.206 202.532393 195.206 202.532393 189.990087 200.74496 189.990087"></polygon>
                    <polygon id="Fill-90" fill="#81432A" mask="url(#mask-2)" points="182.601958 195.206 184.389261 195.206 184.389261 189.990087 182.601958 189.990087"></polygon>
                    <polygon id="Fill-91" fill="#81432A" mask="url(#mask-2)" points="46.1714616 195.630491 47.9582449 195.630491 47.9582449 190.41328 46.1714616 190.41328"></polygon>
                    <polygon id="Fill-92" fill="#81432A" mask="url(#mask-2)" points="28.0289786 195.647496 29.8158916 195.647496 29.8158916 190.431583 28.0289786 190.431583"></polygon>
                    <path d="M174.419501,80.7657912 C174.419501,76.1824602 178.082497,72.4670633 182.602023,72.4670633 C187.122847,72.4670633 190.785714,76.1824602 190.785714,80.7657912 C190.785714,85.3491223 187.122847,89.064649 182.602023,89.064649 C178.082497,89.064649 174.419501,85.3491223 174.419501,80.7657912" id="Fill-93" fill="#FFB200" mask="url(#mask-2)"></path>
                    <path d="M148.984642,99.8494125 L187.68882,99.8494125 C187.68882,99.8494125 187.896306,82.5627758 174.532554,82.6731175 C165.668598,82.7463324 164.957441,88.455797 164.279901,88.2582206 C163.403773,88.0031367 157.78344,84.9800361 153.401498,88.2582206 C146.787051,93.2076261 148.984642,99.8494125 148.984642,99.8494125" id="Fill-94" fill="#FFFFFF" mask="url(#mask-2)"></path>
                    <path d="M38.7255231,114.540165 L77.4294421,114.540165 C77.4294421,114.540165 77.6369283,97.2536584 64.2729159,97.3638702 C55.4089599,97.4370852 54.6976733,103.14655 54.0197444,102.948973 C53.1443945,102.69389 47.5236721,99.6707889 43.1425096,102.948973 C36.5276733,107.898379 38.7255231,114.540165 38.7255231,114.540165" id="Fill-95" fill="#FFFFFF" mask="url(#mask-2)"></path>
                </g>
            </g>
        </g>
    </g>
</svg>