<?xml version="1.0" encoding="UTF-8"?>
<svg width="25px" height="39px" viewBox="0 0 25 39" version="1.1" xmlns="http://www.w3.org/2000/svg" xmlns:xlink="http://www.w3.org/1999/xlink">
    <!-- Generator: Sketch 52.6 (67491) - http://www.bohemiancoding.com/sketch -->
    <title>分组</title>
    <desc>Created with Sketch.</desc>
    <defs>
        <polygon id="path-1" points="0.00273809524 0.0114883721 12.325 0.0114883721 12.325 34.3993302 0.00273809524 34.3993302"></polygon>
        <polygon id="path-3" points="0 0.0114883721 12.5028571 0.0114883721 12.5028571 34.3993302 0 34.3993302"></polygon>
    </defs>
    <g id="图示" stroke="none" stroke-width="1" fill="none" fill-rule="evenodd">
        <g id="场景" transform="translate(-310.000000, -379.000000)">
            <g id="分组" transform="translate(310.000000, 379.000000)">
                <path d="M22.7995536,34.6900465 C22.7995536,37.0642093 18.1897321,38.9885116 12.5028274,38.9885116 C6.81592262,38.9885116 2.20610119,37.0642093 2.20610119,34.6900465 C2.20610119,32.3158837 6.81592262,30.3915814 12.5028274,30.3915814 C18.1897321,30.3915814 22.7995536,32.3158837 22.7995536,34.6900465" id="Fill-1" fill="#C6C4C5"></path>
                <g transform="translate(12.500000, 0.290837)">
                    <mask id="mask-2" fill="white">
                        <use xlink:href="#path-1"></use>
                    </mask>
                    <g id="Clip-4"></g>
                    <path d="M12.3250595,12.6204 C12.3250595,22.9711209 0.00273809524,34.3993302 0.00273809524,34.3993302 L0.00273809524,16.0475628 C1.81970238,16.0134 3.29767857,14.4887721 3.29767857,12.6204 C3.29767857,10.7520279 1.81970238,9.2274 0.00273809524,9.19323721 L0.00273809524,0.0113069767 C6.80720238,0.0572604651 12.3250595,5.69714419 12.3250595,12.6204" id="Fill-3" fill="#FFE67B" mask="url(#mask-2)"></path>
                </g>
                <g transform="translate(0.000000, 0.290837)">
                    <mask id="mask-4" fill="white">
                        <use xlink:href="#path-3"></use>
                    </mask>
                    <g id="Clip-6"></g>
                    <path d="M9.0272619,12.6204 C9.0272619,14.5232372 10.5394643,16.0590512 12.4126786,16.0590512 C12.4463095,16.0590512 12.4689286,16.0590512 12.5028571,16.0475628 L12.5028571,34.3993302 C12.5028571,34.3993302 -0.000119047619,23.005586 -0.000119047619,12.6204 C-0.000119047619,5.66267907 5.55196429,0.0113069767 12.4126786,0.0113069767 L12.5028571,0.0113069767 L12.5028571,9.19323721 C12.4689286,9.18144651 12.4463095,9.18144651 12.4126786,9.18144651 C10.5394643,9.18144651 9.0272619,10.7175628 9.0272619,12.6204" id="Fill-5" fill="#F7DD21" mask="url(#mask-4)"></path>
                </g>
            </g>
        </g>
    </g>
</svg>