<?xml version="1.0" encoding="UTF-8"?>
<svg width="25px" height="39px" viewBox="0 0 25 39" version="1.1" xmlns="http://www.w3.org/2000/svg" xmlns:xlink="http://www.w3.org/1999/xlink">
    <!-- Generator: Sketch 52.6 (67491) - http://www.bohemiancoding.com/sketch -->
    <title>分组</title>
    <desc>Created with Sketch.</desc>
    <defs>
        <polygon id="path-1" points="0.12297619 0.17054186 20.716131 0.17054186 20.716131 8.76744186 0.12297619 8.76744186"></polygon>
        <polygon id="path-3" points="0.00291666667 0.0114883721 12.3249405 0.0114883721 12.3249405 34.3992093 0.00291666667 34.3992093"></polygon>
        <polygon id="path-5" points="0 0.0114883721 12.5029167 0.0114883721 12.5029167 34.3992093 0 34.3992093"></polygon>
    </defs>
    <g id="图示" stroke="none" stroke-width="1" fill="none" fill-rule="evenodd">
        <g id="场景" transform="translate(-391.000000, -379.000000)">
            <g id="分组" transform="translate(391.000000, 379.000000)">
                <g transform="translate(2.083333, 30.221070)">
                    <mask id="mask-2" fill="white">
                        <use xlink:href="#path-1"></use>
                    </mask>
                    <g id="Clip-2"></g>
                    <path d="M20.716131,4.46900698 C20.716131,6.84316977 16.1063095,8.76747209 10.4194048,8.76747209 C4.73279762,8.76747209 0.12297619,6.84316977 0.12297619,4.46900698 C0.12297619,2.09484419 4.73279762,0.17054186 10.4194048,0.17054186 C16.1063095,0.17054186 20.716131,2.09484419 20.716131,4.46900698" id="Fill-1" fill="#C6C4C5" mask="url(#mask-2)"></path>
                </g>
                <g transform="translate(12.500000, 0.290837)">
                    <mask id="mask-4" fill="white">
                        <use xlink:href="#path-3"></use>
                    </mask>
                    <g id="Clip-4"></g>
                    <path d="M12.3249405,12.6202791 C12.3249405,22.971 0.00291666667,34.3992093 0.00291666667,34.3992093 L0.00291666667,16.0477442 C1.81958333,16.0132791 3.29785714,14.4889535 3.29785714,12.6202791 C3.29785714,10.751907 1.81958333,9.22727907 0.00291666667,9.19311628 L0.00291666667,0.0114883721 C6.80708333,0.0574418605 12.3249405,5.69702326 12.3249405,12.6202791" id="Fill-3" fill="#EE7C86" mask="url(#mask-4)"></path>
                </g>
                <g transform="translate(0.000000, 0.290837)">
                    <mask id="mask-6" fill="white">
                        <use xlink:href="#path-5"></use>
                    </mask>
                    <g id="Clip-6"></g>
                    <path d="M9.02732143,12.6202791 C9.02732143,14.5231163 10.5395238,16.0592326 12.4124405,16.0592326 C12.446369,16.0592326 12.4686905,16.0592326 12.5029167,16.0477442 L12.5029167,34.3992093 C12.5029167,34.3992093 -5.95238095e-05,23.0057674 -5.95238095e-05,12.6202791 C-5.95238095e-05,5.66255814 5.55172619,0.0114883721 12.4124405,0.0114883721 L12.5029167,0.0114883721 L12.5029167,9.19311628 C12.4686905,9.18162791 12.446369,9.18162791 12.4124405,9.18162791 C10.5395238,9.18162791 9.02732143,10.7174419 9.02732143,12.6202791" id="Fill-5" fill="#D83933" mask="url(#mask-6)"></path>
                </g>
            </g>
        </g>
    </g>
</svg>