<?xml version="1.0" encoding="UTF-8"?>
<svg width="455px" height="455px" viewBox="0 0 455 455" version="1.1" xmlns="http://www.w3.org/2000/svg" xmlns:xlink="http://www.w3.org/1999/xlink">
    <!-- Generator: Sketch 52.6 (67491) - http://www.bohemiancoding.com/sketch -->
    <title>分组</title>
    <desc>Created with Sketch.</desc>
    <defs>
        <polygon id="path-1" points="0 454.700264 454.706065 454.700264 454.706065 0.293741765 0 0.293741765"></polygon>
    </defs>
    <g id="图示" stroke="none" stroke-width="1" fill="none" fill-rule="evenodd">
        <g id="场景" transform="translate(-453.000000, -378.000000)">
            <g id="分组" transform="translate(453.000000, 378.000000)">
                <polygon id="Fill-1" fill="#9BC770" points="404.892923 0.299916337 316.643318 50.1101271 454.706275 225.905282 454.706275 0.299916337"></polygon>
                <polygon id="Fill-2" fill="#E5E5E5" points="0 0.299916337 0 240.304623 51.1927488 240.304623 51.1927488 287.37824 94.0383322 287.37824 94.0383322 373.48654 165.452637 373.48654 165.452637 400.148401 0 400.148401 0 454.706138 454.706065 454.706138 454.706065 225.905282 316.643408 50.1101271 404.893013 0.299916337"></polygon>
                <polygon id="Fill-3" fill="#CECECE" points="0 240.304683 0 248.760549 44.444232 248.760549 44.444232 295.833866 87.2898154 295.833866 87.2898154 381.944864 158.70412 381.944864 158.70412 400.148461 165.452637 400.148461 165.452637 373.4866 94.0383322 373.4866 94.0383322 287.3783 51.1927488 287.3783 51.1927488 240.304683"></polygon>
                <polygon id="Fill-4" fill="#8ADFF3" points="0 248.7604 0 400.148311 158.70412 400.148311 158.70412 381.945014 87.2898154 381.945014 87.2898154 295.833716 44.444232 295.833716 44.444232 248.7604"></polygon>
                <polygon id="Fill-5" fill="#FFFFFF" points="392.694544 0.299916337 235.388116 89.0815665 238.339468 94.3029763 311.35572 53.0922055 316.643258 50.1101271 404.892863 0.299916337"></polygon>
                <polygon id="Fill-6" fill="#FFFFFF" points="309.76583 51.0660767 311.35578 53.0922955 454.706275 235.617134 454.706275 225.905372 316.643318 50.1099173 314.486792 47.364331"></polygon>
                <polygon id="Fill-7" fill="#FFFFFF" points="98.6813118 373.48666 104.679993 373.48666 104.679993 0.300036232 98.6813118 0.300036232"></polygon>
                <polygon id="Fill-8" fill="#FFFFFF" points="116.047495 454.706258 125.540409 454.706258 330.704318 287.510244 326.912851 282.864328"></polygon>
                <g transform="translate(0.000000, 0.005995)">
                    <path d="M285.370661,118.258846 C285.370661,122.442868 281.976607,125.834986 277.789827,125.834986 C273.603047,125.834986 270.208693,122.442868 270.208693,118.258846 C270.208693,114.074824 273.603047,110.683006 277.789827,110.683006 C281.976607,110.683006 285.370661,114.074824 285.370661,118.258846" id="Fill-9" fill="#9BC770"></path>
                    <path d="M314.070334,118.258846 C314.070334,122.442868 310.676279,125.834986 306.4895,125.834986 C302.30242,125.834986 298.908066,122.442868 298.908066,118.258846 C298.908066,114.074824 302.30242,110.683006 306.4895,110.683006 C310.676279,110.683006 314.070334,114.074824 314.070334,118.258846" id="Fill-11" fill="#9BC770"></path>
                    <path d="M141.614386,104.156604 C141.614386,108.340625 138.220332,111.732743 134.033552,111.732743 C129.846472,111.732743 126.452418,108.340625 126.452418,104.156604 C126.452418,99.972582 129.846472,96.5807638 134.033552,96.5807638 C138.220332,96.5807638 141.614386,99.972582 141.614386,104.156604" id="Fill-13" fill="#9BC770"></path>
                    <path d="M166.285134,104.156604 C166.285134,108.340625 162.89108,111.732743 158.7043,111.732743 C154.51722,111.732743 151.123166,108.340625 151.123166,104.156604 C151.123166,99.972582 154.51722,96.5807638 158.7043,96.5807638 C162.89108,96.5807638 166.285134,99.972582 166.285134,104.156604" id="Fill-15" fill="#9BC770"></path>
                    <path d="M190.955882,104.156604 C190.955882,108.340625 187.561828,111.732743 183.374748,111.732743 C179.187968,111.732743 175.793914,108.340625 175.793914,104.156604 C175.793914,99.972582 179.187968,96.5807638 183.374748,96.5807638 C187.561828,96.5807638 190.955882,99.972582 190.955882,104.156604" id="Fill-17" fill="#9BC770"></path>
                    <path d="M183.695227,315.602837 C183.695227,319.787158 180.301173,323.178977 176.114094,323.178977 C171.927314,323.178977 168.53326,319.787158 168.53326,315.602837 C168.53326,311.418815 171.927314,308.026997 176.114094,308.026997 C180.301173,308.026997 183.695227,311.418815 183.695227,315.602837" id="Fill-19" fill="#9BC770"></path>
                    <path d="M208.365825,315.602837 C208.365825,319.787158 204.971771,323.178977 200.784991,323.178977 C196.597912,323.178977 193.203858,319.787158 193.203858,315.602837 C193.203858,311.418815 196.597912,308.026997 200.784991,308.026997 C204.971771,308.026997 208.365825,311.418815 208.365825,315.602837" id="Fill-21" fill="#9BC770"></path>
                    <path d="M233.036573,315.602837 C233.036573,319.787158 229.642519,323.178977 225.455739,323.178977 C221.26866,323.178977 217.874605,319.787158 217.874605,315.602837 C217.874605,311.418815 221.26866,308.026997 225.455739,308.026997 C229.642519,308.026997 233.036573,311.418815 233.036573,315.602837" id="Fill-23" fill="#9BC770"></path>
                    <path d="M86.9330738,252.86571 C86.9330738,257.049732 83.5390198,260.44155 79.35194,260.44155 C75.1651602,260.44155 71.7711061,257.049732 71.7711061,252.86571 C71.7711061,248.681389 75.1651602,245.289571 79.35194,245.289571 C83.5390198,245.289571 86.9330738,248.681389 86.9330738,252.86571" id="Fill-25" fill="#9BC770"></path>
                    <path d="M285.370661,142.390122 C285.370661,146.574144 281.976607,149.965962 277.789827,149.965962 C273.603047,149.965962 270.208693,146.574144 270.208693,142.390122 C270.208693,138.2061 273.603047,134.813982 277.789827,134.813982 C281.976607,134.813982 285.370661,138.2061 285.370661,142.390122" id="Fill-27" fill="#9BC770"></path>
                    <path d="M314.070334,142.390122 C314.070334,146.574144 310.676279,149.965962 306.4895,149.965962 C302.30242,149.965962 298.908066,146.574144 298.908066,142.390122 C298.908066,138.2061 302.30242,134.813982 306.4895,134.813982 C310.676279,134.813982 314.070334,138.2061 314.070334,142.390122" id="Fill-29" fill="#9BC770"></path>
                    <path d="M306.48938,243.36781 C306.48938,247.551832 303.095326,250.94365 298.908246,250.94365 C294.721466,250.94365 291.327112,247.551832 291.327112,243.36781 C291.327112,239.183789 294.721466,235.79197 298.908246,235.79197 C303.095326,235.79197 306.48938,239.183789 306.48938,243.36781" id="Fill-31" fill="#9BC770"></path>
                    <mask id="mask-2" fill="white">
                        <use xlink:href="#path-1"></use>
                    </mask>
                    <g id="Clip-34"></g>
                    <polygon id="Fill-33" fill="#CECECE" mask="url(#mask-2)" points="403.576902 290.168906 413.388045 290.168906 413.388045 215.562395 403.576902 215.562395"></polygon>
                    <polygon id="Fill-35" fill="#CECECE" mask="url(#mask-2)" points="401.659123 318.273999 415.306124 318.273999 415.306124 304.635988 401.659123 304.635988"></polygon>
                    <polygon id="Fill-36" fill="#CECECE" mask="url(#mask-2)" points="375.415491 318.273999 389.062492 318.273999 389.062492 304.635988 375.415491 304.635988"></polygon>
                    <path d="M395.083009,224.203258 L383.041855,224.203258 C380.732363,224.203258 378.842778,222.314918 378.842778,220.006947 L378.842778,215.174296 C378.842778,212.866325 380.732363,210.977985 383.041855,210.977985 L395.083009,210.977985 C397.392201,210.977985 399.282086,212.866325 399.282086,215.174296 L399.282086,220.006947 C399.282086,222.314918 397.392201,224.203258 395.083009,224.203258" id="Fill-37" fill="#9BC770" mask="url(#mask-2)"></path>
                    <path d="M395.083009,247.375917 L383.041855,247.375917 C380.732363,247.375917 378.842778,245.487577 378.842778,243.179606 L378.842778,238.347254 C378.842778,236.039283 380.732363,234.150943 383.041855,234.150943 L395.083009,234.150943 C397.392201,234.150943 399.282086,236.039283 399.282086,238.347254 L399.282086,243.179606 C399.282086,245.487577 397.392201,247.375917 395.083009,247.375917" id="Fill-38" fill="#9BC770" mask="url(#mask-2)"></path>
                    <path d="M395.083009,270.548695 L383.041855,270.548695 C380.732363,270.548695 378.842778,268.660355 378.842778,266.352384 L378.842778,261.520032 C378.842778,259.212061 380.732363,257.323721 383.041855,257.323721 L395.083009,257.323721 C397.392201,257.323721 399.282086,259.212061 399.282086,261.520032 L399.282086,266.352384 C399.282086,268.660355 397.392201,270.548695 395.083009,270.548695" id="Fill-39" fill="#9BC770" mask="url(#mask-2)"></path>
                    <path d="M395.083009,293.721503 L383.041855,293.721503 C380.732363,293.721503 378.842778,291.833163 378.842778,289.525192 L378.842778,284.692841 C378.842778,282.38487 380.732363,280.49653 383.041855,280.49653 L395.083009,280.49653 C397.392201,280.49653 399.282086,282.38487 399.282086,284.692841 L399.282086,289.525192 C399.282086,291.833163 397.392201,293.721503 395.083009,293.721503" id="Fill-40" fill="#9BC770" mask="url(#mask-2)"></path>
                    <polygon id="Fill-41" fill="#CECECE" mask="url(#mask-2)" points="138.097449 23.4085211 165.173098 23.4085211 165.173098 9.77051054 138.097449 9.77051054"></polygon>
                    <polygon id="Fill-42" fill="#CECECE" mask="url(#mask-2)" points="172.972284 23.4085211 200.047933 23.4085211 200.047933 9.77051054 172.972284 9.77051054"></polygon>
                    <polygon id="Fill-43" fill="#CECECE" mask="url(#mask-2)" points="207.847119 23.4085211 234.922769 23.4085211 234.922769 9.77051054 207.847119 9.77051054"></polygon>
                    <polygon id="Fill-44" fill="#CECECE" mask="url(#mask-2)" points="138.097449 47.2954216 165.173098 47.2954216 165.173098 33.6574111 138.097449 33.6574111"></polygon>
                    <polygon id="Fill-45" fill="#CECECE" mask="url(#mask-2)" points="172.972284 47.2954216 200.047933 47.2954216 200.047933 33.6574111 172.972284 33.6574111"></polygon>
                    <polygon id="Fill-46" fill="#CECECE" mask="url(#mask-2)" points="207.847119 47.2954216 234.922769 47.2954216 234.922769 33.6574111 207.847119 33.6574111"></polygon>
                    <polygon id="Fill-47" fill="#CECECE" mask="url(#mask-2)" points="12.3710811 35.479809 79.35206 35.479809 79.35206 11.3378327 12.3710811 11.3378327"></polygon>
                    <polygon id="Fill-48" fill="#CECECE" mask="url(#mask-2)" points="12.3710811 51.7489065 79.35206 51.7489065 79.35206 42.7373287 12.3710811 42.7373287"></polygon>
                    <path d="M279.217034,46.2716117 L261.200593,46.2716117 C255.432561,46.2716117 250.713698,41.5558574 250.713698,35.7919246 L250.713698,31.5230774 C250.713698,25.7591446 255.432561,21.0433903 261.200593,21.0433903 L279.217034,21.0433903 C284.984466,21.0433903 289.703629,25.7591446 289.703629,31.5230774 L289.703629,35.7919246 C289.703629,41.5558574 284.984466,46.2716117 279.217034,46.2716117" id="Fill-49" fill="#9BC770" mask="url(#mask-2)"></path>
                    <polygon id="Fill-50" fill="#CECECE" mask="url(#mask-2)" points="14.5207086 107.31196 41.5963579 107.31196 41.5963579 93.6739493 14.5207086 93.6739493"></polygon>
                    <polygon id="Fill-51" fill="#CECECE" mask="url(#mask-2)" points="56.6008603 107.31196 83.6765096 107.31196 83.6765096 93.6739493 56.6008603 93.6739493"></polygon>
                    <polygon id="Fill-52" fill="#CECECE" mask="url(#mask-2)" points="56.6008603 178.398666 83.6765096 178.398666 83.6765096 164.760655 56.6008603 164.760655"></polygon>
                    <polygon id="Fill-53" fill="#CECECE" mask="url(#mask-2)" points="340.966862 394.278182 368.042512 394.278182 368.042512 380.640171 340.966862 380.640171"></polygon>
                    <polygon id="Fill-54" fill="#CECECE" mask="url(#mask-2)" points="159.434459 250.186756 186.510109 250.186756 186.510109 236.548745 159.434459 236.548745"></polygon>
                    <polygon id="Fill-55" fill="#CECECE" mask="url(#mask-2)" points="204.172927 250.186756 231.248576 250.186756 231.248576 236.548745 204.172927 236.548745"></polygon>
                    <polygon id="Fill-56" fill="#CECECE" mask="url(#mask-2)" points="248.911694 250.186756 275.987343 250.186756 275.987343 236.548745 248.911694 236.548745"></polygon>
                    <polygon id="Fill-57" fill="#CECECE" mask="url(#mask-2)" points="124.559324 178.398666 221.384944 178.398666 221.384944 164.760655 124.559324 164.760655"></polygon>
                    <polygon id="Fill-58" fill="#CECECE" mask="url(#mask-2)" points="221.795854 394.657049 318.621473 394.657049 318.621473 381.019038 221.795854 381.019038"></polygon>
                </g>
            </g>
        </g>
    </g>
</svg>