<?xml version="1.0" encoding="UTF-8"?>
<svg width="525px" height="291px" viewBox="0 0 525 291" version="1.1" xmlns="http://www.w3.org/2000/svg" xmlns:xlink="http://www.w3.org/1999/xlink">
    <!-- Generator: Sketch 52.6 (67491) - http://www.bohemiancoding.com/sketch -->
    <title>分组</title>
    <desc>Created with Sketch.</desc>
    <defs>
        <polygon id="path-1" points="0 299.7003 524.8857 299.7003 524.8857 0.242757243 0 0.242757243"></polygon>
    </defs>
    <g id="图示" stroke="none" stroke-width="1" fill="none" fill-rule="evenodd">
        <g id="场景" transform="translate(-18.000000, -994.000000)">
            <g id="分组" transform="translate(18.000000, 994.000000)">
                <polygon id="Fill-1" fill="#909292" points="290.97186 161.281678 292.93326 223.146414 286.14666 223.146414 288.10836 161.281678"></polygon>
                <g transform="translate(0.000000, 0.056943)">
                    <path d="M304.59609,151.267313 C304.59609,159.457522 297.95049,166.097682 289.75119,166.097682 C281.55279,166.097682 274.90539,159.457522 274.90539,151.267313 C274.90539,143.076503 281.55279,136.435744 289.75119,136.435744 C297.95049,136.435744 304.59609,143.076503 304.59609,151.267313" id="Fill-2" fill="#839442"></path>
                    <path d="M320.29101,146.394246 C320.29101,141.299341 317.71701,136.807133 313.80051,134.137403 C314.69241,132.48965 315.19971,130.602737 315.19971,128.598042 C315.19971,122.161978 309.97881,116.945395 303.53691,116.945395 C302.80851,116.945395 302.09661,117.020919 301.40511,117.148292 C301.40751,117.07996 301.41561,117.013427 301.41561,116.945395 C301.41561,111.67996 297.14301,107.411029 291.87381,107.411029 C287.59041,107.411029 283.96581,110.229411 282.75861,114.10963 C281.32851,113.483556 279.74901,113.131409 278.08761,113.131409 C271.64601,113.131409 266.42451,118.347992 266.42451,124.784056 C266.42451,126.269071 266.71221,127.683656 267.21861,128.988851 C262.36791,130.276663 258.78741,134.681059 258.78741,139.932408 C258.78741,143.275564 260.24511,146.27017 262.54941,148.344695 C260.71461,151.209231 259.63791,154.606034 259.63791,158.258781 C259.63791,168.438701 267.89751,176.690949 278.08761,176.690949 C283.08081,176.690949 287.60061,174.701838 290.92371,171.484256 C293.62611,174.296344 297.41721,176.055285 301.62861,176.055285 C309.82611,176.055285 316.47231,169.415425 316.47231,161.224615 C316.47231,159.744396 316.24911,158.317223 315.84441,156.969171 C318.58611,154.278462 320.29101,150.536104 320.29101,146.394246" id="Fill-4" fill="#66B652"></path>
                    <mask id="mask-2" fill="white">
                        <use xlink:href="#path-1"></use>
                    </mask>
                    <g id="Clip-7"></g>
                    <polygon id="Fill-6" fill="#90CFCF" mask="url(#mask-2)" points="0 290.523776 524.8857 290.523776 524.8857 224.979021 0 224.979021"></polygon>
                    <path d="M0,257.751339 L453.6339,257.751339" id="Stroke-8" stroke="#FFFFFE" stroke-width="4.2696" stroke-dasharray="29.8875,18.29849967956543" mask="url(#mask-2)"></path>
                    <path d="M465.89325,237.409481 L511.10745,237.409481" id="Stroke-9" stroke="#FFFFFE" stroke-width="4.0062" mask="url(#mask-2)"></path>
                    <path d="M466.07637,249.419161 L511.29087,249.419161" id="Stroke-10" stroke="#FFFFFE" stroke-width="4.0062" mask="url(#mask-2)"></path>
                    <path d="M466.26036,261.428811 L511.47456,261.428811" id="Stroke-11" stroke="#FFFFFE" stroke-width="4.0062" mask="url(#mask-2)"></path>
                    <path d="M466.44345,273.438492 L511.65795,273.438492" id="Stroke-12" stroke="#FFFFFE" stroke-width="4.0062" mask="url(#mask-2)"></path>
                    <polygon id="Fill-13" fill="#E26035" mask="url(#mask-2)" points="304.7028 222.482817 416.1261 222.482817 416.1261 35.1719281 304.7028 35.1719281"></polygon>
                    <polygon id="Fill-14" fill="#F9F8F5" mask="url(#mask-2)" points="338.8977 47.8381618 381.9303 47.8381618 381.9303 17.8993007 338.8977 17.8993007"></polygon>
                    <polygon id="Fill-15" fill="#E05844" mask="url(#mask-2)" points="338.89746 17.8992108 360.41466 0.242667333 381.93006 17.8992108"></polygon>
                    <polygon id="Fill-16" fill="#008A90" mask="url(#mask-2)" points="348.3117 42.0806194 357.6213 42.0806194 357.6213 23.6568432 348.3117 23.6568432"></polygon>
                    <polygon id="Fill-17" fill="#008A90" mask="url(#mask-2)" points="363.2079 42.0806194 372.5172 42.0806194 372.5172 23.6568432 363.2079 23.6568432"></polygon>
                    <polygon id="Fill-18" fill="#F9F8F5" mask="url(#mask-2)" points="318.9189 80.4638362 333.5193 80.4638362 333.5193 65.8786214 318.9189 65.8786214"></polygon>
                    <polygon id="Fill-19" fill="#F9F8F5" mask="url(#mask-2)" points="342.3564 80.4638362 356.9559 80.4638362 356.9559 65.8786214 342.3564 65.8786214"></polygon>
                    <polygon id="Fill-20" fill="#F9F8F5" mask="url(#mask-2)" points="365.7939 80.4638362 380.3931 80.4638362 380.3931 65.8786214 365.7939 65.8786214"></polygon>
                    <polygon id="Fill-21" fill="#F9F8F5" mask="url(#mask-2)" points="389.2311 80.4638362 403.8303 80.4638362 403.8303 65.8786214 389.2311 65.8786214"></polygon>
                    <polygon id="Fill-22" fill="#F9F8F5" mask="url(#mask-2)" points="318.9189 104.645754 333.5193 104.645754 333.5193 90.0602398 318.9189 90.0602398"></polygon>
                    <polygon id="Fill-23" fill="#F9F8F5" mask="url(#mask-2)" points="342.3564 104.645754 356.9559 104.645754 356.9559 90.0602398 342.3564 90.0602398"></polygon>
                    <polygon id="Fill-24" fill="#F9F8F5" mask="url(#mask-2)" points="365.7939 104.645754 380.3931 104.645754 380.3931 90.0602398 365.7939 90.0602398"></polygon>
                    <polygon id="Fill-25" fill="#F9F8F5" mask="url(#mask-2)" points="389.2311 104.645754 403.8303 104.645754 403.8303 90.0602398 389.2311 90.0602398"></polygon>
                    <polygon id="Fill-26" fill="#E67B61" mask="url(#mask-2)" points="304.7028 122.493806 416.1261 122.493806 416.1261 119.039461 304.7028 119.039461"></polygon>
                    <polygon id="Fill-27" fill="#F9F8F5" mask="url(#mask-2)" points="318.9192 164.13986 342.3564 164.13986 342.3564 132.665634 318.9192 132.665634"></polygon>
                    <polygon id="Fill-28" fill="#F9F8F5" mask="url(#mask-2)" points="351.489 164.13986 374.9262 164.13986 374.9262 132.665634 351.489 132.665634"></polygon>
                    <polygon id="Fill-29" fill="#F9F8F5" mask="url(#mask-2)" points="384.0588 164.13986 407.4951 164.13986 407.4951 132.665634 384.0588 132.665634"></polygon>
                    <polygon id="Fill-30" fill="#E47057" mask="url(#mask-2)" points="318.9192 164.13986 342.3564 164.13986 342.3564 158.382318 318.9192 158.382318"></polygon>
                    <polygon id="Fill-31" fill="#E47057" mask="url(#mask-2)" points="351.489 164.13986 374.9262 164.13986 374.9262 158.382318 351.489 158.382318"></polygon>
                    <polygon id="Fill-32" fill="#E47057" mask="url(#mask-2)" points="384.0588 164.13986 407.4951 164.13986 407.4951 158.382318 384.0588 158.382318"></polygon>
                    <path d="M374.95548,222.722128 L339.72588,222.722128 L339.72588,194.033317 C339.72588,184.315235 347.61168,176.437013 357.34068,176.437013 C367.06848,176.437013 374.95548,184.315235 374.95548,194.033317 L374.95548,222.722128 Z" id="Fill-33" fill="#E9863F" mask="url(#mask-2)"></path>
                    <polygon id="Fill-34" fill="#884C67" mask="url(#mask-2)" points="98.9424 222.482817 280.2135 222.482817 280.2135 116.790509 98.9424 116.790509"></polygon>
                    <polygon id="Fill-35" fill="#412331" mask="url(#mask-2)" points="279.58533 119.500549 99.57033 119.500549 89.61723 105.272877 289.53933 105.272877"></polygon>
                    <polygon id="Fill-36" fill="#AA4F69" mask="url(#mask-2)" points="82.0122 107.982917 297.1434 107.982917 297.1434 101.207293 82.0122 101.207293"></polygon>
                    <polygon id="Fill-37" fill="#FFFFFE" mask="url(#mask-2)" points="114.5544 144.22987 126.2508 144.22987 126.2508 125.937063 114.5544 125.937063"></polygon>
                    <polygon id="Fill-38" fill="#2B6579" mask="url(#mask-2)" points="113.0265 146.375425 127.7793 146.375425 127.7793 144.22987 113.0265 144.22987"></polygon>
                    <polygon id="Fill-39" fill="#00B0B5" mask="url(#mask-2)" points="113.0265 127.404695 127.7793 127.404695 127.7793 125.25974 113.0265 125.25974"></polygon>
                    <polygon id="Fill-40" fill="#FFFFFE" mask="url(#mask-2)" points="139.3083 144.22987 151.005 144.22987 151.005 125.937063 139.3083 125.937063"></polygon>
                    <polygon id="Fill-41" fill="#2B6579" mask="url(#mask-2)" points="137.7801 146.375425 152.5329 146.375425 152.5329 144.22987 137.7801 144.22987"></polygon>
                    <polygon id="Fill-42" fill="#00B0B5" mask="url(#mask-2)" points="137.7801 127.404695 152.5329 127.404695 152.5329 125.25974 137.7801 125.25974"></polygon>
                    <polygon id="Fill-43" fill="#FFFFFE" mask="url(#mask-2)" points="164.0628 144.22987 175.7592 144.22987 175.7592 125.937063 164.0628 125.937063"></polygon>
                    <polygon id="Fill-44" fill="#2B6579" mask="url(#mask-2)" points="162.5343 146.375425 177.2865 146.375425 177.2865 144.22987 162.5343 144.22987"></polygon>
                    <polygon id="Fill-45" fill="#00B0B5" mask="url(#mask-2)" points="162.5343 127.404695 177.2865 127.404695 177.2865 125.25974 162.5343 125.25974"></polygon>
                    <polygon id="Fill-46" fill="#FFFFFE" mask="url(#mask-2)" points="188.8161 144.22987 200.5128 144.22987 200.5128 125.937063 188.8161 125.937063"></polygon>
                    <polygon id="Fill-47" fill="#2B6579" mask="url(#mask-2)" points="187.2879 146.375425 202.041 146.375425 202.041 144.22987 187.2879 144.22987"></polygon>
                    <polygon id="Fill-48" fill="#00B0B5" mask="url(#mask-2)" points="187.2879 127.404695 202.041 127.404695 202.041 125.25974 187.2879 125.25974"></polygon>
                    <polygon id="Fill-49" fill="#FFFFFE" mask="url(#mask-2)" points="213.5709 144.22987 225.2673 144.22987 225.2673 125.937063 213.5709 125.937063"></polygon>
                    <polygon id="Fill-50" fill="#2B6579" mask="url(#mask-2)" points="212.0421 146.375425 226.7943 146.375425 226.7943 144.22987 212.0421 144.22987"></polygon>
                    <polygon id="Fill-51" fill="#00B0B5" mask="url(#mask-2)" points="212.0421 127.404695 226.7943 127.404695 226.7943 125.25974 212.0421 125.25974"></polygon>
                    <polygon id="Fill-52" fill="#FFFFFE" mask="url(#mask-2)" points="238.3242 144.22987 250.0206 144.22987 250.0206 125.937063 238.3242 125.937063"></polygon>
                    <polygon id="Fill-53" fill="#2B6579" mask="url(#mask-2)" points="236.7957 146.375425 251.5488 146.375425 251.5488 144.22987 236.7957 144.22987"></polygon>
                    <polygon id="Fill-54" fill="#00B0B5" mask="url(#mask-2)" points="236.7957 127.404695 251.5488 127.404695 251.5488 125.25974 236.7957 125.25974"></polygon>
                    <polygon id="Fill-55" fill="#FFFFFE" mask="url(#mask-2)" points="263.0787 144.22987 274.7751 144.22987 274.7751 125.937063 263.0787 125.937063"></polygon>
                    <polygon id="Fill-56" fill="#2B6579" mask="url(#mask-2)" points="261.5502 146.375425 276.3036 146.375425 276.3036 144.22987 261.5502 144.22987"></polygon>
                    <polygon id="Fill-57" fill="#00B0B5" mask="url(#mask-2)" points="261.5502 127.404695 276.3036 127.404695 276.3036 125.25974 261.5502 125.25974"></polygon>
                    <polygon id="Fill-58" fill="#FFFFFE" mask="url(#mask-2)" points="114.5544 172.685514 126.2508 172.685514 126.2508 154.392408 114.5544 154.392408"></polygon>
                    <polygon id="Fill-59" fill="#2B6579" mask="url(#mask-2)" points="113.0265 174.830769 127.7793 174.830769 127.7793 172.685814 113.0265 172.685814"></polygon>
                    <polygon id="Fill-60" fill="#00B0B5" mask="url(#mask-2)" points="113.0265 155.860639 127.7793 155.860639 127.7793 153.715085 113.0265 153.715085"></polygon>
                    <polygon id="Fill-61" fill="#FFFFFE" mask="url(#mask-2)" points="118.4703 204.472328 160.1463 204.472328 160.1463 186.178921 118.4703 186.178921"></polygon>
                    <polygon id="Fill-62" fill="#2B6579" mask="url(#mask-2)" points="117.1719 206.617283 161.4444 206.617283 161.4444 204.472328 117.1719 204.472328"></polygon>
                    <polygon id="Fill-63" fill="#00B0B5" mask="url(#mask-2)" points="117.1719 187.646853 161.4444 187.646853 161.4444 185.501598 117.1719 185.501598"></polygon>
                    <polygon id="Fill-64" fill="#FFFFFE" mask="url(#mask-2)" points="139.3083 172.685514 151.005 172.685514 151.005 154.392408 139.3083 154.392408"></polygon>
                    <polygon id="Fill-65" fill="#2B6579" mask="url(#mask-2)" points="137.7801 174.830769 152.5329 174.830769 152.5329 172.685814 137.7801 172.685814"></polygon>
                    <polygon id="Fill-66" fill="#00B0B5" mask="url(#mask-2)" points="137.7801 155.860639 152.5329 155.860639 152.5329 153.715085 137.7801 153.715085"></polygon>
                    <polygon id="Fill-67" fill="#FFFFFE" mask="url(#mask-2)" points="164.0628 172.685514 175.7592 172.685514 175.7592 154.392408 164.0628 154.392408"></polygon>
                    <polygon id="Fill-68" fill="#2B6579" mask="url(#mask-2)" points="162.5343 174.830769 177.2865 174.830769 177.2865 172.685814 162.5343 172.685814"></polygon>
                    <polygon id="Fill-69" fill="#00B0B5" mask="url(#mask-2)" points="162.5343 155.860639 177.2865 155.860639 177.2865 153.715085 162.5343 153.715085"></polygon>
                    <polygon id="Fill-70" fill="#FFFFFE" mask="url(#mask-2)" points="188.8161 172.685514 200.5128 172.685514 200.5128 154.392408 188.8161 154.392408"></polygon>
                    <polygon id="Fill-71" fill="#2B6579" mask="url(#mask-2)" points="187.2879 174.830769 202.041 174.830769 202.041 172.685814 187.2879 172.685814"></polygon>
                    <polygon id="Fill-72" fill="#00B0B5" mask="url(#mask-2)" points="187.2879 155.860639 202.041 155.860639 202.041 153.715085 187.2879 153.715085"></polygon>
                    <polygon id="Fill-73" fill="#FFFFFE" mask="url(#mask-2)" points="213.5709 172.685514 225.2673 172.685514 225.2673 154.392408 213.5709 154.392408"></polygon>
                    <polygon id="Fill-74" fill="#2B6579" mask="url(#mask-2)" points="212.0421 174.830769 226.7943 174.830769 226.7943 172.685814 212.0421 172.685814"></polygon>
                    <polygon id="Fill-75" fill="#00B0B5" mask="url(#mask-2)" points="212.0421 155.860639 226.7943 155.860639 226.7943 153.715085 212.0421 153.715085"></polygon>
                    <polygon id="Fill-76" fill="#FFFFFE" mask="url(#mask-2)" points="238.3242 172.685514 250.0206 172.685514 250.0206 154.392408 238.3242 154.392408"></polygon>
                    <polygon id="Fill-77" fill="#2B6579" mask="url(#mask-2)" points="236.7957 174.830769 251.5488 174.830769 251.5488 172.685814 236.7957 172.685814"></polygon>
                    <polygon id="Fill-78" fill="#00B0B5" mask="url(#mask-2)" points="236.7957 155.860639 251.5488 155.860639 251.5488 153.715085 236.7957 153.715085"></polygon>
                    <polygon id="Fill-79" fill="#FFFFFE" mask="url(#mask-2)" points="263.0787 172.685514 274.7751 172.685514 274.7751 154.392408 263.0787 154.392408"></polygon>
                    <polygon id="Fill-80" fill="#2B6579" mask="url(#mask-2)" points="261.5502 174.830769 276.3036 174.830769 276.3036 172.685814 261.5502 172.685814"></polygon>
                    <polygon id="Fill-81" fill="#00B0B5" mask="url(#mask-2)" points="261.5502 155.860639 276.3036 155.860639 276.3036 153.715085 261.5502 153.715085"></polygon>
                    <polygon id="Fill-82" fill="#00B0B5" mask="url(#mask-2)" points="228.942 221.834266 247.7058 221.834266 247.7058 192.487612 228.942 192.487612"></polygon>
                    <polygon id="Fill-83" fill="#2B6579" mask="url(#mask-2)" points="226.4907 194.842358 250.1583 194.842358 250.1583 191.400899 226.4907 191.400899"></polygon>
                    <polygon id="Fill-84" fill="#909292" mask="url(#mask-2)" points="481.33974 151.0396 483.57894 221.66997 475.83084 221.66997 478.07034 151.0396"></polygon>
                    <path d="M514.81377,134.106833 C514.81377,128.290549 511.87527,123.161479 507.40317,120.113227 C508.42227,118.232308 509.00247,116.078062 509.00247,113.788352 C509.00247,106.441199 503.04027,100.484955 495.68487,100.484955 C494.85297,100.484955 494.04207,100.570969 493.25247,100.716923 C493.25397,100.639301 493.26387,100.563477 493.26387,100.484955 C493.26387,94.4732667 488.38617,89.5998402 482.36907,89.5998402 C477.47907,89.5998402 473.34177,92.8174226 471.96237,97.2481918 C470.32947,96.5334066 468.52827,96.1309091 466.63047,96.1309091 C459.27507,96.1309091 453.31317,102.086853 453.31317,109.434905 C453.31317,111.13001 453.64347,112.745095 454.22187,114.236104 C448.68267,115.705834 444.59607,120.734505 444.59607,126.729411 C444.59607,130.545794 446.26047,133.965674 448.88997,136.334505 C446.79507,139.604835 445.56507,143.481459 445.56507,147.652687 C445.56507,159.275365 454.99617,168.697343 466.63047,168.697343 C472.33017,168.697343 477.49287,166.425614 481.28457,162.751888 C484.36977,165.963177 488.69997,167.970869 493.50627,167.970869 C502.86717,167.970869 510.45597,160.390549 510.45597,151.0396 C510.45597,149.349291 510.19977,147.720719 509.73897,146.180559 C512.86827,143.108631 514.81377,138.836703 514.81377,134.106833" id="Fill-85" fill="#B3CB49" mask="url(#mask-2)"></path>
                    <polygon id="Fill-86" fill="#49676F" mask="url(#mask-2)" points="516.56484 187.318561 516.56484 161.886593 512.83794 161.886593 510.47784 161.886593 506.75094 161.886593 506.75094 187.318561 510.47784 187.318561 510.47784 218.30038 507.57444 218.30038 507.57444 223.091089 510.47784 223.091089 512.83794 223.091089 515.74014 223.091089 515.74014 218.30038 512.83794 218.30038 512.83794 187.318561"></polygon>
                    <path d="M514.413,166.816903 C514.413,168.336983 513.1794,169.56965 511.6575,169.56965 C510.1365,169.56965 508.9029,168.336983 508.9029,166.816903 C508.9029,165.297123 510.1365,164.064456 511.6575,164.064456 C513.1794,164.064456 514.413,165.297123 514.413,166.816903" id="Fill-87" fill="#D5D4D0" mask="url(#mask-2)"></path>
                    <path d="M514.413,173.973117 C514.413,175.493197 513.1794,176.725864 511.6575,176.725864 C510.1365,176.725864 508.9029,175.493197 508.9029,173.973117 C508.9029,172.453037 510.1365,171.220669 511.6575,171.220669 C513.1794,171.220669 514.413,172.453037 514.413,173.973117" id="Fill-88" fill="#F1AC3E" mask="url(#mask-2)"></path>
                    <path d="M514.413,181.129031 C514.413,182.649111 513.1794,183.881778 511.6575,183.881778 C510.1365,183.881778 508.9029,182.649111 508.9029,181.129031 C508.9029,179.609251 510.1365,178.376883 511.6575,178.376883 C513.1794,178.376883 514.413,179.609251 514.413,181.129031" id="Fill-89" fill="#D5D4D0" mask="url(#mask-2)"></path>
                    <polygon id="Fill-90" fill="#66B652" mask="url(#mask-2)" points="471.11895 219.826963 460.06125 204.702587 468.85845 207.66992 457.22685 191.759431 464.87715 194.34015 455.98905 182.183407 462.44715 184.361628 448.77225 165.656733 434.33145 183.778711 440.87475 181.86992 431.48955 193.647542 439.24035 191.386603 426.95745 206.801688 435.87015 204.201489 424.19475 218.854136"></polygon>
                    <polygon id="Fill-91" fill="#7B969D" mask="url(#mask-2)" points="95.94813 167.137373 81.70263 167.137373 81.70263 161.261149 95.94813 161.261149 98.17383 164.199111"></polygon>
                    <polygon id="Fill-92" fill="#7B969D" mask="url(#mask-2)" points="67.36551 176.397932 81.61071 176.397932 81.61071 170.522008 67.36551 170.522008 65.13921 173.45967"></polygon>
                    <polygon id="Fill-93" fill="#7B969D" mask="url(#mask-2)" points="67.36551 186.77008 81.61071 186.77008 81.61071 180.894456 67.36551 180.894456 65.13921 183.831518"></polygon>
                    <polygon id="Fill-94" fill="#49676F" mask="url(#mask-2)" points="80.7762 222.948851 82.4439 222.948851 82.4439 161.260939 80.7762 161.260939"></polygon>
                    <polygon id="Fill-95" fill="#49676F" mask="url(#mask-2)" points="78.7269 222.948851 84.4941 222.948851 84.4941 219.491808 78.7269 219.491808"></polygon>
                    <path d="M184.97664,51.5019381 L183.16974,51.5019381 C182.87184,47.1745654 179.19204,43.7516883 174.68364,43.7516883 C173.66664,43.7516883 172.69584,43.9345055 171.79254,44.2536863 C171.79974,44.0858541 171.81774,43.9207193 171.81774,43.7516883 C171.81774,37.6794605 166.77594,32.7568831 160.55664,32.7568831 C158.88474,32.7568831 157.30584,33.1213187 155.87964,33.7587812 C153.10404,31.1247153 149.32194,29.497043 145.14474,29.497043 C138.93054,29.497043 133.59024,33.0949451 131.15244,38.2668731 C130.68564,38.2123277 130.21524,38.1763636 129.73344,38.1763636 C123.18744,38.1763636 117.87984,43.3575824 117.87984,49.748991 C117.87984,50.4454945 117.95334,51.124016 118.07484,51.7863536 C115.22994,52.6282118 113.13744,55.2655744 113.13744,58.3713686 C113.13744,62.1487912 116.23254,65.2401998 120.01404,65.2401998 L184.97664,65.2401998 C188.75814,65.2401998 191.85234,62.1487912 191.85234,58.3713686 C191.85234,54.5933467 188.75814,51.5019381 184.97664,51.5019381" id="Fill-96" fill="#C4E6F0" mask="url(#mask-2)"></path>
                </g>
            </g>
        </g>
    </g>
</svg>