<?xml version="1.0" encoding="UTF-8"?>
<svg width="416px" height="382px" viewBox="0 0 416 382" version="1.1" xmlns="http://www.w3.org/2000/svg" xmlns:xlink="http://www.w3.org/1999/xlink">
    <!-- Generator: Sketch 52.6 (67491) - http://www.bohemiancoding.com/sketch -->
    <title>分组</title>
    <desc>Created with Sketch.</desc>
    <defs>
        <polygon id="path-1" points="5.99423632e-05 0.0270283019 415.80219 0.0270283019 415.80219 381.699686 5.99423632e-05 381.699686"></polygon>
        <polygon id="path-3" points="0 0.0270883648 401.272101 0.0270883648 401.272101 351.668299 0 351.668299"></polygon>
    </defs>
    <g id="图示" stroke="none" stroke-width="1" fill="none" fill-rule="evenodd">
        <g id="场景" transform="translate(-18.000000, -463.000000)">
            <g id="分组" transform="translate(18.000000, 463.000000)">
                <g transform="translate(0.000000, 0.273286)">
                    <mask id="mask-2" fill="white">
                        <use xlink:href="#path-1"></use>
                    </mask>
                    <g id="Clip-2"></g>
                    <path d="M415.80225,290.001667 L415.80225,366.683962 C415.80225,374.975645 409.0947,381.699686 400.816659,381.699686 L5.99423632e-05,381.699686 L5.99423632e-05,351.668239 L385.831069,351.668239 L385.831069,305.01739 L126.796141,305.01739 C118.5181,305.01739 111.81055,298.293349 111.81055,290.001667 L111.81055,220.487877 C111.81055,212.193192 118.5181,205.472154 126.796141,205.472154 L309.476486,205.472154 L309.476486,162.340991 L26.890204,162.340991 C18.6151608,162.340991 11.9046133,155.61695 11.9046133,147.325267 L11.9046133,75.8203931 C11.9046133,67.5287107 18.6151608,60.8046698 26.890204,60.8046698 L206.717293,60.8046698 L206.717293,30.0584748 L5.99423632e-05,30.0584748 L5.99423632e-05,0.0270283019 L221.702884,0.0270283019 C229.980924,0.0270283019 236.688475,6.75106918 236.688475,15.0427516 L236.688475,75.8203931 C236.688475,84.1150786 229.980924,90.8361164 221.702884,90.8361164 L41.8757948,90.8361164 L41.8757948,132.309544 L324.462077,132.309544 C332.739818,132.309544 339.447668,139.030582 339.447668,147.325267 L339.447668,220.487877 C339.447668,228.77956 332.739818,235.503601 324.462077,235.503601 L141.781731,235.503601 L141.781731,274.985943 L400.816659,274.985943 C409.0947,274.985943 415.80225,281.706981 415.80225,290.001667" id="Fill-1" fill="#383840" mask="url(#mask-2)"></path>
                </g>
                <g transform="translate(0.000000, 15.289009)">
                    <mask id="mask-4" fill="white">
                        <use xlink:href="#path-3"></use>
                    </mask>
                    <g id="Clip-4"></g>
                    <path d="M-5.99423631e-05,0.0270883648 L222.158326,0.0270883648 L222.158326,60.8047299 L27.3456461,60.8047299 L27.3456461,132.309604 L324.917519,132.309604 L324.917519,205.472214 L127.248586,205.472214 L127.248586,274.986003 L401.272101,274.986003 L401.272101,351.668299 L-5.99423631e-05,351.668299" id="Stroke-3" stroke="#FFFFFF" stroke-width="1.8" stroke-dasharray="10.2" mask="url(#mask-4)"></path>
                </g>
            </g>
        </g>
    </g>
</svg>